<svg width="393" height="879" viewBox="0 0 393 879" fill="none" xmlns="http://www.w3.org/2000/svg">
<g clip-path="url(#clip0_54_1314)">
<rect width="393" height="879" fill="white"/>
<rect x="130" y="866" width="134" height="5" rx="2.5" fill="#141414"/>
<rect x="15.5" y="275.5" width="361" height="59" rx="7.5" stroke="#B8B8B8"/>
<path d="M42.744 299.88V301.368H38.024V304.648H41.704V306.136H38.024V311H36.2V299.88H42.744ZM52.4184 302.184V311H50.5944V309.96C50.3064 310.323 49.9277 310.611 49.4584 310.824C48.9997 311.027 48.509 311.128 47.9864 311.128C47.293 311.128 46.669 310.984 46.1144 310.696C45.5704 310.408 45.1384 309.981 44.8184 309.416C44.509 308.851 44.3544 308.168 44.3544 307.368V302.184H46.1624V307.096C46.1624 307.885 46.3597 308.493 46.7544 308.92C47.149 309.336 47.6877 309.544 48.3704 309.544C49.053 309.544 49.5917 309.336 49.9864 308.92C50.3917 308.493 50.5944 307.885 50.5944 307.096V302.184H52.4184ZM56.649 299.16V311H54.825V299.16H56.649ZM60.8678 299.16V311H59.0438V299.16H60.8678ZM76.5548 311H74.7308L69.2428 302.696V311H67.4188V299.864H69.2428L74.7308 308.152V299.864H76.5548V311ZM78.342 306.552C78.342 305.667 78.5233 304.883 78.886 304.2C79.2593 303.517 79.7607 302.989 80.39 302.616C81.03 302.232 81.734 302.04 82.502 302.04C83.1953 302.04 83.798 302.179 84.31 302.456C84.8327 302.723 85.2487 303.059 85.558 303.464V302.184H87.398V311H85.558V309.688C85.2487 310.104 84.8273 310.451 84.294 310.728C83.7607 311.005 83.1527 311.144 82.47 311.144C81.7127 311.144 81.0193 310.952 80.39 310.568C79.7607 310.173 79.2593 309.629 78.886 308.936C78.5233 308.232 78.342 307.437 78.342 306.552ZM85.558 306.584C85.558 305.976 85.43 305.448 85.174 305C84.9287 304.552 84.6033 304.211 84.198 303.976C83.7927 303.741 83.3553 303.624 82.886 303.624C82.4167 303.624 81.9793 303.741 81.574 303.976C81.1687 304.2 80.838 304.536 80.582 304.984C80.3367 305.421 80.214 305.944 80.214 306.552C80.214 307.16 80.3367 307.693 80.582 308.152C80.838 308.611 81.1687 308.963 81.574 309.208C81.99 309.443 82.4273 309.56 82.886 309.56C83.3553 309.56 83.7927 309.443 84.198 309.208C84.6033 308.973 84.9287 308.632 85.174 308.184C85.43 307.725 85.558 307.192 85.558 306.584ZM100.466 302.04C101.159 302.04 101.778 302.184 102.322 302.472C102.876 302.76 103.308 303.187 103.618 303.752C103.938 304.317 104.098 305 104.098 305.8V311H102.29V306.072C102.29 305.283 102.092 304.68 101.698 304.264C101.303 303.837 100.764 303.624 100.082 303.624C99.3991 303.624 98.8551 303.837 98.4498 304.264C98.0551 304.68 97.8578 305.283 97.8578 306.072V311H96.0498V306.072C96.0498 305.283 95.8524 304.68 95.4578 304.264C95.0631 303.837 94.5244 303.624 93.8418 303.624C93.1591 303.624 92.6151 303.837 92.2098 304.264C91.8151 304.68 91.6178 305.283 91.6178 306.072V311H89.7938V302.184H91.6178V303.192C91.9164 302.829 92.2951 302.547 92.7538 302.344C93.2124 302.141 93.7031 302.04 94.2258 302.04C94.9298 302.04 95.5591 302.189 96.1138 302.488C96.6684 302.787 97.0951 303.219 97.3938 303.784C97.6604 303.251 98.0764 302.829 98.6418 302.52C99.2071 302.2 99.8151 302.04 100.466 302.04ZM114.499 306.376C114.499 306.707 114.477 307.005 114.435 307.272H107.699C107.752 307.976 108.013 308.541 108.483 308.968C108.952 309.395 109.528 309.608 110.211 309.608C111.192 309.608 111.885 309.197 112.291 308.376H114.259C113.992 309.187 113.507 309.853 112.803 310.376C112.109 310.888 111.245 311.144 110.211 311.144C109.368 311.144 108.611 310.957 107.939 310.584C107.277 310.2 106.755 309.667 106.371 308.984C105.997 308.291 105.811 307.491 105.811 306.584C105.811 305.677 105.992 304.883 106.355 304.2C106.728 303.507 107.245 302.973 107.907 302.6C108.579 302.227 109.347 302.04 110.211 302.04C111.043 302.04 111.784 302.221 112.435 302.584C113.085 302.947 113.592 303.459 113.955 304.12C114.317 304.771 114.499 305.523 114.499 306.376ZM112.595 305.8C112.584 305.128 112.344 304.589 111.875 304.184C111.405 303.779 110.824 303.576 110.131 303.576C109.501 303.576 108.963 303.779 108.515 304.184C108.067 304.579 107.8 305.117 107.715 305.8H112.595Z" fill="#D0D0D0"/>
<rect x="15.5" y="435.5" width="361" height="59" rx="7.5" stroke="#B8B8B8"/>
<path d="M38.024 461.352V464.616H41.864V466.104H38.024V469.512H42.344V471H36.2V459.864H42.344V461.352H38.024ZM55.2626 462.04C55.956 462.04 56.5746 462.184 57.1186 462.472C57.6733 462.76 58.1053 463.187 58.4146 463.752C58.7346 464.317 58.8946 465 58.8946 465.8V471H57.0866V466.072C57.0866 465.283 56.8893 464.68 56.4946 464.264C56.1 463.837 55.5613 463.624 54.8786 463.624C54.196 463.624 53.652 463.837 53.2466 464.264C52.852 464.68 52.6546 465.283 52.6546 466.072V471H50.8466V466.072C50.8466 465.283 50.6493 464.68 50.2546 464.264C49.86 463.837 49.3213 463.624 48.6386 463.624C47.956 463.624 47.412 463.837 47.0066 464.264C46.612 464.68 46.4146 465.283 46.4146 466.072V471H44.5906V462.184H46.4146V463.192C46.7133 462.829 47.092 462.547 47.5506 462.344C48.0093 462.141 48.5 462.04 49.0226 462.04C49.7266 462.04 50.356 462.189 50.9106 462.488C51.4653 462.787 51.892 463.219 52.1906 463.784C52.4573 463.251 52.8733 462.829 53.4386 462.52C54.004 462.2 54.612 462.04 55.2626 462.04ZM60.6076 466.552C60.6076 465.667 60.789 464.883 61.1516 464.2C61.525 463.517 62.0263 462.989 62.6556 462.616C63.2956 462.232 63.9996 462.04 64.7676 462.04C65.461 462.04 66.0636 462.179 66.5756 462.456C67.0983 462.723 67.5143 463.059 67.8236 463.464V462.184H69.6636V471H67.8236V469.688C67.5143 470.104 67.093 470.451 66.5596 470.728C66.0263 471.005 65.4183 471.144 64.7356 471.144C63.9783 471.144 63.285 470.952 62.6556 470.568C62.0263 470.173 61.525 469.629 61.1516 468.936C60.789 468.232 60.6076 467.437 60.6076 466.552ZM67.8236 466.584C67.8236 465.976 67.6956 465.448 67.4396 465C67.1943 464.552 66.869 464.211 66.4636 463.976C66.0583 463.741 65.621 463.624 65.1516 463.624C64.6823 463.624 64.245 463.741 63.8396 463.976C63.4343 464.2 63.1036 464.536 62.8476 464.984C62.6023 465.421 62.4796 465.944 62.4796 466.552C62.4796 467.16 62.6023 467.693 62.8476 468.152C63.1036 468.611 63.4343 468.963 63.8396 469.208C64.2556 469.443 64.693 469.56 65.1516 469.56C65.621 469.56 66.0583 469.443 66.4636 469.208C66.869 468.973 67.1943 468.632 67.4396 468.184C67.6956 467.725 67.8236 467.192 67.8236 466.584ZM72.9874 461.016C72.6567 461.016 72.3794 460.904 72.1554 460.68C71.9314 460.456 71.8194 460.179 71.8194 459.848C71.8194 459.517 71.9314 459.24 72.1554 459.016C72.3794 458.792 72.6567 458.68 72.9874 458.68C73.3074 458.68 73.5794 458.792 73.8034 459.016C74.0274 459.24 74.1394 459.517 74.1394 459.848C74.1394 460.179 74.0274 460.456 73.8034 460.68C73.5794 460.904 73.3074 461.016 72.9874 461.016ZM73.8834 462.184V471H72.0594V462.184H73.8834ZM78.1021 459.16V471H76.2781V459.16H78.1021Z" fill="#D0D0D0"/>
<rect x="15.5" y="515.5" width="361" height="59" rx="7.5" stroke="#B8B8B8"/>
<path d="M39.864 551.112C39.1173 551.112 38.4453 550.984 37.848 550.728C37.2507 550.461 36.7813 550.088 36.44 549.608C36.0987 549.128 35.928 548.568 35.928 547.928H37.88C37.9227 548.408 38.1093 548.803 38.44 549.112C38.7813 549.421 39.256 549.576 39.864 549.576C40.4933 549.576 40.984 549.427 41.336 549.128C41.688 548.819 41.864 548.424 41.864 547.944C41.864 547.571 41.752 547.267 41.528 547.032C41.3147 546.797 41.0427 546.616 40.712 546.488C40.392 546.36 39.944 546.221 39.368 546.072C38.6427 545.88 38.0507 545.688 37.592 545.496C37.144 545.293 36.76 544.984 36.44 544.568C36.12 544.152 35.96 543.597 35.96 542.904C35.96 542.264 36.12 541.704 36.44 541.224C36.76 540.744 37.208 540.376 37.784 540.12C38.36 539.864 39.0267 539.736 39.784 539.736C40.8613 539.736 41.7413 540.008 42.424 540.552C43.1173 541.085 43.5013 541.821 43.576 542.76H41.56C41.528 542.355 41.336 542.008 40.984 541.72C40.632 541.432 40.168 541.288 39.592 541.288C39.0693 541.288 38.6427 541.421 38.312 541.688C37.9813 541.955 37.816 542.339 37.816 542.84C37.816 543.181 37.9173 543.464 38.12 543.688C38.3333 543.901 38.6 544.072 38.92 544.2C39.24 544.328 39.6773 544.467 40.232 544.616C40.968 544.819 41.5653 545.021 42.024 545.224C42.4933 545.427 42.888 545.741 43.208 546.168C43.5387 546.584 43.704 547.144 43.704 547.848C43.704 548.413 43.5493 548.947 43.24 549.448C42.9413 549.949 42.4987 550.355 41.912 550.664C41.336 550.963 40.6533 551.112 39.864 551.112ZM47.9843 543.672V548.552C47.9843 548.883 48.0589 549.123 48.2083 549.272C48.3683 549.411 48.6349 549.48 49.0083 549.48H50.1283V551H48.6883C47.8669 551 47.2376 550.808 46.8003 550.424C46.3629 550.04 46.1443 549.416 46.1443 548.552V543.672H45.1043V542.184H46.1443V539.992H47.9843V542.184H50.1283V543.672H47.9843ZM53.6334 543.464C53.9 543.016 54.252 542.669 54.6894 542.424C55.1374 542.168 55.6654 542.04 56.2734 542.04V543.928H55.8094C55.0947 543.928 54.5507 544.109 54.1774 544.472C53.8147 544.835 53.6334 545.464 53.6334 546.36V551H51.8094V542.184H53.6334V543.464ZM66.03 546.376C66.03 546.707 66.0087 547.005 65.966 547.272H59.23C59.2833 547.976 59.5447 548.541 60.014 548.968C60.4833 549.395 61.0593 549.608 61.742 549.608C62.7233 549.608 63.4167 549.197 63.822 548.376H65.79C65.5233 549.187 65.038 549.853 64.334 550.376C63.6407 550.888 62.7767 551.144 61.742 551.144C60.8993 551.144 60.142 550.957 59.47 550.584C58.8087 550.2 58.286 549.667 57.902 548.984C57.5287 548.291 57.342 547.491 57.342 546.584C57.342 545.677 57.5233 544.883 57.886 544.2C58.2593 543.507 58.7767 542.973 59.438 542.6C60.11 542.227 60.878 542.04 61.742 542.04C62.574 542.04 63.3153 542.221 63.966 542.584C64.6167 542.947 65.1233 543.459 65.486 544.12C65.8487 544.771 66.03 545.523 66.03 546.376ZM64.126 545.8C64.1153 545.128 63.8753 544.589 63.406 544.184C62.9367 543.779 62.3553 543.576 61.662 543.576C61.0327 543.576 60.494 543.779 60.046 544.184C59.598 544.579 59.3313 545.117 59.246 545.8H64.126ZM75.905 546.376C75.905 546.707 75.8837 547.005 75.841 547.272H69.105C69.1583 547.976 69.4197 548.541 69.889 548.968C70.3583 549.395 70.9343 549.608 71.617 549.608C72.5983 549.608 73.2917 549.197 73.697 548.376H75.665C75.3983 549.187 74.913 549.853 74.209 550.376C73.5157 550.888 72.6517 551.144 71.617 551.144C70.7743 551.144 70.017 550.957 69.345 550.584C68.6837 550.2 68.161 549.667 67.777 548.984C67.4037 548.291 67.217 547.491 67.217 546.584C67.217 545.677 67.3983 544.883 67.761 544.2C68.1343 543.507 68.6517 542.973 69.313 542.6C69.985 542.227 70.753 542.04 71.617 542.04C72.449 542.04 73.1903 542.221 73.841 542.584C74.4917 542.947 74.9983 543.459 75.361 544.12C75.7237 544.771 75.905 545.523 75.905 546.376ZM74.001 545.8C73.9903 545.128 73.7503 544.589 73.281 544.184C72.8117 543.779 72.2303 543.576 71.537 543.576C70.9077 543.576 70.369 543.779 69.921 544.184C69.473 544.579 69.2063 545.117 69.121 545.8H74.001ZM79.828 543.672V548.552C79.828 548.883 79.9027 549.123 80.052 549.272C80.212 549.411 80.4787 549.48 80.852 549.48H81.972V551H80.532C79.7107 551 79.0813 550.808 78.644 550.424C78.2067 550.04 77.988 549.416 77.988 548.552V543.672H76.948V542.184H77.988V539.992H79.828V542.184H81.972V543.672H79.828Z" fill="#D0D0D0"/>
<rect x="15.5" y="595.5" width="361" height="59" rx="7.5" stroke="#B8B8B8"/>
<path d="M35.592 625.416C35.592 624.328 35.8427 623.352 36.344 622.488C36.856 621.624 37.544 620.952 38.408 620.472C39.2827 619.981 40.2373 619.736 41.272 619.736C42.456 619.736 43.5067 620.029 44.424 620.616C45.352 621.192 46.024 622.013 46.44 623.08H44.248C43.96 622.493 43.56 622.056 43.048 621.768C42.536 621.48 41.944 621.336 41.272 621.336C40.536 621.336 39.88 621.501 39.304 621.832C38.728 622.163 38.2747 622.637 37.944 623.256C37.624 623.875 37.464 624.595 37.464 625.416C37.464 626.237 37.624 626.957 37.944 627.576C38.2747 628.195 38.728 628.675 39.304 629.016C39.88 629.347 40.536 629.512 41.272 629.512C41.944 629.512 42.536 629.368 43.048 629.08C43.56 628.792 43.96 628.355 44.248 627.768H46.44C46.024 628.835 45.352 629.656 44.424 630.232C43.5067 630.808 42.456 631.096 41.272 631.096C40.2267 631.096 39.272 630.856 38.408 630.376C37.544 629.885 36.856 629.208 36.344 628.344C35.8427 627.48 35.592 626.504 35.592 625.416ZM49.503 621.016C49.1723 621.016 48.895 620.904 48.671 620.68C48.447 620.456 48.335 620.179 48.335 619.848C48.335 619.517 48.447 619.24 48.671 619.016C48.895 618.792 49.1723 618.68 49.503 618.68C49.823 618.68 50.095 618.792 50.319 619.016C50.543 619.24 50.655 619.517 50.655 619.848C50.655 620.179 50.543 620.456 50.319 620.68C50.095 620.904 49.823 621.016 49.503 621.016ZM50.399 622.184V631H48.575V622.184H50.399ZM54.9218 623.672V628.552C54.9218 628.883 54.9964 629.123 55.1458 629.272C55.3058 629.411 55.5724 629.48 55.9458 629.48H57.0658V631H55.6258C54.8044 631 54.1751 630.808 53.7378 630.424C53.3004 630.04 53.0818 629.416 53.0818 628.552V623.672H52.0418V622.184H53.0818V619.992H54.9218V622.184H57.0658V623.672H54.9218ZM66.6829 622.184L61.2749 635.144H59.3869L61.1789 630.856L57.7069 622.184H59.7389L62.2189 628.904L64.7949 622.184H66.6829Z" fill="#D0D0D0"/>
<path d="M360.189 622.29L354.05 628.429C353.464 629.015 352.514 629.015 351.928 628.429L345.789 622.29" stroke="#414141" stroke-width="2" stroke-linecap="round" stroke-linejoin="round"/>
<rect x="15.5" y="675.5" width="361" height="59" rx="7.5" stroke="#B8B8B8"/>
<path d="M39.832 699.88C41.016 699.88 42.0507 700.109 42.936 700.568C43.832 701.016 44.52 701.667 45 702.52C45.4907 703.363 45.736 704.349 45.736 705.48C45.736 706.611 45.4907 707.592 45 708.424C44.52 709.256 43.832 709.896 42.936 710.344C42.0507 710.781 41.016 711 39.832 711H36.2V699.88H39.832ZM39.832 709.512C41.1333 709.512 42.1307 709.16 42.824 708.456C43.5173 707.752 43.864 706.76 43.864 705.48C43.864 704.189 43.5173 703.181 42.824 702.456C42.1307 701.731 41.1333 701.368 39.832 701.368H38.024V709.512H39.832ZM48.4718 701.016C48.1411 701.016 47.8638 700.904 47.6398 700.68C47.4158 700.456 47.3038 700.179 47.3038 699.848C47.3038 699.517 47.4158 699.24 47.6398 699.016C47.8638 698.792 48.1411 698.68 48.4718 698.68C48.7918 698.68 49.0638 698.792 49.2878 699.016C49.5118 699.24 49.6238 699.517 49.6238 699.848C49.6238 700.179 49.5118 700.456 49.2878 700.68C49.0638 700.904 48.7918 701.016 48.4718 701.016ZM49.3678 702.184V711H47.5438V702.184H49.3678ZM54.9625 711.144C54.2692 711.144 53.6452 711.021 53.0905 710.776C52.5465 710.52 52.1145 710.179 51.7945 709.752C51.4745 709.315 51.3038 708.829 51.2825 708.296H53.1705C53.2025 708.669 53.3785 708.984 53.6985 709.24C54.0292 709.485 54.4398 709.608 54.9305 709.608C55.4425 709.608 55.8372 709.512 56.1145 709.32C56.4025 709.117 56.5465 708.861 56.5465 708.552C56.5465 708.221 56.3865 707.976 56.0665 707.816C55.7572 707.656 55.2612 707.48 54.5785 707.288C53.9172 707.107 53.3785 706.931 52.9625 706.76C52.5465 706.589 52.1838 706.328 51.8745 705.976C51.5758 705.624 51.4265 705.16 51.4265 704.584C51.4265 704.115 51.5652 703.688 51.8425 703.304C52.1198 702.909 52.5145 702.6 53.0265 702.376C53.5492 702.152 54.1465 702.04 54.8185 702.04C55.8212 702.04 56.6265 702.296 57.2345 702.808C57.8532 703.309 58.1838 703.997 58.2265 704.872H56.4025C56.3705 704.477 56.2105 704.163 55.9225 703.928C55.6345 703.693 55.2452 703.576 54.7545 703.576C54.2745 703.576 53.9065 703.667 53.6505 703.848C53.3945 704.029 53.2665 704.269 53.2665 704.568C53.2665 704.803 53.3518 705 53.5225 705.16C53.6932 705.32 53.9012 705.448 54.1465 705.544C54.3918 705.629 54.7545 705.741 55.2345 705.88C55.8745 706.051 56.3972 706.227 56.8025 706.408C57.2185 706.579 57.5758 706.835 57.8745 707.176C58.1732 707.517 58.3278 707.971 58.3385 708.536C58.3385 709.037 58.1998 709.485 57.9225 709.88C57.6452 710.275 57.2505 710.584 56.7385 710.808C56.2372 711.032 55.6452 711.144 54.9625 711.144ZM62.4374 703.672V708.552C62.4374 708.883 62.512 709.123 62.6614 709.272C62.8214 709.411 63.088 709.48 63.4614 709.48H64.5814V711H63.1414C62.32 711 61.6907 710.808 61.2534 710.424C60.816 710.04 60.5974 709.416 60.5974 708.552V703.672H59.5574V702.184H60.5974V699.992H62.4374V702.184H64.5814V703.672H62.4374ZM68.0865 703.464C68.3532 703.016 68.7052 702.669 69.1425 702.424C69.5905 702.168 70.1185 702.04 70.7265 702.04V703.928H70.2625C69.5478 703.928 69.0038 704.109 68.6305 704.472C68.2678 704.835 68.0865 705.464 68.0865 706.36V711H66.2625V702.184H68.0865V703.464ZM73.3311 701.016C73.0005 701.016 72.7231 700.904 72.4991 700.68C72.2751 700.456 72.1631 700.179 72.1631 699.848C72.1631 699.517 72.2751 699.24 72.4991 699.016C72.7231 698.792 73.0005 698.68 73.3311 698.68C73.6511 698.68 73.9231 698.792 74.1471 699.016C74.3711 699.24 74.4831 699.517 74.4831 699.848C74.4831 700.179 74.3711 700.456 74.1471 700.68C73.9231 700.904 73.6511 701.016 73.3311 701.016ZM74.2271 702.184V711H72.4031V702.184H74.2271ZM76.0139 706.584C76.0139 705.677 76.1952 704.883 76.5579 704.2C76.9312 703.507 77.4432 702.973 78.0939 702.6C78.7445 702.227 79.4912 702.04 80.3339 702.04C81.4005 702.04 82.2805 702.296 82.9739 702.808C83.6779 703.309 84.1525 704.029 84.3979 704.968H82.4299C82.2699 704.531 82.0139 704.189 81.6619 703.944C81.3099 703.699 80.8672 703.576 80.3339 703.576C79.5872 703.576 78.9899 703.843 78.5419 704.376C78.1045 704.899 77.8859 705.635 77.8859 706.584C77.8859 707.533 78.1045 708.275 78.5419 708.808C78.9899 709.341 79.5872 709.608 80.3339 709.608C81.3899 709.608 82.0885 709.144 82.4299 708.216H84.3979C84.1419 709.112 83.6619 709.827 82.9579 710.36C82.2539 710.883 81.3792 711.144 80.3339 711.144C79.4912 711.144 78.7445 710.957 78.0939 710.584C77.4432 710.2 76.9312 709.667 76.5579 708.984C76.1952 708.291 76.0139 707.491 76.0139 706.584ZM88.3436 703.672V708.552C88.3436 708.883 88.4183 709.123 88.5676 709.272C88.7276 709.411 88.9943 709.48 89.3676 709.48H90.4876V711H89.0476C88.2263 711 87.597 710.808 87.1596 710.424C86.7223 710.04 86.5036 709.416 86.5036 708.552V703.672H85.4636V702.184H86.5036V699.992H88.3436V702.184H90.4876V703.672H88.3436Z" fill="#D0D0D0"/>
<path d="M360.189 702.29L354.05 708.429C353.464 709.015 352.514 709.015 351.928 708.429L345.789 702.29" stroke="#414141" stroke-width="2" stroke-linecap="round" stroke-linejoin="round"/>
<rect x="15.5" y="355.5" width="361" height="59" rx="7.5" stroke="#B8B8B8"/>
<path d="M117.792 388.992H114.56V392.304H112.864V388.992H109.632V387.456H112.864V384.144H114.56V387.456H117.792V388.992ZM122.35 387.904C121.241 387.349 120.686 386.475 120.686 385.28C120.686 384.704 120.83 384.176 121.118 383.696C121.406 383.216 121.838 382.837 122.414 382.56C122.99 382.272 123.694 382.128 124.526 382.128C125.347 382.128 126.046 382.272 126.622 382.56C127.209 382.837 127.646 383.216 127.934 383.696C128.222 384.176 128.366 384.704 128.366 385.28C128.366 385.877 128.211 386.405 127.902 386.864C127.603 387.312 127.203 387.659 126.702 387.904C127.31 388.128 127.79 388.496 128.142 389.008C128.494 389.509 128.67 390.101 128.67 390.784C128.67 391.477 128.494 392.091 128.142 392.624C127.79 393.157 127.299 393.568 126.67 393.856C126.041 394.144 125.326 394.288 124.526 394.288C123.726 394.288 123.011 394.144 122.382 393.856C121.763 393.568 121.278 393.157 120.926 392.624C120.574 392.091 120.398 391.477 120.398 390.784C120.398 390.091 120.574 389.493 120.926 388.992C121.278 388.491 121.753 388.128 122.35 387.904ZM126.622 385.504C126.622 384.907 126.435 384.448 126.062 384.128C125.689 383.808 125.177 383.648 124.526 383.648C123.886 383.648 123.379 383.808 123.006 384.128C122.633 384.448 122.446 384.912 122.446 385.52C122.446 386.053 122.638 386.491 123.022 386.832C123.417 387.163 123.918 387.328 124.526 387.328C125.134 387.328 125.635 387.157 126.03 386.816C126.425 386.475 126.622 386.037 126.622 385.504ZM124.526 388.704C123.822 388.704 123.246 388.88 122.798 389.232C122.361 389.573 122.142 390.069 122.142 390.72C122.142 391.328 122.355 391.824 122.782 392.208C123.209 392.581 123.79 392.768 124.526 392.768C125.251 392.768 125.822 392.576 126.238 392.192C126.665 391.808 126.878 391.317 126.878 390.72C126.878 390.08 126.659 389.584 126.222 389.232C125.795 388.88 125.23 388.704 124.526 388.704ZM132.553 387.904C131.444 387.349 130.889 386.475 130.889 385.28C130.889 384.704 131.033 384.176 131.321 383.696C131.609 383.216 132.041 382.837 132.617 382.56C133.193 382.272 133.897 382.128 134.729 382.128C135.55 382.128 136.249 382.272 136.825 382.56C137.412 382.837 137.849 383.216 138.137 383.696C138.425 384.176 138.569 384.704 138.569 385.28C138.569 385.877 138.414 386.405 138.105 386.864C137.806 387.312 137.406 387.659 136.905 387.904C137.513 388.128 137.993 388.496 138.345 389.008C138.697 389.509 138.873 390.101 138.873 390.784C138.873 391.477 138.697 392.091 138.345 392.624C137.993 393.157 137.502 393.568 136.873 393.856C136.244 394.144 135.529 394.288 134.729 394.288C133.929 394.288 133.214 394.144 132.585 393.856C131.966 393.568 131.481 393.157 131.129 392.624C130.777 392.091 130.601 391.477 130.601 390.784C130.601 390.091 130.777 389.493 131.129 388.992C131.481 388.491 131.956 388.128 132.553 387.904ZM136.825 385.504C136.825 384.907 136.638 384.448 136.265 384.128C135.892 383.808 135.38 383.648 134.729 383.648C134.089 383.648 133.582 383.808 133.209 384.128C132.836 384.448 132.649 384.912 132.649 385.52C132.649 386.053 132.841 386.491 133.225 386.832C133.62 387.163 134.121 387.328 134.729 387.328C135.337 387.328 135.838 387.157 136.233 386.816C136.628 386.475 136.825 386.037 136.825 385.504ZM134.729 388.704C134.025 388.704 133.449 388.88 133.001 389.232C132.564 389.573 132.345 390.069 132.345 390.72C132.345 391.328 132.558 391.824 132.985 392.208C133.412 392.581 133.993 392.768 134.729 392.768C135.454 392.768 136.025 392.576 136.441 392.192C136.868 391.808 137.081 391.317 137.081 390.72C137.081 390.08 136.862 389.584 136.425 389.232C135.998 388.88 135.433 388.704 134.729 388.704ZM140.788 388.016C140.788 386.171 141.097 384.731 141.716 383.696C142.345 382.651 143.423 382.128 144.948 382.128C146.473 382.128 147.545 382.651 148.164 383.696C148.793 384.731 149.108 386.171 149.108 388.016C149.108 389.883 148.793 391.344 148.164 392.4C147.545 393.445 146.473 393.968 144.948 393.968C143.423 393.968 142.345 393.445 141.716 392.4C141.097 391.344 140.788 389.883 140.788 388.016ZM147.316 388.016C147.316 387.152 147.257 386.421 147.14 385.824C147.033 385.227 146.809 384.741 146.468 384.368C146.127 383.984 145.62 383.792 144.948 383.792C144.276 383.792 143.769 383.984 143.428 384.368C143.087 384.741 142.857 385.227 142.74 385.824C142.633 386.421 142.58 387.152 142.58 388.016C142.58 388.912 142.633 389.664 142.74 390.272C142.847 390.88 143.071 391.371 143.412 391.744C143.764 392.117 144.276 392.304 144.948 392.304C145.62 392.304 146.127 392.117 146.468 391.744C146.82 391.371 147.049 390.88 147.156 390.272C147.263 389.664 147.316 388.912 147.316 388.016Z" fill="#262626"/>
<path d="M164.44 381.88L160.76 388.968V393H158.936V388.968L155.24 381.88H157.272L159.848 387.336L162.424 381.88H164.44ZM169.712 393.144C168.88 393.144 168.128 392.957 167.456 392.584C166.784 392.2 166.256 391.667 165.872 390.984C165.488 390.291 165.296 389.491 165.296 388.584C165.296 387.688 165.493 386.893 165.888 386.2C166.282 385.507 166.821 384.973 167.504 384.6C168.186 384.227 168.949 384.04 169.792 384.04C170.634 384.04 171.397 384.227 172.08 384.6C172.762 384.973 173.301 385.507 173.696 386.2C174.09 386.893 174.288 387.688 174.288 388.584C174.288 389.48 174.085 390.275 173.68 390.968C173.274 391.661 172.72 392.2 172.016 392.584C171.322 392.957 170.554 393.144 169.712 393.144ZM169.712 391.56C170.181 391.56 170.618 391.448 171.024 391.224C171.44 391 171.776 390.664 172.032 390.216C172.288 389.768 172.416 389.224 172.416 388.584C172.416 387.944 172.293 387.405 172.048 386.968C171.802 386.52 171.477 386.184 171.072 385.96C170.666 385.736 170.229 385.624 169.76 385.624C169.29 385.624 168.853 385.736 168.448 385.96C168.053 386.184 167.738 386.52 167.504 386.968C167.269 387.405 167.152 387.944 167.152 388.584C167.152 389.533 167.392 390.269 167.872 390.792C168.362 391.304 168.976 391.56 169.712 391.56ZM184.075 384.184V393H182.251V391.96C181.963 392.323 181.584 392.611 181.115 392.824C180.656 393.027 180.165 393.128 179.643 393.128C178.949 393.128 178.325 392.984 177.771 392.696C177.227 392.408 176.795 391.981 176.475 391.416C176.165 390.851 176.011 390.168 176.011 389.368V384.184H177.819V389.096C177.819 389.885 178.016 390.493 178.411 390.92C178.805 391.336 179.344 391.544 180.027 391.544C180.709 391.544 181.248 391.336 181.643 390.92C182.048 390.493 182.251 389.885 182.251 389.096V384.184H184.075ZM188.305 385.464C188.572 385.016 188.924 384.669 189.361 384.424C189.809 384.168 190.337 384.04 190.945 384.04V385.928H190.481C189.767 385.928 189.223 386.109 188.849 386.472C188.487 386.835 188.305 387.464 188.305 388.36V393H186.481V384.184H188.305V385.464ZM207.45 384.04C208.143 384.04 208.762 384.184 209.306 384.472C209.861 384.76 210.293 385.187 210.602 385.752C210.922 386.317 211.082 387 211.082 387.8V393H209.274V388.072C209.274 387.283 209.077 386.68 208.682 386.264C208.287 385.837 207.749 385.624 207.066 385.624C206.383 385.624 205.839 385.837 205.434 386.264C205.039 386.68 204.842 387.283 204.842 388.072V393H203.034V388.072C203.034 387.283 202.837 386.68 202.442 386.264C202.047 385.837 201.509 385.624 200.826 385.624C200.143 385.624 199.599 385.837 199.194 386.264C198.799 386.68 198.602 387.283 198.602 388.072V393H196.778V384.184H198.602V385.192C198.901 384.829 199.279 384.547 199.738 384.344C200.197 384.141 200.687 384.04 201.21 384.04C201.914 384.04 202.543 384.189 203.098 384.488C203.653 384.787 204.079 385.219 204.378 385.784C204.645 385.251 205.061 384.829 205.626 384.52C206.191 384.2 206.799 384.04 207.45 384.04ZM217.227 393.144C216.395 393.144 215.643 392.957 214.971 392.584C214.299 392.2 213.771 391.667 213.387 390.984C213.003 390.291 212.811 389.491 212.811 388.584C212.811 387.688 213.008 386.893 213.403 386.2C213.798 385.507 214.336 384.973 215.019 384.6C215.702 384.227 216.464 384.04 217.307 384.04C218.15 384.04 218.912 384.227 219.595 384.6C220.278 384.973 220.816 385.507 221.211 386.2C221.606 386.893 221.803 387.688 221.803 388.584C221.803 389.48 221.6 390.275 221.195 390.968C220.79 391.661 220.235 392.2 219.531 392.584C218.838 392.957 218.07 393.144 217.227 393.144ZM217.227 391.56C217.696 391.56 218.134 391.448 218.539 391.224C218.955 391 219.291 390.664 219.547 390.216C219.803 389.768 219.931 389.224 219.931 388.584C219.931 387.944 219.808 387.405 219.563 386.968C219.318 386.52 218.992 386.184 218.587 385.96C218.182 385.736 217.744 385.624 217.275 385.624C216.806 385.624 216.368 385.736 215.963 385.96C215.568 386.184 215.254 386.52 215.019 386.968C214.784 387.405 214.667 387.944 214.667 388.584C214.667 389.533 214.907 390.269 215.387 390.792C215.878 391.304 216.491 391.56 217.227 391.56ZM225.43 385.496C225.74 385.069 226.161 384.723 226.694 384.456C227.238 384.179 227.841 384.04 228.502 384.04C229.281 384.04 229.985 384.227 230.614 384.6C231.244 384.973 231.74 385.507 232.102 386.2C232.465 386.883 232.646 387.667 232.646 388.552C232.646 389.437 232.465 390.232 232.102 390.936C231.74 391.629 231.238 392.173 230.598 392.568C229.969 392.952 229.27 393.144 228.502 393.144C227.82 393.144 227.212 393.011 226.678 392.744C226.156 392.477 225.74 392.136 225.43 391.72V393H223.606V381.16H225.43V385.496ZM230.79 388.552C230.79 387.944 230.662 387.421 230.406 386.984C230.161 386.536 229.83 386.2 229.414 385.976C229.009 385.741 228.572 385.624 228.102 385.624C227.644 385.624 227.206 385.741 226.79 385.976C226.385 386.211 226.054 386.552 225.798 387C225.553 387.448 225.43 387.976 225.43 388.584C225.43 389.192 225.553 389.725 225.798 390.184C226.054 390.632 226.385 390.973 226.79 391.208C227.206 391.443 227.644 391.56 228.102 391.56C228.572 391.56 229.009 391.443 229.414 391.208C229.83 390.963 230.161 390.611 230.406 390.152C230.662 389.693 230.79 389.16 230.79 388.552ZM235.378 383.016C235.047 383.016 234.77 382.904 234.546 382.68C234.322 382.456 234.21 382.179 234.21 381.848C234.21 381.517 234.322 381.24 234.546 381.016C234.77 380.792 235.047 380.68 235.378 380.68C235.698 380.68 235.97 380.792 236.194 381.016C236.418 381.24 236.53 381.517 236.53 381.848C236.53 382.179 236.418 382.456 236.194 382.68C235.97 382.904 235.698 383.016 235.378 383.016ZM236.274 384.184V393H234.45V384.184H236.274ZM240.493 381.16V393H238.669V381.16H240.493ZM250.968 388.376C250.968 388.707 250.946 389.005 250.904 389.272H244.168C244.221 389.976 244.482 390.541 244.952 390.968C245.421 391.395 245.997 391.608 246.68 391.608C247.661 391.608 248.354 391.197 248.76 390.376H250.727C250.461 391.187 249.976 391.853 249.272 392.376C248.578 392.888 247.714 393.144 246.68 393.144C245.837 393.144 245.08 392.957 244.408 392.584C243.746 392.2 243.224 391.667 242.84 390.984C242.466 390.291 242.28 389.491 242.28 388.584C242.28 387.677 242.461 386.883 242.824 386.2C243.197 385.507 243.714 384.973 244.376 384.6C245.048 384.227 245.816 384.04 246.68 384.04C247.512 384.04 248.253 384.221 248.904 384.584C249.554 384.947 250.061 385.459 250.424 386.12C250.786 386.771 250.968 387.523 250.968 388.376ZM249.064 387.8C249.053 387.128 248.813 386.589 248.344 386.184C247.874 385.779 247.293 385.576 246.6 385.576C245.97 385.576 245.432 385.779 244.984 386.184C244.536 386.579 244.269 387.117 244.184 387.8H249.064ZM261.367 384.04C262.06 384.04 262.679 384.184 263.223 384.472C263.777 384.76 264.209 385.187 264.519 385.752C264.828 386.317 264.983 387 264.983 387.8V393H263.175V388.072C263.175 387.283 262.977 386.68 262.583 386.264C262.188 385.837 261.649 385.624 260.967 385.624C260.284 385.624 259.74 385.837 259.335 386.264C258.94 386.68 258.743 387.283 258.743 388.072V393H256.919V384.184H258.743V385.192C259.041 384.829 259.42 384.547 259.879 384.344C260.348 384.141 260.844 384.04 261.367 384.04ZM275.293 384.184V393H273.469V391.96C273.181 392.323 272.803 392.611 272.333 392.824C271.875 393.027 271.384 393.128 270.861 393.128C270.168 393.128 269.544 392.984 268.989 392.696C268.445 392.408 268.013 391.981 267.693 391.416C267.384 390.851 267.229 390.168 267.229 389.368V384.184H269.037V389.096C269.037 389.885 269.235 390.493 269.629 390.92C270.024 391.336 270.563 391.544 271.245 391.544C271.928 391.544 272.467 391.336 272.861 390.92C273.267 390.493 273.469 389.885 273.469 389.096V384.184H275.293ZM288.372 384.04C289.065 384.04 289.684 384.184 290.228 384.472C290.783 384.76 291.215 385.187 291.524 385.752C291.844 386.317 292.004 387 292.004 387.8V393H290.196V388.072C290.196 387.283 289.999 386.68 289.604 386.264C289.209 385.837 288.671 385.624 287.988 385.624C287.305 385.624 286.761 385.837 286.356 386.264C285.961 386.68 285.764 387.283 285.764 388.072V393H283.956V388.072C283.956 387.283 283.759 386.68 283.364 386.264C282.969 385.837 282.431 385.624 281.748 385.624C281.065 385.624 280.521 385.837 280.116 386.264C279.721 386.68 279.524 387.283 279.524 388.072V393H277.7V384.184H279.524V385.192C279.823 384.829 280.201 384.547 280.66 384.344C281.119 384.141 281.609 384.04 282.132 384.04C282.836 384.04 283.465 384.189 284.02 384.488C284.575 384.787 285.001 385.219 285.3 385.784C285.567 385.251 285.983 384.829 286.548 384.52C287.113 384.2 287.721 384.04 288.372 384.04ZM296.149 385.496C296.458 385.069 296.88 384.723 297.413 384.456C297.957 384.179 298.56 384.04 299.221 384.04C300 384.04 300.704 384.227 301.333 384.6C301.962 384.973 302.458 385.507 302.821 386.2C303.184 386.883 303.365 387.667 303.365 388.552C303.365 389.437 303.184 390.232 302.821 390.936C302.458 391.629 301.957 392.173 301.317 392.568C300.688 392.952 299.989 393.144 299.221 393.144C298.538 393.144 297.93 393.011 297.397 392.744C296.874 392.477 296.458 392.136 296.149 391.72V393H294.325V381.16H296.149V385.496ZM301.509 388.552C301.509 387.944 301.381 387.421 301.125 386.984C300.88 386.536 300.549 386.2 300.133 385.976C299.728 385.741 299.29 385.624 298.821 385.624C298.362 385.624 297.925 385.741 297.509 385.976C297.104 386.211 296.773 386.552 296.517 387C296.272 387.448 296.149 387.976 296.149 388.584C296.149 389.192 296.272 389.725 296.517 390.184C296.773 390.632 297.104 390.973 297.509 391.208C297.925 391.443 298.362 391.56 298.821 391.56C299.29 391.56 299.728 391.443 300.133 391.208C300.549 390.963 300.88 390.611 301.125 390.152C301.381 389.693 301.509 389.16 301.509 388.552ZM313.249 388.376C313.249 388.707 313.227 389.005 313.185 389.272H306.449C306.502 389.976 306.763 390.541 307.233 390.968C307.702 391.395 308.278 391.608 308.961 391.608C309.942 391.608 310.635 391.197 311.041 390.376H313.009C312.742 391.187 312.257 391.853 311.553 392.376C310.859 392.888 309.995 393.144 308.961 393.144C308.118 393.144 307.361 392.957 306.689 392.584C306.027 392.2 305.505 391.667 305.121 390.984C304.747 390.291 304.561 389.491 304.561 388.584C304.561 387.677 304.742 386.883 305.105 386.2C305.478 385.507 305.995 384.973 306.657 384.6C307.329 384.227 308.097 384.04 308.961 384.04C309.793 384.04 310.534 384.221 311.185 384.584C311.835 384.947 312.342 385.459 312.705 386.12C313.067 386.771 313.249 387.523 313.249 388.376ZM311.345 387.8C311.334 387.128 311.094 386.589 310.625 386.184C310.155 385.779 309.574 385.576 308.881 385.576C308.251 385.576 307.713 385.779 307.265 386.184C306.817 386.579 306.55 387.117 306.465 387.8H311.345ZM316.868 385.464C317.134 385.016 317.486 384.669 317.924 384.424C318.372 384.168 318.9 384.04 319.508 384.04V385.928H319.044C318.329 385.928 317.785 386.109 317.412 386.472C317.049 386.835 316.868 387.464 316.868 388.36V393H315.044V384.184H316.868V385.464Z" fill="#D0D0D0"/>
<path d="M52 391.278C52 392.014 51.7073 392.721 51.1864 393.242C50.6655 393.763 49.9589 394.056 49.2222 394.056H29.7778C29.0411 394.056 28.3345 393.763 27.8136 393.242C27.2927 392.721 27 392.014 27 391.278V378.778C27 378.041 27.2927 377.335 27.8136 376.814C28.3345 376.293 29.0411 376 29.7778 376H49.2222C49.9589 376 50.6655 376.293 51.1864 376.814C51.7073 377.335 52 378.041 52 378.778V391.278Z" fill="#006A4D"/>
<path d="M38.1111 389.542C40.7958 389.542 42.9722 387.365 42.9722 384.68C42.9722 381.996 40.7958 379.819 38.1111 379.819C35.4264 379.819 33.25 381.996 33.25 384.68C33.25 387.365 35.4264 389.542 38.1111 389.542Z" fill="#F42A41"/>
<line x1="93.5" y1="363" x2="93.5" y2="407" stroke="#DDDDDD"/>
<path d="M81.1889 379.29L75.0495 385.429C74.4638 386.015 73.514 386.015 72.9282 385.429L66.7889 379.29" stroke="#414141" stroke-width="2" stroke-linecap="round" stroke-linejoin="round"/>
<path opacity="0.35" d="M354.834 22.6693C354.834 21.4727 355.804 20.5027 357.001 20.5027H373.667C374.864 20.5027 375.834 21.4727 375.834 22.6694V28.6694C375.834 29.866 374.864 30.836 373.667 30.836H357.001C355.804 30.836 354.834 29.866 354.834 28.6694V22.6693Z" stroke="#141414"/>
<path opacity="0.4" d="M377.334 23.6693V27.6693C378.139 27.3305 378.662 26.5424 378.662 25.6693C378.662 24.7962 378.139 24.0081 377.334 23.6693Z" fill="#141414"/>
<path d="M356.334 23.336C356.334 22.5996 356.931 22.0027 357.667 22.0027H373.001C373.737 22.0027 374.334 22.5996 374.334 23.336V28.0027C374.334 28.7391 373.737 29.336 373.001 29.336H357.667C356.931 29.336 356.334 28.7391 356.334 28.0027V23.336Z" fill="#141414"/>
<path fill-rule="evenodd" clip-rule="evenodd" d="M341.664 22.2773C343.88 22.2774 346.011 23.1289 347.617 24.6557C347.738 24.7735 347.931 24.772 348.05 24.6523L349.206 23.4857C349.267 23.4249 349.3 23.3427 349.3 23.2571C349.299 23.1715 349.265 23.0897 349.204 23.0297C344.989 18.9901 338.339 18.9901 334.124 23.0297C334.063 23.0896 334.028 23.1715 334.027 23.257C334.027 23.3426 334.06 23.4249 334.121 23.4857L335.277 24.6523C335.396 24.7722 335.589 24.7737 335.71 24.6557C337.316 23.1288 339.448 22.2773 341.664 22.2773ZM341.665 26.073C342.882 26.0729 344.056 26.5255 344.959 27.3427C345.081 27.4587 345.273 27.4562 345.392 27.337L346.547 26.1704C346.608 26.1092 346.641 26.0261 346.64 25.9399C346.64 25.8536 346.604 25.7713 346.542 25.7114C343.794 23.155 339.538 23.155 336.79 25.7114C336.728 25.7713 336.692 25.8537 336.691 25.9399C336.691 26.0262 336.724 26.1092 336.785 26.1704L337.94 27.337C338.059 27.4562 338.251 27.4587 338.373 27.3427C339.275 26.526 340.448 26.0735 341.665 26.073ZM343.978 28.6268C343.98 28.7133 343.946 28.7967 343.884 28.8573L341.886 30.873C341.828 30.9323 341.748 30.9656 341.665 30.9656C341.582 30.9656 341.502 30.9323 341.443 30.873L339.445 28.8573C339.384 28.7967 339.35 28.7133 339.352 28.6268C339.353 28.5403 339.391 28.4583 339.455 28.4003C340.731 27.3215 342.599 27.3215 343.874 28.4003C343.939 28.4584 343.976 28.5403 343.978 28.6268Z" fill="#141414"/>
<path fill-rule="evenodd" clip-rule="evenodd" d="M328 20.3359H327C326.448 20.3359 326 20.7837 326 21.3359V30.0026C326 30.5549 326.448 31.0026 327 31.0026H328C328.552 31.0026 329 30.5549 329 30.0026V21.3359C329 20.7837 328.552 20.3359 328 20.3359ZM322.334 22.6693H323.334C323.886 22.6693 324.334 23.117 324.334 23.6693V30.0026C324.334 30.5549 323.886 31.0026 323.334 31.0026H322.334C321.782 31.0026 321.334 30.5549 321.334 30.0026V23.6693C321.334 23.117 321.782 22.6693 322.334 22.6693ZM318.666 25.0026H317.666C317.114 25.0026 316.666 25.4503 316.666 26.0026V30.0026C316.666 30.5548 317.114 31.0026 317.666 31.0026H318.666C319.218 31.0026 319.666 30.5548 319.666 30.0026V26.0026C319.666 25.4503 319.218 25.0026 318.666 25.0026ZM314 27.0026H313C312.448 27.0026 312 27.4503 312 28.0026V30.0026C312 30.5549 312.448 31.0026 313 31.0026H314C314.552 31.0026 315 30.5549 315 30.0026V28.0026C315 27.4503 314.552 27.0026 314 27.0026Z" fill="#141414"/>
<path d="M19.3203 32.2563C22.0083 32.2563 23.605 30.1543 23.605 26.5947C23.605 25.2544 23.3486 24.1265 22.8579 23.2549C22.1475 21.8999 20.9243 21.1675 19.3789 21.1675C17.0791 21.1675 15.4531 22.7129 15.4531 24.8809C15.4531 26.917 16.918 28.3965 18.9321 28.3965C20.1699 28.3965 21.1733 27.8179 21.6714 26.8145H21.6934C21.6934 26.8145 21.7227 26.8145 21.73 26.8145C21.7446 26.8145 21.7959 26.8145 21.7959 26.8145C21.7959 29.2314 20.8804 30.6743 19.335 30.6743C18.4268 30.6743 17.7236 30.1763 17.4819 29.3779H15.5996C15.9146 31.1138 17.3867 32.2563 19.3203 32.2563ZM19.3862 26.895C18.1704 26.895 17.3062 26.0308 17.3062 24.8223C17.3062 23.6431 18.2144 22.7422 19.3936 22.7422C20.5728 22.7422 21.481 23.6577 21.481 24.8516C21.481 26.0308 20.5947 26.895 19.3862 26.895Z" fill="#141414"/>
<path d="M26.6961 32.1538C27.3919 32.1538 27.868 31.6558 27.868 30.9966C27.868 30.3301 27.3919 29.8394 26.6961 29.8394C26.0076 29.8394 25.5242 30.3301 25.5242 30.9966C25.5242 31.6558 26.0076 32.1538 26.6961 32.1538ZM26.6961 26.6606C27.3919 26.6606 27.868 26.1699 27.868 25.5107C27.868 24.8442 27.3919 24.3535 26.6961 24.3535C26.0076 24.3535 25.5242 24.8442 25.5242 25.5107C25.5242 26.1699 26.0076 26.6606 26.6961 26.6606Z" fill="#141414"/>
<path d="M34.7237 32H36.5328V30.0298H37.961V28.4331H36.5328V21.4312H33.8668C31.9991 24.2437 30.5123 26.5947 29.5602 28.3452V30.0298H34.7237V32ZM31.3106 28.3672C32.5411 26.1992 33.6397 24.4634 34.6505 22.9692H34.753V28.4771H31.3106V28.3672Z" fill="#141414"/>
<path d="M41.9896 32H43.8793V21.4312H41.997L39.2357 23.3647V25.1812L41.8651 23.3354H41.9896V32Z" fill="#141414"/>
<path d="M23 80.75C22.808 80.75 22.616 80.6771 22.47 80.5301L15.47 73.5301C15.177 73.2371 15.177 72.762 15.47 72.469L22.47 65.469C22.763 65.176 23.238 65.176 23.531 65.469C23.824 65.762 23.824 66.2371 23.531 66.5301L17.0611 73L23.531 79.47C23.824 79.763 23.824 80.238 23.531 80.531C23.384 80.677 23.192 80.75 23 80.75Z" fill="#414141"/>
<path d="M43.816 72.756C44.2213 72.82 44.5893 72.9853 44.92 73.252C45.2613 73.5187 45.528 73.8493 45.72 74.244C45.9227 74.6387 46.024 75.06 46.024 75.508C46.024 76.0733 45.88 76.5853 45.592 77.044C45.304 77.492 44.8827 77.8493 44.328 78.116C43.784 78.372 43.1387 78.5 42.392 78.5H38.232V67.348H42.232C42.9893 67.348 43.6347 67.476 44.168 67.732C44.7013 67.9773 45.1013 68.3133 45.368 68.74C45.6347 69.1667 45.768 69.6467 45.768 70.18C45.768 70.8413 45.5867 71.3907 45.224 71.828C44.872 72.2547 44.4027 72.564 43.816 72.756ZM39.688 72.164H42.136C42.8187 72.164 43.3467 72.004 43.72 71.684C44.0933 71.364 44.28 70.9213 44.28 70.356C44.28 69.7907 44.0933 69.348 43.72 69.028C43.3467 68.708 42.808 68.548 42.104 68.548H39.688V72.164ZM42.264 77.3C42.9893 77.3 43.5547 77.1293 43.96 76.788C44.3653 76.4467 44.568 75.972 44.568 75.364C44.568 74.7453 44.3547 74.26 43.928 73.908C43.5013 73.5453 42.9307 73.364 42.216 73.364H39.688V77.3H42.264ZM47.5005 74.084C47.5005 73.188 47.6818 72.404 48.0445 71.732C48.4072 71.0493 48.9032 70.5213 49.5325 70.148C50.1725 69.7747 50.8818 69.588 51.6605 69.588C52.4285 69.588 53.0952 69.7533 53.6605 70.084C54.2258 70.4147 54.6472 70.8307 54.9245 71.332V69.732H56.3965V78.5H54.9245V76.868C54.6365 77.38 54.2045 77.8067 53.6285 78.148C53.0632 78.4787 52.4018 78.644 51.6445 78.644C50.8658 78.644 50.1618 78.452 49.5325 78.068C48.9032 77.684 48.4072 77.1453 48.0445 76.452C47.6818 75.7587 47.5005 74.9693 47.5005 74.084ZM54.9245 74.1C54.9245 73.4387 54.7912 72.8627 54.5245 72.372C54.2578 71.8813 53.8952 71.508 53.4365 71.252C52.9885 70.9853 52.4925 70.852 51.9485 70.852C51.4045 70.852 50.9085 70.98 50.4605 71.236C50.0125 71.492 49.6552 71.8653 49.3885 72.356C49.1218 72.8467 48.9885 73.4227 48.9885 74.084C48.9885 74.756 49.1218 75.3427 49.3885 75.844C49.6552 76.3347 50.0125 76.7133 50.4605 76.98C50.9085 77.236 51.4045 77.364 51.9485 77.364C52.4925 77.364 52.9885 77.236 53.4365 76.98C53.8952 76.7133 54.2578 76.3347 54.5245 75.844C54.7912 75.3427 54.9245 74.7613 54.9245 74.1ZM58.313 74.1C58.313 73.1933 58.4943 72.404 58.857 71.732C59.2197 71.0493 59.721 70.5213 60.361 70.148C61.0117 69.7747 61.753 69.588 62.585 69.588C63.6623 69.588 64.5477 69.8493 65.241 70.372C65.945 70.8947 66.409 71.62 66.633 72.548H65.065C64.9157 72.0147 64.6223 71.5933 64.185 71.284C63.7583 70.9747 63.225 70.82 62.585 70.82C61.753 70.82 61.081 71.108 60.569 71.684C60.057 72.2493 59.801 73.0547 59.801 74.1C59.801 75.156 60.057 75.972 60.569 76.548C61.081 77.124 61.753 77.412 62.585 77.412C63.225 77.412 63.7583 77.2627 64.185 76.964C64.6117 76.6653 64.905 76.2387 65.065 75.684H66.633C66.3983 76.58 65.929 77.3 65.225 77.844C64.521 78.3773 63.641 78.644 62.585 78.644C61.753 78.644 61.0117 78.4573 60.361 78.084C59.721 77.7107 59.2197 77.1827 58.857 76.5C58.4943 75.8173 58.313 75.0173 58.313 74.1ZM73.4718 78.5L70.0318 74.628V78.5H68.5758V66.66H70.0318V73.62L73.4078 69.732H75.4398L71.3118 74.1L75.4558 78.5H73.4718Z" fill="#414141"/>
<path d="M178.763 70.716C178.763 71.352 178.613 71.952 178.313 72.516C178.013 73.08 177.533 73.542 176.873 73.902C176.213 74.25 175.367 74.424 174.335 74.424H172.067V79.5H170.015V66.99H174.335C175.295 66.99 176.105 67.158 176.765 67.494C177.437 67.818 177.935 68.262 178.259 68.826C178.595 69.39 178.763 70.02 178.763 70.716ZM174.335 72.75C175.115 72.75 175.697 72.576 176.081 72.228C176.465 71.868 176.657 71.364 176.657 70.716C176.657 69.348 175.883 68.664 174.335 68.664H172.067V72.75H174.335ZM182.772 71.022C183.072 70.518 183.468 70.128 183.96 69.852C184.464 69.564 185.058 69.42 185.742 69.42V71.544H185.22C184.416 71.544 183.804 71.748 183.384 72.156C182.976 72.564 182.772 73.272 182.772 74.28V79.5H180.72V69.582H182.772V71.022ZM191.93 79.662C190.994 79.662 190.148 79.452 189.392 79.032C188.636 78.6 188.042 78 187.61 77.232C187.178 76.452 186.962 75.552 186.962 74.532C186.962 73.524 187.184 72.63 187.628 71.85C188.072 71.07 188.678 70.47 189.446 70.05C190.214 69.63 191.072 69.42 192.02 69.42C192.968 69.42 193.826 69.63 194.594 70.05C195.362 70.47 195.968 71.07 196.412 71.85C196.856 72.63 197.078 73.524 197.078 74.532C197.078 75.54 196.85 76.434 196.394 77.214C195.938 77.994 195.314 78.6 194.522 79.032C193.742 79.452 192.878 79.662 191.93 79.662ZM191.93 77.88C192.458 77.88 192.95 77.754 193.406 77.502C193.874 77.25 194.252 76.872 194.54 76.368C194.828 75.864 194.972 75.252 194.972 74.532C194.972 73.812 194.834 73.206 194.558 72.714C194.282 72.21 193.916 71.832 193.46 71.58C193.004 71.328 192.512 71.202 191.984 71.202C191.456 71.202 190.964 71.328 190.508 71.58C190.064 71.832 189.71 72.21 189.446 72.714C189.182 73.206 189.05 73.812 189.05 74.532C189.05 75.6 189.32 76.428 189.86 77.016C190.412 77.592 191.102 77.88 191.93 77.88ZM203.265 71.256H201.429V79.5H199.359V71.256H198.189V69.582H199.359V68.88C199.359 67.74 199.659 66.912 200.259 66.396C200.871 65.868 201.825 65.604 203.121 65.604V67.314C202.497 67.314 202.059 67.434 201.807 67.674C201.555 67.902 201.429 68.304 201.429 68.88V69.582H203.265V71.256ZM206.127 68.268C205.755 68.268 205.443 68.142 205.191 67.89C204.939 67.638 204.813 67.326 204.813 66.954C204.813 66.582 204.939 66.27 205.191 66.018C205.443 65.766 205.755 65.64 206.127 65.64C206.487 65.64 206.793 65.766 207.045 66.018C207.297 66.27 207.423 66.582 207.423 66.954C207.423 67.326 207.297 67.638 207.045 67.89C206.793 68.142 206.487 68.268 206.127 68.268ZM207.135 69.582V79.5H205.083V69.582H207.135ZM211.881 66.18V79.5H209.829V66.18H211.881ZM223.666 74.298C223.666 74.67 223.642 75.006 223.594 75.306H216.016C216.076 76.098 216.37 76.734 216.898 77.214C217.426 77.694 218.074 77.934 218.842 77.934C219.946 77.934 220.726 77.472 221.182 76.548H223.396C223.096 77.46 222.55 78.21 221.758 78.798C220.978 79.374 220.006 79.662 218.842 79.662C217.894 79.662 217.042 79.452 216.286 79.032C215.542 78.6 214.954 78 214.522 77.232C214.102 76.452 213.892 75.552 213.892 74.532C213.892 73.512 214.096 72.618 214.504 71.85C214.924 71.07 215.506 70.47 216.25 70.05C217.006 69.63 217.87 69.42 218.842 69.42C219.778 69.42 220.612 69.624 221.344 70.032C222.076 70.44 222.646 71.016 223.054 71.76C223.462 72.492 223.666 73.338 223.666 74.298ZM221.524 73.65C221.512 72.894 221.242 72.288 220.714 71.832C220.186 71.376 219.532 71.148 218.752 71.148C218.044 71.148 217.438 71.376 216.934 71.832C216.43 72.276 216.13 72.882 216.034 73.65H221.524Z" fill="#414141"/>
<circle cx="196.5" cy="184.5" r="60.5" fill="#D0D0D0"/>
<circle cx="15.5" cy="15.5" r="15.5" transform="matrix(-1 0 0 1 254 214)" fill="#008955"/>
<path fill-rule="evenodd" clip-rule="evenodd" d="M235.79 225.703L235.95 225.314C236.259 224.565 236.989 224.076 237.799 224.076H240.411C241.221 224.076 241.951 224.565 242.26 225.314L242.42 225.703H243C244.657 225.703 246 227.046 246 228.703V231.999C246 233.656 244.657 234.999 243 234.999H235C233.343 234.999 232 233.656 232 231.999V228.703C232 227.046 233.343 225.703 235 225.703H235.79Z" fill="#C2CCDE" fill-opacity="0.25"/>
<path d="M235.79 225.703V226.203H236.125L236.252 225.893L235.79 225.703ZM235.95 225.314L236.412 225.505L235.95 225.314ZM242.26 225.314L242.722 225.124V225.124L242.26 225.314ZM242.42 225.703L241.958 225.893L242.085 226.203H242.42V225.703ZM236.252 225.893L236.412 225.505L235.488 225.124L235.328 225.512L236.252 225.893ZM236.412 225.505C236.644 224.943 237.192 224.576 237.799 224.576V223.576C236.786 223.576 235.873 224.187 235.488 225.124L236.412 225.505ZM237.799 224.576H240.411V223.576H237.799V224.576ZM240.411 224.576C241.018 224.576 241.566 224.943 241.798 225.505L242.722 225.124C242.337 224.187 241.424 223.576 240.411 223.576V224.576ZM241.798 225.505L241.958 225.893L242.882 225.512L242.722 225.124L241.798 225.505ZM242.42 226.203H243V225.203H242.42V226.203ZM243 226.203C244.381 226.203 245.5 227.322 245.5 228.703H246.5C246.5 226.77 244.933 225.203 243 225.203V226.203ZM245.5 228.703V231.999H246.5V228.703H245.5ZM245.5 231.999C245.5 233.38 244.381 234.499 243 234.499V235.499C244.933 235.499 246.5 233.932 246.5 231.999H245.5ZM243 234.499H235V235.499H243V234.499ZM235 234.499C233.619 234.499 232.5 233.38 232.5 231.999H231.5C231.5 233.932 233.067 235.499 235 235.499V234.499ZM232.5 231.999V228.703H231.5V231.999H232.5ZM232.5 228.703C232.5 227.322 233.619 226.203 235 226.203V225.203C233.067 225.203 231.5 226.77 231.5 228.703H232.5ZM235 226.203H235.79V225.203H235V226.203Z" fill="white"/>
<path d="M237.567 227.634C238.462 227.154 239.538 227.154 240.433 227.634L240.598 227.722C241.48 228.196 242.031 229.117 242.031 230.119V230.119C242.031 231.12 241.48 232.041 240.598 232.515L240.433 232.603C239.538 233.083 238.462 233.083 237.567 232.603L237.402 232.515C236.52 232.041 235.969 231.12 235.969 230.119V230.119C235.969 229.117 236.52 228.196 237.402 227.722L237.567 227.634Z" stroke="white" stroke-linecap="round" stroke-linejoin="round"/>
<rect x="204" y="775" width="174" height="54" rx="8" fill="#008955"/>
<path d="M276.067 807.612C275.32 807.612 274.648 807.484 274.051 807.228C273.454 806.961 272.984 806.588 272.643 806.108C272.302 805.628 272.131 805.068 272.131 804.428H274.083C274.126 804.908 274.312 805.303 274.643 805.612C274.984 805.921 275.459 806.076 276.067 806.076C276.696 806.076 277.187 805.927 277.539 805.628C277.891 805.319 278.067 804.924 278.067 804.444C278.067 804.071 277.955 803.767 277.731 803.532C277.518 803.297 277.246 803.116 276.915 802.988C276.595 802.86 276.147 802.721 275.571 802.572C274.846 802.38 274.254 802.188 273.795 801.996C273.347 801.793 272.963 801.484 272.643 801.068C272.323 800.652 272.163 800.097 272.163 799.404C272.163 798.764 272.323 798.204 272.643 797.724C272.963 797.244 273.411 796.876 273.987 796.62C274.563 796.364 275.23 796.236 275.987 796.236C277.064 796.236 277.944 796.508 278.627 797.052C279.32 797.585 279.704 798.321 279.779 799.26H277.763C277.731 798.855 277.539 798.508 277.187 798.22C276.835 797.932 276.371 797.788 275.795 797.788C275.272 797.788 274.846 797.921 274.515 798.188C274.184 798.455 274.019 798.839 274.019 799.34C274.019 799.681 274.12 799.964 274.323 800.188C274.536 800.401 274.803 800.572 275.123 800.7C275.443 800.828 275.88 800.967 276.435 801.116C277.171 801.319 277.768 801.521 278.227 801.724C278.696 801.927 279.091 802.241 279.411 802.668C279.742 803.084 279.907 803.644 279.907 804.348C279.907 804.913 279.752 805.447 279.443 805.948C279.144 806.449 278.702 806.855 278.115 807.164C277.539 807.463 276.856 807.612 276.067 807.612ZM281.451 803.052C281.451 802.167 281.633 801.383 281.995 800.7C282.369 800.017 282.87 799.489 283.499 799.116C284.139 798.732 284.843 798.54 285.611 798.54C286.305 798.54 286.907 798.679 287.419 798.956C287.942 799.223 288.358 799.559 288.667 799.964V798.684H290.507V807.5H288.667V806.188C288.358 806.604 287.937 806.951 287.403 807.228C286.87 807.505 286.262 807.644 285.579 807.644C284.822 807.644 284.129 807.452 283.499 807.068C282.87 806.673 282.369 806.129 281.995 805.436C281.633 804.732 281.451 803.937 281.451 803.052ZM288.667 803.084C288.667 802.476 288.539 801.948 288.283 801.5C288.038 801.052 287.713 800.711 287.307 800.476C286.902 800.241 286.465 800.124 285.995 800.124C285.526 800.124 285.089 800.241 284.683 800.476C284.278 800.7 283.947 801.036 283.691 801.484C283.446 801.921 283.323 802.444 283.323 803.052C283.323 803.66 283.446 804.193 283.691 804.652C283.947 805.111 284.278 805.463 284.683 805.708C285.099 805.943 285.537 806.06 285.995 806.06C286.465 806.06 286.902 805.943 287.307 805.708C287.713 805.473 288.038 805.132 288.283 804.684C288.539 804.225 288.667 803.692 288.667 803.084ZM296.311 805.868L298.807 798.684H300.743L297.383 807.5H295.207L291.863 798.684H293.815L296.311 805.868ZM310.202 802.876C310.202 803.207 310.181 803.505 310.138 803.772H303.402C303.455 804.476 303.717 805.041 304.186 805.468C304.655 805.895 305.231 806.108 305.914 806.108C306.895 806.108 307.589 805.697 307.994 804.876H309.962C309.695 805.687 309.21 806.353 308.506 806.876C307.813 807.388 306.949 807.644 305.914 807.644C305.071 807.644 304.314 807.457 303.642 807.084C302.981 806.7 302.458 806.167 302.074 805.484C301.701 804.791 301.514 803.991 301.514 803.084C301.514 802.177 301.695 801.383 302.058 800.7C302.431 800.007 302.949 799.473 303.61 799.1C304.282 798.727 305.05 798.54 305.914 798.54C306.746 798.54 307.487 798.721 308.138 799.084C308.789 799.447 309.295 799.959 309.658 800.62C310.021 801.271 310.202 802.023 310.202 802.876ZM308.298 802.3C308.287 801.628 308.047 801.089 307.578 800.684C307.109 800.279 306.527 800.076 305.834 800.076C305.205 800.076 304.666 800.279 304.218 800.684C303.77 801.079 303.503 801.617 303.418 802.3H308.298Z" fill="white"/>
<rect x="15.5" y="775.5" width="173" height="53" rx="7.5" stroke="#008955"/>
<path d="M73.9436 801.916C73.9436 800.828 74.1942 799.852 74.6956 798.988C75.2076 798.124 75.8956 797.452 76.7596 796.972C77.6342 796.481 78.5889 796.236 79.6236 796.236C80.8076 796.236 81.8582 796.529 82.7756 797.116C83.7036 797.692 84.3756 798.513 84.7916 799.58H82.5996C82.3116 798.993 81.9116 798.556 81.3996 798.268C80.8876 797.98 80.2956 797.836 79.6236 797.836C78.8876 797.836 78.2316 798.001 77.6556 798.332C77.0796 798.663 76.6262 799.137 76.2956 799.756C75.9756 800.375 75.8156 801.095 75.8156 801.916C75.8156 802.737 75.9756 803.457 76.2956 804.076C76.6262 804.695 77.0796 805.175 77.6556 805.516C78.2316 805.847 78.8876 806.012 79.6236 806.012C80.2956 806.012 80.8876 805.868 81.3996 805.58C81.9116 805.292 82.3116 804.855 82.5996 804.268H84.7916C84.3756 805.335 83.7036 806.156 82.7756 806.732C81.8582 807.308 80.8076 807.596 79.6236 807.596C78.5782 807.596 77.6236 807.356 76.7596 806.876C75.8956 806.385 75.2076 805.708 74.6956 804.844C74.1942 803.98 73.9436 803.004 73.9436 801.916ZM86.3186 803.052C86.3186 802.167 86.4999 801.383 86.8626 800.7C87.2359 800.017 87.7372 799.489 88.3666 799.116C89.0066 798.732 89.7106 798.54 90.4786 798.54C91.1719 798.54 91.7746 798.679 92.2866 798.956C92.8092 799.223 93.2252 799.559 93.5346 799.964V798.684H95.3746V807.5H93.5346V806.188C93.2252 806.604 92.8039 806.951 92.2706 807.228C91.7372 807.505 91.1292 807.644 90.4466 807.644C89.6892 807.644 88.9959 807.452 88.3666 807.068C87.7372 806.673 87.2359 806.129 86.8626 805.436C86.4999 804.732 86.3186 803.937 86.3186 803.052ZM93.5346 803.084C93.5346 802.476 93.4066 801.948 93.1506 801.5C92.9052 801.052 92.5799 800.711 92.1746 800.476C91.7692 800.241 91.3319 800.124 90.8626 800.124C90.3932 800.124 89.9559 800.241 89.5506 800.476C89.1452 800.7 88.8146 801.036 88.5586 801.484C88.3132 801.921 88.1906 802.444 88.1906 803.052C88.1906 803.66 88.3132 804.193 88.5586 804.652C88.8146 805.111 89.1452 805.463 89.5506 805.708C89.9666 805.943 90.4039 806.06 90.8626 806.06C91.3319 806.06 91.7692 805.943 92.1746 805.708C92.5799 805.473 92.9052 805.132 93.1506 804.684C93.4066 804.225 93.5346 803.692 93.5346 803.084ZM102.218 798.54C102.912 798.54 103.53 798.684 104.074 798.972C104.629 799.26 105.061 799.687 105.37 800.252C105.68 800.817 105.834 801.5 105.834 802.3V807.5H104.026V802.572C104.026 801.783 103.829 801.18 103.434 800.764C103.04 800.337 102.501 800.124 101.818 800.124C101.136 800.124 100.592 800.337 100.186 800.764C99.7916 801.18 99.5943 801.783 99.5943 802.572V807.5H97.7703V798.684H99.5943V799.692C99.893 799.329 100.272 799.047 100.73 798.844C101.2 798.641 101.696 798.54 102.218 798.54ZM107.553 803.084C107.553 802.177 107.734 801.383 108.097 800.7C108.47 800.007 108.982 799.473 109.633 799.1C110.284 798.727 111.03 798.54 111.873 798.54C112.94 798.54 113.82 798.796 114.513 799.308C115.217 799.809 115.692 800.529 115.937 801.468H113.969C113.809 801.031 113.553 800.689 113.201 800.444C112.849 800.199 112.406 800.076 111.873 800.076C111.126 800.076 110.529 800.343 110.081 800.876C109.644 801.399 109.425 802.135 109.425 803.084C109.425 804.033 109.644 804.775 110.081 805.308C110.529 805.841 111.126 806.108 111.873 806.108C112.929 806.108 113.628 805.644 113.969 804.716H115.937C115.681 805.612 115.201 806.327 114.497 806.86C113.793 807.383 112.918 807.644 111.873 807.644C111.03 807.644 110.284 807.457 109.633 807.084C108.982 806.7 108.47 806.167 108.097 805.484C107.734 804.791 107.553 803.991 107.553 803.084ZM125.835 802.876C125.835 803.207 125.813 803.505 125.771 803.772H119.035C119.088 804.476 119.349 805.041 119.819 805.468C120.288 805.895 120.864 806.108 121.547 806.108C122.528 806.108 123.221 805.697 123.627 804.876H125.595C125.328 805.687 124.843 806.353 124.139 806.876C123.445 807.388 122.581 807.644 121.547 807.644C120.704 807.644 119.947 807.457 119.275 807.084C118.613 806.7 118.091 806.167 117.707 805.484C117.333 804.791 117.147 803.991 117.147 803.084C117.147 802.177 117.328 801.383 117.691 800.7C118.064 800.007 118.581 799.473 119.243 799.1C119.915 798.727 120.683 798.54 121.547 798.54C122.379 798.54 123.12 798.721 123.771 799.084C124.421 799.447 124.928 799.959 125.291 800.62C125.653 801.271 125.835 802.023 125.835 802.876ZM123.931 802.3C123.92 801.628 123.68 801.089 123.211 800.684C122.741 800.279 122.16 800.076 121.467 800.076C120.837 800.076 120.299 800.279 119.851 800.684C119.403 801.079 119.136 801.617 119.051 802.3H123.931ZM129.454 795.66V807.5H127.63V795.66H129.454Z" fill="#414141"/>
</g>
<defs>
<clipPath id="clip0_54_1314">
<rect width="393" height="879" fill="white"/>
</clipPath>
</defs>
</svg>
