<svg width="393" height="852" viewBox="0 0 393 852" fill="none" xmlns="http://www.w3.org/2000/svg">
<g clip-path="url(#clip0_56_1297)">
<rect width="393" height="852" fill="white"/>
<path opacity="0.35" d="M354.834 22.6693C354.834 21.4727 355.804 20.5027 357.001 20.5027H373.667C374.864 20.5027 375.834 21.4727 375.834 22.6694V28.6694C375.834 29.866 374.864 30.836 373.667 30.836H357.001C355.804 30.836 354.834 29.866 354.834 28.6694V22.6693Z" stroke="#414141"/>
<path opacity="0.4" d="M377.334 23.6693V27.6693C378.139 27.3305 378.662 26.5424 378.662 25.6693C378.662 24.7962 378.139 24.0081 377.334 23.6693Z" fill="#414141"/>
<path d="M356.334 23.336C356.334 22.5996 356.931 22.0027 357.667 22.0027H373.001C373.737 22.0027 374.334 22.5996 374.334 23.336V28.0027C374.334 28.7391 373.737 29.336 373.001 29.336H357.667C356.931 29.336 356.334 28.7391 356.334 28.0027V23.336Z" fill="#414141"/>
<path fill-rule="evenodd" clip-rule="evenodd" d="M341.664 22.2773C343.88 22.2774 346.011 23.1289 347.617 24.6557C347.738 24.7735 347.931 24.772 348.05 24.6523L349.206 23.4857C349.267 23.4249 349.3 23.3427 349.3 23.2571C349.299 23.1715 349.265 23.0897 349.204 23.0297C344.989 18.9901 338.339 18.9901 334.124 23.0297C334.063 23.0896 334.028 23.1715 334.027 23.257C334.027 23.3426 334.06 23.4249 334.121 23.4857L335.277 24.6523C335.396 24.7722 335.589 24.7737 335.71 24.6557C337.316 23.1288 339.448 22.2773 341.664 22.2773ZM341.665 26.073C342.882 26.0729 344.056 26.5255 344.959 27.3427C345.081 27.4587 345.273 27.4562 345.392 27.337L346.547 26.1704C346.608 26.1092 346.641 26.0261 346.64 25.9399C346.64 25.8536 346.604 25.7713 346.542 25.7114C343.794 23.155 339.538 23.155 336.79 25.7114C336.728 25.7713 336.692 25.8537 336.691 25.9399C336.691 26.0262 336.724 26.1092 336.785 26.1704L337.94 27.337C338.059 27.4562 338.251 27.4587 338.373 27.3427C339.275 26.526 340.448 26.0735 341.665 26.073ZM343.978 28.6268C343.98 28.7133 343.946 28.7967 343.884 28.8573L341.886 30.873C341.828 30.9323 341.748 30.9656 341.665 30.9656C341.582 30.9656 341.502 30.9323 341.443 30.873L339.445 28.8573C339.384 28.7967 339.35 28.7133 339.352 28.6268C339.353 28.5403 339.391 28.4583 339.455 28.4003C340.731 27.3215 342.599 27.3215 343.874 28.4003C343.939 28.4584 343.976 28.5403 343.978 28.6268Z" fill="#414141"/>
<path fill-rule="evenodd" clip-rule="evenodd" d="M328 20.3359H327C326.448 20.3359 326 20.7837 326 21.3359V30.0026C326 30.5549 326.448 31.0026 327 31.0026H328C328.552 31.0026 329 30.5549 329 30.0026V21.3359C329 20.7837 328.552 20.3359 328 20.3359ZM322.334 22.6693H323.334C323.886 22.6693 324.334 23.117 324.334 23.6693V30.0026C324.334 30.5549 323.886 31.0026 323.334 31.0026H322.334C321.782 31.0026 321.334 30.5549 321.334 30.0026V23.6693C321.334 23.117 321.782 22.6693 322.334 22.6693ZM318.666 25.0026H317.666C317.114 25.0026 316.666 25.4503 316.666 26.0026V30.0026C316.666 30.5548 317.114 31.0026 317.666 31.0026H318.666C319.218 31.0026 319.666 30.5548 319.666 30.0026V26.0026C319.666 25.4503 319.218 25.0026 318.666 25.0026ZM314 27.0026H313C312.448 27.0026 312 27.4503 312 28.0026V30.0026C312 30.5549 312.448 31.0026 313 31.0026H314C314.552 31.0026 315 30.5549 315 30.0026V28.0026C315 27.4503 314.552 27.0026 314 27.0026Z" fill="#414141"/>
<path d="M19.3203 32.2563C22.0083 32.2563 23.605 30.1543 23.605 26.5947C23.605 25.2544 23.3486 24.1265 22.8579 23.2549C22.1475 21.8999 20.9243 21.1675 19.3789 21.1675C17.0791 21.1675 15.4531 22.7129 15.4531 24.8809C15.4531 26.917 16.918 28.3965 18.9321 28.3965C20.1699 28.3965 21.1733 27.8179 21.6714 26.8145H21.6934C21.6934 26.8145 21.7227 26.8145 21.73 26.8145C21.7446 26.8145 21.7959 26.8145 21.7959 26.8145C21.7959 29.2314 20.8804 30.6743 19.335 30.6743C18.4268 30.6743 17.7236 30.1763 17.4819 29.3779H15.5996C15.9146 31.1138 17.3867 32.2563 19.3203 32.2563ZM19.3862 26.895C18.1704 26.895 17.3062 26.0308 17.3062 24.8223C17.3062 23.6431 18.2144 22.7422 19.3936 22.7422C20.5728 22.7422 21.481 23.6577 21.481 24.8516C21.481 26.0308 20.5947 26.895 19.3862 26.895Z" fill="#414141"/>
<path d="M26.6961 32.1538C27.3919 32.1538 27.868 31.6558 27.868 30.9966C27.868 30.3301 27.3919 29.8394 26.6961 29.8394C26.0076 29.8394 25.5242 30.3301 25.5242 30.9966C25.5242 31.6558 26.0076 32.1538 26.6961 32.1538ZM26.6961 26.6606C27.3919 26.6606 27.868 26.1699 27.868 25.5107C27.868 24.8442 27.3919 24.3535 26.6961 24.3535C26.0076 24.3535 25.5242 24.8442 25.5242 25.5107C25.5242 26.1699 26.0076 26.6606 26.6961 26.6606Z" fill="#414141"/>
<path d="M34.7237 32H36.5328V30.0298H37.961V28.4331H36.5328V21.4312H33.8668C31.9991 24.2437 30.5123 26.5947 29.5602 28.3452V30.0298H34.7237V32ZM31.3106 28.3672C32.5411 26.1992 33.6397 24.4634 34.6505 22.9692H34.753V28.4771H31.3106V28.3672Z" fill="#414141"/>
<path d="M41.9896 32H43.8793V21.4312H41.997L39.2357 23.3647V25.1812L41.8651 23.3354H41.9896V32Z" fill="#414141"/>
<path d="M23 80.75C22.808 80.75 22.616 80.6771 22.47 80.5301L15.47 73.5301C15.177 73.2371 15.177 72.762 15.47 72.469L22.47 65.469C22.763 65.176 23.238 65.176 23.531 65.469C23.824 65.762 23.824 66.2371 23.531 66.5301L17.0611 73L23.531 79.47C23.824 79.763 23.824 80.238 23.531 80.531C23.384 80.677 23.192 80.75 23 80.75Z" fill="#2A2A2A"/>
<path d="M43.816 72.756C44.2213 72.82 44.5893 72.9853 44.92 73.252C45.2613 73.5187 45.528 73.8493 45.72 74.244C45.9227 74.6387 46.024 75.06 46.024 75.508C46.024 76.0733 45.88 76.5853 45.592 77.044C45.304 77.492 44.8827 77.8493 44.328 78.116C43.784 78.372 43.1387 78.5 42.392 78.5H38.232V67.348H42.232C42.9893 67.348 43.6347 67.476 44.168 67.732C44.7013 67.9773 45.1013 68.3133 45.368 68.74C45.6347 69.1667 45.768 69.6467 45.768 70.18C45.768 70.8413 45.5867 71.3907 45.224 71.828C44.872 72.2547 44.4027 72.564 43.816 72.756ZM39.688 72.164H42.136C42.8187 72.164 43.3467 72.004 43.72 71.684C44.0933 71.364 44.28 70.9213 44.28 70.356C44.28 69.7907 44.0933 69.348 43.72 69.028C43.3467 68.708 42.808 68.548 42.104 68.548H39.688V72.164ZM42.264 77.3C42.9893 77.3 43.5547 77.1293 43.96 76.788C44.3653 76.4467 44.568 75.972 44.568 75.364C44.568 74.7453 44.3547 74.26 43.928 73.908C43.5013 73.5453 42.9307 73.364 42.216 73.364H39.688V77.3H42.264ZM47.5005 74.084C47.5005 73.188 47.6818 72.404 48.0445 71.732C48.4072 71.0493 48.9032 70.5213 49.5325 70.148C50.1725 69.7747 50.8818 69.588 51.6605 69.588C52.4285 69.588 53.0952 69.7533 53.6605 70.084C54.2258 70.4147 54.6472 70.8307 54.9245 71.332V69.732H56.3965V78.5H54.9245V76.868C54.6365 77.38 54.2045 77.8067 53.6285 78.148C53.0632 78.4787 52.4018 78.644 51.6445 78.644C50.8658 78.644 50.1618 78.452 49.5325 78.068C48.9032 77.684 48.4072 77.1453 48.0445 76.452C47.6818 75.7587 47.5005 74.9693 47.5005 74.084ZM54.9245 74.1C54.9245 73.4387 54.7912 72.8627 54.5245 72.372C54.2578 71.8813 53.8952 71.508 53.4365 71.252C52.9885 70.9853 52.4925 70.852 51.9485 70.852C51.4045 70.852 50.9085 70.98 50.4605 71.236C50.0125 71.492 49.6552 71.8653 49.3885 72.356C49.1218 72.8467 48.9885 73.4227 48.9885 74.084C48.9885 74.756 49.1218 75.3427 49.3885 75.844C49.6552 76.3347 50.0125 76.7133 50.4605 76.98C50.9085 77.236 51.4045 77.364 51.9485 77.364C52.4925 77.364 52.9885 77.236 53.4365 76.98C53.8952 76.7133 54.2578 76.3347 54.5245 75.844C54.7912 75.3427 54.9245 74.7613 54.9245 74.1ZM58.313 74.1C58.313 73.1933 58.4943 72.404 58.857 71.732C59.2197 71.0493 59.721 70.5213 60.361 70.148C61.0117 69.7747 61.753 69.588 62.585 69.588C63.6623 69.588 64.5477 69.8493 65.241 70.372C65.945 70.8947 66.409 71.62 66.633 72.548H65.065C64.9157 72.0147 64.6223 71.5933 64.185 71.284C63.7583 70.9747 63.225 70.82 62.585 70.82C61.753 70.82 61.081 71.108 60.569 71.684C60.057 72.2493 59.801 73.0547 59.801 74.1C59.801 75.156 60.057 75.972 60.569 76.548C61.081 77.124 61.753 77.412 62.585 77.412C63.225 77.412 63.7583 77.2627 64.185 76.964C64.6117 76.6653 64.905 76.2387 65.065 75.684H66.633C66.3983 76.58 65.929 77.3 65.225 77.844C64.521 78.3773 63.641 78.644 62.585 78.644C61.753 78.644 61.0117 78.4573 60.361 78.084C59.721 77.7107 59.2197 77.1827 58.857 76.5C58.4943 75.8173 58.313 75.0173 58.313 74.1ZM73.4718 78.5L70.0318 74.628V78.5H68.5758V66.66H70.0318V73.62L73.4078 69.732H75.4398L71.3118 74.1L75.4558 78.5H73.4718Z" fill="#414141"/>
<rect x="130" y="839" width="134" height="5" rx="2.5" fill="#141414"/>
<path d="M31.176 130.32L24.912 147H21.744L15.456 130.32H18.384L23.328 144.192L28.296 130.32H31.176ZM45.5841 140.064C45.5841 140.56 45.5521 141.008 45.4881 141.408H35.3841C35.4641 142.464 35.8561 143.312 36.5601 143.952C37.2641 144.592 38.1281 144.912 39.1521 144.912C40.6241 144.912 41.6641 144.296 42.2721 143.064H45.2241C44.8241 144.28 44.0961 145.28 43.0401 146.064C42.0001 146.832 40.7041 147.216 39.1521 147.216C37.8881 147.216 36.7521 146.936 35.7441 146.376C34.7521 145.8 33.9681 145 33.3921 143.976C32.8321 142.936 32.5521 141.736 32.5521 140.376C32.5521 139.016 32.8241 137.824 33.3681 136.8C33.9281 135.76 34.7041 134.96 35.6961 134.4C36.7041 133.84 37.8561 133.56 39.1521 133.56C40.4001 133.56 41.5121 133.832 42.4881 134.376C43.4641 134.92 44.2241 135.688 44.7681 136.68C45.3121 137.656 45.5841 138.784 45.5841 140.064ZM42.7281 139.2C42.7121 138.192 42.3521 137.384 41.6481 136.776C40.9441 136.168 40.0721 135.864 39.0321 135.864C38.0881 135.864 37.2801 136.168 36.6081 136.776C35.9361 137.368 35.5361 138.176 35.4081 139.2H42.7281ZM51.0126 135.696C51.4126 135.024 51.9406 134.504 52.5966 134.136C53.2686 133.752 54.0606 133.56 54.9726 133.56V136.392H54.2766C53.2046 136.392 52.3886 136.664 51.8286 137.208C51.2846 137.752 51.0126 138.696 51.0126 140.04V147H48.2766V133.776H51.0126V135.696ZM58.8795 132.024C58.3835 132.024 57.9675 131.856 57.6315 131.52C57.2955 131.184 57.1275 130.768 57.1275 130.272C57.1275 129.776 57.2955 129.36 57.6315 129.024C57.9675 128.688 58.3835 128.52 58.8795 128.52C59.3595 128.52 59.7675 128.688 60.1035 129.024C60.4395 129.36 60.6075 129.776 60.6075 130.272C60.6075 130.768 60.4395 131.184 60.1035 131.52C59.7675 131.856 59.3595 132.024 58.8795 132.024ZM60.2235 133.776V147H57.4875V133.776H60.2235ZM69.3596 136.008H66.9116V147H64.1516V136.008H62.5916V133.776H64.1516V132.84C64.1516 131.32 64.5516 130.216 65.3516 129.528C66.1676 128.824 67.4396 128.472 69.1676 128.472V130.752C68.3356 130.752 67.7516 130.912 67.4156 131.232C67.0796 131.536 66.9116 132.072 66.9116 132.84V133.776H69.3596V136.008ZM73.1764 132.024C72.6804 132.024 72.2644 131.856 71.9284 131.52C71.5924 131.184 71.4244 130.768 71.4244 130.272C71.4244 129.776 71.5924 129.36 71.9284 129.024C72.2644 128.688 72.6804 128.52 73.1764 128.52C73.6564 128.52 74.0644 128.688 74.4004 129.024C74.7364 129.36 74.9044 129.776 74.9044 130.272C74.9044 130.768 74.7364 131.184 74.4004 131.52C74.0644 131.856 73.6564 132.024 73.1764 132.024ZM74.5204 133.776V147H71.7844V133.776H74.5204ZM83.2245 144.552L86.9685 133.776H89.8725L84.8325 147H81.5685L76.5525 133.776H79.4805L83.2245 144.552ZM91.0286 140.328C91.0286 139 91.3006 137.824 91.8446 136.8C92.4046 135.776 93.1566 134.984 94.1006 134.424C95.0606 133.848 96.1166 133.56 97.2686 133.56C98.3086 133.56 99.2126 133.768 99.9806 134.184C100.765 134.584 101.389 135.088 101.853 135.696V133.776H104.613V147H101.853V145.032C101.389 145.656 100.757 146.176 99.9566 146.592C99.1566 147.008 98.2446 147.216 97.2206 147.216C96.0846 147.216 95.0446 146.928 94.1006 146.352C93.1566 145.76 92.4046 144.944 91.8446 143.904C91.3006 142.848 91.0286 141.656 91.0286 140.328ZM101.853 140.376C101.853 139.464 101.661 138.672 101.277 138C100.909 137.328 100.421 136.816 99.8126 136.464C99.2046 136.112 98.5486 135.936 97.8446 135.936C97.1406 135.936 96.4846 136.112 95.8766 136.464C95.2686 136.8 94.7726 137.304 94.3886 137.976C94.0206 138.632 93.8366 139.416 93.8366 140.328C93.8366 141.24 94.0206 142.04 94.3886 142.728C94.7726 143.416 95.2686 143.944 95.8766 144.312C96.5006 144.664 97.1566 144.84 97.8446 144.84C98.5486 144.84 99.2046 144.664 99.8126 144.312C100.421 143.96 100.909 143.448 101.277 142.776C101.661 142.088 101.853 141.288 101.853 140.376ZM111.398 136.008V143.328C111.398 143.824 111.51 144.184 111.734 144.408C111.974 144.616 112.374 144.72 112.934 144.72H114.614V147H112.454C111.222 147 110.278 146.712 109.622 146.136C108.966 145.56 108.638 144.624 108.638 143.328V136.008H107.078V133.776H108.638V130.488H111.398V133.776H114.614V136.008H111.398ZM118.528 132.024C118.032 132.024 117.616 131.856 117.28 131.52C116.944 131.184 116.776 130.768 116.776 130.272C116.776 129.776 116.944 129.36 117.28 129.024C117.616 128.688 118.032 128.52 118.528 128.52C119.008 128.52 119.416 128.688 119.752 129.024C120.088 129.36 120.256 129.776 120.256 130.272C120.256 130.768 120.088 131.184 119.752 131.52C119.416 131.856 119.008 132.024 118.528 132.024ZM119.872 133.776V147H117.136V133.776H119.872ZM129.2 147.216C127.952 147.216 126.824 146.936 125.816 146.376C124.808 145.8 124.016 145 123.44 143.976C122.864 142.936 122.576 141.736 122.576 140.376C122.576 139.032 122.872 137.84 123.464 136.8C124.056 135.76 124.864 134.96 125.888 134.4C126.912 133.84 128.056 133.56 129.32 133.56C130.584 133.56 131.728 133.84 132.752 134.4C133.776 134.96 134.584 135.76 135.176 136.8C135.768 137.84 136.064 139.032 136.064 140.376C136.064 141.72 135.76 142.912 135.152 143.952C134.544 144.992 133.712 145.8 132.656 146.376C131.616 146.936 130.464 147.216 129.2 147.216ZM129.2 144.84C129.904 144.84 130.56 144.672 131.168 144.336C131.792 144 132.296 143.496 132.68 142.824C133.064 142.152 133.256 141.336 133.256 140.376C133.256 139.416 133.072 138.608 132.704 137.952C132.336 137.28 131.848 136.776 131.24 136.44C130.632 136.104 129.976 135.936 129.272 135.936C128.568 135.936 127.912 136.104 127.304 136.44C126.712 136.776 126.24 137.28 125.888 137.952C125.536 138.608 125.36 139.416 125.36 140.376C125.36 141.8 125.72 142.904 126.44 143.688C127.176 144.456 128.096 144.84 129.2 144.84ZM145.441 133.56C146.481 133.56 147.409 133.776 148.225 134.208C149.057 134.64 149.705 135.28 150.169 136.128C150.633 136.976 150.865 138 150.865 139.2V147H148.153V139.608C148.153 138.424 147.857 137.52 147.265 136.896C146.673 136.256 145.865 135.936 144.841 135.936C143.817 135.936 143.001 136.256 142.393 136.896C141.801 137.52 141.505 138.424 141.505 139.608V147H138.769V133.776H141.505V135.288C141.953 134.744 142.521 134.32 143.209 134.016C143.913 133.712 144.657 133.56 145.441 133.56ZM172.709 140.064C172.709 140.56 172.677 141.008 172.613 141.408H162.509C162.589 142.464 162.981 143.312 163.685 143.952C164.389 144.592 165.253 144.912 166.277 144.912C167.749 144.912 168.789 144.296 169.397 143.064H172.349C171.949 144.28 171.221 145.28 170.165 146.064C169.125 146.832 167.829 147.216 166.277 147.216C165.013 147.216 163.877 146.936 162.869 146.376C161.877 145.8 161.093 145 160.517 143.976C159.957 142.936 159.677 141.736 159.677 140.376C159.677 139.016 159.949 137.824 160.493 136.8C161.053 135.76 161.829 134.96 162.821 134.4C163.829 133.84 164.981 133.56 166.277 133.56C167.525 133.56 168.637 133.832 169.613 134.376C170.589 134.92 171.349 135.688 171.893 136.68C172.437 137.656 172.709 138.784 172.709 140.064ZM169.853 139.2C169.837 138.192 169.477 137.384 168.773 136.776C168.069 136.168 167.197 135.864 166.157 135.864C165.213 135.864 164.405 136.168 163.733 136.776C163.061 137.368 162.661 138.176 162.533 139.2H169.853ZM191.41 133.56C192.45 133.56 193.378 133.776 194.194 134.208C195.026 134.64 195.674 135.28 196.138 136.128C196.618 136.976 196.858 138 196.858 139.2V147H194.146V139.608C194.146 138.424 193.85 137.52 193.258 136.896C192.666 136.256 191.858 135.936 190.834 135.936C189.81 135.936 188.994 136.256 188.386 136.896C187.794 137.52 187.498 138.424 187.498 139.608V147H184.786V139.608C184.786 138.424 184.49 137.52 183.898 136.896C183.306 136.256 182.498 135.936 181.474 135.936C180.45 135.936 179.634 136.256 179.026 136.896C178.434 137.52 178.138 138.424 178.138 139.608V147H175.402V133.776H178.138V135.288C178.586 134.744 179.154 134.32 179.842 134.016C180.53 133.712 181.266 133.56 182.05 133.56C183.106 133.56 184.05 133.784 184.882 134.232C185.714 134.68 186.354 135.328 186.802 136.176C187.202 135.376 187.826 134.744 188.674 134.28C189.522 133.8 190.434 133.56 191.41 133.56ZM199.427 140.328C199.427 139 199.699 137.824 200.243 136.8C200.803 135.776 201.555 134.984 202.499 134.424C203.459 133.848 204.515 133.56 205.667 133.56C206.707 133.56 207.611 133.768 208.379 134.184C209.163 134.584 209.787 135.088 210.251 135.696V133.776H213.011V147H210.251V145.032C209.787 145.656 209.155 146.176 208.355 146.592C207.555 147.008 206.643 147.216 205.619 147.216C204.483 147.216 203.443 146.928 202.499 146.352C201.555 145.76 200.803 144.944 200.243 143.904C199.699 142.848 199.427 141.656 199.427 140.328ZM210.251 140.376C210.251 139.464 210.059 138.672 209.675 138C209.307 137.328 208.819 136.816 208.211 136.464C207.603 136.112 206.947 135.936 206.243 135.936C205.539 135.936 204.883 136.112 204.275 136.464C203.667 136.8 203.171 137.304 202.787 137.976C202.419 138.632 202.235 139.416 202.235 140.328C202.235 141.24 202.419 142.04 202.787 142.728C203.171 143.416 203.667 143.944 204.275 144.312C204.899 144.664 205.555 144.84 206.243 144.84C206.947 144.84 207.603 144.664 208.211 144.312C208.819 143.96 209.307 143.448 209.675 142.776C210.059 142.088 210.251 141.288 210.251 140.376ZM217.997 132.024C217.501 132.024 217.085 131.856 216.749 131.52C216.413 131.184 216.245 130.768 216.245 130.272C216.245 129.776 216.413 129.36 216.749 129.024C217.085 128.688 217.501 128.52 217.997 128.52C218.477 128.52 218.885 128.688 219.221 129.024C219.557 129.36 219.725 129.776 219.725 130.272C219.725 130.768 219.557 131.184 219.221 131.52C218.885 131.856 218.477 132.024 217.997 132.024ZM219.341 133.776V147H216.605V133.776H219.341ZM225.669 129.24V147H222.933V129.24H225.669ZM241.231 147.216C239.983 147.216 238.855 146.936 237.847 146.376C236.839 145.8 236.047 145 235.471 143.976C234.895 142.936 234.607 141.736 234.607 140.376C234.607 139.032 234.903 137.84 235.495 136.8C236.087 135.76 236.895 134.96 237.919 134.4C238.943 133.84 240.087 133.56 241.351 133.56C242.615 133.56 243.759 133.84 244.783 134.4C245.807 134.96 246.615 135.76 247.207 136.8C247.799 137.84 248.095 139.032 248.095 140.376C248.095 141.72 247.791 142.912 247.183 143.952C246.575 144.992 245.743 145.8 244.687 146.376C243.647 146.936 242.495 147.216 241.231 147.216ZM241.231 144.84C241.935 144.84 242.591 144.672 243.199 144.336C243.823 144 244.327 143.496 244.711 142.824C245.095 142.152 245.287 141.336 245.287 140.376C245.287 139.416 245.103 138.608 244.735 137.952C244.367 137.28 243.879 136.776 243.271 136.44C242.663 136.104 242.007 135.936 241.303 135.936C240.599 135.936 239.943 136.104 239.335 136.44C238.743 136.776 238.271 137.28 237.919 137.952C237.567 138.608 237.391 139.416 237.391 140.376C237.391 141.8 237.751 142.904 238.471 143.688C239.207 144.456 240.127 144.84 241.231 144.84ZM253.536 135.696C253.936 135.024 254.464 134.504 255.12 134.136C255.792 133.752 256.584 133.56 257.496 133.56V136.392H256.8C255.728 136.392 254.912 136.664 254.352 137.208C253.808 137.752 253.536 138.696 253.536 140.04V147H250.8V133.776H253.536V135.696ZM268.981 135.72C269.445 135.112 270.077 134.6 270.877 134.184C271.677 133.768 272.581 133.56 273.589 133.56C274.741 133.56 275.789 133.848 276.733 134.424C277.693 134.984 278.445 135.776 278.989 136.8C279.533 137.824 279.805 139 279.805 140.328C279.805 141.656 279.533 142.848 278.989 143.904C278.445 144.944 277.693 145.76 276.733 146.352C275.789 146.928 274.741 147.216 273.589 147.216C272.581 147.216 271.685 147.016 270.901 146.616C270.117 146.2 269.477 145.688 268.981 145.08V153.288H266.245V133.776H268.981V135.72ZM277.021 140.328C277.021 139.416 276.829 138.632 276.445 137.976C276.077 137.304 275.581 136.8 274.957 136.464C274.349 136.112 273.693 135.936 272.989 135.936C272.301 135.936 271.645 136.112 271.021 136.464C270.413 136.816 269.917 137.328 269.533 138C269.165 138.672 268.981 139.464 268.981 140.376C268.981 141.288 269.165 142.088 269.533 142.776C269.917 143.448 270.413 143.96 271.021 144.312C271.645 144.664 272.301 144.84 272.989 144.84C273.693 144.84 274.349 144.664 274.957 144.312C275.581 143.944 276.077 143.416 276.445 142.728C276.829 142.04 277.021 141.24 277.021 140.328ZM289.351 133.56C290.359 133.56 291.255 133.776 292.039 134.208C292.839 134.64 293.463 135.28 293.911 136.128C294.375 136.976 294.607 138 294.607 139.2V147H291.895V139.608C291.895 138.424 291.599 137.52 291.007 136.896C290.415 136.256 289.607 135.936 288.583 135.936C287.559 135.936 286.743 136.256 286.135 136.896C285.543 137.52 285.247 138.424 285.247 139.608V147H282.511V129.24H285.247V135.312C285.711 134.752 286.295 134.32 286.999 134.016C287.719 133.712 288.503 133.56 289.351 133.56ZM303.833 147.216C302.585 147.216 301.457 146.936 300.449 146.376C299.441 145.8 298.649 145 298.073 143.976C297.497 142.936 297.209 141.736 297.209 140.376C297.209 139.032 297.505 137.84 298.097 136.8C298.689 135.76 299.497 134.96 300.521 134.4C301.545 133.84 302.689 133.56 303.953 133.56C305.217 133.56 306.361 133.84 307.385 134.4C308.409 134.96 309.217 135.76 309.809 136.8C310.401 137.84 310.697 139.032 310.697 140.376C310.697 141.72 310.393 142.912 309.785 143.952C309.177 144.992 308.345 145.8 307.289 146.376C306.249 146.936 305.097 147.216 303.833 147.216ZM303.833 144.84C304.537 144.84 305.193 144.672 305.801 144.336C306.425 144 306.929 143.496 307.313 142.824C307.697 142.152 307.889 141.336 307.889 140.376C307.889 139.416 307.705 138.608 307.337 137.952C306.969 137.28 306.481 136.776 305.873 136.44C305.265 136.104 304.609 135.936 303.905 135.936C303.201 135.936 302.545 136.104 301.937 136.44C301.345 136.776 300.873 137.28 300.521 137.952C300.169 138.608 299.993 139.416 299.993 140.376C299.993 141.8 300.353 142.904 301.073 143.688C301.809 144.456 302.729 144.84 303.833 144.84ZM320.074 133.56C321.114 133.56 322.042 133.776 322.858 134.208C323.69 134.64 324.338 135.28 324.802 136.128C325.266 136.976 325.498 138 325.498 139.2V147H322.786V139.608C322.786 138.424 322.49 137.52 321.898 136.896C321.306 136.256 320.498 135.936 319.474 135.936C318.45 135.936 317.634 136.256 317.026 136.896C316.434 137.52 316.138 138.424 316.138 139.608V147H313.402V133.776H316.138V135.288C316.586 134.744 317.154 134.32 317.842 134.016C318.546 133.712 319.29 133.56 320.074 133.56ZM341.108 140.064C341.108 140.56 341.076 141.008 341.012 141.408H330.908C330.988 142.464 331.38 143.312 332.084 143.952C332.788 144.592 333.652 144.912 334.676 144.912C336.148 144.912 337.188 144.296 337.796 143.064H340.747C340.348 144.28 339.62 145.28 338.564 146.064C337.524 146.832 336.228 147.216 334.676 147.216C333.412 147.216 332.276 146.936 331.268 146.376C330.276 145.8 329.492 145 328.916 143.976C328.356 142.936 328.076 141.736 328.076 140.376C328.076 139.016 328.348 137.824 328.892 136.8C329.452 135.76 330.228 134.96 331.22 134.4C332.228 133.84 333.38 133.56 334.676 133.56C335.924 133.56 337.036 133.832 338.012 134.376C338.988 134.92 339.748 135.688 340.292 136.68C340.836 137.656 341.108 138.784 341.108 140.064ZM338.252 139.2C338.236 138.192 337.876 137.384 337.172 136.776C336.468 136.168 335.596 135.864 334.556 135.864C333.612 135.864 332.804 136.168 332.132 136.776C331.46 137.368 331.06 138.176 330.932 139.2H338.252ZM23.472 163.56C24.512 163.56 25.44 163.776 26.256 164.208C27.088 164.64 27.736 165.28 28.2 166.128C28.664 166.976 28.896 168 28.896 169.2V177H26.184V169.608C26.184 168.424 25.888 167.52 25.296 166.896C24.704 166.256 23.896 165.936 22.872 165.936C21.848 165.936 21.032 166.256 20.424 166.896C19.832 167.52 19.536 168.424 19.536 169.608V177H16.8V163.776H19.536V165.288C19.984 164.744 20.552 164.32 21.24 164.016C21.944 163.712 22.688 163.56 23.472 163.56ZM44.3619 163.776V177H41.6259V175.44C41.1939 175.984 40.6259 176.416 39.9219 176.736C39.2339 177.04 38.4979 177.192 37.7139 177.192C36.6739 177.192 35.7379 176.976 34.9059 176.544C34.0899 176.112 33.4419 175.472 32.9619 174.624C32.4979 173.776 32.2659 172.752 32.2659 171.552V163.776H34.9779V171.144C34.9779 172.328 35.2739 173.24 35.8659 173.88C36.4579 174.504 37.2659 174.816 38.2899 174.816C39.3139 174.816 40.1219 174.504 40.7139 173.88C41.3219 173.24 41.6259 172.328 41.6259 171.144V163.776H44.3619ZM63.9799 163.56C65.0199 163.56 65.9479 163.776 66.7639 164.208C67.5959 164.64 68.2439 165.28 68.7079 166.128C69.1879 166.976 69.4279 168 69.4279 169.2V177H66.7159V169.608C66.7159 168.424 66.4199 167.52 65.8279 166.896C65.2359 166.256 64.4279 165.936 63.4039 165.936C62.3799 165.936 61.5639 166.256 60.9559 166.896C60.3639 167.52 60.0679 168.424 60.0679 169.608V177H57.3559V169.608C57.3559 168.424 57.0599 167.52 56.4679 166.896C55.8759 166.256 55.0679 165.936 54.0439 165.936C53.0199 165.936 52.2039 166.256 51.5959 166.896C51.0039 167.52 50.7079 168.424 50.7079 169.608V177H47.9719V163.776H50.7079V165.288C51.1559 164.744 51.7239 164.32 52.4119 164.016C53.0999 163.712 53.8359 163.56 54.6199 163.56C55.6759 163.56 56.6199 163.784 57.4519 164.232C58.2839 164.68 58.9239 165.328 59.3719 166.176C59.7719 165.376 60.3959 164.744 61.2439 164.28C62.0919 163.8 63.0039 163.56 63.9799 163.56ZM75.6454 165.744C76.1094 165.104 76.7414 164.584 77.5414 164.184C78.3574 163.768 79.2614 163.56 80.2534 163.56C81.4214 163.56 82.4774 163.84 83.4214 164.4C84.3654 164.96 85.1094 165.76 85.6534 166.8C86.1974 167.824 86.4694 169 86.4694 170.328C86.4694 171.656 86.1974 172.848 85.6534 173.904C85.1094 174.944 84.3574 175.76 83.3974 176.352C82.4534 176.928 81.4054 177.216 80.2534 177.216C79.2294 177.216 78.3174 177.016 77.5174 176.616C76.7334 176.216 76.1094 175.704 75.6454 175.08V177H72.9094V159.24H75.6454V165.744ZM83.6854 170.328C83.6854 169.416 83.4934 168.632 83.1094 167.976C82.7414 167.304 82.2454 166.8 81.6214 166.464C81.0134 166.112 80.3574 165.936 79.6534 165.936C78.9654 165.936 78.3094 166.112 77.6854 166.464C77.0774 166.816 76.5814 167.328 76.1974 168C75.8294 168.672 75.6454 169.464 75.6454 170.376C75.6454 171.288 75.8294 172.088 76.1974 172.776C76.5814 173.448 77.0774 173.96 77.6854 174.312C78.3094 174.664 78.9654 174.84 79.6534 174.84C80.3574 174.84 81.0134 174.664 81.6214 174.312C82.2454 173.944 82.7414 173.416 83.1094 172.728C83.4934 172.04 83.6854 171.24 83.6854 170.328ZM101.295 170.064C101.295 170.56 101.263 171.008 101.199 171.408H91.095C91.175 172.464 91.567 173.312 92.271 173.952C92.975 174.592 93.839 174.912 94.863 174.912C96.335 174.912 97.375 174.296 97.983 173.064H100.935C100.535 174.28 99.807 175.28 98.751 176.064C97.711 176.832 96.415 177.216 94.863 177.216C93.599 177.216 92.463 176.936 91.455 176.376C90.463 175.8 89.679 175 89.103 173.976C88.543 172.936 88.263 171.736 88.263 170.376C88.263 169.016 88.535 167.824 89.079 166.8C89.639 165.76 90.415 164.96 91.407 164.4C92.415 163.84 93.567 163.56 94.863 163.56C96.111 163.56 97.223 163.832 98.199 164.376C99.175 164.92 99.935 165.688 100.479 166.68C101.023 167.656 101.295 168.784 101.295 170.064ZM98.439 169.2C98.423 168.192 98.063 167.384 97.359 166.776C96.655 166.168 95.783 165.864 94.743 165.864C93.799 165.864 92.991 166.168 92.319 166.776C91.647 167.368 91.247 168.176 91.119 169.2H98.439ZM106.724 165.696C107.124 165.024 107.652 164.504 108.308 164.136C108.98 163.752 109.772 163.56 110.684 163.56V166.392H109.988C108.916 166.392 108.1 166.664 107.54 167.208C106.996 167.752 106.724 168.696 106.724 170.04V177H103.988V163.776H106.724V165.696Z" fill="#414141"/>
<rect x="16.5" y="224.5" width="361" height="59" rx="7.5" stroke="#B8B8B8"/>
<path d="M39.024 250.352V253.616H42.864V255.104H39.024V258.512H43.344V260H37.2V248.864H43.344V250.352H39.024ZM56.2626 251.04C56.956 251.04 57.5746 251.184 58.1186 251.472C58.6733 251.76 59.1053 252.187 59.4146 252.752C59.7346 253.317 59.8946 254 59.8946 254.8V260H58.0866V255.072C58.0866 254.283 57.8893 253.68 57.4946 253.264C57.1 252.837 56.5613 252.624 55.8786 252.624C55.196 252.624 54.652 252.837 54.2466 253.264C53.852 253.68 53.6546 254.283 53.6546 255.072V260H51.8466V255.072C51.8466 254.283 51.6493 253.68 51.2546 253.264C50.86 252.837 50.3213 252.624 49.6386 252.624C48.956 252.624 48.412 252.837 48.0066 253.264C47.612 253.68 47.4146 254.283 47.4146 255.072V260H45.5906V251.184H47.4146V252.192C47.7133 251.829 48.092 251.547 48.5506 251.344C49.0093 251.141 49.5 251.04 50.0226 251.04C50.7266 251.04 51.356 251.189 51.9106 251.488C52.4653 251.787 52.892 252.219 53.1906 252.784C53.4573 252.251 53.8733 251.829 54.4386 251.52C55.004 251.2 55.612 251.04 56.2626 251.04ZM61.6076 255.552C61.6076 254.667 61.789 253.883 62.1516 253.2C62.525 252.517 63.0263 251.989 63.6556 251.616C64.2956 251.232 64.9996 251.04 65.7676 251.04C66.461 251.04 67.0636 251.179 67.5756 251.456C68.0983 251.723 68.5143 252.059 68.8236 252.464V251.184H70.6636V260H68.8236V258.688C68.5143 259.104 68.093 259.451 67.5596 259.728C67.0263 260.005 66.4183 260.144 65.7356 260.144C64.9783 260.144 64.285 259.952 63.6556 259.568C63.0263 259.173 62.525 258.629 62.1516 257.936C61.789 257.232 61.6076 256.437 61.6076 255.552ZM68.8236 255.584C68.8236 254.976 68.6956 254.448 68.4396 254C68.1943 253.552 67.869 253.211 67.4636 252.976C67.0583 252.741 66.621 252.624 66.1516 252.624C65.6823 252.624 65.245 252.741 64.8396 252.976C64.4343 253.2 64.1036 253.536 63.8476 253.984C63.6023 254.421 63.4796 254.944 63.4796 255.552C63.4796 256.16 63.6023 256.693 63.8476 257.152C64.1036 257.611 64.4343 257.963 64.8396 258.208C65.2556 258.443 65.693 258.56 66.1516 258.56C66.621 258.56 67.0583 258.443 67.4636 258.208C67.869 257.973 68.1943 257.632 68.4396 257.184C68.6956 256.725 68.8236 256.192 68.8236 255.584ZM73.9874 250.016C73.6567 250.016 73.3794 249.904 73.1554 249.68C72.9314 249.456 72.8194 249.179 72.8194 248.848C72.8194 248.517 72.9314 248.24 73.1554 248.016C73.3794 247.792 73.6567 247.68 73.9874 247.68C74.3074 247.68 74.5794 247.792 74.8034 248.016C75.0274 248.24 75.1394 248.517 75.1394 248.848C75.1394 249.179 75.0274 249.456 74.8034 249.68C74.5794 249.904 74.3074 250.016 73.9874 250.016ZM74.8834 251.184V260H73.0594V251.184H74.8834ZM79.1021 248.16V260H77.2781V248.16H79.1021ZM89.4771 260.144C88.6451 260.144 87.8931 259.957 87.2211 259.584C86.5491 259.2 86.0211 258.667 85.6371 257.984C85.2531 257.291 85.0611 256.491 85.0611 255.584C85.0611 254.688 85.2585 253.893 85.6531 253.2C86.0478 252.507 86.5865 251.973 87.2691 251.6C87.9518 251.227 88.7145 251.04 89.5571 251.04C90.3998 251.04 91.1625 251.227 91.8451 251.6C92.5278 251.973 93.0665 252.507 93.4611 253.2C93.8558 253.893 94.0531 254.688 94.0531 255.584C94.0531 256.48 93.8505 257.275 93.4451 257.968C93.0398 258.661 92.4851 259.2 91.7811 259.584C91.0878 259.957 90.3198 260.144 89.4771 260.144ZM89.4771 258.56C89.9465 258.56 90.3838 258.448 90.7891 258.224C91.2051 258 91.5411 257.664 91.7971 257.216C92.0531 256.768 92.1811 256.224 92.1811 255.584C92.1811 254.944 92.0585 254.405 91.8131 253.968C91.5678 253.52 91.2425 253.184 90.8371 252.96C90.4318 252.736 89.9945 252.624 89.5251 252.624C89.0558 252.624 88.6185 252.736 88.2131 252.96C87.8185 253.184 87.5038 253.52 87.2691 253.968C87.0345 254.405 86.9171 254.944 86.9171 255.584C86.9171 256.533 87.1571 257.269 87.6371 257.792C88.1278 258.304 88.7411 258.56 89.4771 258.56ZM97.6803 252.464C97.9469 252.016 98.2989 251.669 98.7363 251.424C99.1843 251.168 99.7123 251.04 100.32 251.04V252.928H99.8563C99.1416 252.928 98.5976 253.109 98.2243 253.472C97.8616 253.835 97.6803 254.464 97.6803 255.36V260H95.8563V251.184H97.6803V252.464ZM107.977 252.48C108.286 252.075 108.708 251.733 109.241 251.456C109.774 251.179 110.377 251.04 111.049 251.04C111.817 251.04 112.516 251.232 113.145 251.616C113.785 251.989 114.286 252.517 114.649 253.2C115.012 253.883 115.193 254.667 115.193 255.552C115.193 256.437 115.012 257.232 114.649 257.936C114.286 258.629 113.785 259.173 113.145 259.568C112.516 259.952 111.817 260.144 111.049 260.144C110.377 260.144 109.78 260.011 109.257 259.744C108.734 259.467 108.308 259.125 107.977 258.72V264.192H106.153V251.184H107.977V252.48ZM113.337 255.552C113.337 254.944 113.209 254.421 112.953 253.984C112.708 253.536 112.377 253.2 111.961 252.976C111.556 252.741 111.118 252.624 110.649 252.624C110.19 252.624 109.753 252.741 109.337 252.976C108.932 253.211 108.601 253.552 108.345 254C108.1 254.448 107.977 254.976 107.977 255.584C107.977 256.192 108.1 256.725 108.345 257.184C108.601 257.632 108.932 257.973 109.337 258.208C109.753 258.443 110.19 258.56 110.649 258.56C111.118 258.56 111.556 258.443 111.961 258.208C112.377 257.963 112.708 257.611 112.953 257.152C113.209 256.693 113.337 256.16 113.337 255.552ZM121.557 251.04C122.229 251.04 122.826 251.184 123.349 251.472C123.882 251.76 124.298 252.187 124.597 252.752C124.906 253.317 125.061 254 125.061 254.8V260H123.253V255.072C123.253 254.283 123.056 253.68 122.661 253.264C122.266 252.837 121.728 252.624 121.045 252.624C120.362 252.624 119.818 252.837 119.413 253.264C119.018 253.68 118.821 254.283 118.821 255.072V260H116.997V248.16H118.821V252.208C119.13 251.835 119.52 251.547 119.989 251.344C120.469 251.141 120.992 251.04 121.557 251.04ZM131.212 260.144C130.38 260.144 129.628 259.957 128.956 259.584C128.284 259.2 127.756 258.667 127.372 257.984C126.988 257.291 126.796 256.491 126.796 255.584C126.796 254.688 126.993 253.893 127.388 253.2C127.782 252.507 128.321 251.973 129.004 251.6C129.686 251.227 130.449 251.04 131.292 251.04C132.134 251.04 132.897 251.227 133.58 251.6C134.262 251.973 134.801 252.507 135.196 253.2C135.59 253.893 135.788 254.688 135.788 255.584C135.788 256.48 135.585 257.275 135.18 257.968C134.774 258.661 134.22 259.2 133.516 259.584C132.822 259.957 132.054 260.144 131.212 260.144ZM131.212 258.56C131.681 258.56 132.118 258.448 132.524 258.224C132.94 258 133.276 257.664 133.532 257.216C133.788 256.768 133.916 256.224 133.916 255.584C133.916 254.944 133.793 254.405 133.548 253.968C133.302 253.52 132.977 253.184 132.572 252.96C132.166 252.736 131.729 252.624 131.26 252.624C130.79 252.624 130.353 252.736 129.948 252.96C129.553 253.184 129.238 253.52 129.004 253.968C128.769 254.405 128.652 254.944 128.652 255.584C128.652 256.533 128.892 257.269 129.372 257.792C129.862 258.304 130.476 258.56 131.212 258.56ZM142.039 251.04C142.732 251.04 143.351 251.184 143.895 251.472C144.449 251.76 144.881 252.187 145.191 252.752C145.5 253.317 145.655 254 145.655 254.8V260H143.847V255.072C143.847 254.283 143.649 253.68 143.255 253.264C142.86 252.837 142.321 252.624 141.639 252.624C140.956 252.624 140.412 252.837 140.007 253.264C139.612 253.68 139.415 254.283 139.415 255.072V260H137.591V251.184H139.415V252.192C139.713 251.829 140.092 251.547 140.551 251.344C141.02 251.141 141.516 251.04 142.039 251.04ZM156.061 255.376C156.061 255.707 156.04 256.005 155.997 256.272H149.261C149.315 256.976 149.576 257.541 150.045 257.968C150.515 258.395 151.091 258.608 151.773 258.608C152.755 258.608 153.448 258.197 153.853 257.376H155.821C155.555 258.187 155.069 258.853 154.365 259.376C153.672 259.888 152.808 260.144 151.773 260.144C150.931 260.144 150.173 259.957 149.501 259.584C148.84 259.2 148.317 258.667 147.933 257.984C147.56 257.291 147.373 256.491 147.373 255.584C147.373 254.677 147.555 253.883 147.917 253.2C148.291 252.507 148.808 251.973 149.469 251.6C150.141 251.227 150.909 251.04 151.773 251.04C152.605 251.04 153.347 251.221 153.997 251.584C154.648 251.947 155.155 252.459 155.517 253.12C155.88 253.771 156.061 254.523 156.061 255.376ZM154.157 254.8C154.147 254.128 153.907 253.589 153.437 253.184C152.968 252.779 152.387 252.576 151.693 252.576C151.064 252.576 150.525 252.779 150.077 253.184C149.629 253.579 149.363 254.117 149.277 254.8H154.157ZM166.461 251.04C167.154 251.04 167.773 251.184 168.317 251.472C168.871 251.76 169.303 252.187 169.613 252.752C169.922 253.317 170.077 254 170.077 254.8V260H168.269V255.072C168.269 254.283 168.071 253.68 167.677 253.264C167.282 252.837 166.743 252.624 166.061 252.624C165.378 252.624 164.834 252.837 164.429 253.264C164.034 253.68 163.837 254.283 163.837 255.072V260H162.013V251.184H163.837V252.192C164.135 251.829 164.514 251.547 164.973 251.344C165.442 251.141 165.938 251.04 166.461 251.04ZM180.387 251.184V260H178.563V258.96C178.275 259.323 177.896 259.611 177.427 259.824C176.968 260.027 176.478 260.128 175.955 260.128C175.262 260.128 174.638 259.984 174.083 259.696C173.539 259.408 173.107 258.981 172.787 258.416C172.478 257.851 172.323 257.168 172.323 256.368V251.184H174.131V256.096C174.131 256.885 174.328 257.493 174.723 257.92C175.118 258.336 175.656 258.544 176.339 258.544C177.022 258.544 177.56 258.336 177.955 257.92C178.36 257.493 178.563 256.885 178.563 256.096V251.184H180.387ZM193.466 251.04C194.159 251.04 194.778 251.184 195.322 251.472C195.876 251.76 196.308 252.187 196.618 252.752C196.938 253.317 197.098 254 197.098 254.8V260H195.29V255.072C195.29 254.283 195.092 253.68 194.698 253.264C194.303 252.837 193.764 252.624 193.082 252.624C192.399 252.624 191.855 252.837 191.45 253.264C191.055 253.68 190.858 254.283 190.858 255.072V260H189.05V255.072C189.05 254.283 188.852 253.68 188.458 253.264C188.063 252.837 187.524 252.624 186.842 252.624C186.159 252.624 185.615 252.837 185.21 253.264C184.815 253.68 184.618 254.283 184.618 255.072V260H182.794V251.184H184.618V252.192C184.916 251.829 185.295 251.547 185.754 251.344C186.212 251.141 186.703 251.04 187.226 251.04C187.93 251.04 188.559 251.189 189.114 251.488C189.668 251.787 190.095 252.219 190.394 252.784C190.66 252.251 191.076 251.829 191.642 251.52C192.207 251.2 192.815 251.04 193.466 251.04ZM201.243 252.496C201.552 252.069 201.973 251.723 202.507 251.456C203.051 251.179 203.653 251.04 204.315 251.04C205.093 251.04 205.797 251.227 206.427 251.6C207.056 251.973 207.552 252.507 207.915 253.2C208.277 253.883 208.459 254.667 208.459 255.552C208.459 256.437 208.277 257.232 207.915 257.936C207.552 258.629 207.051 259.173 206.411 259.568C205.781 259.952 205.083 260.144 204.315 260.144C203.632 260.144 203.024 260.011 202.491 259.744C201.968 259.477 201.552 259.136 201.243 258.72V260H199.419V248.16H201.243V252.496ZM206.603 255.552C206.603 254.944 206.475 254.421 206.219 253.984C205.973 253.536 205.643 253.2 205.227 252.976C204.821 252.741 204.384 252.624 203.915 252.624C203.456 252.624 203.019 252.741 202.603 252.976C202.197 253.211 201.867 253.552 201.611 254C201.365 254.448 201.243 254.976 201.243 255.584C201.243 256.192 201.365 256.725 201.611 257.184C201.867 257.632 202.197 257.973 202.603 258.208C203.019 258.443 203.456 258.56 203.915 258.56C204.384 258.56 204.821 258.443 205.227 258.208C205.643 257.963 205.973 257.611 206.219 257.152C206.475 256.693 206.603 256.16 206.603 255.552ZM218.343 255.376C218.343 255.707 218.321 256.005 218.279 256.272H211.543C211.596 256.976 211.857 257.541 212.327 257.968C212.796 258.395 213.372 258.608 214.055 258.608C215.036 258.608 215.729 258.197 216.135 257.376H218.102C217.836 258.187 217.351 258.853 216.647 259.376C215.953 259.888 215.089 260.144 214.055 260.144C213.212 260.144 212.455 259.957 211.783 259.584C211.121 259.2 210.599 258.667 210.215 257.984C209.841 257.291 209.655 256.491 209.655 255.584C209.655 254.677 209.836 253.883 210.199 253.2C210.572 252.507 211.089 251.973 211.751 251.6C212.423 251.227 213.191 251.04 214.055 251.04C214.887 251.04 215.628 251.221 216.279 251.584C216.929 251.947 217.436 252.459 217.799 253.12C218.161 253.771 218.343 254.523 218.343 255.376ZM216.439 254.8C216.428 254.128 216.188 253.589 215.719 253.184C215.249 252.779 214.668 252.576 213.975 252.576C213.345 252.576 212.807 252.779 212.359 253.184C211.911 253.579 211.644 254.117 211.559 254.8H216.439ZM221.962 252.464C222.228 252.016 222.58 251.669 223.018 251.424C223.466 251.168 223.994 251.04 224.602 251.04V252.928H224.138C223.423 252.928 222.879 253.109 222.506 253.472C222.143 253.835 221.962 254.464 221.962 255.36V260H220.138V251.184H221.962V252.464Z" fill="#D0D0D0"/>
<rect x="30" y="748" width="340" height="54" rx="8" fill="#008955"/>
<path d="M166.856 780.612C166.11 780.612 165.438 780.484 164.84 780.228C164.243 779.961 163.774 779.588 163.432 779.108C163.091 778.628 162.92 778.068 162.92 777.428H164.872C164.915 777.908 165.102 778.303 165.432 778.612C165.774 778.921 166.248 779.076 166.856 779.076C167.486 779.076 167.976 778.927 168.328 778.628C168.68 778.319 168.856 777.924 168.856 777.444C168.856 777.071 168.744 776.767 168.52 776.532C168.307 776.297 168.035 776.116 167.704 775.988C167.384 775.86 166.936 775.721 166.36 775.572C165.635 775.38 165.043 775.188 164.584 774.996C164.136 774.793 163.752 774.484 163.432 774.068C163.112 773.652 162.952 773.097 162.952 772.404C162.952 771.764 163.112 771.204 163.432 770.724C163.752 770.244 164.2 769.876 164.776 769.62C165.352 769.364 166.019 769.236 166.776 769.236C167.854 769.236 168.734 769.508 169.416 770.052C170.11 770.585 170.494 771.321 170.568 772.26H168.552C168.52 771.855 168.328 771.508 167.976 771.22C167.624 770.932 167.16 770.788 166.584 770.788C166.062 770.788 165.635 770.921 165.304 771.188C164.974 771.455 164.808 771.839 164.808 772.34C164.808 772.681 164.91 772.964 165.112 773.188C165.326 773.401 165.592 773.572 165.912 773.7C166.232 773.828 166.67 773.967 167.224 774.116C167.96 774.319 168.558 774.521 169.016 774.724C169.486 774.927 169.88 775.241 170.2 775.668C170.531 776.084 170.696 776.644 170.696 777.348C170.696 777.913 170.542 778.447 170.232 778.948C169.934 779.449 169.491 779.855 168.904 780.164C168.328 780.463 167.646 780.612 166.856 780.612ZM180.928 775.876C180.928 776.207 180.907 776.505 180.864 776.772H174.128C174.182 777.476 174.443 778.041 174.912 778.468C175.382 778.895 175.958 779.108 176.64 779.108C177.622 779.108 178.315 778.697 178.72 777.876H180.688C180.422 778.687 179.936 779.353 179.232 779.876C178.539 780.388 177.675 780.644 176.64 780.644C175.798 780.644 175.04 780.457 174.368 780.084C173.707 779.7 173.184 779.167 172.8 778.484C172.427 777.791 172.24 776.991 172.24 776.084C172.24 775.177 172.422 774.383 172.784 773.7C173.158 773.007 173.675 772.473 174.336 772.1C175.008 771.727 175.776 771.54 176.64 771.54C177.472 771.54 178.214 771.721 178.864 772.084C179.515 772.447 180.022 772.959 180.384 773.62C180.747 774.271 180.928 775.023 180.928 775.876ZM179.024 775.3C179.014 774.628 178.774 774.089 178.304 773.684C177.835 773.279 177.254 773.076 176.56 773.076C175.931 773.076 175.392 773.279 174.944 773.684C174.496 774.079 174.23 774.617 174.144 775.3H179.024ZM187.171 771.54C187.865 771.54 188.483 771.684 189.027 771.972C189.582 772.26 190.014 772.687 190.323 773.252C190.633 773.817 190.787 774.5 190.787 775.3V780.5H188.979V775.572C188.979 774.783 188.782 774.18 188.387 773.764C187.993 773.337 187.454 773.124 186.771 773.124C186.089 773.124 185.545 773.337 185.139 773.764C184.745 774.18 184.547 774.783 184.547 775.572V780.5H182.723V771.684H184.547V772.692C184.846 772.329 185.225 772.047 185.683 771.844C186.153 771.641 186.649 771.54 187.171 771.54ZM192.506 776.052C192.506 775.167 192.687 774.383 193.05 773.7C193.423 773.017 193.925 772.489 194.554 772.116C195.194 771.732 195.903 771.54 196.682 771.54C197.258 771.54 197.823 771.668 198.378 771.924C198.943 772.169 199.391 772.5 199.722 772.916V768.66H201.562V780.5H199.722V779.172C199.423 779.599 199.007 779.951 198.474 780.228C197.951 780.505 197.349 780.644 196.666 780.644C195.898 780.644 195.194 780.452 194.554 780.068C193.925 779.673 193.423 779.129 193.05 778.436C192.687 777.732 192.506 776.937 192.506 776.052ZM199.722 776.084C199.722 775.476 199.594 774.948 199.338 774.5C199.093 774.052 198.767 773.711 198.362 773.476C197.957 773.241 197.519 773.124 197.05 773.124C196.581 773.124 196.143 773.241 195.738 773.476C195.333 773.7 195.002 774.036 194.746 774.484C194.501 774.921 194.378 775.444 194.378 776.052C194.378 776.66 194.501 777.193 194.746 777.652C195.002 778.111 195.333 778.463 195.738 778.708C196.154 778.943 196.591 779.06 197.05 779.06C197.519 779.06 197.957 778.943 198.362 778.708C198.767 778.473 199.093 778.132 199.338 777.684C199.594 777.225 199.722 776.692 199.722 776.084ZM213.186 780.612C212.151 780.612 211.197 780.372 210.322 779.892C209.458 779.401 208.77 778.724 208.258 777.86C207.757 776.985 207.506 776.004 207.506 774.916C207.506 773.828 207.757 772.852 208.258 771.988C208.77 771.124 209.458 770.452 210.322 769.972C211.197 769.481 212.151 769.236 213.186 769.236C214.231 769.236 215.186 769.481 216.05 769.972C216.925 770.452 217.613 771.124 218.114 771.988C218.615 772.852 218.866 773.828 218.866 774.916C218.866 776.004 218.615 776.985 218.114 777.86C217.613 778.724 216.925 779.401 216.05 779.892C215.186 780.372 214.231 780.612 213.186 780.612ZM213.186 779.028C213.922 779.028 214.578 778.863 215.154 778.532C215.73 778.191 216.178 777.711 216.498 777.092C216.829 776.463 216.994 775.737 216.994 774.916C216.994 774.095 216.829 773.375 216.498 772.756C216.178 772.137 215.73 771.663 215.154 771.332C214.578 771.001 213.922 770.836 213.186 770.836C212.45 770.836 211.794 771.001 211.218 771.332C210.642 771.663 210.189 772.137 209.858 772.756C209.538 773.375 209.378 774.095 209.378 774.916C209.378 775.737 209.538 776.463 209.858 777.092C210.189 777.711 210.642 778.191 211.218 778.532C211.794 778.863 212.45 779.028 213.186 779.028ZM227.845 769.38V770.868H224.885V780.5H223.061V770.868H220.085V769.38H227.845ZM237.468 772.692C237.468 773.257 237.335 773.791 237.068 774.292C236.802 774.793 236.375 775.204 235.788 775.524C235.202 775.833 234.45 775.988 233.532 775.988H231.516V780.5H229.692V769.38H233.532C234.386 769.38 235.106 769.529 235.692 769.828C236.29 770.116 236.732 770.511 237.02 771.012C237.319 771.513 237.468 772.073 237.468 772.692ZM233.532 774.5C234.226 774.5 234.743 774.345 235.084 774.036C235.426 773.716 235.596 773.268 235.596 772.692C235.596 771.476 234.908 770.868 233.532 770.868H231.516V774.5H233.532Z" fill="white"/>
</g>
<defs>
<clipPath id="clip0_56_1297">
<rect width="393" height="852" fill="white"/>
</clipPath>
</defs>
</svg>
