<svg width="393" height="852" viewBox="0 0 393 852" fill="none" xmlns="http://www.w3.org/2000/svg">
<g clip-path="url(#clip0_56_1421)">
<rect width="393" height="852" fill="white"/>
<path opacity="0.35" d="M354.834 22.6693C354.834 21.4727 355.804 20.5027 357.001 20.5027H373.667C374.864 20.5027 375.834 21.4727 375.834 22.6694V28.6694C375.834 29.866 374.864 30.836 373.667 30.836H357.001C355.804 30.836 354.834 29.866 354.834 28.6694V22.6693Z" stroke="#414141"/>
<path opacity="0.4" d="M377.334 23.6693V27.6693C378.139 27.3305 378.662 26.5424 378.662 25.6693C378.662 24.7962 378.139 24.0081 377.334 23.6693Z" fill="#414141"/>
<path d="M356.334 23.336C356.334 22.5996 356.931 22.0027 357.667 22.0027H373.001C373.737 22.0027 374.334 22.5996 374.334 23.336V28.0027C374.334 28.7391 373.737 29.336 373.001 29.336H357.667C356.931 29.336 356.334 28.7391 356.334 28.0027V23.336Z" fill="#414141"/>
<path fill-rule="evenodd" clip-rule="evenodd" d="M341.664 22.2773C343.88 22.2774 346.011 23.1289 347.617 24.6557C347.738 24.7735 347.931 24.772 348.05 24.6523L349.206 23.4857C349.267 23.4249 349.3 23.3427 349.3 23.2571C349.299 23.1715 349.265 23.0897 349.204 23.0297C344.989 18.9901 338.339 18.9901 334.124 23.0297C334.063 23.0896 334.028 23.1715 334.027 23.257C334.027 23.3426 334.06 23.4249 334.121 23.4857L335.277 24.6523C335.396 24.7722 335.589 24.7737 335.71 24.6557C337.316 23.1288 339.448 22.2773 341.664 22.2773ZM341.665 26.073C342.882 26.0729 344.056 26.5255 344.959 27.3427C345.081 27.4587 345.273 27.4562 345.392 27.337L346.547 26.1704C346.608 26.1092 346.641 26.0261 346.64 25.9399C346.64 25.8536 346.604 25.7713 346.542 25.7114C343.794 23.155 339.538 23.155 336.79 25.7114C336.728 25.7713 336.692 25.8537 336.691 25.9399C336.691 26.0262 336.724 26.1092 336.785 26.1704L337.94 27.337C338.059 27.4562 338.251 27.4587 338.373 27.3427C339.275 26.526 340.448 26.0735 341.665 26.073ZM343.978 28.6268C343.98 28.7133 343.946 28.7967 343.884 28.8573L341.886 30.873C341.828 30.9323 341.748 30.9656 341.665 30.9656C341.582 30.9656 341.502 30.9323 341.443 30.873L339.445 28.8573C339.384 28.7967 339.35 28.7133 339.352 28.6268C339.353 28.5403 339.391 28.4583 339.455 28.4003C340.731 27.3215 342.599 27.3215 343.874 28.4003C343.939 28.4584 343.976 28.5403 343.978 28.6268Z" fill="#414141"/>
<path fill-rule="evenodd" clip-rule="evenodd" d="M328 20.3359H327C326.448 20.3359 326 20.7837 326 21.3359V30.0026C326 30.5549 326.448 31.0026 327 31.0026H328C328.552 31.0026 329 30.5549 329 30.0026V21.3359C329 20.7837 328.552 20.3359 328 20.3359ZM322.334 22.6693H323.334C323.886 22.6693 324.334 23.117 324.334 23.6693V30.0026C324.334 30.5549 323.886 31.0026 323.334 31.0026H322.334C321.782 31.0026 321.334 30.5549 321.334 30.0026V23.6693C321.334 23.117 321.782 22.6693 322.334 22.6693ZM318.666 25.0026H317.666C317.114 25.0026 316.666 25.4503 316.666 26.0026V30.0026C316.666 30.5548 317.114 31.0026 317.666 31.0026H318.666C319.218 31.0026 319.666 30.5548 319.666 30.0026V26.0026C319.666 25.4503 319.218 25.0026 318.666 25.0026ZM314 27.0026H313C312.448 27.0026 312 27.4503 312 28.0026V30.0026C312 30.5549 312.448 31.0026 313 31.0026H314C314.552 31.0026 315 30.5549 315 30.0026V28.0026C315 27.4503 314.552 27.0026 314 27.0026Z" fill="#414141"/>
<path d="M19.3203 32.2563C22.0083 32.2563 23.605 30.1543 23.605 26.5947C23.605 25.2544 23.3486 24.1265 22.8579 23.2549C22.1475 21.8999 20.9243 21.1675 19.3789 21.1675C17.0791 21.1675 15.4531 22.7129 15.4531 24.8809C15.4531 26.917 16.918 28.3965 18.9321 28.3965C20.1699 28.3965 21.1733 27.8179 21.6714 26.8145H21.6934C21.6934 26.8145 21.7227 26.8145 21.73 26.8145C21.7446 26.8145 21.7959 26.8145 21.7959 26.8145C21.7959 29.2314 20.8804 30.6743 19.335 30.6743C18.4268 30.6743 17.7236 30.1763 17.4819 29.3779H15.5996C15.9146 31.1138 17.3867 32.2563 19.3203 32.2563ZM19.3862 26.895C18.1704 26.895 17.3062 26.0308 17.3062 24.8223C17.3062 23.6431 18.2144 22.7422 19.3936 22.7422C20.5728 22.7422 21.481 23.6577 21.481 24.8516C21.481 26.0308 20.5947 26.895 19.3862 26.895Z" fill="#414141"/>
<path d="M26.6961 32.1538C27.3919 32.1538 27.868 31.6558 27.868 30.9966C27.868 30.3301 27.3919 29.8394 26.6961 29.8394C26.0076 29.8394 25.5242 30.3301 25.5242 30.9966C25.5242 31.6558 26.0076 32.1538 26.6961 32.1538ZM26.6961 26.6606C27.3919 26.6606 27.868 26.1699 27.868 25.5107C27.868 24.8442 27.3919 24.3535 26.6961 24.3535C26.0076 24.3535 25.5242 24.8442 25.5242 25.5107C25.5242 26.1699 26.0076 26.6606 26.6961 26.6606Z" fill="#414141"/>
<path d="M34.7237 32H36.5328V30.0298H37.961V28.4331H36.5328V21.4312H33.8668C31.9991 24.2437 30.5123 26.5947 29.5602 28.3452V30.0298H34.7237V32ZM31.3106 28.3672C32.5411 26.1992 33.6397 24.4634 34.6505 22.9692H34.753V28.4771H31.3106V28.3672Z" fill="#414141"/>
<path d="M41.9896 32H43.8793V21.4312H41.997L39.2357 23.3647V25.1812L41.8651 23.3354H41.9896V32Z" fill="#414141"/>
<path d="M23 80.75C22.808 80.75 22.616 80.6771 22.47 80.5301L15.47 73.5301C15.177 73.2371 15.177 72.762 15.47 72.469L22.47 65.469C22.763 65.176 23.238 65.176 23.531 65.469C23.824 65.762 23.824 66.2371 23.531 66.5301L17.0611 73L23.531 79.47C23.824 79.763 23.824 80.238 23.531 80.531C23.384 80.677 23.192 80.75 23 80.75Z" fill="#2A2A2A"/>
<path d="M43.816 72.756C44.2213 72.82 44.5893 72.9853 44.92 73.252C45.2613 73.5187 45.528 73.8493 45.72 74.244C45.9227 74.6387 46.024 75.06 46.024 75.508C46.024 76.0733 45.88 76.5853 45.592 77.044C45.304 77.492 44.8827 77.8493 44.328 78.116C43.784 78.372 43.1387 78.5 42.392 78.5H38.232V67.348H42.232C42.9893 67.348 43.6347 67.476 44.168 67.732C44.7013 67.9773 45.1013 68.3133 45.368 68.74C45.6347 69.1667 45.768 69.6467 45.768 70.18C45.768 70.8413 45.5867 71.3907 45.224 71.828C44.872 72.2547 44.4027 72.564 43.816 72.756ZM39.688 72.164H42.136C42.8187 72.164 43.3467 72.004 43.72 71.684C44.0933 71.364 44.28 70.9213 44.28 70.356C44.28 69.7907 44.0933 69.348 43.72 69.028C43.3467 68.708 42.808 68.548 42.104 68.548H39.688V72.164ZM42.264 77.3C42.9893 77.3 43.5547 77.1293 43.96 76.788C44.3653 76.4467 44.568 75.972 44.568 75.364C44.568 74.7453 44.3547 74.26 43.928 73.908C43.5013 73.5453 42.9307 73.364 42.216 73.364H39.688V77.3H42.264ZM47.5005 74.084C47.5005 73.188 47.6818 72.404 48.0445 71.732C48.4072 71.0493 48.9032 70.5213 49.5325 70.148C50.1725 69.7747 50.8818 69.588 51.6605 69.588C52.4285 69.588 53.0952 69.7533 53.6605 70.084C54.2258 70.4147 54.6472 70.8307 54.9245 71.332V69.732H56.3965V78.5H54.9245V76.868C54.6365 77.38 54.2045 77.8067 53.6285 78.148C53.0632 78.4787 52.4018 78.644 51.6445 78.644C50.8658 78.644 50.1618 78.452 49.5325 78.068C48.9032 77.684 48.4072 77.1453 48.0445 76.452C47.6818 75.7587 47.5005 74.9693 47.5005 74.084ZM54.9245 74.1C54.9245 73.4387 54.7912 72.8627 54.5245 72.372C54.2578 71.8813 53.8952 71.508 53.4365 71.252C52.9885 70.9853 52.4925 70.852 51.9485 70.852C51.4045 70.852 50.9085 70.98 50.4605 71.236C50.0125 71.492 49.6552 71.8653 49.3885 72.356C49.1218 72.8467 48.9885 73.4227 48.9885 74.084C48.9885 74.756 49.1218 75.3427 49.3885 75.844C49.6552 76.3347 50.0125 76.7133 50.4605 76.98C50.9085 77.236 51.4045 77.364 51.9485 77.364C52.4925 77.364 52.9885 77.236 53.4365 76.98C53.8952 76.7133 54.2578 76.3347 54.5245 75.844C54.7912 75.3427 54.9245 74.7613 54.9245 74.1ZM58.313 74.1C58.313 73.1933 58.4943 72.404 58.857 71.732C59.2197 71.0493 59.721 70.5213 60.361 70.148C61.0117 69.7747 61.753 69.588 62.585 69.588C63.6623 69.588 64.5477 69.8493 65.241 70.372C65.945 70.8947 66.409 71.62 66.633 72.548H65.065C64.9157 72.0147 64.6223 71.5933 64.185 71.284C63.7583 70.9747 63.225 70.82 62.585 70.82C61.753 70.82 61.081 71.108 60.569 71.684C60.057 72.2493 59.801 73.0547 59.801 74.1C59.801 75.156 60.057 75.972 60.569 76.548C61.081 77.124 61.753 77.412 62.585 77.412C63.225 77.412 63.7583 77.2627 64.185 76.964C64.6117 76.6653 64.905 76.2387 65.065 75.684H66.633C66.3983 76.58 65.929 77.3 65.225 77.844C64.521 78.3773 63.641 78.644 62.585 78.644C61.753 78.644 61.0117 78.4573 60.361 78.084C59.721 77.7107 59.2197 77.1827 58.857 76.5C58.4943 75.8173 58.313 75.0173 58.313 74.1ZM73.4718 78.5L70.0318 74.628V78.5H68.5758V66.66H70.0318V73.62L73.4078 69.732H75.4398L71.3118 74.1L75.4558 78.5H73.4718Z" fill="#414141"/>
<path d="M100.925 135.288C100.925 136.136 100.725 136.936 100.325 137.688C99.9249 138.44 99.2849 139.056 98.4049 139.536C97.5249 140 96.3969 140.232 95.0209 140.232H91.9969V147H89.2609V130.32H95.0209C96.3009 130.32 97.3809 130.544 98.2609 130.992C99.1569 131.424 99.8209 132.016 100.253 132.768C100.701 133.52 100.925 134.36 100.925 135.288ZM95.0209 138C96.0609 138 96.8369 137.768 97.3489 137.304C97.8609 136.824 98.1169 136.152 98.1169 135.288C98.1169 133.464 97.0849 132.552 95.0209 132.552H91.9969V138H95.0209ZM110.374 133.56C111.382 133.56 112.278 133.776 113.062 134.208C113.862 134.64 114.486 135.28 114.934 136.128C115.398 136.976 115.63 138 115.63 139.2V147H112.918V139.608C112.918 138.424 112.622 137.52 112.03 136.896C111.438 136.256 110.63 135.936 109.606 135.936C108.582 135.936 107.766 136.256 107.158 136.896C106.566 137.52 106.27 138.424 106.27 139.608V147H103.534V129.24H106.27V135.312C106.734 134.752 107.318 134.32 108.022 134.016C108.742 133.712 109.526 133.56 110.374 133.56ZM124.856 147.216C123.608 147.216 122.48 146.936 121.472 146.376C120.464 145.8 119.672 145 119.096 143.976C118.52 142.936 118.232 141.736 118.232 140.376C118.232 139.032 118.528 137.84 119.12 136.8C119.712 135.76 120.52 134.96 121.544 134.4C122.568 133.84 123.712 133.56 124.976 133.56C126.24 133.56 127.384 133.84 128.408 134.4C129.432 134.96 130.24 135.76 130.832 136.8C131.424 137.84 131.72 139.032 131.72 140.376C131.72 141.72 131.416 142.912 130.808 143.952C130.2 144.992 129.368 145.8 128.312 146.376C127.272 146.936 126.12 147.216 124.856 147.216ZM124.856 144.84C125.56 144.84 126.216 144.672 126.824 144.336C127.448 144 127.952 143.496 128.336 142.824C128.72 142.152 128.912 141.336 128.912 140.376C128.912 139.416 128.728 138.608 128.36 137.952C127.992 137.28 127.504 136.776 126.896 136.44C126.288 136.104 125.632 135.936 124.928 135.936C124.224 135.936 123.568 136.104 122.96 136.44C122.368 136.776 121.896 137.28 121.544 137.952C121.192 138.608 121.016 139.416 121.016 140.376C121.016 141.8 121.376 142.904 122.096 143.688C122.832 144.456 123.752 144.84 124.856 144.84ZM141.097 133.56C142.137 133.56 143.065 133.776 143.881 134.208C144.713 134.64 145.361 135.28 145.825 136.128C146.289 136.976 146.521 138 146.521 139.2V147H143.809V139.608C143.809 138.424 143.513 137.52 142.921 136.896C142.329 136.256 141.521 135.936 140.497 135.936C139.473 135.936 138.657 136.256 138.049 136.896C137.457 137.52 137.161 138.424 137.161 139.608V147H134.425V133.776H137.161V135.288C137.609 134.744 138.177 134.32 138.865 134.016C139.569 133.712 140.313 133.56 141.097 133.56ZM162.131 140.064C162.131 140.56 162.099 141.008 162.035 141.408H151.931C152.011 142.464 152.403 143.312 153.107 143.952C153.811 144.592 154.675 144.912 155.699 144.912C157.171 144.912 158.211 144.296 158.819 143.064H161.771C161.371 144.28 160.643 145.28 159.587 146.064C158.547 146.832 157.251 147.216 155.699 147.216C154.435 147.216 153.299 146.936 152.291 146.376C151.299 145.8 150.515 145 149.939 143.976C149.379 142.936 149.099 141.736 149.099 140.376C149.099 139.016 149.371 137.824 149.915 136.8C150.475 135.76 151.251 134.96 152.243 134.4C153.251 133.84 154.403 133.56 155.699 133.56C156.947 133.56 158.059 133.832 159.035 134.376C160.011 134.92 160.771 135.688 161.315 136.68C161.859 137.656 162.131 138.784 162.131 140.064ZM159.275 139.2C159.259 138.192 158.899 137.384 158.195 136.776C157.491 136.168 156.619 135.864 155.579 135.864C154.635 135.864 153.827 136.168 153.155 136.776C152.483 137.368 152.083 138.176 151.955 139.2H159.275ZM176.17 144.552L179.914 133.776H182.818L177.778 147H174.514L169.498 133.776H172.426L176.17 144.552ZM197.006 140.064C197.006 140.56 196.974 141.008 196.91 141.408H186.806C186.886 142.464 187.278 143.312 187.982 143.952C188.686 144.592 189.55 144.912 190.574 144.912C192.046 144.912 193.086 144.296 193.694 143.064H196.646C196.246 144.28 195.518 145.28 194.462 146.064C193.422 146.832 192.126 147.216 190.574 147.216C189.31 147.216 188.174 146.936 187.166 146.376C186.174 145.8 185.39 145 184.814 143.976C184.254 142.936 183.974 141.736 183.974 140.376C183.974 139.016 184.246 137.824 184.79 136.8C185.35 135.76 186.126 134.96 187.118 134.4C188.126 133.84 189.278 133.56 190.574 133.56C191.822 133.56 192.934 133.832 193.91 134.376C194.886 134.92 195.646 135.688 196.19 136.68C196.734 137.656 197.006 138.784 197.006 140.064ZM194.15 139.2C194.134 138.192 193.774 137.384 193.07 136.776C192.366 136.168 191.494 135.864 190.454 135.864C189.51 135.864 188.702 136.168 188.03 136.776C187.358 137.368 186.958 138.176 186.83 139.2H194.15ZM202.434 135.696C202.834 135.024 203.362 134.504 204.018 134.136C204.69 133.752 205.482 133.56 206.394 133.56V136.392H205.698C204.626 136.392 203.81 136.664 203.25 137.208C202.706 137.752 202.434 138.696 202.434 140.04V147H199.698V133.776H202.434V135.696ZM210.301 132.024C209.805 132.024 209.389 131.856 209.053 131.52C208.717 131.184 208.549 130.768 208.549 130.272C208.549 129.776 208.717 129.36 209.053 129.024C209.389 128.688 209.805 128.52 210.301 128.52C210.781 128.52 211.189 128.688 211.525 129.024C211.861 129.36 212.029 129.776 212.029 130.272C212.029 130.768 211.861 131.184 211.525 131.52C211.189 131.856 210.781 132.024 210.301 132.024ZM211.645 133.776V147H208.909V133.776H211.645ZM220.782 136.008H218.334V147H215.574V136.008H214.014V133.776H215.574V132.84C215.574 131.32 215.974 130.216 216.774 129.528C217.59 128.824 218.862 128.472 220.59 128.472V130.752C219.758 130.752 219.174 130.912 218.838 131.232C218.502 131.536 218.334 132.072 218.334 132.84V133.776H220.782V136.008ZM224.598 132.024C224.102 132.024 223.686 131.856 223.35 131.52C223.014 131.184 222.846 130.768 222.846 130.272C222.846 129.776 223.014 129.36 223.35 129.024C223.686 128.688 224.102 128.52 224.598 128.52C225.078 128.52 225.486 128.688 225.822 129.024C226.158 129.36 226.326 129.776 226.326 130.272C226.326 130.768 226.158 131.184 225.822 131.52C225.486 131.856 225.078 132.024 224.598 132.024ZM225.942 133.776V147H223.206V133.776H225.942ZM228.622 140.376C228.622 139.016 228.894 137.824 229.438 136.8C229.998 135.76 230.766 134.96 231.742 134.4C232.718 133.84 233.838 133.56 235.102 133.56C236.702 133.56 238.022 133.944 239.062 134.712C240.118 135.464 240.83 136.544 241.198 137.952H238.246C238.006 137.296 237.622 136.784 237.094 136.416C236.566 136.048 235.902 135.864 235.102 135.864C233.982 135.864 233.086 136.264 232.414 137.064C231.758 137.848 231.43 138.952 231.43 140.376C231.43 141.8 231.758 142.912 232.414 143.712C233.086 144.512 233.982 144.912 235.102 144.912C236.686 144.912 237.734 144.216 238.246 142.824H241.198C240.814 144.168 240.094 145.24 239.038 146.04C237.982 146.824 236.67 147.216 235.102 147.216C233.838 147.216 232.718 146.936 231.742 146.376C230.766 145.8 229.998 145 229.438 143.976C228.894 142.936 228.622 141.736 228.622 140.376ZM243.013 140.328C243.013 139 243.285 137.824 243.829 136.8C244.389 135.776 245.141 134.984 246.085 134.424C247.045 133.848 248.101 133.56 249.253 133.56C250.293 133.56 251.197 133.768 251.965 134.184C252.749 134.584 253.373 135.088 253.837 135.696V133.776H256.597V147H253.837V145.032C253.373 145.656 252.741 146.176 251.941 146.592C251.141 147.008 250.229 147.216 249.205 147.216C248.069 147.216 247.029 146.928 246.085 146.352C245.141 145.76 244.389 144.944 243.829 143.904C243.285 142.848 243.013 141.656 243.013 140.328ZM253.837 140.376C253.837 139.464 253.645 138.672 253.261 138C252.893 137.328 252.405 136.816 251.797 136.464C251.189 136.112 250.533 135.936 249.829 135.936C249.125 135.936 248.469 136.112 247.861 136.464C247.253 136.8 246.757 137.304 246.373 137.976C246.005 138.632 245.821 139.416 245.821 140.328C245.821 141.24 246.005 142.04 246.373 142.728C246.757 143.416 247.253 143.944 247.861 144.312C248.485 144.664 249.141 144.84 249.829 144.84C250.533 144.84 251.189 144.664 251.797 144.312C252.405 143.96 252.893 143.448 253.261 142.776C253.645 142.088 253.837 141.288 253.837 140.376ZM263.383 136.008V143.328C263.383 143.824 263.495 144.184 263.719 144.408C263.959 144.616 264.359 144.72 264.919 144.72H266.599V147H264.439C263.207 147 262.263 146.712 261.607 146.136C260.951 145.56 260.623 144.624 260.623 143.328V136.008H259.063V133.776H260.623V130.488H263.383V133.776H266.599V136.008H263.383ZM270.512 132.024C270.016 132.024 269.6 131.856 269.264 131.52C268.928 131.184 268.76 130.768 268.76 130.272C268.76 129.776 268.928 129.36 269.264 129.024C269.6 128.688 270.016 128.52 270.512 128.52C270.992 128.52 271.4 128.688 271.736 129.024C272.072 129.36 272.24 129.776 272.24 130.272C272.24 130.768 272.072 131.184 271.736 131.52C271.4 131.856 270.992 132.024 270.512 132.024ZM271.856 133.776V147H269.12V133.776H271.856ZM281.184 147.216C279.936 147.216 278.808 146.936 277.8 146.376C276.792 145.8 276 145 275.424 143.976C274.848 142.936 274.56 141.736 274.56 140.376C274.56 139.032 274.856 137.84 275.448 136.8C276.04 135.76 276.848 134.96 277.872 134.4C278.896 133.84 280.04 133.56 281.304 133.56C282.568 133.56 283.712 133.84 284.736 134.4C285.76 134.96 286.568 135.76 287.16 136.8C287.752 137.84 288.048 139.032 288.048 140.376C288.048 141.72 287.744 142.912 287.136 143.952C286.528 144.992 285.696 145.8 284.64 146.376C283.6 146.936 282.448 147.216 281.184 147.216ZM281.184 144.84C281.888 144.84 282.544 144.672 283.152 144.336C283.776 144 284.28 143.496 284.664 142.824C285.048 142.152 285.24 141.336 285.24 140.376C285.24 139.416 285.056 138.608 284.688 137.952C284.32 137.28 283.832 136.776 283.224 136.44C282.616 136.104 281.96 135.936 281.256 135.936C280.552 135.936 279.896 136.104 279.288 136.44C278.696 136.776 278.224 137.28 277.872 137.952C277.52 138.608 277.344 139.416 277.344 140.376C277.344 141.8 277.704 142.904 278.424 143.688C279.16 144.456 280.08 144.84 281.184 144.84ZM297.425 133.56C298.465 133.56 299.393 133.776 300.209 134.208C301.041 134.64 301.689 135.28 302.153 136.128C302.617 136.976 302.849 138 302.849 139.2V147H300.137V139.608C300.137 138.424 299.841 137.52 299.249 136.896C298.657 136.256 297.849 135.936 296.825 135.936C295.801 135.936 294.985 136.256 294.377 136.896C293.785 137.52 293.489 138.424 293.489 139.608V147H290.753V133.776H293.489V135.288C293.937 134.744 294.505 134.32 295.193 134.016C295.897 133.712 296.641 133.56 297.425 133.56Z" fill="#414141"/>
<path d="M118.891 174.032V177.76H122.955V178.96H118.891V182.8H123.435V184H117.435V172.832H123.435V174.032H118.891ZM129.91 175.072C130.977 175.072 131.841 175.397 132.502 176.048C133.164 176.688 133.494 177.616 133.494 178.832V184H132.054V179.04C132.054 178.165 131.836 177.499 131.398 177.04C130.961 176.571 130.364 176.336 129.606 176.336C128.838 176.336 128.225 176.576 127.766 177.056C127.318 177.536 127.094 178.235 127.094 179.152V184H125.638V175.232H127.094V176.48C127.382 176.032 127.772 175.685 128.262 175.44C128.764 175.195 129.313 175.072 129.91 175.072ZM137.649 176.432V181.6C137.649 182.027 137.739 182.331 137.921 182.512C138.102 182.683 138.417 182.768 138.865 182.768H139.937V184H138.625C137.814 184 137.206 183.813 136.801 183.44C136.395 183.067 136.193 182.453 136.193 181.6V176.432H135.057V175.232H136.193V173.024H137.649V175.232H139.937V176.432H137.649ZM149.701 179.28C149.701 179.557 149.685 179.851 149.653 180.16H142.645C142.698 181.024 142.991 181.701 143.525 182.192C144.069 182.672 144.725 182.912 145.493 182.912C146.122 182.912 146.645 182.768 147.061 182.48C147.487 182.181 147.786 181.787 147.957 181.296H149.525C149.29 182.139 148.821 182.827 148.117 183.36C147.413 183.883 146.538 184.144 145.493 184.144C144.661 184.144 143.914 183.957 143.253 183.584C142.602 183.211 142.09 182.683 141.717 182C141.343 181.307 141.157 180.507 141.157 179.6C141.157 178.693 141.338 177.899 141.701 177.216C142.063 176.533 142.57 176.011 143.221 175.648C143.882 175.275 144.639 175.088 145.493 175.088C146.325 175.088 147.061 175.269 147.701 175.632C148.341 175.995 148.831 176.496 149.173 177.136C149.525 177.765 149.701 178.48 149.701 179.28ZM148.197 178.976C148.197 178.421 148.074 177.947 147.829 177.552C147.583 177.147 147.247 176.843 146.821 176.64C146.405 176.427 145.941 176.32 145.429 176.32C144.693 176.32 144.063 176.555 143.541 177.024C143.029 177.493 142.735 178.144 142.661 178.976H148.197ZM153.079 176.656C153.335 176.155 153.697 175.765 154.167 175.488C154.647 175.211 155.228 175.072 155.911 175.072V176.576H155.527C153.895 176.576 153.079 177.461 153.079 179.232V184H151.623V175.232H153.079V176.656ZM169.409 175.232L164.129 188.128H162.625L164.353 183.904L160.817 175.232H162.433L165.185 182.336L167.905 175.232H169.409ZM174.697 184.144C173.875 184.144 173.129 183.957 172.457 183.584C171.795 183.211 171.273 182.683 170.889 182C170.515 181.307 170.329 180.507 170.329 179.6C170.329 178.704 170.521 177.915 170.905 177.232C171.299 176.539 171.833 176.011 172.505 175.648C173.177 175.275 173.929 175.088 174.761 175.088C175.593 175.088 176.345 175.275 177.017 175.648C177.689 176.011 178.217 176.533 178.601 177.216C178.995 177.899 179.193 178.693 179.193 179.6C179.193 180.507 178.99 181.307 178.585 182C178.19 182.683 177.651 183.211 176.969 183.584C176.286 183.957 175.529 184.144 174.697 184.144ZM174.697 182.864C175.219 182.864 175.71 182.741 176.169 182.496C176.627 182.251 176.995 181.883 177.273 181.392C177.561 180.901 177.705 180.304 177.705 179.6C177.705 178.896 177.566 178.299 177.289 177.808C177.011 177.317 176.649 176.955 176.201 176.72C175.753 176.475 175.267 176.352 174.745 176.352C174.211 176.352 173.721 176.475 173.273 176.72C172.835 176.955 172.483 177.317 172.217 177.808C171.95 178.299 171.817 178.896 171.817 179.6C171.817 180.315 171.945 180.917 172.201 181.408C172.467 181.899 172.819 182.267 173.257 182.512C173.694 182.747 174.174 182.864 174.697 182.864ZM188.883 175.232V184H187.427V182.704C187.15 183.152 186.76 183.504 186.259 183.76C185.768 184.005 185.224 184.128 184.627 184.128C183.944 184.128 183.331 183.989 182.787 183.712C182.243 183.424 181.811 182.997 181.491 182.432C181.182 181.867 181.027 181.179 181.027 180.368V175.232H182.467V180.176C182.467 181.04 182.686 181.707 183.123 182.176C183.56 182.635 184.158 182.864 184.915 182.864C185.694 182.864 186.307 182.624 186.755 182.144C187.203 181.664 187.427 180.965 187.427 180.048V175.232H188.883ZM192.797 176.656C193.053 176.155 193.416 175.765 193.885 175.488C194.365 175.211 194.947 175.072 195.629 175.072V176.576H195.245C193.613 176.576 192.797 177.461 192.797 179.232V184H191.341V175.232H192.797V176.656ZM206.632 184.112C205.597 184.112 204.653 183.872 203.8 183.392C202.946 182.901 202.269 182.224 201.768 181.36C201.277 180.485 201.032 179.504 201.032 178.416C201.032 177.328 201.277 176.352 201.768 175.488C202.269 174.613 202.946 173.936 203.8 173.456C204.653 172.965 205.597 172.72 206.632 172.72C207.677 172.72 208.626 172.965 209.48 173.456C210.333 173.936 211.005 174.608 211.496 175.472C211.986 176.336 212.232 177.317 212.232 178.416C212.232 179.515 211.986 180.496 211.496 181.36C211.005 182.224 210.333 182.901 209.48 183.392C208.626 183.872 207.677 184.112 206.632 184.112ZM206.632 182.848C207.41 182.848 208.109 182.667 208.728 182.304C209.357 181.941 209.848 181.424 210.2 180.752C210.562 180.08 210.744 179.301 210.744 178.416C210.744 177.52 210.562 176.741 210.2 176.08C209.848 175.408 209.362 174.891 208.744 174.528C208.125 174.165 207.421 173.984 206.632 173.984C205.842 173.984 205.138 174.165 204.52 174.528C203.901 174.891 203.41 175.408 203.048 176.08C202.696 176.741 202.52 177.52 202.52 178.416C202.52 179.301 202.696 180.08 203.048 180.752C203.41 181.424 203.901 181.941 204.52 182.304C205.149 182.667 205.853 182.848 206.632 182.848ZM221.018 172.848V174.032H217.978V184H216.522V174.032H213.466V172.848H221.018ZM230.266 176.112C230.266 177.04 229.946 177.813 229.306 178.432C228.677 179.04 227.711 179.344 226.41 179.344H224.266V184H222.81V172.848H226.41C227.669 172.848 228.623 173.152 229.274 173.76C229.935 174.368 230.266 175.152 230.266 176.112ZM226.41 178.144C227.221 178.144 227.818 177.968 228.202 177.616C228.586 177.264 228.778 176.763 228.778 176.112C228.778 174.736 227.989 174.048 226.41 174.048H224.266V178.144H226.41ZM235.797 179.6C235.797 178.693 235.979 177.904 236.341 177.232C236.704 176.549 237.205 176.021 237.845 175.648C238.496 175.275 239.237 175.088 240.069 175.088C241.147 175.088 242.032 175.349 242.725 175.872C243.429 176.395 243.893 177.12 244.117 178.048H242.549C242.4 177.515 242.107 177.093 241.669 176.784C241.243 176.475 240.709 176.32 240.069 176.32C239.237 176.32 238.565 176.608 238.053 177.184C237.541 177.749 237.285 178.555 237.285 179.6C237.285 180.656 237.541 181.472 238.053 182.048C238.565 182.624 239.237 182.912 240.069 182.912C240.709 182.912 241.243 182.763 241.669 182.464C242.096 182.165 242.389 181.739 242.549 181.184H244.117C243.883 182.08 243.413 182.8 242.709 183.344C242.005 183.877 241.125 184.144 240.069 184.144C239.237 184.144 238.496 183.957 237.845 183.584C237.205 183.211 236.704 182.683 236.341 182C235.979 181.317 235.797 180.517 235.797 179.6ZM249.884 184.144C249.063 184.144 248.316 183.957 247.644 183.584C246.983 183.211 246.46 182.683 246.076 182C245.703 181.307 245.516 180.507 245.516 179.6C245.516 178.704 245.708 177.915 246.092 177.232C246.487 176.539 247.02 176.011 247.692 175.648C248.364 175.275 249.116 175.088 249.948 175.088C250.78 175.088 251.532 175.275 252.204 175.648C252.876 176.011 253.404 176.533 253.788 177.216C254.183 177.899 254.38 178.693 254.38 179.6C254.38 180.507 254.177 181.307 253.772 182C253.377 182.683 252.839 183.211 252.156 183.584C251.473 183.957 250.716 184.144 249.884 184.144ZM249.884 182.864C250.407 182.864 250.897 182.741 251.356 182.496C251.815 182.251 252.183 181.883 252.46 181.392C252.748 180.901 252.892 180.304 252.892 179.6C252.892 178.896 252.753 178.299 252.476 177.808C252.199 177.317 251.836 176.955 251.388 176.72C250.94 176.475 250.455 176.352 249.932 176.352C249.399 176.352 248.908 176.475 248.46 176.72C248.023 176.955 247.671 177.317 247.404 177.808C247.137 178.299 247.004 178.896 247.004 179.6C247.004 180.315 247.132 180.917 247.388 181.408C247.655 181.899 248.007 182.267 248.444 182.512C248.881 182.747 249.361 182.864 249.884 182.864ZM255.751 179.584C255.751 178.688 255.932 177.904 256.295 177.232C256.657 176.549 257.153 176.021 257.783 175.648C258.423 175.275 259.137 175.088 259.927 175.088C260.609 175.088 261.244 175.248 261.831 175.568C262.417 175.877 262.865 176.288 263.175 176.8V172.16H264.647V184H263.175V182.352C262.887 182.875 262.46 183.307 261.895 183.648C261.329 183.979 260.668 184.144 259.911 184.144C259.132 184.144 258.423 183.952 257.783 183.568C257.153 183.184 256.657 182.645 256.295 181.952C255.932 181.259 255.751 180.469 255.751 179.584ZM263.175 179.6C263.175 178.939 263.041 178.363 262.775 177.872C262.508 177.381 262.145 177.008 261.687 176.752C261.239 176.485 260.743 176.352 260.199 176.352C259.655 176.352 259.159 176.48 258.711 176.736C258.263 176.992 257.905 177.365 257.639 177.856C257.372 178.347 257.239 178.923 257.239 179.584C257.239 180.256 257.372 180.843 257.639 181.344C257.905 181.835 258.263 182.213 258.711 182.48C259.159 182.736 259.655 182.864 260.199 182.864C260.743 182.864 261.239 182.736 261.687 182.48C262.145 182.213 262.508 181.835 262.775 181.344C263.041 180.843 263.175 180.261 263.175 179.6ZM275.107 179.28C275.107 179.557 275.091 179.851 275.059 180.16H268.051C268.104 181.024 268.398 181.701 268.931 182.192C269.475 182.672 270.131 182.912 270.899 182.912C271.528 182.912 272.051 182.768 272.467 182.48C272.894 182.181 273.192 181.787 273.363 181.296H274.931C274.696 182.139 274.227 182.827 273.523 183.36C272.819 183.883 271.944 184.144 270.899 184.144C270.067 184.144 269.32 183.957 268.659 183.584C268.008 183.211 267.496 182.683 267.123 182C266.75 181.307 266.563 180.507 266.563 179.6C266.563 178.693 266.744 177.899 267.107 177.216C267.47 176.533 267.976 176.011 268.627 175.648C269.288 175.275 270.046 175.088 270.899 175.088C271.731 175.088 272.467 175.269 273.107 175.632C273.747 175.995 274.238 176.496 274.579 177.136C274.931 177.765 275.107 178.48 275.107 179.28ZM273.603 178.976C273.603 178.421 273.48 177.947 273.235 177.552C272.99 177.147 272.654 176.843 272.227 176.64C271.811 176.427 271.347 176.32 270.835 176.32C270.099 176.32 269.47 176.555 268.947 177.024C268.435 177.493 268.142 178.144 268.067 178.976H273.603Z" fill="#A0A0A0"/>
<rect x="51.5" y="230.5" width="49" height="47" rx="6.57753" fill="white" stroke="#D0D0D0"/>
<rect x="111.5" y="230.5" width="49" height="47" rx="6.57753" fill="white" stroke="#D0D0D0"/>
<rect x="171.354" y="230.354" width="49.2922" height="47.2922" rx="6.72366" fill="white" stroke="#D0D0D0" stroke-width="0.707753"/>
<rect x="231.354" y="230.354" width="49.2922" height="47.2922" rx="6.72366" fill="white" stroke="#D0D0D0" stroke-width="0.707753"/>
<rect x="291.354" y="230.354" width="49.2922" height="47.2922" rx="6.72366" fill="white" stroke="#D0D0D0" stroke-width="0.707753"/>
<path d="M61.8554 303.88C63.0394 303.88 64.0741 304.109 64.9594 304.568C65.8554 305.016 66.5434 305.667 67.0234 306.52C67.5141 307.363 67.7594 308.349 67.7594 309.48C67.7594 310.611 67.5141 311.592 67.0234 312.424C66.5434 313.256 65.8554 313.896 64.9594 314.344C64.0741 314.781 63.0394 315 61.8554 315H58.2234V303.88H61.8554ZM61.8554 313.512C63.1568 313.512 64.1541 313.16 64.8474 312.456C65.5408 311.752 65.8874 310.76 65.8874 309.48C65.8874 308.189 65.5408 307.181 64.8474 306.456C64.1541 305.731 63.1568 305.368 61.8554 305.368H60.0474V313.512H61.8554ZM70.4952 305.016C70.1645 305.016 69.8872 304.904 69.6632 304.68C69.4392 304.456 69.3272 304.179 69.3272 303.848C69.3272 303.517 69.4392 303.24 69.6632 303.016C69.8872 302.792 70.1645 302.68 70.4952 302.68C70.8152 302.68 71.0872 302.792 71.3112 303.016C71.5352 303.24 71.6472 303.517 71.6472 303.848C71.6472 304.179 71.5352 304.456 71.3112 304.68C71.0872 304.904 70.8152 305.016 70.4952 305.016ZM71.3912 306.184V315H69.5672V306.184H71.3912ZM73.1779 310.552C73.1779 309.667 73.3593 308.883 73.7219 308.2C74.0953 307.517 74.5966 306.989 75.2259 306.616C75.8659 306.232 76.5753 306.04 77.3539 306.04C77.9299 306.04 78.4953 306.168 79.0499 306.424C79.6153 306.669 80.0633 307 80.3939 307.416V303.16H82.2339V315H80.3939V313.672C80.0953 314.099 79.6793 314.451 79.1459 314.728C78.6233 315.005 78.0206 315.144 77.3379 315.144C76.5699 315.144 75.8659 314.952 75.2259 314.568C74.5966 314.173 74.0953 313.629 73.7219 312.936C73.3593 312.232 73.1779 311.437 73.1779 310.552ZM80.3939 310.584C80.3939 309.976 80.2659 309.448 80.0099 309C79.7646 308.552 79.4393 308.211 79.0339 307.976C78.6286 307.741 78.1913 307.624 77.7219 307.624C77.2526 307.624 76.8153 307.741 76.4099 307.976C76.0046 308.2 75.6739 308.536 75.4179 308.984C75.1726 309.421 75.0499 309.944 75.0499 310.552C75.0499 311.16 75.1726 311.693 75.4179 312.152C75.6739 312.611 76.0046 312.963 76.4099 313.208C76.8259 313.443 77.2633 313.56 77.7219 313.56C78.1913 313.56 78.6286 313.443 79.0339 313.208C79.4393 312.973 79.7646 312.632 80.0099 312.184C80.2659 311.725 80.3939 311.192 80.3939 310.584ZM89.0777 306.04C89.771 306.04 90.3897 306.184 90.9337 306.472C91.4884 306.76 91.9204 307.187 92.2297 307.752C92.539 308.317 92.6937 309 92.6937 309.8V315H90.8857V310.072C90.8857 309.283 90.6884 308.68 90.2937 308.264C89.899 307.837 89.3604 307.624 88.6777 307.624C87.995 307.624 87.451 307.837 87.0457 308.264C86.651 308.68 86.4537 309.283 86.4537 310.072V315H84.6297V306.184H86.4537V307.192C86.7524 306.829 87.131 306.547 87.5897 306.344C88.059 306.141 88.555 306.04 89.0777 306.04ZM95.3083 303.88H97.2923L95.6123 307.688H94.3323L95.3083 303.88ZM101.023 307.672V312.552C101.023 312.883 101.098 313.123 101.247 313.272C101.407 313.411 101.674 313.48 102.047 313.48H103.167V315H101.727C100.906 315 100.277 314.808 99.8393 314.424C99.402 314.04 99.1833 313.416 99.1833 312.552V307.672H98.1433V306.184H99.1833V303.992H101.023V306.184H103.167V307.672H101.023ZM110.829 307.464C111.095 307.016 111.447 306.669 111.885 306.424C112.333 306.168 112.861 306.04 113.469 306.04V307.928H113.005C112.29 307.928 111.746 308.109 111.373 308.472C111.01 308.835 110.829 309.464 110.829 310.36V315H109.005V306.184H110.829V307.464ZM123.225 310.376C123.225 310.707 123.204 311.005 123.161 311.272H116.425C116.479 311.976 116.74 312.541 117.209 312.968C117.679 313.395 118.255 313.608 118.937 313.608C119.919 313.608 120.612 313.197 121.017 312.376H122.985C122.719 313.187 122.233 313.853 121.529 314.376C120.836 314.888 119.972 315.144 118.937 315.144C118.095 315.144 117.337 314.957 116.665 314.584C116.004 314.2 115.481 313.667 115.097 312.984C114.724 312.291 114.537 311.491 114.537 310.584C114.537 309.677 114.719 308.883 115.081 308.2C115.455 307.507 115.972 306.973 116.633 306.6C117.305 306.227 118.073 306.04 118.937 306.04C119.769 306.04 120.511 306.221 121.161 306.584C121.812 306.947 122.319 307.459 122.681 308.12C123.044 308.771 123.225 309.523 123.225 310.376ZM121.321 309.8C121.311 309.128 121.071 308.589 120.601 308.184C120.132 307.779 119.551 307.576 118.857 307.576C118.228 307.576 117.689 307.779 117.241 308.184C116.793 308.579 116.527 309.117 116.441 309.8H121.321ZM124.412 310.584C124.412 309.677 124.594 308.883 124.956 308.2C125.33 307.507 125.842 306.973 126.492 306.6C127.143 306.227 127.89 306.04 128.732 306.04C129.799 306.04 130.679 306.296 131.372 306.808C132.076 307.309 132.551 308.029 132.796 308.968H130.828C130.668 308.531 130.412 308.189 130.06 307.944C129.708 307.699 129.266 307.576 128.732 307.576C127.986 307.576 127.388 307.843 126.94 308.376C126.503 308.899 126.284 309.635 126.284 310.584C126.284 311.533 126.503 312.275 126.94 312.808C127.388 313.341 127.986 313.608 128.732 313.608C129.788 313.608 130.487 313.144 130.828 312.216H132.796C132.54 313.112 132.06 313.827 131.356 314.36C130.652 314.883 129.778 315.144 128.732 315.144C127.89 315.144 127.143 314.957 126.492 314.584C125.842 314.2 125.33 313.667 124.956 312.984C124.594 312.291 124.412 311.491 124.412 310.584ZM142.694 310.376C142.694 310.707 142.673 311.005 142.63 311.272H135.894C135.947 311.976 136.209 312.541 136.678 312.968C137.147 313.395 137.723 313.608 138.406 313.608C139.387 313.608 140.081 313.197 140.486 312.376H142.454C142.187 313.187 141.702 313.853 140.998 314.376C140.305 314.888 139.441 315.144 138.406 315.144C137.563 315.144 136.806 314.957 136.134 314.584C135.473 314.2 134.95 313.667 134.566 312.984C134.193 312.291 134.006 311.491 134.006 310.584C134.006 309.677 134.187 308.883 134.55 308.2C134.923 307.507 135.441 306.973 136.102 306.6C136.774 306.227 137.542 306.04 138.406 306.04C139.238 306.04 139.979 306.221 140.63 306.584C141.281 306.947 141.787 307.459 142.15 308.12C142.513 308.771 142.694 309.523 142.694 310.376ZM140.79 309.8C140.779 309.128 140.539 308.589 140.07 308.184C139.601 307.779 139.019 307.576 138.326 307.576C137.697 307.576 137.158 307.779 136.71 308.184C136.262 308.579 135.995 309.117 135.91 309.8H140.79ZM145.417 305.016C145.086 305.016 144.809 304.904 144.585 304.68C144.361 304.456 144.249 304.179 144.249 303.848C144.249 303.517 144.361 303.24 144.585 303.016C144.809 302.792 145.086 302.68 145.417 302.68C145.737 302.68 146.009 302.792 146.233 303.016C146.457 303.24 146.569 303.517 146.569 303.848C146.569 304.179 146.457 304.456 146.233 304.68C146.009 304.904 145.737 305.016 145.417 305.016ZM146.313 306.184V315H144.489V306.184H146.313ZM152.116 313.368L154.612 306.184H156.548L153.188 315H151.012L147.668 306.184H149.62L152.116 313.368ZM166.007 310.376C166.007 310.707 165.985 311.005 165.943 311.272H159.207C159.26 311.976 159.521 312.541 159.991 312.968C160.46 313.395 161.036 313.608 161.719 313.608C162.7 313.608 163.393 313.197 163.799 312.376H165.767C165.5 313.187 165.015 313.853 164.311 314.376C163.617 314.888 162.753 315.144 161.719 315.144C160.876 315.144 160.119 314.957 159.447 314.584C158.785 314.2 158.263 313.667 157.879 312.984C157.505 312.291 157.319 311.491 157.319 310.584C157.319 309.677 157.5 308.883 157.863 308.2C158.236 307.507 158.753 306.973 159.415 306.6C160.087 306.227 160.855 306.04 161.719 306.04C162.551 306.04 163.292 306.221 163.943 306.584C164.593 306.947 165.1 307.459 165.463 308.12C165.825 308.771 166.007 309.523 166.007 310.376ZM164.103 309.8C164.092 309.128 163.852 308.589 163.383 308.184C162.913 307.779 162.332 307.576 161.639 307.576C161.009 307.576 160.471 307.779 160.023 308.184C159.575 308.579 159.308 309.117 159.223 309.8H164.103ZM171.35 310.584C171.35 309.677 171.531 308.883 171.894 308.2C172.267 307.507 172.779 306.973 173.43 306.6C174.08 306.227 174.827 306.04 175.67 306.04C176.736 306.04 177.616 306.296 178.31 306.808C179.014 307.309 179.488 308.029 179.734 308.968H177.766C177.606 308.531 177.35 308.189 176.998 307.944C176.646 307.699 176.203 307.576 175.67 307.576C174.923 307.576 174.326 307.843 173.878 308.376C173.44 308.899 173.222 309.635 173.222 310.584C173.222 311.533 173.44 312.275 173.878 312.808C174.326 313.341 174.923 313.608 175.67 313.608C176.726 313.608 177.424 313.144 177.766 312.216H179.734C179.478 313.112 178.998 313.827 178.294 314.36C177.59 314.883 176.715 315.144 175.67 315.144C174.827 315.144 174.08 314.957 173.43 314.584C172.779 314.2 172.267 313.667 171.894 312.984C171.531 312.291 171.35 311.491 171.35 310.584ZM185.376 315.144C184.544 315.144 183.792 314.957 183.12 314.584C182.448 314.2 181.92 313.667 181.536 312.984C181.152 312.291 180.96 311.491 180.96 310.584C180.96 309.688 181.157 308.893 181.552 308.2C181.946 307.507 182.485 306.973 183.168 306.6C183.85 306.227 184.613 306.04 185.456 306.04C186.298 306.04 187.061 306.227 187.744 306.6C188.426 306.973 188.965 307.507 189.36 308.2C189.754 308.893 189.952 309.688 189.952 310.584C189.952 311.48 189.749 312.275 189.344 312.968C188.938 313.661 188.384 314.2 187.68 314.584C186.986 314.957 186.218 315.144 185.376 315.144ZM185.376 313.56C185.845 313.56 186.282 313.448 186.688 313.224C187.104 313 187.44 312.664 187.696 312.216C187.952 311.768 188.08 311.224 188.08 310.584C188.08 309.944 187.957 309.405 187.712 308.968C187.466 308.52 187.141 308.184 186.736 307.96C186.33 307.736 185.893 307.624 185.424 307.624C184.954 307.624 184.517 307.736 184.112 307.96C183.717 308.184 183.402 308.52 183.168 308.968C182.933 309.405 182.816 309.944 182.816 310.584C182.816 311.533 183.056 312.269 183.536 312.792C184.026 313.304 184.64 313.56 185.376 313.56ZM191.147 310.552C191.147 309.667 191.328 308.883 191.691 308.2C192.064 307.517 192.565 306.989 193.195 306.616C193.835 306.232 194.544 306.04 195.323 306.04C195.899 306.04 196.464 306.168 197.019 306.424C197.584 306.669 198.032 307 198.363 307.416V303.16H200.203V315H198.363V313.672C198.064 314.099 197.648 314.451 197.115 314.728C196.592 315.005 195.989 315.144 195.307 315.144C194.539 315.144 193.835 314.952 193.195 314.568C192.565 314.173 192.064 313.629 191.691 312.936C191.328 312.232 191.147 311.437 191.147 310.552ZM198.363 310.584C198.363 309.976 198.235 309.448 197.979 309C197.733 308.552 197.408 308.211 197.003 307.976C196.597 307.741 196.16 307.624 195.691 307.624C195.221 307.624 194.784 307.741 194.379 307.976C193.973 308.2 193.643 308.536 193.387 308.984C193.141 309.421 193.019 309.944 193.019 310.552C193.019 311.16 193.141 311.693 193.387 312.152C193.643 312.611 193.973 312.963 194.379 313.208C194.795 313.443 195.232 313.56 195.691 313.56C196.16 313.56 196.597 313.443 197.003 313.208C197.408 312.973 197.733 312.632 197.979 312.184C198.235 311.725 198.363 311.192 198.363 310.584ZM210.678 310.376C210.678 310.707 210.657 311.005 210.614 311.272H203.878C203.932 311.976 204.193 312.541 204.662 312.968C205.132 313.395 205.708 313.608 206.39 313.608C207.372 313.608 208.065 313.197 208.47 312.376H210.438C210.172 313.187 209.686 313.853 208.982 314.376C208.289 314.888 207.425 315.144 206.39 315.144C205.548 315.144 204.79 314.957 204.118 314.584C203.457 314.2 202.934 313.667 202.55 312.984C202.177 312.291 201.99 311.491 201.99 310.584C201.99 309.677 202.172 308.883 202.534 308.2C202.908 307.507 203.425 306.973 204.086 306.6C204.758 306.227 205.526 306.04 206.39 306.04C207.222 306.04 207.964 306.221 208.614 306.584C209.265 306.947 209.772 307.459 210.134 308.12C210.497 308.771 210.678 309.523 210.678 310.376ZM208.774 309.8C208.764 309.128 208.524 308.589 208.054 308.184C207.585 307.779 207.004 307.576 206.31 307.576C205.681 307.576 205.142 307.779 204.694 308.184C204.246 308.579 203.98 309.117 203.894 309.8H208.774ZM215.465 303.72C216.553 303.72 217.423 304.019 218.073 304.616C218.735 305.213 219.065 306.029 219.065 307.064C219.065 308.141 218.724 308.952 218.041 309.496C217.359 310.04 216.452 310.312 215.321 310.312L215.257 311.576H213.673L213.593 309.064H214.121C215.156 309.064 215.945 308.925 216.489 308.648C217.044 308.371 217.321 307.843 217.321 307.064C217.321 306.499 217.156 306.056 216.825 305.736C216.505 305.416 216.057 305.256 215.481 305.256C214.905 305.256 214.452 305.411 214.121 305.72C213.791 306.029 213.625 306.461 213.625 307.016H211.913C211.913 306.376 212.057 305.805 212.345 305.304C212.633 304.803 213.044 304.413 213.577 304.136C214.121 303.859 214.751 303.72 215.465 303.72ZM214.441 315.112C214.111 315.112 213.833 315 213.609 314.776C213.385 314.552 213.273 314.275 213.273 313.944C213.273 313.613 213.385 313.336 213.609 313.112C213.833 312.888 214.111 312.776 214.441 312.776C214.761 312.776 215.033 312.888 215.257 313.112C215.481 313.336 215.593 313.613 215.593 313.944C215.593 314.275 215.481 314.552 215.257 314.776C215.033 315 214.761 315.112 214.441 315.112Z" fill="#5A5A5A"/>
<path d="M231.015 315L228.455 310.552H227.063V315H225.239V303.88H229.079C229.932 303.88 230.652 304.029 231.239 304.328C231.836 304.627 232.279 305.027 232.567 305.528C232.866 306.029 233.015 306.589 233.015 307.208C233.015 307.933 232.802 308.595 232.375 309.192C231.959 309.779 231.314 310.179 230.439 310.392L233.191 315H231.015ZM227.063 309.096H229.079C229.762 309.096 230.274 308.925 230.615 308.584C230.967 308.243 231.143 307.784 231.143 307.208C231.143 306.632 230.972 306.184 230.631 305.864C230.29 305.533 229.772 305.368 229.079 305.368H227.063V309.096ZM243.428 310.376C243.428 310.707 243.407 311.005 243.364 311.272H236.628C236.682 311.976 236.943 312.541 237.412 312.968C237.882 313.395 238.458 313.608 239.14 313.608C240.122 313.608 240.815 313.197 241.22 312.376H243.188C242.922 313.187 242.436 313.853 241.732 314.376C241.039 314.888 240.175 315.144 239.14 315.144C238.298 315.144 237.54 314.957 236.868 314.584C236.207 314.2 235.684 313.667 235.3 312.984C234.927 312.291 234.74 311.491 234.74 310.584C234.74 309.677 234.922 308.883 235.284 308.2C235.658 307.507 236.175 306.973 236.836 306.6C237.508 306.227 238.276 306.04 239.14 306.04C239.972 306.04 240.714 306.221 241.364 306.584C242.015 306.947 242.522 307.459 242.884 308.12C243.247 308.771 243.428 309.523 243.428 310.376ZM241.524 309.8C241.514 309.128 241.274 308.589 240.804 308.184C240.335 307.779 239.754 307.576 239.06 307.576C238.431 307.576 237.892 307.779 237.444 308.184C236.996 308.579 236.73 309.117 236.644 309.8H241.524ZM248.423 315.144C247.73 315.144 247.106 315.021 246.551 314.776C246.007 314.52 245.575 314.179 245.255 313.752C244.935 313.315 244.765 312.829 244.743 312.296H246.631C246.663 312.669 246.839 312.984 247.159 313.24C247.49 313.485 247.901 313.608 248.391 313.608C248.903 313.608 249.298 313.512 249.575 313.32C249.863 313.117 250.007 312.861 250.007 312.552C250.007 312.221 249.847 311.976 249.527 311.816C249.218 311.656 248.722 311.48 248.039 311.288C247.378 311.107 246.839 310.931 246.423 310.76C246.007 310.589 245.645 310.328 245.335 309.976C245.037 309.624 244.887 309.16 244.887 308.584C244.887 308.115 245.026 307.688 245.303 307.304C245.581 306.909 245.975 306.6 246.487 306.376C247.01 306.152 247.607 306.04 248.279 306.04C249.282 306.04 250.087 306.296 250.695 306.808C251.314 307.309 251.645 307.997 251.687 308.872H249.863C249.831 308.477 249.671 308.163 249.383 307.928C249.095 307.693 248.706 307.576 248.215 307.576C247.735 307.576 247.367 307.667 247.111 307.848C246.855 308.029 246.727 308.269 246.727 308.568C246.727 308.803 246.813 309 246.983 309.16C247.154 309.32 247.362 309.448 247.607 309.544C247.853 309.629 248.215 309.741 248.695 309.88C249.335 310.051 249.858 310.227 250.263 310.408C250.679 310.579 251.037 310.835 251.335 311.176C251.634 311.517 251.789 311.971 251.799 312.536C251.799 313.037 251.661 313.485 251.383 313.88C251.106 314.275 250.711 314.584 250.199 314.808C249.698 315.032 249.106 315.144 248.423 315.144ZM261.85 310.376C261.85 310.707 261.829 311.005 261.786 311.272H255.05C255.104 311.976 255.365 312.541 255.834 312.968C256.304 313.395 256.88 313.608 257.562 313.608C258.544 313.608 259.237 313.197 259.642 312.376H261.61C261.344 313.187 260.858 313.853 260.154 314.376C259.461 314.888 258.597 315.144 257.562 315.144C256.72 315.144 255.962 314.957 255.29 314.584C254.629 314.2 254.106 313.667 253.722 312.984C253.349 312.291 253.162 311.491 253.162 310.584C253.162 309.677 253.344 308.883 253.706 308.2C254.08 307.507 254.597 306.973 255.258 306.6C255.93 306.227 256.698 306.04 257.562 306.04C258.394 306.04 259.136 306.221 259.786 306.584C260.437 306.947 260.944 307.459 261.306 308.12C261.669 308.771 261.85 309.523 261.85 310.376ZM259.946 309.8C259.936 309.128 259.696 308.589 259.226 308.184C258.757 307.779 258.176 307.576 257.482 307.576C256.853 307.576 256.314 307.779 255.866 308.184C255.418 308.579 255.152 309.117 255.066 309.8H259.946ZM268.093 306.04C268.787 306.04 269.405 306.184 269.949 306.472C270.504 306.76 270.936 307.187 271.245 307.752C271.555 308.317 271.709 309 271.709 309.8V315H269.901V310.072C269.901 309.283 269.704 308.68 269.309 308.264C268.915 307.837 268.376 307.624 267.693 307.624C267.011 307.624 266.467 307.837 266.061 308.264C265.667 308.68 265.469 309.283 265.469 310.072V315H263.645V306.184H265.469V307.192C265.768 306.829 266.147 306.547 266.605 306.344C267.075 306.141 267.571 306.04 268.093 306.04ZM273.428 310.552C273.428 309.667 273.609 308.883 273.972 308.2C274.345 307.517 274.847 306.989 275.476 306.616C276.116 306.232 276.825 306.04 277.604 306.04C278.18 306.04 278.745 306.168 279.3 306.424C279.865 306.669 280.313 307 280.644 307.416V303.16H282.484V315H280.644V313.672C280.345 314.099 279.929 314.451 279.396 314.728C278.873 315.005 278.271 315.144 277.588 315.144C276.82 315.144 276.116 314.952 275.476 314.568C274.847 314.173 274.345 313.629 273.972 312.936C273.609 312.232 273.428 311.437 273.428 310.552ZM280.644 310.584C280.644 309.976 280.516 309.448 280.26 309C280.015 308.552 279.689 308.211 279.284 307.976C278.879 307.741 278.441 307.624 277.972 307.624C277.503 307.624 277.065 307.741 276.66 307.976C276.255 308.2 275.924 308.536 275.668 308.984C275.423 309.421 275.3 309.944 275.3 310.552C275.3 311.16 275.423 311.693 275.668 312.152C275.924 312.611 276.255 312.963 276.66 313.208C277.076 313.443 277.513 313.56 277.972 313.56C278.441 313.56 278.879 313.443 279.284 313.208C279.689 312.973 280.015 312.632 280.26 312.184C280.516 311.725 280.644 311.192 280.644 310.584ZM288.428 310.552C288.428 309.667 288.609 308.883 288.972 308.2C289.345 307.517 289.847 306.989 290.476 306.616C291.116 306.232 291.82 306.04 292.588 306.04C293.281 306.04 293.884 306.179 294.396 306.456C294.919 306.723 295.335 307.059 295.644 307.464V306.184H297.484V315H295.644V313.688C295.335 314.104 294.913 314.451 294.38 314.728C293.847 315.005 293.239 315.144 292.556 315.144C291.799 315.144 291.105 314.952 290.476 314.568C289.847 314.173 289.345 313.629 288.972 312.936C288.609 312.232 288.428 311.437 288.428 310.552ZM295.644 310.584C295.644 309.976 295.516 309.448 295.26 309C295.015 308.552 294.689 308.211 294.284 307.976C293.879 307.741 293.441 307.624 292.972 307.624C292.503 307.624 292.065 307.741 291.66 307.976C291.255 308.2 290.924 308.536 290.668 308.984C290.423 309.421 290.3 309.944 290.3 310.552C290.3 311.16 290.423 311.693 290.668 312.152C290.924 312.611 291.255 312.963 291.66 313.208C292.076 313.443 292.513 313.56 292.972 313.56C293.441 313.56 293.879 313.443 294.284 313.208C294.689 312.973 295.015 312.632 295.26 312.184C295.516 311.725 295.644 311.192 295.644 310.584ZM303.432 306.04C304.114 306.04 304.717 306.179 305.24 306.456C305.773 306.723 306.189 307.059 306.488 307.464V306.184H308.328V315.144C308.328 315.955 308.157 316.675 307.816 317.304C307.474 317.944 306.978 318.445 306.328 318.808C305.688 319.171 304.92 319.352 304.024 319.352C302.829 319.352 301.837 319.069 301.048 318.504C300.258 317.949 299.81 317.192 299.704 316.232H301.512C301.65 316.691 301.944 317.059 302.392 317.336C302.85 317.624 303.394 317.768 304.024 317.768C304.76 317.768 305.352 317.544 305.8 317.096C306.258 316.648 306.488 315.997 306.488 315.144V313.672C306.178 314.088 305.757 314.44 305.224 314.728C304.701 315.005 304.104 315.144 303.432 315.144C302.664 315.144 301.96 314.952 301.32 314.568C300.69 314.173 300.189 313.629 299.816 312.936C299.453 312.232 299.272 311.437 299.272 310.552C299.272 309.667 299.453 308.883 299.816 308.2C300.189 307.517 300.69 306.989 301.32 306.616C301.96 306.232 302.664 306.04 303.432 306.04ZM306.488 310.584C306.488 309.976 306.36 309.448 306.104 309C305.858 308.552 305.533 308.211 305.128 307.976C304.722 307.741 304.285 307.624 303.816 307.624C303.346 307.624 302.909 307.741 302.504 307.976C302.098 308.2 301.768 308.536 301.512 308.984C301.266 309.421 301.144 309.944 301.144 310.552C301.144 311.16 301.266 311.693 301.512 312.152C301.768 312.611 302.098 312.963 302.504 313.208C302.92 313.443 303.357 313.56 303.816 313.56C304.285 313.56 304.722 313.443 305.128 313.208C305.533 312.973 305.858 312.632 306.104 312.184C306.36 311.725 306.488 311.192 306.488 310.584ZM310.115 310.552C310.115 309.667 310.297 308.883 310.659 308.2C311.033 307.517 311.534 306.989 312.163 306.616C312.803 306.232 313.507 306.04 314.275 306.04C314.969 306.04 315.571 306.179 316.083 306.456C316.606 306.723 317.022 307.059 317.331 307.464V306.184H319.171V315H317.331V313.688C317.022 314.104 316.601 314.451 316.067 314.728C315.534 315.005 314.926 315.144 314.243 315.144C313.486 315.144 312.793 314.952 312.163 314.568C311.534 314.173 311.033 313.629 310.659 312.936C310.297 312.232 310.115 311.437 310.115 310.552ZM317.331 310.584C317.331 309.976 317.203 309.448 316.947 309C316.702 308.552 316.377 308.211 315.971 307.976C315.566 307.741 315.129 307.624 314.659 307.624C314.19 307.624 313.753 307.741 313.347 307.976C312.942 308.2 312.611 308.536 312.355 308.984C312.11 309.421 311.987 309.944 311.987 310.552C311.987 311.16 312.11 311.693 312.355 312.152C312.611 312.611 312.942 312.963 313.347 313.208C313.763 313.443 314.201 313.56 314.659 313.56C315.129 313.56 315.566 313.443 315.971 313.208C316.377 312.973 316.702 312.632 316.947 312.184C317.203 311.725 317.331 311.192 317.331 310.584ZM322.495 305.016C322.165 305.016 321.887 304.904 321.663 304.68C321.439 304.456 321.327 304.179 321.327 303.848C321.327 303.517 321.439 303.24 321.663 303.016C321.887 302.792 322.165 302.68 322.495 302.68C322.815 302.68 323.087 302.792 323.311 303.016C323.535 303.24 323.647 303.517 323.647 303.848C323.647 304.179 323.535 304.456 323.311 304.68C323.087 304.904 322.815 305.016 322.495 305.016ZM323.391 306.184V315H321.567V306.184H323.391ZM330.234 306.04C330.927 306.04 331.546 306.184 332.09 306.472C332.645 306.76 333.077 307.187 333.386 307.752C333.695 308.317 333.85 309 333.85 309.8V315H332.042V310.072C332.042 309.283 331.845 308.68 331.45 308.264C331.055 307.837 330.517 307.624 329.834 307.624C329.151 307.624 328.607 307.837 328.202 308.264C327.807 308.68 327.61 309.283 327.61 310.072V315H325.786V306.184H327.61V307.192C327.909 306.829 328.287 306.547 328.746 306.344C329.215 306.141 329.711 306.04 330.234 306.04Z" fill="#008955"/>
<g filter="url(#filter0_b_56_1421)">
<rect width="393" height="220" transform="translate(0 632)" fill="#C5C9D0" fill-opacity="0.9"/>
<g filter="url(#filter1_d_56_1421)">
<rect x="6" y="636" width="123" height="47" rx="5" fill="white" shape-rendering="crispEdges"/>
<path d="M43.8398 649.551V647.324L48.3398 644.09H50.4375V661H48.3281V646.434H48.1406L43.8398 649.551Z" fill="#141414"/>
</g>
<g filter="url(#filter2_d_56_1421)">
<rect x="135" y="636" width="123" height="47" rx="5" fill="white" shape-rendering="crispEdges"/>
<path d="M188.145 658H199.09V656.102H191.074V655.914L194.918 651.941C197.977 648.789 198.809 647.383 198.809 645.449V645.426C198.809 642.695 196.547 640.691 193.594 640.691C190.359 640.691 188.039 642.848 188.027 645.848L188.051 645.859L190.066 645.871L190.078 645.848C190.078 643.855 191.426 642.531 193.453 642.531C195.445 642.531 196.652 643.867 196.652 645.648V645.672C196.652 647.148 196.02 648.027 193.863 650.359L188.145 656.547V658Z" fill="#141414"/>
<path d="M163.748 677L166.111 669.954H168.304L170.672 677H168.719L168.279 675.452H165.979L165.525 677H163.748ZM166.321 674.163H167.942L167.186 671.541H167.093L166.321 674.163ZM174.31 677V669.954H177.596C178.296 669.954 178.842 670.11 179.236 670.423C179.633 670.735 179.832 671.165 179.832 671.712C179.832 672.09 179.707 672.422 179.456 672.708C179.205 672.991 178.893 673.159 178.519 673.211V673.304C178.981 673.33 179.368 673.502 179.681 673.821C179.996 674.137 180.154 674.52 180.154 674.969C180.154 675.587 179.931 676.08 179.485 676.448C179.043 676.816 178.445 677 177.693 677H174.31ZM176.102 675.735H177.186C177.557 675.735 177.84 675.657 178.035 675.501C178.234 675.341 178.333 675.112 178.333 674.812C178.333 674.523 178.232 674.301 178.03 674.148C177.832 673.992 177.547 673.914 177.176 673.914H176.102V675.735ZM176.102 672.825H177.049C177.374 672.825 177.628 672.755 177.811 672.615C177.993 672.472 178.084 672.275 178.084 672.024C178.084 671.774 177.998 671.577 177.825 671.434C177.656 671.29 177.42 671.219 177.117 671.219H176.102V672.825ZM184.471 676.194C183.862 675.53 183.558 674.624 183.558 673.475C183.558 672.326 183.86 671.421 184.466 670.76C185.075 670.096 185.908 669.764 186.966 669.764C187.549 669.764 188.077 669.884 188.553 670.125C189.031 670.363 189.41 670.695 189.69 671.121C189.97 671.544 190.118 672.018 190.135 672.542H188.411C188.366 672.158 188.209 671.849 187.942 671.614C187.675 671.377 187.35 671.258 186.966 671.258C186.474 671.258 186.087 671.455 185.804 671.849C185.524 672.243 185.384 672.783 185.384 673.47C185.384 674.16 185.525 674.703 185.809 675.101C186.092 675.498 186.479 675.696 186.971 675.696C187.358 675.696 187.684 675.582 187.947 675.354C188.211 675.123 188.369 674.819 188.421 674.441H190.14C190.11 675.249 189.799 675.91 189.207 676.424C188.615 676.935 187.868 677.19 186.966 677.19C185.911 677.19 185.079 676.858 184.471 676.194Z" fill="#141414"/>
</g>
<g filter="url(#filter3_d_56_1421)">
<rect x="264" y="636" width="123" height="47" rx="5" fill="white" shape-rendering="crispEdges"/>
<path d="M322.617 658.281C326.004 658.281 328.488 656.195 328.488 653.371V653.348C328.488 650.945 326.812 649.41 324.352 649.199V649.152C326.461 648.707 327.938 647.277 327.938 645.191V645.168C327.938 642.602 325.816 640.809 322.594 640.809C319.43 640.809 317.25 642.648 316.98 645.402L316.969 645.52H318.996L319.008 645.402C319.184 643.691 320.602 642.637 322.594 642.637C324.656 642.637 325.816 643.656 325.816 645.426V645.449C325.816 647.137 324.41 648.379 322.395 648.379H320.367V650.16H322.488C324.855 650.16 326.344 651.32 326.344 653.395V653.418C326.344 655.211 324.832 656.453 322.617 656.453C320.367 656.453 318.832 655.305 318.668 653.641L318.656 653.523H316.629L316.641 653.664C316.863 656.336 319.125 658.281 322.617 658.281Z" fill="#141414"/>
<path d="M310.84 676H313.799C315.918 676 317.095 674.721 317.095 672.411V672.401C317.095 670.204 315.898 668.954 313.799 668.954H310.84V676ZM312.632 674.56V670.395H313.477C314.604 670.395 315.269 671.127 315.269 672.436V672.445C315.269 673.837 314.639 674.56 313.477 674.56H312.632ZM320.889 676H325.718V674.56H322.681V673.119H325.537V671.801H322.681V670.395H325.718V668.954H320.889V676ZM329.707 676H331.499V673.373H334.224V672.001H331.499V670.395H334.502V668.954H329.707V676Z" fill="#141414"/>
</g>
<g filter="url(#filter4_d_56_1421)">
<rect x="6" y="691" width="123" height="47" rx="5" fill="white" shape-rendering="crispEdges"/>
<path d="M66.3867 713H68.4492V709.496H70.8516V707.609H68.4492V696.09H65.3906C63.0234 699.617 60.4336 703.742 58.1484 707.574V709.496H66.3867V713ZM60.3047 707.621V707.48C62.1445 704.375 64.3594 700.883 66.2578 698.047H66.3984V707.621H60.3047Z" fill="#141414"/>
<path d="M56.4189 731.19C58.4111 731.19 59.6172 730.004 59.6172 728.065V727.157H56.5996V728.388H57.8887L57.8838 728.505C57.835 729.228 57.2734 729.706 56.458 729.706C55.4326 729.706 54.7686 728.847 54.7686 727.455V727.445C54.7686 726.078 55.3691 725.248 56.3701 725.248C57.0781 725.248 57.6201 725.619 57.7715 726.21L57.7812 726.254H59.5488L59.5439 726.205C59.3633 724.77 58.0889 723.764 56.3701 723.764C54.2559 723.764 52.9473 725.18 52.9473 727.465V727.475C52.9473 729.789 54.251 731.19 56.4189 731.19ZM63.416 731H65.208V728.158H68.0156V731H69.8027V723.954H68.0156V726.718H65.208V723.954H63.416V731ZM73.9238 731H75.7158V723.954H73.9238V731Z" fill="#141414"/>
</g>
<g filter="url(#filter5_d_56_1421)">
<rect x="135" y="691" width="123" height="47" rx="5" fill="white" shape-rendering="crispEdges"/>
<path d="M193.523 713.398C196.957 713.398 199.406 711.02 199.406 707.609V707.586C199.406 704.316 197.121 701.938 193.945 701.938C192.41 701.938 191.086 702.559 190.336 703.695H190.148L190.723 697.977H198.469V696.09H189.059L188.168 705.805H189.996C190.207 705.406 190.477 705.078 190.77 704.797C191.496 704.105 192.457 703.766 193.582 703.766C195.773 703.766 197.344 705.371 197.344 707.621V707.645C197.344 709.93 195.797 711.535 193.547 711.535C191.566 711.535 190.102 710.246 189.902 708.629L189.891 708.535H187.863L187.875 708.664C188.121 711.371 190.371 713.398 193.523 713.398Z" fill="#141414"/>
<path d="M184.062 731.19C185.707 731.19 186.649 730.287 186.649 728.725V723.954H184.857V728.71C184.857 729.34 184.579 729.672 184.037 729.672C183.524 729.672 183.212 729.325 183.202 728.773V728.754H181.479V728.783C181.498 730.268 182.484 731.19 184.062 731.19ZM190.775 731H192.567V729.008L193.188 728.222L194.965 731H197.069L194.491 727.064L196.928 723.954H195.004L192.66 726.981H192.567V723.954H190.775V731ZM200.6 731H205.385V729.56H202.392V723.954H200.6V731Z" fill="#141414"/>
</g>
<g filter="url(#filter6_d_56_1421)">
<rect x="264" y="691" width="123" height="47" rx="5" fill="white" shape-rendering="crispEdges"/>
<path d="M322.723 713.398C326.133 713.398 328.641 710.949 328.641 707.574V707.551C328.641 704.305 326.273 701.891 323.098 701.891C320.812 701.891 319.219 703.121 318.598 704.504H318.375C318.375 704.375 318.375 704.234 318.387 704.105C318.516 700.578 319.77 697.578 322.84 697.578C324.551 697.578 325.734 698.457 326.25 699.875L326.297 700.004H328.418L328.383 699.852C327.809 697.355 325.699 695.691 322.863 695.691C318.762 695.691 316.359 699.066 316.359 704.832V704.855C316.359 711.219 319.629 713.398 322.723 713.398ZM318.879 707.551V707.539C318.879 705.336 320.543 703.73 322.734 703.73C324.926 703.73 326.52 705.348 326.52 707.598V707.621C326.52 709.812 324.82 711.535 322.699 711.535C320.555 711.535 318.879 709.777 318.879 707.551Z" fill="#141414"/>
<path d="M308.364 731H309.941V726.513H310.039L311.641 731H312.661L314.263 726.513H314.365V731H315.938V723.954H313.901L312.202 728.734H312.109L310.405 723.954H308.364V731ZM320.063 731H321.763V726.996H321.851L324.8 731H326.221V723.954H324.521V727.919H324.434L321.494 723.954H320.063V731ZM333.491 731.19C335.61 731.19 336.963 729.77 336.963 727.479V727.47C336.963 725.185 335.605 723.764 333.491 723.764C331.372 723.764 330.015 725.185 330.015 727.47V727.479C330.015 729.77 331.362 731.19 333.491 731.19ZM333.491 729.706C332.49 729.706 331.836 728.837 331.836 727.479V727.47C331.836 726.117 332.5 725.248 333.491 725.248C334.478 725.248 335.137 726.117 335.137 727.47V727.479C335.137 728.837 334.478 729.706 333.491 729.706Z" fill="#141414"/>
</g>
<g filter="url(#filter7_d_56_1421)">
<rect x="6" y="746" width="123" height="47" rx="5" fill="white" shape-rendering="crispEdges"/>
<path d="M60.2578 768H62.4727L69.9961 753.047V751.09H58.8047V752.977H67.8516V753.141L60.2578 768Z" fill="#141414"/>
<path d="M47.1367 786H48.9287V783.935H50.1689C51.7461 783.935 52.7617 782.968 52.7617 781.459V781.449C52.7617 779.94 51.7461 778.954 50.1689 778.954H47.1367V786ZM49.7393 780.326C50.501 780.326 50.9502 780.717 50.9502 781.449V781.459C50.9502 782.191 50.501 782.587 49.7393 782.587H48.9287V780.326H49.7393ZM59.6855 786.19C60.1299 786.19 60.5449 786.127 60.916 786.005L61.4092 786.645H62.9814L62.0195 785.385C62.7422 784.74 63.1572 783.744 63.1572 782.479V782.47C63.1572 780.185 61.7998 778.764 59.6855 778.764C57.5664 778.764 56.209 780.185 56.209 782.47V782.479C56.209 784.77 57.5566 786.19 59.6855 786.19ZM59.6855 784.706C58.6846 784.706 58.0303 783.837 58.0303 782.479V782.47C58.0303 781.117 58.6943 780.248 59.6855 780.248C60.6719 780.248 61.3311 781.117 61.3311 782.47V782.479C61.3311 783.095 61.1943 783.607 60.9551 783.988L60.6035 783.524H59.0264L59.915 784.691C59.8418 784.701 59.7637 784.706 59.6855 784.706ZM66.9512 786H68.7432V783.534H69.6709L70.877 786H72.8887L71.4824 783.271C72.2441 782.934 72.6787 782.147 72.6787 781.288V781.278C72.6787 779.823 71.7461 778.954 70.0127 778.954H66.9512V786ZM68.7432 782.309V780.307H69.8027C70.4473 780.307 70.8525 780.707 70.8525 781.303V781.312C70.8525 781.923 70.457 782.309 69.8125 782.309H68.7432ZM79.2021 786.19C81.0576 786.19 82.166 785.272 82.166 783.832V783.827C82.166 782.689 81.4824 782.089 79.9834 781.796L79.2559 781.654C78.4941 781.503 78.1719 781.283 78.1719 780.883V780.878C78.1719 780.458 78.5527 780.17 79.1973 780.17C79.8467 780.17 80.2861 780.463 80.3594 780.902L80.3691 780.961H82.0293L82.0244 780.902C81.917 779.657 80.9551 778.764 79.1875 778.764C77.5664 778.764 76.3945 779.652 76.3896 781.034V781.039C76.3896 782.138 77.0342 782.841 78.5234 783.129L79.251 783.271C80.0762 783.432 80.3887 783.617 80.3887 784.013V784.018C80.3887 784.467 79.9297 784.784 79.2314 784.784C78.5088 784.784 78.0254 784.472 77.9766 784.037L77.9717 783.993H76.2627L76.2676 784.081C76.3408 785.39 77.4443 786.19 79.2021 786.19Z" fill="#141414"/>
</g>
<g filter="url(#filter8_d_56_1421)">
<rect x="135" y="746" width="123" height="47" rx="5" fill="white" shape-rendering="crispEdges"/>
<path d="M193.5 768.281C197.086 768.281 199.641 766.266 199.641 763.43V763.406C199.641 761.32 198.176 759.586 196.008 759.082V759.035C197.859 758.461 199.031 757.055 199.031 755.273V755.25C199.031 752.695 196.699 750.809 193.5 750.809C190.301 750.809 187.969 752.695 187.969 755.25V755.273C187.969 757.055 189.141 758.461 190.992 759.035V759.082C188.824 759.586 187.359 761.32 187.359 763.406V763.43C187.359 766.266 189.914 768.281 193.5 768.281ZM193.5 758.25C191.461 758.25 190.066 757.09 190.066 755.449V755.426C190.066 753.785 191.461 752.625 193.5 752.625C195.539 752.625 196.934 753.785 196.934 755.426V755.449C196.934 757.09 195.539 758.25 193.5 758.25ZM193.5 766.441C191.168 766.441 189.504 765.129 189.504 763.301V763.277C189.504 761.426 191.156 760.102 193.5 760.102C195.844 760.102 197.496 761.426 197.496 763.277V763.301C197.496 765.129 195.832 766.441 193.5 766.441Z" fill="#141414"/>
<path d="M182.548 786H184.335V780.395H186.371V778.954H180.517V780.395H182.548V786ZM193.139 786.19C194.994 786.19 196.176 785.146 196.176 783.568V778.954H194.389V783.397C194.389 784.218 193.949 784.706 193.144 784.706C192.343 784.706 191.898 784.218 191.898 783.397V778.954H190.111V783.568C190.111 785.15 191.308 786.19 193.139 786.19ZM202.04 786H204.354L206.571 778.954H204.525L203.246 784.096H203.153L201.869 778.954H199.823L202.04 786Z" fill="#141414"/>
</g>
<g filter="url(#filter9_d_56_1421)">
<rect x="264" y="746" width="123" height="47" rx="5" fill="white" shape-rendering="crispEdges"/>
<path d="M322.277 750.691C318.867 750.691 316.359 753.141 316.359 756.516V756.539C316.359 759.785 318.727 762.199 321.902 762.199C324.188 762.199 325.781 760.969 326.402 759.586H326.625C326.625 759.715 326.625 759.855 326.613 759.984C326.484 763.512 325.23 766.512 322.16 766.512C320.449 766.512 319.266 765.633 318.75 764.215L318.703 764.086H316.582L316.617 764.238C317.191 766.734 319.301 768.398 322.137 768.398C326.238 768.398 328.641 765.023 328.641 759.258V759.234C328.641 752.871 325.371 750.691 322.277 750.691ZM322.266 760.359C320.074 760.359 318.48 758.742 318.48 756.492V756.469C318.48 754.277 320.18 752.555 322.301 752.555C324.445 752.555 326.121 754.312 326.121 756.539V756.551C326.121 758.754 324.457 760.359 322.266 760.359Z" fill="#141414"/>
<path d="M305.029 786H306.719L307.876 781.684H307.964L309.141 786H310.82L312.661 778.954H310.815L309.893 783.627H309.805L308.638 778.954H307.202L306.074 783.627H305.986L305.049 778.954H303.188L305.029 786ZM315.967 786H317.871L319.233 783.715H319.277L320.649 786H322.661L320.435 782.475V782.45L322.681 778.954H320.688L319.404 781.342H319.355L318.062 778.954H315.967L318.12 782.431V782.46L315.967 786ZM328.354 786H330.146V783.578L332.573 778.954H330.664L329.302 781.83H329.209L327.837 778.954H325.928L328.354 783.578V786ZM336.03 786H341.587V784.56H338.179V784.467L341.484 780.092V778.954H336.084V780.395H339.336V780.487L336.03 784.862V786Z" fill="#141414"/>
</g>
<path d="M68 834.117C68.8438 834.117 69.5234 833.426 69.5234 832.594C69.5234 831.75 68.8438 831.07 68 831.07C67.168 831.07 66.4766 831.75 66.4766 832.594C66.4766 833.426 67.168 834.117 68 834.117Z" fill="#141414"/>
<g filter="url(#filter10_d_56_1421)">
<rect x="135" y="801" width="123" height="47" rx="5" fill="white" shape-rendering="crispEdges"/>
<path d="M193.488 824.398C197.227 824.398 199.477 820.988 199.477 815.551V815.527C199.477 810.09 197.227 806.691 193.488 806.691C189.75 806.691 187.523 810.09 187.523 815.527V815.551C187.523 820.988 189.75 824.398 193.488 824.398ZM193.488 822.559C191.062 822.559 189.645 819.863 189.645 815.551V815.527C189.645 811.215 191.062 808.543 193.488 808.543C195.914 808.543 197.355 811.215 197.355 815.527V815.551C197.355 819.863 195.914 822.559 193.488 822.559Z" fill="#141414"/>
</g>
<path d="M325.214 822.525C324.922 822.232 324.922 821.757 325.214 821.464C325.507 821.172 325.982 821.172 326.275 821.464L328.75 823.939L331.225 821.464C331.518 821.172 331.993 821.172 332.286 821.464C332.578 821.757 332.578 822.232 332.286 822.525L329.811 825L332.286 827.475C332.578 827.768 332.578 828.243 332.286 828.536C331.993 828.828 331.518 828.828 331.225 828.536L328.75 826.061L326.275 828.536C325.982 828.828 325.507 828.828 325.214 828.536C324.922 828.243 324.922 827.768 325.214 827.475L327.689 825L325.214 822.525Z" fill="#2C2C2C"/>
<path fill-rule="evenodd" clip-rule="evenodd" d="M322.121 817.379L314.5 825L322.121 832.621C322.684 833.184 323.447 833.5 324.243 833.5H334.5C336.157 833.5 337.5 832.157 337.5 830.5V819.5C337.5 817.843 336.157 816.5 334.5 816.5H324.243C323.447 816.5 322.684 816.816 322.121 817.379ZM334.5 832.2H324.243C323.792 832.2 323.359 832.021 323.041 831.702L316.339 825L323.041 818.298C323.359 817.979 323.792 817.8 324.243 817.8H334.5C335.439 817.8 336.2 818.561 336.2 819.5V830.5C336.2 831.439 335.439 832.2 334.5 832.2Z" fill="#2C2C2C"/>
</g>
<rect x="26" y="562" width="340" height="54" rx="8" fill="#008955"/>
<path d="M185.878 583.38L181.702 594.5H179.59L175.398 583.38H177.35L180.646 592.628L183.958 583.38H185.878ZM195.483 589.876C195.483 590.207 195.462 590.505 195.419 590.772H188.683C188.736 591.476 188.998 592.041 189.467 592.468C189.936 592.895 190.512 593.108 191.195 593.108C192.176 593.108 192.87 592.697 193.275 591.876H195.243C194.976 592.687 194.491 593.353 193.787 593.876C193.094 594.388 192.23 594.644 191.195 594.644C190.352 594.644 189.595 594.457 188.923 594.084C188.262 593.7 187.739 593.167 187.355 592.484C186.982 591.791 186.795 590.991 186.795 590.084C186.795 589.177 186.976 588.383 187.339 587.7C187.712 587.007 188.23 586.473 188.891 586.1C189.563 585.727 190.331 585.54 191.195 585.54C192.027 585.54 192.768 585.721 193.419 586.084C194.07 586.447 194.576 586.959 194.939 587.62C195.302 588.271 195.483 589.023 195.483 589.876ZM193.579 589.3C193.568 588.628 193.328 588.089 192.859 587.684C192.39 587.279 191.808 587.076 191.115 587.076C190.486 587.076 189.947 587.279 189.499 587.684C189.051 588.079 188.784 588.617 188.699 589.3H193.579ZM199.102 586.964C199.369 586.516 199.721 586.169 200.158 585.924C200.606 585.668 201.134 585.54 201.742 585.54V587.428H201.278C200.563 587.428 200.019 587.609 199.646 587.972C199.283 588.335 199.102 588.964 199.102 589.86V594.5H197.278V585.684H199.102V586.964ZM204.347 584.516C204.016 584.516 203.739 584.404 203.515 584.18C203.291 583.956 203.179 583.679 203.179 583.348C203.179 583.017 203.291 582.74 203.515 582.516C203.739 582.292 204.016 582.18 204.347 582.18C204.667 582.18 204.939 582.292 205.163 582.516C205.387 582.74 205.499 583.017 205.499 583.348C205.499 583.679 205.387 583.956 205.163 584.18C204.939 584.404 204.667 584.516 204.347 584.516ZM205.243 585.684V594.5H203.419V585.684H205.243ZM211.334 587.172H209.702V594.5H207.862V587.172H206.822V585.684H207.862V585.06C207.862 584.047 208.128 583.311 208.662 582.852C209.206 582.383 210.054 582.148 211.206 582.148V583.668C210.651 583.668 210.262 583.775 210.038 583.988C209.814 584.191 209.702 584.548 209.702 585.06V585.684H211.334V587.172ZM220.886 585.684L215.478 598.644H213.59L215.382 594.356L211.91 585.684H213.942L216.422 592.404L218.998 585.684H220.886Z" fill="white"/>
</g>
<defs>
<filter id="filter0_b_56_1421" x="-54" y="578" width="501" height="328" filterUnits="userSpaceOnUse" color-interpolation-filters="sRGB">
<feFlood flood-opacity="0" result="BackgroundImageFix"/>
<feGaussianBlur in="BackgroundImageFix" stdDeviation="27"/>
<feComposite in2="SourceAlpha" operator="in" result="effect1_backgroundBlur_56_1421"/>
<feBlend mode="normal" in="SourceGraphic" in2="effect1_backgroundBlur_56_1421" result="shape"/>
</filter>
<filter id="filter1_d_56_1421" x="6" y="636" width="123" height="48" filterUnits="userSpaceOnUse" color-interpolation-filters="sRGB">
<feFlood flood-opacity="0" result="BackgroundImageFix"/>
<feColorMatrix in="SourceAlpha" type="matrix" values="0 0 0 0 0 0 0 0 0 0 0 0 0 0 0 0 0 0 127 0" result="hardAlpha"/>
<feOffset dy="1"/>
<feComposite in2="hardAlpha" operator="out"/>
<feColorMatrix type="matrix" values="0 0 0 0 0 0 0 0 0 0 0 0 0 0 0 0 0 0 0.3 0"/>
<feBlend mode="normal" in2="BackgroundImageFix" result="effect1_dropShadow_56_1421"/>
<feBlend mode="normal" in="SourceGraphic" in2="effect1_dropShadow_56_1421" result="shape"/>
</filter>
<filter id="filter2_d_56_1421" x="135" y="636" width="123" height="48" filterUnits="userSpaceOnUse" color-interpolation-filters="sRGB">
<feFlood flood-opacity="0" result="BackgroundImageFix"/>
<feColorMatrix in="SourceAlpha" type="matrix" values="0 0 0 0 0 0 0 0 0 0 0 0 0 0 0 0 0 0 127 0" result="hardAlpha"/>
<feOffset dy="1"/>
<feComposite in2="hardAlpha" operator="out"/>
<feColorMatrix type="matrix" values="0 0 0 0 0 0 0 0 0 0 0 0 0 0 0 0 0 0 0.3 0"/>
<feBlend mode="normal" in2="BackgroundImageFix" result="effect1_dropShadow_56_1421"/>
<feBlend mode="normal" in="SourceGraphic" in2="effect1_dropShadow_56_1421" result="shape"/>
</filter>
<filter id="filter3_d_56_1421" x="264" y="636" width="123" height="48" filterUnits="userSpaceOnUse" color-interpolation-filters="sRGB">
<feFlood flood-opacity="0" result="BackgroundImageFix"/>
<feColorMatrix in="SourceAlpha" type="matrix" values="0 0 0 0 0 0 0 0 0 0 0 0 0 0 0 0 0 0 127 0" result="hardAlpha"/>
<feOffset dy="1"/>
<feComposite in2="hardAlpha" operator="out"/>
<feColorMatrix type="matrix" values="0 0 0 0 0 0 0 0 0 0 0 0 0 0 0 0 0 0 0.3 0"/>
<feBlend mode="normal" in2="BackgroundImageFix" result="effect1_dropShadow_56_1421"/>
<feBlend mode="normal" in="SourceGraphic" in2="effect1_dropShadow_56_1421" result="shape"/>
</filter>
<filter id="filter4_d_56_1421" x="6" y="691" width="123" height="48" filterUnits="userSpaceOnUse" color-interpolation-filters="sRGB">
<feFlood flood-opacity="0" result="BackgroundImageFix"/>
<feColorMatrix in="SourceAlpha" type="matrix" values="0 0 0 0 0 0 0 0 0 0 0 0 0 0 0 0 0 0 127 0" result="hardAlpha"/>
<feOffset dy="1"/>
<feComposite in2="hardAlpha" operator="out"/>
<feColorMatrix type="matrix" values="0 0 0 0 0 0 0 0 0 0 0 0 0 0 0 0 0 0 0.3 0"/>
<feBlend mode="normal" in2="BackgroundImageFix" result="effect1_dropShadow_56_1421"/>
<feBlend mode="normal" in="SourceGraphic" in2="effect1_dropShadow_56_1421" result="shape"/>
</filter>
<filter id="filter5_d_56_1421" x="135" y="691" width="123" height="48" filterUnits="userSpaceOnUse" color-interpolation-filters="sRGB">
<feFlood flood-opacity="0" result="BackgroundImageFix"/>
<feColorMatrix in="SourceAlpha" type="matrix" values="0 0 0 0 0 0 0 0 0 0 0 0 0 0 0 0 0 0 127 0" result="hardAlpha"/>
<feOffset dy="1"/>
<feComposite in2="hardAlpha" operator="out"/>
<feColorMatrix type="matrix" values="0 0 0 0 0 0 0 0 0 0 0 0 0 0 0 0 0 0 0.3 0"/>
<feBlend mode="normal" in2="BackgroundImageFix" result="effect1_dropShadow_56_1421"/>
<feBlend mode="normal" in="SourceGraphic" in2="effect1_dropShadow_56_1421" result="shape"/>
</filter>
<filter id="filter6_d_56_1421" x="264" y="691" width="123" height="48" filterUnits="userSpaceOnUse" color-interpolation-filters="sRGB">
<feFlood flood-opacity="0" result="BackgroundImageFix"/>
<feColorMatrix in="SourceAlpha" type="matrix" values="0 0 0 0 0 0 0 0 0 0 0 0 0 0 0 0 0 0 127 0" result="hardAlpha"/>
<feOffset dy="1"/>
<feComposite in2="hardAlpha" operator="out"/>
<feColorMatrix type="matrix" values="0 0 0 0 0 0 0 0 0 0 0 0 0 0 0 0 0 0 0.3 0"/>
<feBlend mode="normal" in2="BackgroundImageFix" result="effect1_dropShadow_56_1421"/>
<feBlend mode="normal" in="SourceGraphic" in2="effect1_dropShadow_56_1421" result="shape"/>
</filter>
<filter id="filter7_d_56_1421" x="6" y="746" width="123" height="48" filterUnits="userSpaceOnUse" color-interpolation-filters="sRGB">
<feFlood flood-opacity="0" result="BackgroundImageFix"/>
<feColorMatrix in="SourceAlpha" type="matrix" values="0 0 0 0 0 0 0 0 0 0 0 0 0 0 0 0 0 0 127 0" result="hardAlpha"/>
<feOffset dy="1"/>
<feComposite in2="hardAlpha" operator="out"/>
<feColorMatrix type="matrix" values="0 0 0 0 0 0 0 0 0 0 0 0 0 0 0 0 0 0 0.3 0"/>
<feBlend mode="normal" in2="BackgroundImageFix" result="effect1_dropShadow_56_1421"/>
<feBlend mode="normal" in="SourceGraphic" in2="effect1_dropShadow_56_1421" result="shape"/>
</filter>
<filter id="filter8_d_56_1421" x="135" y="746" width="123" height="48" filterUnits="userSpaceOnUse" color-interpolation-filters="sRGB">
<feFlood flood-opacity="0" result="BackgroundImageFix"/>
<feColorMatrix in="SourceAlpha" type="matrix" values="0 0 0 0 0 0 0 0 0 0 0 0 0 0 0 0 0 0 127 0" result="hardAlpha"/>
<feOffset dy="1"/>
<feComposite in2="hardAlpha" operator="out"/>
<feColorMatrix type="matrix" values="0 0 0 0 0 0 0 0 0 0 0 0 0 0 0 0 0 0 0.3 0"/>
<feBlend mode="normal" in2="BackgroundImageFix" result="effect1_dropShadow_56_1421"/>
<feBlend mode="normal" in="SourceGraphic" in2="effect1_dropShadow_56_1421" result="shape"/>
</filter>
<filter id="filter9_d_56_1421" x="264" y="746" width="123" height="48" filterUnits="userSpaceOnUse" color-interpolation-filters="sRGB">
<feFlood flood-opacity="0" result="BackgroundImageFix"/>
<feColorMatrix in="SourceAlpha" type="matrix" values="0 0 0 0 0 0 0 0 0 0 0 0 0 0 0 0 0 0 127 0" result="hardAlpha"/>
<feOffset dy="1"/>
<feComposite in2="hardAlpha" operator="out"/>
<feColorMatrix type="matrix" values="0 0 0 0 0 0 0 0 0 0 0 0 0 0 0 0 0 0 0.3 0"/>
<feBlend mode="normal" in2="BackgroundImageFix" result="effect1_dropShadow_56_1421"/>
<feBlend mode="normal" in="SourceGraphic" in2="effect1_dropShadow_56_1421" result="shape"/>
</filter>
<filter id="filter10_d_56_1421" x="135" y="801" width="123" height="48" filterUnits="userSpaceOnUse" color-interpolation-filters="sRGB">
<feFlood flood-opacity="0" result="BackgroundImageFix"/>
<feColorMatrix in="SourceAlpha" type="matrix" values="0 0 0 0 0 0 0 0 0 0 0 0 0 0 0 0 0 0 127 0" result="hardAlpha"/>
<feOffset dy="1"/>
<feComposite in2="hardAlpha" operator="out"/>
<feColorMatrix type="matrix" values="0 0 0 0 0 0 0 0 0 0 0 0 0 0 0 0 0 0 0.3 0"/>
<feBlend mode="normal" in2="BackgroundImageFix" result="effect1_dropShadow_56_1421"/>
<feBlend mode="normal" in="SourceGraphic" in2="effect1_dropShadow_56_1421" result="shape"/>
</filter>
<clipPath id="clip0_56_1421">
<rect width="393" height="852" fill="white"/>
</clipPath>
</defs>
</svg>
