<svg width="393" height="852" viewBox="0 0 393 852" fill="none" xmlns="http://www.w3.org/2000/svg">
<g clip-path="url(#clip0_60_3058)">
<rect width="393" height="852" fill="white"/>
<g opacity="0.4">
<path d="M-11 48.5469V150.167L22.3071 68.9129L-11 48.5469Z" fill="#E0DBD5"/>
<path d="M-11 -21.8945V23.8765L30.4468 49.1766L59.5437 -21.8945H-11Z" fill="#E0DBD5"/>
<path d="M70.2095 -21.8945L-11 176.097V184.495L72.4549 -21.8945H70.2095Z" fill="#E0DBD5"/>
<path d="M144.589 -21.8945C144.776 -20.3198 144.87 -18.8501 144.87 -17.4854C144.87 -14.126 144.496 -11.3966 143.56 -8.98205C141.782 -5.09781 141.689 -4.153 130.836 18.8375C128.965 22.8267 128.31 26.396 128.31 29.8604C128.216 39.0986 133.83 47.4969 137.759 52.116L154.226 15.8981L187.065 -21.8945H144.589Z" fill="#E0DBD5"/>
<path d="M97.5288 -21.895L60.76 69.4371L115.212 101.561L134.298 59.674C129.807 55.0549 121.199 44.452 121.012 29.8599C121.012 25.1358 122.041 20.0968 124.38 15.0578C135.233 -8.03773 135.14 -8.35266 137.011 -12.6568C137.104 -12.7618 137.666 -15.0714 137.572 -17.5909C137.572 -18.9556 137.479 -20.5303 137.198 -22H97.5288V-21.895Z" fill="#E0DBD5"/>
<path d="M324.784 269.107L276.881 215.883L246.381 320.232L360.991 316.978L324.784 269.107Z" fill="#E0DBD5"/>
<path d="M6.12109 205.385L47.1001 225.226L98.1835 109.853L54.7719 84.2383L6.12109 205.385Z" fill="#E0DBD5"/>
<path d="M151.419 429.938C154.787 398.969 158.623 365.585 161.898 336.086L145.151 336.506L137.666 425.633L151.419 429.938Z" fill="#E0DBD5"/>
<path d="M141.034 292.625L145.057 236.251L135.514 219.664L125.503 225.333L-11 317.715V327.373L138.882 323.174L140.473 301.023L111.282 289.16L113.715 281.497L141.034 292.625Z" fill="#E0DBD5"/>
<path d="M3.12746 212.734L-11 248.007V288.004L38.0251 260.08L44.1064 232.575L3.12746 212.734Z" fill="#E0DBD5"/>
<path d="M330.118 263.543L334.515 269.422L356.408 215.567C354.162 214.098 351.823 212.418 349.297 210.633C337.696 202.025 324.504 190.687 318.142 177.565C314.306 169.586 306.354 154.154 297.559 137.253L277.818 150.06L274.356 142.922L294.097 130.219C292.226 126.65 290.355 122.976 288.484 119.406L233.564 156.464L268.93 195.726L292.413 169.376L297.559 175.15L274.169 201.395L286.425 214.938L303.453 196.986L308.412 202.865L291.571 220.606L330.118 263.543Z" fill="#E0DBD5"/>
<path d="M372.125 79.7235L362.863 69.0156L294.658 114.997C296.529 118.671 298.494 122.345 300.365 126.019L372.125 79.7235Z" fill="#E0DBD5"/>
<path d="M267.9 64.1882C270.988 70.0671 279.221 85.6041 288.483 103.451L354.162 59.1492L313.277 12.3284L267.9 64.1882Z" fill="#E0DBD5"/>
<path d="M171.534 251.682L171.627 251.367C171.627 251.367 171.627 251.367 171.721 251.052C171.721 250.737 171.814 250.212 171.908 249.583C172.001 248.323 172.189 246.328 172.189 244.019C172.189 238.14 171.253 229.846 167.604 222.603C166.107 219.558 163.02 213.68 159.09 206.121L142.062 215.884L152.541 234.046L146.273 322.963L163.488 322.438C168.072 281.916 171.534 251.892 171.534 251.892V251.682Z" fill="#E0DBD5"/>
<path d="M304.108 1.83084L289.419 14.9533L250.124 -21.8945H197.169L160.214 20.8321L143.279 57.8899L224.582 146.598L282.308 107.65C273.888 91.5883 266.403 77.4161 262.755 70.3825L223.834 114.684L218.688 109.015L308.224 6.55491L304.108 1.83084Z" fill="#E0DBD5"/>
<path d="M370.909 215.36L386.908 174.838L381.388 173.684L365.764 212.211C366.606 212.736 367.354 213.156 368.103 213.576C369.132 214.311 370.067 214.836 370.909 215.36Z" fill="#E0DBD5"/>
<path d="M402.999 115.312L377.27 85.8125L303.92 133.158C312.714 150.06 320.573 165.492 324.503 173.68C330.584 186.488 347.051 199.715 359.401 208.114L374.464 171.161L347.893 153.419L351.635 146.386L377.551 163.707L392.988 125.81L399.538 129.169L384.568 166.017L389.994 167.172L402.999 134.208V115.312Z" fill="#E0DBD5"/>
<path d="M403.001 154.262L391.867 182.291L403.001 187.855V154.262Z" fill="#E0DBD5"/>
<path d="M368.009 222.813C366.605 221.974 364.828 220.924 362.77 219.664L339.754 276.353L344.432 282.547L368.009 222.813Z" fill="#E0DBD5"/>
<path d="M272.952 452.297L281.372 406.001L262.567 403.586L253.024 439.489V439.594L246.1 437.285V437.075L257.14 394.663H257.327L266.964 358.55L266.403 333.355L265.841 333.25L260.976 333.355L258.544 357.185L249.375 392.039L242.451 389.729L251.433 355.506L253.678 333.46L199.414 334.93L191.742 438.229C211.203 441.904 235.715 446.313 259.105 449.882C263.596 450.617 268.274 451.457 272.952 452.297Z" fill="#E0DBD5"/>
<path d="M192.118 335.246L176.493 335.666C175.651 343.434 174.716 351.623 173.78 359.916C171.067 383.852 168.26 409.257 165.641 433.192C170.599 434.242 177.055 435.502 184.633 436.971L192.118 335.246Z" fill="#E0DBD5"/>
<path d="M119.702 213.469L151.512 191.948C146.74 182.92 141.501 173.052 136.449 163.499C125.689 143.133 115.585 124.236 112.31 118.252L104.638 113.738L53.7422 228.376L75.1673 238.769L119.702 213.469Z" fill="#E0DBD5"/>
<path d="M225.893 540.059L220.186 578.481L267.433 584.255L272.205 556.75L226.454 540.164L225.893 540.059Z" fill="#E0DBD5"/>
<path d="M270.426 594.861L265.842 624.361L282.87 633.599L302.143 586.988L306.54 589.297L287.267 635.908L302.985 644.517L321.416 598.746L325.813 600.95L307.289 646.826L336.011 662.468L338.818 574.705L278.472 549.195L270.426 594.861Z" fill="#E0DBD5"/>
<path d="M218.128 150.903L139.818 65.4492L121.668 105.341L122.697 105.971L123.726 107.966C123.726 108.071 148.426 154.157 165.454 186.491L218.128 150.903Z" fill="#E0DBD5"/>
<path d="M361.086 407.259L383.259 414.818L361.179 406.734L361.086 407.259Z" fill="#E0DBD5"/>
<path d="M326 -17.0664C343.308 3.50955 362.02 22.1959 380.732 41.3022L380.826 41.1972L327.029 -19.5859C326.936 -19.166 326.842 -18.8511 326.748 -18.5361C326.561 -18.0112 326.281 -17.4863 326 -17.0664Z" fill="#E0DBD5"/>
<path d="M165.827 599.27L163.488 656.379L175.745 618.692L213.73 639.688L219.53 606.724L167.137 591.082L165.827 599.27Z" fill="#E0DBD5"/>
<path d="M381.201 346.899L403.001 354.982V329.367L383.073 329.997L364.08 396.764L381.201 346.899Z" fill="#E0DBD5"/>
<path d="M402.999 488.936V464.58L398.321 462.901L402.999 446.734V430.147L358.839 415.03L347.238 455.867L340.315 453.348L340.689 451.983L354.068 404.847H354.161L375.399 330.102L348.361 330.836L320.106 444.844L313.089 442.64L340.782 331.151L302.797 332.201L294.751 386.266L287.641 384.901L295.406 332.411L273.7 333.041L274.262 359.706L264.719 395.714L290.073 399.073L280.156 453.662C326.187 462.796 380.358 479.277 402.999 488.936Z" fill="#E0DBD5"/>
<path d="M146.461 749.705L161.898 757.998V757.893L162.085 757.578C164.424 752.854 167.044 749.18 169.851 746.241L148.893 738.367L146.461 749.705Z" fill="#E0DBD5"/>
<path d="M238.711 320.443L271.082 209.585L227.016 160.77L171.535 198.142C175.465 205.596 178.552 211.58 180.143 214.729C185.475 225.437 186.505 236.46 186.505 244.018C186.505 249.372 185.943 253.047 185.756 254.201C185.663 255.146 185.101 259.555 184.353 266.589L203.813 275.092L200.351 321.388L238.711 320.443Z" fill="#E0DBD5"/>
<path d="M403.001 196.671L388.967 189.742L349.578 289.368L370.348 316.767L390.37 316.138L390.838 298.711L398.323 275.825L403.001 277.715V196.671Z" fill="#E0DBD5"/>
<path d="M46.6328 255.145L66.8416 243.597L50.843 235.934L46.6328 255.145Z" fill="#E0DBD5"/>
<path d="M178.084 322.124L193.147 321.704L196.234 280.552L183.51 274.988C182.107 286.956 180.236 303.333 178.084 322.124Z" fill="#E0DBD5"/>
<path d="M403.001 601.895L343.59 576.805L338.164 747.186L347.146 750.966L370.161 677.06L376.991 679.79L353.976 753.695L363.612 757.684L403.001 624.045V601.895Z" fill="#E0DBD5"/>
<path d="M322.258 786.341L382.604 810.066L393.737 781.617L334.514 757.262L322.258 786.341Z" fill="#E0DBD5"/>
<path d="M403 785.503L400.567 784.453L389.527 812.798L403 818.152V785.503Z" fill="#E0DBD5"/>
<path d="M309.721 816.367L371.657 838.308L380.732 815.108L320.199 791.277L309.721 816.367Z" fill="#E0DBD5"/>
<path d="M384.662 874.107C387.282 865.813 389.434 857.94 390.931 850.906L376.71 845.867L365.67 874.212H384.662V874.107Z" fill="#E0DBD5"/>
<path d="M249.094 777.945L245.352 790.018L305.042 814.583L315.615 789.493L305.51 785.399L300.271 797.681L249.094 777.945Z" fill="#E0DBD5"/>
<path d="M152.635 722.305L160.962 692.701L159.371 692.176L152.635 722.305Z" fill="#E0DBD5"/>
<path d="M301.114 849.12L344.9 874.105H357.624L369.693 843.346L307.664 821.301L296.904 848.281L300.553 850.38L301.114 849.12Z" fill="#E0DBD5"/>
<path d="M281.373 874.105L303.079 819.516L243.762 795.16L224.676 856.154L257.702 874.21H281.373V874.105ZM254.428 807.653L278.566 818.466L270.52 840.197L245.54 826.654L254.428 807.653Z" fill="#E0DBD5"/>
<path d="M213.823 874.103L218.594 858.881L139.817 815.84L135.42 864.13L152.541 874.103H213.823Z" fill="#E0DBD5"/>
<path d="M269.959 676.429L257.983 670.34L241.891 709.497L259.761 716.741L269.959 676.429Z" fill="#E0DBD5"/>
<path d="M176.96 683.254L191.929 633.704L178.457 626.25L164.049 670.341L162.926 669.816L162.645 677.9L161.148 684.304L163.207 684.933L165.078 678.425L176.96 683.254Z" fill="#E0DBD5"/>
<path d="M402.999 823.925L387.562 817.836L378.58 840.826L402.999 849.435V823.925Z" fill="#E0DBD5"/>
<path d="M160.494 766.29L145.244 758.102L140.379 810.171L169.102 825.813L178.177 804.607L182.574 806.917L173.499 828.123L220.279 853.633L239.271 793.165L216.63 783.822L218.314 778.783L240.955 788.126L244.698 776.158L222.243 767.445L206.993 809.227L198.947 840.72L194.269 839.251L201.567 810.591C183.697 807.127 172.938 802.613 166.388 797.679C159.559 792.535 157.407 786.656 157.5 782.247C157.5 779.097 158.436 776.893 158.904 775.948L160.494 766.29Z" fill="#E0DBD5"/>
<path d="M105.201 451.669C74.981 445.58 46.9132 432.773 17.0678 425.529C7.71186 423.22 -1.64407 421.225 -11 419.23V475.814C4.62441 481.693 17.7227 491.981 17.7227 491.981C32.0373 536.912 13.3254 557.593 -11 564.207V648.191L102.675 664.043L102.487 665.722C109.692 647.456 114.089 636.433 114.089 636.433C114.089 636.433 115.399 633.074 117.55 626.67C119.702 620.371 122.696 611.133 125.877 599.9C132.239 577.435 139.35 546.781 142.437 514.132C143.747 500.695 145.712 482.113 147.957 460.907C133.736 457.758 119.515 454.504 105.201 451.669Z" fill="#E0DBD5"/>
<path d="M48.3175 664.566L46.0721 733.958H45.043L72.9236 741.096C83.4023 714.327 92.8518 690.181 100.056 671.915L48.3175 664.566Z" fill="#E0DBD5"/>
<path d="M176.212 532.293L167.885 585.727L227.856 603.574L261.351 621.84L265.748 593.916L266.496 589.612L214.571 583.313L221.12 539.327L204.092 536.702L196.42 576.909L191.649 575.754L199.321 535.862L176.212 532.293Z" fill="#E0DBD5"/>
<path d="M-11 340.915V380.282L130.555 423.533L137.853 336.82L-11 340.915Z" fill="#E0DBD5"/>
<path d="M83.1207 -21.8945L-11 210.74V221.658L86.8631 -21.8945H83.1207Z" fill="#E0DBD5"/>
<path d="M-11 388.68V407.051C4.81153 410.515 20.7166 413.56 36.341 417.864C64.6895 425.632 91.541 437.285 120.357 442.954C129.994 444.844 139.631 446.943 149.267 448.938C149.641 445.369 150.016 441.694 150.483 438.02L-11 388.68Z" fill="#E0DBD5"/>
<path d="M130.182 874.106L130.369 867.282L72.1748 833.479L74.4202 828.65L130.836 861.403L140.567 756.004L88.1734 742.566C83.4019 754.849 78.3497 767.657 73.2039 780.884C62.5382 808.179 51.4982 836.838 41.0195 864.028L56.3633 874.211H130.182V874.106Z" fill="#E0DBD5"/>
<path d="M317.675 784.557L331.802 750.964L321.604 747.395L307.57 780.463L317.675 784.557Z" fill="#E0DBD5"/>
<path d="M259.48 665.09L271.456 671.283L281.093 638.635L265 629.816L259.48 665.09Z" fill="#E0DBD5"/>
<path d="M224.208 608.086L218.221 642.204L254.99 662.675L260.51 627.402L226.173 608.716L224.208 608.086Z" fill="#E0DBD5"/>
<path d="M163.3 777.945L163.02 778.364C163.02 778.364 163.02 778.365 162.926 778.47C162.833 778.679 162.739 778.889 162.646 779.204C162.365 779.939 162.178 780.884 162.178 782.144C162.271 784.768 163.113 788.548 169.008 793.167C174.715 797.471 185.006 802.09 203.063 805.449L207.928 792.222L206.993 794.006L168.353 777.735L171.721 751.805C169.943 753.904 168.166 756.529 166.575 759.678L163.3 777.945Z" fill="#E0DBD5"/>
<path d="M253.68 667.926L217.192 647.77L208.771 696.165L237.307 707.713L253.68 667.926Z" fill="#E0DBD5"/>
<path d="M212.794 645.25L196.234 636.117L181.451 685.143L204.186 694.276L212.794 645.25Z" fill="#E0DBD5"/>
<path d="M334.515 709.812L274.45 678.738L264.252 718.525L277.444 723.879L333.486 742.986L334.515 709.812Z" fill="#E0DBD5"/>
<path d="M335.824 667.296L335.45 668.241L305.511 651.969L295.406 683.673L334.701 703.934L335.824 667.296Z" fill="#E0DBD5"/>
<path d="M275.854 673.489L291.01 681.363L301.208 649.554L285.49 641.051L275.854 673.489Z" fill="#E0DBD5"/>
<path d="M49.9071 800.093C56.7369 782.561 63.4732 765.135 69.9288 748.653L-11 727.867V793.059L22.12 807.967L19.4068 815.525L-11 801.773V811.956L36.341 835.051C39.8963 825.918 43.4515 816.68 47.0068 807.547L9.39593 786.131L12.6705 778.887L49.9071 800.093Z" fill="#E0DBD5"/>
<path d="M189.31 468.883C180.328 467.413 171.346 465.628 162.365 463.844C160.119 484.525 158.248 502.686 156.938 515.809C150.295 584.15 127.56 642.414 127.373 642.834C127.373 642.834 123.444 652.702 116.988 669.184L156.564 682.621L157.78 677.057L160.961 598.532L179.486 478.226L184.257 479.171L176.96 526.831L200.35 530.506L200.443 529.771L206.057 481.06L210.828 481.795L205.215 530.611L205.121 531.346L221.868 533.97L228.698 488.304L233.47 489.144L226.733 534.705L227.575 534.81L273.139 551.292L282.588 497.122L287.36 498.172L279.407 543.628L339.098 568.928L344.992 507.41C324.784 501.636 305.043 494.288 284.834 487.989C253.398 478.331 221.4 474.237 189.31 468.883Z" fill="#E0DBD5"/>
<path d="M403 520.64C392.147 518.33 381.295 516.021 370.442 513.816C363.425 512.452 356.501 510.667 349.672 508.777L343.777 570.61V570.925L403 596.015V520.64Z" fill="#E0DBD5"/>
<path d="M403 649.973L370.441 760.516L397.199 771.539L403 753.482V649.973Z" fill="#E0DBD5"/>
<path d="M403 497.647C402.533 497.437 402.065 497.227 401.597 497.018C377.365 486.415 307.196 465.314 258.171 457.965C222.15 452.506 183.417 444.948 164.798 441.273C164.424 444.948 164.05 448.517 163.582 452.086C180.61 455.656 197.638 459.12 214.759 461.744C243.388 466.049 272.204 470.458 299.992 479.486C330.118 489.249 359.402 499.852 390.37 506.151C394.58 506.991 398.79 507.935 403 508.775V497.647Z" fill="#E0DBD5"/>
<path d="M348.922 -21.8945H348.267L346.021 -17.2754L391.398 34.0595L402.999 26.396V13.4836L388.404 22.4068L348.922 -21.8945Z" fill="#E0DBD5"/>
<path d="M-11 656.379V719.472L38.8671 732.279L41.1125 663.623L-11 656.379Z" fill="#E0DBD5"/>
<path d="M111.094 684.196C105.481 698.578 98.6508 715.9 91.166 735.006L141.875 748.024L154.786 690.705L113.994 676.848C113.059 679.157 112.123 681.572 111.094 684.196Z" fill="#E0DBD5"/>
<path d="M21.3715 874.103C25.301 863.815 29.4176 853.212 33.5342 842.504L11.922 831.901L1.72407 859.931L-5.0122 856.886L5.09221 828.752L-11 820.773V859.931L8.0861 874.103H21.3715Z" fill="#E0DBD5"/>
<path d="M250.125 -21.8945L289.42 14.9533L304.109 1.83083L283.339 -21.8945H250.125Z" fill="#DCD8BA"/>
<path d="M348.922 -21.8945L388.404 22.4068L402.999 13.4836V-19.0601L401.128 -21.8945H348.922Z" fill="#CCC2B8"/>
<path d="M264.064 719.363L277.443 723.877L264.252 718.523L264.064 719.363Z" fill="#CCC2B8"/>
<path d="M148.986 738.365L169.944 746.239C176.68 739.31 184.539 737.001 191.369 737.106C201.847 737.106 210.361 741.935 211.858 742.774L250.124 757.891L257.609 725.663L160.962 692.699L152.542 722.198L148.986 738.365Z" fill="#CCC2B8"/>
<path d="M249.096 777.943L300.273 797.679L305.512 785.396L253.212 764.82L249.096 777.943Z" fill="#CCC2B8"/>
<path d="M237.306 707.712L208.77 696.164L208.021 700.258L236.37 709.916L237.306 707.712Z" fill="#CCC2B8"/>
<path d="M307.57 780.463L321.604 747.394L262.287 727.238L254.709 759.677L307.57 780.463Z" fill="#CCC2B8"/>
<path d="M259.761 716.74L241.891 709.496L241.049 711.491L259.48 717.789L259.761 716.74Z" fill="#CCC2B8"/>
<path d="M176.96 683.251L165.078 678.422L163.207 684.931L175.183 689.025L176.96 683.251Z" fill="#CCC2B8"/>
<path d="M248.721 763.038L226.735 754.324L226.828 754.429L222.057 767.552L244.511 776.16L248.721 763.038Z" fill="#CCC2B8"/>
<path d="M206.9 794.111L207.836 792.326L222.337 752.644L209.987 747.815L209.8 747.605C209.8 747.605 207.742 746.345 204.374 745.085C201.006 743.721 196.328 742.461 191.369 742.461C184.82 742.566 177.803 744.561 171.722 751.909L168.354 777.839L206.9 794.111Z" fill="#CCC2B8"/>
<path d="M204.187 694.274L181.452 685.141L179.861 690.6L203.438 698.683L204.187 694.274Z" fill="#CCC2B8"/>
<path d="M278.565 818.465L254.427 807.652L245.539 826.549L270.519 840.091L278.565 818.465Z" fill="#CCC2B8"/>
<path d="M344.9 874.106L301.114 849.121L300.553 850.381L342.654 874.106H344.9Z" fill="#CCC2B8"/>
<path d="M403.001 354.982L381.201 346.898L364.08 396.764L361.18 406.737L383.26 414.82L403.001 421.644V354.982Z" fill="#B4CD9B"/>
<path d="M17.7227 491.874C17.7227 491.874 4.53085 481.586 -11 475.707V564.1C13.3254 557.591 32.0373 536.91 17.7227 491.874Z" fill="#B4CD9B"/>
<path d="M120.451 443.059C91.541 437.39 64.783 425.633 36.4345 417.969C20.7166 413.665 4.90503 410.621 -10.9065 407.156V419.229C-1.55056 421.224 7.80537 423.218 17.1613 425.528C47.0067 432.876 75.0745 445.579 105.294 451.668C119.609 454.607 133.83 457.756 148.144 460.906C148.519 457.021 148.986 453.137 149.454 449.043C139.63 446.943 130.087 444.949 120.451 443.059Z" fill="#8BBBB9"/>
<path d="M403 66.6034L389.434 51.0664L373.436 61.8793L403 95.8926V66.6034Z" fill="#8095B2"/>
<path d="M326 -17.0655C326.375 -17.4854 326.655 -18.0103 326.749 -18.4302C326.842 -18.8501 326.936 -19.1651 327.029 -19.48L324.971 -21.8945H300.271L364.734 52.011L380.639 41.3031C361.927 22.3018 343.215 3.51051 326 -17.0655Z" fill="#8BBBB9"/>
<path d="M403 508.88C398.789 508.041 394.579 507.096 390.369 506.256C359.401 499.957 330.21 489.354 299.991 479.591C272.204 470.563 243.387 466.154 214.758 461.85C197.543 459.225 180.516 455.866 163.581 452.191C163.114 456.181 162.739 460.17 162.271 463.949C171.253 465.839 180.235 467.518 189.217 468.988C221.307 474.237 253.398 478.436 284.741 488.199C304.949 494.498 324.69 501.742 344.899 507.621L344.993 507.096L349.764 507.621L349.671 508.985C356.501 510.875 363.424 512.555 370.441 514.024C381.294 516.229 392.147 518.538 403 520.848V508.88Z" fill="#8BBBB9"/>
<path d="M72.4549 -21.8945L-11 184.495V210.74L83.1207 -21.8945H72.4549Z" fill="white"/>
<path d="M22.12 807.865L-11 793.062V801.776L19.4068 815.423L22.12 807.865Z" fill="white"/>
<path d="M346.022 -17.2754L348.268 -21.8945H324.972L327.03 -19.585L380.733 41.1981L380.639 41.3031L364.734 52.011L300.272 -21.8945H283.338L304.108 1.83084L308.224 6.55491L218.688 109.015L223.834 114.684L262.755 70.3825C266.403 77.3111 273.888 91.5883 282.308 107.65L224.582 146.598L143.279 57.8899L160.214 20.8321L197.169 -21.8945H187.065L154.226 16.0031L137.759 52.221C133.83 47.6019 128.123 39.2035 128.31 29.9653C128.31 26.501 128.965 22.9317 130.836 18.9425C141.689 -4.04801 141.782 -4.99283 143.56 -8.87707C144.589 -11.2916 144.87 -14.0211 144.87 -17.3804C144.87 -18.8501 144.776 -20.3198 144.589 -21.7896H137.292C137.572 -20.3198 137.666 -18.7451 137.666 -17.3804C137.666 -14.9659 137.198 -12.6563 137.104 -12.4464C135.233 -8.2472 135.327 -7.82728 124.474 15.2682C122.041 20.3072 121.106 25.3462 121.106 30.0703C121.293 44.6625 129.9 55.2654 134.391 59.8845L115.305 101.771L60.76 69.4376L97.5288 -21.8945H86.9566L-11 221.658V248.008L3.12746 212.735L44.1064 232.576L38.0251 259.975L-11 288.005V317.609L125.503 225.227L135.42 219.558L144.963 236.145L141.034 292.519L113.715 281.496L111.282 289.16L140.473 301.022L138.882 323.173L-11 327.372V340.915L137.853 336.715L130.555 423.429L-11 380.282V388.68L150.483 438.021C150.109 441.695 149.641 445.369 149.267 448.939C148.799 452.928 148.425 456.917 147.957 460.801C145.712 481.902 143.747 500.588 142.437 514.026C139.256 546.674 132.146 577.433 125.877 599.794C122.696 611.027 119.702 620.16 117.551 626.564C115.399 632.863 114.089 636.327 114.089 636.327C114.089 636.327 109.692 647.455 102.487 665.616L102.675 663.937L-11 648.19V656.378L41.1125 663.622L38.9607 732.278L-11 719.471V727.764L70.0224 748.655C63.5668 765.137 56.8305 782.563 50.0007 800.095L12.7641 778.994L9.48949 786.238L47.0068 807.549C43.4515 816.682 39.8963 825.92 36.341 835.053L-11 811.958V820.776L5.18576 828.649L-4.91864 856.889L1.81763 859.933L11.922 832.009L33.5342 842.612C29.4176 853.32 25.301 863.922 21.3715 874.211H37.1831C37.5573 873.371 37.838 872.426 38.2122 871.586L42.2353 874.211H56.3627L41.019 864.028C51.4976 836.838 62.6312 808.178 73.2034 780.884C78.3492 767.656 83.4014 754.849 88.1729 742.566L140.566 756.004L130.836 861.508L74.4197 828.754L72.1742 833.583L130.368 867.387L130.181 874.211H135.046L135.14 870.221L142.063 874.211H152.542L135.327 864.237L139.818 815.947L218.595 858.883L213.823 874.106H218.969L222.992 861.193L246.569 874.106H257.609L224.582 856.049L243.668 795.056L302.985 819.411L281.279 874.001H286.612L294.939 853.11L298.494 855.104L331.801 873.896H342.654L300.553 850.38L296.904 848.281L307.663 821.301L369.693 843.347L357.624 874.106H365.576L376.616 845.761L390.837 850.8C389.34 857.939 387.188 865.812 384.569 874.001H392.241C394.486 866.757 396.357 859.723 397.761 853.215L403 855.104V849.435L378.581 840.722L387.563 817.732L403 823.82V818.046L389.527 812.693L400.567 784.348L403 785.398V753.379L397.199 771.436L370.348 760.413L403 649.974V624.044L363.612 757.683L353.975 753.694L376.991 679.789L370.161 677.164L347.239 750.965L338.257 747.29L343.683 576.804L403.094 601.999V596.225L343.871 571.135V570.82L349.765 508.987L349.858 507.622L345.087 507.097L344.993 507.622L339.099 569.14L279.408 543.84L287.361 498.384L282.589 497.334L273.14 551.504L227.576 534.917L226.734 534.812L233.471 489.251L228.699 488.411L221.869 534.077L205.122 531.347L205.216 530.718L210.829 481.902L206.058 481.167L200.444 529.878L200.351 530.613L176.961 526.938L184.258 479.278L179.487 478.333L160.962 598.639L157.781 677.164L156.565 682.728L116.989 669.291C123.445 652.914 127.374 642.941 127.374 642.941C127.561 642.521 150.296 584.152 156.939 515.915C158.249 502.793 160.12 484.632 162.365 463.951C162.74 460.066 163.207 456.182 163.675 452.193C164.049 448.624 164.424 445.054 164.892 441.38C183.51 445.159 222.337 452.718 258.264 458.072C307.289 465.42 377.458 486.521 401.69 497.124C402.158 497.334 402.626 497.544 403.094 497.754V489.041C380.452 479.383 326.281 462.901 280.25 453.768L290.261 399.073L264.906 395.714L274.449 359.706L273.888 333.041L295.594 332.411L287.828 384.901L294.939 386.266L302.985 332.201L340.97 331.152L313.277 442.745L320.294 444.949L348.548 330.942L375.587 330.207L354.349 404.952H354.256L340.877 452.088L340.502 453.453L347.426 455.972L359.027 415.135L403.187 430.252V421.749L383.446 415.03L361.273 407.472L361.46 406.947L364.266 396.974L383.259 330.102L403.187 329.577V316.034L397.854 316.139L398.322 300.498L399.819 295.878L403.187 296.613V288.32L402.252 288.11L403.187 285.38V277.927L398.509 276.037L391.024 299.028L390.37 316.139L370.348 316.664L349.671 289.265L389.06 189.639L403.094 196.568V187.645L392.054 182.186L403.094 154.156V134.105L390.089 167.069L384.662 165.914L399.632 129.066L393.083 125.707L377.645 163.604L351.73 146.283L347.987 153.316L374.558 171.058L359.495 208.116C347.145 199.717 330.679 186.385 324.597 173.682C320.668 165.599 312.715 150.062 304.014 133.16L377.365 85.8144L403 115.314V95.8925L373.435 61.8791L389.434 51.0662L402.906 66.4982V47.182L400.1 43.9276L402.906 42.038V26.396L391.305 34.0595L346.022 -17.2754ZM72.9227 740.992L45.042 733.853H46.0712L48.3166 664.566L100.055 671.81C92.8508 690.181 83.4014 714.222 72.9227 740.992ZM240.768 788.127L218.127 778.784L216.443 783.823L239.084 793.166L220.092 853.635L173.312 828.125L182.387 806.919L177.99 804.609L168.915 825.815L140.192 810.173L145.057 758.103L160.307 766.292L158.623 775.95C158.155 776.895 157.22 779.204 157.22 782.248C157.126 786.658 159.278 792.641 166.108 797.68C172.657 802.615 183.323 807.234 201.286 810.593L193.988 839.252L198.666 840.722L206.713 809.228L221.963 767.446L226.734 754.324L226.547 754.219L248.534 762.932L244.417 776.055L240.768 788.127ZM162.178 782.248C162.178 780.989 162.459 780.044 162.646 779.309C162.74 778.994 162.833 778.679 162.927 778.574C163.02 778.469 163.02 778.469 163.02 778.469L163.301 778.049L166.576 759.888C168.166 756.738 169.944 754.114 171.721 752.014C177.803 744.666 184.82 742.671 191.369 742.566C196.327 742.566 201.005 743.826 204.374 745.191C207.742 746.45 209.8 747.815 209.8 747.71L209.987 747.815L222.337 752.644L207.835 792.326L202.97 805.554C185.007 802.195 174.622 797.576 168.915 793.271C163.114 788.757 162.178 784.873 162.178 782.248ZM305.043 814.582L245.353 790.017L249.095 777.944L253.212 764.822L305.418 785.398L315.616 789.387L305.043 814.582ZM208.771 696.165L217.191 647.77L253.586 668.031L237.306 707.713L236.371 709.918L208.022 700.26L208.771 696.165ZM204.186 694.276L203.438 698.685L179.861 690.601L181.545 685.037L196.327 636.012L212.794 645.145L204.186 694.276ZM295.407 683.673L305.511 651.969L335.45 668.241L335.824 667.296L334.702 703.829L295.407 683.673ZM334.515 709.813L333.485 742.986L277.537 723.88L264.158 719.366L264.345 718.631L274.449 678.844L334.515 709.813ZM291.009 681.363L275.853 673.49L285.49 640.946L301.114 649.449L291.009 681.363ZM271.456 671.285L259.574 665.091L265.094 629.818L281.186 638.637L271.456 671.285ZM254.989 662.677L218.22 642.206L224.208 608.087L226.266 608.717L260.603 627.404L254.989 662.677ZM241.891 709.498L257.983 670.235L269.959 676.429L259.667 716.636L259.386 717.686L240.955 711.387L241.891 709.498ZM262.287 727.239L321.603 747.5L331.801 750.965L317.674 784.558L307.569 780.569L254.708 759.678L262.287 727.239ZM371.658 838.308L309.721 816.262L320.294 791.172L380.733 815.002L371.658 838.308ZM393.738 781.619L382.604 810.068L322.258 786.238L334.421 757.158L393.738 781.619ZM278.473 549.194L338.818 574.704L336.012 662.467L307.289 646.825L325.814 600.949L321.416 598.744L302.985 644.515L287.267 635.907L306.54 589.191L302.143 586.882L282.87 633.492L265.842 624.254L270.426 594.86L278.473 549.194ZM225.892 540.061L226.547 540.166L272.298 556.753L267.433 584.362L220.185 578.588L225.892 540.061ZM176.212 532.292L199.415 535.967L191.743 575.859L196.421 577.014L204.186 536.701L221.121 539.431L214.572 583.417L266.497 589.821L265.748 594.125L261.351 622.05L227.857 603.783L167.885 585.832L176.212 532.292ZM165.827 599.269L167.137 591.081L219.53 606.723L213.729 639.686L175.838 618.585L163.582 656.273L165.827 599.269ZM162.646 677.899L163.02 669.815L164.143 670.235L178.551 626.144L191.93 633.598L176.961 683.148L175.183 688.922L163.207 684.828L161.149 684.093L162.646 677.899ZM159.372 692.176L160.962 692.701L257.609 725.664L250.124 757.893L211.858 742.776C210.361 741.936 201.847 737.107 191.369 737.107C184.445 737.002 176.68 739.312 169.944 746.24C167.137 749.18 164.424 752.854 162.178 757.578L161.991 757.893V757.998L146.554 749.705L149.08 738.367L152.729 722.305L159.372 692.176ZM154.787 690.601L141.876 747.92L91.1668 735.008C98.6515 715.901 105.481 698.58 111.095 684.198C112.124 681.573 113.06 679.159 113.995 676.744L154.787 690.601ZM267.9 64.1887L313.277 12.3288L354.162 59.1496L288.483 103.451C279.127 85.6045 270.988 70.0675 267.9 64.1887ZM227.015 160.665L271.081 209.48L238.71 320.339L200.444 321.388L203.906 275.092L184.445 266.589C185.287 259.556 185.755 255.146 185.849 254.202C186.036 253.047 186.597 249.268 186.597 244.019C186.597 236.355 185.568 225.437 180.235 214.729C178.645 211.58 175.557 205.596 171.628 198.143L227.015 160.665ZM196.234 280.551L193.146 321.703L178.083 322.123C180.235 303.332 182.106 286.955 183.51 274.987L196.234 280.551ZM139.818 65.4484L218.127 150.902L165.453 186.49C148.425 154.156 123.725 107.965 123.725 107.965L122.696 105.971L121.667 105.341L139.818 65.4484ZM6.12136 205.386L54.7722 84.3447L98.1837 109.96L47.1003 225.227L6.12136 205.386ZM46.6325 255.146L50.9363 235.83L66.8414 243.599L46.6325 255.146ZM119.702 213.47L75.1681 238.875L53.743 228.482L104.639 113.739L112.311 118.253C115.492 124.237 125.597 143.133 136.45 163.499C141.502 173.052 146.741 182.92 151.513 191.949L119.702 213.47ZM151.419 429.937L137.666 425.738L145.151 336.61L161.898 336.191C158.529 365.585 154.787 398.968 151.419 429.937ZM163.395 322.543L146.18 323.068L152.448 234.15L141.969 215.989L158.997 206.226C162.927 213.679 166.014 219.663 167.511 222.708C171.16 230.056 172.096 238.245 172.096 244.124C172.096 246.433 172.002 248.428 171.815 249.687C171.721 250.317 171.721 250.842 171.628 251.157C171.628 251.472 171.534 251.472 171.534 251.472L171.441 251.787V252.102C171.534 251.997 167.979 282.021 163.395 322.543ZM165.64 433.192C168.26 409.256 171.066 383.851 173.78 359.916C174.715 351.623 175.651 343.539 176.493 335.666L192.117 335.246L184.539 436.971C177.054 435.501 170.599 434.241 165.64 433.192ZM257.422 394.664H257.235L246.195 437.076V437.286L253.118 439.595V439.49L262.661 403.587L281.466 406.002L273.046 452.298C268.275 451.458 263.597 450.618 259.199 449.988C235.903 446.524 211.297 442.01 191.837 438.336L199.508 335.036L253.773 333.566L251.527 355.612L242.546 389.835L249.469 392.145L258.638 357.291L261.07 333.461L265.936 333.356L266.497 333.461L267.058 358.656L257.422 394.664ZM360.992 316.979L246.382 320.234L276.788 215.989L324.784 269.214L360.992 316.979ZM381.481 173.577L387.001 174.732L370.909 215.359C370.067 214.834 369.132 214.309 368.009 213.679C367.26 213.26 366.512 212.735 365.67 212.315L381.481 173.577ZM362.77 219.558C364.828 220.818 366.605 221.973 368.009 222.708L344.432 282.336L339.754 276.142L362.77 219.558ZM318.235 177.462C324.597 190.479 337.789 201.922 349.391 210.53C351.823 212.315 354.256 213.994 356.501 215.464L334.608 269.319L330.211 263.44L291.384 220.608L308.224 202.867L303.266 196.988L286.238 214.939L273.982 201.397L297.372 175.152L292.226 169.378L268.742 195.728L233.377 156.466L288.296 119.408C290.167 122.977 292.039 126.651 293.91 130.221L274.356 142.923L278.005 149.957L297.746 137.149C306.447 154.051 314.399 169.483 318.235 177.462ZM300.365 126.127C298.494 122.452 296.53 118.778 294.658 115.104L362.863 69.1227L372.125 79.8306L300.365 126.127Z" fill="white"/>
<path d="M59.5437 -21.8945L30.4468 49.1766L-11 23.8765V48.5467L22.3071 68.9127L-11 150.167V176.097L70.2095 -21.8945H59.5437Z" fill="white"/>
</g>
<path opacity="0.35" d="M354.834 22.6693C354.834 21.4727 355.804 20.5027 357.001 20.5027H373.667C374.864 20.5027 375.834 21.4727 375.834 22.6694V28.6694C375.834 29.866 374.864 30.836 373.667 30.836H357.001C355.804 30.836 354.834 29.866 354.834 28.6694V22.6693Z" stroke="#414141"/>
<path opacity="0.4" d="M377.334 23.6694V27.6694C378.139 27.3307 378.662 26.5426 378.662 25.6694C378.662 24.7963 378.139 24.0082 377.334 23.6694Z" fill="#414141"/>
<path d="M356.334 23.336C356.334 22.5996 356.931 22.0027 357.667 22.0027H373.001C373.737 22.0027 374.334 22.5996 374.334 23.336V28.0027C374.334 28.7391 373.737 29.336 373.001 29.336H357.667C356.931 29.336 356.334 28.7391 356.334 28.0027V23.336Z" fill="#414141"/>
<path fill-rule="evenodd" clip-rule="evenodd" d="M341.664 22.2773C343.88 22.2774 346.011 23.1289 347.617 24.6557C347.738 24.7735 347.931 24.772 348.05 24.6523L349.206 23.4857C349.267 23.4249 349.3 23.3427 349.3 23.2571C349.299 23.1715 349.265 23.0897 349.204 23.0297C344.989 18.9901 338.339 18.9901 334.124 23.0297C334.063 23.0896 334.028 23.1715 334.027 23.257C334.027 23.3426 334.06 23.4249 334.121 23.4857L335.277 24.6523C335.396 24.7722 335.589 24.7737 335.71 24.6557C337.316 23.1288 339.448 22.2773 341.664 22.2773ZM341.665 26.073C342.882 26.0729 344.056 26.5255 344.959 27.3427C345.081 27.4587 345.273 27.4562 345.392 27.337L346.547 26.1704C346.608 26.1092 346.641 26.0261 346.64 25.9399C346.64 25.8536 346.604 25.7713 346.542 25.7114C343.794 23.155 339.538 23.155 336.79 25.7114C336.728 25.7713 336.692 25.8537 336.691 25.9399C336.691 26.0262 336.724 26.1092 336.785 26.1704L337.94 27.337C338.059 27.4562 338.251 27.4587 338.373 27.3427C339.275 26.526 340.448 26.0735 341.665 26.073ZM343.978 28.6268C343.98 28.7133 343.946 28.7967 343.884 28.8573L341.886 30.873C341.828 30.9323 341.748 30.9656 341.665 30.9656C341.582 30.9656 341.502 30.9323 341.443 30.873L339.445 28.8573C339.384 28.7967 339.35 28.7133 339.352 28.6268C339.353 28.5403 339.391 28.4583 339.455 28.4003C340.731 27.3215 342.599 27.3215 343.874 28.4003C343.939 28.4584 343.976 28.5403 343.978 28.6268Z" fill="#414141"/>
<path fill-rule="evenodd" clip-rule="evenodd" d="M328 20.3359H327C326.448 20.3359 326 20.7837 326 21.3359V30.0026C326 30.5549 326.448 31.0026 327 31.0026H328C328.552 31.0026 329 30.5549 329 30.0026V21.3359C329 20.7837 328.552 20.3359 328 20.3359ZM322.334 22.6693H323.334C323.886 22.6693 324.334 23.117 324.334 23.6693V30.0026C324.334 30.5549 323.886 31.0026 323.334 31.0026H322.334C321.782 31.0026 321.334 30.5549 321.334 30.0026V23.6693C321.334 23.117 321.782 22.6693 322.334 22.6693ZM318.666 25.0026H317.666C317.114 25.0026 316.666 25.4503 316.666 26.0026V30.0026C316.666 30.5548 317.114 31.0026 317.666 31.0026H318.666C319.218 31.0026 319.666 30.5548 319.666 30.0026V26.0026C319.666 25.4503 319.218 25.0026 318.666 25.0026ZM314 27.0026H313C312.448 27.0026 312 27.4503 312 28.0026V30.0026C312 30.5549 312.448 31.0026 313 31.0026H314C314.552 31.0026 315 30.5549 315 30.0026V28.0026C315 27.4503 314.552 27.0026 314 27.0026Z" fill="#414141"/>
<path d="M19.3203 32.2563C22.0083 32.2563 23.605 30.1543 23.605 26.5947C23.605 25.2544 23.3486 24.1265 22.8579 23.2549C22.1475 21.8999 20.9243 21.1675 19.3789 21.1675C17.0791 21.1675 15.4531 22.7129 15.4531 24.8809C15.4531 26.917 16.918 28.3965 18.9321 28.3965C20.1699 28.3965 21.1733 27.8179 21.6714 26.8145H21.6934C21.6934 26.8145 21.7227 26.8145 21.73 26.8145C21.7446 26.8145 21.7959 26.8145 21.7959 26.8145C21.7959 29.2314 20.8804 30.6743 19.335 30.6743C18.4268 30.6743 17.7236 30.1763 17.4819 29.3779H15.5996C15.9146 31.1138 17.3867 32.2563 19.3203 32.2563ZM19.3862 26.895C18.1704 26.895 17.3062 26.0308 17.3062 24.8223C17.3062 23.6431 18.2144 22.7422 19.3936 22.7422C20.5728 22.7422 21.481 23.6577 21.481 24.8516C21.481 26.0308 20.5947 26.895 19.3862 26.895Z" fill="#414141"/>
<path d="M26.6961 32.1538C27.3919 32.1538 27.868 31.6558 27.868 30.9966C27.868 30.3301 27.3919 29.8394 26.6961 29.8394C26.0076 29.8394 25.5242 30.3301 25.5242 30.9966C25.5242 31.6558 26.0076 32.1538 26.6961 32.1538ZM26.6961 26.6606C27.3919 26.6606 27.868 26.1699 27.868 25.5107C27.868 24.8442 27.3919 24.3535 26.6961 24.3535C26.0076 24.3535 25.5242 24.8442 25.5242 25.5107C25.5242 26.1699 26.0076 26.6606 26.6961 26.6606Z" fill="#414141"/>
<path d="M34.7237 32H36.5328V30.0298H37.961V28.4331H36.5328V21.4312H33.8668C31.9991 24.2437 30.5123 26.5947 29.5602 28.3452V30.0298H34.7237V32ZM31.3106 28.3672C32.5411 26.1992 33.6397 24.4634 34.6505 22.9692H34.753V28.4771H31.3106V28.3672Z" fill="#414141"/>
<path d="M41.9896 32H43.8793V21.4312H41.997L39.2357 23.3647V25.1812L41.8651 23.3354H41.9896V32Z" fill="#414141"/>
<rect x="15" y="60" width="34" height="34" rx="4" fill="#8AD4B5"/>
<path d="M24.8 71.6001H39.2" stroke="#414141" stroke-width="2" stroke-linecap="round" stroke-linejoin="round"/>
<path d="M24.8 77H39.2" stroke="#414141" stroke-width="2" stroke-linecap="round" stroke-linejoin="round"/>
<path d="M24.8 82.4001H39.2" stroke="#414141" stroke-width="2" stroke-linecap="round" stroke-linejoin="round"/>
<path d="M0 810.877C0 787.998 17.9086 769.451 40 769.451H353C375.091 769.451 393 787.998 393 810.877V852H0V810.877Z" fill="white"/>
<path d="M192.71 713.11C195.185 711.63 198.235 711.63 200.71 713.11L234.894 733.55C237.369 735.03 238.894 737.765 238.894 740.725V781.605C238.894 784.565 237.369 787.3 234.894 788.78L200.71 809.22C198.235 810.7 195.185 810.7 192.71 809.22L158.526 788.78C156.051 787.3 154.526 784.565 154.526 781.605V740.725C154.526 737.765 156.051 735.03 158.526 733.55L192.71 713.11Z" fill="#08B783"/>
<path d="M182 750.762V768.762C182 770.419 183.343 771.762 185 771.762H207C208.657 771.762 210 770.419 210 768.762V754.762C210 753.106 208.657 751.762 207 751.762H206V750.762C206 749.106 204.657 747.762 203 747.762H185C183.343 747.762 182 749.106 182 750.762Z" fill="#C2CCDE" fill-opacity="0.25"/>
<path d="M202 761.262C202 760.158 202.895 759.262 204 759.262C205.105 759.262 206 760.158 206 761.262C206 762.367 205.105 763.262 204 763.262C202.895 763.262 202 762.367 202 761.262Z" fill="#C2CCDE" fill-opacity="0.25"/>
<path d="M206 751.762V750.762C206 749.106 204.657 747.762 203 747.762H185C183.343 747.762 182 749.106 182 750.762V768.762C182 770.419 183.343 771.762 185 771.762H207C208.657 771.762 210 770.419 210 768.762V754.762C210 753.106 208.657 751.762 207 751.762H206ZM206 751.762H187.25M204 763.262C202.895 763.262 202 762.367 202 761.262C202 760.158 202.895 759.262 204 759.262C205.105 759.262 206 760.158 206 761.262C206 762.367 205.105 763.262 204 763.262Z" stroke="white" stroke-linecap="round" stroke-linejoin="round"/>
<path fill-rule="evenodd" clip-rule="evenodd" d="M38 798.162L44 802.962H43C43.5523 802.962 44 803.41 44 803.962V810.362C44 810.915 43.5523 811.362 43 811.362H33C32.4477 811.362 32 810.915 32 810.362L32 803.962C32 803.41 32.4477 802.962 33 802.962H32L38 798.162ZM39.8 807.762V804.162H36.2V807.762H39.8Z" fill="#08B783"/>
<path d="M46.25 804.762L45.35 804.042L38 798.162L30.65 804.042L29.75 804.762" stroke="#08B783" stroke-width="3" stroke-linecap="round" stroke-linejoin="round"/>
<path fill-rule="evenodd" clip-rule="evenodd" d="M42.8751 802.062H44.6001V798.462H38.6001V798.642L42.8751 802.062Z" fill="#08B783"/>
<path d="M44.6001 802.062V803.062C45.1524 803.062 45.6001 802.615 45.6001 802.062H44.6001ZM42.8751 802.062L42.2504 802.843C42.4277 802.985 42.648 803.062 42.8751 803.062V802.062ZM44.6001 798.462H45.6001C45.6001 797.91 45.1524 797.462 44.6001 797.462V798.462ZM38.6001 798.462V797.462C38.0478 797.462 37.6001 797.91 37.6001 798.462H38.6001ZM38.6001 798.642H37.6001C37.6001 798.946 37.7382 799.233 37.9754 799.423L38.6001 798.642ZM44.6001 801.062H42.8751V803.062H44.6001V801.062ZM43.6001 798.462V802.062H45.6001V798.462H43.6001ZM38.6001 799.462H44.6001V797.462H38.6001V799.462ZM39.6001 798.642V798.462H37.6001V798.642H39.6001ZM37.9754 799.423L42.2504 802.843L43.4998 801.282L39.2248 797.862L37.9754 799.423Z" fill="#08B783"/>
<path d="M27.56 821.422V829.762H26.192V826.114H22.268V829.762H20.9V821.422H22.268V824.998H26.192V821.422H27.56ZM32.2289 829.87C31.6049 829.87 31.0409 829.73 30.5369 829.45C30.0329 829.162 29.6369 828.762 29.3489 828.25C29.0609 827.73 28.9169 827.13 28.9169 826.45C28.9169 825.778 29.0649 825.182 29.3609 824.662C29.6569 824.142 30.0609 823.742 30.5729 823.462C31.0849 823.182 31.6569 823.042 32.2889 823.042C32.9209 823.042 33.4929 823.182 34.0049 823.462C34.5169 823.742 34.9209 824.142 35.2169 824.662C35.5129 825.182 35.6609 825.778 35.6609 826.45C35.6609 827.122 35.5089 827.718 35.2049 828.238C34.9009 828.758 34.4849 829.162 33.9569 829.45C33.4369 829.73 32.8609 829.87 32.2289 829.87ZM32.2289 828.682C32.5809 828.682 32.9089 828.598 33.2129 828.43C33.5249 828.262 33.7769 828.01 33.9689 827.674C34.1609 827.338 34.2569 826.93 34.2569 826.45C34.2569 825.97 34.1649 825.566 33.9809 825.238C33.7969 824.902 33.5529 824.65 33.2489 824.482C32.9449 824.314 32.6169 824.23 32.2649 824.23C31.9129 824.23 31.5849 824.314 31.2809 824.482C30.9849 824.65 30.7489 824.902 30.5729 825.238C30.3969 825.566 30.3089 825.97 30.3089 826.45C30.3089 827.162 30.4889 827.714 30.8489 828.106C31.2169 828.49 31.6769 828.682 32.2289 828.682ZM45.0173 823.042C45.5373 823.042 46.0013 823.15 46.4093 823.366C46.8253 823.582 47.1493 823.902 47.3813 824.326C47.6213 824.75 47.7413 825.262 47.7413 825.862V829.762H46.3853V826.066C46.3853 825.474 46.2373 825.022 45.9413 824.71C45.6453 824.39 45.2413 824.23 44.7293 824.23C44.2173 824.23 43.8093 824.39 43.5053 824.71C43.2093 825.022 43.0613 825.474 43.0613 826.066V829.762H41.7053V826.066C41.7053 825.474 41.5573 825.022 41.2613 824.71C40.9653 824.39 40.5613 824.23 40.0493 824.23C39.5373 824.23 39.1293 824.39 38.8253 824.71C38.5293 825.022 38.3813 825.474 38.3813 826.066V829.762H37.0133V823.15H38.3813V823.906C38.6053 823.634 38.8893 823.422 39.2333 823.27C39.5773 823.118 39.9453 823.042 40.3373 823.042C40.8653 823.042 41.3373 823.154 41.7533 823.378C42.1693 823.602 42.4893 823.926 42.7133 824.35C42.9133 823.95 43.2253 823.634 43.6493 823.402C44.0733 823.162 44.5293 823.042 45.0173 823.042ZM55.542 826.294C55.542 826.542 55.526 826.766 55.494 826.966H50.442C50.482 827.494 50.678 827.918 51.03 828.238C51.382 828.558 51.814 828.718 52.326 828.718C53.062 828.718 53.582 828.41 53.886 827.794H55.362C55.162 828.402 54.798 828.902 54.27 829.294C53.75 829.678 53.102 829.87 52.326 829.87C51.694 829.87 51.126 829.73 50.622 829.45C50.126 829.162 49.734 828.762 49.446 828.25C49.166 827.73 49.026 827.13 49.026 826.45C49.026 825.77 49.162 825.174 49.434 824.662C49.714 824.142 50.102 823.742 50.598 823.462C51.102 823.182 51.678 823.042 52.326 823.042C52.95 823.042 53.506 823.178 53.994 823.45C54.482 823.722 54.862 824.106 55.134 824.602C55.406 825.09 55.542 825.654 55.542 826.294ZM54.114 825.862C54.106 825.358 53.926 824.954 53.574 824.65C53.222 824.346 52.786 824.194 52.266 824.194C51.794 824.194 51.39 824.346 51.054 824.65C50.718 824.946 50.518 825.35 50.454 825.862H54.114Z" fill="#08B783"/>
<path d="M288.028 798.476C289.103 797.972 290.423 798.164 291.31 799.052C292.198 799.94 292.39 801.26 291.886 802.334C293.002 802.738 293.8 803.807 293.8 805.063C293.8 806.318 293.002 807.387 291.886 807.791C292.39 808.865 292.198 810.185 291.31 811.073C290.423 811.961 289.103 812.153 288.028 811.649C287.625 812.765 286.555 813.562 285.3 813.562C284.045 813.562 282.976 812.765 282.572 811.649C281.497 812.153 280.177 811.961 279.29 811.073C278.402 810.185 278.21 808.865 278.714 807.791C277.598 807.387 276.8 806.318 276.8 805.063C276.8 803.807 277.598 802.738 278.714 802.334C278.21 801.26 278.402 799.94 279.29 799.052C280.177 798.164 281.497 797.972 282.572 798.476C282.976 797.36 284.045 796.562 285.3 796.562C286.555 796.562 287.625 797.36 288.028 798.476Z" fill="#C2CCDE" fill-opacity="0.25"/>
<path d="M282.155 803.712C281.743 803.3 281.743 802.631 282.155 802.218C282.568 801.805 283.237 801.805 283.65 802.218C284.063 802.631 284.063 803.3 283.65 803.712C283.237 804.125 282.568 804.125 282.155 803.712Z" fill="#C2CCDE" fill-opacity="0.25"/>
<path d="M286.34 807.897C285.928 807.485 285.928 806.815 286.34 806.403C286.753 805.99 287.422 805.99 287.835 806.403C288.248 806.815 288.248 807.485 287.835 807.897C287.422 808.31 286.753 808.31 286.34 807.897Z" fill="#C2CCDE" fill-opacity="0.25"/>
<path d="M288.208 801.695L281.632 808.271M291.31 799.052C290.423 798.164 289.103 797.972 288.028 798.476C287.625 797.36 286.555 796.562 285.3 796.562C284.045 796.562 282.976 797.36 282.572 798.476C281.497 797.972 280.177 798.164 279.29 799.052C278.402 799.94 278.21 801.26 278.714 802.334C277.598 802.738 276.8 803.807 276.8 805.063C276.8 806.318 277.598 807.387 278.714 807.791C278.21 808.865 278.402 810.185 279.29 811.073C280.177 811.961 281.497 812.153 282.572 811.649C282.976 812.765 284.045 813.562 285.3 813.562C286.555 813.562 287.625 812.765 288.028 811.649C289.103 812.153 290.423 811.961 291.31 811.073C292.198 810.185 292.39 808.865 291.886 807.791C293.002 807.387 293.8 806.318 293.8 805.063C293.8 803.807 293.002 802.738 291.886 802.334C292.39 801.26 292.198 799.94 291.31 799.052ZM283.65 803.712C283.237 804.125 282.568 804.125 282.155 803.712C281.743 803.3 281.743 802.631 282.155 802.218C282.568 801.805 283.237 801.805 283.65 802.218C284.063 802.631 284.063 803.3 283.65 803.712ZM287.835 807.897C287.422 808.31 286.753 808.31 286.34 807.897C285.928 807.485 285.928 806.815 286.34 806.403C286.753 805.99 287.422 805.99 287.835 806.403C288.248 806.815 288.248 807.485 287.835 807.897Z" stroke="#414141" stroke-linecap="round" stroke-linejoin="round"/>
<path d="M274.704 829.846C273.928 829.846 273.212 829.666 272.556 829.306C271.908 828.938 271.392 828.43 271.008 827.782C270.632 827.126 270.444 826.39 270.444 825.574C270.444 824.758 270.632 824.026 271.008 823.378C271.392 822.73 271.908 822.226 272.556 821.866C273.212 821.498 273.928 821.314 274.704 821.314C275.488 821.314 276.204 821.498 276.852 821.866C277.508 822.226 278.024 822.73 278.4 823.378C278.776 824.026 278.964 824.758 278.964 825.574C278.964 826.39 278.776 827.126 278.4 827.782C278.024 828.43 277.508 828.938 276.852 829.306C276.204 829.666 275.488 829.846 274.704 829.846ZM274.704 828.658C275.256 828.658 275.748 828.534 276.18 828.286C276.612 828.03 276.948 827.67 277.188 827.206C277.436 826.734 277.56 826.19 277.56 825.574C277.56 824.958 277.436 824.418 277.188 823.954C276.948 823.49 276.612 823.134 276.18 822.886C275.748 822.638 275.256 822.514 274.704 822.514C274.152 822.514 273.66 822.638 273.228 822.886C272.796 823.134 272.456 823.49 272.208 823.954C271.968 824.418 271.848 824.958 271.848 825.574C271.848 826.19 271.968 826.734 272.208 827.206C272.456 827.67 272.796 828.03 273.228 828.286C273.66 828.534 274.152 828.658 274.704 828.658ZM283.082 824.266H281.858V829.762H280.478V824.266H279.698V823.15H280.478V822.682C280.478 821.922 280.678 821.37 281.078 821.026C281.486 820.674 282.122 820.498 282.986 820.498V821.638C282.57 821.638 282.278 821.718 282.11 821.878C281.942 822.03 281.858 822.298 281.858 822.682V823.15H283.082V824.266ZM287.067 824.266H285.843V829.762H284.463V824.266H283.683V823.15H284.463V822.682C284.463 821.922 284.663 821.37 285.063 821.026C285.471 820.674 286.107 820.498 286.971 820.498V821.638C286.555 821.638 286.263 821.718 286.095 821.878C285.927 822.03 285.843 822.298 285.843 822.682V823.15H287.067V824.266ZM294.339 826.294C294.339 826.542 294.323 826.766 294.291 826.966H289.239C289.279 827.494 289.475 827.918 289.827 828.238C290.179 828.558 290.611 828.718 291.123 828.718C291.859 828.718 292.379 828.41 292.683 827.794H294.159C293.959 828.402 293.595 828.902 293.067 829.294C292.547 829.678 291.899 829.87 291.123 829.87C290.491 829.87 289.923 829.73 289.419 829.45C288.923 829.162 288.531 828.762 288.243 828.25C287.963 827.73 287.823 827.13 287.823 826.45C287.823 825.77 287.959 825.174 288.231 824.662C288.511 824.142 288.899 823.742 289.395 823.462C289.899 823.182 290.475 823.042 291.123 823.042C291.747 823.042 292.303 823.178 292.791 823.45C293.279 823.722 293.659 824.106 293.931 824.602C294.203 825.09 294.339 825.654 294.339 826.294ZM292.911 825.862C292.903 825.358 292.723 824.954 292.371 824.65C292.019 824.346 291.583 824.194 291.063 824.194C290.591 824.194 290.187 824.346 289.851 824.65C289.515 824.946 289.315 825.35 289.251 825.862H292.911ZM297.053 824.11C297.253 823.774 297.517 823.514 297.845 823.33C298.181 823.138 298.577 823.042 299.033 823.042V824.458H298.685C298.149 824.458 297.741 824.594 297.461 824.866C297.189 825.138 297.053 825.61 297.053 826.282V829.762H295.685V823.15H297.053V824.11Z" fill="#414141"/>
<path d="M188.76 821.422L186.288 829.762H184.74L182.988 823.45L181.128 829.762L179.592 829.774L177.228 821.422H178.68L180.408 828.214L182.28 821.422H183.816L185.556 828.178L187.296 821.422H188.76ZM189.432 826.426C189.432 825.762 189.568 825.174 189.84 824.662C190.12 824.15 190.496 823.754 190.968 823.474C191.448 823.186 191.976 823.042 192.552 823.042C193.072 823.042 193.524 823.146 193.908 823.354C194.3 823.554 194.612 823.806 194.844 824.11V823.15H196.224V829.762H194.844V828.778C194.612 829.09 194.296 829.35 193.896 829.558C193.496 829.766 193.04 829.87 192.528 829.87C191.96 829.87 191.44 829.726 190.968 829.438C190.496 829.142 190.12 828.734 189.84 828.214C189.568 827.686 189.432 827.09 189.432 826.426ZM194.844 826.45C194.844 825.994 194.748 825.598 194.556 825.262C194.372 824.926 194.128 824.67 193.824 824.494C193.52 824.318 193.192 824.23 192.84 824.23C192.488 824.23 192.16 824.318 191.856 824.494C191.552 824.662 191.304 824.914 191.112 825.25C190.928 825.578 190.836 825.97 190.836 826.426C190.836 826.882 190.928 827.282 191.112 827.626C191.304 827.97 191.552 828.234 191.856 828.418C192.168 828.594 192.496 828.682 192.84 828.682C193.192 828.682 193.52 828.594 193.824 828.418C194.128 828.242 194.372 827.986 194.556 827.65C194.748 827.306 194.844 826.906 194.844 826.45ZM199.389 820.882V829.762H198.021V820.882H199.389ZM202.553 820.882V829.762H201.185V820.882H202.553ZM210.409 826.294C210.409 826.542 210.393 826.766 210.361 826.966H205.309C205.349 827.494 205.545 827.918 205.897 828.238C206.249 828.558 206.681 828.718 207.193 828.718C207.929 828.718 208.449 828.41 208.753 827.794H210.229C210.029 828.402 209.665 828.902 209.137 829.294C208.617 829.678 207.969 829.87 207.193 829.87C206.561 829.87 205.993 829.73 205.489 829.45C204.993 829.162 204.601 828.762 204.313 828.25C204.033 827.73 203.893 827.13 203.893 826.45C203.893 825.77 204.029 825.174 204.301 824.662C204.581 824.142 204.969 823.742 205.465 823.462C205.969 823.182 206.545 823.042 207.193 823.042C207.817 823.042 208.373 823.178 208.861 823.45C209.349 823.722 209.729 824.106 210.001 824.602C210.273 825.09 210.409 825.654 210.409 826.294ZM208.981 825.862C208.973 825.358 208.793 824.954 208.441 824.65C208.089 824.346 207.653 824.194 207.133 824.194C206.661 824.194 206.257 824.346 205.921 824.65C205.585 824.946 205.385 825.35 205.321 825.862H208.981ZM213.351 824.266V827.926C213.351 828.174 213.407 828.354 213.519 828.466C213.639 828.57 213.839 828.622 214.119 828.622H214.959V829.762H213.879C213.263 829.762 212.791 829.618 212.463 829.33C212.135 829.042 211.971 828.574 211.971 827.926V824.266H211.191V823.15H211.971V821.506H213.351V823.15H214.959V824.266H213.351Z" fill="#414141"/>
<path d="M102.212 799.004C101.424 799.792 100.982 800.86 100.982 801.974C100.982 803.088 101.424 804.156 102.212 804.944L108.576 811.308C108.81 811.542 109.19 811.542 109.424 811.308L115.788 804.944C116.576 804.156 117.018 803.088 117.018 801.974C117.018 800.86 116.576 799.792 115.788 799.004C115.001 798.216 113.932 797.774 112.818 797.774C111.705 797.774 110.636 798.216 109.849 799.004L109.207 799.645C109.093 799.76 108.907 799.76 108.793 799.645L108.152 799.004C107.364 798.216 106.296 797.774 105.182 797.774C104.068 797.774 102.999 798.216 102.212 799.004Z" fill="#C2CCDE" fill-opacity="0.25" stroke="#414141" stroke-linecap="round" stroke-linejoin="round"/>
<path d="M86.808 821.422V822.538H83.268V824.998H86.028V826.114H83.268V829.762H81.9V821.422H86.808ZM87.6198 826.426C87.6198 825.762 87.7558 825.174 88.0278 824.662C88.3078 824.15 88.6838 823.754 89.1558 823.474C89.6358 823.186 90.1638 823.042 90.7398 823.042C91.2598 823.042 91.7118 823.146 92.0958 823.354C92.4878 823.554 92.7998 823.806 93.0318 824.11V823.15H94.4118V829.762H93.0318V828.778C92.7998 829.09 92.4838 829.35 92.0838 829.558C91.6838 829.766 91.2278 829.87 90.7158 829.87C90.1478 829.87 89.6278 829.726 89.1558 829.438C88.6838 829.142 88.3078 828.734 88.0278 828.214C87.7558 827.686 87.6198 827.09 87.6198 826.426ZM93.0318 826.45C93.0318 825.994 92.9358 825.598 92.7438 825.262C92.5598 824.926 92.3158 824.67 92.0118 824.494C91.7078 824.318 91.3798 824.23 91.0278 824.23C90.6758 824.23 90.3478 824.318 90.0438 824.494C89.7398 824.662 89.4918 824.914 89.2998 825.25C89.1158 825.578 89.0238 825.97 89.0238 826.426C89.0238 826.882 89.1158 827.282 89.2998 827.626C89.4918 827.97 89.7398 828.234 90.0438 828.418C90.3558 828.594 90.6838 828.682 91.0278 828.682C91.3798 828.682 91.7078 828.594 92.0118 828.418C92.3158 828.242 92.5598 827.986 92.7438 827.65C92.9358 827.306 93.0318 826.906 93.0318 826.45ZM98.7646 828.538L100.637 823.15H102.089L99.5686 829.762H97.9366L95.4286 823.15H96.8926L98.7646 828.538ZM105.991 829.87C105.367 829.87 104.803 829.73 104.299 829.45C103.795 829.162 103.399 828.762 103.111 828.25C102.823 827.73 102.679 827.13 102.679 826.45C102.679 825.778 102.827 825.182 103.123 824.662C103.419 824.142 103.823 823.742 104.335 823.462C104.847 823.182 105.419 823.042 106.051 823.042C106.683 823.042 107.255 823.182 107.767 823.462C108.279 823.742 108.683 824.142 108.979 824.662C109.275 825.182 109.423 825.778 109.423 826.45C109.423 827.122 109.271 827.718 108.967 828.238C108.663 828.758 108.247 829.162 107.719 829.45C107.199 829.73 106.623 829.87 105.991 829.87ZM105.991 828.682C106.343 828.682 106.671 828.598 106.975 828.43C107.287 828.262 107.539 828.01 107.731 827.674C107.923 827.338 108.019 826.93 108.019 826.45C108.019 825.97 107.927 825.566 107.743 825.238C107.559 824.902 107.315 824.65 107.011 824.482C106.707 824.314 106.379 824.23 106.027 824.23C105.675 824.23 105.347 824.314 105.043 824.482C104.747 824.65 104.511 824.902 104.335 825.238C104.159 825.566 104.071 825.97 104.071 826.45C104.071 827.162 104.251 827.714 104.611 828.106C104.979 828.49 105.439 828.682 105.991 828.682ZM116.763 823.15V829.762H115.395V828.982C115.179 829.254 114.895 829.47 114.543 829.63C114.199 829.782 113.831 829.858 113.439 829.858C112.919 829.858 112.451 829.75 112.035 829.534C111.627 829.318 111.303 828.998 111.063 828.574C110.831 828.15 110.715 827.638 110.715 827.038V823.15H112.071V826.834C112.071 827.426 112.219 827.882 112.515 828.202C112.811 828.514 113.215 828.67 113.727 828.67C114.239 828.67 114.643 828.514 114.939 828.202C115.243 827.882 115.395 827.426 115.395 826.834V823.15H116.763ZM119.936 824.11C120.136 823.774 120.4 823.514 120.728 823.33C121.064 823.138 121.46 823.042 121.916 823.042V824.458H121.568C121.032 824.458 120.624 824.594 120.344 824.866C120.072 825.138 119.936 825.61 119.936 826.282V829.762H118.568V823.15H119.936V824.11ZM123.869 822.274C123.621 822.274 123.413 822.19 123.245 822.022C123.077 821.854 122.993 821.646 122.993 821.398C122.993 821.15 123.077 820.942 123.245 820.774C123.413 820.606 123.621 820.522 123.869 820.522C124.109 820.522 124.313 820.606 124.481 820.774C124.649 820.942 124.733 821.15 124.733 821.398C124.733 821.646 124.649 821.854 124.481 822.022C124.313 822.19 124.109 822.274 123.869 822.274ZM124.541 823.15V829.762H123.173V823.15H124.541ZM127.934 824.266V827.926C127.934 828.174 127.99 828.354 128.102 828.466C128.222 828.57 128.422 828.622 128.702 828.622H129.542V829.762H128.462C127.846 829.762 127.374 829.618 127.046 829.33C126.718 829.042 126.554 828.574 126.554 827.926V824.266H125.774V823.15H126.554V821.506H127.934V823.15H129.542V824.266H127.934ZM136.862 826.294C136.862 826.542 136.846 826.766 136.814 826.966H131.762C131.802 827.494 131.998 827.918 132.35 828.238C132.702 828.558 133.134 828.718 133.646 828.718C134.382 828.718 134.902 828.41 135.206 827.794H136.682C136.482 828.402 136.118 828.902 135.59 829.294C135.07 829.678 134.422 829.87 133.646 829.87C133.014 829.87 132.446 829.73 131.942 829.45C131.446 829.162 131.054 828.762 130.766 828.25C130.486 827.73 130.346 827.13 130.346 826.45C130.346 825.77 130.482 825.174 130.754 824.662C131.034 824.142 131.422 823.742 131.918 823.462C132.422 823.182 132.998 823.042 133.646 823.042C134.27 823.042 134.826 823.178 135.314 823.45C135.802 823.722 136.182 824.106 136.454 824.602C136.726 825.09 136.862 825.654 136.862 826.294ZM135.434 825.862C135.426 825.358 135.246 824.954 134.894 824.65C134.542 824.346 134.106 824.194 133.586 824.194C133.114 824.194 132.71 824.346 132.374 824.65C132.038 824.946 131.838 825.35 131.774 825.862H135.434Z" fill="#414141"/>
<path d="M360 813.762H348C347.337 813.762 346.8 813.225 346.8 812.562C346.8 810.578 348.031 808.801 349.89 808.104L350.259 807.966C352.671 807.062 355.329 807.062 357.741 807.966L358.11 808.104C359.969 808.801 361.2 810.578 361.2 812.562C361.2 813.225 360.663 813.762 360 813.762Z" fill="#C2CCDE" fill-opacity="0.25"/>
<path d="M352.17 804.423C353.319 805.013 354.681 805.013 355.83 804.423C356.898 803.874 357.664 802.874 357.916 801.699L357.983 801.385C358.24 800.184 357.965 798.93 357.229 797.946L357.122 797.802C356.386 796.817 355.229 796.238 354 796.238C352.771 796.238 351.614 796.817 350.878 797.802L350.771 797.946C350.035 798.93 349.76 800.184 350.017 801.385L350.085 801.699C350.336 802.874 351.102 803.874 352.17 804.423Z" fill="#C2CCDE" fill-opacity="0.25"/>
<path d="M360 813.762H348C347.337 813.762 346.8 813.225 346.8 812.562C346.8 810.578 348.031 808.801 349.89 808.104L350.259 807.966C352.671 807.062 355.329 807.062 357.741 807.966L358.11 808.104C359.969 808.801 361.2 810.578 361.2 812.562C361.2 813.225 360.663 813.762 360 813.762Z" stroke="#414141" stroke-linecap="round" stroke-linejoin="round"/>
<path d="M352.17 804.423C353.319 805.013 354.681 805.013 355.83 804.423C356.898 803.874 357.664 802.874 357.916 801.699L357.983 801.385C358.24 800.184 357.965 798.93 357.229 797.946L357.122 797.802C356.386 796.817 355.229 796.238 354 796.238C352.771 796.238 351.614 796.817 350.878 797.802L350.771 797.946C350.035 798.93 349.76 800.184 350.017 801.385L350.085 801.699C350.336 802.874 351.102 803.874 352.17 804.423Z" stroke="#414141" stroke-linecap="round" stroke-linejoin="round"/>
<path d="M341.732 823.906C341.732 824.33 341.632 824.73 341.432 825.106C341.232 825.482 340.912 825.79 340.472 826.03C340.032 826.262 339.468 826.378 338.78 826.378H337.268V829.762H335.9V821.422H338.78C339.42 821.422 339.96 821.534 340.4 821.758C340.848 821.974 341.18 822.27 341.396 822.646C341.62 823.022 341.732 823.442 341.732 823.906ZM338.78 825.262C339.3 825.262 339.688 825.146 339.944 824.914C340.2 824.674 340.328 824.338 340.328 823.906C340.328 822.994 339.812 822.538 338.78 822.538H337.268V825.262H338.78ZM344.405 824.11C344.605 823.774 344.869 823.514 345.197 823.33C345.533 823.138 345.929 823.042 346.385 823.042V824.458H346.037C345.501 824.458 345.093 824.594 344.813 824.866C344.541 825.138 344.405 825.61 344.405 826.282V829.762H343.037V823.15H344.405V824.11ZM350.51 829.87C349.886 829.87 349.322 829.73 348.818 829.45C348.314 829.162 347.918 828.762 347.63 828.25C347.342 827.73 347.198 827.13 347.198 826.45C347.198 825.778 347.346 825.182 347.642 824.662C347.938 824.142 348.342 823.742 348.854 823.462C349.366 823.182 349.938 823.042 350.57 823.042C351.202 823.042 351.774 823.182 352.286 823.462C352.798 823.742 353.202 824.142 353.498 824.662C353.794 825.182 353.942 825.778 353.942 826.45C353.942 827.122 353.79 827.718 353.486 828.238C353.182 828.758 352.766 829.162 352.238 829.45C351.718 829.73 351.142 829.87 350.51 829.87ZM350.51 828.682C350.862 828.682 351.19 828.598 351.494 828.43C351.806 828.262 352.058 828.01 352.25 827.674C352.442 827.338 352.538 826.93 352.538 826.45C352.538 825.97 352.446 825.566 352.262 825.238C352.078 824.902 351.834 824.65 351.53 824.482C351.226 824.314 350.898 824.23 350.546 824.23C350.194 824.23 349.866 824.314 349.562 824.482C349.266 824.65 349.03 824.902 348.854 825.238C348.678 825.566 348.59 825.97 348.59 826.45C348.59 827.162 348.77 827.714 349.13 828.106C349.498 828.49 349.958 828.682 350.51 828.682ZM358.067 824.266H356.843V829.762H355.463V824.266H354.683V823.15H355.463V822.682C355.463 821.922 355.663 821.37 356.063 821.026C356.471 820.674 357.107 820.498 357.971 820.498V821.638C357.555 821.638 357.263 821.718 357.095 821.878C356.927 822.03 356.843 822.298 356.843 822.682V823.15H358.067V824.266ZM359.975 822.274C359.727 822.274 359.519 822.19 359.351 822.022C359.183 821.854 359.099 821.646 359.099 821.398C359.099 821.15 359.183 820.942 359.351 820.774C359.519 820.606 359.727 820.522 359.975 820.522C360.215 820.522 360.419 820.606 360.587 820.774C360.755 820.942 360.839 821.15 360.839 821.398C360.839 821.646 360.755 821.854 360.587 822.022C360.419 822.19 360.215 822.274 359.975 822.274ZM360.647 823.15V829.762H359.279V823.15H360.647ZM363.811 820.882V829.762H362.443V820.882H363.811ZM371.667 826.294C371.667 826.542 371.651 826.766 371.619 826.966H366.567C366.607 827.494 366.803 827.918 367.155 828.238C367.507 828.558 367.939 828.718 368.451 828.718C369.187 828.718 369.707 828.41 370.011 827.794H371.487C371.287 828.402 370.923 828.902 370.395 829.294C369.875 829.678 369.227 829.87 368.451 829.87C367.819 829.87 367.251 829.73 366.747 829.45C366.251 829.162 365.859 828.762 365.571 828.25C365.291 827.73 365.151 827.13 365.151 826.45C365.151 825.77 365.287 825.174 365.559 824.662C365.839 824.142 366.227 823.742 366.723 823.462C367.227 823.182 367.803 823.042 368.451 823.042C369.075 823.042 369.631 823.178 370.119 823.45C370.607 823.722 370.987 824.106 371.259 824.602C371.531 825.09 371.667 825.654 371.667 826.294ZM370.239 825.862C370.231 825.358 370.051 824.954 369.699 824.65C369.347 824.346 368.911 824.194 368.391 824.194C367.919 824.194 367.515 824.346 367.179 824.65C366.843 824.946 366.643 825.35 366.579 825.862H370.239Z" fill="#414141"/>
<rect x="344" y="60" width="34" height="34" rx="4" fill="white"/>
<path d="M359.127 82.1001C358.994 82.3764 358.922 82.6831 358.922 83.0001C358.922 83.7427 359.318 84.4288 359.961 84.8001C360.604 85.1714 361.396 85.1714 362.039 84.8001C362.682 84.4288 363.079 83.7427 363.079 83.0001C363.079 82.6831 363.006 82.3764 362.874 82.1001H359.127Z" fill="#C2CCDE" fill-opacity="0.25"/>
<path d="M360.888 70.1001C359.615 70.1001 358.394 70.6058 357.494 71.506L357.306 71.6942C356.406 72.5944 355.9 73.8153 355.9 75.0883V75.9698C355.9 77.59 355.256 79.1439 354.111 80.2896C353.912 80.4885 353.8 80.7583 353.8 81.0396C353.8 81.6253 354.275 82.1001 354.861 82.1001H367.139C367.725 82.1001 368.2 81.6253 368.2 81.0396C368.2 80.7583 368.088 80.4885 367.889 80.2896C366.744 79.1439 366.1 77.59 366.1 75.9698V75.0883C366.1 73.8153 365.594 72.5944 364.694 71.6942L364.506 71.506C363.606 70.6058 362.385 70.1001 361.112 70.1001H360.888Z" fill="#C2CCDE" fill-opacity="0.25"/>
<path d="M361.6 70.125V69.2001C361.6 68.8687 361.331 68.6001 361 68.6001C360.669 68.6001 360.4 68.8687 360.4 69.2001V70.125C360.562 70.1085 360.724 70.1001 360.888 70.1001H361.112C361.276 70.1001 361.439 70.1085 361.6 70.125Z" fill="#C2CCDE" fill-opacity="0.25"/>
<path d="M360.888 70.1001C359.615 70.1001 358.394 70.6058 357.494 71.506L357.306 71.6942C356.406 72.5944 355.9 73.8153 355.9 75.0883V75.9698C355.9 77.59 355.256 79.1439 354.111 80.2896C353.912 80.4885 353.8 80.7583 353.8 81.0396C353.8 81.6253 354.275 82.1001 354.861 82.1001H367.139C367.725 82.1001 368.2 81.6253 368.2 81.0396C368.2 80.7583 368.088 80.4885 367.889 80.2896C366.744 79.1439 366.1 77.59 366.1 75.9698V75.0883C366.1 73.8153 365.594 72.5944 364.694 71.6942L364.506 71.506C363.606 70.6058 362.385 70.1001 361.112 70.1001M360.888 70.1001H361.112M360.888 70.1001C360.724 70.1001 360.562 70.1085 360.4 70.125V69.2001C360.4 68.8687 360.669 68.6001 361 68.6001C361.331 68.6001 361.6 68.8687 361.6 69.2001V70.125C361.439 70.1085 361.276 70.1001 361.112 70.1001M358.922 83.0001C358.922 82.6831 358.994 82.3764 359.127 82.1001H362.874C363.006 82.3764 363.079 82.6831 363.079 83.0001C363.079 83.7427 362.682 84.4288 362.039 84.8001C361.396 85.1714 360.604 85.1714 359.961 84.8001C359.318 84.4288 358.922 83.7427 358.922 83.0001Z" stroke="#414141" stroke-linecap="round" stroke-linejoin="round"/>
<rect x="344" y="497" width="34" height="34" rx="4" fill="white"/>
<path d="M360.5 523C362.379 523 364.216 522.443 365.778 521.399C367.34 520.355 368.558 518.871 369.277 517.136C369.996 515.4 370.184 513.489 369.817 511.647C369.451 509.804 368.546 508.111 367.218 506.783C365.889 505.454 364.196 504.549 362.353 504.183C360.511 503.816 358.6 504.004 356.865 504.723C355.129 505.442 353.645 506.66 352.601 508.222C351.557 509.784 351 511.621 351 513.5C351.003 516.019 352.004 518.434 353.785 520.215C355.566 521.996 357.981 522.997 360.5 523ZM359.821 505.392V506.714C359.821 506.894 359.893 507.067 360.02 507.194C360.147 507.321 360.32 507.393 360.5 507.393C360.68 507.393 360.853 507.321 360.98 507.194C361.107 507.067 361.179 506.894 361.179 506.714V505.392C363.095 505.554 364.891 506.389 366.251 507.749C367.611 509.109 368.446 510.905 368.608 512.821H367.286C367.106 512.821 366.933 512.893 366.806 513.02C366.679 513.147 366.607 513.32 366.607 513.5C366.607 513.68 366.679 513.853 366.806 513.98C366.933 514.107 367.106 514.179 367.286 514.179H368.608C368.446 516.095 367.611 517.891 366.251 519.251C364.891 520.611 363.095 521.446 361.179 521.608V520.286C361.179 520.106 361.107 519.933 360.98 519.806C360.853 519.679 360.68 519.607 360.5 519.607C360.32 519.607 360.147 519.679 360.02 519.806C359.893 519.933 359.821 520.106 359.821 520.286V521.608C357.905 521.446 356.109 520.611 354.749 519.251C353.389 517.891 352.554 516.095 352.392 514.179H353.714C353.894 514.179 354.067 514.107 354.194 513.98C354.321 513.853 354.393 513.68 354.393 513.5C354.393 513.32 354.321 513.147 354.194 513.02C354.067 512.893 353.894 512.821 353.714 512.821H352.392C352.554 510.905 353.389 509.109 354.749 507.749C356.109 506.389 357.905 505.554 359.821 505.392Z" fill="#5A5A5A"/>
<path d="M360.02 516.015C360.147 516.143 360.32 516.214 360.5 516.214C360.68 516.214 360.852 516.143 360.98 516.015L363.015 513.98C363.143 513.852 363.214 513.68 363.214 513.5C363.214 513.32 363.143 513.147 363.015 513.02L360.98 510.985C360.852 510.857 360.68 510.786 360.5 510.786C360.32 510.786 360.147 510.857 360.02 510.985L357.985 513.02C357.857 513.147 357.786 513.32 357.786 513.5C357.786 513.68 357.857 513.852 357.985 513.98L360.02 516.015ZM360.5 512.424L361.576 513.5L360.5 514.576L359.424 513.5L360.5 512.424Z" fill="#5A5A5A"/>
<circle opacity="0.1" cx="196" cy="319" r="112" fill="#08B783"/>
<circle opacity="0.15" cx="196" cy="319" r="77.1391" fill="#08B783"/>
<circle opacity="0.25" cx="196" cy="319" r="36.3444" fill="#08B783"/>
<circle opacity="0.5" cx="196" cy="319" r="14.0927" fill="#08B783"/>
<path fill-rule="evenodd" clip-rule="evenodd" d="M196 312.718C198.458 312.718 200.45 314.71 200.45 317.168V317.436C200.45 318.42 200.143 319.378 199.572 320.179L196.009 325.166C196.005 325.172 195.996 325.172 195.991 325.166L192.429 320.179C191.857 319.378 191.55 318.42 191.55 317.436V317.168C191.55 314.71 193.542 312.718 196 312.718ZM197.955 316.749C197.819 316.154 197.42 315.653 196.87 315.388C196.32 315.124 195.68 315.124 195.13 315.388C194.581 315.653 194.181 316.154 194.046 316.749C193.91 317.343 194.052 317.968 194.433 318.445C194.813 318.922 195.39 319.199 196 319.199C196.61 319.199 197.187 318.922 197.568 318.445C197.948 317.968 198.09 317.343 197.955 316.749Z" fill="#414141"/>
<path d="M199.572 320.179L200.792 321.051V321.051L199.572 320.179ZM196.009 325.166L194.788 324.295L194.788 324.295L196.009 325.166ZM195.991 325.166L197.212 324.295L197.212 324.295L195.991 325.166ZM192.429 320.179L191.208 321.051H191.208L192.429 320.179ZM196.87 315.388L196.219 316.74L196.87 315.388ZM197.955 316.749L199.417 316.415L197.955 316.749ZM195.13 315.388L195.781 316.74L195.13 315.388ZM194.046 316.749L195.508 317.082L194.046 316.749ZM194.433 318.445L193.26 319.38L193.26 319.38L194.433 318.445ZM201.95 317.168C201.95 313.882 199.286 311.218 196 311.218V314.218C197.63 314.218 198.95 315.539 198.95 317.168H201.95ZM201.95 317.436V317.168H198.95V317.436H201.95ZM200.792 321.051C201.546 319.996 201.95 318.732 201.95 317.436H198.95C198.95 318.107 198.741 318.761 198.351 319.307L200.792 321.051ZM197.23 326.038L200.792 321.051L198.351 319.307L194.788 324.295L197.23 326.038ZM194.771 326.038C195.373 326.882 196.627 326.882 197.23 326.038L194.788 324.295C195.382 323.463 196.618 323.463 197.212 324.295L194.771 326.038ZM191.208 321.051L194.771 326.038L197.212 324.295L193.649 319.307L191.208 321.051ZM190.05 317.436C190.05 318.732 190.455 319.996 191.208 321.051L193.649 319.307C193.259 318.761 193.05 318.107 193.05 317.436H190.05ZM190.05 317.168V317.436H193.05V317.168H190.05ZM196 311.218C192.714 311.218 190.05 313.882 190.05 317.168H193.05C193.05 315.539 194.371 314.218 196 314.218V311.218ZM196.219 316.74C196.358 316.806 196.458 316.933 196.492 317.082L199.417 316.415C199.18 315.375 198.482 314.5 197.521 314.037L196.219 316.74ZM195.781 316.74C195.92 316.673 196.081 316.673 196.219 316.74L197.521 314.037C196.56 313.574 195.44 313.574 194.479 314.037L195.781 316.74ZM195.508 317.082C195.542 316.933 195.643 316.806 195.781 316.74L194.479 314.037C193.518 314.5 192.821 315.375 192.583 316.415L195.508 317.082ZM195.605 317.509C195.51 317.389 195.474 317.232 195.508 317.082L192.583 316.415C192.346 317.455 192.595 318.546 193.26 319.38L195.605 317.509ZM196 317.699C195.847 317.699 195.701 317.629 195.605 317.509L193.26 319.38C193.925 320.214 194.934 320.699 196 320.699V317.699ZM196.395 317.509C196.299 317.629 196.154 317.699 196 317.699V320.699C197.067 320.699 198.075 320.214 198.74 319.38L196.395 317.509ZM196.492 317.082C196.526 317.232 196.491 317.389 196.395 317.509L198.74 319.38C199.405 318.546 199.654 317.455 199.417 316.415L196.492 317.082Z" fill="#414141"/>
<rect x="14.5" y="556.5" width="363" height="140" rx="7.5" fill="#B9E5D1" stroke="#08B783"/>
<rect x="15" y="487" width="172" height="54" rx="8" fill="#008955"/>
<path d="M82.2807 519.5L79.7207 515.052H78.3287V519.5H76.5047V508.38H80.3447C81.198 508.38 81.918 508.529 82.5047 508.828C83.102 509.127 83.5447 509.527 83.8327 510.028C84.1314 510.529 84.2807 511.089 84.2807 511.708C84.2807 512.433 84.0674 513.095 83.6407 513.692C83.2247 514.279 82.5794 514.679 81.7047 514.892L84.4567 519.5H82.2807ZM78.3287 513.596H80.3447C81.0274 513.596 81.5394 513.425 81.8807 513.084C82.2327 512.743 82.4087 512.284 82.4087 511.708C82.4087 511.132 82.238 510.684 81.8967 510.364C81.5554 510.033 81.038 509.868 80.3447 509.868H78.3287V513.596ZM94.6941 514.876C94.6941 515.207 94.6727 515.505 94.6301 515.772H87.8941C87.9474 516.476 88.2087 517.041 88.6781 517.468C89.1474 517.895 89.7234 518.108 90.4061 518.108C91.3874 518.108 92.0807 517.697 92.4861 516.876H94.4541C94.1874 517.687 93.7021 518.353 92.9981 518.876C92.3047 519.388 91.4407 519.644 90.4061 519.644C89.5634 519.644 88.8061 519.457 88.1341 519.084C87.4727 518.7 86.9501 518.167 86.5661 517.484C86.1927 516.791 86.0061 515.991 86.0061 515.084C86.0061 514.177 86.1874 513.383 86.5501 512.7C86.9234 512.007 87.4407 511.473 88.1021 511.1C88.7741 510.727 89.5421 510.54 90.4061 510.54C91.2381 510.54 91.9794 510.721 92.6301 511.084C93.2807 511.447 93.7874 511.959 94.1501 512.62C94.5127 513.271 94.6941 514.023 94.6941 514.876ZM92.7901 514.3C92.7794 513.628 92.5394 513.089 92.0701 512.684C91.6007 512.279 91.0194 512.076 90.3261 512.076C89.6967 512.076 89.1581 512.279 88.7101 512.684C88.2621 513.079 87.9954 513.617 87.9101 514.3H92.7901ZM100.937 510.54C101.63 510.54 102.249 510.684 102.793 510.972C103.348 511.26 103.78 511.687 104.089 512.252C104.398 512.817 104.553 513.5 104.553 514.3V519.5H102.745V514.572C102.745 513.783 102.548 513.18 102.153 512.764C101.758 512.337 101.22 512.124 100.537 512.124C99.8544 512.124 99.3104 512.337 98.9051 512.764C98.5104 513.18 98.3131 513.783 98.3131 514.572V519.5H96.4891V510.684H98.3131V511.692C98.6117 511.329 98.9904 511.047 99.4491 510.844C99.9184 510.641 100.414 510.54 100.937 510.54ZM109.008 512.172V517.052C109.008 517.383 109.082 517.623 109.232 517.772C109.392 517.911 109.658 517.98 110.032 517.98H111.152V519.5H109.712C108.89 519.5 108.261 519.308 107.824 518.924C107.386 518.54 107.168 517.916 107.168 517.052V512.172H106.128V510.684H107.168V508.492H109.008V510.684H111.152V512.172H109.008ZM112.225 515.052C112.225 514.167 112.406 513.383 112.769 512.7C113.142 512.017 113.643 511.489 114.273 511.116C114.913 510.732 115.617 510.54 116.385 510.54C117.078 510.54 117.681 510.679 118.193 510.956C118.715 511.223 119.131 511.559 119.441 511.964V510.684H121.281V519.5H119.441V518.188C119.131 518.604 118.71 518.951 118.177 519.228C117.643 519.505 117.035 519.644 116.353 519.644C115.595 519.644 114.902 519.452 114.273 519.068C113.643 518.673 113.142 518.129 112.769 517.436C112.406 516.732 112.225 515.937 112.225 515.052ZM119.441 515.084C119.441 514.476 119.313 513.948 119.057 513.5C118.811 513.052 118.486 512.711 118.081 512.476C117.675 512.241 117.238 512.124 116.769 512.124C116.299 512.124 115.862 512.241 115.457 512.476C115.051 512.7 114.721 513.036 114.465 513.484C114.219 513.921 114.097 514.444 114.097 515.052C114.097 515.66 114.219 516.193 114.465 516.652C114.721 517.111 115.051 517.463 115.457 517.708C115.873 517.943 116.31 518.06 116.769 518.06C117.238 518.06 117.675 517.943 118.081 517.708C118.486 517.473 118.811 517.132 119.057 516.684C119.313 516.225 119.441 515.692 119.441 515.084ZM125.501 507.66V519.5H123.677V507.66H125.501Z" fill="white"/>
<rect x="28.5" y="569.5" width="335" height="53" rx="7.5" fill="#E2F5ED" stroke="#8AD4B5"/>
<path d="M57.036 604.325L53.2175 600.505C52.8663 600.154 52.8663 599.584 53.2176 599.233C53.5689 598.882 54.1385 598.882 54.4898 599.233L58.3083 603.053C58.6595 603.404 58.6595 603.973 58.3082 604.325C57.9569 604.676 57.3873 604.676 57.036 604.325Z" fill="#C2CCDE" fill-opacity="0.25"/>
<path d="M42.679 592.721C43.2075 590.748 44.7482 589.208 46.7207 588.679C48.6931 588.151 50.7977 588.714 52.2417 590.158C53.6856 591.602 54.2496 593.707 53.721 595.679C53.1925 597.652 51.6518 599.193 49.6794 599.721C47.7069 600.25 45.6023 599.686 44.1584 598.242C42.7144 596.798 42.1505 594.693 42.679 592.721Z" fill="#C2CCDE" fill-opacity="0.25"/>
<path d="M52.2335 598.25L53.2173 599.233M53.2175 600.505L57.036 604.325C57.3873 604.676 57.9569 604.676 58.3082 604.325C58.6595 603.973 58.6595 603.404 58.3083 603.053L54.4898 599.233C54.1385 598.882 53.5689 598.882 53.2176 599.233C52.8663 599.584 52.8663 600.154 53.2175 600.505ZM44.1584 598.242C42.7144 596.798 42.1505 594.693 42.679 592.721C43.2075 590.748 44.7482 589.208 46.7207 588.679C48.6931 588.151 50.7977 588.714 52.2417 590.158C53.6856 591.602 54.2496 593.707 53.721 595.679C53.1925 597.652 51.6518 599.193 49.6794 599.721C47.7069 600.25 45.6023 599.686 44.1584 598.242Z" stroke="#414141" stroke-linecap="round" stroke-linejoin="round"/>
<path d="M335.212 591.242C334.424 592.029 333.982 593.098 333.982 594.211C333.982 595.325 334.424 596.394 335.212 597.181L341.576 603.545C341.81 603.78 342.19 603.78 342.424 603.545L348.788 597.181C349.576 596.394 350.018 595.325 350.018 594.211C350.018 593.098 349.576 592.029 348.788 591.242C348.001 590.454 346.932 590.011 345.818 590.011C344.705 590.011 343.636 590.454 342.849 591.242L342.207 591.883C342.093 591.997 341.907 591.997 341.793 591.883L341.152 591.242C340.364 590.454 339.296 590.011 338.182 590.011C337.068 590.011 335.999 590.454 335.212 591.242Z" fill="#C2CCDE" fill-opacity="0.25" stroke="#B8B8B8" stroke-linecap="round" stroke-linejoin="round"/>
<path d="M87.68 589.88L84.384 601H82.32L79.984 592.584L77.504 601L75.456 601.016L72.304 589.88H74.24L76.544 598.936L79.04 589.88H81.088L83.408 598.888L85.728 589.88H87.68ZM93.7444 592.04C94.4164 592.04 95.0137 592.184 95.5364 592.472C96.0697 592.76 96.4857 593.187 96.7844 593.752C97.0937 594.317 97.2484 595 97.2484 595.8V601H95.4404V596.072C95.4404 595.283 95.243 594.68 94.8484 594.264C94.4537 593.837 93.915 593.624 93.2324 593.624C92.5497 593.624 92.0057 593.837 91.6004 594.264C91.2057 594.68 91.0084 595.283 91.0084 596.072V601H89.1844V589.16H91.0084V593.208C91.3177 592.835 91.707 592.547 92.1764 592.344C92.6564 592.141 93.179 592.04 93.7444 592.04ZM107.655 596.376C107.655 596.707 107.634 597.005 107.591 597.272H100.855C100.908 597.976 101.17 598.541 101.639 598.968C102.108 599.395 102.684 599.608 103.367 599.608C104.348 599.608 105.042 599.197 105.447 598.376H107.415C107.148 599.187 106.663 599.853 105.959 600.376C105.266 600.888 104.402 601.144 103.367 601.144C102.524 601.144 101.767 600.957 101.095 600.584C100.434 600.2 99.911 599.667 99.527 598.984C99.1537 598.291 98.967 597.491 98.967 596.584C98.967 595.677 99.1483 594.883 99.511 594.2C99.8843 593.507 100.402 592.973 101.063 592.6C101.735 592.227 102.503 592.04 103.367 592.04C104.199 592.04 104.94 592.221 105.591 592.584C106.242 592.947 106.748 593.459 107.111 594.12C107.474 594.771 107.655 595.523 107.655 596.376ZM105.751 595.8C105.74 595.128 105.5 594.589 105.031 594.184C104.562 593.779 103.98 593.576 103.287 593.576C102.658 593.576 102.119 593.779 101.671 594.184C101.223 594.579 100.956 595.117 100.871 595.8H105.751ZM111.274 593.464C111.541 593.016 111.893 592.669 112.33 592.424C112.778 592.168 113.306 592.04 113.914 592.04V593.928H113.45C112.735 593.928 112.191 594.109 111.818 594.472C111.455 594.835 111.274 595.464 111.274 596.36V601H109.45V592.184H111.274V593.464ZM123.671 596.376C123.671 596.707 123.649 597.005 123.607 597.272H116.871C116.924 597.976 117.185 598.541 117.655 598.968C118.124 599.395 118.7 599.608 119.383 599.608C120.364 599.608 121.057 599.197 121.463 598.376H123.431C123.164 599.187 122.679 599.853 121.975 600.376C121.281 600.888 120.417 601.144 119.383 601.144C118.54 601.144 117.783 600.957 117.111 600.584C116.449 600.2 115.927 599.667 115.543 598.984C115.169 598.291 114.983 597.491 114.983 596.584C114.983 595.677 115.164 594.883 115.527 594.2C115.9 593.507 116.417 592.973 117.079 592.6C117.751 592.227 118.519 592.04 119.383 592.04C120.215 592.04 120.956 592.221 121.607 592.584C122.257 592.947 122.764 593.459 123.127 594.12C123.489 594.771 123.671 595.523 123.671 596.376ZM121.767 595.8C121.756 595.128 121.516 594.589 121.047 594.184C120.577 593.779 119.996 593.576 119.303 593.576C118.673 593.576 118.135 593.779 117.687 594.184C117.239 594.579 116.972 595.117 116.887 595.8H121.767ZM141.462 592.184L138.726 601H136.806L135.03 594.488L133.254 601H131.334L128.582 592.184H130.438L132.278 599.272L134.15 592.184H136.054L137.846 599.24L139.67 592.184H141.462ZM146.649 601.144C145.817 601.144 145.065 600.957 144.393 600.584C143.721 600.2 143.193 599.667 142.809 598.984C142.425 598.291 142.233 597.491 142.233 596.584C142.233 595.688 142.43 594.893 142.825 594.2C143.22 593.507 143.758 592.973 144.441 592.6C145.124 592.227 145.886 592.04 146.729 592.04C147.572 592.04 148.334 592.227 149.017 592.6C149.7 592.973 150.238 593.507 150.633 594.2C151.028 594.893 151.225 595.688 151.225 596.584C151.225 597.48 151.022 598.275 150.617 598.968C150.212 599.661 149.657 600.2 148.953 600.584C148.26 600.957 147.492 601.144 146.649 601.144ZM146.649 599.56C147.118 599.56 147.556 599.448 147.961 599.224C148.377 599 148.713 598.664 148.969 598.216C149.225 597.768 149.353 597.224 149.353 596.584C149.353 595.944 149.23 595.405 148.985 594.968C148.74 594.52 148.414 594.184 148.009 593.96C147.604 593.736 147.166 593.624 146.697 593.624C146.228 593.624 145.79 593.736 145.385 593.96C144.99 594.184 144.676 594.52 144.441 594.968C144.206 595.405 144.089 595.944 144.089 596.584C144.089 597.533 144.329 598.269 144.809 598.792C145.3 599.304 145.913 599.56 146.649 599.56ZM161.012 592.184V601H159.188V599.96C158.9 600.323 158.521 600.611 158.052 600.824C157.593 601.027 157.103 601.128 156.58 601.128C155.887 601.128 155.263 600.984 154.708 600.696C154.164 600.408 153.732 599.981 153.412 599.416C153.103 598.851 152.948 598.168 152.948 597.368V592.184H154.756V597.096C154.756 597.885 154.953 598.493 155.348 598.92C155.743 599.336 156.281 599.544 156.964 599.544C157.647 599.544 158.185 599.336 158.58 598.92C158.985 598.493 159.188 597.885 159.188 597.096V592.184H161.012ZM165.243 589.16V601H163.419V589.16H165.243ZM167.03 596.552C167.03 595.667 167.211 594.883 167.574 594.2C167.947 593.517 168.448 592.989 169.078 592.616C169.718 592.232 170.427 592.04 171.206 592.04C171.782 592.04 172.347 592.168 172.902 592.424C173.467 592.669 173.915 593 174.246 593.416V589.16H176.086V601H174.246V599.672C173.947 600.099 173.531 600.451 172.998 600.728C172.475 601.005 171.872 601.144 171.19 601.144C170.422 601.144 169.718 600.952 169.078 600.568C168.448 600.173 167.947 599.629 167.574 598.936C167.211 598.232 167.03 597.437 167.03 596.552ZM174.246 596.584C174.246 595.976 174.118 595.448 173.862 595C173.616 594.552 173.291 594.211 172.886 593.976C172.48 593.741 172.043 593.624 171.574 593.624C171.104 593.624 170.667 593.741 170.262 593.976C169.856 594.2 169.526 594.536 169.27 594.984C169.024 595.421 168.902 595.944 168.902 596.552C168.902 597.16 169.024 597.693 169.27 598.152C169.526 598.611 169.856 598.963 170.262 599.208C170.678 599.443 171.115 599.56 171.574 599.56C172.043 599.56 172.48 599.443 172.886 599.208C173.291 598.973 173.616 598.632 173.862 598.184C174.118 597.725 174.246 597.192 174.246 596.584ZM190.574 592.184L185.166 605.144H183.278L185.07 600.856L181.598 592.184H183.63L186.11 598.904L188.686 592.184H190.574ZM195.774 601.144C194.942 601.144 194.19 600.957 193.518 600.584C192.846 600.2 192.318 599.667 191.934 598.984C191.55 598.291 191.358 597.491 191.358 596.584C191.358 595.688 191.555 594.893 191.95 594.2C192.345 593.507 192.883 592.973 193.566 592.6C194.249 592.227 195.011 592.04 195.854 592.04C196.697 592.04 197.459 592.227 198.142 592.6C198.825 592.973 199.363 593.507 199.758 594.2C200.153 594.893 200.35 595.688 200.35 596.584C200.35 597.48 200.147 598.275 199.742 598.968C199.337 599.661 198.782 600.2 198.078 600.584C197.385 600.957 196.617 601.144 195.774 601.144ZM195.774 599.56C196.243 599.56 196.681 599.448 197.086 599.224C197.502 599 197.838 598.664 198.094 598.216C198.35 597.768 198.478 597.224 198.478 596.584C198.478 595.944 198.355 595.405 198.11 594.968C197.865 594.52 197.539 594.184 197.134 593.96C196.729 593.736 196.291 593.624 195.822 593.624C195.353 593.624 194.915 593.736 194.51 593.96C194.115 594.184 193.801 594.52 193.566 594.968C193.331 595.405 193.214 595.944 193.214 596.584C193.214 597.533 193.454 598.269 193.934 598.792C194.425 599.304 195.038 599.56 195.774 599.56ZM210.137 592.184V601H208.313V599.96C208.025 600.323 207.646 600.611 207.177 600.824C206.718 601.027 206.228 601.128 205.705 601.128C205.012 601.128 204.388 600.984 203.833 600.696C203.289 600.408 202.857 599.981 202.537 599.416C202.228 598.851 202.073 598.168 202.073 597.368V592.184H203.881V597.096C203.881 597.885 204.078 598.493 204.473 598.92C204.868 599.336 205.406 599.544 206.089 599.544C206.772 599.544 207.31 599.336 207.705 598.92C208.11 598.493 208.313 597.885 208.313 597.096V592.184H210.137ZM220.252 592.04C220.935 592.04 221.537 592.179 222.06 592.456C222.593 592.723 223.009 593.059 223.308 593.464V592.184H225.148V601.144C225.148 601.955 224.977 602.675 224.636 603.304C224.295 603.944 223.799 604.445 223.148 604.808C222.508 605.171 221.74 605.352 220.844 605.352C219.649 605.352 218.657 605.069 217.868 604.504C217.079 603.949 216.631 603.192 216.524 602.232H218.332C218.471 602.691 218.764 603.059 219.212 603.336C219.671 603.624 220.215 603.768 220.844 603.768C221.58 603.768 222.172 603.544 222.62 603.096C223.079 602.648 223.308 601.997 223.308 601.144V599.672C222.999 600.088 222.577 600.44 222.044 600.728C221.521 601.005 220.924 601.144 220.252 601.144C219.484 601.144 218.78 600.952 218.14 600.568C217.511 600.173 217.009 599.629 216.636 598.936C216.273 598.232 216.092 597.437 216.092 596.552C216.092 595.667 216.273 594.883 216.636 594.2C217.009 593.517 217.511 592.989 218.14 592.616C218.78 592.232 219.484 592.04 220.252 592.04ZM223.308 596.584C223.308 595.976 223.18 595.448 222.924 595C222.679 594.552 222.353 594.211 221.948 593.976C221.543 593.741 221.105 593.624 220.636 593.624C220.167 593.624 219.729 593.741 219.324 593.976C218.919 594.2 218.588 594.536 218.332 594.984C218.087 595.421 217.964 595.944 217.964 596.552C217.964 597.16 218.087 597.693 218.332 598.152C218.588 598.611 218.919 598.963 219.324 599.208C219.74 599.443 220.177 599.56 220.636 599.56C221.105 599.56 221.543 599.443 221.948 599.208C222.353 598.973 222.679 598.632 222.924 598.184C223.18 597.725 223.308 597.192 223.308 596.584ZM231.368 601.144C230.536 601.144 229.784 600.957 229.112 600.584C228.44 600.2 227.912 599.667 227.528 598.984C227.144 598.291 226.952 597.491 226.952 596.584C226.952 595.688 227.149 594.893 227.544 594.2C227.938 593.507 228.477 592.973 229.16 592.6C229.842 592.227 230.605 592.04 231.448 592.04C232.29 592.04 233.053 592.227 233.736 592.6C234.418 592.973 234.957 593.507 235.352 594.2C235.746 594.893 235.944 595.688 235.944 596.584C235.944 597.48 235.741 598.275 235.336 598.968C234.93 599.661 234.376 600.2 233.672 600.584C232.978 600.957 232.21 601.144 231.368 601.144ZM231.368 599.56C231.837 599.56 232.274 599.448 232.68 599.224C233.096 599 233.432 598.664 233.688 598.216C233.944 597.768 234.072 597.224 234.072 596.584C234.072 595.944 233.949 595.405 233.704 594.968C233.458 594.52 233.133 594.184 232.728 593.96C232.322 593.736 231.885 593.624 231.416 593.624C230.946 593.624 230.509 593.736 230.104 593.96C229.709 594.184 229.394 594.52 229.16 594.968C228.925 595.405 228.808 595.944 228.808 596.584C228.808 597.533 229.048 598.269 229.528 598.792C230.018 599.304 230.632 599.56 231.368 599.56ZM240.739 589.72C241.827 589.72 242.696 590.019 243.347 590.616C244.008 591.213 244.339 592.029 244.339 593.064C244.339 594.141 243.998 594.952 243.315 595.496C242.632 596.04 241.726 596.312 240.595 596.312L240.531 597.576H238.947L238.867 595.064H239.395C240.43 595.064 241.219 594.925 241.763 594.648C242.318 594.371 242.595 593.843 242.595 593.064C242.595 592.499 242.43 592.056 242.099 591.736C241.779 591.416 241.331 591.256 240.755 591.256C240.179 591.256 239.726 591.411 239.395 591.72C239.064 592.029 238.899 592.461 238.899 593.016H237.187C237.187 592.376 237.331 591.805 237.619 591.304C237.907 590.803 238.318 590.413 238.851 590.136C239.395 589.859 240.024 589.72 240.739 589.72ZM239.715 601.112C239.384 601.112 239.107 601 238.883 600.776C238.659 600.552 238.547 600.275 238.547 599.944C238.547 599.613 238.659 599.336 238.883 599.112C239.107 598.888 239.384 598.776 239.715 598.776C240.035 598.776 240.307 598.888 240.531 599.112C240.755 599.336 240.867 599.613 240.867 599.944C240.867 600.275 240.755 600.552 240.531 600.776C240.307 601 240.035 601.112 239.715 601.112Z" fill="#A0A0A0"/>
<rect x="28.5" y="638.5" width="335" height="47" rx="7.5" fill="#E2F5ED" stroke="#8AD4B5"/>
<rect x="195" y="638" width="168" height="48" rx="8" fill="#008955"/>
<path d="M80.8371 655.88V657.368H77.8771V667H76.0531V657.368H73.0771V655.88H80.8371ZM84.5084 659.464C84.775 659.016 85.127 658.669 85.5644 658.424C86.0124 658.168 86.5404 658.04 87.1484 658.04V659.928H86.6844C85.9697 659.928 85.4257 660.109 85.0524 660.472C84.6897 660.835 84.5084 661.464 84.5084 662.36V667H82.6844V658.184H84.5084V659.464ZM88.217 662.552C88.217 661.667 88.3983 660.883 88.761 660.2C89.1343 659.517 89.6357 658.989 90.265 658.616C90.905 658.232 91.609 658.04 92.377 658.04C93.0703 658.04 93.673 658.179 94.185 658.456C94.7077 658.723 95.1237 659.059 95.433 659.464V658.184H97.273V667H95.433V665.688C95.1237 666.104 94.7023 666.451 94.169 666.728C93.6357 667.005 93.0277 667.144 92.345 667.144C91.5877 667.144 90.8943 666.952 90.265 666.568C89.6357 666.173 89.1343 665.629 88.761 664.936C88.3983 664.232 88.217 663.437 88.217 662.552ZM95.433 662.584C95.433 661.976 95.305 661.448 95.049 661C94.8037 660.552 94.4783 660.211 94.073 659.976C93.6677 659.741 93.2303 659.624 92.761 659.624C92.2917 659.624 91.8543 659.741 91.449 659.976C91.0437 660.2 90.713 660.536 90.457 660.984C90.2117 661.421 90.089 661.944 90.089 662.552C90.089 663.16 90.2117 663.693 90.457 664.152C90.713 664.611 91.0437 664.963 91.449 665.208C91.865 665.443 92.3023 665.56 92.761 665.56C93.2303 665.56 93.6677 665.443 94.073 665.208C94.4783 664.973 94.8037 664.632 95.049 664.184C95.305 663.725 95.433 663.192 95.433 662.584ZM104.117 658.04C104.81 658.04 105.429 658.184 105.973 658.472C106.527 658.76 106.959 659.187 107.269 659.752C107.578 660.317 107.733 661 107.733 661.8V667H105.925V662.072C105.925 661.283 105.727 660.68 105.333 660.264C104.938 659.837 104.399 659.624 103.717 659.624C103.034 659.624 102.49 659.837 102.085 660.264C101.69 660.68 101.493 661.283 101.493 662.072V667H99.6688V658.184H101.493V659.192C101.791 658.829 102.17 658.547 102.629 658.344C103.098 658.141 103.594 658.04 104.117 658.04ZM113.259 667.144C112.566 667.144 111.942 667.021 111.387 666.776C110.843 666.52 110.411 666.179 110.091 665.752C109.771 665.315 109.601 664.829 109.579 664.296H111.467C111.499 664.669 111.675 664.984 111.995 665.24C112.326 665.485 112.737 665.608 113.227 665.608C113.739 665.608 114.134 665.512 114.411 665.32C114.699 665.117 114.843 664.861 114.843 664.552C114.843 664.221 114.683 663.976 114.363 663.816C114.054 663.656 113.558 663.48 112.875 663.288C112.214 663.107 111.675 662.931 111.259 662.76C110.843 662.589 110.481 662.328 110.171 661.976C109.873 661.624 109.723 661.16 109.723 660.584C109.723 660.115 109.862 659.688 110.139 659.304C110.417 658.909 110.811 658.6 111.323 658.376C111.846 658.152 112.443 658.04 113.115 658.04C114.118 658.04 114.923 658.296 115.531 658.808C116.15 659.309 116.481 659.997 116.523 660.872H114.699C114.667 660.477 114.507 660.163 114.219 659.928C113.931 659.693 113.542 659.576 113.051 659.576C112.571 659.576 112.203 659.667 111.947 659.848C111.691 660.029 111.563 660.269 111.563 660.568C111.563 660.803 111.649 661 111.819 661.16C111.99 661.32 112.198 661.448 112.443 661.544C112.689 661.629 113.051 661.741 113.531 661.88C114.171 662.051 114.694 662.227 115.099 662.408C115.515 662.579 115.873 662.835 116.171 663.176C116.47 663.517 116.625 663.971 116.635 664.536C116.635 665.037 116.497 665.485 116.219 665.88C115.942 666.275 115.547 666.584 115.035 666.808C114.534 667.032 113.942 667.144 113.259 667.144ZM120.43 659.48C120.74 659.075 121.161 658.733 121.694 658.456C122.228 658.179 122.83 658.04 123.502 658.04C124.27 658.04 124.969 658.232 125.598 658.616C126.238 658.989 126.74 659.517 127.102 660.2C127.465 660.883 127.646 661.667 127.646 662.552C127.646 663.437 127.465 664.232 127.102 664.936C126.74 665.629 126.238 666.173 125.598 666.568C124.969 666.952 124.27 667.144 123.502 667.144C122.83 667.144 122.233 667.011 121.71 666.744C121.188 666.467 120.761 666.125 120.43 665.72V671.192H118.606V658.184H120.43V659.48ZM125.79 662.552C125.79 661.944 125.662 661.421 125.406 660.984C125.161 660.536 124.83 660.2 124.414 659.976C124.009 659.741 123.572 659.624 123.102 659.624C122.644 659.624 122.206 659.741 121.79 659.976C121.385 660.211 121.054 660.552 120.798 661C120.553 661.448 120.43 661.976 120.43 662.584C120.43 663.192 120.553 663.725 120.798 664.184C121.054 664.632 121.385 664.973 121.79 665.208C122.206 665.443 122.644 665.56 123.102 665.56C123.572 665.56 124.009 665.443 124.414 665.208C124.83 664.963 125.161 664.611 125.406 664.152C125.662 663.693 125.79 663.16 125.79 662.552ZM133.274 667.144C132.442 667.144 131.69 666.957 131.018 666.584C130.346 666.2 129.818 665.667 129.434 664.984C129.05 664.291 128.858 663.491 128.858 662.584C128.858 661.688 129.055 660.893 129.45 660.2C129.845 659.507 130.383 658.973 131.066 658.6C131.749 658.227 132.511 658.04 133.354 658.04C134.197 658.04 134.959 658.227 135.642 658.6C136.325 658.973 136.863 659.507 137.258 660.2C137.653 660.893 137.85 661.688 137.85 662.584C137.85 663.48 137.647 664.275 137.242 664.968C136.837 665.661 136.282 666.2 135.578 666.584C134.885 666.957 134.117 667.144 133.274 667.144ZM133.274 665.56C133.743 665.56 134.181 665.448 134.586 665.224C135.002 665 135.338 664.664 135.594 664.216C135.85 663.768 135.978 663.224 135.978 662.584C135.978 661.944 135.855 661.405 135.61 660.968C135.365 660.52 135.039 660.184 134.634 659.96C134.229 659.736 133.791 659.624 133.322 659.624C132.853 659.624 132.415 659.736 132.01 659.96C131.615 660.184 131.301 660.52 131.066 660.968C130.831 661.405 130.714 661.944 130.714 662.584C130.714 663.533 130.954 664.269 131.434 664.792C131.925 665.304 132.538 665.56 133.274 665.56ZM141.477 659.464C141.744 659.016 142.096 658.669 142.533 658.424C142.981 658.168 143.509 658.04 144.117 658.04V659.928H143.653C142.938 659.928 142.394 660.109 142.021 660.472C141.658 660.835 141.477 661.464 141.477 662.36V667H139.653V658.184H141.477V659.464ZM147.922 659.672V664.552C147.922 664.883 147.996 665.123 148.146 665.272C148.306 665.411 148.572 665.48 148.946 665.48H150.066V667H148.626C147.804 667 147.175 666.808 146.738 666.424C146.3 666.04 146.082 665.416 146.082 664.552V659.672H145.042V658.184H146.082V655.992H147.922V658.184H150.066V659.672H147.922Z" fill="#414141"/>
<path d="M252.23 655.88C253.414 655.88 254.449 656.109 255.334 656.568C256.23 657.016 256.918 657.667 257.398 658.52C257.889 659.363 258.134 660.349 258.134 661.48C258.134 662.611 257.889 663.592 257.398 664.424C256.918 665.256 256.23 665.896 255.334 666.344C254.449 666.781 253.414 667 252.23 667H248.598V655.88H252.23ZM252.23 665.512C253.532 665.512 254.529 665.16 255.222 664.456C255.916 663.752 256.262 662.76 256.262 661.48C256.262 660.189 255.916 659.181 255.222 658.456C254.529 657.731 253.532 657.368 252.23 657.368H250.422V665.512H252.23ZM268.022 662.376C268.022 662.707 268.001 663.005 267.958 663.272H261.222C261.276 663.976 261.537 664.541 262.006 664.968C262.476 665.395 263.052 665.608 263.734 665.608C264.716 665.608 265.409 665.197 265.814 664.376H267.782C267.516 665.187 267.03 665.853 266.326 666.376C265.633 666.888 264.769 667.144 263.734 667.144C262.892 667.144 262.134 666.957 261.462 666.584C260.801 666.2 260.278 665.667 259.894 664.984C259.521 664.291 259.334 663.491 259.334 662.584C259.334 661.677 259.516 660.883 259.878 660.2C260.252 659.507 260.769 658.973 261.43 658.6C262.102 658.227 262.87 658.04 263.734 658.04C264.566 658.04 265.308 658.221 265.958 658.584C266.609 658.947 267.116 659.459 267.478 660.12C267.841 660.771 268.022 661.523 268.022 662.376ZM266.118 661.8C266.108 661.128 265.868 660.589 265.398 660.184C264.929 659.779 264.348 659.576 263.654 659.576C263.025 659.576 262.486 659.779 262.038 660.184C261.59 660.579 261.324 661.117 261.238 661.8H266.118ZM271.641 655.16V667H269.817V655.16H271.641ZM274.964 657.016C274.633 657.016 274.356 656.904 274.132 656.68C273.908 656.456 273.796 656.179 273.796 655.848C273.796 655.517 273.908 655.24 274.132 655.016C274.356 654.792 274.633 654.68 274.964 654.68C275.284 654.68 275.556 654.792 275.78 655.016C276.004 655.24 276.116 655.517 276.116 655.848C276.116 656.179 276.004 656.456 275.78 656.68C275.556 656.904 275.284 657.016 274.964 657.016ZM275.86 658.184V667H274.036V658.184H275.86ZM281.663 665.368L284.159 658.184H286.095L282.735 667H280.559L277.215 658.184H279.167L281.663 665.368ZM295.553 662.376C295.553 662.707 295.532 663.005 295.489 663.272H288.753C288.807 663.976 289.068 664.541 289.537 664.968C290.007 665.395 290.583 665.608 291.265 665.608C292.247 665.608 292.94 665.197 293.345 664.376H295.313C295.047 665.187 294.561 665.853 293.857 666.376C293.164 666.888 292.3 667.144 291.265 667.144C290.423 667.144 289.665 666.957 288.993 666.584C288.332 666.2 287.809 665.667 287.425 664.984C287.052 664.291 286.865 663.491 286.865 662.584C286.865 661.677 287.047 660.883 287.409 660.2C287.783 659.507 288.3 658.973 288.961 658.6C289.633 658.227 290.401 658.04 291.265 658.04C292.097 658.04 292.839 658.221 293.489 658.584C294.14 658.947 294.647 659.459 295.009 660.12C295.372 660.771 295.553 661.523 295.553 662.376ZM293.649 661.8C293.639 661.128 293.399 660.589 292.929 660.184C292.46 659.779 291.879 659.576 291.185 659.576C290.556 659.576 290.017 659.779 289.569 660.184C289.121 660.579 288.855 661.117 288.769 661.8H293.649ZM299.172 659.464C299.439 659.016 299.791 658.669 300.228 658.424C300.676 658.168 301.204 658.04 301.812 658.04V659.928H301.348C300.634 659.928 300.09 660.109 299.716 660.472C299.354 660.835 299.172 661.464 299.172 662.36V667H297.348V658.184H299.172V659.464ZM311.425 658.184L306.017 671.144H304.129L305.921 666.856L302.449 658.184H304.481L306.961 664.904L309.537 658.184H311.425Z" fill="white"/>
</g>
<defs>
<clipPath id="clip0_60_3058">
<rect width="393" height="852" fill="white"/>
</clipPath>
</defs>
</svg>
