<svg width="393" height="899" viewBox="0 0 393 899" fill="none" xmlns="http://www.w3.org/2000/svg">
<g clip-path="url(#clip0_63_7378)">
<rect width="393" height="899" fill="white"/>
<path opacity="0.35" d="M354.834 22.6696C354.834 21.473 355.804 20.5029 357.001 20.5029H373.667C374.864 20.5029 375.834 21.473 375.834 22.6696V28.6696C375.834 29.8662 374.864 30.8363 373.667 30.8363H357.001C355.804 30.8363 354.834 29.8662 354.834 28.6696V22.6696Z" stroke="#141414"/>
<path opacity="0.4" d="M377.334 23.6694V27.6694C378.139 27.3307 378.662 26.5426 378.662 25.6694C378.662 24.7963 378.139 24.0082 377.334 23.6694Z" fill="#141414"/>
<path d="M356.334 23.3363C356.334 22.5999 356.931 22.0029 357.667 22.0029H373.001C373.737 22.0029 374.334 22.5999 374.334 23.3363V28.0029C374.334 28.7393 373.737 29.3363 373.001 29.3363H357.667C356.931 29.3363 356.334 28.7393 356.334 28.0029V23.3363Z" fill="#141414"/>
<path fill-rule="evenodd" clip-rule="evenodd" d="M341.664 22.2773C343.88 22.2774 346.011 23.1289 347.617 24.6557C347.738 24.7735 347.931 24.772 348.05 24.6523L349.206 23.4857C349.267 23.4249 349.3 23.3427 349.3 23.2571C349.299 23.1715 349.265 23.0897 349.204 23.0297C344.989 18.9901 338.339 18.9901 334.124 23.0297C334.063 23.0896 334.028 23.1715 334.027 23.257C334.027 23.3426 334.06 23.4249 334.121 23.4857L335.277 24.6523C335.396 24.7722 335.589 24.7737 335.71 24.6557C337.316 23.1288 339.448 22.2773 341.664 22.2773ZM341.665 26.073C342.882 26.0729 344.056 26.5255 344.959 27.3427C345.081 27.4587 345.273 27.4562 345.392 27.337L346.547 26.1704C346.608 26.1092 346.641 26.0261 346.64 25.9399C346.64 25.8536 346.604 25.7713 346.542 25.7114C343.794 23.155 339.538 23.155 336.79 25.7114C336.728 25.7713 336.692 25.8537 336.691 25.9399C336.691 26.0262 336.724 26.1092 336.785 26.1704L337.94 27.337C338.059 27.4562 338.251 27.4587 338.373 27.3427C339.275 26.526 340.448 26.0735 341.665 26.073ZM343.978 28.6268C343.98 28.7133 343.946 28.7967 343.884 28.8573L341.886 30.873C341.828 30.9323 341.748 30.9656 341.665 30.9656C341.582 30.9656 341.502 30.9323 341.443 30.873L339.445 28.8573C339.384 28.7967 339.35 28.7133 339.352 28.6268C339.353 28.5403 339.391 28.4583 339.455 28.4003C340.731 27.3215 342.599 27.3215 343.874 28.4003C343.939 28.4584 343.976 28.5403 343.978 28.6268Z" fill="#141414"/>
<path fill-rule="evenodd" clip-rule="evenodd" d="M328 20.3359H327C326.448 20.3359 326 20.7837 326 21.3359V30.0026C326 30.5549 326.448 31.0026 327 31.0026H328C328.552 31.0026 329 30.5549 329 30.0026V21.3359C329 20.7837 328.552 20.3359 328 20.3359ZM322.334 22.6693H323.334C323.886 22.6693 324.334 23.117 324.334 23.6693V30.0026C324.334 30.5549 323.886 31.0026 323.334 31.0026H322.334C321.782 31.0026 321.334 30.5549 321.334 30.0026V23.6693C321.334 23.117 321.782 22.6693 322.334 22.6693ZM318.666 25.0026H317.666C317.114 25.0026 316.666 25.4503 316.666 26.0026V30.0026C316.666 30.5548 317.114 31.0026 317.666 31.0026H318.666C319.218 31.0026 319.666 30.5548 319.666 30.0026V26.0026C319.666 25.4503 319.218 25.0026 318.666 25.0026ZM314 27.0026H313C312.448 27.0026 312 27.4503 312 28.0026V30.0026C312 30.5549 312.448 31.0026 313 31.0026H314C314.552 31.0026 315 30.5549 315 30.0026V28.0026C315 27.4503 314.552 27.0026 314 27.0026Z" fill="#141414"/>
<path d="M19.3203 32.2563C22.0083 32.2563 23.605 30.1543 23.605 26.5947C23.605 25.2544 23.3486 24.1265 22.8579 23.2549C22.1475 21.8999 20.9243 21.1675 19.3789 21.1675C17.0791 21.1675 15.4531 22.7129 15.4531 24.8809C15.4531 26.917 16.918 28.3965 18.9321 28.3965C20.1699 28.3965 21.1733 27.8179 21.6714 26.8145H21.6934C21.6934 26.8145 21.7227 26.8145 21.73 26.8145C21.7446 26.8145 21.7959 26.8145 21.7959 26.8145C21.7959 29.2314 20.8804 30.6743 19.335 30.6743C18.4268 30.6743 17.7236 30.1763 17.4819 29.3779H15.5996C15.9146 31.1138 17.3867 32.2563 19.3203 32.2563ZM19.3862 26.895C18.1704 26.895 17.3062 26.0308 17.3062 24.8223C17.3062 23.6431 18.2144 22.7422 19.3936 22.7422C20.5728 22.7422 21.481 23.6577 21.481 24.8516C21.481 26.0308 20.5947 26.895 19.3862 26.895Z" fill="#141414"/>
<path d="M26.6961 32.1538C27.3919 32.1538 27.868 31.6558 27.868 30.9966C27.868 30.3301 27.3919 29.8394 26.6961 29.8394C26.0076 29.8394 25.5242 30.3301 25.5242 30.9966C25.5242 31.6558 26.0076 32.1538 26.6961 32.1538ZM26.6961 26.6606C27.3919 26.6606 27.868 26.1699 27.868 25.5107C27.868 24.8442 27.3919 24.3535 26.6961 24.3535C26.0076 24.3535 25.5242 24.8442 25.5242 25.5107C25.5242 26.1699 26.0076 26.6606 26.6961 26.6606Z" fill="#141414"/>
<path d="M34.7237 32H36.5328V30.0298H37.961V28.4331H36.5328V21.4312H33.8668C31.9991 24.2437 30.5123 26.5947 29.5602 28.3452V30.0298H34.7237V32ZM31.3106 28.3672C32.5411 26.1992 33.6397 24.4634 34.6505 22.9692H34.753V28.4771H31.3106V28.3672Z" fill="#141414"/>
<path d="M41.9896 32H43.8793V21.4312H41.997L39.2357 23.3647V25.1812L41.8651 23.3354H41.9896V32Z" fill="#141414"/>
<path d="M23 80.7498C22.808 80.7498 22.616 80.6768 22.47 80.5298L15.47 73.5298C15.177 73.2368 15.177 72.7618 15.47 72.4688L22.47 65.4688C22.763 65.1758 23.238 65.1758 23.531 65.4688C23.824 65.7618 23.824 66.2368 23.531 66.5298L17.0611 72.9998L23.531 79.4698C23.824 79.7628 23.824 80.2378 23.531 80.5308C23.384 80.6768 23.192 80.7498 23 80.7498Z" fill="#2A2A2A"/>
<path d="M43.816 72.756C44.2213 72.82 44.5893 72.9853 44.92 73.252C45.2613 73.5187 45.528 73.8493 45.72 74.244C45.9227 74.6387 46.024 75.06 46.024 75.508C46.024 76.0733 45.88 76.5853 45.592 77.044C45.304 77.492 44.8827 77.8493 44.328 78.116C43.784 78.372 43.1387 78.5 42.392 78.5H38.232V67.348H42.232C42.9893 67.348 43.6347 67.476 44.168 67.732C44.7013 67.9773 45.1013 68.3133 45.368 68.74C45.6347 69.1667 45.768 69.6467 45.768 70.18C45.768 70.8413 45.5867 71.3907 45.224 71.828C44.872 72.2547 44.4027 72.564 43.816 72.756ZM39.688 72.164H42.136C42.8187 72.164 43.3467 72.004 43.72 71.684C44.0933 71.364 44.28 70.9213 44.28 70.356C44.28 69.7907 44.0933 69.348 43.72 69.028C43.3467 68.708 42.808 68.548 42.104 68.548H39.688V72.164ZM42.264 77.3C42.9893 77.3 43.5547 77.1293 43.96 76.788C44.3653 76.4467 44.568 75.972 44.568 75.364C44.568 74.7453 44.3547 74.26 43.928 73.908C43.5013 73.5453 42.9307 73.364 42.216 73.364H39.688V77.3H42.264ZM47.5005 74.084C47.5005 73.188 47.6818 72.404 48.0445 71.732C48.4072 71.0493 48.9032 70.5213 49.5325 70.148C50.1725 69.7747 50.8818 69.588 51.6605 69.588C52.4285 69.588 53.0952 69.7533 53.6605 70.084C54.2258 70.4147 54.6472 70.8307 54.9245 71.332V69.732H56.3965V78.5H54.9245V76.868C54.6365 77.38 54.2045 77.8067 53.6285 78.148C53.0632 78.4787 52.4018 78.644 51.6445 78.644C50.8658 78.644 50.1618 78.452 49.5325 78.068C48.9032 77.684 48.4072 77.1453 48.0445 76.452C47.6818 75.7587 47.5005 74.9693 47.5005 74.084ZM54.9245 74.1C54.9245 73.4387 54.7912 72.8627 54.5245 72.372C54.2578 71.8813 53.8952 71.508 53.4365 71.252C52.9885 70.9853 52.4925 70.852 51.9485 70.852C51.4045 70.852 50.9085 70.98 50.4605 71.236C50.0125 71.492 49.6552 71.8653 49.3885 72.356C49.1218 72.8467 48.9885 73.4227 48.9885 74.084C48.9885 74.756 49.1218 75.3427 49.3885 75.844C49.6552 76.3347 50.0125 76.7133 50.4605 76.98C50.9085 77.236 51.4045 77.364 51.9485 77.364C52.4925 77.364 52.9885 77.236 53.4365 76.98C53.8952 76.7133 54.2578 76.3347 54.5245 75.844C54.7912 75.3427 54.9245 74.7613 54.9245 74.1ZM58.313 74.1C58.313 73.1933 58.4943 72.404 58.857 71.732C59.2197 71.0493 59.721 70.5213 60.361 70.148C61.0117 69.7747 61.753 69.588 62.585 69.588C63.6623 69.588 64.5477 69.8493 65.241 70.372C65.945 70.8947 66.409 71.62 66.633 72.548H65.065C64.9157 72.0147 64.6223 71.5933 64.185 71.284C63.7583 70.9747 63.225 70.82 62.585 70.82C61.753 70.82 61.081 71.108 60.569 71.684C60.057 72.2493 59.801 73.0547 59.801 74.1C59.801 75.156 60.057 75.972 60.569 76.548C61.081 77.124 61.753 77.412 62.585 77.412C63.225 77.412 63.7583 77.2627 64.185 76.964C64.6117 76.6653 64.905 76.2387 65.065 75.684H66.633C66.3983 76.58 65.929 77.3 65.225 77.844C64.521 78.3773 63.641 78.644 62.585 78.644C61.753 78.644 61.0117 78.4573 60.361 78.084C59.721 77.7107 59.2197 77.1827 58.857 76.5C58.4943 75.8173 58.313 75.0173 58.313 74.1ZM73.4718 78.5L70.0318 74.628V78.5H68.5758V66.66H70.0318V73.62L73.4078 69.732H75.4398L71.3118 74.1L75.4558 78.5H73.4718Z" fill="#414141"/>
<rect x="26" y="811" width="340" height="54" rx="8" fill="#008955"/>
<path d="M144.358 837.916C144.358 836.828 144.608 835.852 145.11 834.988C145.622 834.124 146.31 833.452 147.174 832.972C148.048 832.481 149.003 832.236 150.038 832.236C151.222 832.236 152.272 832.529 153.19 833.116C154.118 833.692 154.79 834.513 155.206 835.58H153.014C152.726 834.993 152.326 834.556 151.814 834.268C151.302 833.98 150.71 833.836 150.038 833.836C149.302 833.836 148.646 834.001 148.07 834.332C147.494 834.663 147.04 835.137 146.71 835.756C146.39 836.375 146.23 837.095 146.23 837.916C146.23 838.737 146.39 839.457 146.71 840.076C147.04 840.695 147.494 841.175 148.07 841.516C148.646 841.847 149.302 842.012 150.038 842.012C150.71 842.012 151.302 841.868 151.814 841.58C152.326 841.292 152.726 840.855 153.014 840.268H155.206C154.79 841.335 154.118 842.156 153.19 842.732C152.272 843.308 151.222 843.596 150.038 843.596C148.992 843.596 148.038 843.356 147.174 842.876C146.31 842.385 145.622 841.708 145.11 840.844C144.608 839.98 144.358 839.004 144.358 837.916ZM161.165 843.644C160.333 843.644 159.581 843.457 158.909 843.084C158.237 842.7 157.709 842.167 157.325 841.484C156.941 840.791 156.749 839.991 156.749 839.084C156.749 838.188 156.946 837.393 157.341 836.7C157.735 836.007 158.274 835.473 158.957 835.1C159.639 834.727 160.402 834.54 161.245 834.54C162.087 834.54 162.85 834.727 163.533 835.1C164.215 835.473 164.754 836.007 165.149 836.7C165.543 837.393 165.741 838.188 165.741 839.084C165.741 839.98 165.538 840.775 165.133 841.468C164.727 842.161 164.173 842.7 163.469 843.084C162.775 843.457 162.007 843.644 161.165 843.644ZM161.165 842.06C161.634 842.06 162.071 841.948 162.477 841.724C162.893 841.5 163.229 841.164 163.485 840.716C163.741 840.268 163.869 839.724 163.869 839.084C163.869 838.444 163.746 837.905 163.501 837.468C163.255 837.02 162.93 836.684 162.525 836.46C162.119 836.236 161.682 836.124 161.213 836.124C160.743 836.124 160.306 836.236 159.901 836.46C159.506 836.684 159.191 837.02 158.957 837.468C158.722 837.905 158.605 838.444 158.605 839.084C158.605 840.033 158.845 840.769 159.325 841.292C159.815 841.804 160.429 842.06 161.165 842.06ZM171.992 834.54C172.685 834.54 173.304 834.684 173.848 834.972C174.402 835.26 174.834 835.687 175.144 836.252C175.453 836.817 175.608 837.5 175.608 838.3V843.5H173.8V838.572C173.8 837.783 173.602 837.18 173.208 836.764C172.813 836.337 172.274 836.124 171.592 836.124C170.909 836.124 170.365 836.337 169.96 836.764C169.565 837.18 169.368 837.783 169.368 838.572V843.5H167.544V834.684H169.368V835.692C169.666 835.329 170.045 835.047 170.504 834.844C170.973 834.641 171.469 834.54 171.992 834.54ZM181.63 836.172H179.998V843.5H178.158V836.172H177.118V834.684H178.158V834.06C178.158 833.047 178.425 832.311 178.958 831.852C179.502 831.383 180.35 831.148 181.502 831.148V832.668C180.948 832.668 180.558 832.775 180.334 832.988C180.11 833.191 179.998 833.548 179.998 834.06V834.684H181.63V836.172ZM184.175 833.516C183.844 833.516 183.567 833.404 183.343 833.18C183.119 832.956 183.007 832.679 183.007 832.348C183.007 832.017 183.119 831.74 183.343 831.516C183.567 831.292 183.844 831.18 184.175 831.18C184.495 831.18 184.767 831.292 184.991 831.516C185.215 831.74 185.327 832.017 185.327 832.348C185.327 832.679 185.215 832.956 184.991 833.18C184.767 833.404 184.495 833.516 184.175 833.516ZM185.071 834.684V843.5H183.247V834.684H185.071ZM189.29 835.964C189.556 835.516 189.908 835.169 190.346 834.924C190.794 834.668 191.322 834.54 191.93 834.54V836.428H191.466C190.751 836.428 190.207 836.609 189.834 836.972C189.471 837.335 189.29 837.964 189.29 838.86V843.5H187.466V834.684H189.29V835.964ZM204.278 834.54C204.972 834.54 205.59 834.684 206.134 834.972C206.689 835.26 207.121 835.687 207.43 836.252C207.75 836.817 207.91 837.5 207.91 838.3V843.5H206.102V838.572C206.102 837.783 205.905 837.18 205.51 836.764C205.116 836.337 204.577 836.124 203.894 836.124C203.212 836.124 202.668 836.337 202.262 836.764C201.868 837.18 201.67 837.783 201.67 838.572V843.5H199.862V838.572C199.862 837.783 199.665 837.18 199.27 836.764C198.876 836.337 198.337 836.124 197.654 836.124C196.972 836.124 196.428 836.337 196.022 836.764C195.628 837.18 195.43 837.783 195.43 838.572V843.5H193.606V834.684H195.43V835.692C195.729 835.329 196.108 835.047 196.566 834.844C197.025 834.641 197.516 834.54 198.038 834.54C198.742 834.54 199.372 834.689 199.926 834.988C200.481 835.287 200.908 835.719 201.206 836.284C201.473 835.751 201.889 835.329 202.454 835.02C203.02 834.7 203.628 834.54 204.278 834.54ZM220.164 843.5L217.604 839.052H216.212V843.5H214.388V832.38H218.228C219.081 832.38 219.801 832.529 220.388 832.828C220.985 833.127 221.428 833.527 221.716 834.028C222.014 834.529 222.164 835.089 222.164 835.708C222.164 836.433 221.95 837.095 221.524 837.692C221.108 838.279 220.462 838.679 219.588 838.892L222.34 843.5H220.164ZM216.212 837.596H218.228C218.91 837.596 219.422 837.425 219.764 837.084C220.116 836.743 220.292 836.284 220.292 835.708C220.292 835.132 220.121 834.684 219.78 834.364C219.438 834.033 218.921 833.868 218.228 833.868H216.212V837.596ZM225.425 833.516C225.094 833.516 224.817 833.404 224.593 833.18C224.369 832.956 224.257 832.679 224.257 832.348C224.257 832.017 224.369 831.74 224.593 831.516C224.817 831.292 225.094 831.18 225.425 831.18C225.745 831.18 226.017 831.292 226.241 831.516C226.465 831.74 226.577 832.017 226.577 832.348C226.577 832.679 226.465 832.956 226.241 833.18C226.017 833.404 225.745 833.516 225.425 833.516ZM226.321 834.684V843.5H224.497V834.684H226.321ZM228.108 839.052C228.108 838.167 228.289 837.383 228.652 836.7C229.025 836.017 229.526 835.489 230.156 835.116C230.796 834.732 231.505 834.54 232.284 834.54C232.86 834.54 233.425 834.668 233.98 834.924C234.545 835.169 234.993 835.5 235.324 835.916V831.66H237.164V843.5H235.324V842.172C235.025 842.599 234.609 842.951 234.076 843.228C233.553 843.505 232.95 843.644 232.268 843.644C231.5 843.644 230.796 843.452 230.156 843.068C229.526 842.673 229.025 842.129 228.652 841.436C228.289 840.732 228.108 839.937 228.108 839.052ZM235.324 839.084C235.324 838.476 235.196 837.948 234.94 837.5C234.694 837.052 234.369 836.711 233.964 836.476C233.558 836.241 233.121 836.124 232.652 836.124C232.182 836.124 231.745 836.241 231.34 836.476C230.934 836.7 230.604 837.036 230.348 837.484C230.102 837.921 229.98 838.444 229.98 839.052C229.98 839.66 230.102 840.193 230.348 840.652C230.604 841.111 230.934 841.463 231.34 841.708C231.756 841.943 232.193 842.06 232.652 842.06C233.121 842.06 233.558 841.943 233.964 841.708C234.369 841.473 234.694 841.132 234.94 840.684C235.196 840.225 235.324 839.692 235.324 839.084ZM247.639 838.876C247.639 839.207 247.618 839.505 247.575 839.772H240.839C240.893 840.476 241.154 841.041 241.623 841.468C242.093 841.895 242.669 842.108 243.351 842.108C244.333 842.108 245.026 841.697 245.431 840.876H247.399C247.133 841.687 246.647 842.353 245.943 842.876C245.25 843.388 244.386 843.644 243.351 843.644C242.509 843.644 241.751 843.457 241.079 843.084C240.418 842.7 239.895 842.167 239.511 841.484C239.138 840.791 238.951 839.991 238.951 839.084C238.951 838.177 239.133 837.383 239.495 836.7C239.869 836.007 240.386 835.473 241.047 835.1C241.719 834.727 242.487 834.54 243.351 834.54C244.183 834.54 244.925 834.721 245.575 835.084C246.226 835.447 246.733 835.959 247.095 836.62C247.458 837.271 247.639 838.023 247.639 838.876ZM245.735 838.3C245.725 837.628 245.485 837.089 245.015 836.684C244.546 836.279 243.965 836.076 243.271 836.076C242.642 836.076 242.103 836.279 241.655 836.684C241.207 837.079 240.941 837.617 240.855 838.3H245.735Z" fill="white"/>
<path d="M154.744 401.1V402.96H151.044V415H148.764V402.96H145.044V401.1H154.744ZM162.753 403.8C163.593 403.8 164.339 403.98 164.993 404.34C165.659 404.7 166.179 405.233 166.553 405.94C166.939 406.647 167.133 407.5 167.133 408.5V415H164.873V408.84C164.873 407.853 164.626 407.1 164.133 406.58C163.639 406.047 162.966 405.78 162.113 405.78C161.259 405.78 160.579 406.047 160.073 406.58C159.579 407.1 159.333 407.853 159.333 408.84V415H157.053V400.2H159.333V405.26C159.719 404.793 160.206 404.433 160.793 404.18C161.393 403.927 162.046 403.8 162.753 403.8ZM169.281 409.44C169.281 408.333 169.508 407.353 169.961 406.5C170.428 405.647 171.054 404.987 171.841 404.52C172.641 404.04 173.521 403.8 174.481 403.8C175.348 403.8 176.101 403.973 176.741 404.32C177.394 404.653 177.914 405.073 178.301 405.58V403.98H180.601V415H178.301V413.36C177.914 413.88 177.388 414.313 176.721 414.66C176.054 415.007 175.294 415.18 174.441 415.18C173.494 415.18 172.628 414.94 171.841 414.46C171.054 413.967 170.428 413.287 169.961 412.42C169.508 411.54 169.281 410.547 169.281 409.44ZM178.301 409.48C178.301 408.72 178.141 408.06 177.821 407.5C177.514 406.94 177.108 406.513 176.601 406.22C176.094 405.927 175.548 405.78 174.961 405.78C174.374 405.78 173.828 405.927 173.321 406.22C172.814 406.5 172.401 406.92 172.081 407.48C171.774 408.027 171.621 408.68 171.621 409.44C171.621 410.2 171.774 410.867 172.081 411.44C172.401 412.013 172.814 412.453 173.321 412.76C173.841 413.053 174.388 413.2 174.961 413.2C175.548 413.2 176.094 413.053 176.601 412.76C177.108 412.467 177.514 412.04 177.821 411.48C178.141 410.907 178.301 410.24 178.301 409.48ZM189.156 403.8C190.022 403.8 190.796 403.98 191.476 404.34C192.169 404.7 192.709 405.233 193.096 405.94C193.482 406.647 193.676 407.5 193.676 408.5V415H191.416V408.84C191.416 407.853 191.169 407.1 190.676 406.58C190.182 406.047 189.509 405.78 188.656 405.78C187.802 405.78 187.122 406.047 186.616 406.58C186.122 407.1 185.876 407.853 185.876 408.84V415H183.596V403.98H185.876V405.24C186.249 404.787 186.722 404.433 187.296 404.18C187.882 403.927 188.502 403.8 189.156 403.8ZM200.944 409.5L206.024 415H202.944L198.864 410.26V415H196.584V400.2H198.864V408.8L202.864 403.98H206.024L200.944 409.5ZM222.774 403.98L216.014 420.18H213.654L215.894 414.82L211.554 403.98H214.094L217.194 412.38L220.414 403.98H222.774ZM229.274 415.18C228.234 415.18 227.294 414.947 226.454 414.48C225.614 414 224.954 413.333 224.474 412.48C223.994 411.613 223.754 410.613 223.754 409.48C223.754 408.36 224.001 407.367 224.494 406.5C224.987 405.633 225.661 404.967 226.514 404.5C227.367 404.033 228.321 403.8 229.374 403.8C230.427 403.8 231.381 404.033 232.234 404.5C233.087 404.967 233.761 405.633 234.254 406.5C234.747 407.367 234.994 408.36 234.994 409.48C234.994 410.6 234.741 411.593 234.234 412.46C233.727 413.327 233.034 414 232.154 414.48C231.287 414.947 230.327 415.18 229.274 415.18ZM229.274 413.2C229.861 413.2 230.407 413.06 230.914 412.78C231.434 412.5 231.854 412.08 232.174 411.52C232.494 410.96 232.654 410.28 232.654 409.48C232.654 408.68 232.501 408.007 232.194 407.46C231.887 406.9 231.481 406.48 230.974 406.2C230.467 405.92 229.921 405.78 229.334 405.78C228.747 405.78 228.201 405.92 227.694 406.2C227.201 406.48 226.807 406.9 226.514 407.46C226.221 408.007 226.074 408.68 226.074 409.48C226.074 410.667 226.374 411.587 226.974 412.24C227.587 412.88 228.354 413.2 229.274 413.2ZM247.228 403.98V415H244.948V413.7C244.588 414.153 244.115 414.513 243.528 414.78C242.955 415.033 242.341 415.16 241.688 415.16C240.821 415.16 240.041 414.98 239.348 414.62C238.668 414.26 238.128 413.727 237.728 413.02C237.341 412.313 237.148 411.46 237.148 410.46V403.98H239.408V410.12C239.408 411.107 239.655 411.867 240.148 412.4C240.641 412.92 241.315 413.18 242.168 413.18C243.021 413.18 243.695 412.92 244.188 412.4C244.695 411.867 244.948 411.107 244.948 410.12V403.98H247.228Z" fill="#5A5A5A"/>
<path d="M183.978 253.749C190.327 244.75 203.673 244.75 210.022 253.749L210.43 254.327C213.977 259.355 220.1 261.891 226.163 260.844L226.86 260.724C237.713 258.85 247.15 268.287 245.276 279.14L245.156 279.837C244.109 285.9 246.645 292.023 251.673 295.57L252.251 295.978C261.25 302.327 261.25 315.673 252.251 322.022L251.673 322.43C246.645 325.977 244.109 332.1 245.156 338.163L245.276 338.86C247.15 349.713 237.713 359.15 226.86 357.276L226.163 357.156C220.1 356.109 213.977 358.645 210.43 363.673L210.022 364.251C203.673 373.25 190.327 373.25 183.978 364.251L183.57 363.673C180.023 358.645 173.9 356.109 167.837 357.156L167.14 357.276C156.287 359.15 146.85 349.713 148.724 338.86L148.844 338.163C149.891 332.1 147.355 325.977 142.327 322.43L141.749 322.022C132.75 315.673 132.75 302.327 141.749 295.978L142.327 295.57C147.355 292.023 149.891 285.9 148.844 279.837L148.724 279.14C146.85 268.287 156.287 258.85 167.14 260.724L167.837 260.844C173.9 261.891 180.023 259.355 183.57 254.327L183.978 253.749Z" fill="#C8E6C9"/>
<rect width="86" height="86" transform="translate(154 266)" fill="#C8E6C9"/>
<path d="M186.234 330.604H186.239H186.239H186.239H186.239H186.239H186.239H186.239H186.24H186.24H186.24H186.24H186.24H186.24H186.24H186.24H186.24H186.24H186.24H186.24H186.24H186.24H186.24H186.24H186.24H186.24H186.24H186.24H186.24H186.24H186.24H186.24H186.241H186.241H186.241H186.241H186.241H186.241H186.241H186.241H186.241H186.241H186.241H186.241H186.241H186.241H186.241H186.241H186.241H186.241H186.241H186.241H186.241H186.241H186.241H186.241H186.242H186.242H186.242H186.242H186.242H186.242H186.242H186.242H186.242H186.242H186.242H186.242H186.242H186.242H186.242H186.242H186.242H186.242H186.242H186.242H186.242H186.242H186.242H186.242H186.243H186.243H186.243H186.243H186.243H186.243H186.243H186.243H186.243H186.243H186.243H186.243H186.243H186.243H186.243H186.243H186.243H186.243H186.243H186.243H186.243H186.243H186.243H186.244H186.244H186.244H186.244H186.244H186.244H186.244H186.244H186.244H186.244H186.244H186.244H186.244H186.244H186.244H186.244H186.244H186.244H186.244H186.244H186.244H186.244H186.244H186.244H186.245H186.245H186.245H186.245H186.245H186.245H186.245H186.245H186.245H186.245H186.245H186.245H186.245H186.245H186.245H186.245H186.245H186.245H186.245H186.245H186.245H186.245H186.245H186.245H186.246H186.246H186.246H186.246H186.246H186.246H186.246H186.246H186.246H186.246H186.246H186.246H186.246H186.246H186.246H186.246H186.246H186.246H186.246H186.246H186.246H186.246H186.246H186.247H186.247H186.247H186.247H186.247H186.247H186.247H186.247H186.247H186.247H186.247H186.247H186.247H186.247H186.247H186.247H186.247H186.247H186.247H186.247H186.247H186.247H186.247H186.247H186.248H186.248H186.248H186.248H186.248H186.248H186.248H186.248H186.248H186.248H186.248H186.248H186.248H186.248H186.248H186.248H186.248H186.248H186.248H186.248H186.248H186.248H186.248H186.248H186.249H186.249H186.249H186.249H186.249H186.249H186.249H186.249H186.249H186.249H186.249H186.249H186.249H186.249H186.249H186.249H186.249H186.249H186.249H186.249H186.249H186.249H186.249H186.249H186.25H186.25H186.25H186.25H186.25H186.25H186.25H186.25H186.25H186.25H186.25H186.25C187.227 330.604 188.166 330.217 188.857 329.522C188.858 329.522 188.858 329.521 188.859 329.52L224.69 293.69C226.13 292.249 226.13 289.914 224.69 288.473C223.249 287.033 220.914 287.033 219.473 288.473L186.266 321.681L174.543 309.772C174.543 309.772 174.543 309.771 174.543 309.771C173.115 308.319 170.776 308.307 169.327 309.731L169.326 309.732C167.877 311.161 167.856 313.496 169.287 314.948C169.287 314.948 169.287 314.948 169.288 314.948L183.62 329.503L183.621 329.504C184.313 330.206 185.253 330.599 186.234 330.604Z" fill="#43A048" stroke="#43A048" stroke-width="2"/>
<path d="M87.2109 433.66L84.4509 438.976V442H83.0829V438.976L80.3109 433.66H81.8349L83.7669 437.752L85.6989 433.66H87.2109ZM91.1645 442.108C90.5405 442.108 89.9765 441.968 89.4725 441.688C88.9685 441.4 88.5725 441 88.2845 440.488C87.9965 439.968 87.8525 439.368 87.8525 438.688C87.8525 438.016 88.0005 437.42 88.2965 436.9C88.5925 436.38 88.9965 435.98 89.5085 435.7C90.0205 435.42 90.5925 435.28 91.2245 435.28C91.8565 435.28 92.4285 435.42 92.9405 435.7C93.4525 435.98 93.8565 436.38 94.1525 436.9C94.4485 437.42 94.5965 438.016 94.5965 438.688C94.5965 439.36 94.4445 439.956 94.1405 440.476C93.8365 440.996 93.4205 441.4 92.8925 441.688C92.3725 441.968 91.7965 442.108 91.1645 442.108ZM91.1645 440.92C91.5165 440.92 91.8445 440.836 92.1485 440.668C92.4605 440.5 92.7125 440.248 92.9045 439.912C93.0965 439.576 93.1925 439.168 93.1925 438.688C93.1925 438.208 93.1005 437.804 92.9165 437.476C92.7325 437.14 92.4885 436.888 92.1845 436.72C91.8805 436.552 91.5525 436.468 91.2005 436.468C90.8485 436.468 90.5205 436.552 90.2165 436.72C89.9205 436.888 89.6845 437.14 89.5085 437.476C89.3325 437.804 89.2445 438.208 89.2445 438.688C89.2445 439.4 89.4245 439.952 89.7845 440.344C90.1525 440.728 90.6125 440.92 91.1645 440.92ZM101.937 435.388V442H100.569V441.22C100.353 441.492 100.069 441.708 99.7168 441.868C99.3728 442.02 99.0048 442.096 98.6128 442.096C98.0928 442.096 97.6248 441.988 97.2088 441.772C96.8008 441.556 96.4768 441.236 96.2368 440.812C96.0048 440.388 95.8888 439.876 95.8888 439.276V435.388H97.2448V439.072C97.2448 439.664 97.3928 440.12 97.6888 440.44C97.9848 440.752 98.3888 440.908 98.9008 440.908C99.4128 440.908 99.8168 440.752 100.113 440.44C100.417 440.12 100.569 439.664 100.569 439.072V435.388H101.937ZM105.11 436.348C105.31 436.012 105.574 435.752 105.902 435.568C106.238 435.376 106.634 435.28 107.09 435.28V436.696H106.742C106.206 436.696 105.798 436.832 105.518 437.104C105.246 437.376 105.11 437.848 105.11 438.52V442H103.742V435.388H105.11V436.348ZM112.832 436.372C113.064 436.052 113.38 435.792 113.78 435.592C114.188 435.384 114.64 435.28 115.136 435.28C115.72 435.28 116.248 435.42 116.72 435.7C117.192 435.98 117.564 436.38 117.836 436.9C118.108 437.412 118.244 438 118.244 438.664C118.244 439.328 118.108 439.924 117.836 440.452C117.564 440.972 117.188 441.38 116.708 441.676C116.236 441.964 115.712 442.108 115.136 442.108C114.624 442.108 114.168 442.008 113.768 441.808C113.376 441.608 113.064 441.352 112.832 441.04V442H111.464V433.12H112.832V436.372ZM116.852 438.664C116.852 438.208 116.756 437.816 116.564 437.488C116.38 437.152 116.132 436.9 115.82 436.732C115.516 436.556 115.188 436.468 114.836 436.468C114.492 436.468 114.164 436.556 113.852 436.732C113.548 436.908 113.3 437.164 113.108 437.5C112.924 437.836 112.832 438.232 112.832 438.688C112.832 439.144 112.924 439.544 113.108 439.888C113.3 440.224 113.548 440.48 113.852 440.656C114.164 440.832 114.492 440.92 114.836 440.92C115.188 440.92 115.516 440.832 115.82 440.656C116.132 440.472 116.38 440.208 116.564 439.864C116.756 439.52 116.852 439.12 116.852 438.664ZM122.465 442.108C121.841 442.108 121.277 441.968 120.773 441.688C120.269 441.4 119.873 441 119.585 440.488C119.297 439.968 119.153 439.368 119.153 438.688C119.153 438.016 119.301 437.42 119.597 436.9C119.893 436.38 120.297 435.98 120.809 435.7C121.321 435.42 121.893 435.28 122.525 435.28C123.157 435.28 123.729 435.42 124.241 435.7C124.753 435.98 125.157 436.38 125.453 436.9C125.749 437.42 125.897 438.016 125.897 438.688C125.897 439.36 125.745 439.956 125.441 440.476C125.137 440.996 124.721 441.4 124.193 441.688C123.673 441.968 123.097 442.108 122.465 442.108ZM122.465 440.92C122.817 440.92 123.145 440.836 123.449 440.668C123.761 440.5 124.013 440.248 124.205 439.912C124.397 439.576 124.493 439.168 124.493 438.688C124.493 438.208 124.401 437.804 124.217 437.476C124.033 437.14 123.789 436.888 123.485 436.72C123.181 436.552 122.853 436.468 122.501 436.468C122.149 436.468 121.821 436.552 121.517 436.72C121.221 436.888 120.985 437.14 120.809 437.476C120.633 437.804 120.545 438.208 120.545 438.688C120.545 439.4 120.725 439.952 121.085 440.344C121.453 440.728 121.913 440.92 122.465 440.92ZM130.118 442.108C129.494 442.108 128.93 441.968 128.426 441.688C127.922 441.4 127.526 441 127.238 440.488C126.95 439.968 126.806 439.368 126.806 438.688C126.806 438.016 126.954 437.42 127.25 436.9C127.546 436.38 127.95 435.98 128.462 435.7C128.974 435.42 129.546 435.28 130.178 435.28C130.81 435.28 131.382 435.42 131.894 435.7C132.406 435.98 132.81 436.38 133.106 436.9C133.402 437.42 133.55 438.016 133.55 438.688C133.55 439.36 133.398 439.956 133.094 440.476C132.79 440.996 132.374 441.4 131.846 441.688C131.326 441.968 130.75 442.108 130.118 442.108ZM130.118 440.92C130.47 440.92 130.798 440.836 131.102 440.668C131.414 440.5 131.666 440.248 131.858 439.912C132.05 439.576 132.146 439.168 132.146 438.688C132.146 438.208 132.054 437.804 131.87 437.476C131.686 437.14 131.442 436.888 131.138 436.72C130.834 436.552 130.506 436.468 130.154 436.468C129.802 436.468 129.474 436.552 129.17 436.72C128.874 436.888 128.638 437.14 128.462 437.476C128.286 437.804 128.198 438.208 128.198 438.688C128.198 439.4 128.378 439.952 128.738 440.344C129.106 440.728 129.566 440.92 130.118 440.92ZM137.518 438.7L140.566 442H138.718L136.27 439.156V442H134.902V433.12H136.27V438.28L138.67 435.388H140.566L137.518 438.7ZM142.242 434.512C141.994 434.512 141.786 434.428 141.618 434.26C141.45 434.092 141.366 433.884 141.366 433.636C141.366 433.388 141.45 433.18 141.618 433.012C141.786 432.844 141.994 432.76 142.242 432.76C142.482 432.76 142.686 432.844 142.854 433.012C143.022 433.18 143.106 433.388 143.106 433.636C143.106 433.884 143.022 434.092 142.854 434.26C142.686 434.428 142.482 434.512 142.242 434.512ZM142.914 435.388V442H141.546V435.388H142.914ZM148.047 435.28C148.567 435.28 149.031 435.388 149.439 435.604C149.855 435.82 150.179 436.14 150.411 436.564C150.643 436.988 150.759 437.5 150.759 438.1V442H149.403V438.304C149.403 437.712 149.255 437.26 148.959 436.948C148.663 436.628 148.259 436.468 147.747 436.468C147.235 436.468 146.827 436.628 146.523 436.948C146.227 437.26 146.079 437.712 146.079 438.304V442H144.711V435.388H146.079V436.144C146.303 435.872 146.587 435.66 146.931 435.508C147.283 435.356 147.655 435.28 148.047 435.28ZM155.168 435.28C155.68 435.28 156.132 435.384 156.524 435.592C156.924 435.792 157.236 436.044 157.46 436.348V435.388H158.84V442.108C158.84 442.716 158.712 443.256 158.456 443.728C158.2 444.208 157.828 444.584 157.34 444.856C156.86 445.128 156.284 445.264 155.612 445.264C154.716 445.264 153.972 445.052 153.38 444.628C152.788 444.212 152.452 443.644 152.372 442.924H153.728C153.832 443.268 154.052 443.544 154.388 443.752C154.732 443.968 155.14 444.076 155.612 444.076C156.164 444.076 156.608 443.908 156.944 443.572C157.288 443.236 157.46 442.748 157.46 442.108V441.004C157.228 441.316 156.912 441.58 156.512 441.796C156.12 442.004 155.672 442.108 155.168 442.108C154.592 442.108 154.064 441.964 153.584 441.676C153.112 441.38 152.736 440.972 152.456 440.452C152.184 439.924 152.048 439.328 152.048 438.664C152.048 438 152.184 437.412 152.456 436.9C152.736 436.388 153.112 435.992 153.584 435.712C154.064 435.424 154.592 435.28 155.168 435.28ZM157.46 438.688C157.46 438.232 157.364 437.836 157.172 437.5C156.988 437.164 156.744 436.908 156.44 436.732C156.136 436.556 155.808 436.468 155.456 436.468C155.104 436.468 154.776 436.556 154.472 436.732C154.168 436.9 153.92 437.152 153.728 437.488C153.544 437.816 153.452 438.208 153.452 438.664C153.452 439.12 153.544 439.52 153.728 439.864C153.92 440.208 154.168 440.472 154.472 440.656C154.784 440.832 155.112 440.92 155.456 440.92C155.808 440.92 156.136 440.832 156.44 440.656C156.744 440.48 156.988 440.224 157.172 439.888C157.364 439.544 157.46 439.144 157.46 438.688ZM167.174 435.28C167.678 435.28 168.126 435.388 168.518 435.604C168.918 435.82 169.23 436.14 169.454 436.564C169.686 436.988 169.802 437.5 169.802 438.1V442H168.446V438.304C168.446 437.712 168.298 437.26 168.002 436.948C167.706 436.628 167.302 436.468 166.79 436.468C166.278 436.468 165.87 436.628 165.566 436.948C165.27 437.26 165.122 437.712 165.122 438.304V442H163.754V433.12H165.122V436.156C165.354 435.876 165.646 435.66 165.998 435.508C166.358 435.356 166.75 435.28 167.174 435.28ZM171.09 438.664C171.09 438 171.226 437.412 171.498 436.9C171.778 436.388 172.154 435.992 172.626 435.712C173.106 435.424 173.634 435.28 174.21 435.28C174.73 435.28 175.182 435.384 175.566 435.592C175.958 435.792 176.27 436.044 176.502 436.348V435.388H177.882V442H176.502V441.016C176.27 441.328 175.954 441.588 175.554 441.796C175.154 442.004 174.698 442.108 174.186 442.108C173.618 442.108 173.098 441.964 172.626 441.676C172.154 441.38 171.778 440.972 171.498 440.452C171.226 439.924 171.09 439.328 171.09 438.664ZM176.502 438.688C176.502 438.232 176.406 437.836 176.214 437.5C176.03 437.164 175.786 436.908 175.482 436.732C175.178 436.556 174.85 436.468 174.498 436.468C174.146 436.468 173.818 436.556 173.514 436.732C173.21 436.9 172.962 437.152 172.77 437.488C172.586 437.816 172.494 438.208 172.494 438.664C172.494 439.12 172.586 439.52 172.77 439.864C172.962 440.208 173.21 440.472 173.514 440.656C173.826 440.832 174.154 440.92 174.498 440.92C174.85 440.92 175.178 440.832 175.482 440.656C175.786 440.48 176.03 440.224 176.214 439.888C176.406 439.544 176.502 439.144 176.502 438.688ZM182.079 442.108C181.559 442.108 181.091 442.016 180.675 441.832C180.267 441.64 179.943 441.384 179.703 441.064C179.463 440.736 179.335 440.372 179.319 439.972H180.735C180.759 440.252 180.891 440.488 181.131 440.68C181.379 440.864 181.687 440.956 182.055 440.956C182.439 440.956 182.735 440.884 182.943 440.74C183.159 440.588 183.267 440.396 183.267 440.164C183.267 439.916 183.147 439.732 182.907 439.612C182.675 439.492 182.303 439.36 181.791 439.216C181.295 439.08 180.891 438.948 180.579 438.82C180.267 438.692 179.995 438.496 179.763 438.232C179.539 437.968 179.427 437.62 179.427 437.188C179.427 436.836 179.531 436.516 179.739 436.228C179.947 435.932 180.243 435.7 180.627 435.532C181.019 435.364 181.467 435.28 181.971 435.28C182.723 435.28 183.327 435.472 183.783 435.856C184.247 436.232 184.495 436.748 184.527 437.404H183.159C183.135 437.108 183.015 436.872 182.799 436.696C182.583 436.52 182.291 436.432 181.923 436.432C181.563 436.432 181.287 436.5 181.095 436.636C180.903 436.772 180.807 436.952 180.807 437.176C180.807 437.352 180.871 437.5 180.999 437.62C181.127 437.74 181.283 437.836 181.467 437.908C181.651 437.972 181.923 438.056 182.283 438.16C182.763 438.288 183.155 438.42 183.459 438.556C183.771 438.684 184.039 438.876 184.263 439.132C184.487 439.388 184.603 439.728 184.611 440.152C184.611 440.528 184.507 440.864 184.299 441.16C184.091 441.456 183.795 441.688 183.411 441.856C183.035 442.024 182.591 442.108 182.079 442.108ZM190.575 436.372C190.807 436.052 191.123 435.792 191.523 435.592C191.931 435.384 192.383 435.28 192.879 435.28C193.463 435.28 193.991 435.42 194.463 435.7C194.935 435.98 195.307 436.38 195.579 436.9C195.851 437.412 195.987 438 195.987 438.664C195.987 439.328 195.851 439.924 195.579 440.452C195.307 440.972 194.931 441.38 194.451 441.676C193.979 441.964 193.455 442.108 192.879 442.108C192.367 442.108 191.911 442.008 191.511 441.808C191.119 441.608 190.807 441.352 190.575 441.04V442H189.207V433.12H190.575V436.372ZM194.595 438.664C194.595 438.208 194.499 437.816 194.307 437.488C194.123 437.152 193.875 436.9 193.563 436.732C193.259 436.556 192.931 436.468 192.579 436.468C192.235 436.468 191.907 436.556 191.595 436.732C191.291 436.908 191.043 437.164 190.851 437.5C190.667 437.836 190.575 438.232 190.575 438.688C190.575 439.144 190.667 439.544 190.851 439.888C191.043 440.224 191.291 440.48 191.595 440.656C191.907 440.832 192.235 440.92 192.579 440.92C192.931 440.92 193.259 440.832 193.563 440.656C193.875 440.472 194.123 440.208 194.307 439.864C194.499 439.52 194.595 439.12 194.595 438.664ZM203.399 438.532C203.399 438.78 203.383 439.004 203.351 439.204H198.299C198.339 439.732 198.535 440.156 198.887 440.476C199.239 440.796 199.671 440.956 200.183 440.956C200.919 440.956 201.439 440.648 201.743 440.032H203.219C203.019 440.64 202.655 441.14 202.127 441.532C201.607 441.916 200.959 442.108 200.183 442.108C199.551 442.108 198.983 441.968 198.479 441.688C197.983 441.4 197.591 441 197.303 440.488C197.023 439.968 196.883 439.368 196.883 438.688C196.883 438.008 197.019 437.412 197.291 436.9C197.571 436.38 197.959 435.98 198.455 435.7C198.959 435.42 199.535 435.28 200.183 435.28C200.807 435.28 201.363 435.416 201.851 435.688C202.339 435.96 202.719 436.344 202.991 436.84C203.263 437.328 203.399 437.892 203.399 438.532ZM201.971 438.1C201.963 437.596 201.783 437.192 201.431 436.888C201.079 436.584 200.643 436.432 200.123 436.432C199.651 436.432 199.247 436.584 198.911 436.888C198.575 437.184 198.375 437.588 198.311 438.1H201.971ZM210.806 438.532C210.806 438.78 210.79 439.004 210.758 439.204H205.706C205.746 439.732 205.942 440.156 206.294 440.476C206.646 440.796 207.078 440.956 207.59 440.956C208.326 440.956 208.846 440.648 209.15 440.032H210.626C210.426 440.64 210.062 441.14 209.534 441.532C209.014 441.916 208.366 442.108 207.59 442.108C206.958 442.108 206.39 441.968 205.886 441.688C205.39 441.4 204.998 441 204.71 440.488C204.43 439.968 204.29 439.368 204.29 438.688C204.29 438.008 204.426 437.412 204.698 436.9C204.978 436.38 205.366 435.98 205.862 435.7C206.366 435.42 206.942 435.28 207.59 435.28C208.214 435.28 208.77 435.416 209.258 435.688C209.746 435.96 210.126 436.344 210.398 436.84C210.67 437.328 210.806 437.892 210.806 438.532ZM209.378 438.1C209.37 437.596 209.19 437.192 208.838 436.888C208.486 436.584 208.05 436.432 207.53 436.432C207.058 436.432 206.654 436.584 206.318 436.888C205.982 437.184 205.782 437.588 205.718 438.1H209.378ZM215.488 435.28C216.008 435.28 216.472 435.388 216.88 435.604C217.296 435.82 217.62 436.14 217.852 436.564C218.084 436.988 218.2 437.5 218.2 438.1V442H216.844V438.304C216.844 437.712 216.696 437.26 216.4 436.948C216.104 436.628 215.7 436.468 215.188 436.468C214.676 436.468 214.268 436.628 213.964 436.948C213.668 437.26 213.52 437.712 213.52 438.304V442H212.152V435.388H213.52V436.144C213.744 435.872 214.028 435.66 214.372 435.508C214.724 435.356 215.096 435.28 215.488 435.28ZM224.43 436.36C224.662 436.056 224.978 435.8 225.378 435.592C225.778 435.384 226.23 435.28 226.734 435.28C227.31 435.28 227.834 435.424 228.306 435.712C228.786 435.992 229.162 436.388 229.434 436.9C229.706 437.412 229.842 438 229.842 438.664C229.842 439.328 229.706 439.924 229.434 440.452C229.162 440.972 228.786 441.38 228.306 441.676C227.834 441.964 227.31 442.108 226.734 442.108C226.23 442.108 225.782 442.008 225.39 441.808C224.998 441.6 224.678 441.344 224.43 441.04V445.144H223.062V435.388H224.43V436.36ZM228.45 438.664C228.45 438.208 228.354 437.816 228.162 437.488C227.978 437.152 227.73 436.9 227.418 436.732C227.114 436.556 226.786 436.468 226.434 436.468C226.09 436.468 225.762 436.556 225.45 436.732C225.146 436.908 224.898 437.164 224.706 437.5C224.522 437.836 224.43 438.232 224.43 438.688C224.43 439.144 224.522 439.544 224.706 439.888C224.898 440.224 225.146 440.48 225.45 440.656C225.762 440.832 226.09 440.92 226.434 440.92C226.786 440.92 227.114 440.832 227.418 440.656C227.73 440.472 227.978 440.208 228.162 439.864C228.354 439.52 228.45 439.12 228.45 438.664ZM232.563 433.12V442H231.195V433.12H232.563ZM233.903 438.664C233.903 438 234.039 437.412 234.311 436.9C234.591 436.388 234.967 435.992 235.439 435.712C235.919 435.424 236.447 435.28 237.023 435.28C237.543 435.28 237.995 435.384 238.379 435.592C238.771 435.792 239.083 436.044 239.315 436.348V435.388H240.695V442H239.315V441.016C239.083 441.328 238.767 441.588 238.367 441.796C237.967 442.004 237.511 442.108 236.999 442.108C236.431 442.108 235.911 441.964 235.439 441.676C234.967 441.38 234.591 440.972 234.311 440.452C234.039 439.924 233.903 439.328 233.903 438.664ZM239.315 438.688C239.315 438.232 239.219 437.836 239.027 437.5C238.843 437.164 238.599 436.908 238.295 436.732C237.991 436.556 237.663 436.468 237.311 436.468C236.959 436.468 236.631 436.556 236.327 436.732C236.023 436.9 235.775 437.152 235.583 437.488C235.399 437.816 235.307 438.208 235.307 438.664C235.307 439.12 235.399 439.52 235.583 439.864C235.775 440.208 236.023 440.472 236.327 440.656C236.639 440.832 236.967 440.92 237.311 440.92C237.663 440.92 237.991 440.832 238.295 440.656C238.599 440.48 238.843 440.224 239.027 439.888C239.219 439.544 239.315 439.144 239.315 438.688ZM242.036 438.688C242.036 438.008 242.172 437.412 242.444 436.9C242.724 436.38 243.108 435.98 243.596 435.7C244.084 435.42 244.644 435.28 245.276 435.28C246.076 435.28 246.736 435.472 247.256 435.856C247.784 436.232 248.14 436.772 248.324 437.476H246.848C246.728 437.148 246.536 436.892 246.272 436.708C246.008 436.524 245.676 436.432 245.276 436.432C244.716 436.432 244.268 436.632 243.932 437.032C243.604 437.424 243.44 437.976 243.44 438.688C243.44 439.4 243.604 439.956 243.932 440.356C244.268 440.756 244.716 440.956 245.276 440.956C246.068 440.956 246.592 440.608 246.848 439.912H248.324C248.132 440.584 247.772 441.12 247.244 441.52C246.716 441.912 246.06 442.108 245.276 442.108C244.644 442.108 244.084 441.968 243.596 441.688C243.108 441.4 242.724 441 242.444 440.488C242.172 439.968 242.036 439.368 242.036 438.688ZM255.747 438.532C255.747 438.78 255.731 439.004 255.699 439.204H250.647C250.687 439.732 250.883 440.156 251.235 440.476C251.587 440.796 252.019 440.956 252.531 440.956C253.267 440.956 253.787 440.648 254.091 440.032H255.567C255.367 440.64 255.003 441.14 254.475 441.532C253.955 441.916 253.307 442.108 252.531 442.108C251.899 442.108 251.331 441.968 250.827 441.688C250.331 441.4 249.939 441 249.651 440.488C249.371 439.968 249.231 439.368 249.231 438.688C249.231 438.008 249.367 437.412 249.639 436.9C249.919 436.38 250.307 435.98 250.803 435.7C251.307 435.42 251.883 435.28 252.531 435.28C253.155 435.28 253.711 435.416 254.199 435.688C254.687 435.96 255.067 436.344 255.339 436.84C255.611 437.328 255.747 437.892 255.747 438.532ZM254.319 438.1C254.311 437.596 254.131 437.192 253.779 436.888C253.427 436.584 252.991 436.432 252.471 436.432C251.999 436.432 251.595 436.584 251.259 436.888C250.923 437.184 250.723 437.588 250.659 438.1H254.319ZM256.637 438.664C256.637 438 256.773 437.412 257.045 436.9C257.325 436.388 257.701 435.992 258.173 435.712C258.653 435.424 259.185 435.28 259.769 435.28C260.201 435.28 260.625 435.376 261.041 435.568C261.465 435.752 261.801 436 262.049 436.312V433.12H263.429V442H262.049V441.004C261.825 441.324 261.513 441.588 261.113 441.796C260.721 442.004 260.269 442.108 259.757 442.108C259.181 442.108 258.653 441.964 258.173 441.676C257.701 441.38 257.325 440.972 257.045 440.452C256.773 439.924 256.637 439.328 256.637 438.664ZM262.049 438.688C262.049 438.232 261.953 437.836 261.761 437.5C261.577 437.164 261.333 436.908 261.029 436.732C260.725 436.556 260.397 436.468 260.045 436.468C259.693 436.468 259.365 436.556 259.061 436.732C258.757 436.9 258.509 437.152 258.317 437.488C258.133 437.816 258.041 438.208 258.041 438.664C258.041 439.12 258.133 439.52 258.317 439.864C258.509 440.208 258.757 440.472 259.061 440.656C259.373 440.832 259.701 440.92 260.045 440.92C260.397 440.92 260.725 440.832 261.029 440.656C261.333 440.48 261.577 440.224 261.761 439.888C261.953 439.544 262.049 439.144 262.049 438.688ZM270.743 442.108C270.223 442.108 269.755 442.016 269.339 441.832C268.931 441.64 268.607 441.384 268.367 441.064C268.127 440.736 267.999 440.372 267.983 439.972H269.399C269.423 440.252 269.555 440.488 269.795 440.68C270.043 440.864 270.351 440.956 270.719 440.956C271.103 440.956 271.399 440.884 271.607 440.74C271.823 440.588 271.931 440.396 271.931 440.164C271.931 439.916 271.811 439.732 271.571 439.612C271.339 439.492 270.967 439.36 270.455 439.216C269.959 439.08 269.555 438.948 269.243 438.82C268.931 438.692 268.659 438.496 268.427 438.232C268.203 437.968 268.091 437.62 268.091 437.188C268.091 436.836 268.195 436.516 268.403 436.228C268.611 435.932 268.907 435.7 269.291 435.532C269.683 435.364 270.131 435.28 270.635 435.28C271.387 435.28 271.991 435.472 272.447 435.856C272.911 436.232 273.159 436.748 273.191 437.404H271.823C271.799 437.108 271.679 436.872 271.463 436.696C271.247 436.52 270.955 436.432 270.587 436.432C270.227 436.432 269.951 436.5 269.759 436.636C269.567 436.772 269.471 436.952 269.471 437.176C269.471 437.352 269.535 437.5 269.663 437.62C269.791 437.74 269.947 437.836 270.131 437.908C270.315 437.972 270.587 438.056 270.947 438.16C271.427 438.288 271.819 438.42 272.123 438.556C272.435 438.684 272.703 438.876 272.927 439.132C273.151 439.388 273.267 439.728 273.275 440.152C273.275 440.528 273.171 440.864 272.963 441.16C272.755 441.456 272.459 441.688 272.075 441.856C271.699 442.024 271.255 442.108 270.743 442.108ZM280.814 438.532C280.814 438.78 280.798 439.004 280.766 439.204H275.714C275.754 439.732 275.95 440.156 276.302 440.476C276.654 440.796 277.086 440.956 277.598 440.956C278.334 440.956 278.854 440.648 279.158 440.032H280.634C280.434 440.64 280.07 441.14 279.542 441.532C279.022 441.916 278.374 442.108 277.598 442.108C276.966 442.108 276.398 441.968 275.894 441.688C275.398 441.4 275.006 441 274.718 440.488C274.438 439.968 274.298 439.368 274.298 438.688C274.298 438.008 274.434 437.412 274.706 436.9C274.986 436.38 275.374 435.98 275.87 435.7C276.374 435.42 276.95 435.28 277.598 435.28C278.222 435.28 278.778 435.416 279.266 435.688C279.754 435.96 280.134 436.344 280.406 436.84C280.678 437.328 280.814 437.892 280.814 438.532ZM279.386 438.1C279.378 437.596 279.198 437.192 278.846 436.888C278.494 436.584 278.058 436.432 277.538 436.432C277.066 436.432 276.662 436.584 276.326 436.888C275.99 437.184 275.79 437.588 275.726 438.1H279.386ZM285.496 435.28C286.016 435.28 286.48 435.388 286.888 435.604C287.304 435.82 287.628 436.14 287.86 436.564C288.092 436.988 288.208 437.5 288.208 438.1V442H286.852V438.304C286.852 437.712 286.704 437.26 286.408 436.948C286.112 436.628 285.708 436.468 285.196 436.468C284.684 436.468 284.276 436.628 283.972 436.948C283.676 437.26 283.528 437.712 283.528 438.304V442H282.16V435.388H283.528V436.144C283.752 435.872 284.036 435.66 284.38 435.508C284.732 435.356 285.104 435.28 285.496 435.28ZM291.549 436.504V440.164C291.549 440.412 291.605 440.592 291.717 440.704C291.837 440.808 292.037 440.86 292.317 440.86H293.157V442H292.077C291.461 442 290.989 441.856 290.661 441.568C290.333 441.28 290.169 440.812 290.169 440.164V436.504H289.389V435.388H290.169V433.744H291.549V435.388H293.157V436.504H291.549ZM299.131 436.504V440.164C299.131 440.412 299.187 440.592 299.299 440.704C299.419 440.808 299.619 440.86 299.899 440.86H300.739V442H299.659C299.043 442 298.571 441.856 298.243 441.568C297.915 441.28 297.751 440.812 297.751 440.164V436.504H296.971V435.388H297.751V433.744H299.131V435.388H300.739V436.504H299.131ZM304.868 442.108C304.244 442.108 303.68 441.968 303.176 441.688C302.672 441.4 302.276 441 301.988 440.488C301.7 439.968 301.556 439.368 301.556 438.688C301.556 438.016 301.704 437.42 302 436.9C302.296 436.38 302.7 435.98 303.212 435.7C303.724 435.42 304.296 435.28 304.928 435.28C305.56 435.28 306.132 435.42 306.644 435.7C307.156 435.98 307.56 436.38 307.856 436.9C308.152 437.42 308.3 438.016 308.3 438.688C308.3 439.36 308.148 439.956 307.844 440.476C307.54 440.996 307.124 441.4 306.596 441.688C306.076 441.968 305.5 442.108 304.868 442.108ZM304.868 440.92C305.22 440.92 305.548 440.836 305.852 440.668C306.164 440.5 306.416 440.248 306.608 439.912C306.8 439.576 306.896 439.168 306.896 438.688C306.896 438.208 306.804 437.804 306.62 437.476C306.436 437.14 306.192 436.888 305.888 436.72C305.584 436.552 305.256 436.468 304.904 436.468C304.552 436.468 304.224 436.552 303.92 436.72C303.624 436.888 303.388 437.14 303.212 437.476C303.036 437.804 302.948 438.208 302.948 438.688C302.948 439.4 303.128 439.952 303.488 440.344C303.856 440.728 304.316 440.92 304.868 440.92ZM152.217 451.66V460H150.849V454.288L148.305 460H147.357L144.801 454.288V460H143.433V451.66H144.909L147.837 458.2L150.753 451.66H152.217ZM153.559 456.664C153.559 456 153.695 455.412 153.967 454.9C154.247 454.388 154.623 453.992 155.095 453.712C155.575 453.424 156.107 453.28 156.691 453.28C157.123 453.28 157.547 453.376 157.963 453.568C158.387 453.752 158.723 454 158.971 454.312V451.12H160.351V460H158.971V459.004C158.747 459.324 158.435 459.588 158.035 459.796C157.643 460.004 157.191 460.108 156.679 460.108C156.103 460.108 155.575 459.964 155.095 459.676C154.623 459.38 154.247 458.972 153.967 458.452C153.695 457.924 153.559 457.328 153.559 456.664ZM158.971 456.688C158.971 456.232 158.875 455.836 158.683 455.5C158.499 455.164 158.255 454.908 157.951 454.732C157.647 454.556 157.319 454.468 156.967 454.468C156.615 454.468 156.287 454.556 155.983 454.732C155.679 454.9 155.431 455.152 155.239 455.488C155.055 455.816 154.963 456.208 154.963 456.664C154.963 457.12 155.055 457.52 155.239 457.864C155.431 458.208 155.679 458.472 155.983 458.656C156.295 458.832 156.623 458.92 156.967 458.92C157.319 458.92 157.647 458.832 157.951 458.656C158.255 458.48 158.499 458.224 158.683 457.888C158.875 457.544 158.971 457.144 158.971 456.688ZM162.7 460.084C162.452 460.084 162.244 460 162.076 459.832C161.908 459.664 161.824 459.456 161.824 459.208C161.824 458.96 161.908 458.752 162.076 458.584C162.244 458.416 162.452 458.332 162.7 458.332C162.94 458.332 163.144 458.416 163.312 458.584C163.48 458.752 163.564 458.96 163.564 459.208C163.564 459.456 163.48 459.664 163.312 459.832C163.144 460 162.94 460.084 162.7 460.084ZM170.908 460.084C170.348 460.084 169.844 459.988 169.396 459.796C168.948 459.596 168.596 459.316 168.34 458.956C168.084 458.596 167.956 458.176 167.956 457.696H169.42C169.452 458.056 169.592 458.352 169.84 458.584C170.096 458.816 170.452 458.932 170.908 458.932C171.38 458.932 171.748 458.82 172.012 458.596C172.276 458.364 172.408 458.068 172.408 457.708C172.408 457.428 172.324 457.2 172.156 457.024C171.996 456.848 171.792 456.712 171.544 456.616C171.304 456.52 170.968 456.416 170.536 456.304C169.992 456.16 169.548 456.016 169.204 455.872C168.868 455.72 168.58 455.488 168.34 455.176C168.1 454.864 167.98 454.448 167.98 453.928C167.98 453.448 168.1 453.028 168.34 452.668C168.58 452.308 168.916 452.032 169.348 451.84C169.78 451.648 170.28 451.552 170.848 451.552C171.656 451.552 172.316 451.756 172.828 452.164C173.348 452.564 173.636 453.116 173.692 453.82H172.18C172.156 453.516 172.012 453.256 171.748 453.04C171.484 452.824 171.136 452.716 170.704 452.716C170.312 452.716 169.992 452.816 169.744 453.016C169.496 453.216 169.372 453.504 169.372 453.88C169.372 454.136 169.448 454.348 169.6 454.516C169.76 454.676 169.96 454.804 170.2 454.9C170.44 454.996 170.768 455.1 171.184 455.212C171.736 455.364 172.184 455.516 172.528 455.668C172.88 455.82 173.176 456.056 173.416 456.376C173.664 456.688 173.788 457.108 173.788 457.636C173.788 458.06 173.672 458.46 173.44 458.836C173.216 459.212 172.884 459.516 172.444 459.748C172.012 459.972 171.5 460.084 170.908 460.084ZM178.822 453.28C179.326 453.28 179.774 453.388 180.166 453.604C180.566 453.82 180.878 454.14 181.102 454.564C181.334 454.988 181.45 455.5 181.45 456.1V460H180.094V456.304C180.094 455.712 179.946 455.26 179.65 454.948C179.354 454.628 178.95 454.468 178.438 454.468C177.926 454.468 177.518 454.628 177.214 454.948C176.918 455.26 176.77 455.712 176.77 456.304V460H175.402V451.12H176.77V454.156C177.002 453.876 177.294 453.66 177.646 453.508C178.006 453.356 178.398 453.28 178.822 453.28ZM182.739 456.664C182.739 456 182.875 455.412 183.147 454.9C183.427 454.388 183.803 453.992 184.275 453.712C184.755 453.424 185.283 453.28 185.859 453.28C186.379 453.28 186.831 453.384 187.215 453.592C187.607 453.792 187.919 454.044 188.151 454.348V453.388H189.531V460H188.151V459.016C187.919 459.328 187.603 459.588 187.203 459.796C186.803 460.004 186.347 460.108 185.835 460.108C185.267 460.108 184.747 459.964 184.275 459.676C183.803 459.38 183.427 458.972 183.147 458.452C182.875 457.924 182.739 457.328 182.739 456.664ZM188.151 456.688C188.151 456.232 188.055 455.836 187.863 455.5C187.679 455.164 187.435 454.908 187.131 454.732C186.827 454.556 186.499 454.468 186.147 454.468C185.795 454.468 185.467 454.556 185.163 454.732C184.859 454.9 184.611 455.152 184.419 455.488C184.235 455.816 184.143 456.208 184.143 456.664C184.143 457.12 184.235 457.52 184.419 457.864C184.611 458.208 184.859 458.472 185.163 458.656C185.475 458.832 185.803 458.92 186.147 458.92C186.499 458.92 186.827 458.832 187.131 458.656C187.435 458.48 187.679 458.224 187.863 457.888C188.055 457.544 188.151 457.144 188.151 456.688ZM192.696 454.348C192.896 454.012 193.16 453.752 193.488 453.568C193.824 453.376 194.22 453.28 194.676 453.28V454.696H194.328C193.792 454.696 193.384 454.832 193.104 455.104C192.832 455.376 192.696 455.848 192.696 456.52V460H191.328V453.388H192.696V454.348ZM196.629 452.512C196.381 452.512 196.173 452.428 196.005 452.26C195.837 452.092 195.753 451.884 195.753 451.636C195.753 451.388 195.837 451.18 196.005 451.012C196.173 450.844 196.381 450.76 196.629 450.76C196.869 450.76 197.073 450.844 197.241 451.012C197.409 451.18 197.493 451.388 197.493 451.636C197.493 451.884 197.409 452.092 197.241 452.26C197.073 452.428 196.869 452.512 196.629 452.512ZM197.301 453.388V460H195.933V453.388H197.301ZM201.869 454.504H200.645V460H199.265V454.504H198.485V453.388H199.265V452.92C199.265 452.16 199.465 451.608 199.865 451.264C200.273 450.912 200.909 450.736 201.773 450.736V451.876C201.357 451.876 201.065 451.956 200.897 452.116C200.729 452.268 200.645 452.536 200.645 452.92V453.388H201.869V454.504ZM211.227 458.296H207.735L207.135 460H205.707L208.695 451.648H210.279L213.267 460H211.827L211.227 458.296ZM210.843 457.18L209.487 453.304L208.119 457.18H210.843ZM217.986 453.28C218.49 453.28 218.938 453.388 219.33 453.604C219.73 453.82 220.042 454.14 220.266 454.564C220.498 454.988 220.614 455.5 220.614 456.1V460H219.258V456.304C219.258 455.712 219.11 455.26 218.814 454.948C218.518 454.628 218.114 454.468 217.602 454.468C217.09 454.468 216.682 454.628 216.378 454.948C216.082 455.26 215.934 455.712 215.934 456.304V460H214.566V451.12H215.934V454.156C216.166 453.876 216.458 453.66 216.81 453.508C217.17 453.356 217.562 453.28 217.986 453.28ZM230.363 453.28C230.883 453.28 231.347 453.388 231.755 453.604C232.171 453.82 232.495 454.14 232.727 454.564C232.967 454.988 233.087 455.5 233.087 456.1V460H231.731V456.304C231.731 455.712 231.583 455.26 231.287 454.948C230.991 454.628 230.587 454.468 230.075 454.468C229.563 454.468 229.155 454.628 228.851 454.948C228.555 455.26 228.407 455.712 228.407 456.304V460H227.051V456.304C227.051 455.712 226.903 455.26 226.607 454.948C226.311 454.628 225.907 454.468 225.395 454.468C224.883 454.468 224.475 454.628 224.171 454.948C223.875 455.26 223.727 455.712 223.727 456.304V460H222.359V453.388H223.727V454.144C223.951 453.872 224.235 453.66 224.579 453.508C224.923 453.356 225.291 453.28 225.683 453.28C226.211 453.28 226.683 453.392 227.099 453.616C227.515 453.84 227.835 454.164 228.059 454.588C228.259 454.188 228.571 453.872 228.995 453.64C229.419 453.4 229.875 453.28 230.363 453.28ZM240.888 456.532C240.888 456.78 240.872 457.004 240.84 457.204H235.788C235.828 457.732 236.024 458.156 236.376 458.476C236.728 458.796 237.16 458.956 237.672 458.956C238.408 458.956 238.928 458.648 239.232 458.032H240.708C240.508 458.64 240.144 459.14 239.616 459.532C239.096 459.916 238.448 460.108 237.672 460.108C237.04 460.108 236.472 459.968 235.968 459.688C235.472 459.4 235.08 459 234.792 458.488C234.512 457.968 234.372 457.368 234.372 456.688C234.372 456.008 234.508 455.412 234.78 454.9C235.06 454.38 235.448 453.98 235.944 453.7C236.448 453.42 237.024 453.28 237.672 453.28C238.296 453.28 238.852 453.416 239.34 453.688C239.828 453.96 240.208 454.344 240.48 454.84C240.752 455.328 240.888 455.892 240.888 456.532ZM239.46 456.1C239.452 455.596 239.272 455.192 238.92 454.888C238.568 454.584 238.132 454.432 237.612 454.432C237.14 454.432 236.736 454.584 236.4 454.888C236.064 455.184 235.864 455.588 235.8 456.1H239.46ZM241.778 456.664C241.778 456 241.914 455.412 242.186 454.9C242.466 454.388 242.842 453.992 243.314 453.712C243.794 453.424 244.326 453.28 244.91 453.28C245.342 453.28 245.766 453.376 246.182 453.568C246.606 453.752 246.942 454 247.19 454.312V451.12H248.57V460H247.19V459.004C246.966 459.324 246.654 459.588 246.254 459.796C245.862 460.004 245.41 460.108 244.898 460.108C244.322 460.108 243.794 459.964 243.314 459.676C242.842 459.38 242.466 458.972 242.186 458.452C241.914 457.924 241.778 457.328 241.778 456.664ZM247.19 456.688C247.19 456.232 247.094 455.836 246.902 455.5C246.718 455.164 246.474 454.908 246.17 454.732C245.866 454.556 245.538 454.468 245.186 454.468C244.834 454.468 244.506 454.556 244.202 454.732C243.898 454.9 243.65 455.152 243.458 455.488C243.274 455.816 243.182 456.208 243.182 456.664C243.182 457.12 243.274 457.52 243.458 457.864C243.65 458.208 243.898 458.472 244.202 458.656C244.514 458.832 244.842 458.92 245.186 458.92C245.538 458.92 245.866 458.832 246.17 458.656C246.474 458.48 246.718 458.224 246.902 457.888C247.094 457.544 247.19 457.144 247.19 456.688Z" fill="#5A5A5A"/>
<rect x="130" y="886" width="134" height="5" rx="2.5" fill="#141414"/>
</g>
<defs>
<clipPath id="clip0_63_7378">
<rect width="393" height="899" fill="white"/>
</clipPath>
</defs>
</svg>
