<svg width="393" height="852" viewBox="0 0 393 852" fill="none" xmlns="http://www.w3.org/2000/svg">
<g clip-path="url(#clip0_85_5259)">
<rect width="393" height="852" fill="white"/>
<path opacity="0.35" d="M354.834 22.6696C354.834 21.473 355.804 20.5029 357.001 20.5029H373.667C374.864 20.5029 375.834 21.473 375.834 22.6696V28.6696C375.834 29.8662 374.864 30.8363 373.667 30.8363H357.001C355.804 30.8363 354.834 29.8662 354.834 28.6696V22.6696Z" stroke="#141414"/>
<path opacity="0.4" d="M377.334 23.6699V27.6699C378.139 27.3311 378.662 26.5431 378.662 25.6699C378.662 24.7968 378.139 24.0087 377.334 23.6699Z" fill="#141414"/>
<path d="M356.334 23.3363C356.334 22.5999 356.931 22.0029 357.667 22.0029H373.001C373.737 22.0029 374.334 22.5999 374.334 23.3363V28.0029C374.334 28.7393 373.737 29.3363 373.001 29.3363H357.667C356.931 29.3363 356.334 28.7393 356.334 28.0029V23.3363Z" fill="#141414"/>
<path fill-rule="evenodd" clip-rule="evenodd" d="M341.664 22.2773C343.88 22.2774 346.011 23.1289 347.617 24.6557C347.738 24.7735 347.931 24.772 348.05 24.6523L349.206 23.4857C349.267 23.4249 349.3 23.3427 349.3 23.2571C349.299 23.1715 349.265 23.0897 349.204 23.0297C344.989 18.9901 338.339 18.9901 334.124 23.0297C334.063 23.0896 334.028 23.1715 334.027 23.257C334.027 23.3426 334.06 23.4249 334.121 23.4857L335.277 24.6523C335.396 24.7722 335.589 24.7737 335.71 24.6557C337.316 23.1288 339.448 22.2773 341.664 22.2773ZM341.665 26.073C342.882 26.0729 344.056 26.5255 344.959 27.3427C345.081 27.4587 345.273 27.4562 345.392 27.337L346.547 26.1704C346.608 26.1092 346.641 26.0261 346.64 25.9399C346.64 25.8536 346.604 25.7713 346.542 25.7114C343.794 23.155 339.538 23.155 336.79 25.7114C336.728 25.7713 336.692 25.8537 336.691 25.9399C336.691 26.0262 336.724 26.1092 336.785 26.1704L337.94 27.337C338.059 27.4562 338.251 27.4587 338.373 27.3427C339.275 26.526 340.448 26.0735 341.665 26.073ZM343.978 28.6268C343.98 28.7133 343.946 28.7967 343.884 28.8573L341.886 30.873C341.828 30.9323 341.748 30.9656 341.665 30.9656C341.582 30.9656 341.502 30.9323 341.443 30.873L339.445 28.8573C339.384 28.7967 339.35 28.7133 339.352 28.6268C339.353 28.5403 339.391 28.4583 339.455 28.4003C340.731 27.3215 342.599 27.3215 343.874 28.4003C343.939 28.4584 343.976 28.5403 343.978 28.6268Z" fill="#141414"/>
<path fill-rule="evenodd" clip-rule="evenodd" d="M328 20.3359H327C326.448 20.3359 326 20.7837 326 21.3359V30.0026C326 30.5549 326.448 31.0026 327 31.0026H328C328.552 31.0026 329 30.5549 329 30.0026V21.3359C329 20.7837 328.552 20.3359 328 20.3359ZM322.334 22.6693H323.334C323.886 22.6693 324.334 23.117 324.334 23.6693V30.0026C324.334 30.5549 323.886 31.0026 323.334 31.0026H322.334C321.782 31.0026 321.334 30.5549 321.334 30.0026V23.6693C321.334 23.117 321.782 22.6693 322.334 22.6693ZM318.666 25.0026H317.666C317.114 25.0026 316.666 25.4503 316.666 26.0026V30.0026C316.666 30.5548 317.114 31.0026 317.666 31.0026H318.666C319.218 31.0026 319.666 30.5548 319.666 30.0026V26.0026C319.666 25.4503 319.218 25.0026 318.666 25.0026ZM314 27.0026H313C312.448 27.0026 312 27.4503 312 28.0026V30.0026C312 30.5549 312.448 31.0026 313 31.0026H314C314.552 31.0026 315 30.5549 315 30.0026V28.0026C315 27.4503 314.552 27.0026 314 27.0026Z" fill="#141414"/>
<path d="M19.3203 32.2568C22.0083 32.2568 23.605 30.1548 23.605 26.5952C23.605 25.2549 23.3486 24.127 22.8579 23.2554C22.1475 21.9004 20.9243 21.168 19.3789 21.168C17.0791 21.168 15.4531 22.7134 15.4531 24.8813C15.4531 26.9175 16.918 28.397 18.9321 28.397C20.1699 28.397 21.1733 27.8184 21.6714 26.8149H21.6934C21.6934 26.8149 21.7227 26.8149 21.73 26.8149C21.7446 26.8149 21.7959 26.8149 21.7959 26.8149C21.7959 29.2319 20.8804 30.6748 19.335 30.6748C18.4268 30.6748 17.7236 30.1768 17.4819 29.3784H15.5996C15.9146 31.1143 17.3867 32.2568 19.3203 32.2568ZM19.3862 26.8955C18.1704 26.8955 17.3062 26.0312 17.3062 24.8228C17.3062 23.6436 18.2144 22.7427 19.3936 22.7427C20.5728 22.7427 21.481 23.6582 21.481 24.8521C21.481 26.0312 20.5947 26.8955 19.3862 26.8955Z" fill="#141414"/>
<path d="M26.6961 32.1543C27.3919 32.1543 27.868 31.6562 27.868 30.9971C27.868 30.3306 27.3919 29.8398 26.6961 29.8398C26.0076 29.8398 25.5242 30.3306 25.5242 30.9971C25.5242 31.6562 26.0076 32.1543 26.6961 32.1543ZM26.6961 26.6611C27.3919 26.6611 27.868 26.1704 27.868 25.5112C27.868 24.8447 27.3919 24.354 26.6961 24.354C26.0076 24.354 25.5242 24.8447 25.5242 25.5112C25.5242 26.1704 26.0076 26.6611 26.6961 26.6611Z" fill="#141414"/>
<path d="M34.7237 32.0005H36.5328V30.0303H37.961V28.4336H36.5328V21.4316H33.8668C31.9991 24.2441 30.5123 26.5952 29.5602 28.3457V30.0303H34.7237V32.0005ZM31.3106 28.3677C32.5411 26.1997 33.6397 24.4639 34.6505 22.9697H34.753V28.4775H31.3106V28.3677Z" fill="#141414"/>
<path d="M41.9896 32.0005H43.8793V21.4316H41.997L39.2357 23.3652V25.1816L41.8651 23.3359H41.9896V32.0005Z" fill="#141414"/>
<path d="M23 80.7498C22.808 80.7498 22.616 80.6768 22.47 80.5298L15.47 73.5298C15.177 73.2368 15.177 72.7618 15.47 72.4688L22.47 65.4688C22.763 65.1758 23.238 65.1758 23.531 65.4688C23.824 65.7618 23.824 66.2368 23.531 66.5298L17.0611 72.9998L23.531 79.4698C23.824 79.7628 23.824 80.2378 23.531 80.5308C23.384 80.6768 23.192 80.7498 23 80.7498Z" fill="#2A2A2A"/>
<path d="M43.816 72.756C44.2213 72.82 44.5893 72.9853 44.92 73.252C45.2613 73.5187 45.528 73.8493 45.72 74.244C45.9227 74.6387 46.024 75.06 46.024 75.508C46.024 76.0733 45.88 76.5853 45.592 77.044C45.304 77.492 44.8827 77.8493 44.328 78.116C43.784 78.372 43.1387 78.5 42.392 78.5H38.232V67.348H42.232C42.9893 67.348 43.6347 67.476 44.168 67.732C44.7013 67.9773 45.1013 68.3133 45.368 68.74C45.6347 69.1667 45.768 69.6467 45.768 70.18C45.768 70.8413 45.5867 71.3907 45.224 71.828C44.872 72.2547 44.4027 72.564 43.816 72.756ZM39.688 72.164H42.136C42.8187 72.164 43.3467 72.004 43.72 71.684C44.0933 71.364 44.28 70.9213 44.28 70.356C44.28 69.7907 44.0933 69.348 43.72 69.028C43.3467 68.708 42.808 68.548 42.104 68.548H39.688V72.164ZM42.264 77.3C42.9893 77.3 43.5547 77.1293 43.96 76.788C44.3653 76.4467 44.568 75.972 44.568 75.364C44.568 74.7453 44.3547 74.26 43.928 73.908C43.5013 73.5453 42.9307 73.364 42.216 73.364H39.688V77.3H42.264ZM47.5005 74.084C47.5005 73.188 47.6818 72.404 48.0445 71.732C48.4072 71.0493 48.9032 70.5213 49.5325 70.148C50.1725 69.7747 50.8818 69.588 51.6605 69.588C52.4285 69.588 53.0952 69.7533 53.6605 70.084C54.2258 70.4147 54.6472 70.8307 54.9245 71.332V69.732H56.3965V78.5H54.9245V76.868C54.6365 77.38 54.2045 77.8067 53.6285 78.148C53.0632 78.4787 52.4018 78.644 51.6445 78.644C50.8658 78.644 50.1618 78.452 49.5325 78.068C48.9032 77.684 48.4072 77.1453 48.0445 76.452C47.6818 75.7587 47.5005 74.9693 47.5005 74.084ZM54.9245 74.1C54.9245 73.4387 54.7912 72.8627 54.5245 72.372C54.2578 71.8813 53.8952 71.508 53.4365 71.252C52.9885 70.9853 52.4925 70.852 51.9485 70.852C51.4045 70.852 50.9085 70.98 50.4605 71.236C50.0125 71.492 49.6552 71.8653 49.3885 72.356C49.1218 72.8467 48.9885 73.4227 48.9885 74.084C48.9885 74.756 49.1218 75.3427 49.3885 75.844C49.6552 76.3347 50.0125 76.7133 50.4605 76.98C50.9085 77.236 51.4045 77.364 51.9485 77.364C52.4925 77.364 52.9885 77.236 53.4365 76.98C53.8952 76.7133 54.2578 76.3347 54.5245 75.844C54.7912 75.3427 54.9245 74.7613 54.9245 74.1ZM58.313 74.1C58.313 73.1933 58.4943 72.404 58.857 71.732C59.2197 71.0493 59.721 70.5213 60.361 70.148C61.0117 69.7747 61.753 69.588 62.585 69.588C63.6623 69.588 64.5477 69.8493 65.241 70.372C65.945 70.8947 66.409 71.62 66.633 72.548H65.065C64.9157 72.0147 64.6223 71.5933 64.185 71.284C63.7583 70.9747 63.225 70.82 62.585 70.82C61.753 70.82 61.081 71.108 60.569 71.684C60.057 72.2493 59.801 73.0547 59.801 74.1C59.801 75.156 60.057 75.972 60.569 76.548C61.081 77.124 61.753 77.412 62.585 77.412C63.225 77.412 63.7583 77.2627 64.185 76.964C64.6117 76.6653 64.905 76.2387 65.065 75.684H66.633C66.3983 76.58 65.929 77.3 65.225 77.844C64.521 78.3773 63.641 78.644 62.585 78.644C61.753 78.644 61.0117 78.4573 60.361 78.084C59.721 77.7107 59.2197 77.1827 58.857 76.5C58.4943 75.8173 58.313 75.0173 58.313 74.1ZM73.4718 78.5L70.0318 74.628V78.5H68.5758V66.66H70.0318V73.62L73.4078 69.732H75.4398L71.3118 74.1L75.4558 78.5H73.4718Z" fill="#414141"/>
<path d="M152.324 73.218C152.324 71.994 152.606 70.896 153.17 69.924C153.746 68.952 154.52 68.196 155.492 67.656C156.476 67.104 157.55 66.828 158.714 66.828C160.046 66.828 161.228 67.158 162.26 67.818C163.304 68.466 164.06 69.39 164.528 70.59H162.062C161.738 69.93 161.288 69.438 160.712 69.114C160.136 68.79 159.47 68.628 158.714 68.628C157.886 68.628 157.148 68.814 156.5 69.186C155.852 69.558 155.342 70.092 154.97 70.788C154.61 71.484 154.43 72.294 154.43 73.218C154.43 74.142 154.61 74.952 154.97 75.648C155.342 76.344 155.852 76.884 156.5 77.268C157.148 77.64 157.886 77.826 158.714 77.826C159.47 77.826 160.136 77.664 160.712 77.34C161.288 77.016 161.738 76.524 162.062 75.864H164.528C164.06 77.064 163.304 77.988 162.26 78.636C161.228 79.284 160.046 79.608 158.714 79.608C157.538 79.608 156.464 79.338 155.492 78.798C154.52 78.246 153.746 77.484 153.17 76.512C152.606 75.54 152.324 74.442 152.324 73.218ZM171.232 79.662C170.296 79.662 169.45 79.452 168.694 79.032C167.938 78.6 167.344 78 166.912 77.232C166.48 76.452 166.264 75.552 166.264 74.532C166.264 73.524 166.486 72.63 166.93 71.85C167.374 71.07 167.98 70.47 168.748 70.05C169.516 69.63 170.374 69.42 171.322 69.42C172.27 69.42 173.128 69.63 173.896 70.05C174.664 70.47 175.27 71.07 175.714 71.85C176.158 72.63 176.38 73.524 176.38 74.532C176.38 75.54 176.152 76.434 175.696 77.214C175.24 77.994 174.616 78.6 173.824 79.032C173.044 79.452 172.18 79.662 171.232 79.662ZM171.232 77.88C171.76 77.88 172.252 77.754 172.708 77.502C173.176 77.25 173.554 76.872 173.842 76.368C174.13 75.864 174.274 75.252 174.274 74.532C174.274 73.812 174.136 73.206 173.86 72.714C173.584 72.21 173.218 71.832 172.762 71.58C172.306 71.328 171.814 71.202 171.286 71.202C170.758 71.202 170.266 71.328 169.81 71.58C169.366 71.832 169.012 72.21 168.748 72.714C168.484 73.206 168.352 73.812 168.352 74.532C168.352 75.6 168.622 76.428 169.162 77.016C169.714 77.592 170.404 77.88 171.232 77.88ZM190.415 69.42C191.195 69.42 191.891 69.582 192.503 69.906C193.127 70.23 193.613 70.71 193.961 71.346C194.321 71.982 194.501 72.75 194.501 73.65V79.5H192.467V73.956C192.467 73.068 192.245 72.39 191.801 71.922C191.357 71.442 190.751 71.202 189.983 71.202C189.215 71.202 188.603 71.442 188.147 71.922C187.703 72.39 187.481 73.068 187.481 73.956V79.5H185.447V73.956C185.447 73.068 185.225 72.39 184.781 71.922C184.337 71.442 183.731 71.202 182.963 71.202C182.195 71.202 181.583 71.442 181.127 71.922C180.683 72.39 180.461 73.068 180.461 73.956V79.5H178.409V69.582H180.461V70.716C180.797 70.308 181.223 69.99 181.739 69.762C182.255 69.534 182.807 69.42 183.395 69.42C184.187 69.42 184.895 69.588 185.519 69.924C186.143 70.26 186.623 70.746 186.959 71.382C187.259 70.782 187.727 70.308 188.363 69.96C188.999 69.6 189.683 69.42 190.415 69.42ZM199.164 71.04C199.512 70.584 199.986 70.2 200.586 69.888C201.186 69.576 201.864 69.42 202.62 69.42C203.484 69.42 204.27 69.636 204.978 70.068C205.698 70.488 206.262 71.082 206.67 71.85C207.078 72.618 207.282 73.5 207.282 74.496C207.282 75.492 207.078 76.386 206.67 77.178C206.262 77.958 205.698 78.57 204.978 79.014C204.27 79.446 203.484 79.662 202.62 79.662C201.864 79.662 201.192 79.512 200.604 79.212C200.016 78.9 199.536 78.516 199.164 78.06V84.216H197.112V69.582H199.164V71.04ZM205.194 74.496C205.194 73.812 205.05 73.224 204.762 72.732C204.486 72.228 204.114 71.85 203.646 71.598C203.19 71.334 202.698 71.202 202.17 71.202C201.654 71.202 201.162 71.334 200.694 71.598C200.238 71.862 199.866 72.246 199.578 72.75C199.302 73.254 199.164 73.848 199.164 74.532C199.164 75.216 199.302 75.816 199.578 76.332C199.866 76.836 200.238 77.22 200.694 77.484C201.162 77.748 201.654 77.88 202.17 77.88C202.698 77.88 203.19 77.748 203.646 77.484C204.114 77.208 204.486 76.812 204.762 76.296C205.05 75.78 205.194 75.18 205.194 74.496ZM211.363 66.18V79.5H209.311V66.18H211.363ZM213.373 74.496C213.373 73.5 213.577 72.618 213.985 71.85C214.405 71.082 214.969 70.488 215.677 70.068C216.397 69.636 217.189 69.42 218.053 69.42C218.833 69.42 219.511 69.576 220.087 69.888C220.675 70.188 221.143 70.566 221.491 71.022V69.582H223.561V79.5H221.491V78.024C221.143 78.492 220.669 78.882 220.069 79.194C219.469 79.506 218.785 79.662 218.017 79.662C217.165 79.662 216.385 79.446 215.677 79.014C214.969 78.57 214.405 77.958 213.985 77.178C213.577 76.386 213.373 75.492 213.373 74.496ZM221.491 74.532C221.491 73.848 221.347 73.254 221.059 72.75C220.783 72.246 220.417 71.862 219.961 71.598C219.505 71.334 219.013 71.202 218.485 71.202C217.957 71.202 217.465 71.334 217.009 71.598C216.553 71.85 216.181 72.228 215.893 72.732C215.617 73.224 215.479 73.812 215.479 74.496C215.479 75.18 215.617 75.78 215.893 76.296C216.181 76.812 216.553 77.208 217.009 77.484C217.477 77.748 217.969 77.88 218.485 77.88C219.013 77.88 219.505 77.748 219.961 77.484C220.417 77.22 220.783 76.836 221.059 76.332C221.347 75.816 221.491 75.216 221.491 74.532ZM227.3 68.268C226.928 68.268 226.616 68.142 226.364 67.89C226.112 67.638 225.986 67.326 225.986 66.954C225.986 66.582 226.112 66.27 226.364 66.018C226.616 65.766 226.928 65.64 227.3 65.64C227.66 65.64 227.966 65.766 228.218 66.018C228.47 66.27 228.596 66.582 228.596 66.954C228.596 67.326 228.47 67.638 228.218 67.89C227.966 68.142 227.66 68.268 227.3 68.268ZM228.308 69.582V79.5H226.256V69.582H228.308ZM236.006 69.42C236.786 69.42 237.482 69.582 238.094 69.906C238.718 70.23 239.204 70.71 239.552 71.346C239.9 71.982 240.074 72.75 240.074 73.65V79.5H238.04V73.956C238.04 73.068 237.818 72.39 237.374 71.922C236.93 71.442 236.324 71.202 235.556 71.202C234.788 71.202 234.176 71.442 233.72 71.922C233.276 72.39 233.054 73.068 233.054 73.956V79.5H231.002V69.582H233.054V70.716C233.39 70.308 233.816 69.99 234.332 69.762C234.86 69.534 235.418 69.42 236.006 69.42Z" fill="#2A2A2A"/>
<rect x="130" y="839" width="134" height="5" rx="2.5" fill="#141414"/>
<rect x="15.5" y="124.5" width="361" height="59" rx="7.5" stroke="#B8B8B8"/>
<path d="M45.784 148.88L41.608 160H39.496L35.304 148.88H37.256L40.552 158.128L43.864 148.88H45.784ZM55.3894 155.376C55.3894 155.707 55.368 156.005 55.3254 156.272H48.5894C48.6427 156.976 48.904 157.541 49.3734 157.968C49.8427 158.395 50.4187 158.608 51.1014 158.608C52.0827 158.608 52.776 158.197 53.1814 157.376H55.1494C54.8827 158.187 54.3974 158.853 53.6934 159.376C53 159.888 52.136 160.144 51.1014 160.144C50.2587 160.144 49.5014 159.957 48.8294 159.584C48.168 159.2 47.6454 158.667 47.2614 157.984C46.888 157.291 46.7014 156.491 46.7014 155.584C46.7014 154.677 46.8827 153.883 47.2454 153.2C47.6187 152.507 48.136 151.973 48.7974 151.6C49.4694 151.227 50.2374 151.04 51.1014 151.04C51.9334 151.04 52.6747 151.221 53.3254 151.584C53.976 151.947 54.4827 152.459 54.8454 153.12C55.208 153.771 55.3894 154.523 55.3894 155.376ZM53.4854 154.8C53.4747 154.128 53.2347 153.589 52.7654 153.184C52.296 152.779 51.7147 152.576 51.0214 152.576C50.392 152.576 49.8534 152.779 49.4054 153.184C48.9574 153.579 48.6907 154.117 48.6054 154.8H53.4854ZM61.7444 151.04C62.4164 151.04 63.0137 151.184 63.5364 151.472C64.0697 151.76 64.4857 152.187 64.7844 152.752C65.0937 153.317 65.2484 154 65.2484 154.8V160H63.4404V155.072C63.4404 154.283 63.243 153.68 62.8484 153.264C62.4537 152.837 61.915 152.624 61.2324 152.624C60.5497 152.624 60.0057 152.837 59.6004 153.264C59.2057 153.68 59.0084 154.283 59.0084 155.072V160H57.1844V148.16H59.0084V152.208C59.3177 151.835 59.707 151.547 60.1764 151.344C60.6564 151.141 61.179 151.04 61.7444 151.04ZM68.503 150.016C68.1723 150.016 67.895 149.904 67.671 149.68C67.447 149.456 67.335 149.179 67.335 148.848C67.335 148.517 67.447 148.24 67.671 148.016C67.895 147.792 68.1723 147.68 68.503 147.68C68.823 147.68 69.095 147.792 69.319 148.016C69.543 148.24 69.655 148.517 69.655 148.848C69.655 149.179 69.543 149.456 69.319 149.68C69.095 149.904 68.823 150.016 68.503 150.016ZM69.399 151.184V160H67.575V151.184H69.399ZM71.1858 155.584C71.1858 154.677 71.3671 153.883 71.7298 153.2C72.1031 152.507 72.6151 151.973 73.2658 151.6C73.9164 151.227 74.6631 151.04 75.5058 151.04C76.5724 151.04 77.4524 151.296 78.1458 151.808C78.8498 152.309 79.3244 153.029 79.5698 153.968H77.6018C77.4418 153.531 77.1858 153.189 76.8338 152.944C76.4818 152.699 76.0391 152.576 75.5058 152.576C74.7591 152.576 74.1618 152.843 73.7138 153.376C73.2764 153.899 73.0578 154.635 73.0578 155.584C73.0578 156.533 73.2764 157.275 73.7138 157.808C74.1618 158.341 74.7591 158.608 75.5058 158.608C76.5618 158.608 77.2604 158.144 77.6018 157.216H79.5698C79.3138 158.112 78.8338 158.827 78.1298 159.36C77.4258 159.883 76.5511 160.144 75.5058 160.144C74.6631 160.144 73.9164 159.957 73.2658 159.584C72.6151 159.2 72.1031 158.667 71.7298 157.984C71.3671 157.291 71.1858 156.491 71.1858 155.584ZM83.2115 148.16V160H81.3875V148.16H83.2115ZM93.6863 155.376C93.6863 155.707 93.6649 156.005 93.6223 156.272H86.8863C86.9396 156.976 87.2009 157.541 87.6703 157.968C88.1396 158.395 88.7156 158.608 89.3983 158.608C90.3796 158.608 91.0729 158.197 91.4783 157.376H93.4462C93.1796 158.187 92.6943 158.853 91.9903 159.376C91.2969 159.888 90.4329 160.144 89.3983 160.144C88.5556 160.144 87.7983 159.957 87.1263 159.584C86.4649 159.2 85.9423 158.667 85.5583 157.984C85.1849 157.291 84.9983 156.491 84.9983 155.584C84.9983 154.677 85.1796 153.883 85.5423 153.2C85.9156 152.507 86.4329 151.973 87.0943 151.6C87.7663 151.227 88.5343 151.04 89.3983 151.04C90.2303 151.04 90.9716 151.221 91.6223 151.584C92.2729 151.947 92.7796 152.459 93.1423 153.12C93.5049 153.771 93.6863 154.523 93.6863 155.376ZM91.7823 154.8C91.7716 154.128 91.5316 153.589 91.0623 153.184C90.5929 152.779 90.0116 152.576 89.3183 152.576C88.6889 152.576 88.1503 152.779 87.7023 153.184C87.2543 153.579 86.9876 154.117 86.9023 154.8H91.7823ZM104.086 151.04C104.779 151.04 105.398 151.184 105.942 151.472C106.496 151.76 106.928 152.187 107.238 152.752C107.547 153.317 107.702 154 107.702 154.8V160H105.894V155.072C105.894 154.283 105.696 153.68 105.302 153.264C104.907 152.837 104.368 152.624 103.686 152.624C103.003 152.624 102.459 152.837 102.054 153.264C101.659 153.68 101.462 154.283 101.462 155.072V160H99.6375V151.184H101.462V152.192C101.76 151.829 102.139 151.547 102.598 151.344C103.067 151.141 103.563 151.04 104.086 151.04ZM113.852 160.144C113.02 160.144 112.268 159.957 111.596 159.584C110.924 159.2 110.396 158.667 110.012 157.984C109.628 157.291 109.436 156.491 109.436 155.584C109.436 154.688 109.633 153.893 110.028 153.2C110.423 152.507 110.961 151.973 111.644 151.6C112.327 151.227 113.089 151.04 113.932 151.04C114.775 151.04 115.537 151.227 116.22 151.6C116.903 151.973 117.441 152.507 117.836 153.2C118.231 153.893 118.428 154.688 118.428 155.584C118.428 156.48 118.225 157.275 117.82 157.968C117.415 158.661 116.86 159.2 116.156 159.584C115.463 159.957 114.695 160.144 113.852 160.144ZM113.852 158.56C114.321 158.56 114.759 158.448 115.164 158.224C115.58 158 115.916 157.664 116.172 157.216C116.428 156.768 116.556 156.224 116.556 155.584C116.556 154.944 116.433 154.405 116.188 153.968C115.943 153.52 115.617 153.184 115.212 152.96C114.807 152.736 114.369 152.624 113.9 152.624C113.431 152.624 112.993 152.736 112.588 152.96C112.193 153.184 111.879 153.52 111.644 153.968C111.409 154.405 111.292 154.944 111.292 155.584C111.292 156.533 111.532 157.269 112.012 157.792C112.503 158.304 113.116 158.56 113.852 158.56ZM122.359 152.672V157.552C122.359 157.883 122.434 158.123 122.583 158.272C122.743 158.411 123.01 158.48 123.383 158.48H124.503V160H123.063C122.242 160 121.613 159.808 121.175 159.424C120.738 159.04 120.519 158.416 120.519 157.552V152.672H119.479V151.184H120.519V148.992H122.359V151.184H124.503V152.672H122.359ZM129.733 155.584C129.733 154.677 129.914 153.883 130.277 153.2C130.65 152.507 131.162 151.973 131.813 151.6C132.463 151.227 133.21 151.04 134.053 151.04C135.119 151.04 135.999 151.296 136.693 151.808C137.397 152.309 137.871 153.029 138.117 153.968H136.149C135.989 153.531 135.733 153.189 135.381 152.944C135.029 152.699 134.586 152.576 134.053 152.576C133.306 152.576 132.709 152.843 132.261 153.376C131.823 153.899 131.605 154.635 131.605 155.584C131.605 156.533 131.823 157.275 132.261 157.808C132.709 158.341 133.306 158.608 134.053 158.608C135.109 158.608 135.807 158.144 136.149 157.216H138.117C137.861 158.112 137.381 158.827 136.677 159.36C135.973 159.883 135.098 160.144 134.053 160.144C133.21 160.144 132.463 159.957 131.813 159.584C131.162 159.2 130.65 158.667 130.277 157.984C129.914 157.291 129.733 156.491 129.733 155.584ZM141.758 148.16V160H139.934V148.16H141.758ZM152.233 155.376C152.233 155.707 152.212 156.005 152.169 156.272H145.433C145.486 156.976 145.748 157.541 146.217 157.968C146.686 158.395 147.262 158.608 147.945 158.608C148.926 158.608 149.62 158.197 150.025 157.376H151.993C151.726 158.187 151.241 158.853 150.537 159.376C149.844 159.888 148.98 160.144 147.945 160.144C147.102 160.144 146.345 159.957 145.673 159.584C145.012 159.2 144.489 158.667 144.105 157.984C143.732 157.291 143.545 156.491 143.545 155.584C143.545 154.677 143.726 153.883 144.089 153.2C144.462 152.507 144.98 151.973 145.641 151.6C146.313 151.227 147.081 151.04 147.945 151.04C148.777 151.04 149.518 151.221 150.169 151.584C150.82 151.947 151.326 152.459 151.689 153.12C152.052 153.771 152.233 154.523 152.233 155.376ZM150.329 154.8C150.318 154.128 150.078 153.589 149.609 153.184C149.14 152.779 148.558 152.576 147.865 152.576C147.236 152.576 146.697 152.779 146.249 153.184C145.801 153.579 145.534 154.117 145.449 154.8H150.329ZM153.42 155.552C153.42 154.667 153.601 153.883 153.964 153.2C154.337 152.517 154.839 151.989 155.468 151.616C156.108 151.232 156.812 151.04 157.58 151.04C158.273 151.04 158.876 151.179 159.388 151.456C159.911 151.723 160.327 152.059 160.636 152.464V151.184H162.476V160H160.636V158.688C160.327 159.104 159.905 159.451 159.372 159.728C158.839 160.005 158.231 160.144 157.548 160.144C156.791 160.144 156.097 159.952 155.468 159.568C154.839 159.173 154.337 158.629 153.964 157.936C153.601 157.232 153.42 156.437 153.42 155.552ZM160.636 155.584C160.636 154.976 160.508 154.448 160.252 154C160.007 153.552 159.681 153.211 159.276 152.976C158.871 152.741 158.433 152.624 157.964 152.624C157.495 152.624 157.057 152.741 156.652 152.976C156.247 153.2 155.916 153.536 155.66 153.984C155.415 154.421 155.292 154.944 155.292 155.552C155.292 156.16 155.415 156.693 155.66 157.152C155.916 157.611 156.247 157.963 156.652 158.208C157.068 158.443 157.505 158.56 157.964 158.56C158.433 158.56 158.871 158.443 159.276 158.208C159.681 157.973 160.007 157.632 160.252 157.184C160.508 156.725 160.636 156.192 160.636 155.584ZM169.32 151.04C170.013 151.04 170.632 151.184 171.176 151.472C171.731 151.76 172.163 152.187 172.472 152.752C172.781 153.317 172.936 154 172.936 154.8V160H171.128V155.072C171.128 154.283 170.931 153.68 170.536 153.264C170.141 152.837 169.603 152.624 168.92 152.624C168.237 152.624 167.693 152.837 167.288 153.264C166.893 153.68 166.696 154.283 166.696 155.072V160H164.872V151.184H166.696V152.192C166.995 151.829 167.373 151.547 167.832 151.344C168.301 151.141 168.797 151.04 169.32 151.04Z" fill="#414141"/>
<path d="M360.189 151.29L354.05 157.43C353.464 158.015 352.514 158.015 351.928 157.43L345.789 151.29" stroke="#414141" stroke-width="2" stroke-linecap="round" stroke-linejoin="round"/>
<rect x="15.5" y="200.5" width="361" height="117" rx="7.5" stroke="#B8B8B8"/>
<path d="M38.342 223.242L35.514 233H34.086L31.818 225.146L29.466 233L28.052 233.014L25.322 223.242H26.68L28.808 231.516L31.16 223.242H32.588L34.828 231.488L36.97 223.242H38.342ZM41.0102 226.574C41.2342 226.135 41.5515 225.795 41.9622 225.552C42.3822 225.309 42.8909 225.188 43.4882 225.188V226.504H43.1522C41.7242 226.504 41.0102 227.279 41.0102 228.828V233H39.7362V225.328H41.0102V226.574ZM45.6169 224.082C45.3742 224.082 45.1689 223.998 45.0009 223.83C44.8329 223.662 44.7489 223.457 44.7489 223.214C44.7489 222.971 44.8329 222.766 45.0009 222.598C45.1689 222.43 45.3742 222.346 45.6169 222.346C45.8502 222.346 46.0462 222.43 46.2049 222.598C46.3729 222.766 46.4569 222.971 46.4569 223.214C46.4569 223.457 46.3729 223.662 46.2049 223.83C46.0462 223.998 45.8502 224.082 45.6169 224.082ZM46.2329 225.328V233H44.9589V225.328H46.2329ZM49.9582 226.378V230.9C49.9582 231.273 50.0375 231.539 50.1962 231.698C50.3548 231.847 50.6302 231.922 51.0222 231.922H51.9602V233H50.8122C50.1028 233 49.5708 232.837 49.2162 232.51C48.8615 232.183 48.6842 231.647 48.6842 230.9V226.378H47.6902V225.328H48.6842V223.396H49.9582V225.328H51.9602V226.378H49.9582ZM60.5038 228.87C60.5038 229.113 60.4898 229.369 60.4618 229.64H54.3298C54.3764 230.396 54.6331 230.989 55.0998 231.418C55.5758 231.838 56.1498 232.048 56.8218 232.048C57.3724 232.048 57.8298 231.922 58.1938 231.67C58.5671 231.409 58.8284 231.063 58.9778 230.634H60.3498C60.1444 231.371 59.7338 231.973 59.1178 232.44C58.5018 232.897 57.7364 233.126 56.8218 233.126C56.0938 233.126 55.4404 232.963 54.8618 232.636C54.2924 232.309 53.8444 231.847 53.5178 231.25C53.1911 230.643 53.0278 229.943 53.0278 229.15C53.0278 228.357 53.1864 227.661 53.5038 227.064C53.8211 226.467 54.2644 226.009 54.8338 225.692C55.4124 225.365 56.0751 225.202 56.8218 225.202C57.5498 225.202 58.1938 225.361 58.7538 225.678C59.3138 225.995 59.7431 226.434 60.0418 226.994C60.3498 227.545 60.5038 228.17 60.5038 228.87ZM59.1878 228.604C59.1878 228.119 59.0804 227.703 58.8658 227.358C58.6511 227.003 58.3571 226.737 57.9838 226.56C57.6198 226.373 57.2138 226.28 56.7658 226.28C56.1218 226.28 55.5711 226.485 55.1138 226.896C54.6658 227.307 54.4091 227.876 54.3438 228.604H59.1878ZM72.5258 225.328L67.9058 236.612H66.5898L68.1018 232.916L65.0078 225.328H66.4218L68.8298 231.544L71.2098 225.328H72.5258ZM77.1525 233.126C76.4338 233.126 75.7805 232.963 75.1925 232.636C74.6138 232.309 74.1565 231.847 73.8205 231.25C73.4938 230.643 73.3305 229.943 73.3305 229.15C73.3305 228.366 73.4985 227.675 73.8345 227.078C74.1798 226.471 74.6465 226.009 75.2345 225.692C75.8225 225.365 76.4805 225.202 77.2085 225.202C77.9365 225.202 78.5945 225.365 79.1825 225.692C79.7705 226.009 80.2325 226.467 80.5685 227.064C80.9138 227.661 81.0865 228.357 81.0865 229.15C81.0865 229.943 80.9092 230.643 80.5545 231.25C80.2092 231.847 79.7378 232.309 79.1405 232.636C78.5432 232.963 77.8805 233.126 77.1525 233.126ZM77.1525 232.006C77.6098 232.006 78.0392 231.899 78.4405 231.684C78.8418 231.469 79.1638 231.147 79.4065 230.718C79.6585 230.289 79.7845 229.766 79.7845 229.15C79.7845 228.534 79.6632 228.011 79.4205 227.582C79.1778 227.153 78.8605 226.835 78.4685 226.63C78.0765 226.415 77.6518 226.308 77.1945 226.308C76.7278 226.308 76.2985 226.415 75.9065 226.63C75.5238 226.835 75.2158 227.153 74.9825 227.582C74.7492 228.011 74.6325 228.534 74.6325 229.15C74.6325 229.775 74.7445 230.303 74.9685 230.732C75.2018 231.161 75.5098 231.483 75.8925 231.698C76.2752 231.903 76.6952 232.006 77.1525 232.006ZM89.5656 225.328V233H88.2916V231.866C88.0489 232.258 87.7083 232.566 87.2696 232.79C86.8403 233.005 86.3643 233.112 85.8416 233.112C85.2443 233.112 84.7076 232.991 84.2316 232.748C83.7556 232.496 83.3776 232.123 83.0976 231.628C82.8269 231.133 82.6916 230.531 82.6916 229.822V225.328H83.9516V229.654C83.9516 230.41 84.1429 230.993 84.5256 231.404C84.9083 231.805 85.4309 232.006 86.0936 232.006C86.7749 232.006 87.3116 231.796 87.7036 231.376C88.0956 230.956 88.2916 230.345 88.2916 229.542V225.328H89.5656ZM92.9907 226.574C93.2147 226.135 93.532 225.795 93.9427 225.552C94.3627 225.309 94.8713 225.188 95.4687 225.188V226.504H95.1327C93.7047 226.504 92.9907 227.279 92.9907 228.828V233H91.7167V225.328H92.9907V226.574ZM100.196 229.15C100.196 228.357 100.354 227.666 100.672 227.078C100.989 226.481 101.428 226.019 101.988 225.692C102.557 225.365 103.206 225.202 103.934 225.202C104.876 225.202 105.651 225.431 106.258 225.888C106.874 226.345 107.28 226.98 107.476 227.792H106.104C105.973 227.325 105.716 226.957 105.334 226.686C104.96 226.415 104.494 226.28 103.934 226.28C103.206 226.28 102.618 226.532 102.17 227.036C101.722 227.531 101.498 228.235 101.498 229.15C101.498 230.074 101.722 230.788 102.17 231.292C102.618 231.796 103.206 232.048 103.934 232.048C104.494 232.048 104.96 231.917 105.334 231.656C105.707 231.395 105.964 231.021 106.104 230.536H107.476C107.27 231.32 106.86 231.95 106.244 232.426C105.628 232.893 104.858 233.126 103.934 233.126C103.206 233.126 102.557 232.963 101.988 232.636C101.428 232.309 100.989 231.847 100.672 231.25C100.354 230.653 100.196 229.953 100.196 229.15ZM112.522 233.126C111.803 233.126 111.15 232.963 110.562 232.636C109.983 232.309 109.526 231.847 109.19 231.25C108.863 230.643 108.7 229.943 108.7 229.15C108.7 228.366 108.868 227.675 109.204 227.078C109.549 226.471 110.016 226.009 110.604 225.692C111.192 225.365 111.85 225.202 112.578 225.202C113.306 225.202 113.964 225.365 114.552 225.692C115.14 226.009 115.602 226.467 115.938 227.064C116.283 227.661 116.456 228.357 116.456 229.15C116.456 229.943 116.278 230.643 115.924 231.25C115.578 231.847 115.107 232.309 114.51 232.636C113.912 232.963 113.25 233.126 112.522 233.126ZM112.522 232.006C112.979 232.006 113.408 231.899 113.81 231.684C114.211 231.469 114.533 231.147 114.776 230.718C115.028 230.289 115.154 229.766 115.154 229.15C115.154 228.534 115.032 228.011 114.79 227.582C114.547 227.153 114.23 226.835 113.838 226.63C113.446 226.415 113.021 226.308 112.564 226.308C112.097 226.308 111.668 226.415 111.276 226.63C110.893 226.835 110.585 227.153 110.352 227.582C110.118 228.011 110.002 228.534 110.002 229.15C110.002 229.775 110.114 230.303 110.338 230.732C110.571 231.161 110.879 231.483 111.262 231.698C111.644 231.903 112.064 232.006 112.522 232.006ZM127.357 225.188C127.954 225.188 128.486 225.314 128.953 225.566C129.419 225.809 129.788 226.177 130.059 226.672C130.329 227.167 130.465 227.769 130.465 228.478V233H129.205V228.66C129.205 227.895 129.013 227.311 128.631 226.91C128.257 226.499 127.749 226.294 127.105 226.294C126.442 226.294 125.915 226.509 125.523 226.938C125.131 227.358 124.935 227.969 124.935 228.772V233H123.675V228.66C123.675 227.895 123.483 227.311 123.101 226.91C122.727 226.499 122.219 226.294 121.575 226.294C120.912 226.294 120.385 226.509 119.993 226.938C119.601 227.358 119.405 227.969 119.405 228.772V233H118.131V225.328H119.405V226.434C119.657 226.033 119.993 225.725 120.413 225.51C120.842 225.295 121.313 225.188 121.827 225.188C122.471 225.188 123.04 225.333 123.535 225.622C124.029 225.911 124.398 226.336 124.641 226.896C124.855 226.355 125.21 225.935 125.705 225.636C126.199 225.337 126.75 225.188 127.357 225.188ZM133.829 226.742C134.081 226.303 134.454 225.939 134.949 225.65C135.453 225.351 136.036 225.202 136.699 225.202C137.38 225.202 137.996 225.365 138.547 225.692C139.107 226.019 139.545 226.481 139.863 227.078C140.18 227.666 140.339 228.352 140.339 229.136C140.339 229.911 140.18 230.601 139.863 231.208C139.545 231.815 139.107 232.286 138.547 232.622C137.996 232.958 137.38 233.126 136.699 233.126C136.045 233.126 135.467 232.981 134.963 232.692C134.468 232.393 134.09 232.025 133.829 231.586V236.64H132.555V225.328H133.829V226.742ZM139.037 229.136C139.037 228.557 138.92 228.053 138.687 227.624C138.453 227.195 138.136 226.868 137.735 226.644C137.343 226.42 136.909 226.308 136.433 226.308C135.966 226.308 135.532 226.425 135.131 226.658C134.739 226.882 134.421 227.213 134.179 227.652C133.945 228.081 133.829 228.581 133.829 229.15C133.829 229.729 133.945 230.237 134.179 230.676C134.421 231.105 134.739 231.437 135.131 231.67C135.532 231.894 135.966 232.006 136.433 232.006C136.909 232.006 137.343 231.894 137.735 231.67C138.136 231.437 138.453 231.105 138.687 230.676C138.92 230.237 139.037 229.724 139.037 229.136ZM143.29 222.64V233H142.016V222.64H143.29ZM144.985 229.136C144.985 228.352 145.143 227.666 145.461 227.078C145.778 226.481 146.212 226.019 146.763 225.692C147.323 225.365 147.943 225.202 148.625 225.202C149.297 225.202 149.88 225.347 150.375 225.636C150.869 225.925 151.238 226.289 151.481 226.728V225.328H152.769V233H151.481V231.572C151.229 232.02 150.851 232.393 150.347 232.692C149.852 232.981 149.273 233.126 148.611 233.126C147.929 233.126 147.313 232.958 146.763 232.622C146.212 232.286 145.778 231.815 145.461 231.208C145.143 230.601 144.985 229.911 144.985 229.136ZM151.481 229.15C151.481 228.571 151.364 228.067 151.131 227.638C150.897 227.209 150.58 226.882 150.179 226.658C149.787 226.425 149.353 226.308 148.877 226.308C148.401 226.308 147.967 226.42 147.575 226.644C147.183 226.868 146.87 227.195 146.637 227.624C146.403 228.053 146.287 228.557 146.287 229.136C146.287 229.724 146.403 230.237 146.637 230.676C146.87 231.105 147.183 231.437 147.575 231.67C147.967 231.894 148.401 232.006 148.877 232.006C149.353 232.006 149.787 231.894 150.179 231.67C150.58 231.437 150.897 231.105 151.131 230.676C151.364 230.237 151.481 229.729 151.481 229.15ZM155.58 224.082C155.337 224.082 155.132 223.998 154.964 223.83C154.796 223.662 154.712 223.457 154.712 223.214C154.712 222.971 154.796 222.766 154.964 222.598C155.132 222.43 155.337 222.346 155.58 222.346C155.813 222.346 156.009 222.43 156.168 222.598C156.336 222.766 156.42 222.971 156.42 223.214C156.42 223.457 156.336 223.662 156.168 223.83C156.009 223.998 155.813 224.082 155.58 224.082ZM156.196 225.328V233H154.922V225.328H156.196ZM162.105 225.188C163.038 225.188 163.794 225.473 164.373 226.042C164.952 226.602 165.241 227.414 165.241 228.478V233H163.981V228.66C163.981 227.895 163.79 227.311 163.407 226.91C163.024 226.499 162.502 226.294 161.839 226.294C161.167 226.294 160.63 226.504 160.229 226.924C159.837 227.344 159.641 227.955 159.641 228.758V233H158.367V225.328H159.641V226.42C159.893 226.028 160.234 225.725 160.663 225.51C161.102 225.295 161.582 225.188 162.105 225.188ZM174.863 225.188C175.441 225.188 175.964 225.314 176.431 225.566C176.897 225.809 177.261 226.177 177.523 226.672C177.793 227.167 177.929 227.769 177.929 228.478V233H176.669V228.66C176.669 227.895 176.477 227.311 176.095 226.91C175.712 226.499 175.189 226.294 174.527 226.294C173.855 226.294 173.318 226.504 172.917 226.924C172.525 227.344 172.329 227.955 172.329 228.758V233H171.055V222.64H172.329V226.42C172.581 226.028 172.926 225.725 173.365 225.51C173.813 225.295 174.312 225.188 174.863 225.188ZM187.01 228.87C187.01 229.113 186.996 229.369 186.968 229.64H180.836C180.882 230.396 181.139 230.989 181.606 231.418C182.082 231.838 182.656 232.048 183.328 232.048C183.878 232.048 184.336 231.922 184.7 231.67C185.073 231.409 185.334 231.063 185.484 230.634H186.856C186.65 231.371 186.24 231.973 185.624 232.44C185.008 232.897 184.242 233.126 183.328 233.126C182.6 233.126 181.946 232.963 181.368 232.636C180.798 232.309 180.35 231.847 180.024 231.25C179.697 230.643 179.534 229.943 179.534 229.15C179.534 228.357 179.692 227.661 180.01 227.064C180.327 226.467 180.77 226.009 181.34 225.692C181.918 225.365 182.581 225.202 183.328 225.202C184.056 225.202 184.7 225.361 185.26 225.678C185.82 225.995 186.249 226.434 186.548 226.994C186.856 227.545 187.01 228.17 187.01 228.87ZM185.694 228.604C185.694 228.119 185.586 227.703 185.372 227.358C185.157 227.003 184.863 226.737 184.49 226.56C184.126 226.373 183.72 226.28 183.272 226.28C182.628 226.28 182.077 226.485 181.62 226.896C181.172 227.307 180.915 227.876 180.85 228.604H185.694ZM189.965 226.574C190.189 226.135 190.507 225.795 190.917 225.552C191.337 225.309 191.846 225.188 192.443 225.188V226.504H192.107C190.679 226.504 189.965 227.279 189.965 228.828V233H188.691V225.328H189.965V226.574ZM200.914 228.87C200.914 229.113 200.9 229.369 200.872 229.64H194.74C194.787 230.396 195.043 230.989 195.51 231.418C195.986 231.838 196.56 232.048 197.232 232.048C197.783 232.048 198.24 231.922 198.604 231.67C198.977 231.409 199.239 231.063 199.388 230.634H200.76C200.555 231.371 200.144 231.973 199.528 232.44C198.912 232.897 198.147 233.126 197.232 233.126C196.504 233.126 195.851 232.963 195.272 232.636C194.703 232.309 194.255 231.847 193.928 231.25C193.601 230.643 193.438 229.943 193.438 229.15C193.438 228.357 193.597 227.661 193.914 227.064C194.231 226.467 194.675 226.009 195.244 225.692C195.823 225.365 196.485 225.202 197.232 225.202C197.96 225.202 198.604 225.361 199.164 225.678C199.724 225.995 200.153 226.434 200.452 226.994C200.76 227.545 200.914 228.17 200.914 228.87ZM199.598 228.604C199.598 228.119 199.491 227.703 199.276 227.358C199.061 227.003 198.767 226.737 198.394 226.56C198.03 226.373 197.624 226.28 197.176 226.28C196.532 226.28 195.981 226.485 195.524 226.896C195.076 227.307 194.819 227.876 194.754 228.604H199.598ZM209.604 235.604C208.708 234.727 208.008 233.611 207.504 232.258C207.009 230.905 206.762 229.444 206.762 227.876C206.762 226.271 207.023 224.773 207.546 223.382C208.078 221.982 208.834 220.829 209.814 219.924H211.144V220.05C210.099 221.03 209.31 222.211 208.778 223.592C208.255 224.964 207.994 226.392 207.994 227.876C207.994 229.323 208.241 230.704 208.736 232.02C209.24 233.336 209.973 234.489 210.934 235.478V235.604H209.604ZM221.911 225.188C222.509 225.188 223.041 225.314 223.507 225.566C223.974 225.809 224.343 226.177 224.613 226.672C224.884 227.167 225.019 227.769 225.019 228.478V233H223.759V228.66C223.759 227.895 223.568 227.311 223.185 226.91C222.812 226.499 222.303 226.294 221.659 226.294C220.997 226.294 220.469 226.509 220.077 226.938C219.685 227.358 219.489 227.969 219.489 228.772V233H218.229V228.66C218.229 227.895 218.038 227.311 217.655 226.91C217.282 226.499 216.773 226.294 216.129 226.294C215.467 226.294 214.939 226.509 214.547 226.938C214.155 227.358 213.959 227.969 213.959 228.772V233H212.685V225.328H213.959V226.434C214.211 226.033 214.547 225.725 214.967 225.51C215.397 225.295 215.868 225.188 216.381 225.188C217.025 225.188 217.595 225.333 218.089 225.622C218.584 225.911 218.953 226.336 219.195 226.896C219.41 226.355 219.765 225.935 220.259 225.636C220.754 225.337 221.305 225.188 221.911 225.188ZM227.767 224.082C227.525 224.082 227.319 223.998 227.151 223.83C226.983 223.662 226.899 223.457 226.899 223.214C226.899 222.971 226.983 222.766 227.151 222.598C227.319 222.43 227.525 222.346 227.767 222.346C228.001 222.346 228.197 222.43 228.355 222.598C228.523 222.766 228.607 222.971 228.607 223.214C228.607 223.457 228.523 223.662 228.355 223.83C228.197 223.998 228.001 224.082 227.767 224.082ZM228.383 225.328V233H227.109V225.328H228.383ZM234.293 225.188C235.226 225.188 235.982 225.473 236.561 226.042C237.139 226.602 237.429 227.414 237.429 228.478V233H236.169V228.66C236.169 227.895 235.977 227.311 235.595 226.91C235.212 226.499 234.689 226.294 234.027 226.294C233.355 226.294 232.818 226.504 232.417 226.924C232.025 227.344 231.829 227.955 231.829 228.758V233H230.555V225.328H231.829V226.42C232.081 226.028 232.421 225.725 232.851 225.51C233.289 225.295 233.77 225.188 234.293 225.188ZM240.168 224.082C239.925 224.082 239.72 223.998 239.552 223.83C239.384 223.662 239.3 223.457 239.3 223.214C239.3 222.971 239.384 222.766 239.552 222.598C239.72 222.43 239.925 222.346 240.168 222.346C240.401 222.346 240.597 222.43 240.756 222.598C240.924 222.766 241.008 222.971 241.008 223.214C241.008 223.457 240.924 223.662 240.756 223.83C240.597 223.998 240.401 224.082 240.168 224.082ZM240.784 225.328V233H239.51V225.328H240.784ZM252.181 225.188C252.778 225.188 253.31 225.314 253.777 225.566C254.244 225.809 254.612 226.177 254.883 226.672C255.154 227.167 255.289 227.769 255.289 228.478V233H254.029V228.66C254.029 227.895 253.838 227.311 253.455 226.91C253.082 226.499 252.573 226.294 251.929 226.294C251.266 226.294 250.739 226.509 250.347 226.938C249.955 227.358 249.759 227.969 249.759 228.772V233H248.499V228.66C248.499 227.895 248.308 227.311 247.925 226.91C247.552 226.499 247.043 226.294 246.399 226.294C245.736 226.294 245.209 226.509 244.817 226.938C244.425 227.358 244.229 227.969 244.229 228.772V233H242.955V225.328H244.229V226.434C244.481 226.033 244.817 225.725 245.237 225.51C245.666 225.295 246.138 225.188 246.651 225.188C247.295 225.188 247.864 225.333 248.359 225.622C248.854 225.911 249.222 226.336 249.465 226.896C249.68 226.355 250.034 225.935 250.529 225.636C251.024 225.337 251.574 225.188 252.181 225.188ZM264.183 225.328V233H262.909V231.866C262.666 232.258 262.325 232.566 261.887 232.79C261.457 233.005 260.981 233.112 260.459 233.112C259.861 233.112 259.325 232.991 258.849 232.748C258.373 232.496 257.995 232.123 257.715 231.628C257.444 231.133 257.309 230.531 257.309 229.822V225.328H258.569V229.654C258.569 230.41 258.76 230.993 259.143 231.404C259.525 231.805 260.048 232.006 260.711 232.006C261.392 232.006 261.929 231.796 262.321 231.376C262.713 230.956 262.909 230.345 262.909 229.542V225.328H264.183ZM275.56 225.188C276.157 225.188 276.689 225.314 277.156 225.566C277.623 225.809 277.991 226.177 278.262 226.672C278.533 227.167 278.668 227.769 278.668 228.478V233H277.408V228.66C277.408 227.895 277.217 227.311 276.834 226.91C276.461 226.499 275.952 226.294 275.308 226.294C274.645 226.294 274.118 226.509 273.726 226.938C273.334 227.358 273.138 227.969 273.138 228.772V233H271.878V228.66C271.878 227.895 271.687 227.311 271.304 226.91C270.931 226.499 270.422 226.294 269.778 226.294C269.115 226.294 268.588 226.509 268.196 226.938C267.804 227.358 267.608 227.969 267.608 228.772V233H266.334V225.328H267.608V226.434C267.86 226.033 268.196 225.725 268.616 225.51C269.045 225.295 269.517 225.188 270.03 225.188C270.674 225.188 271.243 225.333 271.738 225.622C272.233 225.911 272.601 226.336 272.844 226.896C273.059 226.355 273.413 225.935 273.908 225.636C274.403 225.337 274.953 225.188 275.56 225.188ZM283.944 224.04V222.878H286.576V233H285.288V224.04H283.944ZM288.764 227.834C288.764 226.229 289.026 224.978 289.548 224.082C290.071 223.177 290.986 222.724 292.292 222.724C293.59 222.724 294.5 223.177 295.022 224.082C295.545 224.978 295.806 226.229 295.806 227.834C295.806 229.467 295.545 230.737 295.022 231.642C294.5 232.547 293.59 233 292.292 233C290.986 233 290.071 232.547 289.548 231.642C289.026 230.737 288.764 229.467 288.764 227.834ZM294.546 227.834C294.546 227.022 294.49 226.336 294.378 225.776C294.276 225.207 294.056 224.749 293.72 224.404C293.394 224.059 292.918 223.886 292.292 223.886C291.658 223.886 291.172 224.059 290.836 224.404C290.51 224.749 290.29 225.207 290.178 225.776C290.076 226.336 290.024 227.022 290.024 227.834C290.024 228.674 290.076 229.379 290.178 229.948C290.29 230.517 290.51 230.975 290.836 231.32C291.172 231.665 291.658 231.838 292.292 231.838C292.918 231.838 293.394 231.665 293.72 231.32C294.056 230.975 294.276 230.517 294.378 229.948C294.49 229.379 294.546 228.674 294.546 227.834ZM25.602 248.15C25.602 247.357 25.7607 246.666 26.078 246.078C26.3953 245.481 26.834 245.019 27.394 244.692C27.9633 244.365 28.612 244.202 29.34 244.202C30.2827 244.202 31.0573 244.431 31.664 244.888C32.28 245.345 32.686 245.98 32.882 246.792H31.51C31.3793 246.325 31.1227 245.957 30.74 245.686C30.3667 245.415 29.9 245.28 29.34 245.28C28.612 245.28 28.024 245.532 27.576 246.036C27.128 246.531 26.904 247.235 26.904 248.15C26.904 249.074 27.128 249.788 27.576 250.292C28.024 250.796 28.612 251.048 29.34 251.048C29.9 251.048 30.3667 250.917 30.74 250.656C31.1133 250.395 31.37 250.021 31.51 249.536H32.882C32.6767 250.32 32.266 250.95 31.65 251.426C31.034 251.893 30.264 252.126 29.34 252.126C28.612 252.126 27.9633 251.963 27.394 251.636C26.834 251.309 26.3953 250.847 26.078 250.25C25.7607 249.653 25.602 248.953 25.602 248.15ZM38.3899 244.188C38.9686 244.188 39.4912 244.314 39.9579 244.566C40.4246 244.809 40.7886 245.177 41.0499 245.672C41.3206 246.167 41.4559 246.769 41.4559 247.478V252H40.1959V247.66C40.1959 246.895 40.0046 246.311 39.6219 245.91C39.2392 245.499 38.7166 245.294 38.0539 245.294C37.3819 245.294 36.8452 245.504 36.4439 245.924C36.0519 246.344 35.8559 246.955 35.8559 247.758V252H34.5819V241.64H35.8559V245.42C36.1079 245.028 36.4532 244.725 36.8919 244.51C37.3399 244.295 37.8392 244.188 38.3899 244.188ZM43.061 248.136C43.061 247.352 43.2197 246.666 43.537 246.078C43.8543 245.481 44.2883 245.019 44.839 244.692C45.399 244.365 46.0197 244.202 46.701 244.202C47.373 244.202 47.9563 244.347 48.451 244.636C48.9457 244.925 49.3143 245.289 49.557 245.728V244.328H50.845V252H49.557V250.572C49.305 251.02 48.927 251.393 48.423 251.692C47.9283 251.981 47.3497 252.126 46.687 252.126C46.0057 252.126 45.3897 251.958 44.839 251.622C44.2883 251.286 43.8543 250.815 43.537 250.208C43.2197 249.601 43.061 248.911 43.061 248.136ZM49.557 248.15C49.557 247.571 49.4403 247.067 49.207 246.638C48.9737 246.209 48.6563 245.882 48.255 245.658C47.863 245.425 47.429 245.308 46.953 245.308C46.477 245.308 46.043 245.42 45.651 245.644C45.259 245.868 44.9463 246.195 44.713 246.624C44.4797 247.053 44.363 247.557 44.363 248.136C44.363 248.724 44.4797 249.237 44.713 249.676C44.9463 250.105 45.259 250.437 45.651 250.67C46.043 250.894 46.477 251.006 46.953 251.006C47.429 251.006 47.863 250.894 48.255 250.67C48.6563 250.437 48.9737 250.105 49.207 249.676C49.4403 249.237 49.557 248.729 49.557 248.15ZM54.2719 245.574C54.4959 245.135 54.8133 244.795 55.2239 244.552C55.6439 244.309 56.1526 244.188 56.7499 244.188V245.504H56.4139C54.9859 245.504 54.2719 246.279 54.2719 247.828V252H52.9979V244.328H54.2719V245.574ZM57.7446 248.136C57.7446 247.352 57.9032 246.666 58.2206 246.078C58.5379 245.481 58.9719 245.019 59.5226 244.692C60.0826 244.365 60.7032 244.202 61.3846 244.202C62.0566 244.202 62.6399 244.347 63.1346 244.636C63.6292 244.925 63.9979 245.289 64.2406 245.728V244.328H65.5286V252H64.2406V250.572C63.9886 251.02 63.6106 251.393 63.1066 251.692C62.6119 251.981 62.0332 252.126 61.3706 252.126C60.6892 252.126 60.0732 251.958 59.5226 251.622C58.9719 251.286 58.5379 250.815 58.2206 250.208C57.9032 249.601 57.7446 248.911 57.7446 248.136ZM64.2406 248.15C64.2406 247.571 64.1239 247.067 63.8906 246.638C63.6572 246.209 63.3399 245.882 62.9386 245.658C62.5466 245.425 62.1126 245.308 61.6366 245.308C61.1606 245.308 60.7266 245.42 60.3346 245.644C59.9426 245.868 59.6299 246.195 59.3966 246.624C59.1632 247.053 59.0466 247.557 59.0466 248.136C59.0466 248.724 59.1632 249.237 59.3966 249.676C59.6299 250.105 59.9426 250.437 60.3346 250.67C60.7266 250.894 61.1606 251.006 61.6366 251.006C62.1126 251.006 62.5466 250.894 62.9386 250.67C63.3399 250.437 63.6572 250.105 63.8906 249.676C64.1239 249.237 64.2406 248.729 64.2406 248.15ZM67.2055 248.15C67.2055 247.357 67.3642 246.666 67.6815 246.078C67.9988 245.481 68.4375 245.019 68.9975 244.692C69.5668 244.365 70.2155 244.202 70.9435 244.202C71.8862 244.202 72.6608 244.431 73.2675 244.888C73.8835 245.345 74.2895 245.98 74.4855 246.792H73.1135C72.9828 246.325 72.7262 245.957 72.3435 245.686C71.9702 245.415 71.5035 245.28 70.9435 245.28C70.2155 245.28 69.6275 245.532 69.1795 246.036C68.7315 246.531 68.5075 247.235 68.5075 248.15C68.5075 249.074 68.7315 249.788 69.1795 250.292C69.6275 250.796 70.2155 251.048 70.9435 251.048C71.5035 251.048 71.9702 250.917 72.3435 250.656C72.7168 250.395 72.9735 250.021 73.1135 249.536H74.4855C74.2802 250.32 73.8695 250.95 73.2535 251.426C72.6375 251.893 71.8675 252.126 70.9435 252.126C70.2155 252.126 69.5668 251.963 68.9975 251.636C68.4375 251.309 67.9988 250.847 67.6815 250.25C67.3642 249.653 67.2055 248.953 67.2055 248.15ZM77.7394 245.378V249.9C77.7394 250.273 77.8188 250.539 77.9774 250.698C78.1361 250.847 78.4114 250.922 78.8034 250.922H79.7414V252H78.5934C77.8841 252 77.3521 251.837 76.9974 251.51C76.6428 251.183 76.4654 250.647 76.4654 249.9V245.378H75.4714V244.328H76.4654V242.396H77.7394V244.328H79.7414V245.378H77.7394ZM88.285 247.87C88.285 248.113 88.271 248.369 88.243 248.64H82.111C82.1577 249.396 82.4144 249.989 82.881 250.418C83.357 250.838 83.931 251.048 84.603 251.048C85.1537 251.048 85.611 250.922 85.975 250.67C86.3484 250.409 86.6097 250.063 86.759 249.634H88.131C87.9257 250.371 87.515 250.973 86.899 251.44C86.283 251.897 85.5177 252.126 84.603 252.126C83.875 252.126 83.2217 251.963 82.643 251.636C82.0737 251.309 81.6257 250.847 81.299 250.25C80.9724 249.643 80.809 248.943 80.809 248.15C80.809 247.357 80.9677 246.661 81.285 246.064C81.6024 245.467 82.0457 245.009 82.615 244.692C83.1937 244.365 83.8564 244.202 84.603 244.202C85.331 244.202 85.975 244.361 86.535 244.678C87.095 244.995 87.5244 245.434 87.823 245.994C88.131 246.545 88.285 247.17 88.285 247.87ZM86.969 247.604C86.969 247.119 86.8617 246.703 86.647 246.358C86.4324 246.003 86.1384 245.737 85.765 245.56C85.401 245.373 84.995 245.28 84.547 245.28C83.903 245.28 83.3524 245.485 82.895 245.896C82.447 246.307 82.1904 246.876 82.125 247.604H86.969ZM91.2407 245.574C91.4647 245.135 91.782 244.795 92.1927 244.552C92.6127 244.309 93.1213 244.188 93.7187 244.188V245.504H93.3827C91.9547 245.504 91.2407 246.279 91.2407 247.828V252H89.9667V244.328H91.2407V245.574ZM97.9053 252.126C97.3173 252.126 96.79 252.028 96.3233 251.832C95.8567 251.627 95.488 251.347 95.2173 250.992C94.9467 250.628 94.7973 250.213 94.7693 249.746H96.0853C96.1227 250.129 96.3 250.441 96.6173 250.684C96.944 250.927 97.3687 251.048 97.8913 251.048C98.3767 251.048 98.7593 250.941 99.0393 250.726C99.3193 250.511 99.4593 250.241 99.4593 249.914C99.4593 249.578 99.31 249.331 99.0113 249.172C98.7127 249.004 98.2507 248.841 97.6253 248.682C97.056 248.533 96.5893 248.383 96.2253 248.234C95.8707 248.075 95.5627 247.847 95.3013 247.548C95.0493 247.24 94.9233 246.839 94.9233 246.344C94.9233 245.952 95.04 245.593 95.2733 245.266C95.5067 244.939 95.838 244.683 96.2673 244.496C96.6967 244.3 97.1867 244.202 97.7373 244.202C98.5867 244.202 99.2727 244.417 99.7953 244.846C100.318 245.275 100.598 245.863 100.635 246.61H99.3613C99.3333 246.209 99.17 245.887 98.8713 245.644C98.582 245.401 98.19 245.28 97.6953 245.28C97.238 245.28 96.874 245.378 96.6033 245.574C96.3327 245.77 96.1973 246.027 96.1973 246.344C96.1973 246.596 96.2767 246.806 96.4353 246.974C96.6033 247.133 96.8087 247.263 97.0513 247.366C97.3033 247.459 97.6487 247.567 98.0873 247.688C98.638 247.837 99.086 247.987 99.4313 248.136C99.7767 248.276 100.071 248.491 100.313 248.78C100.565 249.069 100.696 249.447 100.705 249.914C100.705 250.334 100.589 250.712 100.355 251.048C100.122 251.384 99.7907 251.65 99.3613 251.846C98.9413 252.033 98.456 252.126 97.9053 252.126ZM102.098 254.604V254.478C103.059 253.489 103.787 252.336 104.282 251.02C104.786 249.704 105.038 248.323 105.038 246.876C105.038 245.392 104.772 243.964 104.24 242.592C103.717 241.211 102.933 240.03 101.888 239.05V238.924H103.218C104.198 239.829 104.949 240.982 105.472 242.382C106.004 243.773 106.27 245.271 106.27 246.876C106.27 248.444 106.018 249.905 105.514 251.258C105.019 252.611 104.324 253.727 103.428 254.604H102.098Z" fill="#D0D0D0"/>
<rect x="26" y="350" width="340" height="54" rx="8" fill="#008955"/>
<path d="M172.02 382.612C171.274 382.612 170.602 382.484 170.004 382.228C169.407 381.961 168.938 381.588 168.596 381.108C168.255 380.628 168.084 380.068 168.084 379.428H170.036C170.079 379.908 170.266 380.303 170.596 380.612C170.938 380.921 171.412 381.076 172.02 381.076C172.65 381.076 173.14 380.927 173.492 380.628C173.844 380.319 174.02 379.924 174.02 379.444C174.02 379.071 173.908 378.767 173.684 378.532C173.471 378.297 173.199 378.116 172.868 377.988C172.548 377.86 172.1 377.721 171.524 377.572C170.799 377.38 170.207 377.188 169.748 376.996C169.3 376.793 168.916 376.484 168.596 376.068C168.276 375.652 168.116 375.097 168.116 374.404C168.116 373.764 168.276 373.204 168.596 372.724C168.916 372.244 169.364 371.876 169.94 371.62C170.516 371.364 171.183 371.236 171.94 371.236C173.018 371.236 173.898 371.508 174.58 372.052C175.274 372.585 175.658 373.321 175.732 374.26H173.716C173.684 373.855 173.492 373.508 173.14 373.22C172.788 372.932 172.324 372.788 171.748 372.788C171.226 372.788 170.799 372.921 170.468 373.188C170.138 373.455 169.972 373.839 169.972 374.34C169.972 374.681 170.074 374.964 170.276 375.188C170.49 375.401 170.756 375.572 171.076 375.7C171.396 375.828 171.834 375.967 172.388 376.116C173.124 376.319 173.722 376.521 174.18 376.724C174.65 376.927 175.044 377.241 175.364 377.668C175.695 378.084 175.86 378.644 175.86 379.348C175.86 379.913 175.706 380.447 175.396 380.948C175.098 381.449 174.655 381.855 174.068 382.164C173.492 382.463 172.81 382.612 172.02 382.612ZM185.997 373.684V382.5H184.173V381.46C183.885 381.823 183.506 382.111 183.037 382.324C182.578 382.527 182.087 382.628 181.565 382.628C180.871 382.628 180.247 382.484 179.693 382.196C179.149 381.908 178.717 381.481 178.397 380.916C178.087 380.351 177.933 379.668 177.933 378.868V373.684H179.741V378.596C179.741 379.385 179.938 379.993 180.333 380.42C180.727 380.836 181.266 381.044 181.949 381.044C182.631 381.044 183.17 380.836 183.565 380.42C183.97 379.993 184.173 379.385 184.173 378.596V373.684H185.997ZM190.227 374.996C190.536 374.569 190.958 374.223 191.491 373.956C192.035 373.679 192.638 373.54 193.299 373.54C194.078 373.54 194.782 373.727 195.411 374.1C196.04 374.473 196.536 375.007 196.899 375.7C197.262 376.383 197.443 377.167 197.443 378.052C197.443 378.937 197.262 379.732 196.899 380.436C196.536 381.129 196.035 381.673 195.395 382.068C194.766 382.452 194.067 382.644 193.299 382.644C192.616 382.644 192.008 382.511 191.475 382.244C190.952 381.977 190.536 381.636 190.227 381.22V382.5H188.403V370.66H190.227V374.996ZM195.587 378.052C195.587 377.444 195.459 376.921 195.203 376.484C194.958 376.036 194.627 375.7 194.211 375.476C193.806 375.241 193.368 375.124 192.899 375.124C192.44 375.124 192.003 375.241 191.587 375.476C191.182 375.711 190.851 376.052 190.595 376.5C190.35 376.948 190.227 377.476 190.227 378.084C190.227 378.692 190.35 379.225 190.595 379.684C190.851 380.132 191.182 380.473 191.587 380.708C192.003 380.943 192.44 381.06 192.899 381.06C193.368 381.06 193.806 380.943 194.211 380.708C194.627 380.463 194.958 380.111 195.203 379.652C195.459 379.193 195.587 378.66 195.587 378.052ZM209.919 373.54C210.612 373.54 211.231 373.684 211.775 373.972C212.33 374.26 212.762 374.687 213.071 375.252C213.391 375.817 213.551 376.5 213.551 377.3V382.5H211.743V377.572C211.743 376.783 211.546 376.18 211.151 375.764C210.756 375.337 210.218 375.124 209.535 375.124C208.852 375.124 208.308 375.337 207.903 375.764C207.508 376.18 207.311 376.783 207.311 377.572V382.5H205.503V377.572C205.503 376.783 205.306 376.18 204.911 375.764C204.516 375.337 203.978 375.124 203.295 375.124C202.612 375.124 202.068 375.337 201.663 375.764C201.268 376.18 201.071 376.783 201.071 377.572V382.5H199.247V373.684H201.071V374.692C201.37 374.329 201.748 374.047 202.207 373.844C202.666 373.641 203.156 373.54 203.679 373.54C204.383 373.54 205.012 373.689 205.567 373.988C206.122 374.287 206.548 374.719 206.847 375.284C207.114 374.751 207.53 374.329 208.095 374.02C208.66 373.7 209.268 373.54 209.919 373.54ZM216.8 372.516C216.469 372.516 216.192 372.404 215.968 372.18C215.744 371.956 215.632 371.679 215.632 371.348C215.632 371.017 215.744 370.74 215.968 370.516C216.192 370.292 216.469 370.18 216.8 370.18C217.12 370.18 217.392 370.292 217.616 370.516C217.84 370.74 217.952 371.017 217.952 371.348C217.952 371.679 217.84 371.956 217.616 372.18C217.392 372.404 217.12 372.516 216.8 372.516ZM217.696 373.684V382.5H215.872V373.684H217.696ZM222.219 375.172V380.052C222.219 380.383 222.293 380.623 222.443 380.772C222.603 380.911 222.869 380.98 223.243 380.98H224.363V382.5H222.923C222.101 382.5 221.472 382.308 221.035 381.924C220.597 381.54 220.379 380.916 220.379 380.052V375.172H219.339V373.684H220.379V371.492H222.219V373.684H224.363V375.172H222.219Z" fill="white"/>
</g>
<defs>
<clipPath id="clip0_85_5259">
<rect width="393" height="852" fill="white"/>
</clipPath>
</defs>
</svg>
