<svg width="393" height="852" viewBox="0 0 393 852" fill="none" xmlns="http://www.w3.org/2000/svg">
<g clip-path="url(#clip0_85_5433)">
<rect width="393" height="852" fill="white"/>
<path opacity="0.35" d="M354.834 22.6696C354.834 21.473 355.804 20.5029 357.001 20.5029H373.667C374.864 20.5029 375.834 21.473 375.834 22.6696V28.6696C375.834 29.8662 374.864 30.8363 373.667 30.8363H357.001C355.804 30.8363 354.834 29.8662 354.834 28.6696V22.6696Z" stroke="#141414"/>
<path opacity="0.4" d="M377.334 23.6699V27.6699C378.139 27.3311 378.662 26.5431 378.662 25.6699C378.662 24.7968 378.139 24.0087 377.334 23.6699Z" fill="#141414"/>
<path d="M356.334 23.3363C356.334 22.5999 356.931 22.0029 357.667 22.0029H373.001C373.737 22.0029 374.334 22.5999 374.334 23.3363V28.0029C374.334 28.7393 373.737 29.3363 373.001 29.3363H357.667C356.931 29.3363 356.334 28.7393 356.334 28.0029V23.3363Z" fill="#141414"/>
<path fill-rule="evenodd" clip-rule="evenodd" d="M341.664 22.2773C343.88 22.2774 346.011 23.1289 347.617 24.6557C347.738 24.7735 347.931 24.772 348.05 24.6523L349.206 23.4857C349.267 23.4249 349.3 23.3427 349.3 23.2571C349.299 23.1715 349.265 23.0897 349.204 23.0297C344.989 18.9901 338.339 18.9901 334.124 23.0297C334.063 23.0896 334.028 23.1715 334.027 23.257C334.027 23.3426 334.06 23.4249 334.121 23.4857L335.277 24.6523C335.396 24.7722 335.589 24.7737 335.71 24.6557C337.316 23.1288 339.448 22.2773 341.664 22.2773ZM341.665 26.073C342.882 26.0729 344.056 26.5255 344.959 27.3427C345.081 27.4587 345.273 27.4562 345.392 27.337L346.547 26.1704C346.608 26.1092 346.641 26.0261 346.64 25.9399C346.64 25.8536 346.604 25.7713 346.542 25.7114C343.794 23.155 339.538 23.155 336.79 25.7114C336.728 25.7713 336.692 25.8537 336.691 25.9399C336.691 26.0262 336.724 26.1092 336.785 26.1704L337.94 27.337C338.059 27.4562 338.251 27.4587 338.373 27.3427C339.275 26.526 340.448 26.0735 341.665 26.073ZM343.978 28.6268C343.98 28.7133 343.946 28.7967 343.884 28.8573L341.886 30.873C341.828 30.9323 341.748 30.9656 341.665 30.9656C341.582 30.9656 341.502 30.9323 341.443 30.873L339.445 28.8573C339.384 28.7967 339.35 28.7133 339.352 28.6268C339.353 28.5403 339.391 28.4583 339.455 28.4003C340.731 27.3215 342.599 27.3215 343.874 28.4003C343.939 28.4584 343.976 28.5403 343.978 28.6268Z" fill="#141414"/>
<path fill-rule="evenodd" clip-rule="evenodd" d="M328 20.3359H327C326.448 20.3359 326 20.7837 326 21.3359V30.0026C326 30.5549 326.448 31.0026 327 31.0026H328C328.552 31.0026 329 30.5549 329 30.0026V21.3359C329 20.7837 328.552 20.3359 328 20.3359ZM322.334 22.6693H323.334C323.886 22.6693 324.334 23.117 324.334 23.6693V30.0026C324.334 30.5549 323.886 31.0026 323.334 31.0026H322.334C321.782 31.0026 321.334 30.5549 321.334 30.0026V23.6693C321.334 23.117 321.782 22.6693 322.334 22.6693ZM318.666 25.0026H317.666C317.114 25.0026 316.666 25.4503 316.666 26.0026V30.0026C316.666 30.5548 317.114 31.0026 317.666 31.0026H318.666C319.218 31.0026 319.666 30.5548 319.666 30.0026V26.0026C319.666 25.4503 319.218 25.0026 318.666 25.0026ZM314 27.0026H313C312.448 27.0026 312 27.4503 312 28.0026V30.0026C312 30.5549 312.448 31.0026 313 31.0026H314C314.552 31.0026 315 30.5549 315 30.0026V28.0026C315 27.4503 314.552 27.0026 314 27.0026Z" fill="#141414"/>
<path d="M19.3203 32.2568C22.0083 32.2568 23.605 30.1548 23.605 26.5952C23.605 25.2549 23.3486 24.127 22.8579 23.2554C22.1475 21.9004 20.9243 21.168 19.3789 21.168C17.0791 21.168 15.4531 22.7134 15.4531 24.8813C15.4531 26.9175 16.918 28.397 18.9321 28.397C20.1699 28.397 21.1733 27.8184 21.6714 26.8149H21.6934C21.6934 26.8149 21.7227 26.8149 21.73 26.8149C21.7446 26.8149 21.7959 26.8149 21.7959 26.8149C21.7959 29.2319 20.8804 30.6748 19.335 30.6748C18.4268 30.6748 17.7236 30.1768 17.4819 29.3784H15.5996C15.9146 31.1143 17.3867 32.2568 19.3203 32.2568ZM19.3862 26.8955C18.1704 26.8955 17.3062 26.0312 17.3062 24.8228C17.3062 23.6436 18.2144 22.7427 19.3936 22.7427C20.5728 22.7427 21.481 23.6582 21.481 24.8521C21.481 26.0312 20.5947 26.8955 19.3862 26.8955Z" fill="#141414"/>
<path d="M26.6961 32.1543C27.3919 32.1543 27.868 31.6562 27.868 30.9971C27.868 30.3306 27.3919 29.8398 26.6961 29.8398C26.0076 29.8398 25.5242 30.3306 25.5242 30.9971C25.5242 31.6562 26.0076 32.1543 26.6961 32.1543ZM26.6961 26.6611C27.3919 26.6611 27.868 26.1704 27.868 25.5112C27.868 24.8447 27.3919 24.354 26.6961 24.354C26.0076 24.354 25.5242 24.8447 25.5242 25.5112C25.5242 26.1704 26.0076 26.6611 26.6961 26.6611Z" fill="#141414"/>
<path d="M34.7237 32.0005H36.5328V30.0303H37.961V28.4336H36.5328V21.4316H33.8668C31.9991 24.2441 30.5123 26.5952 29.5602 28.3457V30.0303H34.7237V32.0005ZM31.3106 28.3677C32.5411 26.1997 33.6397 24.4639 34.6505 22.9697H34.753V28.4775H31.3106V28.3677Z" fill="#141414"/>
<path d="M41.9896 32.0005H43.8793V21.4316H41.997L39.2357 23.3652V25.1816L41.8651 23.3359H41.9896V32.0005Z" fill="#141414"/>
<path d="M23 80.7498C22.808 80.7498 22.616 80.6768 22.47 80.5298L15.47 73.5298C15.177 73.2368 15.177 72.7618 15.47 72.4688L22.47 65.4688C22.763 65.1758 23.238 65.1758 23.531 65.4688C23.824 65.7618 23.824 66.2368 23.531 66.5298L17.0611 72.9998L23.531 79.4698C23.824 79.7628 23.824 80.2378 23.531 80.5308C23.384 80.6768 23.192 80.7498 23 80.7498Z" fill="#2A2A2A"/>
<path d="M43.816 72.756C44.2213 72.82 44.5893 72.9853 44.92 73.252C45.2613 73.5187 45.528 73.8493 45.72 74.244C45.9227 74.6387 46.024 75.06 46.024 75.508C46.024 76.0733 45.88 76.5853 45.592 77.044C45.304 77.492 44.8827 77.8493 44.328 78.116C43.784 78.372 43.1387 78.5 42.392 78.5H38.232V67.348H42.232C42.9893 67.348 43.6347 67.476 44.168 67.732C44.7013 67.9773 45.1013 68.3133 45.368 68.74C45.6347 69.1667 45.768 69.6467 45.768 70.18C45.768 70.8413 45.5867 71.3907 45.224 71.828C44.872 72.2547 44.4027 72.564 43.816 72.756ZM39.688 72.164H42.136C42.8187 72.164 43.3467 72.004 43.72 71.684C44.0933 71.364 44.28 70.9213 44.28 70.356C44.28 69.7907 44.0933 69.348 43.72 69.028C43.3467 68.708 42.808 68.548 42.104 68.548H39.688V72.164ZM42.264 77.3C42.9893 77.3 43.5547 77.1293 43.96 76.788C44.3653 76.4467 44.568 75.972 44.568 75.364C44.568 74.7453 44.3547 74.26 43.928 73.908C43.5013 73.5453 42.9307 73.364 42.216 73.364H39.688V77.3H42.264ZM47.5005 74.084C47.5005 73.188 47.6818 72.404 48.0445 71.732C48.4072 71.0493 48.9032 70.5213 49.5325 70.148C50.1725 69.7747 50.8818 69.588 51.6605 69.588C52.4285 69.588 53.0952 69.7533 53.6605 70.084C54.2258 70.4147 54.6472 70.8307 54.9245 71.332V69.732H56.3965V78.5H54.9245V76.868C54.6365 77.38 54.2045 77.8067 53.6285 78.148C53.0632 78.4787 52.4018 78.644 51.6445 78.644C50.8658 78.644 50.1618 78.452 49.5325 78.068C48.9032 77.684 48.4072 77.1453 48.0445 76.452C47.6818 75.7587 47.5005 74.9693 47.5005 74.084ZM54.9245 74.1C54.9245 73.4387 54.7912 72.8627 54.5245 72.372C54.2578 71.8813 53.8952 71.508 53.4365 71.252C52.9885 70.9853 52.4925 70.852 51.9485 70.852C51.4045 70.852 50.9085 70.98 50.4605 71.236C50.0125 71.492 49.6552 71.8653 49.3885 72.356C49.1218 72.8467 48.9885 73.4227 48.9885 74.084C48.9885 74.756 49.1218 75.3427 49.3885 75.844C49.6552 76.3347 50.0125 76.7133 50.4605 76.98C50.9085 77.236 51.4045 77.364 51.9485 77.364C52.4925 77.364 52.9885 77.236 53.4365 76.98C53.8952 76.7133 54.2578 76.3347 54.5245 75.844C54.7912 75.3427 54.9245 74.7613 54.9245 74.1ZM58.313 74.1C58.313 73.1933 58.4943 72.404 58.857 71.732C59.2197 71.0493 59.721 70.5213 60.361 70.148C61.0117 69.7747 61.753 69.588 62.585 69.588C63.6623 69.588 64.5477 69.8493 65.241 70.372C65.945 70.8947 66.409 71.62 66.633 72.548H65.065C64.9157 72.0147 64.6223 71.5933 64.185 71.284C63.7583 70.9747 63.225 70.82 62.585 70.82C61.753 70.82 61.081 71.108 60.569 71.684C60.057 72.2493 59.801 73.0547 59.801 74.1C59.801 75.156 60.057 75.972 60.569 76.548C61.081 77.124 61.753 77.412 62.585 77.412C63.225 77.412 63.7583 77.2627 64.185 76.964C64.6117 76.6653 64.905 76.2387 65.065 75.684H66.633C66.3983 76.58 65.929 77.3 65.225 77.844C64.521 78.3773 63.641 78.644 62.585 78.644C61.753 78.644 61.0117 78.4573 60.361 78.084C59.721 77.7107 59.2197 77.1827 58.857 76.5C58.4943 75.8173 58.313 75.0173 58.313 74.1ZM73.4718 78.5L70.0318 74.628V78.5H68.5758V66.66H70.0318V73.62L73.4078 69.732H75.4398L71.3118 74.1L75.4558 78.5H73.4718Z" fill="#414141"/>
<path d="M169.183 79.5L166.303 74.496H164.737V79.5H162.685V66.99H167.005C167.965 66.99 168.775 67.158 169.435 67.494C170.107 67.83 170.605 68.28 170.929 68.844C171.265 69.408 171.433 70.038 171.433 70.734C171.433 71.55 171.193 72.294 170.713 72.966C170.245 73.626 169.519 74.076 168.535 74.316L171.631 79.5H169.183ZM164.737 72.858H167.005C167.773 72.858 168.349 72.666 168.733 72.282C169.129 71.898 169.327 71.382 169.327 70.734C169.327 70.086 169.135 69.582 168.751 69.222C168.367 68.85 167.785 68.664 167.005 68.664H164.737V72.858ZM183.148 74.298C183.148 74.67 183.124 75.006 183.076 75.306H175.498C175.558 76.098 175.852 76.734 176.38 77.214C176.908 77.694 177.556 77.934 178.324 77.934C179.428 77.934 180.208 77.472 180.664 76.548H182.878C182.578 77.46 182.032 78.21 181.24 78.798C180.46 79.374 179.488 79.662 178.324 79.662C177.376 79.662 176.524 79.452 175.768 79.032C175.024 78.6 174.436 78 174.004 77.232C173.584 76.452 173.374 75.552 173.374 74.532C173.374 73.512 173.578 72.618 173.986 71.85C174.406 71.07 174.988 70.47 175.732 70.05C176.488 69.63 177.352 69.42 178.324 69.42C179.26 69.42 180.094 69.624 180.826 70.032C181.558 70.44 182.128 71.016 182.536 71.76C182.944 72.492 183.148 73.338 183.148 74.298ZM181.006 73.65C180.994 72.894 180.724 72.288 180.196 71.832C179.668 71.376 179.014 71.148 178.234 71.148C177.526 71.148 176.92 71.376 176.416 71.832C175.912 72.276 175.612 72.882 175.516 73.65H181.006ZM189.325 71.256H187.489V79.5H185.419V71.256H184.249V69.582H185.419V68.88C185.419 67.74 185.719 66.912 186.319 66.396C186.931 65.868 187.885 65.604 189.181 65.604V67.314C188.557 67.314 188.119 67.434 187.867 67.674C187.615 67.902 187.489 68.304 187.489 68.88V69.582H189.325V71.256ZM200.234 74.298C200.234 74.67 200.21 75.006 200.162 75.306H192.584C192.644 76.098 192.938 76.734 193.466 77.214C193.994 77.694 194.642 77.934 195.41 77.934C196.514 77.934 197.294 77.472 197.75 76.548H199.964C199.664 77.46 199.118 78.21 198.326 78.798C197.546 79.374 196.574 79.662 195.41 79.662C194.462 79.662 193.61 79.452 192.854 79.032C192.11 78.6 191.522 78 191.09 77.232C190.67 76.452 190.46 75.552 190.46 74.532C190.46 73.512 190.664 72.618 191.072 71.85C191.492 71.07 192.074 70.47 192.818 70.05C193.574 69.63 194.438 69.42 195.41 69.42C196.346 69.42 197.18 69.624 197.912 70.032C198.644 70.44 199.214 71.016 199.622 71.76C200.03 72.492 200.234 73.338 200.234 74.298ZM198.092 73.65C198.08 72.894 197.81 72.288 197.282 71.832C196.754 71.376 196.1 71.148 195.32 71.148C194.612 71.148 194.006 71.376 193.502 71.832C192.998 72.276 192.698 72.882 192.602 73.65H198.092ZM204.305 71.022C204.605 70.518 205.001 70.128 205.493 69.852C205.997 69.564 206.591 69.42 207.275 69.42V71.544H206.753C205.949 71.544 205.337 71.748 204.917 72.156C204.509 72.564 204.305 73.272 204.305 74.28V79.5H202.253V69.582H204.305V71.022ZM211.214 71.022C211.514 70.518 211.91 70.128 212.402 69.852C212.906 69.564 213.5 69.42 214.184 69.42V71.544H213.662C212.858 71.544 212.246 71.748 211.826 72.156C211.418 72.564 211.214 73.272 211.214 74.28V79.5H209.162V69.582H211.214V71.022ZM215.386 74.496C215.386 73.5 215.59 72.618 215.998 71.85C216.418 71.082 216.982 70.488 217.69 70.068C218.41 69.636 219.202 69.42 220.066 69.42C220.846 69.42 221.524 69.576 222.1 69.888C222.688 70.188 223.156 70.566 223.504 71.022V69.582H225.574V79.5H223.504V78.024C223.156 78.492 222.682 78.882 222.082 79.194C221.482 79.506 220.798 79.662 220.03 79.662C219.178 79.662 218.398 79.446 217.69 79.014C216.982 78.57 216.418 77.958 215.998 77.178C215.59 76.386 215.386 75.492 215.386 74.496ZM223.504 74.532C223.504 73.848 223.36 73.254 223.072 72.75C222.796 72.246 222.43 71.862 221.974 71.598C221.518 71.334 221.026 71.202 220.498 71.202C219.97 71.202 219.478 71.334 219.022 71.598C218.566 71.85 218.194 72.228 217.906 72.732C217.63 73.224 217.492 73.812 217.492 74.496C217.492 75.18 217.63 75.78 217.906 76.296C218.194 76.812 218.566 77.208 219.022 77.484C219.49 77.748 219.982 77.88 220.498 77.88C221.026 77.88 221.518 77.748 221.974 77.484C222.43 77.22 222.796 76.836 223.072 76.332C223.36 75.816 223.504 75.216 223.504 74.532ZM230.321 66.18V79.5H228.269V66.18H230.321Z" fill="#2A2A2A"/>
<rect x="130" y="839" width="134" height="5" rx="2.5" fill="#141414"/>
<rect x="15.5" y="155.5" width="361" height="59" rx="7.5" stroke="#B8B8B8"/>
<path d="M41.976 191L39.416 186.552H38.024V191H36.2V179.88H40.04C40.8933 179.88 41.6133 180.029 42.2 180.328C42.7973 180.627 43.24 181.027 43.528 181.528C43.8267 182.029 43.976 182.589 43.976 183.208C43.976 183.933 43.7627 184.595 43.336 185.192C42.92 185.779 42.2747 186.179 41.4 186.392L44.152 191H41.976ZM38.024 185.096H40.04C40.7227 185.096 41.2347 184.925 41.576 184.584C41.928 184.243 42.104 183.784 42.104 183.208C42.104 182.632 41.9333 182.184 41.592 181.864C41.2507 181.533 40.7333 181.368 40.04 181.368H38.024V185.096ZM49.7974 186.6L53.8614 191H51.3974L48.1334 187.208V191H46.3094V179.16H48.1334V186.04L51.3334 182.184H53.8614L49.7974 186.6ZM66.8808 179.88V191H65.0568V183.384L61.6648 191H60.4008L56.9928 183.384V191H55.1688V179.88H57.1368L61.0408 188.6L64.9288 179.88H66.8808ZM75.8221 179.88V181.368H71.1021V184.648H74.7821V186.136H71.1021V191H69.2781V179.88H75.8221ZM85.4965 182.184V191H83.6725V189.96C83.3845 190.323 83.0058 190.611 82.5365 190.824C82.0778 191.027 81.5872 191.128 81.0645 191.128C80.3712 191.128 79.7472 190.984 79.1925 190.696C78.6485 190.408 78.2165 189.981 77.8965 189.416C77.5872 188.851 77.4325 188.168 77.4325 187.368V182.184H79.2405V187.096C79.2405 187.885 79.4378 188.493 79.8325 188.92C80.2272 189.336 80.7658 189.544 81.4485 189.544C82.1312 189.544 82.6698 189.336 83.0645 188.92C83.4698 188.493 83.6725 187.885 83.6725 187.096V182.184H85.4965ZM87.2951 186.584C87.2951 185.677 87.4765 184.883 87.8391 184.2C88.2125 183.507 88.7245 182.973 89.3751 182.6C90.0258 182.227 90.7725 182.04 91.6151 182.04C92.6818 182.04 93.5618 182.296 94.2551 182.808C94.9591 183.309 95.4338 184.029 95.6791 184.968H93.7111C93.5511 184.531 93.2951 184.189 92.9431 183.944C92.5911 183.699 92.1485 183.576 91.6151 183.576C90.8685 183.576 90.2711 183.843 89.8231 184.376C89.3858 184.899 89.1671 185.635 89.1671 186.584C89.1671 187.533 89.3858 188.275 89.8231 188.808C90.2711 189.341 90.8685 189.608 91.6151 189.608C92.6711 189.608 93.3698 189.144 93.7111 188.216H95.6791C95.4231 189.112 94.9431 189.827 94.2391 190.36C93.5351 190.883 92.6605 191.144 91.6151 191.144C90.7725 191.144 90.0258 190.957 89.3751 190.584C88.7245 190.2 88.2125 189.667 87.8391 188.984C87.4765 188.291 87.2951 187.491 87.2951 186.584ZM96.8889 186.552C96.8889 185.667 97.0702 184.883 97.4329 184.2C97.8062 183.517 98.3075 182.989 98.9369 182.616C99.5769 182.232 100.286 182.04 101.065 182.04C101.641 182.04 102.206 182.168 102.761 182.424C103.326 182.669 103.774 183 104.105 183.416V179.16H105.945V191H104.105V189.672C103.806 190.099 103.39 190.451 102.857 190.728C102.334 191.005 101.732 191.144 101.049 191.144C100.281 191.144 99.5769 190.952 98.9369 190.568C98.3075 190.173 97.8062 189.629 97.4329 188.936C97.0702 188.232 96.8889 187.437 96.8889 186.552ZM104.105 186.584C104.105 185.976 103.977 185.448 103.721 185C103.476 184.552 103.15 184.211 102.745 183.976C102.34 183.741 101.902 183.624 101.433 183.624C100.964 183.624 100.526 183.741 100.121 183.976C99.7155 184.2 99.3849 184.536 99.1289 184.984C98.8835 185.421 98.7609 185.944 98.7609 186.552C98.7609 187.16 98.8835 187.693 99.1289 188.152C99.3849 188.611 99.7155 188.963 100.121 189.208C100.537 189.443 100.974 189.56 101.433 189.56C101.902 189.56 102.34 189.443 102.745 189.208C103.15 188.973 103.476 188.632 103.721 188.184C103.977 187.725 104.105 187.192 104.105 186.584Z" fill="#414141"/>
<path d="M356 181.5L356 186.899L356 189.3C356 189.962 355.463 190.5 354.8 190.5L352.343 190.499L350 190.499L350 192.9C350 193.562 350.537 194.1 351.2 194.1L358.4 194.1C359.063 194.1 359.6 193.562 359.6 192.9L359.6 182.7C359.6 182.037 359.063 181.5 358.4 181.5L356 181.5Z" fill="#C2CCDE" fill-opacity="0.25"/>
<path d="M354.8 177.9C355.463 177.9 356 178.437 356 179.1L356 186.899L356 189.3C356 189.962 355.463 190.5 354.8 190.5L352.343 190.499L347.6 190.5C346.937 190.5 346.4 189.962 346.4 189.3L346.4 179.1C346.4 178.437 346.937 177.9 347.6 177.9L354.8 177.9Z" fill="#C2CCDE" fill-opacity="0.25"/>
<path d="M356 186.899L356 181.5L358.4 181.5C359.063 181.5 359.6 182.037 359.6 182.7L359.6 192.9C359.6 193.562 359.063 194.1 358.4 194.1L351.2 194.1C350.537 194.1 350 193.562 350 192.9L350 190.499L352.343 190.499M356 186.899L356 189.3C356 189.962 355.463 190.5 354.8 190.5L352.343 190.499M356 186.899L356 179.1C356 178.437 355.463 177.9 354.8 177.9L347.6 177.9C346.937 177.9 346.4 178.437 346.4 179.1L346.4 189.3C346.4 189.962 346.937 190.5 347.6 190.5L352.343 190.499" stroke="#414141" stroke-linecap="round" stroke-linejoin="round"/>
<rect x="27" y="247" width="340" height="54" rx="8" fill="#008955"/>
<path d="M178.087 268.38V279.5H176.263V268.38H178.087ZM184.929 270.54C185.623 270.54 186.241 270.684 186.785 270.972C187.34 271.26 187.772 271.687 188.081 272.252C188.391 272.817 188.545 273.5 188.545 274.3V279.5H186.737V274.572C186.737 273.783 186.54 273.18 186.145 272.764C185.751 272.337 185.212 272.124 184.529 272.124C183.847 272.124 183.303 272.337 182.897 272.764C182.503 273.18 182.305 273.783 182.305 274.572V279.5H180.481V270.684H182.305V271.692C182.604 271.329 182.983 271.047 183.441 270.844C183.911 270.641 184.407 270.54 184.929 270.54ZM194.28 277.868L196.776 270.684H198.712L195.352 279.5H193.176L189.832 270.684H191.784L194.28 277.868ZM201.019 269.516C200.688 269.516 200.411 269.404 200.187 269.18C199.963 268.956 199.851 268.679 199.851 268.348C199.851 268.017 199.963 267.74 200.187 267.516C200.411 267.292 200.688 267.18 201.019 267.18C201.339 267.18 201.611 267.292 201.835 267.516C202.059 267.74 202.171 268.017 202.171 268.348C202.171 268.679 202.059 268.956 201.835 269.18C201.611 269.404 201.339 269.516 201.019 269.516ZM201.915 270.684V279.5H200.091V270.684H201.915ZM206.437 272.172V277.052C206.437 277.383 206.512 277.623 206.661 277.772C206.821 277.911 207.088 277.98 207.461 277.98H208.581V279.5H207.141C206.32 279.5 205.691 279.308 205.253 278.924C204.816 278.54 204.597 277.916 204.597 277.052V272.172H203.557V270.684H204.597V268.492H206.437V270.684H208.581V272.172H206.437ZM218.343 274.876C218.343 275.207 218.321 275.505 218.279 275.772H211.543C211.596 276.476 211.857 277.041 212.327 277.468C212.796 277.895 213.372 278.108 214.055 278.108C215.036 278.108 215.729 277.697 216.135 276.876H218.102C217.836 277.687 217.351 278.353 216.647 278.876C215.953 279.388 215.089 279.644 214.055 279.644C213.212 279.644 212.455 279.457 211.783 279.084C211.121 278.7 210.599 278.167 210.215 277.484C209.841 276.791 209.655 275.991 209.655 275.084C209.655 274.177 209.836 273.383 210.199 272.7C210.572 272.007 211.089 271.473 211.751 271.1C212.423 270.727 213.191 270.54 214.055 270.54C214.887 270.54 215.628 270.721 216.279 271.084C216.929 271.447 217.436 271.959 217.799 272.62C218.161 273.271 218.343 274.023 218.343 274.876ZM216.439 274.3C216.428 273.628 216.188 273.089 215.719 272.684C215.249 272.279 214.668 272.076 213.975 272.076C213.345 272.076 212.807 272.279 212.359 272.684C211.911 273.079 211.644 273.617 211.559 274.3H216.439Z" fill="white"/>
<path d="M21.976 141L19.416 136.552H18.024V141H16.2V129.88H20.04C20.8933 129.88 21.6133 130.029 22.2 130.328C22.7973 130.627 23.24 131.027 23.528 131.528C23.8267 132.029 23.976 132.589 23.976 133.208C23.976 133.933 23.7627 134.595 23.336 135.192C22.92 135.779 22.2747 136.179 21.4 136.392L24.152 141H21.976ZM18.024 135.096H20.04C20.7227 135.096 21.2347 134.925 21.576 134.584C21.928 134.243 22.104 133.784 22.104 133.208C22.104 132.632 21.9333 132.184 21.592 131.864C21.2507 131.533 20.7333 131.368 20.04 131.368H18.024V135.096ZM34.3894 136.376C34.3894 136.707 34.368 137.005 34.3254 137.272H27.5894C27.6427 137.976 27.904 138.541 28.3734 138.968C28.8427 139.395 29.4187 139.608 30.1014 139.608C31.0827 139.608 31.776 139.197 32.1814 138.376H34.1494C33.8827 139.187 33.3974 139.853 32.6934 140.376C32 140.888 31.136 141.144 30.1014 141.144C29.2587 141.144 28.5014 140.957 27.8294 140.584C27.168 140.2 26.6454 139.667 26.2614 138.984C25.888 138.291 25.7014 137.491 25.7014 136.584C25.7014 135.677 25.8827 134.883 26.2454 134.2C26.6187 133.507 27.136 132.973 27.7974 132.6C28.4694 132.227 29.2374 132.04 30.1014 132.04C30.9334 132.04 31.6747 132.221 32.3254 132.584C32.976 132.947 33.4827 133.459 33.8454 134.12C34.208 134.771 34.3894 135.523 34.3894 136.376ZM32.4854 135.8C32.4747 135.128 32.2347 134.589 31.7654 134.184C31.296 133.779 30.7147 133.576 30.0214 133.576C29.392 133.576 28.8534 133.779 28.4054 134.184C27.9574 134.579 27.6907 135.117 27.6054 135.8H32.4854ZM39.8804 133.672H38.2484V141H36.4084V133.672H35.3684V132.184H36.4084V131.56C36.4084 130.547 36.675 129.811 37.2084 129.352C37.7524 128.883 38.6004 128.648 39.7524 128.648V130.168C39.1977 130.168 38.8084 130.275 38.5844 130.488C38.3604 130.691 38.2484 131.048 38.2484 131.56V132.184H39.8804V133.672ZM49.5769 136.376C49.5769 136.707 49.5555 137.005 49.5129 137.272H42.7769C42.8302 137.976 43.0915 138.541 43.5609 138.968C44.0302 139.395 44.6062 139.608 45.2889 139.608C46.2702 139.608 46.9635 139.197 47.3689 138.376H49.3369C49.0702 139.187 48.5849 139.853 47.8809 140.376C47.1875 140.888 46.3235 141.144 45.2889 141.144C44.4462 141.144 43.6889 140.957 43.0169 140.584C42.3555 140.2 41.8329 139.667 41.4489 138.984C41.0755 138.291 40.8889 137.491 40.8889 136.584C40.8889 135.677 41.0702 134.883 41.4329 134.2C41.8062 133.507 42.3235 132.973 42.9849 132.6C43.6569 132.227 44.4249 132.04 45.2889 132.04C46.1209 132.04 46.8622 132.221 47.5129 132.584C48.1635 132.947 48.6702 133.459 49.0329 134.12C49.3955 134.771 49.5769 135.523 49.5769 136.376ZM47.6729 135.8C47.6622 135.128 47.4222 134.589 46.9529 134.184C46.4835 133.779 45.9022 133.576 45.2089 133.576C44.5795 133.576 44.0409 133.779 43.5929 134.184C43.1449 134.579 42.8782 135.117 42.7929 135.8H47.6729ZM53.1959 133.464C53.4625 133.016 53.8145 132.669 54.2519 132.424C54.6999 132.168 55.2279 132.04 55.8359 132.04V133.928H55.3719C54.6572 133.928 54.1132 134.109 53.7399 134.472C53.3772 134.835 53.1959 135.464 53.1959 136.36V141H51.3719V132.184H53.1959V133.464ZM61.0608 136.552C61.0608 135.667 61.2421 134.883 61.6048 134.2C61.9781 133.517 62.4794 132.989 63.1088 132.616C63.7488 132.232 64.4528 132.04 65.2208 132.04C65.9141 132.04 66.5168 132.179 67.0288 132.456C67.5514 132.723 67.9674 133.059 68.2768 133.464V132.184H70.1168V141H68.2768V139.688C67.9674 140.104 67.5461 140.451 67.0128 140.728C66.4794 141.005 65.8714 141.144 65.1888 141.144C64.4314 141.144 63.7381 140.952 63.1088 140.568C62.4794 140.173 61.9781 139.629 61.6048 138.936C61.2421 138.232 61.0608 137.437 61.0608 136.552ZM68.2768 136.584C68.2768 135.976 68.1488 135.448 67.8928 135C67.6474 134.552 67.3221 134.211 66.9168 133.976C66.5114 133.741 66.0741 133.624 65.6048 133.624C65.1354 133.624 64.6981 133.741 64.2928 133.976C63.8874 134.2 63.5568 134.536 63.3008 134.984C63.0554 135.421 62.9328 135.944 62.9328 136.552C62.9328 137.16 63.0554 137.693 63.3008 138.152C63.5568 138.611 63.8874 138.963 64.2928 139.208C64.7088 139.443 65.1461 139.56 65.6048 139.56C66.0741 139.56 66.5114 139.443 66.9168 139.208C67.3221 138.973 67.6474 138.632 67.8928 138.184C68.1488 137.725 68.2768 137.192 68.2768 136.584ZM80.3648 133.672H78.7328V141H76.8928V133.672H75.8528V132.184H76.8928V131.56C76.8928 130.547 77.1594 129.811 77.6928 129.352C78.2368 128.883 79.0848 128.648 80.2368 128.648V130.168C79.6821 130.168 79.2928 130.275 79.0688 130.488C78.8448 130.691 78.7328 131.048 78.7328 131.56V132.184H80.3648V133.672ZM83.8053 133.464C84.0719 133.016 84.4239 132.669 84.8613 132.424C85.3093 132.168 85.8373 132.04 86.4453 132.04V133.928H85.9813C85.2666 133.928 84.7226 134.109 84.3493 134.472C83.9866 134.835 83.8053 135.464 83.8053 136.36V141H81.9813V132.184H83.8053V133.464ZM89.0499 131.016C88.7192 131.016 88.4419 130.904 88.2179 130.68C87.9939 130.456 87.8819 130.179 87.8819 129.848C87.8819 129.517 87.9939 129.24 88.2179 129.016C88.4419 128.792 88.7192 128.68 89.0499 128.68C89.3699 128.68 89.6419 128.792 89.8659 129.016C90.0899 129.24 90.2019 129.517 90.2019 129.848C90.2019 130.179 90.0899 130.456 89.8659 130.68C89.6419 130.904 89.3699 131.016 89.0499 131.016ZM89.9459 132.184V141H88.1219V132.184H89.9459ZM100.421 136.376C100.421 136.707 100.399 137.005 100.357 137.272H93.6206C93.674 137.976 93.9353 138.541 94.4046 138.968C94.874 139.395 95.45 139.608 96.1326 139.608C97.114 139.608 97.8073 139.197 98.2126 138.376H100.181C99.914 139.187 99.4286 139.853 98.7246 140.376C98.0313 140.888 97.1673 141.144 96.1326 141.144C95.29 141.144 94.5326 140.957 93.8606 140.584C93.1993 140.2 92.6766 139.667 92.2926 138.984C91.9193 138.291 91.7326 137.491 91.7326 136.584C91.7326 135.677 91.914 134.883 92.2766 134.2C92.65 133.507 93.1673 132.973 93.8286 132.6C94.5006 132.227 95.2686 132.04 96.1326 132.04C96.9646 132.04 97.706 132.221 98.3566 132.584C99.0073 132.947 99.514 133.459 99.8766 134.12C100.239 134.771 100.421 135.523 100.421 136.376ZM98.5166 135.8C98.506 135.128 98.266 134.589 97.7966 134.184C97.3273 133.779 96.746 133.576 96.0526 133.576C95.4233 133.576 94.8846 133.779 94.4366 134.184C93.9886 134.579 93.722 135.117 93.6366 135.8H98.5166ZM106.664 132.04C107.357 132.04 107.976 132.184 108.52 132.472C109.074 132.76 109.506 133.187 109.816 133.752C110.125 134.317 110.28 135 110.28 135.8V141H108.472V136.072C108.472 135.283 108.274 134.68 107.88 134.264C107.485 133.837 106.946 133.624 106.264 133.624C105.581 133.624 105.037 133.837 104.632 134.264C104.237 134.68 104.04 135.283 104.04 136.072V141H102.216V132.184H104.04V133.192C104.338 132.829 104.717 132.547 105.176 132.344C105.645 132.141 106.141 132.04 106.664 132.04ZM111.998 136.552C111.998 135.667 112.18 134.883 112.542 134.2C112.916 133.517 113.417 132.989 114.046 132.616C114.686 132.232 115.396 132.04 116.174 132.04C116.75 132.04 117.316 132.168 117.87 132.424C118.436 132.669 118.884 133 119.214 133.416V129.16H121.054V141H119.214V139.672C118.916 140.099 118.5 140.451 117.966 140.728C117.444 141.005 116.841 141.144 116.158 141.144C115.39 141.144 114.686 140.952 114.046 140.568C113.417 140.173 112.916 139.629 112.542 138.936C112.18 138.232 111.998 137.437 111.998 136.552ZM119.214 136.584C119.214 135.976 119.086 135.448 118.83 135C118.585 134.552 118.26 134.211 117.854 133.976C117.449 133.741 117.012 133.624 116.542 133.624C116.073 133.624 115.636 133.741 115.23 133.976C114.825 134.2 114.494 134.536 114.238 134.984C113.993 135.421 113.87 135.944 113.87 136.552C113.87 137.16 113.993 137.693 114.238 138.152C114.494 138.611 114.825 138.963 115.23 139.208C115.646 139.443 116.084 139.56 116.542 139.56C117.012 139.56 117.449 139.443 117.854 139.208C118.26 138.973 118.585 138.632 118.83 138.184C119.086 137.725 119.214 137.192 119.214 136.584ZM126.998 136.552C126.998 135.667 127.18 134.883 127.542 134.2C127.916 133.517 128.417 132.989 129.046 132.616C129.686 132.232 130.39 132.04 131.158 132.04C131.852 132.04 132.454 132.179 132.966 132.456C133.489 132.723 133.905 133.059 134.214 133.464V132.184H136.054V141H134.214V139.688C133.905 140.104 133.484 140.451 132.95 140.728C132.417 141.005 131.809 141.144 131.126 141.144C130.369 141.144 129.676 140.952 129.046 140.568C128.417 140.173 127.916 139.629 127.542 138.936C127.18 138.232 126.998 137.437 126.998 136.552ZM134.214 136.584C134.214 135.976 134.086 135.448 133.83 135C133.585 134.552 133.26 134.211 132.854 133.976C132.449 133.741 132.012 133.624 131.542 133.624C131.073 133.624 130.636 133.741 130.23 133.976C129.825 134.2 129.494 134.536 129.238 134.984C128.993 135.421 128.87 135.944 128.87 136.552C128.87 137.16 128.993 137.693 129.238 138.152C129.494 138.611 129.825 138.963 130.23 139.208C130.646 139.443 131.084 139.56 131.542 139.56C132.012 139.56 132.449 139.443 132.854 139.208C133.26 138.973 133.585 138.632 133.83 138.184C134.086 137.725 134.214 137.192 134.214 136.584ZM142.898 132.04C143.591 132.04 144.21 132.184 144.754 132.472C145.309 132.76 145.741 133.187 146.05 133.752C146.359 134.317 146.514 135 146.514 135.8V141H144.706V136.072C144.706 135.283 144.509 134.68 144.114 134.264C143.719 133.837 143.181 133.624 142.498 133.624C141.815 133.624 141.271 133.837 140.866 134.264C140.471 134.68 140.274 135.283 140.274 136.072V141H138.45V132.184H140.274V133.192C140.573 132.829 140.951 132.547 141.41 132.344C141.879 132.141 142.375 132.04 142.898 132.04ZM148.233 136.552C148.233 135.667 148.414 134.883 148.777 134.2C149.15 133.517 149.651 132.989 150.281 132.616C150.921 132.232 151.63 132.04 152.409 132.04C152.985 132.04 153.55 132.168 154.105 132.424C154.67 132.669 155.118 133 155.449 133.416V129.16H157.289V141H155.449V139.672C155.15 140.099 154.734 140.451 154.201 140.728C153.678 141.005 153.075 141.144 152.393 141.144C151.625 141.144 150.921 140.952 150.281 140.568C149.651 140.173 149.15 139.629 148.777 138.936C148.414 138.232 148.233 137.437 148.233 136.552ZM155.449 136.584C155.449 135.976 155.321 135.448 155.065 135C154.819 134.552 154.494 134.211 154.089 133.976C153.683 133.741 153.246 133.624 152.777 133.624C152.307 133.624 151.87 133.741 151.465 133.976C151.059 134.2 150.729 134.536 150.473 134.984C150.227 135.421 150.105 135.944 150.105 136.552C150.105 137.16 150.227 137.693 150.473 138.152C150.729 138.611 151.059 138.963 151.465 139.208C151.881 139.443 152.318 139.56 152.777 139.56C153.246 139.56 153.683 139.443 154.089 139.208C154.494 138.973 154.819 138.632 155.065 138.184C155.321 137.725 155.449 137.192 155.449 136.584ZM165.665 131.352V134.616H169.505V136.104H165.665V139.512H169.985V141H163.841V129.864H169.985V131.352H165.665ZM171.623 136.552C171.623 135.667 171.805 134.883 172.167 134.2C172.541 133.517 173.042 132.989 173.671 132.616C174.311 132.232 175.015 132.04 175.783 132.04C176.477 132.04 177.079 132.179 177.591 132.456C178.114 132.723 178.53 133.059 178.839 133.464V132.184H180.679V141H178.839V139.688C178.53 140.104 178.109 140.451 177.575 140.728C177.042 141.005 176.434 141.144 175.751 141.144C174.994 141.144 174.301 140.952 173.671 140.568C173.042 140.173 172.541 139.629 172.167 138.936C171.805 138.232 171.623 137.437 171.623 136.552ZM178.839 136.584C178.839 135.976 178.711 135.448 178.455 135C178.21 134.552 177.885 134.211 177.479 133.976C177.074 133.741 176.637 133.624 176.167 133.624C175.698 133.624 175.261 133.741 174.855 133.976C174.45 134.2 174.119 134.536 173.863 134.984C173.618 135.421 173.495 135.944 173.495 136.552C173.495 137.16 173.618 137.693 173.863 138.152C174.119 138.611 174.45 138.963 174.855 139.208C175.271 139.443 175.709 139.56 176.167 139.56C176.637 139.56 177.074 139.443 177.479 139.208C177.885 138.973 178.21 138.632 178.455 138.184C178.711 137.725 178.839 137.192 178.839 136.584ZM184.899 133.464C185.166 133.016 185.518 132.669 185.955 132.424C186.403 132.168 186.931 132.04 187.539 132.04V133.928H187.075C186.36 133.928 185.816 134.109 185.443 134.472C185.08 134.835 184.899 135.464 184.899 136.36V141H183.075V132.184H184.899V133.464ZM193.664 132.04C194.357 132.04 194.976 132.184 195.52 132.472C196.074 132.76 196.506 133.187 196.816 133.752C197.125 134.317 197.28 135 197.28 135.8V141H195.472V136.072C195.472 135.283 195.274 134.68 194.88 134.264C194.485 133.837 193.946 133.624 193.264 133.624C192.581 133.624 192.037 133.837 191.632 134.264C191.237 134.68 191.04 135.283 191.04 136.072V141H189.216V132.184H191.04V133.192C191.338 132.829 191.717 132.547 192.176 132.344C192.645 132.141 193.141 132.04 193.664 132.04ZM211.267 137.832C211.267 138.365 211.133 138.867 210.867 139.336C210.611 139.805 210.227 140.2 209.715 140.52C209.213 140.84 208.616 141.032 207.923 141.096V142.392H206.883V141.096C205.88 141 205.069 140.685 204.451 140.152C203.832 139.619 203.523 138.915 203.523 138.04H205.475C205.507 138.456 205.64 138.803 205.875 139.08C206.109 139.347 206.445 139.517 206.883 139.592V136.072C206.168 135.891 205.587 135.709 205.139 135.528C204.691 135.336 204.307 135.037 203.987 134.632C203.677 134.227 203.523 133.672 203.523 132.968C203.523 132.083 203.832 131.352 204.451 130.776C205.069 130.189 205.88 129.848 206.883 129.752V128.456H207.923V129.752C208.861 129.837 209.613 130.136 210.179 130.648C210.755 131.149 211.08 131.843 211.155 132.728H209.203C209.171 132.397 209.043 132.104 208.819 131.848C208.595 131.581 208.296 131.4 207.923 131.304V134.76C208.637 134.931 209.219 135.112 209.667 135.304C210.115 135.485 210.493 135.779 210.803 136.184C211.112 136.579 211.267 137.128 211.267 137.832ZM205.379 132.872C205.379 133.309 205.507 133.651 205.763 133.896C206.029 134.141 206.403 134.339 206.883 134.488V131.256C206.424 131.309 206.056 131.475 205.779 131.752C205.512 132.029 205.379 132.403 205.379 132.872ZM207.923 139.592C208.392 139.517 208.76 139.331 209.027 139.032C209.293 138.723 209.427 138.355 209.427 137.928C209.427 137.501 209.293 137.171 209.027 136.936C208.771 136.691 208.403 136.493 207.923 136.344V139.592ZM214.937 138.52C215.961 137.635 216.766 136.909 217.353 136.344C217.95 135.768 218.446 135.171 218.841 134.552C219.235 133.933 219.433 133.315 219.433 132.696C219.433 132.056 219.278 131.555 218.969 131.192C218.67 130.829 218.195 130.648 217.545 130.648C216.915 130.648 216.425 130.851 216.073 131.256C215.731 131.651 215.55 132.184 215.529 132.856H213.769C213.801 131.64 214.163 130.712 214.857 130.072C215.561 129.421 216.451 129.096 217.529 129.096C218.691 129.096 219.598 129.416 220.249 130.056C220.91 130.696 221.241 131.549 221.241 132.616C221.241 133.384 221.043 134.125 220.649 134.84C220.265 135.544 219.801 136.179 219.257 136.744C218.723 137.299 218.041 137.944 217.209 138.68L216.489 139.32H221.561V140.84H213.785V139.512L214.937 138.52ZM223.163 135.016C223.163 133.171 223.472 131.731 224.091 130.696C224.72 129.651 225.798 129.128 227.323 129.128C228.848 129.128 229.92 129.651 230.539 130.696C231.168 131.731 231.483 133.171 231.483 135.016C231.483 136.883 231.168 138.344 230.539 139.4C229.92 140.445 228.848 140.968 227.323 140.968C225.798 140.968 224.72 140.445 224.091 139.4C223.472 138.344 223.163 136.883 223.163 135.016ZM229.691 135.016C229.691 134.152 229.632 133.421 229.515 132.824C229.408 132.227 229.184 131.741 228.843 131.368C228.502 130.984 227.995 130.792 227.323 130.792C226.651 130.792 226.144 130.984 225.803 131.368C225.462 131.741 225.232 132.227 225.115 132.824C225.008 133.421 224.955 134.152 224.955 135.016C224.955 135.912 225.008 136.664 225.115 137.272C225.222 137.88 225.446 138.371 225.787 138.744C226.139 139.117 226.651 139.304 227.323 139.304C227.995 139.304 228.502 139.117 228.843 138.744C229.195 138.371 229.424 137.88 229.531 137.272C229.638 136.664 229.691 135.912 229.691 135.016Z" fill="#5A5A5A"/>
</g>
<defs>
<clipPath id="clip0_85_5433">
<rect width="393" height="852" fill="white"/>
</clipPath>
</defs>
</svg>
