<svg width="393" height="852" viewBox="0 0 393 852" fill="none" xmlns="http://www.w3.org/2000/svg">
<g clip-path="url(#clip0_92_5624)">
<rect width="393" height="852" fill="white"/>
<path opacity="0.35" d="M354.834 22.6696C354.834 21.473 355.804 20.5029 357.001 20.5029H373.667C374.864 20.5029 375.834 21.473 375.834 22.6696V28.6696C375.834 29.8662 374.864 30.8363 373.667 30.8363H357.001C355.804 30.8363 354.834 29.8662 354.834 28.6696V22.6696Z" stroke="#141414"/>
<path opacity="0.4" d="M377.334 23.6699V27.6699C378.139 27.3311 378.662 26.5431 378.662 25.6699C378.662 24.7968 378.139 24.0087 377.334 23.6699Z" fill="#141414"/>
<path d="M356.334 23.3363C356.334 22.5999 356.931 22.0029 357.667 22.0029H373.001C373.737 22.0029 374.334 22.5999 374.334 23.3363V28.0029C374.334 28.7393 373.737 29.3363 373.001 29.3363H357.667C356.931 29.3363 356.334 28.7393 356.334 28.0029V23.3363Z" fill="#141414"/>
<path fill-rule="evenodd" clip-rule="evenodd" d="M341.664 22.2773C343.88 22.2774 346.011 23.1289 347.617 24.6557C347.738 24.7735 347.931 24.772 348.05 24.6523L349.206 23.4857C349.267 23.4249 349.3 23.3427 349.3 23.2571C349.299 23.1715 349.265 23.0897 349.204 23.0297C344.989 18.9901 338.339 18.9901 334.124 23.0297C334.063 23.0896 334.028 23.1715 334.027 23.257C334.027 23.3426 334.06 23.4249 334.121 23.4857L335.277 24.6523C335.396 24.7722 335.589 24.7737 335.71 24.6557C337.316 23.1288 339.448 22.2773 341.664 22.2773ZM341.665 26.073C342.882 26.0729 344.056 26.5255 344.959 27.3427C345.081 27.4587 345.273 27.4562 345.392 27.337L346.547 26.1704C346.608 26.1092 346.641 26.0261 346.64 25.9399C346.64 25.8536 346.604 25.7713 346.542 25.7114C343.794 23.155 339.538 23.155 336.79 25.7114C336.728 25.7713 336.692 25.8537 336.691 25.9399C336.691 26.0262 336.724 26.1092 336.785 26.1704L337.94 27.337C338.059 27.4562 338.251 27.4587 338.373 27.3427C339.275 26.526 340.448 26.0735 341.665 26.073ZM343.978 28.6268C343.98 28.7133 343.946 28.7967 343.884 28.8573L341.886 30.873C341.828 30.9323 341.748 30.9656 341.665 30.9656C341.582 30.9656 341.502 30.9323 341.443 30.873L339.445 28.8573C339.384 28.7967 339.35 28.7133 339.352 28.6268C339.353 28.5403 339.391 28.4583 339.455 28.4003C340.731 27.3215 342.599 27.3215 343.874 28.4003C343.939 28.4584 343.976 28.5403 343.978 28.6268Z" fill="#141414"/>
<path fill-rule="evenodd" clip-rule="evenodd" d="M328 20.3359H327C326.448 20.3359 326 20.7837 326 21.3359V30.0026C326 30.5549 326.448 31.0026 327 31.0026H328C328.552 31.0026 329 30.5549 329 30.0026V21.3359C329 20.7837 328.552 20.3359 328 20.3359ZM322.334 22.6693H323.334C323.886 22.6693 324.334 23.117 324.334 23.6693V30.0026C324.334 30.5549 323.886 31.0026 323.334 31.0026H322.334C321.782 31.0026 321.334 30.5549 321.334 30.0026V23.6693C321.334 23.117 321.782 22.6693 322.334 22.6693ZM318.666 25.0026H317.666C317.114 25.0026 316.666 25.4503 316.666 26.0026V30.0026C316.666 30.5548 317.114 31.0026 317.666 31.0026H318.666C319.218 31.0026 319.666 30.5548 319.666 30.0026V26.0026C319.666 25.4503 319.218 25.0026 318.666 25.0026ZM314 27.0026H313C312.448 27.0026 312 27.4503 312 28.0026V30.0026C312 30.5549 312.448 31.0026 313 31.0026H314C314.552 31.0026 315 30.5549 315 30.0026V28.0026C315 27.4503 314.552 27.0026 314 27.0026Z" fill="#141414"/>
<path d="M19.3203 32.2568C22.0083 32.2568 23.605 30.1548 23.605 26.5952C23.605 25.2549 23.3486 24.127 22.8579 23.2554C22.1475 21.9004 20.9243 21.168 19.3789 21.168C17.0791 21.168 15.4531 22.7134 15.4531 24.8813C15.4531 26.9175 16.918 28.397 18.9321 28.397C20.1699 28.397 21.1733 27.8184 21.6714 26.8149H21.6934C21.6934 26.8149 21.7227 26.8149 21.73 26.8149C21.7446 26.8149 21.7959 26.8149 21.7959 26.8149C21.7959 29.2319 20.8804 30.6748 19.335 30.6748C18.4268 30.6748 17.7236 30.1768 17.4819 29.3784H15.5996C15.9146 31.1143 17.3867 32.2568 19.3203 32.2568ZM19.3862 26.8955C18.1704 26.8955 17.3062 26.0312 17.3062 24.8228C17.3062 23.6436 18.2144 22.7427 19.3936 22.7427C20.5728 22.7427 21.481 23.6582 21.481 24.8521C21.481 26.0312 20.5947 26.8955 19.3862 26.8955Z" fill="#141414"/>
<path d="M26.6961 32.1543C27.3919 32.1543 27.868 31.6562 27.868 30.9971C27.868 30.3306 27.3919 29.8398 26.6961 29.8398C26.0076 29.8398 25.5242 30.3306 25.5242 30.9971C25.5242 31.6562 26.0076 32.1543 26.6961 32.1543ZM26.6961 26.6611C27.3919 26.6611 27.868 26.1704 27.868 25.5112C27.868 24.8447 27.3919 24.354 26.6961 24.354C26.0076 24.354 25.5242 24.8447 25.5242 25.5112C25.5242 26.1704 26.0076 26.6611 26.6961 26.6611Z" fill="#141414"/>
<path d="M34.7237 32.0005H36.5328V30.0303H37.961V28.4336H36.5328V21.4316H33.8668C31.9991 24.2441 30.5123 26.5952 29.5602 28.3457V30.0303H34.7237V32.0005ZM31.3106 28.3677C32.5411 26.1997 33.6397 24.4639 34.6505 22.9697H34.753V28.4775H31.3106V28.3677Z" fill="#141414"/>
<path d="M41.9896 32.0005H43.8793V21.4316H41.997L39.2357 23.3652V25.1816L41.8651 23.3359H41.9896V32.0005Z" fill="#141414"/>
<path d="M23 80.7498C22.808 80.7498 22.616 80.6768 22.47 80.5298L15.47 73.5298C15.177 73.2368 15.177 72.7618 15.47 72.4688L22.47 65.4688C22.763 65.1758 23.238 65.1758 23.531 65.4688C23.824 65.7618 23.824 66.2368 23.531 66.5298L17.0611 72.9998L23.531 79.4698C23.824 79.7628 23.824 80.2378 23.531 80.5308C23.384 80.6768 23.192 80.7498 23 80.7498Z" fill="#2A2A2A"/>
<path d="M43.816 72.756C44.2213 72.82 44.5893 72.9853 44.92 73.252C45.2613 73.5187 45.528 73.8493 45.72 74.244C45.9227 74.6387 46.024 75.06 46.024 75.508C46.024 76.0733 45.88 76.5853 45.592 77.044C45.304 77.492 44.8827 77.8493 44.328 78.116C43.784 78.372 43.1387 78.5 42.392 78.5H38.232V67.348H42.232C42.9893 67.348 43.6347 67.476 44.168 67.732C44.7013 67.9773 45.1013 68.3133 45.368 68.74C45.6347 69.1667 45.768 69.6467 45.768 70.18C45.768 70.8413 45.5867 71.3907 45.224 71.828C44.872 72.2547 44.4027 72.564 43.816 72.756ZM39.688 72.164H42.136C42.8187 72.164 43.3467 72.004 43.72 71.684C44.0933 71.364 44.28 70.9213 44.28 70.356C44.28 69.7907 44.0933 69.348 43.72 69.028C43.3467 68.708 42.808 68.548 42.104 68.548H39.688V72.164ZM42.264 77.3C42.9893 77.3 43.5547 77.1293 43.96 76.788C44.3653 76.4467 44.568 75.972 44.568 75.364C44.568 74.7453 44.3547 74.26 43.928 73.908C43.5013 73.5453 42.9307 73.364 42.216 73.364H39.688V77.3H42.264ZM47.5005 74.084C47.5005 73.188 47.6818 72.404 48.0445 71.732C48.4072 71.0493 48.9032 70.5213 49.5325 70.148C50.1725 69.7747 50.8818 69.588 51.6605 69.588C52.4285 69.588 53.0952 69.7533 53.6605 70.084C54.2258 70.4147 54.6472 70.8307 54.9245 71.332V69.732H56.3965V78.5H54.9245V76.868C54.6365 77.38 54.2045 77.8067 53.6285 78.148C53.0632 78.4787 52.4018 78.644 51.6445 78.644C50.8658 78.644 50.1618 78.452 49.5325 78.068C48.9032 77.684 48.4072 77.1453 48.0445 76.452C47.6818 75.7587 47.5005 74.9693 47.5005 74.084ZM54.9245 74.1C54.9245 73.4387 54.7912 72.8627 54.5245 72.372C54.2578 71.8813 53.8952 71.508 53.4365 71.252C52.9885 70.9853 52.4925 70.852 51.9485 70.852C51.4045 70.852 50.9085 70.98 50.4605 71.236C50.0125 71.492 49.6552 71.8653 49.3885 72.356C49.1218 72.8467 48.9885 73.4227 48.9885 74.084C48.9885 74.756 49.1218 75.3427 49.3885 75.844C49.6552 76.3347 50.0125 76.7133 50.4605 76.98C50.9085 77.236 51.4045 77.364 51.9485 77.364C52.4925 77.364 52.9885 77.236 53.4365 76.98C53.8952 76.7133 54.2578 76.3347 54.5245 75.844C54.7912 75.3427 54.9245 74.7613 54.9245 74.1ZM58.313 74.1C58.313 73.1933 58.4943 72.404 58.857 71.732C59.2197 71.0493 59.721 70.5213 60.361 70.148C61.0117 69.7747 61.753 69.588 62.585 69.588C63.6623 69.588 64.5477 69.8493 65.241 70.372C65.945 70.8947 66.409 71.62 66.633 72.548H65.065C64.9157 72.0147 64.6223 71.5933 64.185 71.284C63.7583 70.9747 63.225 70.82 62.585 70.82C61.753 70.82 61.081 71.108 60.569 71.684C60.057 72.2493 59.801 73.0547 59.801 74.1C59.801 75.156 60.057 75.972 60.569 76.548C61.081 77.124 61.753 77.412 62.585 77.412C63.225 77.412 63.7583 77.2627 64.185 76.964C64.6117 76.6653 64.905 76.2387 65.065 75.684H66.633C66.3983 76.58 65.929 77.3 65.225 77.844C64.521 78.3773 63.641 78.644 62.585 78.644C61.753 78.644 61.0117 78.4573 60.361 78.084C59.721 77.7107 59.2197 77.1827 58.857 76.5C58.4943 75.8173 58.313 75.0173 58.313 74.1ZM73.4718 78.5L70.0318 74.628V78.5H68.5758V66.66H70.0318V73.62L73.4078 69.732H75.4398L71.3118 74.1L75.4558 78.5H73.4718Z" fill="#414141"/>
<path d="M165.163 79.626C164.323 79.626 163.567 79.482 162.895 79.194C162.223 78.894 161.695 78.474 161.311 77.934C160.927 77.394 160.735 76.764 160.735 76.044H162.931C162.979 76.584 163.189 77.028 163.561 77.376C163.945 77.724 164.479 77.898 165.163 77.898C165.871 77.898 166.423 77.73 166.819 77.394C167.215 77.046 167.413 76.602 167.413 76.062C167.413 75.642 167.287 75.3 167.035 75.036C166.795 74.772 166.489 74.568 166.117 74.424C165.757 74.28 165.253 74.124 164.605 73.956C163.789 73.74 163.123 73.524 162.607 73.308C162.103 73.08 161.671 72.732 161.311 72.264C160.951 71.796 160.771 71.172 160.771 70.392C160.771 69.672 160.951 69.042 161.311 68.502C161.671 67.962 162.175 67.548 162.823 67.26C163.471 66.972 164.221 66.828 165.073 66.828C166.285 66.828 167.275 67.134 168.043 67.746C168.823 68.346 169.255 69.174 169.339 70.23H167.071C167.035 69.774 166.819 69.384 166.423 69.06C166.027 68.736 165.505 68.574 164.857 68.574C164.269 68.574 163.789 68.724 163.417 69.024C163.045 69.324 162.859 69.756 162.859 70.32C162.859 70.704 162.973 71.022 163.201 71.274C163.441 71.514 163.741 71.706 164.101 71.85C164.461 71.994 164.953 72.15 165.577 72.318C166.405 72.546 167.077 72.774 167.593 73.002C168.121 73.23 168.565 73.584 168.925 74.064C169.297 74.532 169.483 75.162 169.483 75.954C169.483 76.59 169.309 77.19 168.961 77.754C168.625 78.318 168.127 78.774 167.467 79.122C166.819 79.458 166.051 79.626 165.163 79.626ZM180.995 74.298C180.995 74.67 180.971 75.006 180.923 75.306H173.345C173.405 76.098 173.699 76.734 174.227 77.214C174.755 77.694 175.403 77.934 176.171 77.934C177.275 77.934 178.055 77.472 178.511 76.548H180.725C180.425 77.46 179.879 78.21 179.087 78.798C178.307 79.374 177.335 79.662 176.171 79.662C175.223 79.662 174.371 79.452 173.615 79.032C172.871 78.6 172.283 78 171.851 77.232C171.431 76.452 171.221 75.552 171.221 74.532C171.221 73.512 171.425 72.618 171.833 71.85C172.253 71.07 172.835 70.47 173.579 70.05C174.335 69.63 175.199 69.42 176.171 69.42C177.107 69.42 177.941 69.624 178.673 70.032C179.405 70.44 179.975 71.016 180.383 71.76C180.791 72.492 180.995 73.338 180.995 74.298ZM178.853 73.65C178.841 72.894 178.571 72.288 178.043 71.832C177.515 71.376 176.861 71.148 176.081 71.148C175.373 71.148 174.767 71.376 174.263 71.832C173.759 72.276 173.459 72.882 173.363 73.65H178.853ZM185.408 71.256V76.746C185.408 77.118 185.492 77.388 185.66 77.556C185.84 77.712 186.14 77.79 186.56 77.79H187.82V79.5H186.2C185.276 79.5 184.568 79.284 184.076 78.852C183.584 78.42 183.338 77.718 183.338 76.746V71.256H182.168V69.582H183.338V67.116H185.408V69.582H187.82V71.256H185.408ZM192.105 71.256V76.746C192.105 77.118 192.189 77.388 192.357 77.556C192.537 77.712 192.837 77.79 193.257 77.79H194.517V79.5H192.897C191.973 79.5 191.265 79.284 190.773 78.852C190.281 78.42 190.035 77.718 190.035 76.746V71.256H188.865V69.582H190.035V67.116H192.105V69.582H194.517V71.256H192.105ZM197.453 68.268C197.081 68.268 196.769 68.142 196.517 67.89C196.265 67.638 196.139 67.326 196.139 66.954C196.139 66.582 196.265 66.27 196.517 66.018C196.769 65.766 197.081 65.64 197.453 65.64C197.813 65.64 198.119 65.766 198.371 66.018C198.623 66.27 198.749 66.582 198.749 66.954C198.749 67.326 198.623 67.638 198.371 67.89C198.119 68.142 197.813 68.268 197.453 68.268ZM198.461 69.582V79.5H196.409V69.582H198.461ZM206.159 69.42C206.939 69.42 207.635 69.582 208.247 69.906C208.871 70.23 209.357 70.71 209.705 71.346C210.053 71.982 210.227 72.75 210.227 73.65V79.5H208.193V73.956C208.193 73.068 207.971 72.39 207.527 71.922C207.083 71.442 206.477 71.202 205.709 71.202C204.941 71.202 204.329 71.442 203.873 71.922C203.429 72.39 203.207 73.068 203.207 73.956V79.5H201.155V69.582H203.207V70.716C203.543 70.308 203.969 69.99 204.485 69.762C205.013 69.534 205.571 69.42 206.159 69.42ZM216.84 69.42C217.608 69.42 218.286 69.576 218.874 69.888C219.474 70.188 219.942 70.566 220.278 71.022V69.582H222.348V79.662C222.348 80.574 222.156 81.384 221.772 82.092C221.388 82.812 220.83 83.376 220.098 83.784C219.378 84.192 218.514 84.396 217.506 84.396C216.162 84.396 215.046 84.078 214.158 83.442C213.27 82.818 212.766 81.966 212.646 80.886H214.68C214.836 81.402 215.166 81.816 215.67 82.128C216.186 82.452 216.798 82.614 217.506 82.614C218.334 82.614 219 82.362 219.504 81.858C220.02 81.354 220.278 80.622 220.278 79.662V78.006C219.93 78.474 219.456 78.87 218.856 79.194C218.268 79.506 217.596 79.662 216.84 79.662C215.976 79.662 215.184 79.446 214.464 79.014C213.756 78.57 213.192 77.958 212.772 77.178C212.364 76.386 212.16 75.492 212.16 74.496C212.16 73.5 212.364 72.618 212.772 71.85C213.192 71.082 213.756 70.488 214.464 70.068C215.184 69.636 215.976 69.42 216.84 69.42ZM220.278 74.532C220.278 73.848 220.134 73.254 219.846 72.75C219.57 72.246 219.204 71.862 218.748 71.598C218.292 71.334 217.8 71.202 217.272 71.202C216.744 71.202 216.252 71.334 215.796 71.598C215.34 71.85 214.968 72.228 214.68 72.732C214.404 73.224 214.266 73.812 214.266 74.496C214.266 75.18 214.404 75.78 214.68 76.296C214.968 76.812 215.34 77.208 215.796 77.484C216.264 77.748 216.756 77.88 217.272 77.88C217.8 77.88 218.292 77.748 218.748 77.484C219.204 77.22 219.57 76.836 219.846 76.332C220.134 75.816 220.278 75.216 220.278 74.532ZM228.643 79.662C227.863 79.662 227.161 79.524 226.537 79.248C225.925 78.96 225.439 78.576 225.079 78.096C224.719 77.604 224.527 77.058 224.503 76.458H226.627C226.663 76.878 226.861 77.232 227.221 77.52C227.593 77.796 228.055 77.934 228.607 77.934C229.183 77.934 229.627 77.826 229.939 77.61C230.263 77.382 230.425 77.094 230.425 76.746C230.425 76.374 230.245 76.098 229.885 75.918C229.537 75.738 228.979 75.54 228.211 75.324C227.467 75.12 226.861 74.922 226.393 74.73C225.925 74.538 225.517 74.244 225.169 73.848C224.833 73.452 224.665 72.93 224.665 72.282C224.665 71.754 224.821 71.274 225.133 70.842C225.445 70.398 225.889 70.05 226.465 69.798C227.053 69.546 227.725 69.42 228.481 69.42C229.609 69.42 230.515 69.708 231.199 70.284C231.895 70.848 232.267 71.622 232.315 72.606H230.263C230.227 72.162 230.047 71.808 229.723 71.544C229.399 71.28 228.961 71.148 228.409 71.148C227.869 71.148 227.455 71.25 227.167 71.454C226.879 71.658 226.735 71.928 226.735 72.264C226.735 72.528 226.831 72.75 227.023 72.93C227.215 73.11 227.449 73.254 227.725 73.362C228.001 73.458 228.409 73.584 228.949 73.74C229.669 73.932 230.257 74.13 230.713 74.334C231.181 74.526 231.583 74.814 231.919 75.198C232.255 75.582 232.429 76.092 232.441 76.728C232.441 77.292 232.285 77.796 231.973 78.24C231.661 78.684 231.217 79.032 230.641 79.284C230.077 79.536 229.411 79.662 228.643 79.662Z" fill="#2A2A2A"/>
<rect x="130" y="839" width="134" height="5" rx="2.5" fill="#141414"/>
<g filter="url(#filter0_d_92_5624)">
<rect x="15" y="124" width="362" height="51" rx="8" fill="white"/>
<rect x="15.25" y="124.25" width="361.5" height="50.5" rx="7.75" stroke="#08B783" stroke-width="0.5"/>
</g>
<path d="M26.518 150.114C26.518 149.162 26.7373 148.308 27.176 147.552C27.624 146.796 28.226 146.208 28.982 145.788C29.7473 145.359 30.5827 145.144 31.488 145.144C32.524 145.144 33.4433 145.401 34.246 145.914C35.058 146.418 35.646 147.137 36.01 148.07H34.092C33.84 147.557 33.49 147.174 33.042 146.922C32.594 146.67 32.076 146.544 31.488 146.544C30.844 146.544 30.27 146.689 29.766 146.978C29.262 147.267 28.8653 147.683 28.576 148.224C28.296 148.765 28.156 149.395 28.156 150.114C28.156 150.833 28.296 151.463 28.576 152.004C28.8653 152.545 29.262 152.965 29.766 153.264C30.27 153.553 30.844 153.698 31.488 153.698C32.076 153.698 32.594 153.572 33.042 153.32C33.49 153.068 33.84 152.685 34.092 152.172H36.01C35.646 153.105 35.058 153.824 34.246 154.328C33.4433 154.832 32.524 155.084 31.488 155.084C30.5733 155.084 29.738 154.874 28.982 154.454C28.226 154.025 27.624 153.432 27.176 152.676C26.7373 151.92 26.518 151.066 26.518 150.114ZM41.8681 147.16C42.4561 147.16 42.9788 147.286 43.4361 147.538C43.9028 147.79 44.2668 148.163 44.5281 148.658C44.7988 149.153 44.9341 149.75 44.9341 150.45V155H43.3521V150.688C43.3521 149.997 43.1795 149.47 42.8341 149.106C42.4888 148.733 42.0175 148.546 41.4201 148.546C40.8228 148.546 40.3468 148.733 39.9921 149.106C39.6468 149.47 39.4741 149.997 39.4741 150.688V155H37.8781V144.64H39.4741V148.182C39.7448 147.855 40.0855 147.603 40.4961 147.426C40.9161 147.249 41.3735 147.16 41.8681 147.16ZM46.4379 151.108C46.4379 150.333 46.5966 149.647 46.9139 149.05C47.2406 148.453 47.6793 147.991 48.2299 147.664C48.7899 147.328 49.4059 147.16 50.0779 147.16C50.6846 147.16 51.2119 147.281 51.6599 147.524C52.1173 147.757 52.4813 148.051 52.7519 148.406V147.286H54.3619V155H52.7519V153.852C52.4813 154.216 52.1126 154.519 51.6459 154.762C51.1793 155.005 50.6473 155.126 50.0499 155.126C49.3873 155.126 48.7806 154.958 48.2299 154.622C47.6793 154.277 47.2406 153.801 46.9139 153.194C46.5966 152.578 46.4379 151.883 46.4379 151.108ZM52.7519 151.136C52.7519 150.604 52.6399 150.142 52.4159 149.75C52.2013 149.358 51.9166 149.059 51.5619 148.854C51.2073 148.649 50.8246 148.546 50.4139 148.546C50.0033 148.546 49.6206 148.649 49.2659 148.854C48.9113 149.05 48.6219 149.344 48.3979 149.736C48.1833 150.119 48.0759 150.576 48.0759 151.108C48.0759 151.64 48.1833 152.107 48.3979 152.508C48.6219 152.909 48.9113 153.217 49.2659 153.432C49.6299 153.637 50.0126 153.74 50.4139 153.74C50.8246 153.74 51.2073 153.637 51.5619 153.432C51.9166 153.227 52.2013 152.928 52.4159 152.536C52.6399 152.135 52.7519 151.668 52.7519 151.136ZM60.3502 147.16C60.9569 147.16 61.4982 147.286 61.9742 147.538C62.4595 147.79 62.8375 148.163 63.1082 148.658C63.3789 149.153 63.5142 149.75 63.5142 150.45V155H61.9322V150.688C61.9322 149.997 61.7595 149.47 61.4142 149.106C61.0689 148.733 60.5975 148.546 60.0002 148.546C59.4029 148.546 58.9269 148.733 58.5722 149.106C58.2269 149.47 58.0542 149.997 58.0542 150.688V155H56.4582V147.286H58.0542V148.168C58.3155 147.851 58.6469 147.603 59.0482 147.426C59.4589 147.249 59.8929 147.16 60.3502 147.16ZM68.658 147.16C69.2553 147.16 69.7827 147.281 70.24 147.524C70.7067 147.757 71.0707 148.051 71.332 148.406V147.286H72.942V155.126C72.942 155.835 72.7927 156.465 72.494 157.016C72.1953 157.576 71.7613 158.015 71.192 158.332C70.632 158.649 69.96 158.808 69.176 158.808C68.1307 158.808 67.2627 158.561 66.572 158.066C65.8813 157.581 65.4893 156.918 65.396 156.078H66.978C67.0993 156.479 67.356 156.801 67.748 157.044C68.1493 157.296 68.6253 157.422 69.176 157.422C69.82 157.422 70.338 157.226 70.73 156.834C71.1313 156.442 71.332 155.873 71.332 155.126V153.838C71.0613 154.202 70.6927 154.51 70.226 154.762C69.7687 155.005 69.246 155.126 68.658 155.126C67.986 155.126 67.37 154.958 66.81 154.622C66.2593 154.277 65.8207 153.801 65.494 153.194C65.1767 152.578 65.018 151.883 65.018 151.108C65.018 150.333 65.1767 149.647 65.494 149.05C65.8207 148.453 66.2593 147.991 66.81 147.664C67.37 147.328 67.986 147.16 68.658 147.16ZM71.332 151.136C71.332 150.604 71.22 150.142 70.996 149.75C70.7813 149.358 70.4967 149.059 70.142 148.854C69.7873 148.649 69.4047 148.546 68.994 148.546C68.5833 148.546 68.2007 148.649 67.846 148.854C67.4913 149.05 67.202 149.344 66.978 149.736C66.7633 150.119 66.656 150.576 66.656 151.108C66.656 151.64 66.7633 152.107 66.978 152.508C67.202 152.909 67.4913 153.217 67.846 153.432C68.21 153.637 68.5927 153.74 68.994 153.74C69.4047 153.74 69.7873 153.637 70.142 153.432C70.4967 153.227 70.7813 152.928 70.996 152.536C71.22 152.135 71.332 151.668 71.332 151.136ZM82.1083 150.954C82.1083 151.243 82.0896 151.505 82.0523 151.738H76.1583C76.2049 152.354 76.4336 152.849 76.8443 153.222C77.2549 153.595 77.7589 153.782 78.3563 153.782C79.2149 153.782 79.8216 153.423 80.1763 152.704H81.8983C81.6649 153.413 81.2403 153.997 80.6243 154.454C80.0176 154.902 79.2616 155.126 78.3563 155.126C77.6189 155.126 76.9563 154.963 76.3683 154.636C75.7896 154.3 75.3323 153.833 74.9963 153.236C74.6696 152.629 74.5063 151.929 74.5063 151.136C74.5063 150.343 74.6649 149.647 74.9823 149.05C75.3089 148.443 75.7616 147.977 76.3403 147.65C76.9283 147.323 77.6003 147.16 78.3563 147.16C79.0843 147.16 79.7329 147.319 80.3023 147.636C80.8716 147.953 81.3149 148.401 81.6323 148.98C81.9496 149.549 82.1083 150.207 82.1083 150.954ZM80.4423 150.45C80.4329 149.862 80.2229 149.391 79.8123 149.036C79.4016 148.681 78.8929 148.504 78.2863 148.504C77.7356 148.504 77.2643 148.681 76.8723 149.036C76.4803 149.381 76.2469 149.853 76.1723 150.45H80.4423ZM94.1196 148.168C94.1196 148.663 94.003 149.129 93.7696 149.568C93.5363 150.007 93.163 150.366 92.6496 150.646C92.1363 150.917 91.4783 151.052 90.6756 151.052H88.9116V155H87.3156V145.27H90.6756C91.4223 145.27 92.0523 145.401 92.5656 145.662C93.0883 145.914 93.4756 146.259 93.7276 146.698C93.989 147.137 94.1196 147.627 94.1196 148.168ZM90.6756 149.75C91.2823 149.75 91.735 149.615 92.0336 149.344C92.3323 149.064 92.4816 148.672 92.4816 148.168C92.4816 147.104 91.8796 146.572 90.6756 146.572H88.9116V149.75H90.6756ZM95.1098 151.108C95.1098 150.333 95.2685 149.647 95.5858 149.05C95.9125 148.453 96.3511 147.991 96.9018 147.664C97.4618 147.328 98.0778 147.16 98.7498 147.16C99.3565 147.16 99.8838 147.281 100.332 147.524C100.789 147.757 101.153 148.051 101.424 148.406V147.286H103.034V155H101.424V153.852C101.153 154.216 100.784 154.519 100.318 154.762C99.8511 155.005 99.3191 155.126 98.7218 155.126C98.0591 155.126 97.4525 154.958 96.9018 154.622C96.3511 154.277 95.9125 153.801 95.5858 153.194C95.2685 152.578 95.1098 151.883 95.1098 151.108ZM101.424 151.136C101.424 150.604 101.312 150.142 101.088 149.75C100.873 149.358 100.588 149.059 100.234 148.854C99.8791 148.649 99.4965 148.546 99.0858 148.546C98.6751 148.546 98.2925 148.649 97.9378 148.854C97.5831 149.05 97.2938 149.344 97.0698 149.736C96.8551 150.119 96.7478 150.576 96.7478 151.108C96.7478 151.64 96.8551 152.107 97.0698 152.508C97.2938 152.909 97.5831 153.217 97.9378 153.432C98.3018 153.637 98.6845 153.74 99.0858 153.74C99.4965 153.74 99.8791 153.637 100.234 153.432C100.588 153.227 100.873 152.928 101.088 152.536C101.312 152.135 101.424 151.668 101.424 151.136ZM107.93 155.126C107.323 155.126 106.777 155.019 106.292 154.804C105.816 154.58 105.438 154.281 105.158 153.908C104.878 153.525 104.729 153.101 104.71 152.634H106.362C106.39 152.961 106.544 153.236 106.824 153.46C107.113 153.675 107.473 153.782 107.902 153.782C108.35 153.782 108.695 153.698 108.938 153.53C109.19 153.353 109.316 153.129 109.316 152.858C109.316 152.569 109.176 152.354 108.896 152.214C108.625 152.074 108.191 151.92 107.594 151.752C107.015 151.593 106.544 151.439 106.18 151.29C105.816 151.141 105.499 150.912 105.228 150.604C104.967 150.296 104.836 149.89 104.836 149.386C104.836 148.975 104.957 148.602 105.2 148.266C105.443 147.921 105.788 147.65 106.236 147.454C106.693 147.258 107.216 147.16 107.804 147.16C108.681 147.16 109.386 147.384 109.918 147.832C110.459 148.271 110.749 148.873 110.786 149.638H109.19C109.162 149.293 109.022 149.017 108.77 148.812C108.518 148.607 108.177 148.504 107.748 148.504C107.328 148.504 107.006 148.583 106.782 148.742C106.558 148.901 106.446 149.111 106.446 149.372C106.446 149.577 106.521 149.75 106.67 149.89C106.819 150.03 107.001 150.142 107.216 150.226C107.431 150.301 107.748 150.399 108.168 150.52C108.728 150.669 109.185 150.823 109.54 150.982C109.904 151.131 110.217 151.355 110.478 151.654C110.739 151.953 110.875 152.349 110.884 152.844C110.884 153.283 110.763 153.675 110.52 154.02C110.277 154.365 109.932 154.636 109.484 154.832C109.045 155.028 108.527 155.126 107.93 155.126ZM115.409 155.126C114.802 155.126 114.256 155.019 113.771 154.804C113.295 154.58 112.917 154.281 112.637 153.908C112.357 153.525 112.207 153.101 112.189 152.634H113.841C113.869 152.961 114.023 153.236 114.303 153.46C114.592 153.675 114.951 153.782 115.381 153.782C115.829 153.782 116.174 153.698 116.417 153.53C116.669 153.353 116.795 153.129 116.795 152.858C116.795 152.569 116.655 152.354 116.375 152.214C116.104 152.074 115.67 151.92 115.073 151.752C114.494 151.593 114.023 151.439 113.659 151.29C113.295 151.141 112.977 150.912 112.707 150.604C112.445 150.296 112.315 149.89 112.315 149.386C112.315 148.975 112.436 148.602 112.679 148.266C112.921 147.921 113.267 147.65 113.715 147.454C114.172 147.258 114.695 147.16 115.283 147.16C116.16 147.16 116.865 147.384 117.397 147.832C117.938 148.271 118.227 148.873 118.265 149.638H116.669C116.641 149.293 116.501 149.017 116.249 148.812C115.997 148.607 115.656 148.504 115.227 148.504C114.807 148.504 114.485 148.583 114.261 148.742C114.037 148.901 113.925 149.111 113.925 149.372C113.925 149.577 113.999 149.75 114.149 149.89C114.298 150.03 114.48 150.142 114.695 150.226C114.909 150.301 115.227 150.399 115.647 150.52C116.207 150.669 116.664 150.823 117.019 150.982C117.383 151.131 117.695 151.355 117.957 151.654C118.218 151.953 118.353 152.349 118.363 152.844C118.363 153.283 118.241 153.675 117.999 154.02C117.756 154.365 117.411 154.636 116.963 154.832C116.524 155.028 116.006 155.126 115.409 155.126ZM130.447 147.286L128.053 155H126.373L124.819 149.302L123.265 155H121.585L119.177 147.286H120.801L122.411 153.488L124.049 147.286H125.715L127.283 153.46L128.879 147.286H130.447ZM134.986 155.126C134.258 155.126 133.6 154.963 133.012 154.636C132.424 154.3 131.962 153.833 131.626 153.236C131.29 152.629 131.122 151.929 131.122 151.136C131.122 150.352 131.295 149.657 131.64 149.05C131.985 148.443 132.457 147.977 133.054 147.65C133.651 147.323 134.319 147.16 135.056 147.16C135.793 147.16 136.461 147.323 137.058 147.65C137.655 147.977 138.127 148.443 138.472 149.05C138.817 149.657 138.99 150.352 138.99 151.136C138.99 151.92 138.813 152.615 138.458 153.222C138.103 153.829 137.618 154.3 137.002 154.636C136.395 154.963 135.723 155.126 134.986 155.126ZM134.986 153.74C135.397 153.74 135.779 153.642 136.134 153.446C136.498 153.25 136.792 152.956 137.016 152.564C137.24 152.172 137.352 151.696 137.352 151.136C137.352 150.576 137.245 150.105 137.03 149.722C136.815 149.33 136.531 149.036 136.176 148.84C135.821 148.644 135.439 148.546 135.028 148.546C134.617 148.546 134.235 148.644 133.88 148.84C133.535 149.036 133.259 149.33 133.054 149.722C132.849 150.105 132.746 150.576 132.746 151.136C132.746 151.967 132.956 152.611 133.376 153.068C133.805 153.516 134.342 153.74 134.986 153.74ZM142.164 148.406C142.397 148.014 142.705 147.711 143.088 147.496C143.48 147.272 143.942 147.16 144.474 147.16V148.812H144.068C143.442 148.812 142.966 148.971 142.64 149.288C142.322 149.605 142.164 150.156 142.164 150.94V155H140.568V147.286H142.164V148.406ZM145.409 151.108C145.409 150.333 145.567 149.647 145.885 149.05C146.211 148.453 146.65 147.991 147.201 147.664C147.761 147.328 148.381 147.16 149.063 147.16C149.567 147.16 150.061 147.272 150.547 147.496C151.041 147.711 151.433 148 151.723 148.364V144.64H153.333V155H151.723V153.838C151.461 154.211 151.097 154.519 150.631 154.762C150.173 155.005 149.646 155.126 149.049 155.126C148.377 155.126 147.761 154.958 147.201 154.622C146.65 154.277 146.211 153.801 145.885 153.194C145.567 152.578 145.409 151.883 145.409 151.108ZM151.723 151.136C151.723 150.604 151.611 150.142 151.387 149.75C151.172 149.358 150.887 149.059 150.533 148.854C150.178 148.649 149.795 148.546 149.385 148.546C148.974 148.546 148.591 148.649 148.237 148.854C147.882 149.05 147.593 149.344 147.369 149.736C147.154 150.119 147.047 150.576 147.047 151.108C147.047 151.64 147.154 152.107 147.369 152.508C147.593 152.909 147.882 153.217 148.237 153.432C148.601 153.637 148.983 153.74 149.385 153.74C149.795 153.74 150.178 153.637 150.533 153.432C150.887 153.227 151.172 152.928 151.387 152.536C151.611 152.135 151.723 151.668 151.723 151.136Z" fill="#414141"/>
<path d="M353.29 142.811L359.429 148.95C360.015 149.536 360.015 150.486 359.429 151.072L353.29 157.211" stroke="#414141" stroke-width="2" stroke-linecap="round" stroke-linejoin="round"/>
<g filter="url(#filter1_d_92_5624)">
<rect x="15" y="191" width="362" height="51" rx="8" fill="white"/>
<rect x="15.25" y="191.25" width="361.5" height="50.5" rx="7.75" stroke="#08B783" stroke-width="0.5"/>
</g>
<path d="M26.518 217.114C26.518 216.162 26.7373 215.308 27.176 214.552C27.624 213.796 28.226 213.208 28.982 212.788C29.7473 212.359 30.5827 212.144 31.488 212.144C32.524 212.144 33.4433 212.401 34.246 212.914C35.058 213.418 35.646 214.137 36.01 215.07H34.092C33.84 214.557 33.49 214.174 33.042 213.922C32.594 213.67 32.076 213.544 31.488 213.544C30.844 213.544 30.27 213.689 29.766 213.978C29.262 214.267 28.8653 214.683 28.576 215.224C28.296 215.765 28.156 216.395 28.156 217.114C28.156 217.833 28.296 218.463 28.576 219.004C28.8653 219.545 29.262 219.965 29.766 220.264C30.27 220.553 30.844 220.698 31.488 220.698C32.076 220.698 32.594 220.572 33.042 220.32C33.49 220.068 33.84 219.685 34.092 219.172H36.01C35.646 220.105 35.058 220.824 34.246 221.328C33.4433 221.832 32.524 222.084 31.488 222.084C30.5733 222.084 29.738 221.874 28.982 221.454C28.226 221.025 27.624 220.432 27.176 219.676C26.7373 218.92 26.518 218.066 26.518 217.114ZM41.8681 214.16C42.4561 214.16 42.9788 214.286 43.4361 214.538C43.9028 214.79 44.2668 215.163 44.5281 215.658C44.7988 216.153 44.9341 216.75 44.9341 217.45V222H43.3521V217.688C43.3521 216.997 43.1795 216.47 42.8341 216.106C42.4888 215.733 42.0175 215.546 41.4201 215.546C40.8228 215.546 40.3468 215.733 39.9921 216.106C39.6468 216.47 39.4741 216.997 39.4741 217.688V222H37.8781V211.64H39.4741V215.182C39.7448 214.855 40.0855 214.603 40.4961 214.426C40.9161 214.249 41.3735 214.16 41.8681 214.16ZM46.4379 218.108C46.4379 217.333 46.5966 216.647 46.9139 216.05C47.2406 215.453 47.6793 214.991 48.2299 214.664C48.7899 214.328 49.4059 214.16 50.0779 214.16C50.6846 214.16 51.2119 214.281 51.6599 214.524C52.1173 214.757 52.4813 215.051 52.7519 215.406V214.286H54.3619V222H52.7519V220.852C52.4813 221.216 52.1126 221.519 51.6459 221.762C51.1793 222.005 50.6473 222.126 50.0499 222.126C49.3873 222.126 48.7806 221.958 48.2299 221.622C47.6793 221.277 47.2406 220.801 46.9139 220.194C46.5966 219.578 46.4379 218.883 46.4379 218.108ZM52.7519 218.136C52.7519 217.604 52.6399 217.142 52.4159 216.75C52.2013 216.358 51.9166 216.059 51.5619 215.854C51.2073 215.649 50.8246 215.546 50.4139 215.546C50.0033 215.546 49.6206 215.649 49.2659 215.854C48.9113 216.05 48.6219 216.344 48.3979 216.736C48.1833 217.119 48.0759 217.576 48.0759 218.108C48.0759 218.64 48.1833 219.107 48.3979 219.508C48.6219 219.909 48.9113 220.217 49.2659 220.432C49.6299 220.637 50.0126 220.74 50.4139 220.74C50.8246 220.74 51.2073 220.637 51.5619 220.432C51.9166 220.227 52.2013 219.928 52.4159 219.536C52.6399 219.135 52.7519 218.668 52.7519 218.136ZM60.3502 214.16C60.9569 214.16 61.4982 214.286 61.9742 214.538C62.4595 214.79 62.8375 215.163 63.1082 215.658C63.3789 216.153 63.5142 216.75 63.5142 217.45V222H61.9322V217.688C61.9322 216.997 61.7595 216.47 61.4142 216.106C61.0689 215.733 60.5975 215.546 60.0002 215.546C59.4029 215.546 58.9269 215.733 58.5722 216.106C58.2269 216.47 58.0542 216.997 58.0542 217.688V222H56.4582V214.286H58.0542V215.168C58.3155 214.851 58.6469 214.603 59.0482 214.426C59.4589 214.249 59.8929 214.16 60.3502 214.16ZM68.658 214.16C69.2553 214.16 69.7827 214.281 70.24 214.524C70.7067 214.757 71.0707 215.051 71.332 215.406V214.286H72.942V222.126C72.942 222.835 72.7927 223.465 72.494 224.016C72.1953 224.576 71.7613 225.015 71.192 225.332C70.632 225.649 69.96 225.808 69.176 225.808C68.1307 225.808 67.2627 225.561 66.572 225.066C65.8813 224.581 65.4893 223.918 65.396 223.078H66.978C67.0993 223.479 67.356 223.801 67.748 224.044C68.1493 224.296 68.6253 224.422 69.176 224.422C69.82 224.422 70.338 224.226 70.73 223.834C71.1313 223.442 71.332 222.873 71.332 222.126V220.838C71.0613 221.202 70.6927 221.51 70.226 221.762C69.7687 222.005 69.246 222.126 68.658 222.126C67.986 222.126 67.37 221.958 66.81 221.622C66.2593 221.277 65.8207 220.801 65.494 220.194C65.1767 219.578 65.018 218.883 65.018 218.108C65.018 217.333 65.1767 216.647 65.494 216.05C65.8207 215.453 66.2593 214.991 66.81 214.664C67.37 214.328 67.986 214.16 68.658 214.16ZM71.332 218.136C71.332 217.604 71.22 217.142 70.996 216.75C70.7813 216.358 70.4967 216.059 70.142 215.854C69.7873 215.649 69.4047 215.546 68.994 215.546C68.5833 215.546 68.2007 215.649 67.846 215.854C67.4913 216.05 67.202 216.344 66.978 216.736C66.7633 217.119 66.656 217.576 66.656 218.108C66.656 218.64 66.7633 219.107 66.978 219.508C67.202 219.909 67.4913 220.217 67.846 220.432C68.21 220.637 68.5927 220.74 68.994 220.74C69.4047 220.74 69.7873 220.637 70.142 220.432C70.4967 220.227 70.7813 219.928 70.996 219.536C71.22 219.135 71.332 218.668 71.332 218.136ZM82.1083 217.954C82.1083 218.243 82.0896 218.505 82.0523 218.738H76.1583C76.2049 219.354 76.4336 219.849 76.8443 220.222C77.2549 220.595 77.7589 220.782 78.3563 220.782C79.2149 220.782 79.8216 220.423 80.1763 219.704H81.8983C81.6649 220.413 81.2403 220.997 80.6243 221.454C80.0176 221.902 79.2616 222.126 78.3563 222.126C77.6189 222.126 76.9563 221.963 76.3683 221.636C75.7896 221.3 75.3323 220.833 74.9963 220.236C74.6696 219.629 74.5063 218.929 74.5063 218.136C74.5063 217.343 74.6649 216.647 74.9823 216.05C75.3089 215.443 75.7616 214.977 76.3403 214.65C76.9283 214.323 77.6003 214.16 78.3563 214.16C79.0843 214.16 79.7329 214.319 80.3023 214.636C80.8716 214.953 81.3149 215.401 81.6323 215.98C81.9496 216.549 82.1083 217.207 82.1083 217.954ZM80.4423 217.45C80.4329 216.862 80.2229 216.391 79.8123 216.036C79.4016 215.681 78.8929 215.504 78.2863 215.504C77.7356 215.504 77.2643 215.681 76.8723 216.036C76.4803 216.381 76.2469 216.853 76.1723 217.45H80.4423ZM88.9116 220.712H92.2016V222H87.3156V212.27H88.9116V220.712ZM93.0043 218.108C93.0043 217.333 93.163 216.647 93.4803 216.05C93.807 215.453 94.2457 214.991 94.7963 214.664C95.3563 214.328 95.9723 214.16 96.6443 214.16C97.251 214.16 97.7783 214.281 98.2263 214.524C98.6837 214.757 99.0477 215.051 99.3183 215.406V214.286H100.928V222H99.3183V220.852C99.0477 221.216 98.679 221.519 98.2123 221.762C97.7457 222.005 97.2137 222.126 96.6163 222.126C95.9537 222.126 95.347 221.958 94.7963 221.622C94.2457 221.277 93.807 220.801 93.4803 220.194C93.163 219.578 93.0043 218.883 93.0043 218.108ZM99.3183 218.136C99.3183 217.604 99.2063 217.142 98.9823 216.75C98.7677 216.358 98.483 216.059 98.1283 215.854C97.7737 215.649 97.391 215.546 96.9803 215.546C96.5697 215.546 96.187 215.649 95.8323 215.854C95.4777 216.05 95.1883 216.344 94.9643 216.736C94.7497 217.119 94.6423 217.576 94.6423 218.108C94.6423 218.64 94.7497 219.107 94.9643 219.508C95.1883 219.909 95.4777 220.217 95.8323 220.432C96.1963 220.637 96.579 220.74 96.9803 220.74C97.391 220.74 97.7737 220.637 98.1283 220.432C98.483 220.227 98.7677 219.928 98.9823 219.536C99.2063 219.135 99.3183 218.668 99.3183 218.136ZM106.917 214.16C107.523 214.16 108.065 214.286 108.541 214.538C109.026 214.79 109.404 215.163 109.675 215.658C109.945 216.153 110.081 216.75 110.081 217.45V222H108.499V217.688C108.499 216.997 108.326 216.47 107.981 216.106C107.635 215.733 107.164 215.546 106.567 215.546C105.969 215.546 105.493 215.733 105.139 216.106C104.793 216.47 104.621 216.997 104.621 217.688V222H103.025V214.286H104.621V215.168C104.882 214.851 105.213 214.603 105.615 214.426C106.025 214.249 106.459 214.16 106.917 214.16ZM115.224 214.16C115.822 214.16 116.349 214.281 116.806 214.524C117.273 214.757 117.637 215.051 117.898 215.406V214.286H119.508V222.126C119.508 222.835 119.359 223.465 119.06 224.016C118.762 224.576 118.328 225.015 117.758 225.332C117.198 225.649 116.526 225.808 115.742 225.808C114.697 225.808 113.829 225.561 113.138 225.066C112.448 224.581 112.056 223.918 111.962 223.078H113.544C113.666 223.479 113.922 223.801 114.314 224.044C114.716 224.296 115.192 224.422 115.742 224.422C116.386 224.422 116.904 224.226 117.296 223.834C117.698 223.442 117.898 222.873 117.898 222.126V220.838C117.628 221.202 117.259 221.51 116.792 221.762C116.335 222.005 115.812 222.126 115.224 222.126C114.552 222.126 113.936 221.958 113.376 221.622C112.826 221.277 112.387 220.801 112.06 220.194C111.743 219.578 111.584 218.883 111.584 218.108C111.584 217.333 111.743 216.647 112.06 216.05C112.387 215.453 112.826 214.991 113.376 214.664C113.936 214.328 114.552 214.16 115.224 214.16ZM117.898 218.136C117.898 217.604 117.786 217.142 117.562 216.75C117.348 216.358 117.063 216.059 116.708 215.854C116.354 215.649 115.971 215.546 115.56 215.546C115.15 215.546 114.767 215.649 114.412 215.854C114.058 216.05 113.768 216.344 113.544 216.736C113.33 217.119 113.222 217.576 113.222 218.108C113.222 218.64 113.33 219.107 113.544 219.508C113.768 219.909 114.058 220.217 114.412 220.432C114.776 220.637 115.159 220.74 115.56 220.74C115.971 220.74 116.354 220.637 116.708 220.432C117.063 220.227 117.348 219.928 117.562 219.536C117.786 219.135 117.898 218.668 117.898 218.136ZM128.591 214.286V222H126.995V221.09C126.743 221.407 126.411 221.659 126.001 221.846C125.599 222.023 125.17 222.112 124.713 222.112C124.106 222.112 123.56 221.986 123.075 221.734C122.599 221.482 122.221 221.109 121.941 220.614C121.67 220.119 121.535 219.522 121.535 218.822V214.286H123.117V218.584C123.117 219.275 123.289 219.807 123.635 220.18C123.98 220.544 124.451 220.726 125.049 220.726C125.646 220.726 126.117 220.544 126.463 220.18C126.817 219.807 126.995 219.275 126.995 218.584V214.286H128.591ZM130.164 218.108C130.164 217.333 130.323 216.647 130.64 216.05C130.967 215.453 131.406 214.991 131.956 214.664C132.516 214.328 133.132 214.16 133.804 214.16C134.411 214.16 134.938 214.281 135.386 214.524C135.844 214.757 136.208 215.051 136.478 215.406V214.286H138.088V222H136.478V220.852C136.208 221.216 135.839 221.519 135.372 221.762C134.906 222.005 134.374 222.126 133.776 222.126C133.114 222.126 132.507 221.958 131.956 221.622C131.406 221.277 130.967 220.801 130.64 220.194C130.323 219.578 130.164 218.883 130.164 218.108ZM136.478 218.136C136.478 217.604 136.366 217.142 136.142 216.75C135.928 216.358 135.643 216.059 135.288 215.854C134.934 215.649 134.551 215.546 134.14 215.546C133.73 215.546 133.347 215.649 132.992 215.854C132.638 216.05 132.348 216.344 132.124 216.736C131.91 217.119 131.802 217.576 131.802 218.108C131.802 218.64 131.91 219.107 132.124 219.508C132.348 219.909 132.638 220.217 132.992 220.432C133.356 220.637 133.739 220.74 134.14 220.74C134.551 220.74 134.934 220.637 135.288 220.432C135.643 220.227 135.928 219.928 136.142 219.536C136.366 219.135 136.478 218.668 136.478 218.136ZM143.293 214.16C143.89 214.16 144.417 214.281 144.875 214.524C145.341 214.757 145.705 215.051 145.967 215.406V214.286H147.577V222.126C147.577 222.835 147.427 223.465 147.129 224.016C146.83 224.576 146.396 225.015 145.827 225.332C145.267 225.649 144.595 225.808 143.811 225.808C142.765 225.808 141.897 225.561 141.207 225.066C140.516 224.581 140.124 223.918 140.031 223.078H141.613C141.734 223.479 141.991 223.801 142.383 224.044C142.784 224.296 143.26 224.422 143.811 224.422C144.455 224.422 144.973 224.226 145.365 223.834C145.766 223.442 145.967 222.873 145.967 222.126V220.838C145.696 221.202 145.327 221.51 144.861 221.762C144.403 222.005 143.881 222.126 143.293 222.126C142.621 222.126 142.005 221.958 141.445 221.622C140.894 221.277 140.455 220.801 140.129 220.194C139.811 219.578 139.653 218.883 139.653 218.108C139.653 217.333 139.811 216.647 140.129 216.05C140.455 215.453 140.894 214.991 141.445 214.664C142.005 214.328 142.621 214.16 143.293 214.16ZM145.967 218.136C145.967 217.604 145.855 217.142 145.631 216.75C145.416 216.358 145.131 216.059 144.777 215.854C144.422 215.649 144.039 215.546 143.629 215.546C143.218 215.546 142.835 215.649 142.481 215.854C142.126 216.05 141.837 216.344 141.613 216.736C141.398 217.119 141.291 217.576 141.291 218.108C141.291 218.64 141.398 219.107 141.613 219.508C141.837 219.909 142.126 220.217 142.481 220.432C142.845 220.637 143.227 220.74 143.629 220.74C144.039 220.74 144.422 220.637 144.777 220.432C145.131 220.227 145.416 219.928 145.631 219.536C145.855 219.135 145.967 218.668 145.967 218.136ZM156.743 217.954C156.743 218.243 156.724 218.505 156.687 218.738H150.793C150.84 219.354 151.068 219.849 151.479 220.222C151.89 220.595 152.394 220.782 152.991 220.782C153.85 220.782 154.456 220.423 154.811 219.704H156.533C156.3 220.413 155.875 220.997 155.259 221.454C154.652 221.902 153.896 222.126 152.991 222.126C152.254 222.126 151.591 221.963 151.003 221.636C150.424 221.3 149.967 220.833 149.631 220.236C149.304 219.629 149.141 218.929 149.141 218.136C149.141 217.343 149.3 216.647 149.617 216.05C149.944 215.443 150.396 214.977 150.975 214.65C151.563 214.323 152.235 214.16 152.991 214.16C153.719 214.16 154.368 214.319 154.937 214.636C155.506 214.953 155.95 215.401 156.267 215.98C156.584 216.549 156.743 217.207 156.743 217.954ZM155.077 217.45C155.068 216.862 154.858 216.391 154.447 216.036C154.036 215.681 153.528 215.504 152.921 215.504C152.37 215.504 151.899 215.681 151.507 216.036C151.115 216.381 150.882 216.853 150.807 217.45H155.077Z" fill="#414141"/>
<path d="M353.29 209.811L359.429 215.95C360.015 216.536 360.015 217.486 359.429 218.072L353.29 224.211" stroke="#414141" stroke-width="2" stroke-linecap="round" stroke-linejoin="round"/>
<g filter="url(#filter2_d_92_5624)">
<rect x="15" y="258" width="362" height="51" rx="8" fill="white"/>
<rect x="15.25" y="258.25" width="361.5" height="50.5" rx="7.75" stroke="#08B783" stroke-width="0.5"/>
</g>
<path d="M33.854 282.168C33.854 282.663 33.7373 283.129 33.504 283.568C33.2707 284.007 32.8973 284.366 32.384 284.646C31.8707 284.917 31.2127 285.052 30.41 285.052H28.646V289H27.05V279.27H30.41C31.1567 279.27 31.7867 279.401 32.3 279.662C32.8227 279.914 33.21 280.259 33.462 280.698C33.7233 281.137 33.854 281.627 33.854 282.168ZM30.41 283.75C31.0167 283.75 31.4693 283.615 31.768 283.344C32.0667 283.064 32.216 282.672 32.216 282.168C32.216 281.104 31.614 280.572 30.41 280.572H28.646V283.75H30.41ZM36.9722 282.406C37.2055 282.014 37.5135 281.711 37.8962 281.496C38.2882 281.272 38.7502 281.16 39.2822 281.16V282.812H38.8762C38.2508 282.812 37.7748 282.971 37.4482 283.288C37.1308 283.605 36.9722 284.156 36.9722 284.94V289H35.3762V281.286H36.9722V282.406ZM41.5612 280.264C41.2719 280.264 41.0292 280.166 40.8332 279.97C40.6372 279.774 40.5392 279.531 40.5392 279.242C40.5392 278.953 40.6372 278.71 40.8332 278.514C41.0292 278.318 41.2719 278.22 41.5612 278.22C41.8412 278.22 42.0792 278.318 42.2752 278.514C42.4712 278.71 42.5692 278.953 42.5692 279.242C42.5692 279.531 42.4712 279.774 42.2752 279.97C42.0792 280.166 41.8412 280.264 41.5612 280.264ZM42.3452 281.286V289H40.7492V281.286H42.3452ZM47.4226 287.572L49.6066 281.286H51.3006L48.3606 289H46.4566L43.5306 281.286H45.2386L47.4226 287.572ZM51.975 285.108C51.975 284.333 52.1337 283.647 52.451 283.05C52.7777 282.453 53.2164 281.991 53.767 281.664C54.327 281.328 54.943 281.16 55.615 281.16C56.2217 281.16 56.749 281.281 57.197 281.524C57.6544 281.757 58.0184 282.051 58.289 282.406V281.286H59.899V289H58.289V287.852C58.0184 288.216 57.6497 288.519 57.183 288.762C56.7164 289.005 56.1844 289.126 55.587 289.126C54.9244 289.126 54.3177 288.958 53.767 288.622C53.2164 288.277 52.7777 287.801 52.451 287.194C52.1337 286.578 51.975 285.883 51.975 285.108ZM58.289 285.136C58.289 284.604 58.177 284.142 57.953 283.75C57.7384 283.358 57.4537 283.059 57.099 282.854C56.7444 282.649 56.3617 282.546 55.951 282.546C55.5404 282.546 55.1577 282.649 54.803 282.854C54.4484 283.05 54.159 283.344 53.935 283.736C53.7204 284.119 53.613 284.576 53.613 285.108C53.613 285.64 53.7204 286.107 53.935 286.508C54.159 286.909 54.4484 287.217 54.803 287.432C55.167 287.637 55.5497 287.74 55.951 287.74C56.3617 287.74 56.7444 287.637 57.099 287.432C57.4537 287.227 57.7384 286.928 57.953 286.536C58.177 286.135 58.289 285.668 58.289 285.136ZM61.4633 285.136C61.4633 284.343 61.622 283.647 61.9393 283.05C62.266 282.443 62.714 281.977 63.2833 281.65C63.8526 281.323 64.506 281.16 65.2433 281.16C66.1766 281.16 66.9466 281.384 67.5533 281.832C68.1693 282.271 68.5846 282.901 68.7993 283.722H67.0773C66.9373 283.339 66.7133 283.041 66.4053 282.826C66.0973 282.611 65.71 282.504 65.2433 282.504C64.59 282.504 64.0673 282.737 63.6753 283.204C63.2926 283.661 63.1013 284.305 63.1013 285.136C63.1013 285.967 63.2926 286.615 63.6753 287.082C64.0673 287.549 64.59 287.782 65.2433 287.782C66.1673 287.782 66.7786 287.376 67.0773 286.564H68.7993C68.5753 287.348 68.1553 287.973 67.5393 288.44C66.9233 288.897 66.158 289.126 65.2433 289.126C64.506 289.126 63.8526 288.963 63.2833 288.636C62.714 288.3 62.266 287.833 61.9393 287.236C61.622 286.629 61.4633 285.929 61.4633 285.136ZM77.3338 281.286L72.6018 292.626H70.9498L72.5178 288.874L69.4798 281.286H71.2578L73.4278 287.166L75.6818 281.286H77.3338ZM88.979 282.168C88.979 282.663 88.8623 283.129 88.629 283.568C88.3957 284.007 88.0223 284.366 87.509 284.646C86.9957 284.917 86.3377 285.052 85.535 285.052H83.771V289H82.175V279.27H85.535C86.2817 279.27 86.9117 279.401 87.425 279.662C87.9477 279.914 88.335 280.259 88.587 280.698C88.8483 281.137 88.979 281.627 88.979 282.168ZM85.535 283.75C86.1417 283.75 86.5943 283.615 86.893 283.344C87.1917 283.064 87.341 282.672 87.341 282.168C87.341 281.104 86.739 280.572 85.535 280.572H83.771V283.75H85.535ZM93.8472 289.126C93.1192 289.126 92.4612 288.963 91.8732 288.636C91.2852 288.3 90.8232 287.833 90.4872 287.236C90.1512 286.629 89.9832 285.929 89.9832 285.136C89.9832 284.352 90.1558 283.657 90.5012 283.05C90.8465 282.443 91.3178 281.977 91.9152 281.65C92.5125 281.323 93.1798 281.16 93.9172 281.16C94.6545 281.16 95.3218 281.323 95.9192 281.65C96.5165 281.977 96.9878 282.443 97.3332 283.05C97.6785 283.657 97.8512 284.352 97.8512 285.136C97.8512 285.92 97.6738 286.615 97.3192 287.222C96.9645 287.829 96.4792 288.3 95.8632 288.636C95.2565 288.963 94.5845 289.126 93.8472 289.126ZM93.8472 287.74C94.2578 287.74 94.6405 287.642 94.9952 287.446C95.3592 287.25 95.6532 286.956 95.8772 286.564C96.1012 286.172 96.2132 285.696 96.2132 285.136C96.2132 284.576 96.1058 284.105 95.8912 283.722C95.6765 283.33 95.3918 283.036 95.0372 282.84C94.6825 282.644 94.2998 282.546 93.8892 282.546C93.4785 282.546 93.0958 282.644 92.7412 282.84C92.3958 283.036 92.1205 283.33 91.9152 283.722C91.7098 284.105 91.6072 284.576 91.6072 285.136C91.6072 285.967 91.8172 286.611 92.2372 287.068C92.6665 287.516 93.2032 287.74 93.8472 287.74ZM101.025 278.64V289H99.4289V278.64H101.025ZM103.932 280.264C103.643 280.264 103.4 280.166 103.204 279.97C103.008 279.774 102.91 279.531 102.91 279.242C102.91 278.953 103.008 278.71 103.204 278.514C103.4 278.318 103.643 278.22 103.932 278.22C104.212 278.22 104.45 278.318 104.646 278.514C104.842 278.71 104.94 278.953 104.94 279.242C104.94 279.531 104.842 279.774 104.646 279.97C104.45 280.166 104.212 280.264 103.932 280.264ZM104.716 281.286V289H103.12V281.286H104.716ZM106.28 285.136C106.28 284.343 106.438 283.647 106.756 283.05C107.082 282.443 107.53 281.977 108.1 281.65C108.669 281.323 109.322 281.16 110.06 281.16C110.993 281.16 111.763 281.384 112.37 281.832C112.986 282.271 113.401 282.901 113.616 283.722H111.894C111.754 283.339 111.53 283.041 111.222 282.826C110.914 282.611 110.526 282.504 110.06 282.504C109.406 282.504 108.884 282.737 108.492 283.204C108.109 283.661 107.918 284.305 107.918 285.136C107.918 285.967 108.109 286.615 108.492 287.082C108.884 287.549 109.406 287.782 110.06 287.782C110.984 287.782 111.595 287.376 111.894 286.564H113.616C113.392 287.348 112.972 287.973 112.356 288.44C111.74 288.897 110.974 289.126 110.06 289.126C109.322 289.126 108.669 288.963 108.1 288.636C107.53 288.3 107.082 287.833 106.756 287.236C106.438 286.629 106.28 285.929 106.28 285.136ZM122.15 281.286L117.418 292.626H115.766L117.334 288.874L114.296 281.286H116.074L118.244 287.166L120.498 281.286H122.15Z" fill="#414141"/>
<path d="M353.29 276.811L359.429 282.95C360.015 283.536 360.015 284.486 359.429 285.072L353.29 291.211" stroke="#414141" stroke-width="2" stroke-linecap="round" stroke-linejoin="round"/>
<g filter="url(#filter3_d_92_5624)">
<rect x="15" y="325" width="362" height="51" rx="8" fill="white"/>
<rect x="15.25" y="325.25" width="361.5" height="50.5" rx="7.75" stroke="#08B783" stroke-width="0.5"/>
</g>
<path d="M26.518 351.114C26.518 350.162 26.7373 349.308 27.176 348.552C27.624 347.796 28.226 347.208 28.982 346.788C29.7473 346.359 30.5827 346.144 31.488 346.144C32.524 346.144 33.4433 346.401 34.246 346.914C35.058 347.418 35.646 348.137 36.01 349.07H34.092C33.84 348.557 33.49 348.174 33.042 347.922C32.594 347.67 32.076 347.544 31.488 347.544C30.844 347.544 30.27 347.689 29.766 347.978C29.262 348.267 28.8653 348.683 28.576 349.224C28.296 349.765 28.156 350.395 28.156 351.114C28.156 351.833 28.296 352.463 28.576 353.004C28.8653 353.545 29.262 353.965 29.766 354.264C30.27 354.553 30.844 354.698 31.488 354.698C32.076 354.698 32.594 354.572 33.042 354.32C33.49 354.068 33.84 353.685 34.092 353.172H36.01C35.646 354.105 35.058 354.824 34.246 355.328C33.4433 355.832 32.524 356.084 31.488 356.084C30.5733 356.084 29.738 355.874 28.982 355.454C28.226 355.025 27.624 354.432 27.176 353.676C26.7373 352.92 26.518 352.066 26.518 351.114ZM41.2241 356.126C40.4961 356.126 39.8381 355.963 39.2501 355.636C38.6621 355.3 38.2001 354.833 37.8641 354.236C37.5281 353.629 37.3601 352.929 37.3601 352.136C37.3601 351.352 37.5328 350.657 37.8781 350.05C38.2235 349.443 38.6948 348.977 39.2921 348.65C39.8895 348.323 40.5568 348.16 41.2941 348.16C42.0315 348.16 42.6988 348.323 43.2961 348.65C43.8935 348.977 44.3648 349.443 44.7101 350.05C45.0555 350.657 45.2281 351.352 45.2281 352.136C45.2281 352.92 45.0508 353.615 44.6961 354.222C44.3415 354.829 43.8561 355.3 43.2401 355.636C42.6335 355.963 41.9615 356.126 41.2241 356.126ZM41.2241 354.74C41.6348 354.74 42.0175 354.642 42.3721 354.446C42.7361 354.25 43.0301 353.956 43.2541 353.564C43.4781 353.172 43.5901 352.696 43.5901 352.136C43.5901 351.576 43.4828 351.105 43.2681 350.722C43.0535 350.33 42.7688 350.036 42.4141 349.84C42.0595 349.644 41.6768 349.546 41.2661 349.546C40.8555 349.546 40.4728 349.644 40.1181 349.84C39.7728 350.036 39.4975 350.33 39.2921 350.722C39.0868 351.105 38.9841 351.576 38.9841 352.136C38.9841 352.967 39.1941 353.611 39.6141 354.068C40.0435 354.516 40.5801 354.74 41.2241 354.74ZM50.6979 348.16C51.3045 348.16 51.8459 348.286 52.3219 348.538C52.8072 348.79 53.1852 349.163 53.4559 349.658C53.7265 350.153 53.8619 350.75 53.8619 351.45V356H52.2799V351.688C52.2799 350.997 52.1072 350.47 51.7619 350.106C51.4165 349.733 50.9452 349.546 50.3479 349.546C49.7505 349.546 49.2745 349.733 48.9199 350.106C48.5745 350.47 48.4019 350.997 48.4019 351.688V356H46.8059V348.286H48.4019V349.168C48.6632 348.851 48.9945 348.603 49.3959 348.426C49.8065 348.249 50.2405 348.16 50.6979 348.16ZM57.7597 349.588V353.858C57.7597 354.147 57.825 354.357 57.9557 354.488C58.0957 354.609 58.329 354.67 58.6557 354.67H59.6357V356H58.3757C57.657 356 57.1063 355.832 56.7237 355.496C56.341 355.16 56.1497 354.614 56.1497 353.858V349.588H55.2397V348.286H56.1497V346.368H57.7597V348.286H59.6357V349.588H57.7597ZM60.5746 352.108C60.5746 351.333 60.7333 350.647 61.0506 350.05C61.3773 349.453 61.816 348.991 62.3666 348.664C62.9266 348.328 63.5426 348.16 64.2146 348.16C64.8213 348.16 65.3486 348.281 65.7966 348.524C66.254 348.757 66.618 349.051 66.8886 349.406V348.286H68.4986V356H66.8886V354.852C66.618 355.216 66.2493 355.519 65.7826 355.762C65.316 356.005 64.784 356.126 64.1866 356.126C63.524 356.126 62.9173 355.958 62.3666 355.622C61.816 355.277 61.3773 354.801 61.0506 354.194C60.7333 353.578 60.5746 352.883 60.5746 352.108ZM66.8886 352.136C66.8886 351.604 66.7766 351.142 66.5526 350.75C66.338 350.358 66.0533 350.059 65.6986 349.854C65.344 349.649 64.9613 349.546 64.5506 349.546C64.14 349.546 63.7573 349.649 63.4026 349.854C63.048 350.05 62.7586 350.344 62.5346 350.736C62.32 351.119 62.2126 351.576 62.2126 352.108C62.2126 352.64 62.32 353.107 62.5346 353.508C62.7586 353.909 63.048 354.217 63.4026 354.432C63.7666 354.637 64.1493 354.74 64.5506 354.74C64.9613 354.74 65.344 354.637 65.6986 354.432C66.0533 354.227 66.338 353.928 66.5526 353.536C66.7766 353.135 66.8886 352.668 66.8886 352.136ZM70.0629 352.136C70.0629 351.343 70.2216 350.647 70.5389 350.05C70.8656 349.443 71.3136 348.977 71.8829 348.65C72.4523 348.323 73.1056 348.16 73.8429 348.16C74.7763 348.16 75.5463 348.384 76.1529 348.832C76.7689 349.271 77.1843 349.901 77.3989 350.722H75.6769C75.5369 350.339 75.3129 350.041 75.0049 349.826C74.6969 349.611 74.3096 349.504 73.8429 349.504C73.1896 349.504 72.6669 349.737 72.2749 350.204C71.8923 350.661 71.7009 351.305 71.7009 352.136C71.7009 352.967 71.8923 353.615 72.2749 354.082C72.6669 354.549 73.1896 354.782 73.8429 354.782C74.7669 354.782 75.3783 354.376 75.6769 353.564H77.3989C77.1749 354.348 76.7549 354.973 76.1389 355.44C75.5229 355.897 74.7576 356.126 73.8429 356.126C73.1056 356.126 72.4523 355.963 71.8829 355.636C71.3136 355.3 70.8656 354.833 70.5389 354.236C70.2216 353.629 70.0629 352.929 70.0629 352.136ZM80.8515 349.588V353.858C80.8515 354.147 80.9168 354.357 81.0475 354.488C81.1875 354.609 81.4208 354.67 81.7475 354.67H82.7275V356H81.4675C80.7488 356 80.1981 355.832 79.8155 355.496C79.4328 355.16 79.2415 354.614 79.2415 353.858V349.588H78.3315V348.286H79.2415V346.368H80.8515V348.286H82.7275V349.588H80.8515ZM89.4172 346.27V352.472C89.4172 353.209 89.6085 353.765 89.9912 354.138C90.3832 354.511 90.9245 354.698 91.6152 354.698C92.3152 354.698 92.8565 354.511 93.2392 354.138C93.6312 353.765 93.8272 353.209 93.8272 352.472V346.27H95.4232V352.444C95.4232 353.237 95.2505 353.909 94.9052 354.46C94.5598 355.011 94.0978 355.421 93.5192 355.692C92.9405 355.963 92.3012 356.098 91.6012 356.098C90.9012 356.098 90.2618 355.963 89.6832 355.692C89.1138 355.421 88.6612 355.011 88.3252 354.46C87.9892 353.909 87.8212 353.237 87.8212 352.444V346.27H89.4172ZM100.301 356.126C99.6945 356.126 99.1485 356.019 98.6632 355.804C98.1872 355.58 97.8092 355.281 97.5292 354.908C97.2492 354.525 97.0998 354.101 97.0812 353.634H98.7332C98.7612 353.961 98.9152 354.236 99.1952 354.46C99.4845 354.675 99.8438 354.782 100.273 354.782C100.721 354.782 101.067 354.698 101.309 354.53C101.561 354.353 101.687 354.129 101.687 353.858C101.687 353.569 101.547 353.354 101.267 353.214C100.997 353.074 100.563 352.92 99.9652 352.752C99.3865 352.593 98.9152 352.439 98.5512 352.29C98.1872 352.141 97.8698 351.912 97.5992 351.604C97.3378 351.296 97.2072 350.89 97.2072 350.386C97.2072 349.975 97.3285 349.602 97.5712 349.266C97.8138 348.921 98.1592 348.65 98.6072 348.454C99.0645 348.258 99.5872 348.16 100.175 348.16C101.053 348.16 101.757 348.384 102.289 348.832C102.831 349.271 103.12 349.873 103.157 350.638H101.561C101.533 350.293 101.393 350.017 101.141 349.812C100.889 349.607 100.549 349.504 100.119 349.504C99.6992 349.504 99.3772 349.583 99.1532 349.742C98.9292 349.901 98.8172 350.111 98.8172 350.372C98.8172 350.577 98.8918 350.75 99.0412 350.89C99.1905 351.03 99.3725 351.142 99.5872 351.226C99.8018 351.301 100.119 351.399 100.539 351.52C101.099 351.669 101.557 351.823 101.911 351.982C102.275 352.131 102.588 352.355 102.849 352.654C103.111 352.953 103.246 353.349 103.255 353.844C103.255 354.283 103.134 354.675 102.891 355.02C102.649 355.365 102.303 355.636 101.855 355.832C101.417 356.028 100.899 356.126 100.301 356.126Z" fill="#414141"/>
<path d="M353.29 343.811L359.429 349.95C360.015 350.536 360.015 351.486 359.429 352.072L353.29 358.211" stroke="#414141" stroke-width="2" stroke-linecap="round" stroke-linejoin="round"/>
<g filter="url(#filter4_d_92_5624)">
<rect x="15" y="392" width="362" height="51" rx="8" fill="white"/>
<rect x="15.25" y="392.25" width="361.5" height="50.5" rx="7.75" stroke="#08B783" stroke-width="0.5"/>
</g>
<path d="M30.228 413.27C31.264 413.27 32.1693 413.471 32.944 413.872C33.728 414.264 34.33 414.833 34.75 415.58C35.1793 416.317 35.394 417.181 35.394 418.17C35.394 419.159 35.1793 420.018 34.75 420.746C34.33 421.474 33.728 422.034 32.944 422.426C32.1693 422.809 31.264 423 30.228 423H27.05V413.27H30.228ZM30.228 421.698C31.3667 421.698 32.2393 421.39 32.846 420.774C33.4527 420.158 33.756 419.29 33.756 418.17C33.756 417.041 33.4527 416.159 32.846 415.524C32.2393 414.889 31.3667 414.572 30.228 414.572H28.646V421.698H30.228ZM44.0458 418.954C44.0458 419.243 44.0271 419.505 43.9898 419.738H38.0958C38.1424 420.354 38.3711 420.849 38.7818 421.222C39.1924 421.595 39.6964 421.782 40.2938 421.782C41.1524 421.782 41.7591 421.423 42.1138 420.704H43.8358C43.6024 421.413 43.1778 421.997 42.5618 422.454C41.9551 422.902 41.1991 423.126 40.2938 423.126C39.5564 423.126 38.8938 422.963 38.3058 422.636C37.7271 422.3 37.2698 421.833 36.9338 421.236C36.6071 420.629 36.4438 419.929 36.4438 419.136C36.4438 418.343 36.6024 417.647 36.9198 417.05C37.2464 416.443 37.6991 415.977 38.2778 415.65C38.8658 415.323 39.5378 415.16 40.2938 415.16C41.0218 415.16 41.6704 415.319 42.2398 415.636C42.8091 415.953 43.2524 416.401 43.5698 416.98C43.8871 417.549 44.0458 418.207 44.0458 418.954ZM42.3798 418.45C42.3704 417.862 42.1604 417.391 41.7498 417.036C41.3391 416.681 40.8304 416.504 40.2238 416.504C39.6731 416.504 39.2018 416.681 38.8098 417.036C38.4178 417.381 38.1844 417.853 38.1098 418.45H42.3798ZM47.2124 412.64V423H45.6164V412.64H47.2124ZM56.3778 418.954C56.3778 419.243 56.3591 419.505 56.3218 419.738H50.4278C50.4745 420.354 50.7031 420.849 51.1138 421.222C51.5245 421.595 52.0285 421.782 52.6258 421.782C53.4845 421.782 54.0911 421.423 54.4458 420.704H56.1678C55.9345 421.413 55.5098 421.997 54.8938 422.454C54.2871 422.902 53.5311 423.126 52.6258 423.126C51.8885 423.126 51.2258 422.963 50.6378 422.636C50.0591 422.3 49.6018 421.833 49.2658 421.236C48.9391 420.629 48.7758 419.929 48.7758 419.136C48.7758 418.343 48.9345 417.647 49.2518 417.05C49.5785 416.443 50.0311 415.977 50.6098 415.65C51.1978 415.323 51.8698 415.16 52.6258 415.16C53.3538 415.16 54.0025 415.319 54.5718 415.636C55.1411 415.953 55.5845 416.401 55.9018 416.98C56.2191 417.549 56.3778 418.207 56.3778 418.954ZM54.7118 418.45C54.7025 417.862 54.4925 417.391 54.0818 417.036C53.6711 416.681 53.1625 416.504 52.5558 416.504C52.0051 416.504 51.5338 416.681 51.1418 417.036C50.7498 417.381 50.5165 417.853 50.4418 418.45H54.7118ZM59.8104 416.588V420.858C59.8104 421.147 59.8758 421.357 60.0064 421.488C60.1464 421.609 60.3798 421.67 60.7064 421.67H61.6864V423H60.4264C59.7078 423 59.1571 422.832 58.7744 422.496C58.3918 422.16 58.2004 421.614 58.2004 420.858V416.588H57.2904V415.286H58.2004V413.368H59.8104V415.286H61.6864V416.588H59.8104ZM70.2274 418.954C70.2274 419.243 70.2088 419.505 70.1714 419.738H64.2774C64.3241 420.354 64.5528 420.849 64.9634 421.222C65.3741 421.595 65.8781 421.782 66.4754 421.782C67.3341 421.782 67.9408 421.423 68.2954 420.704H70.0174C69.7841 421.413 69.3594 421.997 68.7434 422.454C68.1368 422.902 67.3808 423.126 66.4754 423.126C65.7381 423.126 65.0754 422.963 64.4874 422.636C63.9088 422.3 63.4514 421.833 63.1154 421.236C62.7888 420.629 62.6254 419.929 62.6254 419.136C62.6254 418.343 62.7841 417.647 63.1014 417.05C63.4281 416.443 63.8808 415.977 64.4594 415.65C65.0474 415.323 65.7194 415.16 66.4754 415.16C67.2034 415.16 67.8521 415.319 68.4214 415.636C68.9908 415.953 69.4341 416.401 69.7514 416.98C70.0688 417.549 70.2274 418.207 70.2274 418.954ZM68.5614 418.45C68.5521 417.862 68.3421 417.391 67.9314 417.036C67.5208 416.681 67.0121 416.504 66.4054 416.504C65.8548 416.504 65.3834 416.681 64.9914 417.036C64.5994 417.381 64.3661 417.853 64.2914 418.45H68.5614ZM81.3008 421.012H77.2268L76.5268 423H74.8608L78.3468 413.256H80.1948L83.6808 423H82.0008L81.3008 421.012ZM80.8528 419.71L79.2708 415.188L77.6748 419.71H80.8528ZM84.6645 419.136C84.6645 418.343 84.8232 417.647 85.1405 417.05C85.4672 416.443 85.9152 415.977 86.4845 415.65C87.0538 415.323 87.7072 415.16 88.4445 415.16C89.3778 415.16 90.1478 415.384 90.7545 415.832C91.3705 416.271 91.7858 416.901 92.0005 417.722H90.2785C90.1385 417.339 89.9145 417.041 89.6065 416.826C89.2985 416.611 88.9112 416.504 88.4445 416.504C87.7912 416.504 87.2685 416.737 86.8765 417.204C86.4938 417.661 86.3025 418.305 86.3025 419.136C86.3025 419.967 86.4938 420.615 86.8765 421.082C87.2685 421.549 87.7912 421.782 88.4445 421.782C89.3685 421.782 89.9798 421.376 90.2785 420.564H92.0005C91.7765 421.348 91.3565 421.973 90.7405 422.44C90.1245 422.897 89.3592 423.126 88.4445 423.126C87.7072 423.126 87.0538 422.963 86.4845 422.636C85.9152 422.3 85.4672 421.833 85.1405 421.236C84.8232 420.629 84.6645 419.929 84.6645 419.136ZM93.059 419.136C93.059 418.343 93.2177 417.647 93.535 417.05C93.8617 416.443 94.3097 415.977 94.879 415.65C95.4483 415.323 96.1017 415.16 96.839 415.16C97.7723 415.16 98.5423 415.384 99.149 415.832C99.765 416.271 100.18 416.901 100.395 417.722H98.673C98.533 417.339 98.309 417.041 98.001 416.826C97.693 416.611 97.3057 416.504 96.839 416.504C96.1857 416.504 95.663 416.737 95.271 417.204C94.8883 417.661 94.697 418.305 94.697 419.136C94.697 419.967 94.8883 420.615 95.271 421.082C95.663 421.549 96.1857 421.782 96.839 421.782C97.763 421.782 98.3743 421.376 98.673 420.564H100.395C100.171 421.348 99.751 421.973 99.135 422.44C98.519 422.897 97.7537 423.126 96.839 423.126C96.1017 423.126 95.4483 422.963 94.879 422.636C94.3097 422.3 93.8617 421.833 93.535 421.236C93.2177 420.629 93.059 419.929 93.059 419.136ZM105.332 423.126C104.604 423.126 103.946 422.963 103.358 422.636C102.77 422.3 102.308 421.833 101.972 421.236C101.636 420.629 101.468 419.929 101.468 419.136C101.468 418.352 101.64 417.657 101.986 417.05C102.331 416.443 102.802 415.977 103.4 415.65C103.997 415.323 104.664 415.16 105.402 415.16C106.139 415.16 106.806 415.323 107.404 415.65C108.001 415.977 108.472 416.443 108.818 417.05C109.163 417.657 109.336 418.352 109.336 419.136C109.336 419.92 109.158 420.615 108.804 421.222C108.449 421.829 107.964 422.3 107.348 422.636C106.741 422.963 106.069 423.126 105.332 423.126ZM105.332 421.74C105.742 421.74 106.125 421.642 106.48 421.446C106.844 421.25 107.138 420.956 107.362 420.564C107.586 420.172 107.698 419.696 107.698 419.136C107.698 418.576 107.59 418.105 107.376 417.722C107.161 417.33 106.876 417.036 106.522 416.84C106.167 416.644 105.784 416.546 105.374 416.546C104.963 416.546 104.58 416.644 104.226 416.84C103.88 417.036 103.605 417.33 103.4 417.722C103.194 418.105 103.092 418.576 103.092 419.136C103.092 419.967 103.302 420.611 103.722 421.068C104.151 421.516 104.688 421.74 105.332 421.74ZM117.899 415.286V423H116.303V422.09C116.051 422.407 115.72 422.659 115.309 422.846C114.908 423.023 114.479 423.112 114.021 423.112C113.415 423.112 112.869 422.986 112.383 422.734C111.907 422.482 111.529 422.109 111.249 421.614C110.979 421.119 110.843 420.522 110.843 419.822V415.286H112.425V419.584C112.425 420.275 112.598 420.807 112.943 421.18C113.289 421.544 113.76 421.726 114.357 421.726C114.955 421.726 115.426 421.544 115.771 421.18C116.126 420.807 116.303 420.275 116.303 419.584V415.286H117.899ZM123.897 415.16C124.504 415.16 125.045 415.286 125.521 415.538C126.006 415.79 126.384 416.163 126.655 416.658C126.926 417.153 127.061 417.75 127.061 418.45V423H125.479V418.688C125.479 417.997 125.306 417.47 124.961 417.106C124.616 416.733 124.144 416.546 123.547 416.546C122.95 416.546 122.474 416.733 122.119 417.106C121.774 417.47 121.601 417.997 121.601 418.688V423H120.005V415.286H121.601V416.168C121.862 415.851 122.194 415.603 122.595 415.426C123.006 415.249 123.44 415.16 123.897 415.16ZM130.959 416.588V420.858C130.959 421.147 131.024 421.357 131.155 421.488C131.295 421.609 131.528 421.67 131.855 421.67H132.835V423H131.575C130.856 423 130.306 422.832 129.923 422.496C129.54 422.16 129.349 421.614 129.349 420.858V416.588H128.439V415.286H129.349V413.368H130.959V415.286H132.835V416.588H130.959Z" fill="#414141"/>
<path d="M353.29 410.811L359.429 416.95C360.015 417.536 360.015 418.486 359.429 419.072L353.29 425.211" stroke="#414141" stroke-width="2" stroke-linecap="round" stroke-linejoin="round"/>
</g>
<defs>
<filter id="filter0_d_92_5624" x="14" y="123" width="364" height="53" filterUnits="userSpaceOnUse" color-interpolation-filters="sRGB">
<feFlood flood-opacity="0" result="BackgroundImageFix"/>
<feColorMatrix in="SourceAlpha" type="matrix" values="0 0 0 0 0 0 0 0 0 0 0 0 0 0 0 0 0 0 127 0" result="hardAlpha"/>
<feOffset/>
<feGaussianBlur stdDeviation="0.5"/>
<feComposite in2="hardAlpha" operator="out"/>
<feColorMatrix type="matrix" values="0 0 0 0 0 0 0 0 0 0 0 0 0 0 0 0 0 0 0.24 0"/>
<feBlend mode="normal" in2="BackgroundImageFix" result="effect1_dropShadow_92_5624"/>
<feBlend mode="normal" in="SourceGraphic" in2="effect1_dropShadow_92_5624" result="shape"/>
</filter>
<filter id="filter1_d_92_5624" x="14" y="190" width="364" height="53" filterUnits="userSpaceOnUse" color-interpolation-filters="sRGB">
<feFlood flood-opacity="0" result="BackgroundImageFix"/>
<feColorMatrix in="SourceAlpha" type="matrix" values="0 0 0 0 0 0 0 0 0 0 0 0 0 0 0 0 0 0 127 0" result="hardAlpha"/>
<feOffset/>
<feGaussianBlur stdDeviation="0.5"/>
<feComposite in2="hardAlpha" operator="out"/>
<feColorMatrix type="matrix" values="0 0 0 0 0 0 0 0 0 0 0 0 0 0 0 0 0 0 0.24 0"/>
<feBlend mode="normal" in2="BackgroundImageFix" result="effect1_dropShadow_92_5624"/>
<feBlend mode="normal" in="SourceGraphic" in2="effect1_dropShadow_92_5624" result="shape"/>
</filter>
<filter id="filter2_d_92_5624" x="14" y="257" width="364" height="53" filterUnits="userSpaceOnUse" color-interpolation-filters="sRGB">
<feFlood flood-opacity="0" result="BackgroundImageFix"/>
<feColorMatrix in="SourceAlpha" type="matrix" values="0 0 0 0 0 0 0 0 0 0 0 0 0 0 0 0 0 0 127 0" result="hardAlpha"/>
<feOffset/>
<feGaussianBlur stdDeviation="0.5"/>
<feComposite in2="hardAlpha" operator="out"/>
<feColorMatrix type="matrix" values="0 0 0 0 0 0 0 0 0 0 0 0 0 0 0 0 0 0 0.24 0"/>
<feBlend mode="normal" in2="BackgroundImageFix" result="effect1_dropShadow_92_5624"/>
<feBlend mode="normal" in="SourceGraphic" in2="effect1_dropShadow_92_5624" result="shape"/>
</filter>
<filter id="filter3_d_92_5624" x="14" y="324" width="364" height="53" filterUnits="userSpaceOnUse" color-interpolation-filters="sRGB">
<feFlood flood-opacity="0" result="BackgroundImageFix"/>
<feColorMatrix in="SourceAlpha" type="matrix" values="0 0 0 0 0 0 0 0 0 0 0 0 0 0 0 0 0 0 127 0" result="hardAlpha"/>
<feOffset/>
<feGaussianBlur stdDeviation="0.5"/>
<feComposite in2="hardAlpha" operator="out"/>
<feColorMatrix type="matrix" values="0 0 0 0 0 0 0 0 0 0 0 0 0 0 0 0 0 0 0.24 0"/>
<feBlend mode="normal" in2="BackgroundImageFix" result="effect1_dropShadow_92_5624"/>
<feBlend mode="normal" in="SourceGraphic" in2="effect1_dropShadow_92_5624" result="shape"/>
</filter>
<filter id="filter4_d_92_5624" x="14" y="391" width="364" height="53" filterUnits="userSpaceOnUse" color-interpolation-filters="sRGB">
<feFlood flood-opacity="0" result="BackgroundImageFix"/>
<feColorMatrix in="SourceAlpha" type="matrix" values="0 0 0 0 0 0 0 0 0 0 0 0 0 0 0 0 0 0 127 0" result="hardAlpha"/>
<feOffset/>
<feGaussianBlur stdDeviation="0.5"/>
<feComposite in2="hardAlpha" operator="out"/>
<feColorMatrix type="matrix" values="0 0 0 0 0 0 0 0 0 0 0 0 0 0 0 0 0 0 0.24 0"/>
<feBlend mode="normal" in2="BackgroundImageFix" result="effect1_dropShadow_92_5624"/>
<feBlend mode="normal" in="SourceGraphic" in2="effect1_dropShadow_92_5624" result="shape"/>
</filter>
<clipPath id="clip0_92_5624">
<rect width="393" height="852" fill="white"/>
</clipPath>
</defs>
</svg>
