<svg width="393" height="852" viewBox="0 0 393 852" fill="none" xmlns="http://www.w3.org/2000/svg">
<g clip-path="url(#clip0_92_5761)">
<rect width="393" height="852" fill="white"/>
<path opacity="0.35" d="M354.834 22.6696C354.834 21.473 355.804 20.5029 357.001 20.5029H373.667C374.864 20.5029 375.834 21.473 375.834 22.6696V28.6696C375.834 29.8662 374.864 30.8363 373.667 30.8363H357.001C355.804 30.8363 354.834 29.8662 354.834 28.6696V22.6696Z" stroke="#141414"/>
<path opacity="0.4" d="M377.334 23.6699V27.6699C378.139 27.3311 378.662 26.5431 378.662 25.6699C378.662 24.7968 378.139 24.0087 377.334 23.6699Z" fill="#141414"/>
<path d="M356.334 23.3363C356.334 22.5999 356.931 22.0029 357.667 22.0029H373.001C373.737 22.0029 374.334 22.5999 374.334 23.3363V28.0029C374.334 28.7393 373.737 29.3363 373.001 29.3363H357.667C356.931 29.3363 356.334 28.7393 356.334 28.0029V23.3363Z" fill="#141414"/>
<path fill-rule="evenodd" clip-rule="evenodd" d="M341.664 22.2773C343.88 22.2774 346.011 23.1289 347.617 24.6557C347.738 24.7735 347.931 24.772 348.05 24.6523L349.206 23.4857C349.267 23.4249 349.3 23.3427 349.3 23.2571C349.299 23.1715 349.265 23.0897 349.204 23.0297C344.989 18.9901 338.339 18.9901 334.124 23.0297C334.063 23.0896 334.028 23.1715 334.027 23.257C334.027 23.3426 334.06 23.4249 334.121 23.4857L335.277 24.6523C335.396 24.7722 335.589 24.7737 335.71 24.6557C337.316 23.1288 339.448 22.2773 341.664 22.2773ZM341.665 26.073C342.882 26.0729 344.056 26.5255 344.959 27.3427C345.081 27.4587 345.273 27.4562 345.392 27.337L346.547 26.1704C346.608 26.1092 346.641 26.0261 346.64 25.9399C346.64 25.8536 346.604 25.7713 346.542 25.7114C343.794 23.155 339.538 23.155 336.79 25.7114C336.728 25.7713 336.692 25.8537 336.691 25.9399C336.691 26.0262 336.724 26.1092 336.785 26.1704L337.94 27.337C338.059 27.4562 338.251 27.4587 338.373 27.3427C339.275 26.526 340.448 26.0735 341.665 26.073ZM343.978 28.6268C343.98 28.7133 343.946 28.7967 343.884 28.8573L341.886 30.873C341.828 30.9323 341.748 30.9656 341.665 30.9656C341.582 30.9656 341.502 30.9323 341.443 30.873L339.445 28.8573C339.384 28.7967 339.35 28.7133 339.352 28.6268C339.353 28.5403 339.391 28.4583 339.455 28.4003C340.731 27.3215 342.599 27.3215 343.874 28.4003C343.939 28.4584 343.976 28.5403 343.978 28.6268Z" fill="#141414"/>
<path fill-rule="evenodd" clip-rule="evenodd" d="M328 20.3359H327C326.448 20.3359 326 20.7837 326 21.3359V30.0026C326 30.5549 326.448 31.0026 327 31.0026H328C328.552 31.0026 329 30.5549 329 30.0026V21.3359C329 20.7837 328.552 20.3359 328 20.3359ZM322.334 22.6693H323.334C323.886 22.6693 324.334 23.117 324.334 23.6693V30.0026C324.334 30.5549 323.886 31.0026 323.334 31.0026H322.334C321.782 31.0026 321.334 30.5549 321.334 30.0026V23.6693C321.334 23.117 321.782 22.6693 322.334 22.6693ZM318.666 25.0026H317.666C317.114 25.0026 316.666 25.4503 316.666 26.0026V30.0026C316.666 30.5548 317.114 31.0026 317.666 31.0026H318.666C319.218 31.0026 319.666 30.5548 319.666 30.0026V26.0026C319.666 25.4503 319.218 25.0026 318.666 25.0026ZM314 27.0026H313C312.448 27.0026 312 27.4503 312 28.0026V30.0026C312 30.5549 312.448 31.0026 313 31.0026H314C314.552 31.0026 315 30.5549 315 30.0026V28.0026C315 27.4503 314.552 27.0026 314 27.0026Z" fill="#141414"/>
<path d="M19.3203 32.2568C22.0083 32.2568 23.605 30.1548 23.605 26.5952C23.605 25.2549 23.3486 24.127 22.8579 23.2554C22.1475 21.9004 20.9243 21.168 19.3789 21.168C17.0791 21.168 15.4531 22.7134 15.4531 24.8813C15.4531 26.9175 16.918 28.397 18.9321 28.397C20.1699 28.397 21.1733 27.8184 21.6714 26.8149H21.6934C21.6934 26.8149 21.7227 26.8149 21.73 26.8149C21.7446 26.8149 21.7959 26.8149 21.7959 26.8149C21.7959 29.2319 20.8804 30.6748 19.335 30.6748C18.4268 30.6748 17.7236 30.1768 17.4819 29.3784H15.5996C15.9146 31.1143 17.3867 32.2568 19.3203 32.2568ZM19.3862 26.8955C18.1704 26.8955 17.3062 26.0312 17.3062 24.8228C17.3062 23.6436 18.2144 22.7427 19.3936 22.7427C20.5728 22.7427 21.481 23.6582 21.481 24.8521C21.481 26.0312 20.5947 26.8955 19.3862 26.8955Z" fill="#141414"/>
<path d="M26.6961 32.1543C27.3919 32.1543 27.868 31.6562 27.868 30.9971C27.868 30.3306 27.3919 29.8398 26.6961 29.8398C26.0076 29.8398 25.5242 30.3306 25.5242 30.9971C25.5242 31.6562 26.0076 32.1543 26.6961 32.1543ZM26.6961 26.6611C27.3919 26.6611 27.868 26.1704 27.868 25.5112C27.868 24.8447 27.3919 24.354 26.6961 24.354C26.0076 24.354 25.5242 24.8447 25.5242 25.5112C25.5242 26.1704 26.0076 26.6611 26.6961 26.6611Z" fill="#141414"/>
<path d="M34.7237 32.0005H36.5328V30.0303H37.961V28.4336H36.5328V21.4316H33.8668C31.9991 24.2441 30.5123 26.5952 29.5602 28.3457V30.0303H34.7237V32.0005ZM31.3106 28.3677C32.5411 26.1997 33.6397 24.4639 34.6505 22.9697H34.753V28.4775H31.3106V28.3677Z" fill="#141414"/>
<path d="M41.9896 32.0005H43.8793V21.4316H41.997L39.2357 23.3652V25.1816L41.8651 23.3359H41.9896V32.0005Z" fill="#141414"/>
<path d="M23 80.7498C22.808 80.7498 22.616 80.6768 22.47 80.5298L15.47 73.5298C15.177 73.2368 15.177 72.7618 15.47 72.4688L22.47 65.4688C22.763 65.1758 23.238 65.1758 23.531 65.4688C23.824 65.7618 23.824 66.2368 23.531 66.5298L17.0611 72.9998L23.531 79.4698C23.824 79.7628 23.824 80.2378 23.531 80.5308C23.384 80.6768 23.192 80.7498 23 80.7498Z" fill="#2A2A2A"/>
<path d="M43.816 72.756C44.2213 72.82 44.5893 72.9853 44.92 73.252C45.2613 73.5187 45.528 73.8493 45.72 74.244C45.9227 74.6387 46.024 75.06 46.024 75.508C46.024 76.0733 45.88 76.5853 45.592 77.044C45.304 77.492 44.8827 77.8493 44.328 78.116C43.784 78.372 43.1387 78.5 42.392 78.5H38.232V67.348H42.232C42.9893 67.348 43.6347 67.476 44.168 67.732C44.7013 67.9773 45.1013 68.3133 45.368 68.74C45.6347 69.1667 45.768 69.6467 45.768 70.18C45.768 70.8413 45.5867 71.3907 45.224 71.828C44.872 72.2547 44.4027 72.564 43.816 72.756ZM39.688 72.164H42.136C42.8187 72.164 43.3467 72.004 43.72 71.684C44.0933 71.364 44.28 70.9213 44.28 70.356C44.28 69.7907 44.0933 69.348 43.72 69.028C43.3467 68.708 42.808 68.548 42.104 68.548H39.688V72.164ZM42.264 77.3C42.9893 77.3 43.5547 77.1293 43.96 76.788C44.3653 76.4467 44.568 75.972 44.568 75.364C44.568 74.7453 44.3547 74.26 43.928 73.908C43.5013 73.5453 42.9307 73.364 42.216 73.364H39.688V77.3H42.264ZM47.5005 74.084C47.5005 73.188 47.6818 72.404 48.0445 71.732C48.4072 71.0493 48.9032 70.5213 49.5325 70.148C50.1725 69.7747 50.8818 69.588 51.6605 69.588C52.4285 69.588 53.0952 69.7533 53.6605 70.084C54.2258 70.4147 54.6472 70.8307 54.9245 71.332V69.732H56.3965V78.5H54.9245V76.868C54.6365 77.38 54.2045 77.8067 53.6285 78.148C53.0632 78.4787 52.4018 78.644 51.6445 78.644C50.8658 78.644 50.1618 78.452 49.5325 78.068C48.9032 77.684 48.4072 77.1453 48.0445 76.452C47.6818 75.7587 47.5005 74.9693 47.5005 74.084ZM54.9245 74.1C54.9245 73.4387 54.7912 72.8627 54.5245 72.372C54.2578 71.8813 53.8952 71.508 53.4365 71.252C52.9885 70.9853 52.4925 70.852 51.9485 70.852C51.4045 70.852 50.9085 70.98 50.4605 71.236C50.0125 71.492 49.6552 71.8653 49.3885 72.356C49.1218 72.8467 48.9885 73.4227 48.9885 74.084C48.9885 74.756 49.1218 75.3427 49.3885 75.844C49.6552 76.3347 50.0125 76.7133 50.4605 76.98C50.9085 77.236 51.4045 77.364 51.9485 77.364C52.4925 77.364 52.9885 77.236 53.4365 76.98C53.8952 76.7133 54.2578 76.3347 54.5245 75.844C54.7912 75.3427 54.9245 74.7613 54.9245 74.1ZM58.313 74.1C58.313 73.1933 58.4943 72.404 58.857 71.732C59.2197 71.0493 59.721 70.5213 60.361 70.148C61.0117 69.7747 61.753 69.588 62.585 69.588C63.6623 69.588 64.5477 69.8493 65.241 70.372C65.945 70.8947 66.409 71.62 66.633 72.548H65.065C64.9157 72.0147 64.6223 71.5933 64.185 71.284C63.7583 70.9747 63.225 70.82 62.585 70.82C61.753 70.82 61.081 71.108 60.569 71.684C60.057 72.2493 59.801 73.0547 59.801 74.1C59.801 75.156 60.057 75.972 60.569 76.548C61.081 77.124 61.753 77.412 62.585 77.412C63.225 77.412 63.7583 77.2627 64.185 76.964C64.6117 76.6653 64.905 76.2387 65.065 75.684H66.633C66.3983 76.58 65.929 77.3 65.225 77.844C64.521 78.3773 63.641 78.644 62.585 78.644C61.753 78.644 61.0117 78.4573 60.361 78.084C59.721 77.7107 59.2197 77.1827 58.857 76.5C58.4943 75.8173 58.313 75.0173 58.313 74.1ZM73.4718 78.5L70.0318 74.628V78.5H68.5758V66.66H70.0318V73.62L73.4078 69.732H75.4398L71.3118 74.1L75.4558 78.5H73.4718Z" fill="#414141"/>
<path d="M114.637 73.218C114.637 71.994 114.919 70.896 115.483 69.924C116.059 68.952 116.833 68.196 117.805 67.656C118.789 67.104 119.863 66.828 121.027 66.828C122.359 66.828 123.541 67.158 124.573 67.818C125.617 68.466 126.373 69.39 126.841 70.59H124.375C124.051 69.93 123.601 69.438 123.025 69.114C122.449 68.79 121.783 68.628 121.027 68.628C120.199 68.628 119.461 68.814 118.813 69.186C118.165 69.558 117.655 70.092 117.283 70.788C116.923 71.484 116.743 72.294 116.743 73.218C116.743 74.142 116.923 74.952 117.283 75.648C117.655 76.344 118.165 76.884 118.813 77.268C119.461 77.64 120.199 77.826 121.027 77.826C121.783 77.826 122.449 77.664 123.025 77.34C123.601 77.016 124.051 76.524 124.375 75.864H126.841C126.373 77.064 125.617 77.988 124.573 78.636C123.541 79.284 122.359 79.608 121.027 79.608C119.851 79.608 118.777 79.338 117.805 78.798C116.833 78.246 116.059 77.484 115.483 76.512C114.919 75.54 114.637 74.442 114.637 73.218ZM134.373 69.42C135.129 69.42 135.801 69.582 136.389 69.906C136.989 70.23 137.457 70.71 137.793 71.346C138.141 71.982 138.315 72.75 138.315 73.65V79.5H136.281V73.956C136.281 73.068 136.059 72.39 135.615 71.922C135.171 71.442 134.565 71.202 133.797 71.202C133.029 71.202 132.417 71.442 131.961 71.922C131.517 72.39 131.295 73.068 131.295 73.956V79.5H129.243V66.18H131.295V70.734C131.643 70.314 132.081 69.99 132.609 69.762C133.149 69.534 133.737 69.42 134.373 69.42ZM140.248 74.496C140.248 73.5 140.452 72.618 140.86 71.85C141.28 71.082 141.844 70.488 142.552 70.068C143.272 69.636 144.064 69.42 144.928 69.42C145.708 69.42 146.386 69.576 146.962 69.888C147.55 70.188 148.018 70.566 148.366 71.022V69.582H150.436V79.5H148.366V78.024C148.018 78.492 147.544 78.882 146.944 79.194C146.344 79.506 145.66 79.662 144.892 79.662C144.04 79.662 143.26 79.446 142.552 79.014C141.844 78.57 141.28 77.958 140.86 77.178C140.452 76.386 140.248 75.492 140.248 74.496ZM148.366 74.532C148.366 73.848 148.222 73.254 147.934 72.75C147.658 72.246 147.292 71.862 146.836 71.598C146.38 71.334 145.888 71.202 145.36 71.202C144.832 71.202 144.34 71.334 143.884 71.598C143.428 71.85 143.056 72.228 142.768 72.732C142.492 73.224 142.354 73.812 142.354 74.496C142.354 75.18 142.492 75.78 142.768 76.296C143.056 76.812 143.428 77.208 143.884 77.484C144.352 77.748 144.844 77.88 145.36 77.88C145.888 77.88 146.38 77.748 146.836 77.484C147.292 77.22 147.658 76.836 147.934 76.332C148.222 75.816 148.366 75.216 148.366 74.532ZM158.135 69.42C158.915 69.42 159.611 69.582 160.223 69.906C160.847 70.23 161.333 70.71 161.681 71.346C162.029 71.982 162.203 72.75 162.203 73.65V79.5H160.169V73.956C160.169 73.068 159.947 72.39 159.503 71.922C159.059 71.442 158.453 71.202 157.685 71.202C156.917 71.202 156.305 71.442 155.849 71.922C155.405 72.39 155.183 73.068 155.183 73.956V79.5H153.131V69.582H155.183V70.716C155.519 70.308 155.945 69.99 156.461 69.762C156.989 69.534 157.547 69.42 158.135 69.42ZM168.817 69.42C169.585 69.42 170.263 69.576 170.851 69.888C171.451 70.188 171.919 70.566 172.255 71.022V69.582H174.325V79.662C174.325 80.574 174.133 81.384 173.749 82.092C173.365 82.812 172.807 83.376 172.075 83.784C171.355 84.192 170.491 84.396 169.483 84.396C168.139 84.396 167.023 84.078 166.135 83.442C165.247 82.818 164.743 81.966 164.623 80.886H166.657C166.813 81.402 167.143 81.816 167.647 82.128C168.163 82.452 168.775 82.614 169.483 82.614C170.311 82.614 170.977 82.362 171.481 81.858C171.997 81.354 172.255 80.622 172.255 79.662V78.006C171.907 78.474 171.433 78.87 170.833 79.194C170.245 79.506 169.573 79.662 168.817 79.662C167.953 79.662 167.161 79.446 166.441 79.014C165.733 78.57 165.169 77.958 164.749 77.178C164.341 76.386 164.137 75.492 164.137 74.496C164.137 73.5 164.341 72.618 164.749 71.85C165.169 71.082 165.733 70.488 166.441 70.068C167.161 69.636 167.953 69.42 168.817 69.42ZM172.255 74.532C172.255 73.848 172.111 73.254 171.823 72.75C171.547 72.246 171.181 71.862 170.725 71.598C170.269 71.334 169.777 71.202 169.249 71.202C168.721 71.202 168.229 71.334 167.773 71.598C167.317 71.85 166.945 72.228 166.657 72.732C166.381 73.224 166.243 73.812 166.243 74.496C166.243 75.18 166.381 75.78 166.657 76.296C166.945 76.812 167.317 77.208 167.773 77.484C168.241 77.748 168.733 77.88 169.249 77.88C169.777 77.88 170.269 77.748 170.725 77.484C171.181 77.22 171.547 76.836 171.823 76.332C172.111 75.816 172.255 75.216 172.255 74.532ZM186.11 74.298C186.11 74.67 186.086 75.006 186.038 75.306H178.46C178.52 76.098 178.814 76.734 179.342 77.214C179.87 77.694 180.518 77.934 181.286 77.934C182.39 77.934 183.17 77.472 183.626 76.548H185.84C185.54 77.46 184.994 78.21 184.202 78.798C183.422 79.374 182.45 79.662 181.286 79.662C180.338 79.662 179.486 79.452 178.73 79.032C177.986 78.6 177.398 78 176.966 77.232C176.546 76.452 176.336 75.552 176.336 74.532C176.336 73.512 176.54 72.618 176.948 71.85C177.368 71.07 177.95 70.47 178.694 70.05C179.45 69.63 180.314 69.42 181.286 69.42C182.222 69.42 183.056 69.624 183.788 70.032C184.52 70.44 185.09 71.016 185.498 71.76C185.906 72.492 186.11 73.338 186.11 74.298ZM183.968 73.65C183.956 72.894 183.686 72.288 183.158 71.832C182.63 71.376 181.976 71.148 181.196 71.148C180.488 71.148 179.882 71.376 179.378 71.832C178.874 72.276 178.574 72.882 178.478 73.65H183.968ZM201.553 70.716C201.553 71.352 201.403 71.952 201.103 72.516C200.803 73.08 200.323 73.542 199.663 73.902C199.003 74.25 198.157 74.424 197.125 74.424H194.857V79.5H192.805V66.99H197.125C198.085 66.99 198.895 67.158 199.555 67.494C200.227 67.818 200.725 68.262 201.049 68.826C201.385 69.39 201.553 70.02 201.553 70.716ZM197.125 72.75C197.905 72.75 198.487 72.576 198.871 72.228C199.255 71.868 199.447 71.364 199.447 70.716C199.447 69.348 198.673 68.664 197.125 68.664H194.857V72.75H197.125ZM202.826 74.496C202.826 73.5 203.03 72.618 203.438 71.85C203.858 71.082 204.422 70.488 205.13 70.068C205.85 69.636 206.642 69.42 207.506 69.42C208.286 69.42 208.964 69.576 209.54 69.888C210.128 70.188 210.596 70.566 210.944 71.022V69.582H213.014V79.5H210.944V78.024C210.596 78.492 210.122 78.882 209.522 79.194C208.922 79.506 208.238 79.662 207.47 79.662C206.618 79.662 205.838 79.446 205.13 79.014C204.422 78.57 203.858 77.958 203.438 77.178C203.03 76.386 202.826 75.492 202.826 74.496ZM210.944 74.532C210.944 73.848 210.8 73.254 210.512 72.75C210.236 72.246 209.87 71.862 209.414 71.598C208.958 71.334 208.466 71.202 207.938 71.202C207.41 71.202 206.918 71.334 206.462 71.598C206.006 71.85 205.634 72.228 205.346 72.732C205.07 73.224 204.932 73.812 204.932 74.496C204.932 75.18 205.07 75.78 205.346 76.296C205.634 76.812 206.006 77.208 206.462 77.484C206.93 77.748 207.422 77.88 207.938 77.88C208.466 77.88 208.958 77.748 209.414 77.484C209.87 77.22 210.236 76.836 210.512 76.332C210.8 75.816 210.944 75.216 210.944 74.532ZM219.309 79.662C218.529 79.662 217.827 79.524 217.203 79.248C216.591 78.96 216.105 78.576 215.745 78.096C215.385 77.604 215.193 77.058 215.169 76.458H217.293C217.329 76.878 217.527 77.232 217.887 77.52C218.259 77.796 218.721 77.934 219.273 77.934C219.849 77.934 220.293 77.826 220.605 77.61C220.929 77.382 221.091 77.094 221.091 76.746C221.091 76.374 220.911 76.098 220.551 75.918C220.203 75.738 219.645 75.54 218.877 75.324C218.133 75.12 217.527 74.922 217.059 74.73C216.591 74.538 216.183 74.244 215.835 73.848C215.499 73.452 215.331 72.93 215.331 72.282C215.331 71.754 215.487 71.274 215.799 70.842C216.111 70.398 216.555 70.05 217.131 69.798C217.719 69.546 218.391 69.42 219.147 69.42C220.275 69.42 221.181 69.708 221.865 70.284C222.561 70.848 222.933 71.622 222.981 72.606H220.929C220.893 72.162 220.713 71.808 220.389 71.544C220.065 71.28 219.627 71.148 219.075 71.148C218.535 71.148 218.121 71.25 217.833 71.454C217.545 71.658 217.401 71.928 217.401 72.264C217.401 72.528 217.497 72.75 217.689 72.93C217.881 73.11 218.115 73.254 218.391 73.362C218.667 73.458 219.075 73.584 219.615 73.74C220.335 73.932 220.923 74.13 221.379 74.334C221.847 74.526 222.249 74.814 222.585 75.198C222.921 75.582 223.095 76.092 223.107 76.728C223.107 77.292 222.951 77.796 222.639 78.24C222.327 78.684 221.883 79.032 221.307 79.284C220.743 79.536 220.077 79.662 219.309 79.662ZM228.925 79.662C228.145 79.662 227.443 79.524 226.819 79.248C226.207 78.96 225.721 78.576 225.361 78.096C225.001 77.604 224.809 77.058 224.785 76.458H226.909C226.945 76.878 227.143 77.232 227.503 77.52C227.875 77.796 228.337 77.934 228.889 77.934C229.465 77.934 229.909 77.826 230.221 77.61C230.545 77.382 230.707 77.094 230.707 76.746C230.707 76.374 230.527 76.098 230.167 75.918C229.819 75.738 229.261 75.54 228.493 75.324C227.749 75.12 227.143 74.922 226.675 74.73C226.207 74.538 225.799 74.244 225.451 73.848C225.115 73.452 224.947 72.93 224.947 72.282C224.947 71.754 225.103 71.274 225.415 70.842C225.727 70.398 226.171 70.05 226.747 69.798C227.335 69.546 228.007 69.42 228.763 69.42C229.891 69.42 230.797 69.708 231.481 70.284C232.177 70.848 232.549 71.622 232.597 72.606H230.545C230.509 72.162 230.329 71.808 230.005 71.544C229.681 71.28 229.243 71.148 228.691 71.148C228.151 71.148 227.737 71.25 227.449 71.454C227.161 71.658 227.017 71.928 227.017 72.264C227.017 72.528 227.113 72.75 227.305 72.93C227.497 73.11 227.731 73.254 228.007 73.362C228.283 73.458 228.691 73.584 229.231 73.74C229.951 73.932 230.539 74.13 230.995 74.334C231.463 74.526 231.865 74.814 232.201 75.198C232.537 75.582 232.711 76.092 232.723 76.728C232.723 77.292 232.567 77.796 232.255 78.24C231.943 78.684 231.499 79.032 230.923 79.284C230.359 79.536 229.693 79.662 228.925 79.662ZM248.26 69.582L245.182 79.5H243.022L241.024 72.174L239.026 79.5H236.866L233.77 69.582H235.858L237.928 77.556L240.034 69.582H242.176L244.192 77.52L246.244 69.582H248.26ZM254.095 79.662C253.159 79.662 252.313 79.452 251.557 79.032C250.801 78.6 250.207 78 249.775 77.232C249.343 76.452 249.127 75.552 249.127 74.532C249.127 73.524 249.349 72.63 249.793 71.85C250.237 71.07 250.843 70.47 251.611 70.05C252.379 69.63 253.237 69.42 254.185 69.42C255.133 69.42 255.991 69.63 256.759 70.05C257.527 70.47 258.133 71.07 258.577 71.85C259.021 72.63 259.243 73.524 259.243 74.532C259.243 75.54 259.015 76.434 258.559 77.214C258.103 77.994 257.479 78.6 256.687 79.032C255.907 79.452 255.043 79.662 254.095 79.662ZM254.095 77.88C254.623 77.88 255.115 77.754 255.571 77.502C256.039 77.25 256.417 76.872 256.705 76.368C256.993 75.864 257.137 75.252 257.137 74.532C257.137 73.812 256.999 73.206 256.723 72.714C256.447 72.21 256.081 71.832 255.625 71.58C255.169 71.328 254.677 71.202 254.149 71.202C253.621 71.202 253.129 71.328 252.673 71.58C252.229 71.832 251.875 72.21 251.611 72.714C251.347 73.206 251.215 73.812 251.215 74.532C251.215 75.6 251.485 76.428 252.025 77.016C252.577 77.592 253.267 77.88 254.095 77.88ZM263.324 71.022C263.624 70.518 264.02 70.128 264.512 69.852C265.016 69.564 265.61 69.42 266.294 69.42V71.544H265.772C264.968 71.544 264.356 71.748 263.936 72.156C263.528 72.564 263.324 73.272 263.324 74.28V79.5H261.272V69.582H263.324V71.022ZM267.496 74.496C267.496 73.5 267.7 72.618 268.108 71.85C268.528 71.082 269.092 70.488 269.8 70.068C270.52 69.636 271.318 69.42 272.194 69.42C272.842 69.42 273.478 69.564 274.102 69.852C274.738 70.128 275.242 70.5 275.614 70.968V66.18H277.684V79.5H275.614V78.006C275.278 78.486 274.81 78.882 274.21 79.194C273.622 79.506 272.944 79.662 272.176 79.662C271.312 79.662 270.52 79.446 269.8 79.014C269.092 78.57 268.528 77.958 268.108 77.178C267.7 76.386 267.496 75.492 267.496 74.496ZM275.614 74.532C275.614 73.848 275.47 73.254 275.182 72.75C274.906 72.246 274.54 71.862 274.084 71.598C273.628 71.334 273.136 71.202 272.608 71.202C272.08 71.202 271.588 71.334 271.132 71.598C270.676 71.85 270.304 72.228 270.016 72.732C269.74 73.224 269.602 73.812 269.602 74.496C269.602 75.18 269.74 75.78 270.016 76.296C270.304 76.812 270.676 77.208 271.132 77.484C271.6 77.748 272.092 77.88 272.608 77.88C273.136 77.88 273.628 77.748 274.084 77.484C274.54 77.22 274.906 76.836 275.182 76.332C275.47 75.816 275.614 75.216 275.614 74.532Z" fill="#2A2A2A"/>
<rect x="130" y="839" width="134" height="5" rx="2.5" fill="#141414"/>
<rect x="15.5" y="124.5" width="361" height="59" rx="7.5" stroke="#B8B8B8"/>
<path d="M41.272 160.112C40.2373 160.112 39.2827 159.872 38.408 159.392C37.544 158.901 36.856 158.224 36.344 157.36C35.8427 156.485 35.592 155.504 35.592 154.416C35.592 153.328 35.8427 152.352 36.344 151.488C36.856 150.624 37.544 149.952 38.408 149.472C39.2827 148.981 40.2373 148.736 41.272 148.736C42.3173 148.736 43.272 148.981 44.136 149.472C45.0107 149.952 45.6987 150.624 46.2 151.488C46.7013 152.352 46.952 153.328 46.952 154.416C46.952 155.504 46.7013 156.485 46.2 157.36C45.6987 158.224 45.0107 158.901 44.136 159.392C43.272 159.872 42.3173 160.112 41.272 160.112ZM41.272 158.528C42.008 158.528 42.664 158.363 43.24 158.032C43.816 157.691 44.264 157.211 44.584 156.592C44.9147 155.963 45.08 155.237 45.08 154.416C45.08 153.595 44.9147 152.875 44.584 152.256C44.264 151.637 43.816 151.163 43.24 150.832C42.664 150.501 42.008 150.336 41.272 150.336C40.536 150.336 39.88 150.501 39.304 150.832C38.728 151.163 38.2747 151.637 37.944 152.256C37.624 152.875 37.464 153.595 37.464 154.416C37.464 155.237 37.624 155.963 37.944 156.592C38.2747 157.211 38.728 157.691 39.304 158.032C39.88 158.363 40.536 158.528 41.272 158.528ZM50.5709 148.16V160H48.7469V148.16H50.5709ZM52.3576 155.552C52.3576 154.667 52.539 153.883 52.9016 153.2C53.275 152.517 53.7763 151.989 54.4056 151.616C55.0456 151.232 55.755 151.04 56.5336 151.04C57.1096 151.04 57.675 151.168 58.2296 151.424C58.795 151.669 59.243 152 59.5736 152.416V148.16H61.4136V160H59.5736V158.672C59.275 159.099 58.859 159.451 58.3256 159.728C57.803 160.005 57.2003 160.144 56.5176 160.144C55.7496 160.144 55.0456 159.952 54.4056 159.568C53.7763 159.173 53.275 158.629 52.9016 157.936C52.539 157.232 52.3576 156.437 52.3576 155.552ZM59.5736 155.584C59.5736 154.976 59.4456 154.448 59.1896 154C58.9443 153.552 58.619 153.211 58.2136 152.976C57.8083 152.741 57.371 152.624 56.9016 152.624C56.4323 152.624 55.995 152.741 55.5896 152.976C55.1843 153.2 54.8536 153.536 54.5976 153.984C54.3523 154.421 54.2296 154.944 54.2296 155.552C54.2296 156.16 54.3523 156.693 54.5976 157.152C54.8536 157.611 55.1843 157.963 55.5896 158.208C56.0056 158.443 56.443 158.56 56.9016 158.56C57.371 158.56 57.8083 158.443 58.2136 158.208C58.619 157.973 58.9443 157.632 59.1896 157.184C59.4456 156.725 59.5736 156.192 59.5736 155.584ZM75.7416 152.192C75.7416 152.757 75.6083 153.291 75.3416 153.792C75.075 154.293 74.6483 154.704 74.0616 155.024C73.475 155.333 72.723 155.488 71.8056 155.488H69.7896V160H67.9656V148.88H71.8056C72.659 148.88 73.379 149.029 73.9656 149.328C74.563 149.616 75.0056 150.011 75.2936 150.512C75.5923 151.013 75.7416 151.573 75.7416 152.192ZM71.8056 154C72.499 154 73.0163 153.845 73.3576 153.536C73.699 153.216 73.8696 152.768 73.8696 152.192C73.8696 150.976 73.1816 150.368 71.8056 150.368H69.7896V154H71.8056ZM76.8733 155.552C76.8733 154.667 77.0546 153.883 77.4173 153.2C77.7906 152.517 78.2919 151.989 78.9213 151.616C79.5613 151.232 80.2653 151.04 81.0333 151.04C81.7266 151.04 82.3293 151.179 82.8413 151.456C83.3639 151.723 83.7799 152.059 84.0893 152.464V151.184H85.9293V160H84.0893V158.688C83.7799 159.104 83.3586 159.451 82.8253 159.728C82.2919 160.005 81.6839 160.144 81.0013 160.144C80.2439 160.144 79.5506 159.952 78.9213 159.568C78.2919 159.173 77.7906 158.629 77.4173 157.936C77.0546 157.232 76.8733 156.437 76.8733 155.552ZM84.0893 155.584C84.0893 154.976 83.9613 154.448 83.7053 154C83.4599 153.552 83.1346 153.211 82.7293 152.976C82.3239 152.741 81.8866 152.624 81.4173 152.624C80.9479 152.624 80.5106 152.741 80.1053 152.976C79.6999 153.2 79.3693 153.536 79.1133 153.984C78.8679 154.421 78.7453 154.944 78.7453 155.552C78.7453 156.16 78.8679 156.693 79.1133 157.152C79.3693 157.611 79.6999 157.963 80.1053 158.208C80.5213 158.443 80.9586 158.56 81.4173 158.56C81.8866 158.56 82.3239 158.443 82.7293 158.208C83.1346 157.973 83.4599 157.632 83.7053 157.184C83.9613 156.725 84.0893 156.192 84.0893 155.584ZM91.525 160.144C90.8317 160.144 90.2077 160.021 89.653 159.776C89.109 159.52 88.677 159.179 88.357 158.752C88.037 158.315 87.8663 157.829 87.845 157.296H89.733C89.765 157.669 89.941 157.984 90.261 158.24C90.5917 158.485 91.0023 158.608 91.493 158.608C92.005 158.608 92.3997 158.512 92.677 158.32C92.965 158.117 93.109 157.861 93.109 157.552C93.109 157.221 92.949 156.976 92.629 156.816C92.3197 156.656 91.8237 156.48 91.141 156.288C90.4797 156.107 89.941 155.931 89.525 155.76C89.109 155.589 88.7463 155.328 88.437 154.976C88.1383 154.624 87.989 154.16 87.989 153.584C87.989 153.115 88.1277 152.688 88.405 152.304C88.6823 151.909 89.077 151.6 89.589 151.376C90.1117 151.152 90.709 151.04 91.381 151.04C92.3837 151.04 93.189 151.296 93.797 151.808C94.4157 152.309 94.7463 152.997 94.789 153.872H92.965C92.933 153.477 92.773 153.163 92.485 152.928C92.197 152.693 91.8077 152.576 91.317 152.576C90.837 152.576 90.469 152.667 90.213 152.848C89.957 153.029 89.829 153.269 89.829 153.568C89.829 153.803 89.9143 154 90.085 154.16C90.2557 154.32 90.4637 154.448 90.709 154.544C90.9543 154.629 91.317 154.741 91.797 154.88C92.437 155.051 92.9597 155.227 93.365 155.408C93.781 155.579 94.1383 155.835 94.437 156.176C94.7357 156.517 94.8903 156.971 94.901 157.536C94.901 158.037 94.7623 158.485 94.485 158.88C94.2077 159.275 93.813 159.584 93.301 159.808C92.7997 160.032 92.2077 160.144 91.525 160.144ZM100.072 160.144C99.3785 160.144 98.7545 160.021 98.1999 159.776C97.6559 159.52 97.2239 159.179 96.9039 158.752C96.5839 158.315 96.4132 157.829 96.3919 157.296H98.2799C98.3119 157.669 98.4879 157.984 98.8079 158.24C99.1385 158.485 99.5492 158.608 100.04 158.608C100.552 158.608 100.947 158.512 101.224 158.32C101.512 158.117 101.656 157.861 101.656 157.552C101.656 157.221 101.496 156.976 101.176 156.816C100.867 156.656 100.371 156.48 99.6879 156.288C99.0265 156.107 98.4879 155.931 98.0719 155.76C97.6559 155.589 97.2932 155.328 96.9839 154.976C96.6852 154.624 96.5359 154.16 96.5359 153.584C96.5359 153.115 96.6745 152.688 96.9519 152.304C97.2292 151.909 97.6239 151.6 98.1359 151.376C98.6585 151.152 99.2559 151.04 99.9279 151.04C100.931 151.04 101.736 151.296 102.344 151.808C102.963 152.309 103.293 152.997 103.336 153.872H101.512C101.48 153.477 101.32 153.163 101.032 152.928C100.744 152.693 100.355 152.576 99.8639 152.576C99.3839 152.576 99.0159 152.667 98.7599 152.848C98.5039 153.029 98.3759 153.269 98.3759 153.568C98.3759 153.803 98.4612 154 98.6319 154.16C98.8025 154.32 99.0105 154.448 99.2559 154.544C99.5012 154.629 99.8639 154.741 100.344 154.88C100.984 155.051 101.507 155.227 101.912 155.408C102.328 155.579 102.685 155.835 102.984 156.176C103.283 156.517 103.437 156.971 103.448 157.536C103.448 158.037 103.309 158.485 103.032 158.88C102.755 159.275 102.36 159.584 101.848 159.808C101.347 160.032 100.755 160.144 100.072 160.144ZM117.259 151.184L114.523 160H112.603L110.827 153.488L109.051 160H107.131L104.379 151.184H106.235L108.075 158.272L109.947 151.184H111.851L113.643 158.24L115.467 151.184H117.259ZM122.446 160.144C121.614 160.144 120.862 159.957 120.19 159.584C119.518 159.2 118.99 158.667 118.606 157.984C118.222 157.291 118.03 156.491 118.03 155.584C118.03 154.688 118.227 153.893 118.622 153.2C119.017 152.507 119.555 151.973 120.238 151.6C120.921 151.227 121.683 151.04 122.526 151.04C123.369 151.04 124.131 151.227 124.814 151.6C125.497 151.973 126.035 152.507 126.43 153.2C126.825 153.893 127.022 154.688 127.022 155.584C127.022 156.48 126.819 157.275 126.414 157.968C126.009 158.661 125.454 159.2 124.75 159.584C124.057 159.957 123.289 160.144 122.446 160.144ZM122.446 158.56C122.915 158.56 123.353 158.448 123.758 158.224C124.174 158 124.51 157.664 124.766 157.216C125.022 156.768 125.15 156.224 125.15 155.584C125.15 154.944 125.027 154.405 124.782 153.968C124.537 153.52 124.211 153.184 123.806 152.96C123.401 152.736 122.963 152.624 122.494 152.624C122.025 152.624 121.587 152.736 121.182 152.96C120.787 153.184 120.473 153.52 120.238 153.968C120.003 154.405 119.886 154.944 119.886 155.584C119.886 156.533 120.126 157.269 120.606 157.792C121.097 158.304 121.71 158.56 122.446 158.56ZM130.649 152.464C130.916 152.016 131.268 151.669 131.705 151.424C132.153 151.168 132.681 151.04 133.289 151.04V152.928H132.825C132.11 152.928 131.566 153.109 131.193 153.472C130.83 153.835 130.649 154.464 130.649 155.36V160H128.825V151.184H130.649V152.464ZM134.358 155.552C134.358 154.667 134.539 153.883 134.902 153.2C135.275 152.517 135.776 151.989 136.406 151.616C137.046 151.232 137.755 151.04 138.534 151.04C139.11 151.04 139.675 151.168 140.23 151.424C140.795 151.669 141.243 152 141.574 152.416V148.16H143.414V160H141.574V158.672C141.275 159.099 140.859 159.451 140.326 159.728C139.803 160.005 139.2 160.144 138.518 160.144C137.75 160.144 137.046 159.952 136.406 159.568C135.776 159.173 135.275 158.629 134.902 157.936C134.539 157.232 134.358 156.437 134.358 155.552ZM141.574 155.584C141.574 154.976 141.446 154.448 141.19 154C140.944 153.552 140.619 153.211 140.214 152.976C139.808 152.741 139.371 152.624 138.902 152.624C138.432 152.624 137.995 152.741 137.59 152.976C137.184 153.2 136.854 153.536 136.598 153.984C136.352 154.421 136.23 154.944 136.23 155.552C136.23 156.16 136.352 156.693 136.598 157.152C136.854 157.611 137.184 157.963 137.59 158.208C138.006 158.443 138.443 158.56 138.902 158.56C139.371 158.56 139.808 158.443 140.214 158.208C140.619 157.973 140.944 157.632 141.19 157.184C141.446 156.725 141.574 156.192 141.574 155.584Z" fill="#D0D0D0"/>
<g opacity="0.9">
<path d="M344.01 155L343.562 154.777L343.452 155L343.562 155.223L344.01 155ZM345.162 153.268L345.54 153.595L345.162 153.268ZM345.334 153.069L344.955 152.742L345.334 153.069ZM359.666 153.069L359.288 153.395H359.288L359.666 153.069ZM359.838 153.268L360.217 152.942L360.217 152.942L359.838 153.268ZM360.99 155L361.437 155.223L361.548 155L361.437 154.777L360.99 155ZM359.838 156.732L360.217 157.058L360.217 157.058L359.838 156.732ZM359.666 156.931L359.287 156.605H359.287L359.666 156.931ZM352.965 160L352.965 160.5L352.965 160ZM352.034 160L352.034 159.5L352.034 160ZM345.334 156.931L345.712 156.605L345.334 156.931ZM345.162 156.732L345.54 156.405L345.162 156.732ZM344.458 155.223C344.746 154.644 345.108 154.096 345.54 153.595L344.783 152.942C344.296 153.507 343.888 154.124 343.562 154.777L344.458 155.223ZM345.54 153.595L345.712 153.395L344.955 152.742L344.783 152.942L345.54 153.595ZM345.712 153.395C347.299 151.557 349.606 150.5 352.034 150.5L352.034 149.5C349.316 149.5 346.731 150.684 344.955 152.742L345.712 153.395ZM352.034 150.5L352.966 150.5L352.966 149.5L352.034 149.5L352.034 150.5ZM352.966 150.5C355.394 150.5 357.701 151.557 359.288 153.395L360.045 152.742C358.269 150.684 355.684 149.5 352.966 149.5L352.966 150.5ZM359.288 153.395L359.46 153.595L360.217 152.942L360.045 152.742L359.288 153.395ZM359.46 153.595C359.892 154.096 360.254 154.643 360.542 155.223L361.437 154.777C361.112 154.124 360.704 153.506 360.217 152.942L359.46 153.595ZM360.217 157.058C360.704 156.493 361.112 155.876 361.437 155.223L360.542 154.777C360.254 155.356 359.892 155.904 359.459 156.405L360.217 157.058ZM360.044 157.258L360.217 157.058L359.459 156.405L359.287 156.605L360.044 157.258ZM352.965 160.5C355.684 160.5 358.268 159.316 360.044 157.258L359.287 156.605C357.701 158.443 355.393 159.5 352.965 159.5L352.965 160.5ZM352.034 160.5L352.965 160.5L352.965 159.5L352.034 159.5L352.034 160.5ZM344.955 157.258C346.731 159.316 349.315 160.5 352.034 160.5L352.034 159.5C349.606 159.5 347.298 158.443 345.712 156.605L344.955 157.258ZM344.783 157.058L344.955 157.258L345.712 156.605L345.54 156.405L344.783 157.058ZM343.562 155.223C343.887 155.876 344.296 156.494 344.783 157.058L345.54 156.405C345.108 155.904 344.746 155.357 344.458 154.777L343.562 155.223Z" fill="#414141"/>
<path d="M353.744 152.514C352.947 152.185 352.053 152.185 351.256 152.514L350.911 152.656C350.188 152.954 349.646 153.573 349.444 154.329V154.329C349.222 155.162 349.444 156.051 350.032 156.682L350.147 156.806C350.679 157.378 351.425 157.703 352.207 157.703L352.793 157.703C353.575 157.703 354.321 157.378 354.853 156.806L354.968 156.682C355.556 156.051 355.778 155.162 355.556 154.329V154.329C355.354 153.573 354.812 152.954 354.089 152.656L353.744 152.514Z" stroke="#414141"/>
<path d="M360 148L346 162" stroke="#414141" stroke-linecap="round" stroke-linejoin="round"/>
</g>
<rect x="15.5" y="200.5" width="361" height="59" rx="7.5" stroke="#B8B8B8"/>
<path d="M45.336 236H43.512L38.024 227.696V236H36.2V224.864H38.024L43.512 233.152V224.864H45.336V236ZM55.8113 231.376C55.8113 231.707 55.7899 232.005 55.7473 232.272H49.0113C49.0646 232.976 49.3259 233.541 49.7953 233.968C50.2646 234.395 50.8406 234.608 51.5233 234.608C52.5046 234.608 53.1979 234.197 53.6033 233.376H55.5712C55.3046 234.187 54.8193 234.853 54.1153 235.376C53.4219 235.888 52.5579 236.144 51.5233 236.144C50.6806 236.144 49.9233 235.957 49.2513 235.584C48.5899 235.2 48.0673 234.667 47.6833 233.984C47.3099 233.291 47.1233 232.491 47.1233 231.584C47.1233 230.677 47.3046 229.883 47.6673 229.2C48.0406 228.507 48.5579 227.973 49.2193 227.6C49.8913 227.227 50.6593 227.04 51.5233 227.04C52.3553 227.04 53.0966 227.221 53.7473 227.584C54.3979 227.947 54.9046 228.459 55.2673 229.12C55.6299 229.771 55.8113 230.523 55.8113 231.376ZM53.9073 230.8C53.8966 230.128 53.6566 229.589 53.1873 229.184C52.7179 228.779 52.1366 228.576 51.4433 228.576C50.8139 228.576 50.2753 228.779 49.8273 229.184C49.3793 229.579 49.1126 230.117 49.0273 230.8H53.9073ZM69.4463 227.184L66.7103 236H64.7903L63.0143 229.488L61.2383 236H59.3183L56.5663 227.184H58.4223L60.2623 234.272L62.1343 227.184H64.0383L65.8303 234.24L67.6543 227.184H69.4463ZM82.7416 228.192C82.7416 228.757 82.6083 229.291 82.3416 229.792C82.075 230.293 81.6483 230.704 81.0616 231.024C80.475 231.333 79.723 231.488 78.8056 231.488H76.7896V236H74.9656V224.88H78.8056C79.659 224.88 80.379 225.029 80.9656 225.328C81.563 225.616 82.0056 226.011 82.2936 226.512C82.5923 227.013 82.7416 227.573 82.7416 228.192ZM78.8056 230C79.499 230 80.0163 229.845 80.3576 229.536C80.699 229.216 80.8696 228.768 80.8696 228.192C80.8696 226.976 80.1816 226.368 78.8056 226.368H76.7896V230H78.8056ZM83.8733 231.552C83.8733 230.667 84.0546 229.883 84.4173 229.2C84.7906 228.517 85.2919 227.989 85.9213 227.616C86.5613 227.232 87.2653 227.04 88.0333 227.04C88.7266 227.04 89.3293 227.179 89.8413 227.456C90.3639 227.723 90.7799 228.059 91.0893 228.464V227.184H92.9293V236H91.0893V234.688C90.7799 235.104 90.3586 235.451 89.8253 235.728C89.2919 236.005 88.6839 236.144 88.0013 236.144C87.2439 236.144 86.5506 235.952 85.9213 235.568C85.2919 235.173 84.7906 234.629 84.4173 233.936C84.0546 233.232 83.8733 232.437 83.8733 231.552ZM91.0893 231.584C91.0893 230.976 90.9613 230.448 90.7053 230C90.4599 229.552 90.1346 229.211 89.7293 228.976C89.3239 228.741 88.8866 228.624 88.4173 228.624C87.9479 228.624 87.5106 228.741 87.1053 228.976C86.6999 229.2 86.3693 229.536 86.1133 229.984C85.8679 230.421 85.7453 230.944 85.7453 231.552C85.7453 232.16 85.8679 232.693 86.1133 233.152C86.3693 233.611 86.6999 233.963 87.1053 234.208C87.5213 234.443 87.9586 234.56 88.4173 234.56C88.8866 234.56 89.3239 234.443 89.7293 234.208C90.1346 233.973 90.4599 233.632 90.7053 233.184C90.9613 232.725 91.0893 232.192 91.0893 231.584ZM98.525 236.144C97.8317 236.144 97.2077 236.021 96.653 235.776C96.109 235.52 95.677 235.179 95.357 234.752C95.037 234.315 94.8663 233.829 94.845 233.296H96.733C96.765 233.669 96.941 233.984 97.261 234.24C97.5917 234.485 98.0023 234.608 98.493 234.608C99.005 234.608 99.3997 234.512 99.677 234.32C99.965 234.117 100.109 233.861 100.109 233.552C100.109 233.221 99.949 232.976 99.629 232.816C99.3197 232.656 98.8237 232.48 98.141 232.288C97.4797 232.107 96.941 231.931 96.525 231.76C96.109 231.589 95.7463 231.328 95.437 230.976C95.1383 230.624 94.989 230.16 94.989 229.584C94.989 229.115 95.1277 228.688 95.405 228.304C95.6823 227.909 96.077 227.6 96.589 227.376C97.1117 227.152 97.709 227.04 98.381 227.04C99.3837 227.04 100.189 227.296 100.797 227.808C101.416 228.309 101.746 228.997 101.789 229.872H99.965C99.933 229.477 99.773 229.163 99.485 228.928C99.197 228.693 98.8077 228.576 98.317 228.576C97.837 228.576 97.469 228.667 97.213 228.848C96.957 229.029 96.829 229.269 96.829 229.568C96.829 229.803 96.9143 230 97.085 230.16C97.2557 230.32 97.4637 230.448 97.709 230.544C97.9543 230.629 98.317 230.741 98.797 230.88C99.437 231.051 99.9597 231.227 100.365 231.408C100.781 231.579 101.138 231.835 101.437 232.176C101.736 232.517 101.89 232.971 101.901 233.536C101.901 234.037 101.762 234.485 101.485 234.88C101.208 235.275 100.813 235.584 100.301 235.808C99.7997 236.032 99.2077 236.144 98.525 236.144ZM107.072 236.144C106.379 236.144 105.755 236.021 105.2 235.776C104.656 235.52 104.224 235.179 103.904 234.752C103.584 234.315 103.413 233.829 103.392 233.296H105.28C105.312 233.669 105.488 233.984 105.808 234.24C106.139 234.485 106.549 234.608 107.04 234.608C107.552 234.608 107.947 234.512 108.224 234.32C108.512 234.117 108.656 233.861 108.656 233.552C108.656 233.221 108.496 232.976 108.176 232.816C107.867 232.656 107.371 232.48 106.688 232.288C106.027 232.107 105.488 231.931 105.072 231.76C104.656 231.589 104.293 231.328 103.984 230.976C103.685 230.624 103.536 230.16 103.536 229.584C103.536 229.115 103.675 228.688 103.952 228.304C104.229 227.909 104.624 227.6 105.136 227.376C105.659 227.152 106.256 227.04 106.928 227.04C107.931 227.04 108.736 227.296 109.344 227.808C109.963 228.309 110.293 228.997 110.336 229.872H108.512C108.48 229.477 108.32 229.163 108.032 228.928C107.744 228.693 107.355 228.576 106.864 228.576C106.384 228.576 106.016 228.667 105.76 228.848C105.504 229.029 105.376 229.269 105.376 229.568C105.376 229.803 105.461 230 105.632 230.16C105.803 230.32 106.011 230.448 106.256 230.544C106.501 230.629 106.864 230.741 107.344 230.88C107.984 231.051 108.507 231.227 108.912 231.408C109.328 231.579 109.685 231.835 109.984 232.176C110.283 232.517 110.437 232.971 110.448 233.536C110.448 234.037 110.309 234.485 110.032 234.88C109.755 235.275 109.36 235.584 108.848 235.808C108.347 236.032 107.755 236.144 107.072 236.144ZM124.259 227.184L121.523 236H119.603L117.827 229.488L116.051 236H114.131L111.379 227.184H113.235L115.075 234.272L116.947 227.184H118.851L120.643 234.24L122.467 227.184H124.259ZM129.446 236.144C128.614 236.144 127.862 235.957 127.19 235.584C126.518 235.2 125.99 234.667 125.606 233.984C125.222 233.291 125.03 232.491 125.03 231.584C125.03 230.688 125.227 229.893 125.622 229.2C126.017 228.507 126.555 227.973 127.238 227.6C127.921 227.227 128.683 227.04 129.526 227.04C130.369 227.04 131.131 227.227 131.814 227.6C132.497 227.973 133.035 228.507 133.43 229.2C133.825 229.893 134.022 230.688 134.022 231.584C134.022 232.48 133.819 233.275 133.414 233.968C133.009 234.661 132.454 235.2 131.75 235.584C131.057 235.957 130.289 236.144 129.446 236.144ZM129.446 234.56C129.915 234.56 130.353 234.448 130.758 234.224C131.174 234 131.51 233.664 131.766 233.216C132.022 232.768 132.15 232.224 132.15 231.584C132.15 230.944 132.027 230.405 131.782 229.968C131.537 229.52 131.211 229.184 130.806 228.96C130.401 228.736 129.963 228.624 129.494 228.624C129.025 228.624 128.587 228.736 128.182 228.96C127.787 229.184 127.473 229.52 127.238 229.968C127.003 230.405 126.886 230.944 126.886 231.584C126.886 232.533 127.126 233.269 127.606 233.792C128.097 234.304 128.71 234.56 129.446 234.56ZM137.649 228.464C137.916 228.016 138.268 227.669 138.705 227.424C139.153 227.168 139.681 227.04 140.289 227.04V228.928H139.825C139.11 228.928 138.566 229.109 138.193 229.472C137.83 229.835 137.649 230.464 137.649 231.36V236H135.825V227.184H137.649V228.464ZM141.358 231.552C141.358 230.667 141.539 229.883 141.902 229.2C142.275 228.517 142.776 227.989 143.406 227.616C144.046 227.232 144.755 227.04 145.534 227.04C146.11 227.04 146.675 227.168 147.23 227.424C147.795 227.669 148.243 228 148.574 228.416V224.16H150.414V236H148.574V234.672C148.275 235.099 147.859 235.451 147.326 235.728C146.803 236.005 146.2 236.144 145.518 236.144C144.75 236.144 144.046 235.952 143.406 235.568C142.776 235.173 142.275 234.629 141.902 233.936C141.539 233.232 141.358 232.437 141.358 231.552ZM148.574 231.584C148.574 230.976 148.446 230.448 148.19 230C147.944 229.552 147.619 229.211 147.214 228.976C146.808 228.741 146.371 228.624 145.902 228.624C145.432 228.624 144.995 228.741 144.59 228.976C144.184 229.2 143.854 229.536 143.598 229.984C143.352 230.421 143.23 230.944 143.23 231.552C143.23 232.16 143.352 232.693 143.598 233.152C143.854 233.611 144.184 233.963 144.59 234.208C145.006 234.443 145.443 234.56 145.902 234.56C146.371 234.56 146.808 234.443 147.214 234.208C147.619 233.973 147.944 233.632 148.19 233.184C148.446 232.725 148.574 232.192 148.574 231.584Z" fill="#D0D0D0"/>
<g opacity="0.9">
<path d="M344.01 231L343.562 230.777L343.452 231L343.562 231.223L344.01 231ZM345.162 229.268L345.54 229.595L345.162 229.268ZM345.334 229.069L344.955 228.742L345.334 229.069ZM359.666 229.069L359.288 229.395H359.288L359.666 229.069ZM359.838 229.268L360.217 228.942L360.217 228.942L359.838 229.268ZM360.99 231L361.437 231.223L361.548 231L361.437 230.777L360.99 231ZM359.838 232.732L360.217 233.058L360.217 233.058L359.838 232.732ZM359.666 232.931L359.287 232.605H359.287L359.666 232.931ZM352.965 236L352.965 236.5L352.965 236ZM352.034 236L352.034 235.5L352.034 236ZM345.334 232.931L345.712 232.605L345.334 232.931ZM345.162 232.732L345.54 232.405L345.162 232.732ZM344.458 231.223C344.746 230.644 345.108 230.096 345.54 229.595L344.783 228.942C344.296 229.507 343.888 230.124 343.562 230.777L344.458 231.223ZM345.54 229.595L345.712 229.395L344.955 228.742L344.783 228.942L345.54 229.595ZM345.712 229.395C347.299 227.557 349.606 226.5 352.034 226.5L352.034 225.5C349.316 225.5 346.731 226.684 344.955 228.742L345.712 229.395ZM352.034 226.5L352.966 226.5L352.966 225.5L352.034 225.5L352.034 226.5ZM352.966 226.5C355.394 226.5 357.701 227.557 359.288 229.395L360.045 228.742C358.269 226.684 355.684 225.5 352.966 225.5L352.966 226.5ZM359.288 229.395L359.46 229.595L360.217 228.942L360.045 228.742L359.288 229.395ZM359.46 229.595C359.892 230.096 360.254 230.643 360.542 231.223L361.437 230.777C361.112 230.124 360.704 229.506 360.217 228.942L359.46 229.595ZM360.217 233.058C360.704 232.493 361.112 231.876 361.437 231.223L360.542 230.777C360.254 231.356 359.892 231.904 359.459 232.405L360.217 233.058ZM360.044 233.258L360.217 233.058L359.459 232.405L359.287 232.605L360.044 233.258ZM352.965 236.5C355.684 236.5 358.268 235.316 360.044 233.258L359.287 232.605C357.701 234.443 355.393 235.5 352.965 235.5L352.965 236.5ZM352.034 236.5L352.965 236.5L352.965 235.5L352.034 235.5L352.034 236.5ZM344.955 233.258C346.731 235.316 349.315 236.5 352.034 236.5L352.034 235.5C349.606 235.5 347.298 234.443 345.712 232.605L344.955 233.258ZM344.783 233.058L344.955 233.258L345.712 232.605L345.54 232.405L344.783 233.058ZM343.562 231.223C343.887 231.876 344.296 232.494 344.783 233.058L345.54 232.405C345.108 231.904 344.746 231.357 344.458 230.777L343.562 231.223Z" fill="#414141"/>
<path d="M353.744 228.514C352.947 228.185 352.053 228.185 351.256 228.514L350.911 228.656C350.188 228.954 349.646 229.573 349.444 230.329V230.329C349.222 231.162 349.444 232.051 350.032 232.682L350.147 232.806C350.679 233.378 351.425 233.703 352.207 233.703L352.793 233.703C353.575 233.703 354.321 233.378 354.853 232.806L354.968 232.682C355.556 232.051 355.778 231.162 355.556 230.329V230.329C355.354 229.573 354.812 228.954 354.089 228.656L353.744 228.514Z" stroke="#414141"/>
<path d="M360 224L346 238" stroke="#414141" stroke-linecap="round" stroke-linejoin="round"/>
</g>
<rect x="15.5" y="276.5" width="361" height="59" rx="7.5" stroke="#B8B8B8"/>
<path d="M35.592 306.416C35.592 305.328 35.8427 304.352 36.344 303.488C36.856 302.624 37.544 301.952 38.408 301.472C39.2827 300.981 40.2373 300.736 41.272 300.736C42.456 300.736 43.5067 301.029 44.424 301.616C45.352 302.192 46.024 303.013 46.44 304.08H44.248C43.96 303.493 43.56 303.056 43.048 302.768C42.536 302.48 41.944 302.336 41.272 302.336C40.536 302.336 39.88 302.501 39.304 302.832C38.728 303.163 38.2747 303.637 37.944 304.256C37.624 304.875 37.464 305.595 37.464 306.416C37.464 307.237 37.624 307.957 37.944 308.576C38.2747 309.195 38.728 309.675 39.304 310.016C39.88 310.347 40.536 310.512 41.272 310.512C41.944 310.512 42.536 310.368 43.048 310.08C43.56 309.792 43.96 309.355 44.248 308.768H46.44C46.024 309.835 45.352 310.656 44.424 311.232C43.5067 311.808 42.456 312.096 41.272 312.096C40.2267 312.096 39.272 311.856 38.408 311.376C37.544 310.885 36.856 310.208 36.344 309.344C35.8427 308.48 35.592 307.504 35.592 306.416ZM52.399 312.144C51.567 312.144 50.815 311.957 50.143 311.584C49.471 311.2 48.943 310.667 48.559 309.984C48.175 309.291 47.983 308.491 47.983 307.584C47.983 306.688 48.1803 305.893 48.575 305.2C48.9697 304.507 49.5083 303.973 50.191 303.6C50.8737 303.227 51.6363 303.04 52.479 303.04C53.3217 303.04 54.0843 303.227 54.767 303.6C55.4497 303.973 55.9883 304.507 56.383 305.2C56.7777 305.893 56.975 306.688 56.975 307.584C56.975 308.48 56.7723 309.275 56.367 309.968C55.9617 310.661 55.407 311.2 54.703 311.584C54.0097 311.957 53.2417 312.144 52.399 312.144ZM52.399 310.56C52.8683 310.56 53.3057 310.448 53.711 310.224C54.127 310 54.463 309.664 54.719 309.216C54.975 308.768 55.103 308.224 55.103 307.584C55.103 306.944 54.9803 306.405 54.735 305.968C54.4897 305.52 54.1643 305.184 53.759 304.96C53.3537 304.736 52.9163 304.624 52.447 304.624C51.9777 304.624 51.5403 304.736 51.135 304.96C50.7403 305.184 50.4257 305.52 50.191 305.968C49.9563 306.405 49.839 306.944 49.839 307.584C49.839 308.533 50.079 309.269 50.559 309.792C51.0497 310.304 51.663 310.56 52.399 310.56ZM63.2261 303.04C63.9195 303.04 64.5381 303.184 65.0821 303.472C65.6368 303.76 66.0688 304.187 66.3781 304.752C66.6875 305.317 66.8421 306 66.8421 306.8V312H65.0341V307.072C65.0341 306.283 64.8368 305.68 64.4421 305.264C64.0475 304.837 63.5088 304.624 62.8261 304.624C62.1435 304.624 61.5995 304.837 61.1941 305.264C60.7995 305.68 60.6021 306.283 60.6021 307.072V312H58.7781V303.184H60.6021V304.192C60.9008 303.829 61.2795 303.547 61.7381 303.344C62.2075 303.141 62.7035 303.04 63.2261 303.04ZM72.8648 304.672H71.2328V312H69.3928V304.672H68.3528V303.184H69.3928V302.56C69.3928 301.547 69.6594 300.811 70.1928 300.352C70.7368 299.883 71.5848 299.648 72.7368 299.648V301.168C72.1821 301.168 71.7928 301.275 71.5688 301.488C71.3448 301.691 71.2328 302.048 71.2328 302.56V303.184H72.8648V304.672ZM75.4093 302.016C75.0786 302.016 74.8013 301.904 74.5773 301.68C74.3533 301.456 74.2413 301.179 74.2413 300.848C74.2413 300.517 74.3533 300.24 74.5773 300.016C74.8013 299.792 75.0786 299.68 75.4093 299.68C75.7293 299.68 76.0013 299.792 76.2253 300.016C76.4493 300.24 76.5613 300.517 76.5613 300.848C76.5613 301.179 76.4493 301.456 76.2253 301.68C76.0013 301.904 75.7293 302.016 75.4093 302.016ZM76.3053 303.184V312H74.4813V303.184H76.3053ZM80.524 304.464C80.7907 304.016 81.1427 303.669 81.58 303.424C82.028 303.168 82.556 303.04 83.164 303.04V304.928H82.7C81.9853 304.928 81.4413 305.109 81.068 305.472C80.7053 305.835 80.524 306.464 80.524 307.36V312H78.7V303.184H80.524V304.464ZM95.5126 303.04C96.206 303.04 96.8246 303.184 97.3686 303.472C97.9233 303.76 98.3553 304.187 98.6646 304.752C98.9846 305.317 99.1446 306 99.1446 306.8V312H97.3366V307.072C97.3366 306.283 97.1393 305.68 96.7446 305.264C96.35 304.837 95.8113 304.624 95.1286 304.624C94.446 304.624 93.902 304.837 93.4966 305.264C93.102 305.68 92.9046 306.283 92.9046 307.072V312H91.0966V307.072C91.0966 306.283 90.8993 305.68 90.5046 305.264C90.11 304.837 89.5713 304.624 88.8886 304.624C88.206 304.624 87.662 304.837 87.2566 305.264C86.862 305.68 86.6646 306.283 86.6646 307.072V312H84.8406V303.184H86.6646V304.192C86.9633 303.829 87.342 303.547 87.8006 303.344C88.2593 303.141 88.75 303.04 89.2726 303.04C89.9766 303.04 90.606 303.189 91.1606 303.488C91.7153 303.787 92.142 304.219 92.4406 304.784C92.7073 304.251 93.1233 303.829 93.6886 303.52C94.254 303.2 94.862 303.04 95.5126 303.04ZM113.398 304.192C113.398 304.757 113.265 305.291 112.998 305.792C112.731 306.293 112.305 306.704 111.718 307.024C111.131 307.333 110.379 307.488 109.462 307.488H107.446V312H105.622V300.88H109.462C110.315 300.88 111.035 301.029 111.622 301.328C112.219 301.616 112.662 302.011 112.95 302.512C113.249 303.013 113.398 303.573 113.398 304.192ZM109.462 306C110.155 306 110.673 305.845 111.014 305.536C111.355 305.216 111.526 304.768 111.526 304.192C111.526 302.976 110.838 302.368 109.462 302.368H107.446V306H109.462ZM114.53 307.552C114.53 306.667 114.711 305.883 115.074 305.2C115.447 304.517 115.948 303.989 116.578 303.616C117.218 303.232 117.922 303.04 118.69 303.04C119.383 303.04 119.986 303.179 120.498 303.456C121.02 303.723 121.436 304.059 121.746 304.464V303.184H123.586V312H121.746V310.688C121.436 311.104 121.015 311.451 120.482 311.728C119.948 312.005 119.34 312.144 118.658 312.144C117.9 312.144 117.207 311.952 116.578 311.568C115.948 311.173 115.447 310.629 115.074 309.936C114.711 309.232 114.53 308.437 114.53 307.552ZM121.746 307.584C121.746 306.976 121.618 306.448 121.362 306C121.116 305.552 120.791 305.211 120.386 304.976C119.98 304.741 119.543 304.624 119.074 304.624C118.604 304.624 118.167 304.741 117.762 304.976C117.356 305.2 117.026 305.536 116.77 305.984C116.524 306.421 116.402 306.944 116.402 307.552C116.402 308.16 116.524 308.693 116.77 309.152C117.026 309.611 117.356 309.963 117.762 310.208C118.178 310.443 118.615 310.56 119.074 310.56C119.543 310.56 119.98 310.443 120.386 310.208C120.791 309.973 121.116 309.632 121.362 309.184C121.618 308.725 121.746 308.192 121.746 307.584ZM129.181 312.144C128.488 312.144 127.864 312.021 127.309 311.776C126.765 311.52 126.333 311.179 126.013 310.752C125.693 310.315 125.523 309.829 125.501 309.296H127.389C127.421 309.669 127.597 309.984 127.917 310.24C128.248 310.485 128.659 310.608 129.149 310.608C129.661 310.608 130.056 310.512 130.333 310.32C130.621 310.117 130.765 309.861 130.765 309.552C130.765 309.221 130.605 308.976 130.285 308.816C129.976 308.656 129.48 308.48 128.797 308.288C128.136 308.107 127.597 307.931 127.181 307.76C126.765 307.589 126.403 307.328 126.093 306.976C125.795 306.624 125.645 306.16 125.645 305.584C125.645 305.115 125.784 304.688 126.061 304.304C126.339 303.909 126.733 303.6 127.245 303.376C127.768 303.152 128.365 303.04 129.037 303.04C130.04 303.04 130.845 303.296 131.453 303.808C132.072 304.309 132.403 304.997 132.445 305.872H130.621C130.589 305.477 130.429 305.163 130.141 304.928C129.853 304.693 129.464 304.576 128.973 304.576C128.493 304.576 128.125 304.667 127.869 304.848C127.613 305.029 127.485 305.269 127.485 305.568C127.485 305.803 127.571 306 127.741 306.16C127.912 306.32 128.12 306.448 128.365 306.544C128.611 306.629 128.973 306.741 129.453 306.88C130.093 307.051 130.616 307.227 131.021 307.408C131.437 307.579 131.795 307.835 132.093 308.176C132.392 308.517 132.547 308.971 132.557 309.536C132.557 310.037 132.419 310.485 132.141 310.88C131.864 311.275 131.469 311.584 130.957 311.808C130.456 312.032 129.864 312.144 129.181 312.144ZM137.728 312.144C137.035 312.144 136.411 312.021 135.856 311.776C135.312 311.52 134.88 311.179 134.56 310.752C134.24 310.315 134.069 309.829 134.048 309.296H135.936C135.968 309.669 136.144 309.984 136.464 310.24C136.795 310.485 137.205 310.608 137.696 310.608C138.208 310.608 138.603 310.512 138.88 310.32C139.168 310.117 139.312 309.861 139.312 309.552C139.312 309.221 139.152 308.976 138.832 308.816C138.523 308.656 138.027 308.48 137.344 308.288C136.683 308.107 136.144 307.931 135.728 307.76C135.312 307.589 134.949 307.328 134.64 306.976C134.341 306.624 134.192 306.16 134.192 305.584C134.192 305.115 134.331 304.688 134.608 304.304C134.885 303.909 135.28 303.6 135.792 303.376C136.315 303.152 136.912 303.04 137.584 303.04C138.587 303.04 139.392 303.296 140 303.808C140.619 304.309 140.949 304.997 140.992 305.872H139.168C139.136 305.477 138.976 305.163 138.688 304.928C138.4 304.693 138.011 304.576 137.52 304.576C137.04 304.576 136.672 304.667 136.416 304.848C136.16 305.029 136.032 305.269 136.032 305.568C136.032 305.803 136.117 306 136.288 306.16C136.459 306.32 136.667 306.448 136.912 306.544C137.157 306.629 137.52 306.741 138 306.88C138.64 307.051 139.163 307.227 139.568 307.408C139.984 307.579 140.341 307.835 140.64 308.176C140.939 308.517 141.093 308.971 141.104 309.536C141.104 310.037 140.965 310.485 140.688 310.88C140.411 311.275 140.016 311.584 139.504 311.808C139.003 312.032 138.411 312.144 137.728 312.144ZM154.915 303.184L152.179 312H150.259L148.483 305.488L146.707 312H144.787L142.035 303.184H143.891L145.731 310.272L147.603 303.184H149.507L151.299 310.24L153.123 303.184H154.915ZM160.102 312.144C159.27 312.144 158.518 311.957 157.846 311.584C157.174 311.2 156.646 310.667 156.262 309.984C155.878 309.291 155.686 308.491 155.686 307.584C155.686 306.688 155.883 305.893 156.278 305.2C156.673 304.507 157.211 303.973 157.894 303.6C158.577 303.227 159.339 303.04 160.182 303.04C161.025 303.04 161.787 303.227 162.47 303.6C163.153 303.973 163.691 304.507 164.086 305.2C164.481 305.893 164.678 306.688 164.678 307.584C164.678 308.48 164.475 309.275 164.07 309.968C163.665 310.661 163.11 311.2 162.406 311.584C161.713 311.957 160.945 312.144 160.102 312.144ZM160.102 310.56C160.571 310.56 161.009 310.448 161.414 310.224C161.83 310 162.166 309.664 162.422 309.216C162.678 308.768 162.806 308.224 162.806 307.584C162.806 306.944 162.683 306.405 162.438 305.968C162.193 305.52 161.867 305.184 161.462 304.96C161.057 304.736 160.619 304.624 160.15 304.624C159.681 304.624 159.243 304.736 158.838 304.96C158.443 305.184 158.129 305.52 157.894 305.968C157.659 306.405 157.542 306.944 157.542 307.584C157.542 308.533 157.782 309.269 158.262 309.792C158.753 310.304 159.366 310.56 160.102 310.56ZM168.305 304.464C168.572 304.016 168.924 303.669 169.361 303.424C169.809 303.168 170.337 303.04 170.945 303.04V304.928H170.481C169.767 304.928 169.223 305.109 168.849 305.472C168.487 305.835 168.305 306.464 168.305 307.36V312H166.481V303.184H168.305V304.464ZM172.014 307.552C172.014 306.667 172.195 305.883 172.558 305.2C172.931 304.517 173.433 303.989 174.062 303.616C174.702 303.232 175.411 303.04 176.19 303.04C176.766 303.04 177.331 303.168 177.886 303.424C178.451 303.669 178.899 304 179.23 304.416V300.16H181.07V312H179.23V310.672C178.931 311.099 178.515 311.451 177.982 311.728C177.459 312.005 176.857 312.144 176.174 312.144C175.406 312.144 174.702 311.952 174.062 311.568C173.433 311.173 172.931 310.629 172.558 309.936C172.195 309.232 172.014 308.437 172.014 307.552ZM179.23 307.584C179.23 306.976 179.102 306.448 178.846 306C178.601 305.552 178.275 305.211 177.87 304.976C177.465 304.741 177.027 304.624 176.558 304.624C176.089 304.624 175.651 304.741 175.246 304.976C174.841 305.2 174.51 305.536 174.254 305.984C174.009 306.421 173.886 306.944 173.886 307.552C173.886 308.16 174.009 308.693 174.254 309.152C174.51 309.611 174.841 309.963 175.246 310.208C175.662 310.443 176.099 310.56 176.558 310.56C177.027 310.56 177.465 310.443 177.87 310.208C178.275 309.973 178.601 309.632 178.846 309.184C179.102 308.725 179.23 308.192 179.23 307.584Z" fill="#D0D0D0"/>
<g opacity="0.9">
<path d="M344.01 307L343.562 306.777L343.452 307L343.562 307.223L344.01 307ZM345.162 305.268L345.54 305.595L345.162 305.268ZM345.334 305.069L344.955 304.742L345.334 305.069ZM359.666 305.069L359.288 305.395H359.288L359.666 305.069ZM359.838 305.268L360.217 304.942L360.217 304.942L359.838 305.268ZM360.99 307L361.437 307.223L361.548 307L361.437 306.777L360.99 307ZM359.838 308.732L360.217 309.058H360.217L359.838 308.732ZM359.666 308.931L359.287 308.605H359.287L359.666 308.931ZM352.965 312L352.965 312.5L352.965 312ZM352.034 312L352.034 311.5L352.034 312ZM345.334 308.931L345.712 308.605L345.334 308.931ZM345.162 308.732L345.54 308.405L345.162 308.732ZM344.458 307.223C344.746 306.644 345.108 306.096 345.54 305.595L344.783 304.942C344.296 305.507 343.888 306.124 343.562 306.777L344.458 307.223ZM345.54 305.595L345.712 305.395L344.955 304.742L344.783 304.942L345.54 305.595ZM345.712 305.395C347.299 303.557 349.606 302.5 352.034 302.5L352.034 301.5C349.316 301.5 346.731 302.684 344.955 304.742L345.712 305.395ZM352.034 302.5L352.966 302.5L352.966 301.5L352.034 301.5L352.034 302.5ZM352.966 302.5C355.394 302.5 357.701 303.557 359.288 305.395L360.045 304.742C358.269 302.684 355.684 301.5 352.966 301.5L352.966 302.5ZM359.288 305.395L359.46 305.595L360.217 304.942L360.045 304.742L359.288 305.395ZM359.46 305.595C359.892 306.096 360.254 306.643 360.542 307.223L361.437 306.777C361.112 306.124 360.704 305.506 360.217 304.942L359.46 305.595ZM360.217 309.058C360.704 308.493 361.112 307.876 361.437 307.223L360.542 306.777C360.254 307.356 359.892 307.904 359.459 308.405L360.217 309.058ZM360.044 309.258L360.217 309.058L359.459 308.405L359.287 308.605L360.044 309.258ZM352.965 312.5C355.684 312.5 358.268 311.316 360.044 309.258L359.287 308.605C357.701 310.443 355.393 311.5 352.965 311.5L352.965 312.5ZM352.034 312.5L352.965 312.5L352.965 311.5L352.034 311.5L352.034 312.5ZM344.955 309.258C346.731 311.316 349.315 312.5 352.034 312.5L352.034 311.5C349.606 311.5 347.298 310.443 345.712 308.605L344.955 309.258ZM344.783 309.058L344.955 309.258L345.712 308.605L345.54 308.405L344.783 309.058ZM343.562 307.223C343.887 307.876 344.296 308.494 344.783 309.058L345.54 308.405C345.108 307.904 344.746 307.357 344.458 306.777L343.562 307.223Z" fill="#414141"/>
<path d="M353.744 304.514C352.947 304.185 352.053 304.185 351.256 304.514L350.911 304.656C350.188 304.954 349.646 305.573 349.444 306.329V306.329C349.222 307.162 349.444 308.051 350.032 308.682L350.147 308.806C350.679 309.378 351.425 309.703 352.207 309.703L352.793 309.703C353.575 309.703 354.321 309.378 354.853 308.806L354.968 308.682C355.556 308.051 355.778 307.162 355.556 306.329V306.329C355.354 305.573 354.812 304.954 354.089 304.656L353.744 304.514Z" stroke="#414141"/>
<path d="M360 300L346 314" stroke="#414141" stroke-linecap="round" stroke-linejoin="round"/>
</g>
<rect x="26" y="368" width="340" height="54" rx="8" fill="#008955"/>
<path d="M181.067 400.612C180.32 400.612 179.648 400.484 179.051 400.228C178.454 399.961 177.984 399.588 177.643 399.108C177.302 398.628 177.131 398.068 177.131 397.428H179.083C179.126 397.908 179.312 398.303 179.643 398.612C179.984 398.921 180.459 399.076 181.067 399.076C181.696 399.076 182.187 398.927 182.539 398.628C182.891 398.319 183.067 397.924 183.067 397.444C183.067 397.071 182.955 396.767 182.731 396.532C182.518 396.297 182.246 396.116 181.915 395.988C181.595 395.86 181.147 395.721 180.571 395.572C179.846 395.38 179.254 395.188 178.795 394.996C178.347 394.793 177.963 394.484 177.643 394.068C177.323 393.652 177.163 393.097 177.163 392.404C177.163 391.764 177.323 391.204 177.643 390.724C177.963 390.244 178.411 389.876 178.987 389.62C179.563 389.364 180.23 389.236 180.987 389.236C182.064 389.236 182.944 389.508 183.627 390.052C184.32 390.585 184.704 391.321 184.779 392.26H182.763C182.731 391.855 182.539 391.508 182.187 391.22C181.835 390.932 181.371 390.788 180.795 390.788C180.272 390.788 179.846 390.921 179.515 391.188C179.184 391.455 179.019 391.839 179.019 392.34C179.019 392.681 179.12 392.964 179.323 393.188C179.536 393.401 179.803 393.572 180.123 393.7C180.443 393.828 180.88 393.967 181.435 394.116C182.171 394.319 182.768 394.521 183.227 394.724C183.696 394.927 184.091 395.241 184.411 395.668C184.742 396.084 184.907 396.644 184.907 397.348C184.907 397.913 184.752 398.447 184.443 398.948C184.144 399.449 183.702 399.855 183.115 400.164C182.539 400.463 181.856 400.612 181.067 400.612ZM186.451 396.052C186.451 395.167 186.633 394.383 186.995 393.7C187.369 393.017 187.87 392.489 188.499 392.116C189.139 391.732 189.843 391.54 190.611 391.54C191.305 391.54 191.907 391.679 192.419 391.956C192.942 392.223 193.358 392.559 193.667 392.964V391.684H195.507V400.5H193.667V399.188C193.358 399.604 192.937 399.951 192.403 400.228C191.87 400.505 191.262 400.644 190.579 400.644C189.822 400.644 189.129 400.452 188.499 400.068C187.87 399.673 187.369 399.129 186.995 398.436C186.633 397.732 186.451 396.937 186.451 396.052ZM193.667 396.084C193.667 395.476 193.539 394.948 193.283 394.5C193.038 394.052 192.713 393.711 192.307 393.476C191.902 393.241 191.465 393.124 190.995 393.124C190.526 393.124 190.089 393.241 189.683 393.476C189.278 393.7 188.947 394.036 188.691 394.484C188.446 394.921 188.323 395.444 188.323 396.052C188.323 396.66 188.446 397.193 188.691 397.652C188.947 398.111 189.278 398.463 189.683 398.708C190.099 398.943 190.537 399.06 190.995 399.06C191.465 399.06 191.902 398.943 192.307 398.708C192.713 398.473 193.038 398.132 193.283 397.684C193.539 397.225 193.667 396.692 193.667 396.084ZM201.311 398.868L203.807 391.684H205.743L202.383 400.5H200.207L196.863 391.684H198.815L201.311 398.868ZM215.202 395.876C215.202 396.207 215.181 396.505 215.138 396.772H208.402C208.455 397.476 208.717 398.041 209.186 398.468C209.655 398.895 210.231 399.108 210.914 399.108C211.895 399.108 212.589 398.697 212.994 397.876H214.962C214.695 398.687 214.21 399.353 213.506 399.876C212.813 400.388 211.949 400.644 210.914 400.644C210.071 400.644 209.314 400.457 208.642 400.084C207.981 399.7 207.458 399.167 207.074 398.484C206.701 397.791 206.514 396.991 206.514 396.084C206.514 395.177 206.695 394.383 207.058 393.7C207.431 393.007 207.949 392.473 208.61 392.1C209.282 391.727 210.05 391.54 210.914 391.54C211.746 391.54 212.487 391.721 213.138 392.084C213.789 392.447 214.295 392.959 214.658 393.62C215.021 394.271 215.202 395.023 215.202 395.876ZM213.298 395.3C213.287 394.628 213.047 394.089 212.578 393.684C212.109 393.279 211.527 393.076 210.834 393.076C210.205 393.076 209.666 393.279 209.218 393.684C208.77 394.079 208.503 394.617 208.418 395.3H213.298Z" fill="white"/>
</g>
<defs>
<clipPath id="clip0_92_5761">
<rect width="393" height="852" fill="white"/>
</clipPath>
</defs>
</svg>
