<svg width="24" height="24" viewBox="0 0 24 24" fill="none" xmlns="http://www.w3.org/2000/svg">
<path d="M12 3.6L12.9405 3.65282L13.8692 3.8106L14.7743 4.07138L15.6446 4.43186L16.4691 4.88752L17.2373 5.43261L17.9397 6.0603L18.5674 6.76268L19.1125 7.53093L19.5681 8.35537L19.9286 9.22565L20.1894 10.1308L20.3472 11.0595L20.4 12L20.3472 12.9405L20.1894 13.8692L19.9286 14.7743L19.5681 15.6446L19.1125 16.4691L18.5674 17.2373L17.9397 17.9397L17.2373 18.5674L16.4691 19.1125L15.6446 19.5681L14.7743 19.9286L13.8692 20.1894L12.9405 20.3472L12 20.4L11.0595 20.3472L10.1308 20.1894L9.22566 19.9286L8.35538 19.5681L7.53094 19.1125L6.76269 18.5674L6.06031 17.9397L5.43262 17.2373L4.88752 16.4691L4.43187 15.6446L4.07139 14.7743L3.81061 13.8692L3.65282 12.9405L3.60001 12L3.65282 11.0595L3.81061 10.1308L4.07139 9.22565L4.43187 8.35537L4.88752 7.53093L5.43262 6.76268L6.06031 6.0603L6.76269 5.43261L7.53094 4.88752L8.35538 4.43186L9.22566 4.07138L10.1308 3.8106L11.0595 3.65282L12 3.6Z" fill="#C2CCDE" fill-opacity="0.25"/>
<path d="M12 3.6L12.0561 2.60157C12.0187 2.59947 11.9813 2.59947 11.9439 2.60157L12 3.6ZM12.9405 3.65282L13.108 2.66694C13.0711 2.66068 13.0339 2.65649 12.9966 2.65439L12.9405 3.65282ZM13.8692 3.8106L14.146 2.84969C14.1101 2.83933 14.0736 2.831 14.0367 2.82473L13.8692 3.8106ZM14.7743 4.07138L15.157 3.1475C15.1225 3.13318 15.0871 3.12082 15.0512 3.11046L14.7743 4.07138ZM15.6446 4.43186L16.1283 3.55664C16.0956 3.53854 16.0619 3.5223 16.0273 3.50798L15.6446 4.43186ZM16.4691 4.88752L17.0477 4.07195C17.0172 4.05031 16.9855 4.03039 16.9528 4.01229L16.4691 4.88752ZM17.2373 5.43261L17.9037 4.68697C17.8758 4.66204 17.8465 4.6387 17.816 4.61705L17.2373 5.43261ZM17.9397 6.0603L18.6853 5.39395C18.6604 5.36606 18.6339 5.33959 18.606 5.31466L17.9397 6.0603ZM18.5674 6.76268L19.383 6.18401C19.3613 6.1535 19.338 6.12423 19.313 6.09634L18.5674 6.76268ZM19.1125 7.53093L19.9877 7.04721C19.9696 7.01447 19.9497 6.98277 19.928 6.95226L19.1125 7.53093ZM19.5681 8.35537L20.492 7.97269C20.4777 7.93813 20.4615 7.9044 20.4434 7.87166L19.5681 8.35537ZM19.9286 9.22565L20.8895 8.94882C20.8792 8.91287 20.8668 8.87753 20.8525 8.84297L19.9286 9.22565ZM20.1894 10.1308L21.1753 9.96332C21.169 9.92644 21.1607 9.88993 21.1503 9.85399L20.1894 10.1308ZM20.3472 11.0595L21.3456 11.0034C21.3435 10.9661 21.3393 10.9289 21.3331 10.892L20.3472 11.0595ZM20.4 12L21.3984 12.0561C21.4005 12.0187 21.4005 11.9813 21.3984 11.9439L20.4 12ZM20.3472 12.9405L21.3331 13.108C21.3393 13.0711 21.3435 13.0339 21.3456 12.9966L20.3472 12.9405ZM20.1894 13.8692L21.1503 14.146C21.1607 14.1101 21.169 14.0736 21.1753 14.0367L20.1894 13.8692ZM19.9286 14.7743L20.8525 15.157C20.8668 15.1225 20.8792 15.0871 20.8895 15.0512L19.9286 14.7743ZM19.5681 15.6446L20.4434 16.1283C20.4615 16.0956 20.4777 16.0619 20.492 16.0273L19.5681 15.6446ZM19.1125 16.4691L19.9281 17.0477C19.9497 17.0172 19.9696 16.9855 19.9877 16.9528L19.1125 16.4691ZM18.5674 17.2373L19.313 17.9037C19.338 17.8758 19.3613 17.8465 19.383 17.816L18.5674 17.2373ZM17.9397 17.9397L18.606 18.6853C18.6339 18.6604 18.6604 18.6339 18.6853 18.606L17.9397 17.9397ZM17.2373 18.5674L17.816 19.3829C17.8465 19.3613 17.8758 19.338 17.9037 19.313L17.2373 18.5674ZM16.4691 19.1125L16.9528 19.9877C16.9855 19.9696 17.0172 19.9497 17.0477 19.928L16.4691 19.1125ZM15.6446 19.5681L16.0273 20.492C16.0619 20.4777 16.0956 20.4615 16.1283 20.4434L15.6446 19.5681ZM14.7743 19.9286L15.0512 20.8895C15.0871 20.8792 15.1225 20.8668 15.157 20.8525L14.7743 19.9286ZM13.8692 20.1894L14.0367 21.1753C14.0736 21.169 14.1101 21.1607 14.146 21.1503L13.8692 20.1894ZM12.9405 20.3472L12.9966 21.3456C13.0339 21.3435 13.0711 21.3393 13.108 21.333L12.9405 20.3472ZM12 20.4L11.9439 21.3984C11.9813 21.4005 12.0187 21.4005 12.0561 21.3984L12 20.4ZM11.0595 20.3472L10.892 21.333C10.9289 21.3393 10.9661 21.3435 11.0034 21.3456L11.0595 20.3472ZM10.1308 20.1894L9.85399 21.1503C9.88994 21.1607 9.92644 21.169 9.96332 21.1753L10.1308 20.1894ZM9.22566 19.9286L8.84298 20.8525C8.87754 20.8668 8.91288 20.8792 8.94883 20.8895L9.22566 19.9286ZM8.35538 19.5681L7.87166 20.4434C7.90441 20.4615 7.93814 20.4777 7.9727 20.492L8.35538 19.5681ZM7.53094 19.1125L6.95227 19.928C6.98278 19.9497 7.01448 19.9696 7.04722 19.9877L7.53094 19.1125ZM6.76269 18.5674L6.09634 19.313C6.12424 19.338 6.15351 19.3613 6.18402 19.3829L6.76269 18.5674ZM6.06031 17.9397L5.31467 18.606C5.33959 18.6339 5.36607 18.6604 5.39396 18.6853L6.06031 17.9397ZM5.43262 17.2373L4.61706 17.816C4.63871 17.8465 4.66205 17.8758 4.68698 17.9037L5.43262 17.2373ZM4.88752 16.4691L4.0123 16.9528C4.0304 16.9855 4.05031 17.0172 4.07196 17.0477L4.88752 16.4691ZM4.43187 15.6446L3.50799 16.0273C3.5223 16.0619 3.53855 16.0956 3.55664 16.1283L4.43187 15.6446ZM4.07139 14.7743L3.11047 15.0512C3.12083 15.0871 3.13319 15.1225 3.14751 15.157L4.07139 14.7743ZM3.81061 13.8692L2.82474 14.0367C2.83101 14.0736 2.83934 14.1101 2.84969 14.146L3.81061 13.8692ZM3.65282 12.9405L2.6544 12.9966C2.65649 13.0339 2.66069 13.0711 2.66695 13.108L3.65282 12.9405ZM3.60001 12L2.60158 11.9439C2.59948 11.9813 2.59948 12.0187 2.60158 12.0561L3.60001 12ZM3.65282 11.0595L2.66695 10.892C2.66069 10.9289 2.65649 10.9661 2.6544 11.0034L3.65282 11.0595ZM3.81061 10.1308L2.84969 9.85399C2.83934 9.88993 2.83101 9.92643 2.82474 9.96332L3.81061 10.1308ZM4.07139 9.22565L3.14751 8.84297C3.13319 8.87753 3.12083 8.91287 3.11047 8.94882L4.07139 9.22565ZM4.43187 8.35537L3.55664 7.87166C3.53855 7.9044 3.5223 7.93813 3.50799 7.97269L4.43187 8.35537ZM4.88752 7.53093L4.07196 6.95226C4.05031 6.98277 4.0304 7.01447 4.0123 7.04721L4.88752 7.53093ZM5.43262 6.76268L4.68698 6.09634C4.66205 6.12423 4.63871 6.1535 4.61706 6.18401L5.43262 6.76268ZM6.06031 6.0603L5.39396 5.31466C5.36607 5.33959 5.33959 5.36606 5.31467 5.39395L6.06031 6.0603ZM6.76269 5.43261L6.18402 4.61705C6.15351 4.6387 6.12424 4.66204 6.09634 4.68697L6.76269 5.43261ZM7.53094 4.88752L7.04722 4.01229C7.01448 4.03039 6.98278 4.05031 6.95227 4.07195L7.53094 4.88752ZM8.35538 4.43186L7.9727 3.50798C7.93814 3.5223 7.90441 3.53854 7.87166 3.55664L8.35538 4.43186ZM9.22566 4.07138L8.94883 3.11046C8.91288 3.12082 8.87754 3.13318 8.84298 3.1475L9.22566 4.07138ZM10.1308 3.8106L9.96332 2.82473C9.92644 2.831 9.88994 2.83933 9.85399 2.84969L10.1308 3.8106ZM11.0595 3.65282L11.0034 2.65439C10.9661 2.65649 10.9289 2.66068 10.892 2.66694L11.0595 3.65282ZM11.9439 4.59843L12.8844 4.65124L12.9966 2.65439L12.0561 2.60157L11.9439 4.59843ZM12.773 4.63869L13.7017 4.79648L14.0367 2.82473L13.108 2.66694L12.773 4.63869ZM13.5923 4.77152L14.4975 5.0323L15.0512 3.11046L14.146 2.84969L13.5923 4.77152ZM14.3917 4.99526L15.2619 5.35574L16.0273 3.50798L15.157 3.1475L14.3917 4.99526ZM15.1609 5.30708L15.9854 5.76274L16.9528 4.01229L16.1283 3.55664L15.1609 5.30708ZM15.8904 5.70308L16.6586 6.24817L17.816 4.61705L17.0477 4.07195L15.8904 5.70308ZM16.571 6.17826L17.2734 6.80594L18.606 5.31466L17.9037 4.68697L16.571 6.17826ZM17.1941 6.72665L17.8217 7.42903L19.313 6.09634L18.6853 5.39395L17.1941 6.72665ZM17.7518 7.34135L18.2969 8.1096L19.928 6.95226L19.383 6.18401L17.7518 7.34135ZM18.2373 8.01465L18.6929 8.83909L20.4434 7.87166L19.9877 7.04721L18.2373 8.01465ZM18.6443 8.73806L19.0047 9.60834L20.8525 8.84297L20.492 7.97269L18.6443 8.73806ZM18.9677 9.50249L19.2285 10.4077L21.1503 9.85399L20.8895 8.94882L18.9677 9.50249ZM19.2035 10.2983L19.3613 11.227L21.3331 10.892L21.1753 9.96332L19.2035 10.2983ZM19.3488 11.1156L19.4016 12.0561L21.3984 11.9439L21.3456 11.0034L19.3488 11.1156ZM19.4016 11.9439L19.3488 12.8844L21.3456 12.9966L21.3984 12.0561L19.4016 11.9439ZM19.3613 12.773L19.2035 13.7017L21.1753 14.0367L21.3331 13.108L19.3613 12.773ZM19.2285 13.5923L18.9677 14.4975L20.8895 15.0512L21.1503 14.146L19.2285 13.5923ZM19.0047 14.3917L18.6443 15.2619L20.492 16.0273L20.8525 15.157L19.0047 14.3917ZM18.6929 15.1609L18.2373 15.9853L19.9877 16.9528L20.4434 16.1283L18.6929 15.1609ZM18.2969 15.8904L17.7518 16.6586L19.383 17.816L19.9281 17.0477L18.2969 15.8904ZM17.8217 16.571L17.1941 17.2733L18.6853 18.606L19.313 17.9037L17.8217 16.571ZM17.2734 17.1941L16.571 17.8217L17.9037 19.313L18.606 18.6853L17.2734 17.1941ZM16.6586 17.7518L15.8904 18.2969L17.0477 19.928L17.816 19.3829L16.6586 17.7518ZM15.9854 18.2373L15.1609 18.6929L16.1283 20.4434L16.9528 19.9877L15.9854 18.2373ZM15.2619 18.6443L14.3917 19.0047L15.157 20.8525L16.0273 20.492L15.2619 18.6443ZM14.4975 18.9677L13.5923 19.2285L14.146 21.1503L15.0512 20.8895L14.4975 18.9677ZM13.7017 19.2035L12.773 19.3613L13.108 21.333L14.0367 21.1753L13.7017 19.2035ZM12.8844 19.3488L11.9439 19.4016L12.0561 21.3984L12.9966 21.3456L12.8844 19.3488ZM12.0561 19.4016L11.1156 19.3488L11.0034 21.3456L11.9439 21.3984L12.0561 19.4016ZM11.227 19.3613L10.2983 19.2035L9.96332 21.1753L10.892 21.333L11.227 19.3613ZM10.4077 19.2285L9.5025 18.9677L8.94883 20.8895L9.85399 21.1503L10.4077 19.2285ZM9.60835 19.0047L8.73807 18.6443L7.9727 20.492L8.84298 20.8525L9.60835 19.0047ZM8.8391 18.6929L8.01466 18.2373L7.04722 19.9877L7.87166 20.4434L8.8391 18.6929ZM8.10961 18.2969L7.34136 17.7518L6.18402 19.3829L6.95227 19.928L8.10961 18.2969ZM7.42904 17.8217L6.72666 17.1941L5.39396 18.6853L6.09634 19.313L7.42904 17.8217ZM6.80595 17.2733L6.17826 16.571L4.68698 17.9037L5.31467 18.606L6.80595 17.2733ZM6.24818 16.6586L5.70308 15.8904L4.07196 17.0477L4.61706 17.816L6.24818 16.6586ZM5.76275 15.9853L5.30709 15.1609L3.55664 16.1283L4.0123 16.9528L5.76275 15.9853ZM5.35575 15.2619L4.99527 14.3917L3.14751 15.157L3.50799 16.0273L5.35575 15.2619ZM5.0323 14.4975L4.77153 13.5923L2.84969 14.146L3.11047 15.0512L5.0323 14.4975ZM4.79648 13.7017L4.63869 12.773L2.66695 13.108L2.82474 14.0367L4.79648 13.7017ZM4.65125 12.8844L4.59843 11.9439L2.60158 12.0561L2.6544 12.9966L4.65125 12.8844ZM4.59843 12.0561L4.65125 11.1156L2.6544 11.0034L2.60158 11.9439L4.59843 12.0561ZM4.63869 11.227L4.79648 10.2983L2.82474 9.96332L2.66695 10.892L4.63869 11.227ZM4.77153 10.4077L5.0323 9.50249L3.11047 8.94882L2.84969 9.85399L4.77153 10.4077ZM4.99527 9.60834L5.35575 8.73806L3.50799 7.97269L3.14751 8.84297L4.99527 9.60834ZM5.30709 8.83909L5.76275 8.01465L4.0123 7.04721L3.55664 7.87166L5.30709 8.83909ZM5.70308 8.1096L6.24818 7.34136L4.61706 6.18401L4.07196 6.95226L5.70308 8.1096ZM6.17826 7.42903L6.80595 6.72665L5.31467 5.39395L4.68698 6.09634L6.17826 7.42903ZM6.72666 6.80594L7.42904 6.17826L6.09634 4.68697L5.39396 5.31466L6.72666 6.80594ZM7.34136 6.24817L8.10961 5.70308L6.95227 4.07195L6.18402 4.61705L7.34136 6.24817ZM8.01466 5.76274L8.8391 5.30708L7.87166 3.55664L7.04722 4.01229L8.01466 5.76274ZM8.73807 5.35574L9.60835 4.99526L8.84298 3.1475L7.9727 3.50798L8.73807 5.35574ZM9.5025 5.0323L10.4077 4.77152L9.85399 2.84969L8.94883 3.11046L9.5025 5.0323ZM10.2983 4.79648L11.227 4.63869L10.892 2.66694L9.96332 2.82473L10.2983 4.79648ZM11.1156 4.65124L12.0561 4.59843L11.9439 2.60157L11.0034 2.65439L11.1156 4.65124Z" fill="#5A5A5A"/>
<path d="M7.56924 12.0546L9.81932 14.326C10.208 14.7184 10.8382 14.7184 11.2268 14.326L16.4308 9.07273" stroke="#5A5A5A" stroke-width="2" stroke-linecap="round" stroke-linejoin="round"/>
</svg>
