<svg width="478" height="102" viewBox="0 0 478 102" fill="none" xmlns="http://www.w3.org/2000/svg">
<rect width="478" height="102" rx="4" fill="#52C498"/>
<path d="M68.796 61.172H58.902L57.202 66H53.156L61.622 42.336H66.11L74.576 66H70.496L68.796 61.172ZM67.708 58.01L63.866 47.028L59.99 58.01H67.708ZM82.133 50.054C82.7904 49.1473 83.6857 48.4107 84.819 47.844C85.975 47.2547 87.2557 46.96 88.661 46.96C90.3157 46.96 91.8117 47.3567 93.149 48.15C94.4864 48.9433 95.5404 50.0767 96.311 51.55C97.0817 53.0007 97.467 54.6667 97.467 56.548C97.467 58.4293 97.0817 60.118 96.311 61.614C95.5404 63.0873 94.475 64.2433 93.115 65.082C91.7777 65.898 90.293 66.306 88.661 66.306C87.2104 66.306 85.9184 66.0227 84.785 65.456C83.6744 64.8893 82.7904 64.164 82.133 63.28V66H78.257V40.84H82.133V50.054ZM93.523 56.548C93.523 55.256 93.251 54.1453 92.707 53.216C92.1857 52.264 91.483 51.55 90.599 51.074C89.7377 50.5753 88.8084 50.326 87.811 50.326C86.8364 50.326 85.907 50.5753 85.023 51.074C84.1617 51.5727 83.459 52.298 82.915 53.25C82.3937 54.202 82.133 55.324 82.133 56.616C82.133 57.908 82.3937 59.0413 82.915 60.016C83.459 60.968 84.1617 61.6933 85.023 62.192C85.907 62.6907 86.8364 62.94 87.811 62.94C88.8084 62.94 89.7377 62.6907 90.599 62.192C91.483 61.6707 92.1857 60.9227 92.707 59.948C93.251 58.9733 93.523 57.84 93.523 56.548ZM109.426 66.306C107.658 66.306 106.06 65.9093 104.632 65.116C103.204 64.3 102.082 63.1667 101.266 61.716C100.45 60.2427 100.042 58.5427 100.042 56.616C100.042 54.712 100.461 53.0233 101.3 51.55C102.139 50.0767 103.283 48.9433 104.734 48.15C106.185 47.3567 107.805 46.96 109.596 46.96C111.387 46.96 113.007 47.3567 114.458 48.15C115.909 48.9433 117.053 50.0767 117.892 51.55C118.731 53.0233 119.15 54.712 119.15 56.616C119.15 58.52 118.719 60.2087 117.858 61.682C116.997 63.1553 115.818 64.3 114.322 65.116C112.849 65.9093 111.217 66.306 109.426 66.306ZM109.426 62.94C110.423 62.94 111.353 62.702 112.214 62.226C113.098 61.75 113.812 61.036 114.356 60.084C114.9 59.132 115.172 57.976 115.172 56.616C115.172 55.256 114.911 54.1113 114.39 53.182C113.869 52.23 113.177 51.516 112.316 51.04C111.455 50.564 110.525 50.326 109.528 50.326C108.531 50.326 107.601 50.564 106.74 51.04C105.901 51.516 105.233 52.23 104.734 53.182C104.235 54.1113 103.986 55.256 103.986 56.616C103.986 58.6333 104.496 60.1973 105.516 61.308C106.559 62.396 107.862 62.94 109.426 62.94ZM139.948 47.266V66H136.072V63.79C135.46 64.5607 134.655 65.1727 133.658 65.626C132.683 66.0567 131.64 66.272 130.53 66.272C129.056 66.272 127.73 65.966 126.552 65.354C125.396 64.742 124.478 63.8353 123.798 62.634C123.14 61.4327 122.812 59.982 122.812 58.282V47.266H126.654V57.704C126.654 59.3813 127.073 60.6733 127.912 61.58C128.75 62.464 129.895 62.906 131.346 62.906C132.796 62.906 133.941 62.464 134.78 61.58C135.641 60.6733 136.072 59.3813 136.072 57.704V47.266H139.948ZM149.584 50.428V60.798C149.584 61.5007 149.742 62.0107 150.06 62.328C150.4 62.6227 150.966 62.77 151.76 62.77H154.14V66H151.08C149.334 66 147.997 65.592 147.068 64.776C146.138 63.96 145.674 62.634 145.674 60.798V50.428H143.464V47.266H145.674V42.608H149.584V47.266H154.14V50.428H149.584ZM170.386 42.37V57.432C170.386 59.2227 170.851 60.5713 171.78 61.478C172.732 62.3847 174.047 62.838 175.724 62.838C177.424 62.838 178.739 62.3847 179.668 61.478C180.62 60.5713 181.096 59.2227 181.096 57.432V42.37H184.972V57.364C184.972 59.2907 184.553 60.9227 183.714 62.26C182.875 63.5973 181.753 64.5947 180.348 65.252C178.943 65.9093 177.39 66.238 175.69 66.238C173.99 66.238 172.437 65.9093 171.032 65.252C169.649 64.5947 168.55 63.5973 167.734 62.26C166.918 60.9227 166.51 59.2907 166.51 57.364V42.37H170.386ZM196.819 66.306C195.345 66.306 194.019 66.0453 192.841 65.524C191.685 64.98 190.767 64.2547 190.087 63.348C189.407 62.4187 189.044 61.3873 188.999 60.254H193.011C193.079 61.0473 193.453 61.716 194.133 62.26C194.835 62.7813 195.708 63.042 196.751 63.042C197.839 63.042 198.677 62.838 199.267 62.43C199.879 61.9993 200.185 61.4553 200.185 60.798C200.185 60.0953 199.845 59.574 199.165 59.234C198.507 58.894 197.453 58.52 196.003 58.112C194.597 57.7267 193.453 57.3527 192.569 56.99C191.685 56.6273 190.914 56.072 190.257 55.324C189.622 54.576 189.305 53.59 189.305 52.366C189.305 51.3687 189.599 50.462 190.189 49.646C190.778 48.8073 191.617 48.15 192.705 47.674C193.815 47.198 195.085 46.96 196.513 46.96C198.643 46.96 200.355 47.504 201.647 48.592C202.961 49.6573 203.664 51.1193 203.755 52.978H199.879C199.811 52.1393 199.471 51.4707 198.859 50.972C198.247 50.4733 197.419 50.224 196.377 50.224C195.357 50.224 194.575 50.4167 194.031 50.802C193.487 51.1873 193.215 51.6973 193.215 52.332C193.215 52.8307 193.396 53.25 193.759 53.59C194.121 53.93 194.563 54.202 195.085 54.406C195.606 54.5873 196.377 54.8253 197.397 55.12C198.757 55.4827 199.867 55.8567 200.729 56.242C201.613 56.6047 202.372 57.1487 203.007 57.874C203.641 58.5993 203.97 59.5627 203.993 60.764C203.993 61.8293 203.698 62.7813 203.109 63.62C202.519 64.4587 201.681 65.116 200.593 65.592C199.527 66.068 198.269 66.306 196.819 66.306Z" fill="#414141"/>
</svg>
