<svg width="5727" height="102" viewBox="0 0 5727 102" fill="none" xmlns="http://www.w3.org/2000/svg">
<rect width="5727" height="102" rx="4" fill="#52C498"/>
<path d="M69.294 61.172H59.4L57.7 66H53.654L62.12 42.336H66.608L75.074 66H70.994L69.294 61.172ZM68.206 58.01L64.364 47.028L60.488 58.01H68.206ZM95.7211 47.266V66H91.8451V63.79C91.2331 64.5607 90.4284 65.1727 89.4311 65.626C88.4564 66.0567 87.4137 66.272 86.3031 66.272C84.8297 66.272 83.5037 65.966 82.3251 65.354C81.1691 64.742 80.2511 63.8353 79.5711 62.634C78.9137 61.4327 78.5851 59.982 78.5851 58.282V47.266H82.4271V57.704C82.4271 59.3813 82.8464 60.6733 83.6851 61.58C84.5237 62.464 85.6684 62.906 87.1191 62.906C88.5697 62.906 89.7144 62.464 90.5531 61.58C91.4144 60.6733 91.8451 59.3813 91.8451 57.704V47.266H95.7211ZM105.357 50.428V60.798C105.357 61.5007 105.516 62.0107 105.833 62.328C106.173 62.6227 106.74 62.77 107.533 62.77H109.913V66H106.853C105.108 66 103.77 65.592 102.841 64.776C101.912 63.96 101.447 62.634 101.447 60.798V50.428H99.2372V47.266H101.447V42.608H105.357V47.266H109.913V50.428H105.357ZM123.176 46.96C124.604 46.96 125.873 47.266 126.984 47.878C128.117 48.49 129.001 49.3967 129.636 50.598C130.293 51.7993 130.622 53.25 130.622 54.95V66H126.78V55.528C126.78 53.8507 126.36 52.57 125.522 51.686C124.683 50.7793 123.538 50.326 122.088 50.326C120.637 50.326 119.481 50.7793 118.62 51.686C117.781 52.57 117.362 53.8507 117.362 55.528V66H113.486V40.84H117.362V49.442C118.019 48.6487 118.846 48.0367 119.844 47.606C120.864 47.1753 121.974 46.96 123.176 46.96ZM152.736 56.174C152.736 56.8767 152.69 57.5113 152.6 58.078H138.286C138.399 59.574 138.954 60.7753 139.952 61.682C140.949 62.5887 142.173 63.042 143.624 63.042C145.709 63.042 147.182 62.1693 148.044 60.424H152.226C151.659 62.1467 150.628 63.5633 149.132 64.674C147.658 65.762 145.822 66.306 143.624 66.306C141.833 66.306 140.224 65.9093 138.796 65.116C137.39 64.3 136.28 63.1667 135.464 61.716C134.67 60.2427 134.274 58.5427 134.274 56.616C134.274 54.6893 134.659 53.0007 135.43 51.55C136.223 50.0767 137.322 48.9433 138.728 48.15C140.156 47.3567 141.788 46.96 143.624 46.96C145.392 46.96 146.967 47.3453 148.35 48.116C149.732 48.8867 150.809 49.9747 151.58 51.38C152.35 52.7627 152.736 54.3607 152.736 56.174ZM148.69 54.95C148.667 53.522 148.157 52.3773 147.16 51.516C146.162 50.6547 144.927 50.224 143.454 50.224C142.116 50.224 140.972 50.6547 140.02 51.516C139.068 52.3547 138.501 53.4993 138.32 54.95H148.69ZM166.002 46.96C167.475 46.96 168.79 47.266 169.946 47.878C171.125 48.49 172.043 49.3967 172.7 50.598C173.357 51.7993 173.686 53.25 173.686 54.95V66H169.844V55.528C169.844 53.8507 169.425 52.57 168.586 51.686C167.747 50.7793 166.603 50.326 165.152 50.326C163.701 50.326 162.545 50.7793 161.684 51.686C160.845 52.57 160.426 53.8507 160.426 55.528V66H156.55V47.266H160.426V49.408C161.061 48.6373 161.865 48.0367 162.84 47.606C163.837 47.1753 164.891 46.96 166.002 46.96ZM183.152 50.428V60.798C183.152 61.5007 183.311 62.0107 183.628 62.328C183.968 62.6227 184.535 62.77 185.328 62.77H187.708V66H184.648C182.903 66 181.565 65.592 180.636 64.776C179.707 63.96 179.242 62.634 179.242 60.798V50.428H177.032V47.266H179.242V42.608H183.152V47.266H187.708V50.428H183.152ZM193.252 44.784C192.55 44.784 191.96 44.546 191.484 44.07C191.008 43.594 190.77 43.0047 190.77 42.302C190.77 41.5993 191.008 41.01 191.484 40.534C191.96 40.058 192.55 39.82 193.252 39.82C193.932 39.82 194.51 40.058 194.986 40.534C195.462 41.01 195.7 41.5993 195.7 42.302C195.7 43.0047 195.462 43.594 194.986 44.07C194.51 44.546 193.932 44.784 193.252 44.784ZM195.156 47.266V66H191.28V47.266H195.156ZM198.953 56.616C198.953 54.6893 199.339 53.0007 200.109 51.55C200.903 50.0767 201.991 48.9433 203.373 48.15C204.756 47.3567 206.343 46.96 208.133 46.96C210.4 46.96 212.27 47.504 213.743 48.592C215.239 49.6573 216.248 51.1873 216.769 53.182H212.587C212.247 52.2527 211.703 51.5273 210.955 51.006C210.207 50.4847 209.267 50.224 208.133 50.224C206.547 50.224 205.277 50.7907 204.325 51.924C203.396 53.0347 202.931 54.5987 202.931 56.616C202.931 58.6333 203.396 60.2087 204.325 61.342C205.277 62.4753 206.547 63.042 208.133 63.042C210.377 63.042 211.862 62.056 212.587 60.084H216.769C216.225 61.988 215.205 63.5067 213.709 64.64C212.213 65.7507 210.355 66.306 208.133 66.306C206.343 66.306 204.756 65.9093 203.373 65.116C201.991 64.3 200.903 63.1667 200.109 61.716C199.339 60.2427 198.953 58.5427 198.953 56.616ZM219.34 56.548C219.34 54.6667 219.725 53.0007 220.496 51.55C221.289 50.0993 222.355 48.9773 223.692 48.184C225.052 47.368 226.548 46.96 228.18 46.96C229.653 46.96 230.934 47.2547 232.022 47.844C233.133 48.4107 234.017 49.1247 234.674 49.986V47.266H238.584V66H234.674V63.212C234.017 64.096 233.121 64.8327 231.988 65.422C230.855 66.0113 229.563 66.306 228.112 66.306C226.503 66.306 225.029 65.898 223.692 65.082C222.355 64.2433 221.289 63.0873 220.496 61.614C219.725 60.118 219.34 58.4293 219.34 56.548ZM234.674 56.616C234.674 55.324 234.402 54.202 233.858 53.25C233.337 52.298 232.645 51.5727 231.784 51.074C230.923 50.5753 229.993 50.326 228.996 50.326C227.999 50.326 227.069 50.5753 226.208 51.074C225.347 51.55 224.644 52.264 224.1 53.216C223.579 54.1453 223.318 55.256 223.318 56.548C223.318 57.84 223.579 58.9733 224.1 59.948C224.644 60.9227 225.347 61.6707 226.208 62.192C227.092 62.6907 228.021 62.94 228.996 62.94C229.993 62.94 230.923 62.6907 231.784 62.192C232.645 61.6933 233.337 60.968 233.858 60.016C234.402 59.0413 234.674 57.908 234.674 56.616ZM248.197 50.428V60.798C248.197 61.5007 248.356 62.0107 248.673 62.328C249.013 62.6227 249.58 62.77 250.373 62.77H252.753V66H249.693C247.948 66 246.61 65.592 245.681 64.776C244.752 63.96 244.287 62.634 244.287 60.798V50.428H242.077V47.266H244.287V42.608H248.197V47.266H252.753V50.428H248.197ZM258.297 44.784C257.595 44.784 257.005 44.546 256.529 44.07C256.053 43.594 255.815 43.0047 255.815 42.302C255.815 41.5993 256.053 41.01 256.529 40.534C257.005 40.058 257.595 39.82 258.297 39.82C258.977 39.82 259.555 40.058 260.031 40.534C260.507 41.01 260.745 41.5993 260.745 42.302C260.745 43.0047 260.507 43.594 260.031 44.07C259.555 44.546 258.977 44.784 258.297 44.784ZM260.201 47.266V66H256.325V47.266H260.201ZM273.416 66.306C271.648 66.306 270.05 65.9093 268.622 65.116C267.194 64.3 266.072 63.1667 265.256 61.716C264.44 60.2427 264.032 58.5427 264.032 56.616C264.032 54.712 264.452 53.0233 265.29 51.55C266.129 50.0767 267.274 48.9433 268.724 48.15C270.175 47.3567 271.796 46.96 273.586 46.96C275.377 46.96 276.998 47.3567 278.448 48.15C279.899 48.9433 281.044 50.0767 281.882 51.55C282.721 53.0233 283.14 54.712 283.14 56.616C283.14 58.52 282.71 60.2087 281.848 61.682C280.987 63.1553 279.808 64.3 278.312 65.116C276.839 65.9093 275.207 66.306 273.416 66.306ZM273.416 62.94C274.414 62.94 275.343 62.702 276.204 62.226C277.088 61.75 277.802 61.036 278.346 60.084C278.89 59.132 279.162 57.976 279.162 56.616C279.162 55.256 278.902 54.1113 278.38 53.182C277.859 52.23 277.168 51.516 276.306 51.04C275.445 50.564 274.516 50.326 273.518 50.326C272.521 50.326 271.592 50.564 270.73 51.04C269.892 51.516 269.223 52.23 268.724 53.182C268.226 54.1113 267.976 55.256 267.976 56.616C267.976 58.6333 268.486 60.1973 269.506 61.308C270.549 62.396 271.852 62.94 273.416 62.94ZM296.424 46.96C297.897 46.96 299.212 47.266 300.368 47.878C301.547 48.49 302.465 49.3967 303.122 50.598C303.779 51.7993 304.108 53.25 304.108 54.95V66H300.266V55.528C300.266 53.8507 299.847 52.57 299.008 51.686C298.169 50.7793 297.025 50.326 295.574 50.326C294.123 50.326 292.967 50.7793 292.106 51.686C291.267 52.57 290.848 53.8507 290.848 55.528V66H286.972V47.266H290.848V49.408C291.483 48.6373 292.287 48.0367 293.262 47.606C294.259 47.1753 295.313 46.96 296.424 46.96Z" fill="#414141"/>
</svg>
