<svg width="24" height="18" viewBox="0 0 24 18" fill="none" xmlns="http://www.w3.org/2000/svg">
<path d="M11.9816 14.7684C10.0543 14.7684 8.1265 14.7684 6.19817 14.7684C4.99322 14.7684 4.01233 13.9809 3.7538 12.8068C3.71497 12.6266 3.69533 12.4428 3.69519 12.2585C3.69136 10.4569 3.69136 8.65526 3.69519 6.85364C3.69519 5.71963 4.63051 4.77055 5.76766 4.75221C6.57543 4.73999 7.25145 4.45076 7.79762 3.84822C8.43955 3.13985 9.25306 2.7891 10.2048 2.7784C11.3661 2.76618 12.5279 2.76618 13.6902 2.7784C14.6095 2.78948 15.418 3.11234 16.0408 3.79931C16.6264 4.4454 17.3392 4.74495 18.2048 4.75718C19.2171 4.77132 20.1581 5.64322 20.275 6.64388C20.2953 6.8143 20.3056 6.98576 20.306 7.15739C20.3083 8.85075 20.3083 10.5446 20.306 12.239C20.306 13.6772 19.2186 14.7668 17.7812 14.768C15.8488 14.7695 13.9156 14.7696 11.9816 14.7684ZM12.0023 13.8831C13.904 13.8831 15.806 13.8701 17.7073 13.8881C18.6878 13.8976 19.4285 13.1621 19.4147 12.1893C19.3906 10.4899 19.4082 8.78886 19.4078 7.09014C19.4078 7.02022 19.4078 6.9503 19.4013 6.88038C19.3776 6.54357 19.2271 6.22816 18.9799 5.99748C18.7328 5.7668 18.4073 5.63792 18.0688 5.63672C17.024 5.62551 16.1497 5.23541 15.446 4.46642C14.9638 3.93915 14.3682 3.67437 13.6504 3.67667C12.5083 3.68049 11.3657 3.67667 10.2236 3.67858C10.0835 3.67758 9.94346 3.68793 9.80498 3.70953C9.25689 3.80161 8.80533 4.06677 8.43227 4.47674C7.76507 5.21071 6.93087 5.62297 5.93925 5.62526C5.23988 5.62526 4.57727 6.12655 4.58761 6.97896C4.60944 8.72925 4.59335 10.4799 4.59565 12.2306C4.59279 12.3704 4.60564 12.5101 4.63395 12.6471C4.80439 13.3868 5.44096 13.8816 6.22115 13.8823C8.1482 13.8844 10.0753 13.8846 12.0023 13.8831Z" fill="#5A5A5A"/>
<path d="M14.0156 6.67932L14.4424 5.94698L14.4899 5.98727L14.7692 9.23077C14.096 8.74494 13.4389 8.27158 12.7597 7.78431L13.2676 7.33493C12.9488 6.98147 12.6038 6.77476 12.2197 6.7316C11.2136 6.61842 10.4438 7.27594 10.0267 8.58331C9.92069 8.91567 9.69011 9.05236 9.47333 8.91328C9.2653 8.78091 9.17038 8.44951 9.27136 8.12674C9.72545 6.67117 10.5023 5.79831 11.6135 5.58009C12.4826 5.40936 13.2518 5.76809 13.9186 6.57669C13.936 6.59579 13.9541 6.61356 13.9728 6.62992L14.0156 6.67932Z" fill="#5A5A5A"/>
<path d="M9.99906 11.8043L9.4484 12.4426C9.37529 11.3614 9.30456 10.3195 9.23077 9.23077L11.2046 10.7952L10.7132 11.1523C10.9656 11.4434 11.268 11.6391 11.5912 11.7204C12.6031 11.9885 13.5298 11.3173 13.9722 10.0046C14.069 9.71679 14.2277 9.57899 14.4213 9.61461C14.5088 9.62941 14.5903 9.68425 14.6528 9.77042C14.7152 9.85659 14.7552 9.96917 14.7662 10.0903C14.776 10.213 14.7621 10.337 14.7259 10.4498C14.249 11.8788 13.451 12.7173 12.3158 12.8954C11.4304 13.0346 10.6631 12.646 9.99906 11.8043Z" fill="#5A5A5A"/>
</svg>
