<svg width="24" height="24" viewBox="0 0 24 24" fill="none" xmlns="http://www.w3.org/2000/svg">
<path d="M16.1089 13.7058C15.9748 13.6432 15.842 13.5784 15.7105 13.5113C15.1684 13.2345 14.4856 13.4351 14.2338 13.9893C13.887 14.752 12.8852 14.9337 12.2928 14.3412L9.65047 11.6989C9.05802 11.1065 9.23969 10.1046 10.0024 9.75794C10.5276 9.51922 10.7126 8.86823 10.4384 8.36068C10.3225 8.1463 10.2128 7.92804 10.1093 7.70612C9.90277 7.26326 9.72351 6.81057 9.57172 6.35054C9.32145 5.59206 8.46035 5.16909 7.7487 5.53169L5.87324 6.48729C5.56449 6.6446 5.37291 6.96771 5.40311 7.31291C5.65728 10.218 6.92688 12.9407 8.98894 15.0027C11.051 17.0648 13.7737 18.3344 16.6788 18.5886C17.0242 18.6188 17.3475 18.4271 17.505 18.1181L18.5124 16.1409C18.8796 15.4203 18.4412 14.5489 17.669 14.3088C17.1385 14.1439 16.6173 13.9428 16.1089 13.7058Z" fill="#C2CCDE" fill-opacity="0.25" stroke="#414141" stroke-linecap="round" stroke-linejoin="round"/>
</svg>
