<svg width="24" height="24" viewBox="0 0 24 24" fill="none" xmlns="http://www.w3.org/2000/svg">
<path d="M9.59655 4.88544L8.94026 6.6H4.19999C3.70293 6.6 3.29999 7.00295 3.29999 7.5V18.3C3.29999 18.7971 3.70293 19.2 4.19999 19.2H10.4624C10.1409 19.0755 9.82654 18.9255 9.52249 18.75C7.43248 17.5433 6.14499 15.3133 6.14499 12.9C6.14499 10.4867 7.43248 8.25665 9.52249 7.04999C11.6125 5.84332 14.1875 5.84332 16.2775 7.04999C18.3675 8.25665 19.655 10.4867 19.655 12.9C19.655 15.3133 18.3675 17.5433 16.2775 18.75C15.9734 18.9255 15.6591 19.0755 15.3375 19.2H19.2C19.697 19.2 20.1 18.7971 20.1 18.3V7.5C20.1 7.00295 19.697 6.6 19.2 6.6H16.896L16.2398 4.88544C16.1509 4.65325 15.928 4.49993 15.6794 4.49993H10.1569C9.90828 4.49993 9.68542 4.65325 9.59655 4.88544Z" fill="#C2CCDE" fill-opacity="0.25"/>
<path d="M7.17452 6.59999H4.83584L4.99512 5.87178C5.05537 5.59633 5.29929 5.39999 5.58126 5.39999H6.4291C6.71107 5.39999 6.95499 5.59633 7.01524 5.87178L7.17452 6.59999Z" fill="#C2CCDE" fill-opacity="0.25"/>
<path d="M15.2491 4.49999H10.5717L10.9394 3.65952C11.0349 3.44111 11.2507 3.29999 11.4891 3.29999H14.3317C14.5701 3.29999 14.7858 3.44111 14.8814 3.65952L15.2491 4.49999Z" fill="#C2CCDE" fill-opacity="0.25"/>
<path d="M9.52249 7.04999C11.6125 5.84332 14.1875 5.84332 16.2775 7.04999C18.3675 8.25665 19.655 10.4867 19.655 12.9C19.655 15.3133 18.3675 17.5433 16.2775 18.75C14.1875 19.9567 11.6125 19.9567 9.52249 18.75C7.43248 17.5433 6.14499 15.3133 6.14499 12.9C6.14499 10.4867 7.43248 8.25665 9.52249 7.04999Z" fill="#C2CCDE" fill-opacity="0.25"/>
<path d="M10.8215 9.3C12.1077 8.55744 13.6923 8.55744 14.9784 9.3C16.2646 10.0426 17.0569 11.4149 17.0569 12.9C17.0569 14.3851 16.2646 15.7574 14.9784 16.5C13.6923 17.2426 12.1077 17.2426 10.8215 16.5C9.53537 15.7574 8.74307 14.3851 8.74307 12.9C8.74307 11.4149 9.53537 10.0426 10.8215 9.3Z" fill="#C2CCDE" fill-opacity="0.25"/>
<path d="M9.52249 18.75C9.82654 18.9255 10.1409 19.0755 10.4624 19.2H4.19999C3.70293 19.2 3.29999 18.7971 3.29999 18.3V7.5C3.29999 7.00295 3.70293 6.6 4.19999 6.6H8.94026L9.59655 4.88544C9.68542 4.65325 9.90828 4.49993 10.1569 4.49993H15.6794C15.928 4.49993 16.1509 4.65325 16.2398 4.88544L16.896 6.6H19.2C19.697 6.6 20.1 7.00295 20.1 7.5V18.3C20.1 18.7971 19.697 19.2 19.2 19.2H15.3375C15.6591 19.0755 15.9734 18.9255 16.2775 18.75M9.52249 18.75C7.43248 17.5433 6.14499 15.3133 6.14499 12.9C6.14499 10.4867 7.43248 8.25665 9.52249 7.04999C11.6125 5.84332 14.1875 5.84332 16.2775 7.04999C18.3675 8.25665 19.655 10.4867 19.655 12.9C19.655 15.3133 18.3675 17.5433 16.2775 18.75M9.52249 18.75C11.6125 19.9567 14.1875 19.9567 16.2775 18.75M10.9231 13.5416C10.8567 13.3372 10.8215 13.1209 10.8215 12.8996C10.8215 12.1572 11.2176 11.4712 11.8606 11.0999C12.182 10.9144 12.5407 10.8216 12.8994 10.8215M7.17452 6.59999H4.83584L4.99512 5.87178C5.05537 5.59633 5.29929 5.39999 5.58126 5.39999H6.4291C6.71107 5.39999 6.95499 5.59633 7.01524 5.87178L7.17452 6.59999ZM15.2491 4.49999H10.5717L10.9394 3.65952C11.0349 3.44111 11.2507 3.29999 11.4891 3.29999H14.3317C14.5701 3.29999 14.7858 3.44111 14.8814 3.65952L15.2491 4.49999ZM8.74307 12.9C8.74307 11.4149 9.53537 10.0426 10.8215 9.3C12.1077 8.55744 13.6923 8.55744 14.9784 9.3C16.2646 10.0426 17.0569 11.4149 17.0569 12.9C17.0569 14.3851 16.2646 15.7574 14.9784 16.5C13.6923 17.2426 12.1077 17.2426 10.8215 16.5C9.53537 15.7574 8.74307 14.3851 8.74307 12.9Z" stroke="#414141" stroke-linecap="round" stroke-linejoin="round"/>
</svg>
