<svg width="24" height="24" viewBox="0 0 24 24" fill="none" xmlns="http://www.w3.org/2000/svg">
<path d="M2.39999 9.6C2.39999 8.93726 2.93725 8.4 3.59999 8.4H15C15.6627 8.4 16.2 8.93726 16.2 9.6V18C16.2 18.6627 15.6627 19.2 15 19.2H3.59999C2.93725 19.2 2.39999 18.6627 2.39999 18V9.6Z" fill="#C2CCDE" fill-opacity="0.25"/>
<path d="M16.2 16.1163L20.7826 17.8981C21.1759 18.0511 21.6 17.7609 21.6 17.3389V10.453C21.6 10.031 21.1759 9.74088 20.7826 9.89381L16.2 11.6756V16.1163Z" fill="#C2CCDE" fill-opacity="0.25"/>
<path d="M12.6 11.4C12.6 11.7314 12.8686 12 13.2 12C13.5314 12 13.8 11.7314 13.8 11.4C13.8 11.0686 13.5314 10.8 13.2 10.8C12.8686 10.8 12.6 11.0686 12.6 11.4Z" fill="#C2CCDE" fill-opacity="0.25"/>
<path d="M14.4 4.8H7.19999C6.53725 4.8 5.99999 5.33726 5.99999 6V8.4M3.59999 19.2H15C15.6627 19.2 16.2 18.6627 16.2 18V9.6C16.2 8.93726 15.6627 8.4 15 8.4H3.59999C2.93725 8.4 2.39999 8.93726 2.39999 9.6V18C2.39999 18.6627 2.93725 19.2 3.59999 19.2ZM20.7826 17.8981L16.2 16.1163V11.6756L20.7826 9.89381C21.1759 9.74088 21.6 10.031 21.6 10.453V17.3389C21.6 17.7609 21.1759 18.0511 20.7826 17.8981ZM13.2 12C12.8686 12 12.6 11.7314 12.6 11.4C12.6 11.0686 12.8686 10.8 13.2 10.8C13.5314 10.8 13.8 11.0686 13.8 11.4C13.8 11.7314 13.5314 12 13.2 12Z" stroke="#5A5A5A" stroke-linecap="round" stroke-linejoin="round"/>
</svg>
