<svg width="24" height="24" viewBox="0 0 24 24" fill="none" xmlns="http://www.w3.org/2000/svg">
<path d="M12 19.8C16.3078 19.8 19.8 16.3078 19.8 12C19.8 7.69218 16.3078 4.2 12 4.2C7.69219 4.2 4.20001 7.69218 4.20001 12C4.20001 13.9679 4.92875 15.7655 6.13109 17.1378L4.80001 19.8L12 19.8Z" fill="#C2CCDE" fill-opacity="0.25"/>
<path d="M11.85 7.2V13.92M11.85 16.08V16.56M19.8 12C19.8 16.3078 16.3078 19.8 12 19.8L4.80001 19.8L6.13109 17.1378C4.92875 15.7655 4.20001 13.9679 4.20001 12C4.20001 7.69218 7.69219 4.2 12 4.2C16.3078 4.2 19.8 7.69218 19.8 12Z" stroke="#414141" stroke-linecap="round" stroke-linejoin="round"/>
</svg>
