<svg width="1023" height="102" viewBox="0 0 1023 102" fill="none" xmlns="http://www.w3.org/2000/svg">
<rect width="1023" height="102" rx="4" fill="#52C498"/>
<path d="M53.258 54.134C53.258 51.822 53.7907 49.748 54.856 47.912C55.944 46.076 57.406 44.648 59.242 43.628C61.1007 42.5853 63.1293 42.064 65.328 42.064C67.844 42.064 70.0767 42.6873 72.026 43.934C73.998 45.158 75.426 46.9033 76.31 49.17H71.652C71.04 47.9233 70.19 46.994 69.102 46.382C68.014 45.77 66.756 45.464 65.328 45.464C63.764 45.464 62.37 45.8153 61.146 46.518C59.922 47.2207 58.9587 48.2293 58.256 49.544C57.576 50.8587 57.236 52.3887 57.236 54.134C57.236 55.8793 57.576 57.4093 58.256 58.724C58.9587 60.0387 59.922 61.0587 61.146 61.784C62.37 62.4867 63.764 62.838 65.328 62.838C66.756 62.838 68.014 62.532 69.102 61.92C70.19 61.308 71.04 60.3787 71.652 59.132H76.31C75.426 61.3987 73.998 63.144 72.026 64.368C70.0767 65.592 67.844 66.204 65.328 66.204C63.1067 66.204 61.078 65.694 59.242 64.674C57.406 63.6313 55.944 62.192 54.856 60.356C53.7907 58.52 53.258 56.446 53.258 54.134ZM88.9729 66.306C87.2049 66.306 85.6069 65.9093 84.1789 65.116C82.7509 64.3 81.6289 63.1667 80.8129 61.716C79.9969 60.2427 79.5889 58.5427 79.5889 56.616C79.5889 54.712 80.0082 53.0233 80.8469 51.55C81.6855 50.0767 82.8302 48.9433 84.2809 48.15C85.7315 47.3567 87.3522 46.96 89.1429 46.96C90.9335 46.96 92.5542 47.3567 94.0049 48.15C95.4555 48.9433 96.6002 50.0767 97.4389 51.55C98.2775 53.0233 98.6969 54.712 98.6969 56.616C98.6969 58.52 98.2662 60.2087 97.4049 61.682C96.5435 63.1553 95.3649 64.3 93.8689 65.116C92.3955 65.9093 90.7635 66.306 88.9729 66.306ZM88.9729 62.94C89.9702 62.94 90.8995 62.702 91.7609 62.226C92.6449 61.75 93.3589 61.036 93.9029 60.084C94.4469 59.132 94.7189 57.976 94.7189 56.616C94.7189 55.256 94.4582 54.1113 93.9369 53.182C93.4155 52.23 92.7242 51.516 91.8629 51.04C91.0015 50.564 90.0722 50.326 89.0749 50.326C88.0775 50.326 87.1482 50.564 86.2869 51.04C85.4482 51.516 84.7795 52.23 84.2809 53.182C83.7822 54.1113 83.5329 55.256 83.5329 56.616C83.5329 58.6333 84.0429 60.1973 85.0629 61.308C86.1055 62.396 87.4089 62.94 88.9729 62.94ZM125.207 46.96C126.68 46.96 127.995 47.266 129.151 47.878C130.329 48.49 131.247 49.3967 131.905 50.598C132.585 51.7993 132.925 53.25 132.925 54.95V66H129.083V55.528C129.083 53.8507 128.663 52.57 127.825 51.686C126.986 50.7793 125.841 50.326 124.391 50.326C122.94 50.326 121.784 50.7793 120.923 51.686C120.084 52.57 119.665 53.8507 119.665 55.528V66H115.823V55.528C115.823 53.8507 115.403 52.57 114.565 51.686C113.726 50.7793 112.581 50.326 111.131 50.326C109.68 50.326 108.524 50.7793 107.663 51.686C106.824 52.57 106.405 53.8507 106.405 55.528V66H102.529V47.266H106.405V49.408C107.039 48.6373 107.844 48.0367 108.819 47.606C109.793 47.1753 110.836 46.96 111.947 46.96C113.443 46.96 114.78 47.2773 115.959 47.912C117.137 48.5467 118.044 49.4647 118.679 50.666C119.245 49.5327 120.129 48.6373 121.331 47.98C122.532 47.3 123.824 46.96 125.207 46.96ZM141.733 50.02C142.39 49.1587 143.285 48.4333 144.419 47.844C145.552 47.2547 146.833 46.96 148.261 46.96C149.893 46.96 151.377 47.368 152.715 48.184C154.075 48.9773 155.14 50.0993 155.911 51.55C156.681 53.0007 157.067 54.6667 157.067 56.548C157.067 58.4293 156.681 60.118 155.911 61.614C155.14 63.0873 154.075 64.2433 152.715 65.082C151.377 65.898 149.893 66.306 148.261 66.306C146.833 66.306 145.563 66.0227 144.453 65.456C143.342 64.8667 142.435 64.1413 141.733 63.28V74.908H137.857V47.266H141.733V50.02ZM153.123 56.548C153.123 55.256 152.851 54.1453 152.307 53.216C151.785 52.264 151.083 51.55 150.199 51.074C149.337 50.5753 148.408 50.326 147.411 50.326C146.436 50.326 145.507 50.5753 144.623 51.074C143.761 51.5727 143.059 52.298 142.515 53.25C141.993 54.202 141.733 55.324 141.733 56.616C141.733 57.908 141.993 59.0413 142.515 60.016C143.059 60.968 143.761 61.6933 144.623 62.192C145.507 62.6907 146.436 62.94 147.411 62.94C148.408 62.94 149.337 62.6907 150.199 62.192C151.083 61.6707 151.785 60.9227 152.307 59.948C152.851 58.9733 153.123 57.84 153.123 56.548ZM164.776 40.84V66H160.9V40.84H164.776ZM168.572 56.548C168.572 54.6667 168.958 53.0007 169.728 51.55C170.522 50.0993 171.587 48.9773 172.924 48.184C174.284 47.368 175.78 46.96 177.412 46.96C178.886 46.96 180.166 47.2547 181.254 47.844C182.365 48.4107 183.249 49.1247 183.906 49.986V47.266H187.816V66H183.906V63.212C183.249 64.096 182.354 64.8327 181.22 65.422C180.087 66.0113 178.795 66.306 177.344 66.306C175.735 66.306 174.262 65.898 172.924 65.082C171.587 64.2433 170.522 63.0873 169.728 61.614C168.958 60.118 168.572 58.4293 168.572 56.548ZM183.906 56.616C183.906 55.324 183.634 54.202 183.09 53.25C182.569 52.298 181.878 51.5727 181.016 51.074C180.155 50.5753 179.226 50.326 178.228 50.326C177.231 50.326 176.302 50.5753 175.44 51.074C174.579 51.55 173.876 52.264 173.332 53.216C172.811 54.1453 172.55 55.256 172.55 56.548C172.55 57.84 172.811 58.9733 173.332 59.948C173.876 60.9227 174.579 61.6707 175.44 62.192C176.324 62.6907 177.254 62.94 178.228 62.94C179.226 62.94 180.155 62.6907 181.016 62.192C181.878 61.6933 182.569 60.968 183.09 60.016C183.634 59.0413 183.906 57.908 183.906 56.616ZM194.879 44.784C194.177 44.784 193.587 44.546 193.111 44.07C192.635 43.594 192.397 43.0047 192.397 42.302C192.397 41.5993 192.635 41.01 193.111 40.534C193.587 40.058 194.177 39.82 194.879 39.82C195.559 39.82 196.137 40.058 196.613 40.534C197.089 41.01 197.327 41.5993 197.327 42.302C197.327 43.0047 197.089 43.594 196.613 44.07C196.137 44.546 195.559 44.784 194.879 44.784ZM196.783 47.266V66H192.907V47.266H196.783ZM211.324 46.96C212.798 46.96 214.112 47.266 215.268 47.878C216.447 48.49 217.365 49.3967 218.022 50.598C218.68 51.7993 219.008 53.25 219.008 54.95V66H215.166V55.528C215.166 53.8507 214.747 52.57 213.908 51.686C213.07 50.7793 211.925 50.326 210.474 50.326C209.024 50.326 207.868 50.7793 207.006 51.686C206.168 52.57 205.748 53.8507 205.748 55.528V66H201.872V47.266H205.748V49.408C206.383 48.6373 207.188 48.0367 208.162 47.606C209.16 47.1753 210.214 46.96 211.324 46.96Z" fill="#414141"/>
</svg>
