<svg width="4029" height="102" viewBox="0 0 4029 102" fill="none" xmlns="http://www.w3.org/2000/svg">
<rect width="4029" height="102" rx="4" fill="#52C498"/>
<path d="M53.258 54.134C53.258 51.822 53.7907 49.748 54.856 47.912C55.944 46.076 57.406 44.648 59.242 43.628C61.1007 42.5853 63.1293 42.064 65.328 42.064C67.844 42.064 70.0767 42.6873 72.026 43.934C73.998 45.158 75.426 46.9033 76.31 49.17H71.652C71.04 47.9233 70.19 46.994 69.102 46.382C68.014 45.77 66.756 45.464 65.328 45.464C63.764 45.464 62.37 45.8153 61.146 46.518C59.922 47.2207 58.9587 48.2293 58.256 49.544C57.576 50.8587 57.236 52.3887 57.236 54.134C57.236 55.8793 57.576 57.4093 58.256 58.724C58.9587 60.0387 59.922 61.0587 61.146 61.784C62.37 62.4867 63.764 62.838 65.328 62.838C66.756 62.838 68.014 62.532 69.102 61.92C70.19 61.308 71.04 60.3787 71.652 59.132H76.31C75.426 61.3987 73.998 63.144 72.026 64.368C70.0767 65.592 67.844 66.204 65.328 66.204C63.1067 66.204 61.078 65.694 59.242 64.674C57.406 63.6313 55.944 62.192 54.856 60.356C53.7907 58.52 53.258 56.446 53.258 54.134ZM88.9729 66.306C87.2049 66.306 85.6069 65.9093 84.1789 65.116C82.7509 64.3 81.6289 63.1667 80.8129 61.716C79.9969 60.2427 79.5889 58.5427 79.5889 56.616C79.5889 54.712 80.0082 53.0233 80.8469 51.55C81.6855 50.0767 82.8302 48.9433 84.2809 48.15C85.7315 47.3567 87.3522 46.96 89.1429 46.96C90.9335 46.96 92.5542 47.3567 94.0049 48.15C95.4555 48.9433 96.6002 50.0767 97.4389 51.55C98.2775 53.0233 98.6969 54.712 98.6969 56.616C98.6969 58.52 98.2662 60.2087 97.4049 61.682C96.5435 63.1553 95.3649 64.3 93.8689 65.116C92.3955 65.9093 90.7635 66.306 88.9729 66.306ZM88.9729 62.94C89.9702 62.94 90.8995 62.702 91.7609 62.226C92.6449 61.75 93.3589 61.036 93.9029 60.084C94.4469 59.132 94.7189 57.976 94.7189 56.616C94.7189 55.256 94.4582 54.1113 93.9369 53.182C93.4155 52.23 92.7242 51.516 91.8629 51.04C91.0015 50.564 90.0722 50.326 89.0749 50.326C88.0775 50.326 87.1482 50.564 86.2869 51.04C85.4482 51.516 84.7795 52.23 84.2809 53.182C83.7822 54.1113 83.5329 55.256 83.5329 56.616C83.5329 58.6333 84.0429 60.1973 85.0629 61.308C86.1055 62.396 87.4089 62.94 88.9729 62.94ZM111.981 46.96C113.454 46.96 114.769 47.266 115.925 47.878C117.103 48.49 118.021 49.3967 118.679 50.598C119.336 51.7993 119.665 53.25 119.665 54.95V66H115.823V55.528C115.823 53.8507 115.403 52.57 114.565 51.686C113.726 50.7793 112.581 50.326 111.131 50.326C109.68 50.326 108.524 50.7793 107.663 51.686C106.824 52.57 106.405 53.8507 106.405 55.528V66H102.529V47.266H106.405V49.408C107.039 48.6373 107.844 48.0367 108.819 47.606C109.816 47.1753 110.87 46.96 111.981 46.96ZM129.131 50.428V60.798C129.131 61.5007 129.289 62.0107 129.607 62.328C129.947 62.6227 130.513 62.77 131.307 62.77H133.687V66H130.627C128.881 66 127.544 65.592 126.615 64.776C125.685 63.96 125.221 62.634 125.221 60.798V50.428H123.011V47.266H125.221V42.608H129.131V47.266H133.687V50.428H129.131ZM135.967 56.548C135.967 54.6667 136.352 53.0007 137.123 51.55C137.916 50.0993 138.982 48.9773 140.319 48.184C141.679 47.368 143.175 46.96 144.807 46.96C146.28 46.96 147.561 47.2547 148.649 47.844C149.76 48.4107 150.644 49.1247 151.301 49.986V47.266H155.211V66H151.301V63.212C150.644 64.096 149.748 64.8327 148.615 65.422C147.482 66.0113 146.19 66.306 144.739 66.306C143.13 66.306 141.656 65.898 140.319 65.082C138.982 64.2433 137.916 63.0873 137.123 61.614C136.352 60.118 135.967 58.4293 135.967 56.548ZM151.301 56.616C151.301 55.324 151.029 54.202 150.485 53.25C149.964 52.298 149.272 51.5727 148.411 51.074C147.55 50.5753 146.62 50.326 145.623 50.326C144.626 50.326 143.696 50.5753 142.835 51.074C141.974 51.55 141.271 52.264 140.727 53.216C140.206 54.1453 139.945 55.256 139.945 56.548C139.945 57.84 140.206 58.9733 140.727 59.948C141.271 60.9227 141.974 61.6707 142.835 62.192C143.719 62.6907 144.648 62.94 145.623 62.94C146.62 62.94 147.55 62.6907 148.411 62.192C149.272 61.6933 149.964 60.968 150.485 60.016C151.029 59.0413 151.301 57.908 151.301 56.616ZM159.01 56.616C159.01 54.6893 159.395 53.0007 160.166 51.55C160.959 50.0767 162.047 48.9433 163.43 48.15C164.813 47.3567 166.399 46.96 168.19 46.96C170.457 46.96 172.327 47.504 173.8 48.592C175.296 49.6573 176.305 51.1873 176.826 53.182H172.644C172.304 52.2527 171.76 51.5273 171.012 51.006C170.264 50.4847 169.323 50.224 168.19 50.224C166.603 50.224 165.334 50.7907 164.382 51.924C163.453 53.0347 162.988 54.5987 162.988 56.616C162.988 58.6333 163.453 60.2087 164.382 61.342C165.334 62.4753 166.603 63.042 168.19 63.042C170.434 63.042 171.919 62.056 172.644 60.084H176.826C176.282 61.988 175.262 63.5067 173.766 64.64C172.27 65.7507 170.411 66.306 168.19 66.306C166.399 66.306 164.813 65.9093 163.43 65.116C162.047 64.3 160.959 63.1667 160.166 61.716C159.395 60.2427 159.01 58.5427 159.01 56.616ZM185.211 50.428V60.798C185.211 61.5007 185.369 62.0107 185.687 62.328C186.027 62.6227 186.593 62.77 187.387 62.77H189.767V66H186.707C184.961 66 183.624 65.592 182.695 64.776C181.765 63.96 181.301 62.634 181.301 60.798V50.428H179.091V47.266H181.301V42.608H185.211V47.266H189.767V50.428H185.211ZM200.879 56.548C200.879 54.6667 201.264 53.0007 202.035 51.55C202.828 50.0993 203.894 48.9773 205.231 48.184C206.591 47.368 208.087 46.96 209.719 46.96C211.192 46.96 212.473 47.2547 213.561 47.844C214.672 48.4107 215.556 49.1247 216.213 49.986V47.266H220.123V66H216.213V63.212C215.556 64.096 214.66 64.8327 213.527 65.422C212.394 66.0113 211.102 66.306 209.651 66.306C208.042 66.306 206.568 65.898 205.231 65.082C203.894 64.2433 202.828 63.0873 202.035 61.614C201.264 60.118 200.879 58.4293 200.879 56.548ZM216.213 56.616C216.213 55.324 215.941 54.202 215.397 53.25C214.876 52.298 214.184 51.5727 213.323 51.074C212.462 50.5753 211.532 50.326 210.535 50.326C209.538 50.326 208.608 50.5753 207.747 51.074C206.886 51.55 206.183 52.264 205.639 53.216C205.118 54.1453 204.857 55.256 204.857 56.548C204.857 57.84 205.118 58.9733 205.639 59.948C206.183 60.9227 206.886 61.6707 207.747 62.192C208.631 62.6907 209.56 62.94 210.535 62.94C211.532 62.94 212.462 62.6907 213.323 62.192C214.184 61.6933 214.876 60.968 215.397 60.016C215.941 59.0413 216.213 57.908 216.213 56.616ZM234.666 46.96C236.139 46.96 237.454 47.266 238.61 47.878C239.789 48.49 240.707 49.3967 241.364 50.598C242.021 51.7993 242.35 53.25 242.35 54.95V66H238.508V55.528C238.508 53.8507 238.089 52.57 237.25 51.686C236.411 50.7793 235.267 50.326 233.816 50.326C232.365 50.326 231.209 50.7793 230.348 51.686C229.509 52.57 229.09 53.8507 229.09 55.528V66H225.214V47.266H229.09V49.408C229.725 48.6373 230.529 48.0367 231.504 47.606C232.501 47.1753 233.555 46.96 234.666 46.96ZM246.002 56.548C246.002 54.6667 246.387 53.0007 247.158 51.55C247.951 50.0993 249.017 48.9773 250.354 48.184C251.714 47.368 253.221 46.96 254.876 46.96C256.1 46.96 257.301 47.232 258.48 47.776C259.681 48.2973 260.633 49 261.336 49.884V40.84H265.246V66H261.336V63.178C260.701 64.0847 259.817 64.8327 258.684 65.422C257.573 66.0113 256.293 66.306 254.842 66.306C253.21 66.306 251.714 65.898 250.354 65.082C249.017 64.2433 247.951 63.0873 247.158 61.614C246.387 60.118 246.002 58.4293 246.002 56.548ZM261.336 56.616C261.336 55.324 261.064 54.202 260.52 53.25C259.999 52.298 259.307 51.5727 258.446 51.074C257.585 50.5753 256.655 50.326 255.658 50.326C254.661 50.326 253.731 50.5753 252.87 51.074C252.009 51.55 251.306 52.264 250.762 53.216C250.241 54.1453 249.98 55.256 249.98 56.548C249.98 57.84 250.241 58.9733 250.762 59.948C251.306 60.9227 252.009 61.6707 252.87 62.192C253.754 62.6907 254.683 62.94 255.658 62.94C256.655 62.94 257.585 62.6907 258.446 62.192C259.307 61.6933 259.999 60.968 260.52 60.016C261.064 59.0413 261.336 57.908 261.336 56.616ZM295.693 49.408C295.693 50.6093 295.41 51.7427 294.843 52.808C294.276 53.8733 293.37 54.746 292.123 55.426C290.876 56.0833 289.278 56.412 287.329 56.412H283.045V66H279.169V42.37H287.329C289.142 42.37 290.672 42.6873 291.919 43.322C293.188 43.934 294.129 44.7727 294.741 45.838C295.376 46.9033 295.693 48.0933 295.693 49.408ZM287.329 53.25C288.802 53.25 289.902 52.9213 290.627 52.264C291.352 51.584 291.715 50.632 291.715 49.408C291.715 46.824 290.253 45.532 287.329 45.532H283.045V53.25H287.329ZM298.098 56.548C298.098 54.6667 298.483 53.0007 299.254 51.55C300.047 50.0993 301.113 48.9773 302.45 48.184C303.81 47.368 305.306 46.96 306.938 46.96C308.411 46.96 309.692 47.2547 310.78 47.844C311.891 48.4107 312.775 49.1247 313.432 49.986V47.266H317.342V66H313.432V63.212C312.775 64.096 311.879 64.8327 310.746 65.422C309.613 66.0113 308.321 66.306 306.87 66.306C305.261 66.306 303.787 65.898 302.45 65.082C301.113 64.2433 300.047 63.0873 299.254 61.614C298.483 60.118 298.098 58.4293 298.098 56.548ZM313.432 56.616C313.432 55.324 313.16 54.202 312.616 53.25C312.095 52.298 311.403 51.5727 310.542 51.074C309.681 50.5753 308.751 50.326 307.754 50.326C306.757 50.326 305.827 50.5753 304.966 51.074C304.105 51.55 303.402 52.264 302.858 53.216C302.337 54.1453 302.076 55.256 302.076 56.548C302.076 57.84 302.337 58.9733 302.858 59.948C303.402 60.9227 304.105 61.6707 304.966 62.192C305.85 62.6907 306.779 62.94 307.754 62.94C308.751 62.94 309.681 62.6907 310.542 62.192C311.403 61.6933 312.095 60.968 312.616 60.016C313.16 59.0413 313.432 57.908 313.432 56.616ZM339.297 47.266L327.805 74.806H323.793L327.601 65.694L320.223 47.266H324.541L329.811 61.546L335.285 47.266H339.297ZM364.9 46.96C366.373 46.96 367.688 47.266 368.844 47.878C370.023 48.49 370.941 49.3967 371.598 50.598C372.278 51.7993 372.618 53.25 372.618 54.95V66H368.776V55.528C368.776 53.8507 368.357 52.57 367.518 51.686C366.679 50.7793 365.535 50.326 364.084 50.326C362.633 50.326 361.477 50.7793 360.616 51.686C359.777 52.57 359.358 53.8507 359.358 55.528V66H355.516V55.528C355.516 53.8507 355.097 52.57 354.258 51.686C353.419 50.7793 352.275 50.326 350.824 50.326C349.373 50.326 348.217 50.7793 347.356 51.686C346.517 52.57 346.098 53.8507 346.098 55.528V66H342.222V47.266H346.098V49.408C346.733 48.6373 347.537 48.0367 348.512 47.606C349.487 47.1753 350.529 46.96 351.64 46.96C353.136 46.96 354.473 47.2773 355.652 47.912C356.831 48.5467 357.737 49.4647 358.372 50.666C358.939 49.5327 359.823 48.6373 361.024 47.98C362.225 47.3 363.517 46.96 364.9 46.96ZM394.72 56.174C394.72 56.8767 394.675 57.5113 394.584 58.078H380.27C380.383 59.574 380.939 60.7753 381.936 61.682C382.933 62.5887 384.157 63.042 385.608 63.042C387.693 63.042 389.167 62.1693 390.028 60.424H394.21C393.643 62.1467 392.612 63.5633 391.116 64.674C389.643 65.762 387.807 66.306 385.608 66.306C383.817 66.306 382.208 65.9093 380.78 65.116C379.375 64.3 378.264 63.1667 377.448 61.716C376.655 60.2427 376.258 58.5427 376.258 56.616C376.258 54.6893 376.643 53.0007 377.414 51.55C378.207 50.0767 379.307 48.9433 380.712 48.15C382.14 47.3567 383.772 46.96 385.608 46.96C387.376 46.96 388.951 47.3453 390.334 48.116C391.717 48.8867 392.793 49.9747 393.564 51.38C394.335 52.7627 394.72 54.3607 394.72 56.174ZM390.674 54.95C390.651 53.522 390.141 52.3773 389.144 51.516C388.147 50.6547 386.911 50.224 385.438 50.224C384.101 50.224 382.956 50.6547 382.004 51.516C381.052 52.3547 380.485 53.4993 380.304 54.95H390.674ZM407.986 46.96C409.46 46.96 410.774 47.266 411.93 47.878C413.109 48.49 414.027 49.3967 414.684 50.598C415.342 51.7993 415.67 53.25 415.67 54.95V66H411.828V55.528C411.828 53.8507 411.409 52.57 410.57 51.686C409.732 50.7793 408.587 50.326 407.136 50.326C405.686 50.326 404.53 50.7793 403.668 51.686C402.83 52.57 402.41 53.8507 402.41 55.528V66H398.534V47.266H402.41V49.408C403.045 48.6373 403.85 48.0367 404.824 47.606C405.822 47.1753 406.876 46.96 407.986 46.96ZM425.136 50.428V60.798C425.136 61.5007 425.295 62.0107 425.612 62.328C425.952 62.6227 426.519 62.77 427.312 62.77H429.692V66H426.632C424.887 66 423.55 65.592 422.62 64.776C421.691 63.96 421.226 62.634 421.226 60.798V50.428H419.016V47.266H421.226V42.608H425.136V47.266H429.692V50.428H425.136Z" fill="#414141"/>
</svg>
