<svg width="24" height="24" viewBox="0 0 24 24" fill="none" xmlns="http://www.w3.org/2000/svg">
<path d="M8.99999 16.5002V11.1008V8.70034C8.99999 8.03751 9.53738 7.50022 10.2002 7.50034L12.6571 7.50078L15 7.50052V5.10034C15 4.43751 14.4626 3.90022 13.7998 3.90034L6.60013 3.90025C5.93733 3.90018 5.4 4.43746 5.39999 5.10025L5.39999 15.3002C5.39999 15.963 5.93725 16.5002 6.59999 16.5002H8.99999Z" fill="#C2CCDE" fill-opacity="0.25"/>
<path d="M10.2 20.1002C9.53725 20.1002 8.99999 19.563 8.99999 18.9002V11.1008V8.70034C8.99999 8.03751 9.53738 7.50022 10.2002 7.50034L12.6571 7.50078L17.3999 7.50024C18.0627 7.50016 18.6 8.03744 18.6 8.70023L18.6 18.9002C18.6 19.563 18.0627 20.1002 17.4 20.1002H10.2Z" fill="#C2CCDE" fill-opacity="0.25"/>
<path d="M8.99999 11.1008V16.5002H6.59999C5.93725 16.5002 5.39999 15.963 5.39999 15.3002L5.39999 5.10025C5.4 4.43746 5.93733 3.90018 6.60013 3.90025L13.7998 3.90034C14.4626 3.90022 15 4.43751 15 5.10034V7.50052L12.6571 7.50078M8.99999 11.1008V8.70034C8.99999 8.03751 9.53738 7.50022 10.2002 7.50034L12.6571 7.50078M8.99999 11.1008V18.9002C8.99999 19.563 9.53725 20.1002 10.2 20.1002H17.4C18.0627 20.1002 18.6 19.563 18.6 18.9002L18.6 8.70023C18.6 8.03744 18.0627 7.50016 17.3999 7.50024L12.6571 7.50078" stroke="#414141" stroke-linecap="round" stroke-linejoin="round"/>
</svg>
