<svg width="24" height="24" viewBox="0 0 24 24" fill="none" xmlns="http://www.w3.org/2000/svg">
<path d="M9.68571 9.98571C9.56589 10.1055 9.56589 10.2998 9.68571 10.4196C9.80553 10.5394 9.9998 10.5394 10.1196 10.4196C10.2394 10.2998 10.2394 10.1055 10.1196 9.98571C9.9998 9.86589 9.80553 9.86589 9.68571 9.98571Z" fill="#414141"/>
<path d="M13.8705 14.6044C13.7507 14.4846 13.7507 14.2903 13.8705 14.1705C13.9903 14.0507 14.1846 14.0507 14.3044 14.1705C14.4242 14.2903 14.4242 14.4846 14.3044 14.6044C14.1846 14.7242 13.9903 14.7242 13.8705 14.6044Z" fill="#414141"/>
<path fill-rule="evenodd" clip-rule="evenodd" d="M17.7276 6.27243C16.8742 5.41907 15.5917 5.25633 14.5746 5.78434C14.2288 4.69181 13.2068 3.9 12 3.9C10.7932 3.9 9.77119 4.69181 9.42539 5.78434C8.40833 5.25633 7.1258 5.41907 6.27243 6.27243C5.41906 7.1258 5.25632 8.40834 5.78434 9.42539C4.69181 9.77119 3.89999 10.7932 3.89999 12C3.89999 13.2068 4.69181 14.2288 5.78434 14.5746C5.25632 15.5917 5.41906 16.8742 6.27243 17.7276C7.1258 18.5809 8.40833 18.7437 9.42539 18.2157C9.77119 19.3082 10.7932 20.1 12 20.1C13.2068 20.1 14.2288 19.3082 14.5746 18.2157C15.5917 18.7437 16.8742 18.5809 17.7276 17.7276C18.5809 16.8742 18.7437 15.5917 18.2157 14.5746C19.3082 14.2288 20.1 13.2068 20.1 12C20.1 10.7932 19.3082 9.77119 18.2157 9.42539C18.7437 8.40834 18.5809 7.1258 17.7276 6.27243ZM8.10195 14.978C7.80906 15.2709 7.80906 15.7458 8.10195 16.0387C8.39485 16.3316 8.86972 16.3316 9.16261 16.0387L15.7387 9.46261C16.0316 9.16972 16.0316 8.69484 15.7387 8.40195C15.4458 8.10906 14.9709 8.10906 14.678 8.40195L8.10195 14.978ZM8.62505 11.4803C7.91944 10.7747 7.91944 9.63066 8.62505 8.92505C9.33066 8.21944 10.4747 8.21944 11.1803 8.92505C11.8859 9.63066 11.8859 10.7747 11.1803 11.4803C10.4747 12.1859 9.33066 12.1859 8.62505 11.4803ZM12.8098 13.1098C12.1042 13.8154 12.1042 14.9595 12.8098 15.6651C13.5154 16.3707 14.6595 16.3707 15.3651 15.6651C16.0707 14.9595 16.0707 13.8154 15.3651 13.1098C14.6595 12.4042 13.5154 12.4042 12.8098 13.1098Z" fill="#414141"/>
</svg>
