<svg width="24" height="24" viewBox="0 0 24 24" fill="none" xmlns="http://www.w3.org/2000/svg">
<path d="M15.028 5.71392C16.1027 5.20997 17.4227 5.40191 18.3104 6.28959C19.1981 7.17727 19.39 8.49731 18.8861 9.57195C20.0023 9.9755 20.8 11.0446 20.8 12.3C20.8 13.5554 20.0023 14.6245 18.8861 15.028C19.39 16.1027 19.1981 17.4227 18.3104 18.3104C17.4227 19.1981 16.1027 19.39 15.028 18.8861C14.6245 20.0023 13.5554 20.8 12.3 20.8C11.0446 20.8 9.97549 20.0023 9.57195 18.8861C8.4973 19.39 7.17726 19.1981 6.28958 18.3104C5.4019 17.4227 5.20996 16.1027 5.71391 15.028C4.59768 14.6245 3.79999 13.5554 3.79999 12.3C3.79999 11.0446 4.59768 9.9755 5.71391 9.57195C5.20996 8.49731 5.4019 7.17727 6.28958 6.28959C7.17726 5.40191 8.4973 5.20997 9.57194 5.71392C9.97549 4.59769 11.0446 3.8 12.3 3.8C13.5554 3.8 14.6245 4.59769 15.028 5.71392Z" fill="#C2CCDE" fill-opacity="0.25"/>
<path d="M9.15537 10.9499C8.74266 10.5372 8.74266 9.86809 9.15538 9.45538C9.56809 9.04267 10.2372 9.04267 10.6499 9.45538C11.0627 9.86809 11.0627 10.5372 10.6499 10.9499C10.2372 11.3627 9.56809 11.3627 9.15537 10.9499Z" fill="#C2CCDE" fill-opacity="0.25"/>
<path d="M13.3402 15.1347C12.9274 14.722 12.9274 14.0529 13.3402 13.6402C13.7529 13.2275 14.422 13.2275 14.8347 13.6402C15.2474 14.0529 15.2474 14.722 14.8347 15.1347C14.422 15.5474 13.7529 15.5474 13.3402 15.1347Z" fill="#C2CCDE" fill-opacity="0.25"/>
<path d="M15.2084 8.93228L8.63228 15.5084M18.3104 6.28959C17.4227 5.40191 16.1027 5.20997 15.028 5.71392C14.6245 4.59769 13.5554 3.8 12.3 3.8C11.0446 3.8 9.97549 4.59769 9.57194 5.71392C8.4973 5.20997 7.17726 5.40191 6.28958 6.28959C5.4019 7.17727 5.20996 8.49731 5.71391 9.57195C4.59768 9.9755 3.79999 11.0446 3.79999 12.3C3.79999 13.5554 4.59768 14.6245 5.71391 15.028C5.20996 16.1027 5.4019 17.4227 6.28958 18.3104C7.17726 19.1981 8.4973 19.39 9.57195 18.8861C9.97549 20.0023 11.0446 20.8 12.3 20.8C13.5554 20.8 14.6245 20.0023 15.028 18.8861C16.1027 19.39 17.4227 19.1981 18.3104 18.3104C19.1981 17.4227 19.39 16.1027 18.8861 15.028C20.0023 14.6245 20.8 13.5554 20.8 12.3C20.8 11.0446 20.0023 9.9755 18.8861 9.57195C19.39 8.49731 19.1981 7.17727 18.3104 6.28959ZM10.6499 10.9499C10.2372 11.3627 9.56809 11.3627 9.15537 10.9499C8.74266 10.5372 8.74266 9.86809 9.15537 9.45538C9.56809 9.04267 10.2372 9.04267 10.6499 9.45538C11.0627 9.86809 11.0627 10.5372 10.6499 10.9499ZM14.8347 15.1347C14.422 15.5474 13.7529 15.5474 13.3402 15.1347C12.9274 14.722 12.9274 14.0529 13.3402 13.6402C13.7529 13.2275 14.422 13.2275 14.8347 13.6402C15.2474 14.0529 15.2474 14.722 14.8347 15.1347Z" stroke="#414141" stroke-linecap="round" stroke-linejoin="round"/>
</svg>
