<svg width="24" height="24" viewBox="0 0 24 24" fill="none" xmlns="http://www.w3.org/2000/svg">
<g opacity="0.9">
<path d="M20.9899 11.9998L21.4375 12.2225L21.5483 11.9998L21.4375 11.777L20.9899 11.9998ZM19.8381 13.7317L19.4595 13.4051L19.4595 13.4051L19.8381 13.7317ZM19.666 13.9312L20.0446 14.2578V14.2578L19.666 13.9312ZM5.33379 13.9312L5.71237 13.6046H5.71237L5.33379 13.9312ZM5.16166 13.7317L4.78308 14.0583H4.78308L5.16166 13.7317ZM4.01013 12.0002L3.56249 11.7775L3.45164 12.0002L3.5625 12.223L4.01013 12.0002ZM5.16189 10.2683L4.78331 9.94167H4.78331L5.16189 10.2683ZM5.33402 10.0688L5.7126 10.3954H5.7126L5.33402 10.0688ZM19.6662 10.0688L19.2876 10.3954L19.6662 10.0688ZM19.8383 10.2683L19.4597 10.5949L19.8383 10.2683ZM20.5422 11.777C20.2539 12.3564 19.8919 12.904 19.4595 13.4051L20.2167 14.0583C20.7041 13.4934 21.1124 12.8759 21.4375 12.2225L20.5422 11.777ZM19.4595 13.4051L19.2874 13.6046L20.0446 14.2578L20.2167 14.0583L19.4595 13.4051ZM19.2874 13.6046C17.7013 15.4431 15.3936 16.5 12.9655 16.5V17.5C15.6844 17.5 18.2685 16.3165 20.0446 14.2578L19.2874 13.6046ZM12.9655 16.5H12.0342V17.5H12.9655V16.5ZM12.0342 16.5C9.6062 16.5 7.29842 15.4431 5.71237 13.6046L4.9552 14.2578C6.73122 16.3165 9.3154 17.5 12.0342 17.5V16.5ZM5.71237 13.6046L5.54024 13.4051L4.78308 14.0583L4.9552 14.2578L5.71237 13.6046ZM5.54025 13.4051C5.10799 12.9041 4.74603 12.3567 4.45776 11.7775L3.5625 12.223C3.8876 12.8762 4.2958 13.4935 4.78308 14.0583L5.54025 13.4051ZM4.78331 9.94167C4.29591 10.5066 3.88763 11.1241 3.56249 11.7775L4.45777 12.223C4.74608 11.6436 5.10812 11.096 5.54048 10.5949L4.78331 9.94167ZM4.95543 9.74215L4.78331 9.94167L5.54048 10.5949L5.7126 10.3954L4.95543 9.74215ZM12.0345 6.5C9.31563 6.5 6.73145 7.68354 4.95543 9.74215L5.7126 10.3954C7.29865 8.55695 9.60643 7.5 12.0345 7.5V6.5ZM12.9657 6.5L12.0345 6.5V7.5H12.9657V6.5ZM20.0448 9.74215C18.2688 7.68354 15.6846 6.5 12.9657 6.5V7.5C15.3938 7.5 17.7016 8.55695 19.2876 10.3954L20.0448 9.74215ZM20.2169 9.94167L20.0448 9.74215L19.2876 10.3954L19.4597 10.5949L20.2169 9.94167ZM21.4375 11.777C21.1124 11.1238 20.7042 10.5065 20.2169 9.94167L19.4597 10.5949C19.892 11.0959 20.254 11.6433 20.5422 12.2225L21.4375 11.777Z" fill="#414141"/>
<path d="M11.2555 14.4863C12.0526 14.8153 12.9474 14.8153 13.7445 14.4863L14.0894 14.3439C14.8122 14.0456 15.3545 13.427 15.5557 12.6713V12.6713C15.7776 11.8381 15.5558 10.9493 14.9685 10.318L14.8532 10.1942C14.321 9.62208 13.5747 9.29709 12.7933 9.29709H12.2067C11.4253 9.29709 10.679 9.62208 10.1468 10.1942L10.0315 10.318C9.4442 10.9493 9.2224 11.8381 9.44428 12.6713V12.6713C9.64551 13.427 10.1878 14.0456 10.9106 14.3439L11.2555 14.4863Z" stroke="#414141"/>
</g>
</svg>
