<svg width="478" height="102" viewBox="0 0 478 102" fill="none" xmlns="http://www.w3.org/2000/svg">
<rect width="478" height="102" rx="4" fill="#52C498"/>
<path d="M68.456 42.37V45.532H58.426V52.502H66.246V55.664H58.426V66H54.55V42.37H68.456ZM70.756 56.548C70.756 54.6667 71.1414 53.0007 71.912 51.55C72.7054 50.0993 73.7707 48.9773 75.108 48.184C76.468 47.368 77.964 46.96 79.596 46.96C81.0694 46.96 82.35 47.2547 83.438 47.844C84.5487 48.4107 85.4327 49.1247 86.09 49.986V47.266H90V66H86.09V63.212C85.4327 64.096 84.5374 64.8327 83.404 65.422C82.2707 66.0113 80.9787 66.306 79.528 66.306C77.9187 66.306 76.4454 65.898 75.108 65.082C73.7707 64.2433 72.7054 63.0873 71.912 61.614C71.1414 60.118 70.756 58.4293 70.756 56.548ZM86.09 56.616C86.09 55.324 85.818 54.202 85.274 53.25C84.7527 52.298 84.0614 51.5727 83.2 51.074C82.3387 50.5753 81.4094 50.326 80.412 50.326C79.4147 50.326 78.4854 50.5753 77.624 51.074C76.7627 51.55 76.06 52.264 75.516 53.216C74.9947 54.1453 74.734 55.256 74.734 56.548C74.734 57.84 74.9947 58.9733 75.516 59.948C76.06 60.9227 76.7627 61.6707 77.624 62.192C78.508 62.6907 79.4374 62.94 80.412 62.94C81.4094 62.94 82.3387 62.6907 83.2 62.192C84.0614 61.6933 84.7527 60.968 85.274 60.016C85.818 59.0413 86.09 57.908 86.09 56.616ZM102.333 62.532L107.637 47.266H111.751L104.611 66H99.987L92.881 47.266H97.029L102.333 62.532ZM122.807 66.306C121.039 66.306 119.441 65.9093 118.013 65.116C116.585 64.3 115.463 63.1667 114.647 61.716C113.831 60.2427 113.423 58.5427 113.423 56.616C113.423 54.712 113.842 53.0233 114.681 51.55C115.52 50.0767 116.664 48.9433 118.115 48.15C119.566 47.3567 121.186 46.96 122.977 46.96C124.768 46.96 126.388 47.3567 127.839 48.15C129.29 48.9433 130.434 50.0767 131.273 51.55C132.112 53.0233 132.531 54.712 132.531 56.616C132.531 58.52 132.1 60.2087 131.239 61.682C130.378 63.1553 129.199 64.3 127.703 65.116C126.23 65.9093 124.598 66.306 122.807 66.306ZM122.807 62.94C123.804 62.94 124.734 62.702 125.595 62.226C126.479 61.75 127.193 61.036 127.737 60.084C128.281 59.132 128.553 57.976 128.553 56.616C128.553 55.256 128.292 54.1113 127.771 53.182C127.25 52.23 126.558 51.516 125.697 51.04C124.836 50.564 123.906 50.326 122.909 50.326C121.912 50.326 120.982 50.564 120.121 51.04C119.282 51.516 118.614 52.23 118.115 53.182C117.616 54.1113 117.367 55.256 117.367 56.616C117.367 58.6333 117.877 60.1973 118.897 61.308C119.94 62.396 121.243 62.94 122.807 62.94ZM153.329 47.266V66H149.453V63.79C148.841 64.5607 148.036 65.1727 147.039 65.626C146.064 66.0567 145.021 66.272 143.911 66.272C142.437 66.272 141.111 65.966 139.933 65.354C138.777 64.742 137.859 63.8353 137.179 62.634C136.521 61.4327 136.193 59.982 136.193 58.282V47.266H140.035V57.704C140.035 59.3813 140.454 60.6733 141.293 61.58C142.131 62.464 143.276 62.906 144.727 62.906C146.177 62.906 147.322 62.464 148.161 61.58C149.022 60.6733 149.453 59.3813 149.453 57.704V47.266H153.329ZM162.319 49.986C162.885 49.034 163.633 48.2973 164.563 47.776C165.515 47.232 166.637 46.96 167.929 46.96V50.972H166.943C165.424 50.972 164.268 51.3573 163.475 52.128C162.704 52.8987 162.319 54.236 162.319 56.14V66H158.443V47.266H162.319V49.986ZM173.463 44.784C172.761 44.784 172.171 44.546 171.695 44.07C171.219 43.594 170.981 43.0047 170.981 42.302C170.981 41.5993 171.219 41.01 171.695 40.534C172.171 40.058 172.761 39.82 173.463 39.82C174.143 39.82 174.721 40.058 175.197 40.534C175.673 41.01 175.911 41.5993 175.911 42.302C175.911 43.0047 175.673 43.594 175.197 44.07C174.721 44.546 174.143 44.784 173.463 44.784ZM175.367 47.266V66H171.491V47.266H175.367ZM184.978 50.428V60.798C184.978 61.5007 185.137 62.0107 185.454 62.328C185.794 62.6227 186.361 62.77 187.154 62.77H189.534V66H186.474C184.729 66 183.392 65.592 182.462 64.776C181.533 63.96 181.068 62.634 181.068 60.798V50.428H178.858V47.266H181.068V42.608H184.978V47.266H189.534V50.428H184.978ZM210.277 56.174C210.277 56.8767 210.231 57.5113 210.141 58.078H195.827C195.94 59.574 196.495 60.7753 197.493 61.682C198.49 62.5887 199.714 63.042 201.165 63.042C203.25 63.042 204.723 62.1693 205.585 60.424H209.767C209.2 62.1467 208.169 63.5633 206.673 64.674C205.199 65.762 203.363 66.306 201.165 66.306C199.374 66.306 197.765 65.9093 196.337 65.116C194.931 64.3 193.821 63.1667 193.005 61.716C192.211 60.2427 191.815 58.5427 191.815 56.616C191.815 54.6893 192.2 53.0007 192.971 51.55C193.764 50.0767 194.863 48.9433 196.269 48.15C197.697 47.3567 199.329 46.96 201.165 46.96C202.933 46.96 204.508 47.3453 205.891 48.116C207.273 48.8867 208.35 49.9747 209.121 51.38C209.891 52.7627 210.277 54.3607 210.277 56.174ZM206.231 54.95C206.208 53.522 205.698 52.3773 204.701 51.516C203.703 50.6547 202.468 50.224 200.995 50.224C199.657 50.224 198.513 50.6547 197.561 51.516C196.609 52.3547 196.042 53.4993 195.861 54.95H206.231Z" fill="#414141"/>
</svg>
