<svg width="24" height="24" viewBox="0 0 24 24" fill="none" xmlns="http://www.w3.org/2000/svg">
<path fill-rule="evenodd" clip-rule="evenodd" d="M5.21184 6.24173C4.42419 7.02938 3.98169 8.09767 3.98169 9.21158C3.98169 10.3255 4.42419 11.3938 5.21184 12.1814L12.0001 18.9697L18.7883 12.1814C19.5759 11.3938 20.0184 10.3255 20.0184 9.21158C20.0184 8.09767 19.5759 7.02938 18.7883 6.24173C18.0006 5.45408 16.9324 5.01158 15.8184 5.01158C14.7045 5.01158 13.6362 5.45408 12.8486 6.24173L12.2074 6.88295L12.0001 7.09026L11.7928 6.88295L11.1515 6.24173C10.3639 5.45408 9.2956 5.01158 8.18169 5.01158C7.06778 5.01158 5.99949 5.45408 5.21184 6.24173Z" fill="#414141"/>
<path d="M3.98169 9.21158H1.48169V9.21158L3.98169 9.21158ZM12.0001 18.9697L10.2323 20.7374C10.7011 21.2063 11.337 21.4697 12.0001 21.4697C12.6631 21.4697 13.299 21.2063 13.7678 20.7374L12.0001 18.9697ZM18.7883 12.1814L17.0205 10.4137L18.7883 12.1814ZM20.0184 9.21158L17.5184 9.21158V9.21158L20.0184 9.21158ZM15.8184 5.01158V2.51158H15.8184L15.8184 5.01158ZM12.8486 6.24173L11.0808 4.47396L12.8486 6.24173ZM12.2074 6.88295L10.4396 5.11519L10.4396 5.1152L12.2074 6.88295ZM12.0001 7.09026L10.2323 8.85803C10.7011 9.32687 11.337 9.59027 12.0001 9.59026C12.6631 9.59026 13.299 9.32686 13.7679 8.85801L12.0001 7.09026ZM11.7928 6.88295L13.5605 5.11519L11.7928 6.88295ZM11.1515 6.24173L9.38377 8.0095L11.1515 6.24173ZM8.18169 5.01158L8.18169 2.51158H8.18169L8.18169 5.01158ZM6.48169 9.21158C6.48169 8.76071 6.6608 8.32831 6.97961 8.0095L3.44407 4.47396C2.18758 5.73046 1.48169 7.43463 1.48169 9.21158H6.48169ZM6.97961 10.4137C6.6608 10.0949 6.48169 9.66245 6.48169 9.21158L1.48169 9.21158C1.48169 10.9885 2.18758 12.6927 3.44407 13.9492L6.97961 10.4137ZM13.7678 17.2019L6.97961 10.4137L3.44407 13.9492L10.2323 20.7374L13.7678 17.2019ZM13.7678 20.7374L20.5561 13.9492L17.0205 10.4137L10.2323 17.2019L13.7678 20.7374ZM20.5561 13.9492C21.8125 12.6927 22.5184 10.9885 22.5184 9.21158L17.5184 9.21158C17.5184 9.66245 17.3393 10.0948 17.0205 10.4137L20.5561 13.9492ZM22.5184 9.21158C22.5184 7.43463 21.8125 5.73046 20.5561 4.47396L17.0205 8.0095C17.3393 8.32831 17.5184 8.76071 17.5184 9.21158L22.5184 9.21158ZM20.5561 4.47396C19.2996 3.21747 17.5954 2.51158 15.8184 2.51158L15.8184 7.51158C16.2693 7.51158 16.7017 7.69069 17.0205 8.0095L20.5561 4.47396ZM15.8184 2.51158C14.0415 2.51158 12.3373 3.21747 11.0808 4.47396L14.6164 8.0095C14.9352 7.69069 15.3676 7.51158 15.8184 7.51158L15.8184 2.51158ZM11.0808 4.47396L10.4396 5.11519L13.9751 8.65072L14.6164 8.0095L11.0808 4.47396ZM10.4396 5.1152L10.2323 5.32251L13.7679 8.85801L13.9752 8.6507L10.4396 5.1152ZM10.025 8.65072L10.2323 8.85803L13.7678 5.3225L13.5605 5.11519L10.025 8.65072ZM9.38377 8.0095L10.025 8.65072L13.5605 5.11519L12.9193 4.47396L9.38377 8.0095ZM8.18169 7.51158C8.63256 7.51158 9.06496 7.69069 9.38377 8.0095L12.9193 4.47396C11.6628 3.21747 9.95864 2.51158 8.18169 2.51158L8.18169 7.51158ZM6.97961 8.0095C7.29842 7.69069 7.73082 7.51158 8.18169 7.51158L8.18169 2.51158C6.40474 2.51158 4.70057 3.21747 3.44407 4.47396L6.97961 8.0095Z" fill="#414141"/>
</svg>
