<svg width="24" height="24" viewBox="0 0 24 24" fill="none" xmlns="http://www.w3.org/2000/svg">
<path d="M5.21184 6.24173C4.42419 7.02938 3.98169 8.09767 3.98169 9.21158C3.98169 10.3255 4.42419 11.3938 5.21184 12.1814L11.5758 18.5454C11.8101 18.7797 12.19 18.7797 12.4243 18.5454L18.7883 12.1814C19.5759 11.3938 20.0184 10.3255 20.0184 9.21158C20.0184 8.09767 19.5759 7.02938 18.7883 6.24173C18.0006 5.45408 16.9324 5.01158 15.8184 5.01158C14.7045 5.01158 13.6362 5.45408 12.8486 6.24173L12.2074 6.88295C12.0929 6.99745 11.9073 6.99745 11.7928 6.88295L11.1515 6.24173C10.3639 5.45408 9.2956 5.01158 8.18169 5.01158C7.06778 5.01158 5.99949 5.45408 5.21184 6.24173Z" fill="#C2CCDE" fill-opacity="0.25" stroke="#414141" stroke-linecap="round" stroke-linejoin="round"/>
</svg>
