<svg width="478" height="102" viewBox="0 0 478 102" fill="none" xmlns="http://www.w3.org/2000/svg">
<rect width="478" height="102" rx="4" fill="#52C498"/>
<path d="M73.42 42.37V66H69.544V55.664H58.426V66H54.55V42.37H58.426V52.502H69.544V42.37H73.42ZM95.6927 56.174C95.6927 56.8767 95.6473 57.5113 95.5567 58.078H81.2427C81.356 59.574 81.9113 60.7753 82.9087 61.682C83.906 62.5887 85.13 63.042 86.5807 63.042C88.666 63.042 90.1393 62.1693 91.0007 60.424H95.1827C94.616 62.1467 93.5847 63.5633 92.0887 64.674C90.6153 65.762 88.7793 66.306 86.5807 66.306C84.79 66.306 83.1807 65.9093 81.7527 65.116C80.3473 64.3 79.2367 63.1667 78.4207 61.716C77.6273 60.2427 77.2307 58.5427 77.2307 56.616C77.2307 54.6893 77.616 53.0007 78.3867 51.55C79.18 50.0767 80.2793 48.9433 81.6847 48.15C83.1127 47.3567 84.7447 46.96 86.5807 46.96C88.3487 46.96 89.924 47.3453 91.3067 48.116C92.6893 48.8867 93.766 49.9747 94.5367 51.38C95.3073 52.7627 95.6927 54.3607 95.6927 56.174ZM91.6467 54.95C91.624 53.522 91.114 52.3773 90.1167 51.516C89.1193 50.6547 87.884 50.224 86.4107 50.224C85.0733 50.224 83.9287 50.6547 82.9767 51.516C82.0247 52.3547 81.458 53.4993 81.2767 54.95H91.6467ZM103.383 40.84V66H99.507V40.84H103.383ZM112.348 50.02C113.005 49.1587 113.901 48.4333 115.034 47.844C116.167 47.2547 117.448 46.96 118.876 46.96C120.508 46.96 121.993 47.368 123.33 48.184C124.69 48.9773 125.755 50.0993 126.526 51.55C127.297 53.0007 127.682 54.6667 127.682 56.548C127.682 58.4293 127.297 60.118 126.526 61.614C125.755 63.0873 124.69 64.2433 123.33 65.082C121.993 65.898 120.508 66.306 118.876 66.306C117.448 66.306 116.179 66.0227 115.068 65.456C113.957 64.8667 113.051 64.1413 112.348 63.28V74.908H108.472V47.266H112.348V50.02ZM123.738 56.548C123.738 55.256 123.466 54.1453 122.922 53.216C122.401 52.264 121.698 51.55 120.814 51.074C119.953 50.5753 119.023 50.326 118.026 50.326C117.051 50.326 116.122 50.5753 115.238 51.074C114.377 51.5727 113.674 52.298 113.13 53.25C112.609 54.202 112.348 55.324 112.348 56.616C112.348 57.908 112.609 59.0413 113.13 60.016C113.674 60.968 114.377 61.6933 115.238 62.192C116.122 62.6907 117.051 62.94 118.026 62.94C119.023 62.94 119.953 62.6907 120.814 62.192C121.698 61.6707 122.401 60.9227 122.922 59.948C123.466 58.9733 123.738 57.84 123.738 56.548ZM139.055 56.548C139.055 54.6667 139.44 53.0007 140.211 51.55C141.004 50.0993 142.07 48.9773 143.407 48.184C144.767 47.368 146.263 46.96 147.895 46.96C149.368 46.96 150.649 47.2547 151.737 47.844C152.848 48.4107 153.732 49.1247 154.389 49.986V47.266H158.299V66H154.389V63.212C153.732 64.096 152.836 64.8327 151.703 65.422C150.57 66.0113 149.278 66.306 147.827 66.306C146.218 66.306 144.744 65.898 143.407 65.082C142.07 64.2433 141.004 63.0873 140.211 61.614C139.44 60.118 139.055 58.4293 139.055 56.548ZM154.389 56.616C154.389 55.324 154.117 54.202 153.573 53.25C153.052 52.298 152.36 51.5727 151.499 51.074C150.638 50.5753 149.708 50.326 148.711 50.326C147.714 50.326 146.784 50.5753 145.923 51.074C145.062 51.55 144.359 52.264 143.815 53.216C143.294 54.1453 143.033 55.256 143.033 56.548C143.033 57.84 143.294 58.9733 143.815 59.948C144.359 60.9227 145.062 61.6707 145.923 62.192C146.807 62.6907 147.736 62.94 148.711 62.94C149.708 62.94 150.638 62.6907 151.499 62.192C152.36 61.6933 153.052 60.968 153.573 60.016C154.117 59.0413 154.389 57.908 154.389 56.616ZM172.842 46.96C174.315 46.96 175.63 47.266 176.786 47.878C177.965 48.49 178.883 49.3967 179.54 50.598C180.197 51.7993 180.526 53.25 180.526 54.95V66H176.684V55.528C176.684 53.8507 176.265 52.57 175.426 51.686C174.587 50.7793 173.443 50.326 171.992 50.326C170.541 50.326 169.385 50.7793 168.524 51.686C167.685 52.57 167.266 53.8507 167.266 55.528V66H163.39V47.266H167.266V49.408C167.901 48.6373 168.705 48.0367 169.68 47.606C170.677 47.1753 171.731 46.96 172.842 46.96ZM184.178 56.548C184.178 54.6667 184.563 53.0007 185.334 51.55C186.127 50.0993 187.193 48.9773 188.53 48.184C189.89 47.368 191.397 46.96 193.052 46.96C194.276 46.96 195.477 47.232 196.656 47.776C197.857 48.2973 198.809 49 199.512 49.884V40.84H203.422V66H199.512V63.178C198.877 64.0847 197.993 64.8327 196.86 65.422C195.749 66.0113 194.469 66.306 193.018 66.306C191.386 66.306 189.89 65.898 188.53 65.082C187.193 64.2433 186.127 63.0873 185.334 61.614C184.563 60.118 184.178 58.4293 184.178 56.548ZM199.512 56.616C199.512 55.324 199.24 54.202 198.696 53.25C198.175 52.298 197.483 51.5727 196.622 51.074C195.761 50.5753 194.831 50.326 193.834 50.326C192.837 50.326 191.907 50.5753 191.046 51.074C190.185 51.55 189.482 52.264 188.938 53.216C188.417 54.1453 188.156 55.256 188.156 56.548C188.156 57.84 188.417 58.9733 188.938 59.948C189.482 60.9227 190.185 61.6707 191.046 62.192C191.93 62.6907 192.859 62.94 193.834 62.94C194.831 62.94 195.761 62.6907 196.622 62.192C197.483 61.6933 198.175 60.968 198.696 60.016C199.24 59.0413 199.512 57.908 199.512 56.616ZM225.131 66.238C223.544 66.238 222.116 65.966 220.847 65.422C219.578 64.8553 218.58 64.062 217.855 63.042C217.13 62.022 216.767 60.832 216.767 59.472H220.915C221.006 60.492 221.402 61.3307 222.105 61.988C222.83 62.6453 223.839 62.974 225.131 62.974C226.468 62.974 227.511 62.6567 228.259 62.022C229.007 61.3647 229.381 60.526 229.381 59.506C229.381 58.7127 229.143 58.0667 228.667 57.568C228.214 57.0693 227.636 56.684 226.933 56.412C226.253 56.14 225.301 55.8453 224.077 55.528C222.536 55.12 221.278 54.712 220.303 54.304C219.351 53.8733 218.535 53.216 217.855 52.332C217.175 51.448 216.835 50.2693 216.835 48.796C216.835 47.436 217.175 46.246 217.855 45.226C218.535 44.206 219.487 43.424 220.711 42.88C221.935 42.336 223.352 42.064 224.961 42.064C227.25 42.064 229.12 42.642 230.571 43.798C232.044 44.9313 232.86 46.4953 233.019 48.49H228.735C228.667 47.6287 228.259 46.892 227.511 46.28C226.763 45.668 225.777 45.362 224.553 45.362C223.442 45.362 222.536 45.6453 221.833 46.212C221.13 46.7787 220.779 47.5947 220.779 48.66C220.779 49.3853 220.994 49.986 221.425 50.462C221.878 50.9153 222.445 51.278 223.125 51.55C223.805 51.822 224.734 52.1167 225.913 52.434C227.477 52.8647 228.746 53.2953 229.721 53.726C230.718 54.1567 231.557 54.8253 232.237 55.732C232.94 56.616 233.291 57.806 233.291 59.302C233.291 60.5033 232.962 61.6367 232.305 62.702C231.67 63.7673 230.73 64.6287 229.483 65.286C228.259 65.9207 226.808 66.238 225.131 66.238ZM254.83 47.266V66H250.954V63.79C250.342 64.5607 249.538 65.1727 248.54 65.626C247.566 66.0567 246.523 66.272 245.412 66.272C243.939 66.272 242.613 65.966 241.434 65.354C240.278 64.742 239.36 63.8353 238.68 62.634C238.023 61.4327 237.694 59.982 237.694 58.282V47.266H241.536V57.704C241.536 59.3813 241.956 60.6733 242.794 61.58C243.633 62.464 244.778 62.906 246.228 62.906C247.679 62.906 248.824 62.464 249.662 61.58C250.524 60.6733 250.954 59.3813 250.954 57.704V47.266H254.83ZM263.821 50.02C264.478 49.1587 265.373 48.4333 266.507 47.844C267.64 47.2547 268.921 46.96 270.349 46.96C271.981 46.96 273.465 47.368 274.803 48.184C276.163 48.9773 277.228 50.0993 277.999 51.55C278.769 53.0007 279.155 54.6667 279.155 56.548C279.155 58.4293 278.769 60.118 277.999 61.614C277.228 63.0873 276.163 64.2433 274.803 65.082C273.465 65.898 271.981 66.306 270.349 66.306C268.921 66.306 267.651 66.0227 266.541 65.456C265.43 64.8667 264.523 64.1413 263.821 63.28V74.908H259.945V47.266H263.821V50.02ZM275.211 56.548C275.211 55.256 274.939 54.1453 274.395 53.216C273.873 52.264 273.171 51.55 272.287 51.074C271.425 50.5753 270.496 50.326 269.499 50.326C268.524 50.326 267.595 50.5753 266.711 51.074C265.849 51.5727 265.147 52.298 264.603 53.25C264.081 54.202 263.821 55.324 263.821 56.616C263.821 57.908 264.081 59.0413 264.603 60.016C265.147 60.968 265.849 61.6933 266.711 62.192C267.595 62.6907 268.524 62.94 269.499 62.94C270.496 62.94 271.425 62.6907 272.287 62.192C273.171 61.6707 273.873 60.9227 274.395 59.948C274.939 58.9733 275.211 57.84 275.211 56.548ZM286.864 50.02C287.521 49.1587 288.416 48.4333 289.55 47.844C290.683 47.2547 291.964 46.96 293.392 46.96C295.024 46.96 296.508 47.368 297.846 48.184C299.206 48.9773 300.271 50.0993 301.042 51.55C301.812 53.0007 302.198 54.6667 302.198 56.548C302.198 58.4293 301.812 60.118 301.042 61.614C300.271 63.0873 299.206 64.2433 297.846 65.082C296.508 65.898 295.024 66.306 293.392 66.306C291.964 66.306 290.694 66.0227 289.584 65.456C288.473 64.8667 287.566 64.1413 286.864 63.28V74.908H282.988V47.266H286.864V50.02ZM298.254 56.548C298.254 55.256 297.982 54.1453 297.438 53.216C296.916 52.264 296.214 51.55 295.33 51.074C294.468 50.5753 293.539 50.326 292.542 50.326C291.567 50.326 290.638 50.5753 289.754 51.074C288.892 51.5727 288.19 52.298 287.646 53.25C287.124 54.202 286.864 55.324 286.864 56.616C286.864 57.908 287.124 59.0413 287.646 60.016C288.19 60.968 288.892 61.6933 289.754 62.192C290.638 62.6907 291.567 62.94 292.542 62.94C293.539 62.94 294.468 62.6907 295.33 62.192C296.214 61.6707 296.916 60.9227 297.438 59.948C297.982 58.9733 298.254 57.84 298.254 56.548ZM314.156 66.306C312.388 66.306 310.79 65.9093 309.362 65.116C307.934 64.3 306.812 63.1667 305.996 61.716C305.18 60.2427 304.772 58.5427 304.772 56.616C304.772 54.712 305.192 53.0233 306.03 51.55C306.869 50.0767 308.014 48.9433 309.464 48.15C310.915 47.3567 312.536 46.96 314.326 46.96C316.117 46.96 317.738 47.3567 319.188 48.15C320.639 48.9433 321.784 50.0767 322.622 51.55C323.461 53.0233 323.88 54.712 323.88 56.616C323.88 58.52 323.45 60.2087 322.588 61.682C321.727 63.1553 320.548 64.3 319.052 65.116C317.579 65.9093 315.947 66.306 314.156 66.306ZM314.156 62.94C315.154 62.94 316.083 62.702 316.944 62.226C317.828 61.75 318.542 61.036 319.086 60.084C319.63 59.132 319.902 57.976 319.902 56.616C319.902 55.256 319.642 54.1113 319.12 53.182C318.599 52.23 317.908 51.516 317.046 51.04C316.185 50.564 315.256 50.326 314.258 50.326C313.261 50.326 312.332 50.564 311.47 51.04C310.632 51.516 309.963 52.23 309.464 53.182C308.966 54.1113 308.716 55.256 308.716 56.616C308.716 58.6333 309.226 60.1973 310.246 61.308C311.289 62.396 312.592 62.94 314.156 62.94ZM331.588 49.986C332.155 49.034 332.903 48.2973 333.832 47.776C334.784 47.232 335.906 46.96 337.198 46.96V50.972H336.212C334.693 50.972 333.537 51.3573 332.744 52.128C331.973 52.8987 331.588 54.236 331.588 56.14V66H327.712V47.266H331.588V49.986ZM345.283 50.428V60.798C345.283 61.5007 345.442 62.0107 345.759 62.328C346.099 62.6227 346.666 62.77 347.459 62.77H349.839V66H346.779C345.034 66 343.696 65.592 342.767 64.776C341.838 63.96 341.373 62.634 341.373 60.798V50.428H339.163V47.266H341.373V42.608H345.283V47.266H349.839V50.428H345.283Z" fill="#414141"/>
</svg>
