<svg width="1517" height="102" viewBox="0 0 1517 102" fill="none" xmlns="http://www.w3.org/2000/svg">
<rect width="1517" height="102" rx="4" fill="#52C498"/>
<path d="M73.42 42.37V66H69.544V55.664H58.426V66H54.55V42.37H58.426V52.502H69.544V42.37H73.42ZM80.4947 44.784C79.792 44.784 79.2027 44.546 78.7267 44.07C78.2507 43.594 78.0127 43.0047 78.0127 42.302C78.0127 41.5993 78.2507 41.01 78.7267 40.534C79.2027 40.058 79.792 39.82 80.4947 39.82C81.1747 39.82 81.7527 40.058 82.2287 40.534C82.7047 41.01 82.9427 41.5993 82.9427 42.302C82.9427 43.0047 82.7047 43.594 82.2287 44.07C81.7527 44.546 81.1747 44.784 80.4947 44.784ZM82.3987 47.266V66H78.5227V47.266H82.3987ZM94.2875 66.306C92.8142 66.306 91.4882 66.0453 90.3095 65.524C89.1535 64.98 88.2355 64.2547 87.5555 63.348C86.8755 62.4187 86.5128 61.3873 86.4675 60.254H90.4795C90.5475 61.0473 90.9215 61.716 91.6015 62.26C92.3042 62.7813 93.1768 63.042 94.2195 63.042C95.3075 63.042 96.1462 62.838 96.7355 62.43C97.3475 61.9993 97.6535 61.4553 97.6535 60.798C97.6535 60.0953 97.3135 59.574 96.6335 59.234C95.9762 58.894 94.9222 58.52 93.4715 58.112C92.0662 57.7267 90.9215 57.3527 90.0375 56.99C89.1535 56.6273 88.3828 56.072 87.7255 55.324C87.0908 54.576 86.7735 53.59 86.7735 52.366C86.7735 51.3687 87.0682 50.462 87.6575 49.646C88.2468 48.8073 89.0855 48.15 90.1735 47.674C91.2842 47.198 92.5535 46.96 93.9815 46.96C96.1122 46.96 97.8235 47.504 99.1155 48.592C100.43 49.6573 101.133 51.1193 101.224 52.978H97.3475C97.2795 52.1393 96.9395 51.4707 96.3275 50.972C95.7155 50.4733 94.8882 50.224 93.8455 50.224C92.8255 50.224 92.0435 50.4167 91.4995 50.802C90.9555 51.1873 90.6835 51.6973 90.6835 52.332C90.6835 52.8307 90.8648 53.25 91.2275 53.59C91.5902 53.93 92.0322 54.202 92.5535 54.406C93.0748 54.5873 93.8455 54.8253 94.8655 55.12C96.2255 55.4827 97.3362 55.8567 98.1975 56.242C99.0815 56.6047 99.8408 57.1487 100.476 57.874C101.11 58.5993 101.439 59.5627 101.462 60.764C101.462 61.8293 101.167 62.7813 100.578 63.62C99.9882 64.4587 99.1495 65.116 98.0615 65.592C96.9962 66.068 95.7382 66.306 94.2875 66.306ZM110.172 50.428V60.798C110.172 61.5007 110.33 62.0107 110.648 62.328C110.988 62.6227 111.554 62.77 112.348 62.77H114.728V66H111.668C109.922 66 108.585 65.592 107.656 64.776C106.726 63.96 106.262 62.634 106.262 60.798V50.428H104.052V47.266H106.262V42.608H110.172V47.266H114.728V50.428H110.172ZM126.426 66.306C124.658 66.306 123.06 65.9093 121.632 65.116C120.204 64.3 119.082 63.1667 118.266 61.716C117.45 60.2427 117.042 58.5427 117.042 56.616C117.042 54.712 117.461 53.0233 118.3 51.55C119.139 50.0767 120.283 48.9433 121.734 48.15C123.185 47.3567 124.805 46.96 126.596 46.96C128.387 46.96 130.007 47.3567 131.458 48.15C132.909 48.9433 134.053 50.0767 134.892 51.55C135.731 53.0233 136.15 54.712 136.15 56.616C136.15 58.52 135.719 60.2087 134.858 61.682C133.997 63.1553 132.818 64.3 131.322 65.116C129.849 65.9093 128.217 66.306 126.426 66.306ZM126.426 62.94C127.423 62.94 128.353 62.702 129.214 62.226C130.098 61.75 130.812 61.036 131.356 60.084C131.9 59.132 132.172 57.976 132.172 56.616C132.172 55.256 131.911 54.1113 131.39 53.182C130.869 52.23 130.177 51.516 129.316 51.04C128.455 50.564 127.525 50.326 126.528 50.326C125.531 50.326 124.601 50.564 123.74 51.04C122.901 51.516 122.233 52.23 121.734 53.182C121.235 54.1113 120.986 55.256 120.986 56.616C120.986 58.6333 121.496 60.1973 122.516 61.308C123.559 62.396 124.862 62.94 126.426 62.94ZM143.858 49.986C144.424 49.034 145.172 48.2973 146.102 47.776C147.054 47.232 148.176 46.96 149.468 46.96V50.972H148.482C146.963 50.972 145.807 51.3573 145.014 52.128C144.243 52.8987 143.858 54.236 143.858 56.14V66H139.982V47.266H143.858V49.986ZM169.894 47.266L158.402 74.806H154.39L158.198 65.694L150.82 47.266H155.138L160.408 61.546L165.882 47.266H169.894Z" fill="#414141"/>
</svg>
