<svg width="24" height="24" viewBox="0 0 24 24" fill="none" xmlns="http://www.w3.org/2000/svg">
<path d="M5.39999 4.8C5.39999 4.13726 5.93725 3.6 6.59999 3.6H17.4C18.0627 3.6 18.6 4.13726 18.6 4.8V19.2C18.6 19.8627 18.0627 20.4 17.4 20.4H6.59999C5.93725 20.4 5.39999 19.8627 5.39999 19.2V4.8Z" fill="#C2CCDE" fill-opacity="0.25"/>
<path d="M8.39999 7.2H15.6M8.39999 9.6H13.2M8.39999 12H15.6M8.39999 14.4H13.2M8.39999 16.8H15.6M6.59999 20.4H17.4C18.0627 20.4 18.6 19.8627 18.6 19.2V4.8C18.6 4.13726 18.0627 3.6 17.4 3.6H6.59999C5.93725 3.6 5.39999 4.13726 5.39999 4.8V19.2C5.39999 19.8627 5.93725 20.4 6.59999 20.4Z" stroke="#414141" stroke-linecap="round" stroke-linejoin="round"/>
</svg>
