<svg width="956" height="102" viewBox="0 0 956 102" fill="none" xmlns="http://www.w3.org/2000/svg">
<rect width="956" height="102" rx="4" fill="#52C498"/>
<path d="M73.42 42.37V66H69.544V55.664H58.426V66H54.55V42.37H58.426V52.502H69.544V42.37H73.42ZM86.6487 66.306C84.8807 66.306 83.2827 65.9093 81.8547 65.116C80.4267 64.3 79.3047 63.1667 78.4887 61.716C77.6727 60.2427 77.2647 58.5427 77.2647 56.616C77.2647 54.712 77.684 53.0233 78.5227 51.55C79.3613 50.0767 80.506 48.9433 81.9567 48.15C83.4073 47.3567 85.028 46.96 86.8187 46.96C88.6093 46.96 90.23 47.3567 91.6807 48.15C93.1313 48.9433 94.276 50.0767 95.1147 51.55C95.9533 53.0233 96.3727 54.712 96.3727 56.616C96.3727 58.52 95.942 60.2087 95.0807 61.682C94.2193 63.1553 93.0407 64.3 91.5447 65.116C90.0713 65.9093 88.4393 66.306 86.6487 66.306ZM86.6487 62.94C87.646 62.94 88.5753 62.702 89.4367 62.226C90.3207 61.75 91.0347 61.036 91.5787 60.084C92.1227 59.132 92.3947 57.976 92.3947 56.616C92.3947 55.256 92.134 54.1113 91.6127 53.182C91.0913 52.23 90.4 51.516 89.5387 51.04C88.6773 50.564 87.748 50.326 86.7507 50.326C85.7533 50.326 84.824 50.564 83.9627 51.04C83.124 51.516 82.4553 52.23 81.9567 53.182C81.458 54.1113 81.2087 55.256 81.2087 56.616C81.2087 58.6333 81.7187 60.1973 82.7387 61.308C83.7813 62.396 85.0847 62.94 86.6487 62.94ZM122.882 46.96C124.356 46.96 125.67 47.266 126.826 47.878C128.005 48.49 128.923 49.3967 129.58 50.598C130.26 51.7993 130.6 53.25 130.6 54.95V66H126.758V55.528C126.758 53.8507 126.339 52.57 125.5 51.686C124.662 50.7793 123.517 50.326 122.066 50.326C120.616 50.326 119.46 50.7793 118.598 51.686C117.76 52.57 117.34 53.8507 117.34 55.528V66H113.498V55.528C113.498 53.8507 113.079 52.57 112.24 51.686C111.402 50.7793 110.257 50.326 108.806 50.326C107.356 50.326 106.2 50.7793 105.338 51.686C104.5 52.57 104.08 53.8507 104.08 55.528V66H100.204V47.266H104.08V49.408C104.715 48.6373 105.52 48.0367 106.494 47.606C107.469 47.1753 108.512 46.96 109.622 46.96C111.118 46.96 112.456 47.2773 113.634 47.912C114.813 48.5467 115.72 49.4647 116.354 50.666C116.921 49.5327 117.805 48.6373 119.006 47.98C120.208 47.3 121.5 46.96 122.882 46.96ZM152.702 56.174C152.702 56.8767 152.657 57.5113 152.566 58.078H138.252C138.366 59.574 138.921 60.7753 139.918 61.682C140.916 62.5887 142.14 63.042 143.59 63.042C145.676 63.042 147.149 62.1693 148.01 60.424H152.192C151.626 62.1467 150.594 63.5633 149.098 64.674C147.625 65.762 145.789 66.306 143.59 66.306C141.8 66.306 140.19 65.9093 138.762 65.116C137.357 64.3 136.246 63.1667 135.43 61.716C134.637 60.2427 134.24 58.5427 134.24 56.616C134.24 54.6893 134.626 53.0007 135.396 51.55C136.19 50.0767 137.289 48.9433 138.694 48.15C140.122 47.3567 141.754 46.96 143.59 46.96C145.358 46.96 146.934 47.3453 148.316 48.116C149.699 48.8867 150.776 49.9747 151.546 51.38C152.317 52.7627 152.702 54.3607 152.702 56.174ZM148.656 54.95C148.634 53.522 148.124 52.3773 147.126 51.516C146.129 50.6547 144.894 50.224 143.42 50.224C142.083 50.224 140.938 50.6547 139.986 51.516C139.034 52.3547 138.468 53.4993 138.286 54.95H148.656Z" fill="#414141"/>
</svg>
