<svg width="24" height="24" viewBox="0 0 24 24" fill="none" xmlns="http://www.w3.org/2000/svg">
<path fill-rule="evenodd" clip-rule="evenodd" d="M12 5.4L18 10.2H17C17.5523 10.2 18 10.6477 18 11.2V17.6C18 18.1523 17.5523 18.6 17 18.6H7C6.44772 18.6 6 18.1523 6 17.6L6 11.2C6 10.6477 6.44772 10.2 7 10.2H6L12 5.4ZM13.8 15L13.8 11.4H10.2L10.2 15L13.8 15Z" fill="#414141"/>
<path d="M20.25 12L19.35 11.28L12 5.4L4.65 11.28L3.75 12" stroke="#414141" stroke-width="3" stroke-linecap="round" stroke-linejoin="round"/>
<path fill-rule="evenodd" clip-rule="evenodd" d="M16.875 9.3H18.6V5.7L12.6 5.7V5.88L16.875 9.3Z" fill="#414141"/>
<path d="M18.6 9.3V10.3C19.1523 10.3 19.6 9.85228 19.6 9.3L18.6 9.3ZM16.875 9.3L16.2503 10.0809C16.4276 10.2227 16.6479 10.3 16.875 10.3V9.3ZM18.6 5.7H19.6C19.6 5.14771 19.1523 4.7 18.6 4.7V5.7ZM12.6 5.7V4.7C12.0477 4.7 11.6 5.14771 11.6 5.7H12.6ZM12.6 5.88H11.6C11.6 6.18378 11.7381 6.4711 11.9753 6.66087L12.6 5.88ZM18.6 8.3H16.875V10.3H18.6V8.3ZM17.6 5.7V9.3L19.6 9.3V5.7H17.6ZM12.6 6.7L18.6 6.7V4.7L12.6 4.7V6.7ZM13.6 5.88V5.7H11.6V5.88H13.6ZM11.9753 6.66087L16.2503 10.0809L17.4997 8.51913L13.2247 5.09913L11.9753 6.66087Z" fill="#414141"/>
</svg>
