<svg width="24" height="24" viewBox="0 0 24 24" fill="none" xmlns="http://www.w3.org/2000/svg">
<path d="M11.5 21C13.3789 21 15.2157 20.4428 16.7779 19.399C18.3402 18.3551 19.5578 16.8714 20.2769 15.1355C20.9959 13.3996 21.184 11.4895 20.8175 9.64666C20.4509 7.80385 19.5461 6.11111 18.2175 4.78252C16.8889 3.45392 15.1962 2.54914 13.3534 2.18258C11.5106 1.81602 9.60042 2.00415 7.86453 2.72318C6.12863 3.44221 4.64494 4.65985 3.60107 6.22211C2.5572 7.78438 2.00003 9.6211 2.00003 11.5C2.00273 14.0187 3.00448 16.4335 4.78549 18.2145C6.5665 19.9956 8.98129 20.9973 11.5 21ZM10.8214 3.39178V4.71432C10.8214 4.89429 10.8929 5.06688 11.0202 5.19414C11.1474 5.32139 11.32 5.39289 11.5 5.39289C11.68 5.39289 11.8526 5.32139 11.9798 5.19414C12.1071 5.06688 12.1786 4.89429 12.1786 4.71432V3.39178C14.0946 3.5542 15.8915 4.38913 17.2512 5.74884C18.6109 7.10856 19.4458 8.9054 19.6082 10.8214H18.2857C18.1057 10.8214 17.9332 10.8929 17.8059 11.0202C17.6786 11.1475 17.6071 11.3201 17.6071 11.5C17.6071 11.68 17.6786 11.8526 17.8059 11.9798C17.9332 12.1071 18.1057 12.1786 18.2857 12.1786H19.6082C19.4458 14.0946 18.6109 15.8915 17.2512 17.2512C15.8915 18.6109 14.0946 19.4458 12.1786 19.6083V18.2857C12.1786 18.1058 12.1071 17.9332 11.9798 17.8059C11.8526 17.6786 11.68 17.6071 11.5 17.6071C11.32 17.6071 11.1474 17.6786 11.0202 17.8059C10.8929 17.9332 10.8214 18.1058 10.8214 18.2857V19.6083C8.90539 19.4458 7.10855 18.6109 5.74884 17.2512C4.38913 15.8915 3.5542 14.0946 3.39178 12.1786H4.71431C4.89428 12.1786 5.06688 12.1071 5.19413 11.9798C5.32139 11.8526 5.39288 11.68 5.39288 11.5C5.39288 11.3201 5.32139 11.1475 5.19413 11.0202C5.06688 10.8929 4.89428 10.8214 4.71431 10.8214H3.39178C3.5542 8.9054 4.38913 7.10856 5.74884 5.74884C7.10855 4.38913 8.90539 3.5542 10.8214 3.39178Z" fill="#5A5A5A"/>
<path d="M11.0201 14.0154C11.1474 14.1426 11.32 14.2141 11.4999 14.2141C11.6798 14.2141 11.8524 14.1426 11.9796 14.0154L14.0153 11.9797C14.1426 11.8525 14.214 11.6799 14.214 11.5C14.214 11.32 14.1426 11.1475 14.0153 11.0202L11.9796 8.98451C11.8524 8.8573 11.6798 8.78583 11.4999 8.78583C11.32 8.78583 11.1474 8.8573 11.0201 8.98451L8.98442 11.0202C8.85721 11.1475 8.78575 11.32 8.78575 11.5C8.78575 11.6799 8.85721 11.8525 8.98442 11.9797L11.0201 14.0154ZM11.4999 10.4238L12.5761 11.5L11.4999 12.5762L10.4237 11.5L11.4999 10.4238Z" fill="#5A5A5A"/>
</svg>
