<svg width="24" height="24" viewBox="0 0 24 24" fill="none" xmlns="http://www.w3.org/2000/svg">
<path d="M9.34836 5.59835C11.0462 4.89509 12.9538 4.89509 14.6517 5.59835C16.3495 6.30161 17.6984 7.65053 18.4017 9.34835C19.1049 11.0462 19.1049 12.9538 18.4017 14.6517C17.6984 16.3495 16.3495 17.6984 14.6517 18.4017C12.9538 19.1049 11.0462 19.1049 9.34836 18.4017C7.65053 17.6984 6.30162 16.3495 5.59836 14.6517C4.89509 12.9538 4.89509 11.0462 5.59836 9.34835C6.30162 7.65053 7.65053 6.30161 9.34836 5.59835Z" fill="#C2CCDE" fill-opacity="0.25"/>
<path d="M12.0024 7.01105L12 3.6L11.9976 7.01105C11.9992 7.01105 12.0008 7.01105 12.0024 7.01105Z" fill="#C2CCDE" fill-opacity="0.25"/>
<path d="M16.989 11.9976C16.989 11.9992 16.989 12.0008 16.989 12.0024L20.4 12L16.989 11.9976Z" fill="#C2CCDE" fill-opacity="0.25"/>
<path d="M12.0024 16.9889C12.0008 16.9889 11.9992 16.9889 11.9976 16.9889L12 20.4L12.0024 16.9889Z" fill="#C2CCDE" fill-opacity="0.25"/>
<path d="M7.01106 12.0024C7.01106 12.0008 7.01106 11.9992 7.01106 11.9976L3.60001 12L7.01106 12.0024Z" fill="#C2CCDE" fill-opacity="0.25"/>
<path d="M10.9393 9.43934C11.6185 9.15804 12.3815 9.15804 13.0607 9.43934C13.7398 9.72064 14.2794 10.2602 14.5607 10.9393C14.842 11.6185 14.842 12.3815 14.5607 13.0607C14.2794 13.7398 13.7398 14.2794 13.0607 14.5607C12.3815 14.842 11.6185 14.842 10.9393 14.5607C10.2602 14.2794 9.72065 13.7398 9.43935 13.0607C9.15804 12.3815 9.15804 11.6185 9.43935 10.9393C9.72065 10.2602 10.2602 9.72064 10.9393 9.43934Z" fill="#C2CCDE" fill-opacity="0.25"/>
<path d="M9.34836 5.59835C11.0462 4.89509 12.9538 4.89509 14.6517 5.59835C16.3495 6.30161 17.6984 7.65053 18.4017 9.34835C19.1049 11.0462 19.1049 12.9538 18.4017 14.6517C17.6984 16.3495 16.3495 17.6984 14.6517 18.4017C12.9538 19.1049 11.0462 19.1049 9.34836 18.4017C7.65053 17.6984 6.30162 16.3495 5.59836 14.6517C4.89509 12.9538 4.89509 11.0462 5.59836 9.34835C6.30162 7.65053 7.65053 6.30161 9.34836 5.59835Z" stroke="#5A5A5A" stroke-linecap="round" stroke-linejoin="round"/>
<path d="M12.0024 7.01105L12 3.6L11.9976 7.01105C11.9992 7.01105 12.0008 7.01105 12.0024 7.01105Z" stroke="#5A5A5A" stroke-linecap="round" stroke-linejoin="round"/>
<path d="M16.989 11.9976C16.989 11.9992 16.989 12.0008 16.989 12.0024L20.4 12L16.989 11.9976Z" stroke="#5A5A5A" stroke-linecap="round" stroke-linejoin="round"/>
<path d="M12.0024 16.9889C12.0008 16.9889 11.9992 16.9889 11.9976 16.9889L12 20.4L12.0024 16.9889Z" stroke="#5A5A5A" stroke-linecap="round" stroke-linejoin="round"/>
<path d="M7.01106 12.0024C7.01106 12.0008 7.01106 11.9992 7.01106 11.9976L3.60001 12L7.01106 12.0024Z" stroke="#5A5A5A" stroke-linecap="round" stroke-linejoin="round"/>
<path d="M10.9393 9.43934C11.6185 9.15804 12.3815 9.15804 13.0607 9.43934C13.7398 9.72064 14.2794 10.2602 14.5607 10.9393C14.842 11.6185 14.842 12.3815 14.5607 13.0607C14.2794 13.7398 13.7398 14.2794 13.0607 14.5607C12.3815 14.842 11.6185 14.842 10.9393 14.5607C10.2602 14.2794 9.72065 13.7398 9.43935 13.0607C9.15804 12.3815 9.15804 11.6185 9.43935 10.9393C9.72065 10.2602 10.2602 9.72064 10.9393 9.43934Z" stroke="#5A5A5A" stroke-linecap="round" stroke-linejoin="round"/>
</svg>
