<svg width="1519" height="102" viewBox="0 0 1519 102" fill="none" xmlns="http://www.w3.org/2000/svg">
<rect width="1519" height="102" rx="4" fill="#52C498"/>
<path d="M58.426 62.872H66.416V66H54.55V42.37H58.426V62.872ZM77.7834 66.306C76.0154 66.306 74.4174 65.9093 72.9894 65.116C71.5614 64.3 70.4394 63.1667 69.6234 61.716C68.8074 60.2427 68.3994 58.5427 68.3994 56.616C68.3994 54.712 68.8188 53.0233 69.6574 51.55C70.4961 50.0767 71.6408 48.9433 73.0914 48.15C74.5421 47.3567 76.1628 46.96 77.9534 46.96C79.7441 46.96 81.3648 47.3567 82.8154 48.15C84.2661 48.9433 85.4108 50.0767 86.2494 51.55C87.0881 53.0233 87.5074 54.712 87.5074 56.616C87.5074 58.52 87.0768 60.2087 86.2154 61.682C85.3541 63.1553 84.1754 64.3 82.6794 65.116C81.2061 65.9093 79.5741 66.306 77.7834 66.306ZM77.7834 62.94C78.7808 62.94 79.7101 62.702 80.5714 62.226C81.4554 61.75 82.1694 61.036 82.7134 60.084C83.2574 59.132 83.5294 57.976 83.5294 56.616C83.5294 55.256 83.2688 54.1113 82.7474 53.182C82.2261 52.23 81.5348 51.516 80.6734 51.04C79.8121 50.564 78.8828 50.326 77.8854 50.326C76.8881 50.326 75.9588 50.564 75.0974 51.04C74.2588 51.516 73.5901 52.23 73.0914 53.182C72.5928 54.1113 72.3434 55.256 72.3434 56.616C72.3434 58.6333 72.8534 60.1973 73.8734 61.308C74.9161 62.396 76.2194 62.94 77.7834 62.94ZM90.0471 56.616C90.0471 54.6893 90.4324 53.0007 91.2031 51.55C91.9964 50.0767 93.0844 48.9433 94.4671 48.15C95.8497 47.3567 97.4364 46.96 99.2271 46.96C101.494 46.96 103.364 47.504 104.837 48.592C106.333 49.6573 107.342 51.1873 107.863 53.182H103.681C103.341 52.2527 102.797 51.5273 102.049 51.006C101.301 50.4847 100.36 50.224 99.2271 50.224C97.6404 50.224 96.3711 50.7907 95.4191 51.924C94.4897 53.0347 94.0251 54.5987 94.0251 56.616C94.0251 58.6333 94.4897 60.2087 95.4191 61.342C96.3711 62.4753 97.6404 63.042 99.2271 63.042C101.471 63.042 102.956 62.056 103.681 60.084H107.863C107.319 61.988 106.299 63.5067 104.803 64.64C103.307 65.7507 101.448 66.306 99.2271 66.306C97.4364 66.306 95.8497 65.9093 94.4671 65.116C93.0844 64.3 91.9964 63.1667 91.2031 61.716C90.4324 60.2427 90.0471 58.5427 90.0471 56.616ZM110.434 56.548C110.434 54.6667 110.819 53.0007 111.59 51.55C112.383 50.0993 113.448 48.9773 114.786 48.184C116.146 47.368 117.642 46.96 119.274 46.96C120.747 46.96 122.028 47.2547 123.116 47.844C124.226 48.4107 125.11 49.1247 125.768 49.986V47.266H129.678V66H125.768V63.212C125.11 64.096 124.215 64.8327 123.082 65.422C121.948 66.0113 120.656 66.306 119.206 66.306C117.596 66.306 116.123 65.898 114.786 65.082C113.448 64.2433 112.383 63.0873 111.59 61.614C110.819 60.118 110.434 58.4293 110.434 56.548ZM125.768 56.616C125.768 55.324 125.496 54.202 124.952 53.25C124.43 52.298 123.739 51.5727 122.878 51.074C122.016 50.5753 121.087 50.326 120.09 50.326C119.092 50.326 118.163 50.5753 117.302 51.074C116.44 51.55 115.738 52.264 115.194 53.216C114.672 54.1453 114.412 55.256 114.412 56.548C114.412 57.84 114.672 58.9733 115.194 59.948C115.738 60.9227 116.44 61.6707 117.302 62.192C118.186 62.6907 119.115 62.94 120.09 62.94C121.087 62.94 122.016 62.6907 122.878 62.192C123.739 61.6933 124.43 60.968 124.952 60.016C125.496 59.0413 125.768 57.908 125.768 56.616ZM139.291 50.428V60.798C139.291 61.5007 139.449 62.0107 139.767 62.328C140.107 62.6227 140.673 62.77 141.467 62.77H143.847V66H140.787C139.041 66 137.704 65.592 136.775 64.776C135.845 63.96 135.381 62.634 135.381 60.798V50.428H133.171V47.266H135.381V42.608H139.291V47.266H143.847V50.428H139.291ZM149.391 44.784C148.688 44.784 148.099 44.546 147.623 44.07C147.147 43.594 146.909 43.0047 146.909 42.302C146.909 41.5993 147.147 41.01 147.623 40.534C148.099 40.058 148.688 39.82 149.391 39.82C150.071 39.82 150.649 40.058 151.125 40.534C151.601 41.01 151.839 41.5993 151.839 42.302C151.839 43.0047 151.601 43.594 151.125 44.07C150.649 44.546 150.071 44.784 149.391 44.784ZM151.295 47.266V66H147.419V47.266H151.295ZM164.51 66.306C162.742 66.306 161.144 65.9093 159.716 65.116C158.288 64.3 157.166 63.1667 156.35 61.716C155.534 60.2427 155.126 58.5427 155.126 56.616C155.126 54.712 155.545 53.0233 156.384 51.55C157.223 50.0767 158.367 48.9433 159.818 48.15C161.269 47.3567 162.889 46.96 164.68 46.96C166.471 46.96 168.091 47.3567 169.542 48.15C170.993 48.9433 172.137 50.0767 172.976 51.55C173.815 53.0233 174.234 54.712 174.234 56.616C174.234 58.52 173.803 60.2087 172.942 61.682C172.081 63.1553 170.902 64.3 169.406 65.116C167.933 65.9093 166.301 66.306 164.51 66.306ZM164.51 62.94C165.507 62.94 166.437 62.702 167.298 62.226C168.182 61.75 168.896 61.036 169.44 60.084C169.984 59.132 170.256 57.976 170.256 56.616C170.256 55.256 169.995 54.1113 169.474 53.182C168.953 52.23 168.261 51.516 167.4 51.04C166.539 50.564 165.609 50.326 164.612 50.326C163.615 50.326 162.685 50.564 161.824 51.04C160.985 51.516 160.317 52.23 159.818 53.182C159.319 54.1113 159.07 55.256 159.07 56.616C159.07 58.6333 159.58 60.1973 160.6 61.308C161.643 62.396 162.946 62.94 164.51 62.94ZM187.518 46.96C188.991 46.96 190.306 47.266 191.462 47.878C192.64 48.49 193.558 49.3967 194.216 50.598C194.873 51.7993 195.202 53.25 195.202 54.95V66H191.36V55.528C191.36 53.8507 190.94 52.57 190.102 51.686C189.263 50.7793 188.118 50.326 186.668 50.326C185.217 50.326 184.061 50.7793 183.2 51.686C182.361 52.57 181.942 53.8507 181.942 55.528V66H178.066V47.266H181.942V49.408C182.576 48.6373 183.381 48.0367 184.356 47.606C185.353 47.1753 186.407 46.96 187.518 46.96Z" fill="#414141"/>
</svg>
