<svg width="24" height="24" viewBox="0 0 24 24" fill="none" xmlns="http://www.w3.org/2000/svg">
<path d="M5 12L9 8M5 12L9 16M5 12H15M10 21C11.1819 21 12.3522 20.7672 13.4442 20.3149C14.5361 19.8626 15.5282 19.1997 16.364 18.364C17.1997 17.5282 17.8626 16.5361 18.3149 15.4442C18.7672 14.3522 19 13.1819 19 12C19 10.8181 18.7672 9.64778 18.3149 8.55585C17.8626 7.46392 17.1997 6.47177 16.364 5.63604C15.5282 4.80031 14.5361 4.13738 13.4442 3.68508C12.3522 3.23279 11.1819 3 10 3" stroke="#414141" stroke-width="2" stroke-linecap="round" stroke-linejoin="round"/>
</svg>
