<svg width="24" height="24" viewBox="0 0 24 24" fill="none" xmlns="http://www.w3.org/2000/svg">
<path d="M6 14.4698C6 17.7835 8.68629 20.4698 12 20.4698C15.3137 20.4698 18 17.7835 18 14.4698L18 14.1084C18 12.7825 17.5857 11.4898 16.8151 10.4109L12.0119 3.68635C12.006 3.67822 11.994 3.67822 11.9881 3.68635L7.18491 10.4109C6.41427 11.4898 6 12.7825 6 14.1084L6 14.4698Z" fill="#C2CCDE" fill-opacity="0.25"/>
<path d="M13.1727 16.8692C12.4316 17.2261 11.5684 17.2261 10.8273 16.8692C10.0862 16.5123 9.5479 15.8374 9.36486 15.0354C9.18182 14.2335 9.37392 13.3919 9.88678 12.7488C10.3996 12.1056 11.1774 11.7311 12 11.7311C12.8226 11.7311 13.6004 12.1056 14.1132 12.7488C14.6261 13.3919 14.8182 14.2335 14.6351 15.0354C14.4521 15.8374 13.9138 16.5123 13.1727 16.8692Z" fill="#C2CCDE" fill-opacity="0.25"/>
<path d="M6 14.4698C6 17.7835 8.68629 20.4698 12 20.4698C15.3137 20.4698 18 17.7835 18 14.4698L18 14.1084C18 12.7825 17.5857 11.4898 16.8151 10.4109L12.0119 3.68635C12.006 3.67822 11.994 3.67822 11.9881 3.68635L7.18491 10.4109C6.41427 11.4898 6 12.7825 6 14.1084L6 14.4698Z" stroke="#5A5A5A" stroke-linecap="round" stroke-linejoin="round"/>
<path d="M13.1727 16.8692C12.4316 17.2261 11.5684 17.2261 10.8273 16.8692C10.0862 16.5123 9.5479 15.8374 9.36486 15.0354C9.18182 14.2335 9.37392 13.3919 9.88678 12.7488C10.3996 12.1056 11.1774 11.7311 12 11.7311C12.8226 11.7311 13.6004 12.1056 14.1132 12.7488C14.6261 13.3919 14.8182 14.2335 14.6351 15.0354C14.4521 15.8374 13.9138 16.5123 13.1727 16.8692Z" stroke="#5A5A5A" stroke-linecap="round" stroke-linejoin="round"/>
</svg>
