<svg width="24" height="24" viewBox="0 0 24 24" fill="none" xmlns="http://www.w3.org/2000/svg">
<path fill-rule="evenodd" clip-rule="evenodd" d="M12 3.53025C15.3137 3.53025 18 6.21654 18 9.53025V9.89164C18 11.2175 17.5857 12.5102 16.8151 13.5891L12.0119 20.3137C12.006 20.3218 11.994 20.3218 11.9881 20.3137L7.18491 13.5891C6.41427 12.5102 6 11.2175 6 9.89164V9.53025C6 6.21654 8.68629 3.53025 12 3.53025ZM14.6351 8.96456C14.4521 8.16262 13.9138 7.48768 13.1727 7.13078C12.4316 6.77388 11.5684 6.77388 10.8273 7.13078C10.0861 7.48768 9.5479 8.16262 9.36486 8.96456C9.18182 9.7665 9.37392 10.6081 9.88678 11.2512C10.3996 11.8944 11.1774 12.2689 12 12.2689C12.8226 12.2689 13.6004 11.8944 14.1132 11.2512C14.6261 10.6081 14.8182 9.7665 14.6351 8.96456Z" fill="#414141"/>
<path d="M16.8151 13.5891L15.5945 12.7173V12.7173L16.8151 13.5891ZM12.0119 20.3137L13.2324 21.1855L13.2325 21.1855L12.0119 20.3137ZM11.9881 20.3137L10.7675 21.1855L10.7676 21.1855L11.9881 20.3137ZM7.18491 13.5891L5.96431 14.461L5.96431 14.461L7.18491 13.5891ZM13.1727 7.13078L13.8236 5.77933L13.8236 5.77933L13.1727 7.13078ZM14.6351 8.96456L13.1727 9.29834L13.1727 9.29834L14.6351 8.96456ZM9.36486 8.96456L7.90247 8.63078H7.90247L9.36486 8.96456ZM9.88678 11.2512L8.71403 12.1865H8.71403L9.88678 11.2512ZM14.1132 11.2512L15.286 12.1865H15.286L14.1132 11.2512ZM19.5 9.53025C19.5 5.38811 16.1421 2.03025 12 2.03025V5.03025C14.4853 5.03025 16.5 7.04497 16.5 9.53025H19.5ZM19.5 9.89164V9.53025H16.5V9.89164H19.5ZM18.0357 14.461C18.988 13.1277 19.5 11.5301 19.5 9.89164H16.5C16.5 10.9049 16.1834 11.8928 15.5945 12.7173L18.0357 14.461ZM13.2325 21.1855L18.0357 14.461L15.5945 12.7173L10.7913 19.4418L13.2325 21.1855ZM10.7676 21.1855C11.3716 22.0312 12.6284 22.0312 13.2324 21.1855L10.7913 19.4418C11.3837 18.6124 12.6163 18.6124 13.2087 19.4418L10.7676 21.1855ZM5.96431 14.461L10.7675 21.1855L13.2087 19.4418L8.40551 12.7173L5.96431 14.461ZM4.5 9.89164C4.5 11.5301 5.01196 13.1277 5.96431 14.461L8.40551 12.7173C7.81659 11.8928 7.5 10.9049 7.5 9.89164H4.5ZM4.5 9.53025V9.89164H7.5V9.53025H4.5ZM12 2.03025C7.85786 2.03025 4.5 5.38811 4.5 9.53025H7.5C7.5 7.04497 9.51472 5.03025 12 5.03025V2.03025ZM12.5219 8.48223C12.8517 8.64107 13.0913 8.94145 13.1727 9.29834L16.0975 8.63078C15.8129 7.3838 14.976 6.33429 13.8236 5.77933L12.5219 8.48223ZM11.4781 8.48223C11.8079 8.3234 12.1921 8.3234 12.5219 8.48223L13.8236 5.77933C12.6712 5.22437 11.3288 5.22437 10.1764 5.77933L11.4781 8.48223ZM10.8273 9.29834C10.9087 8.94145 11.1483 8.64107 11.4781 8.48223L10.1764 5.77933C9.02404 6.33428 8.18708 7.3838 7.90247 8.63078L10.8273 9.29834ZM11.0595 10.316C10.8313 10.0298 10.7458 9.65524 10.8273 9.29834L7.90247 8.63078C7.61785 9.87776 7.91656 11.1865 8.71403 12.1865L11.0595 10.316ZM12 10.7689C11.6339 10.7689 11.2878 10.6022 11.0595 10.316L8.71403 12.1865C9.51151 13.1865 10.721 13.7689 12 13.7689L12 10.7689ZM12.9405 10.316C12.7122 10.6022 12.3661 10.7689 12 10.7689L12 13.7689C13.279 13.7689 14.4885 13.1865 15.286 12.1865L12.9405 10.316ZM13.1727 9.29834C13.2542 9.65524 13.1687 10.0298 12.9405 10.316L15.286 12.1865C16.0834 11.1865 16.3821 9.87776 16.0975 8.63078L13.1727 9.29834Z" fill="#414141"/>
</svg>
