<svg width="24" height="24" viewBox="0 0 24 24" fill="none" xmlns="http://www.w3.org/2000/svg">
<path d="M7.80001 21.6C7.13727 21.6 6.60001 21.0627 6.60001 20.4L6.60001 6C6.60001 5.33726 7.13726 4.8 7.80001 4.8L16.2 4.8C16.8627 4.8 17.4 5.33726 17.4 6L17.4 20.4C17.4 21.0627 16.8627 21.6 16.2 21.6H7.80001Z" fill="#C2CCDE" fill-opacity="0.25"/>
<path d="M14.4 2.4L9.6 2.4M10.2 16.2L13.8 13.2H10.2L13.8 10.2M17.4 20.4L17.4 6C17.4 5.33726 16.8627 4.8 16.2 4.8L7.80001 4.8C7.13726 4.8 6.60001 5.33726 6.60001 6L6.60001 20.4C6.60001 21.0627 7.13727 21.6 7.80001 21.6H16.2C16.8627 21.6 17.4 21.0627 17.4 20.4Z" stroke="#414141" stroke-linecap="round" stroke-linejoin="round"/>
</svg>
