<svg width="24" height="24" viewBox="0 0 24 24" fill="none" xmlns="http://www.w3.org/2000/svg">
<path d="M9.30608 6.3C9.30608 4.80883 10.5149 3.6 12.0061 3.6C13.4973 3.6 14.7061 4.80883 14.7061 6.3V11.7C14.7061 13.1912 13.4973 14.4 12.0061 14.4C10.5149 14.4 9.30608 13.1912 9.30608 11.7V6.3Z" fill="#C2CCDE" fill-opacity="0.25"/>
<path d="M15.0061 20.4H9.00608M12.0061 16.5V20.4M12.0061 16.5C9.35512 16.5 7.20608 14.351 7.20608 11.7V9.3M12.0061 16.5C14.6571 16.5 16.8061 14.351 16.8061 11.7V9.3M3.60001 20.4L20.4 3.6M12.0061 14.4C10.5149 14.4 9.30608 13.1912 9.30608 11.7V6.3C9.30608 4.80883 10.5149 3.6 12.0061 3.6C13.4973 3.6 14.7061 4.80883 14.7061 6.3V11.7C14.7061 13.1912 13.4973 14.4 12.0061 14.4Z" stroke="#414141" stroke-linecap="round" stroke-linejoin="round"/>
</svg>
