<svg width="24" height="24" viewBox="0 0 24 24" fill="none" xmlns="http://www.w3.org/2000/svg">
<path d="M12.3055 15.3569V15.715L12.6445 15.8303C12.9578 15.9368 13.2066 16.11 13.4174 16.3465L13.5666 16.5137H13.7906H13.9073V18.7173H13.7746H13.5542L13.4056 18.8799C13.199 19.1059 12.9559 19.2788 12.6445 19.3846L12.6445 19.3845L12.6339 19.3884C11.9118 19.6521 11.1052 19.4341 10.5946 18.8789L10.446 18.7173H10.2265H10.1018V16.5137H10.2185H10.4426L10.5917 16.3465C10.8025 16.11 11.0513 15.9368 11.3646 15.8303L11.7036 15.715V15.3569V12.5091H12.3055V15.3569ZM9.60182 5.10182H8.5V4.5H15.5091V5.10182H14.4073H13.9073V5.60182V6.40273V6.90273H14.4073H15.5091V10.7082H8.5V6.90273H9.60182H10.1018V6.40273V5.60182V5.10182H9.60182ZM12.0046 18.9164C12.3496 18.9164 12.6805 18.7793 12.9244 18.5354C13.1684 18.2914 13.3055 17.9605 13.3055 17.6155C13.3055 17.2705 13.1684 16.9396 12.9244 16.6956C12.6805 16.4516 12.3496 16.3146 12.0046 16.3146C11.6595 16.3146 11.3286 16.4516 11.0847 16.6956C10.8407 16.9396 10.7036 17.2705 10.7036 17.6155C10.7036 17.9605 10.8407 18.2914 11.0847 18.5354C11.3286 18.7793 11.6595 18.9164 12.0046 18.9164ZM12.0046 10.1064C12.3496 10.1064 12.6805 9.96932 12.9244 9.72535C13.1684 9.48138 13.3055 9.15049 13.3055 8.80546C13.3055 8.46044 13.1684 8.12955 12.9244 7.88558C12.6805 7.64161 12.3496 7.50455 12.0046 7.50455C11.6595 7.50455 11.3286 7.64161 11.0847 7.88558C10.8407 8.12955 10.7036 8.46044 10.7036 8.80546C10.7036 9.15049 10.8407 9.48138 11.0847 9.72535C11.3286 9.96932 11.6595 10.1064 12.0046 10.1064Z" stroke="#414141"/>
</svg>
