<svg width="478" height="102" viewBox="0 0 478 102" fill="none" xmlns="http://www.w3.org/2000/svg">
<rect width="478" height="102" rx="4" fill="#52C498"/>
<path d="M73.964 66H70.088L58.426 48.354V66H54.55V42.336H58.426L70.088 59.948V42.336H73.964V66ZM87.1799 66.306C85.4119 66.306 83.8139 65.9093 82.3859 65.116C80.9579 64.3 79.8359 63.1667 79.0199 61.716C78.2039 60.2427 77.7959 58.5427 77.7959 56.616C77.7959 54.712 78.2152 53.0233 79.0539 51.55C79.8926 50.0767 81.0372 48.9433 82.4879 48.15C83.9386 47.3567 85.5592 46.96 87.3499 46.96C89.1406 46.96 90.7612 47.3567 92.2119 48.15C93.6626 48.9433 94.8072 50.0767 95.6459 51.55C96.4846 53.0233 96.9039 54.712 96.9039 56.616C96.9039 58.52 96.4732 60.2087 95.6119 61.682C94.7506 63.1553 93.5719 64.3 92.0759 65.116C90.6026 65.9093 88.9706 66.306 87.1799 66.306ZM87.1799 62.94C88.1772 62.94 89.1066 62.702 89.9679 62.226C90.8519 61.75 91.5659 61.036 92.1099 60.084C92.6539 59.132 92.9259 57.976 92.9259 56.616C92.9259 55.256 92.6652 54.1113 92.1439 53.182C91.6226 52.23 90.9312 51.516 90.0699 51.04C89.2086 50.564 88.2792 50.326 87.2819 50.326C86.2846 50.326 85.3552 50.564 84.4939 51.04C83.6552 51.516 82.9866 52.23 82.4879 53.182C81.9892 54.1113 81.7399 55.256 81.7399 56.616C81.7399 58.6333 82.2499 60.1973 83.2699 61.308C84.3126 62.396 85.6159 62.94 87.1799 62.94ZM105.258 50.428V60.798C105.258 61.5007 105.416 62.0107 105.734 62.328C106.074 62.6227 106.64 62.77 107.434 62.77H109.814V66H106.754C105.008 66 103.671 65.592 102.742 64.776C101.812 63.96 101.348 62.634 101.348 60.798V50.428H99.1375V47.266H101.348V42.608H105.258V47.266H109.814V50.428H105.258ZM115.358 44.784C114.655 44.784 114.066 44.546 113.59 44.07C113.114 43.594 112.876 43.0047 112.876 42.302C112.876 41.5993 113.114 41.01 113.59 40.534C114.066 40.058 114.655 39.82 115.358 39.82C116.038 39.82 116.616 40.058 117.092 40.534C117.568 41.01 117.806 41.5993 117.806 42.302C117.806 43.0047 117.568 43.594 117.092 44.07C116.616 44.546 116.038 44.784 115.358 44.784ZM117.262 47.266V66H113.386V47.266H117.262ZM130.205 50.428H126.737V66H122.827V50.428H120.617V47.266H122.827V45.94C122.827 43.7867 123.393 42.2227 124.527 41.248C125.683 40.2507 127.485 39.752 129.933 39.752V42.982C128.754 42.982 127.927 43.2087 127.451 43.662C126.975 44.0927 126.737 44.852 126.737 45.94V47.266H130.205V50.428ZM135.612 44.784C134.909 44.784 134.32 44.546 133.844 44.07C133.368 43.594 133.13 43.0047 133.13 42.302C133.13 41.5993 133.368 41.01 133.844 40.534C134.32 40.058 134.909 39.82 135.612 39.82C136.292 39.82 136.87 40.058 137.346 40.534C137.822 41.01 138.06 41.5993 138.06 42.302C138.06 43.0047 137.822 43.594 137.346 44.07C136.87 44.546 136.292 44.784 135.612 44.784ZM137.516 47.266V66H133.64V47.266H137.516ZM141.313 56.616C141.313 54.6893 141.698 53.0007 142.469 51.55C143.262 50.0767 144.35 48.9433 145.733 48.15C147.115 47.3567 148.702 46.96 150.493 46.96C152.759 46.96 154.629 47.504 156.103 48.592C157.599 49.6573 158.607 51.1873 159.129 53.182H154.947C154.607 52.2527 154.063 51.5273 153.315 51.006C152.567 50.4847 151.626 50.224 150.493 50.224C148.906 50.224 147.637 50.7907 146.685 51.924C145.755 53.0347 145.291 54.5987 145.291 56.616C145.291 58.6333 145.755 60.2087 146.685 61.342C147.637 62.4753 148.906 63.042 150.493 63.042C152.737 63.042 154.221 62.056 154.947 60.084H159.129C158.585 61.988 157.565 63.5067 156.069 64.64C154.573 65.7507 152.714 66.306 150.493 66.306C148.702 66.306 147.115 65.9093 145.733 65.116C144.35 64.3 143.262 63.1667 142.469 61.716C141.698 60.2427 141.313 58.5427 141.313 56.616ZM161.699 56.548C161.699 54.6667 162.085 53.0007 162.855 51.55C163.649 50.0993 164.714 48.9773 166.051 48.184C167.411 47.368 168.907 46.96 170.539 46.96C172.013 46.96 173.293 47.2547 174.381 47.844C175.492 48.4107 176.376 49.1247 177.033 49.986V47.266H180.943V66H177.033V63.212C176.376 64.096 175.481 64.8327 174.347 65.422C173.214 66.0113 171.922 66.306 170.471 66.306C168.862 66.306 167.389 65.898 166.051 65.082C164.714 64.2433 163.649 63.0873 162.855 61.614C162.085 60.118 161.699 58.4293 161.699 56.548ZM177.033 56.616C177.033 55.324 176.761 54.202 176.217 53.25C175.696 52.298 175.005 51.5727 174.143 51.074C173.282 50.5753 172.353 50.326 171.355 50.326C170.358 50.326 169.429 50.5753 168.567 51.074C167.706 51.55 167.003 52.264 166.459 53.216C165.938 54.1453 165.677 55.256 165.677 56.548C165.677 57.84 165.938 58.9733 166.459 59.948C167.003 60.9227 167.706 61.6707 168.567 62.192C169.451 62.6907 170.381 62.94 171.355 62.94C172.353 62.94 173.282 62.6907 174.143 62.192C175.005 61.6933 175.696 60.968 176.217 60.016C176.761 59.0413 177.033 57.908 177.033 56.616ZM190.556 50.428V60.798C190.556 61.5007 190.715 62.0107 191.032 62.328C191.372 62.6227 191.939 62.77 192.732 62.77H195.112V66H192.052C190.307 66 188.97 65.592 188.04 64.776C187.111 63.96 186.646 62.634 186.646 60.798V50.428H184.436V47.266H186.646V42.608H190.556V47.266H195.112V50.428H190.556ZM200.657 44.784C199.954 44.784 199.365 44.546 198.889 44.07C198.413 43.594 198.175 43.0047 198.175 42.302C198.175 41.5993 198.413 41.01 198.889 40.534C199.365 40.058 199.954 39.82 200.657 39.82C201.337 39.82 201.915 40.058 202.391 40.534C202.867 41.01 203.105 41.5993 203.105 42.302C203.105 43.0047 202.867 43.594 202.391 44.07C201.915 44.546 201.337 44.784 200.657 44.784ZM202.561 47.266V66H198.685V47.266H202.561ZM215.776 66.306C214.008 66.306 212.41 65.9093 210.982 65.116C209.554 64.3 208.432 63.1667 207.616 61.716C206.8 60.2427 206.392 58.5427 206.392 56.616C206.392 54.712 206.811 53.0233 207.65 51.55C208.488 50.0767 209.633 48.9433 211.084 48.15C212.534 47.3567 214.155 46.96 215.946 46.96C217.736 46.96 219.357 47.3567 220.808 48.15C222.258 48.9433 223.403 50.0767 224.242 51.55C225.08 53.0233 225.5 54.712 225.5 56.616C225.5 58.52 225.069 60.2087 224.208 61.682C223.346 63.1553 222.168 64.3 220.672 65.116C219.198 65.9093 217.566 66.306 215.776 66.306ZM215.776 62.94C216.773 62.94 217.702 62.702 218.564 62.226C219.448 61.75 220.162 61.036 220.706 60.084C221.25 59.132 221.522 57.976 221.522 56.616C221.522 55.256 221.261 54.1113 220.74 53.182C220.218 52.23 219.527 51.516 218.666 51.04C217.804 50.564 216.875 50.326 215.878 50.326C214.88 50.326 213.951 50.564 213.09 51.04C212.251 51.516 211.582 52.23 211.084 53.182C210.585 54.1113 210.336 55.256 210.336 56.616C210.336 58.6333 210.846 60.1973 211.866 61.308C212.908 62.396 214.212 62.94 215.776 62.94ZM238.783 46.96C240.257 46.96 241.571 47.266 242.727 47.878C243.906 48.49 244.824 49.3967 245.481 50.598C246.139 51.7993 246.467 53.25 246.467 54.95V66H242.625V55.528C242.625 53.8507 242.206 52.57 241.367 51.686C240.529 50.7793 239.384 50.326 237.933 50.326C236.483 50.326 235.327 50.7793 234.465 51.686C233.627 52.57 233.207 53.8507 233.207 55.528V66H229.331V47.266H233.207V49.408C233.842 48.6373 234.647 48.0367 235.621 47.606C236.619 47.1753 237.673 46.96 238.783 46.96Z" fill="#414141"/>
</svg>
