<svg width="478" height="102" viewBox="0 0 478 102" fill="none" xmlns="http://www.w3.org/2000/svg">
<rect width="478" height="102" rx="4" fill="#52C498"/>
<path d="M65.328 66.238C63.1293 66.238 61.1007 65.728 59.242 64.708C57.406 63.6653 55.944 62.226 54.856 60.39C53.7907 58.5313 53.258 56.446 53.258 54.134C53.258 51.822 53.7907 49.748 54.856 47.912C55.944 46.076 57.406 44.648 59.242 43.628C61.1007 42.5853 63.1293 42.064 65.328 42.064C67.5493 42.064 69.578 42.5853 71.414 43.628C73.2727 44.648 74.7347 46.076 75.8 47.912C76.8653 49.748 77.398 51.822 77.398 54.134C77.398 56.446 76.8653 58.5313 75.8 60.39C74.7347 62.226 73.2727 63.6653 71.414 64.708C69.578 65.728 67.5493 66.238 65.328 66.238ZM65.328 62.872C66.892 62.872 68.286 62.5207 69.51 61.818C70.734 61.0927 71.686 60.0727 72.366 58.758C73.0687 57.4207 73.42 55.8793 73.42 54.134C73.42 52.3887 73.0687 50.8587 72.366 49.544C71.686 48.2293 70.734 47.2207 69.51 46.518C68.286 45.8153 66.892 45.464 65.328 45.464C63.764 45.464 62.37 45.8153 61.146 46.518C59.922 47.2207 58.9587 48.2293 58.256 49.544C57.576 50.8587 57.236 52.3887 57.236 54.134C57.236 55.8793 57.576 57.4207 58.256 58.758C58.9587 60.0727 59.922 61.0927 61.146 61.818C62.37 62.5207 63.764 62.872 65.328 62.872ZM89.0661 50.428H85.5981V66H81.6881V50.428H79.4781V47.266H81.6881V45.94C81.6881 43.7867 82.2548 42.2227 83.3881 41.248C84.5441 40.2507 86.3461 39.752 88.7941 39.752V42.982C87.6154 42.982 86.7881 43.2087 86.3121 43.662C85.8361 44.0927 85.5981 44.852 85.5981 45.94V47.266H89.0661V50.428ZM100.355 50.428H96.8872V66H92.9772V50.428H90.7672V47.266H92.9772V45.94C92.9772 43.7867 93.5438 42.2227 94.6772 41.248C95.8332 40.2507 97.6352 39.752 100.083 39.752V42.982C98.9045 42.982 98.0772 43.2087 97.6012 43.662C97.1252 44.0927 96.8872 44.852 96.8872 45.94V47.266H100.355V50.428ZM120.96 56.174C120.96 56.8767 120.915 57.5113 120.824 58.078H106.51C106.624 59.574 107.179 60.7753 108.176 61.682C109.174 62.5887 110.398 63.042 111.848 63.042C113.934 63.042 115.407 62.1693 116.268 60.424H120.45C119.884 62.1467 118.852 63.5633 117.356 64.674C115.883 65.762 114.047 66.306 111.848 66.306C110.058 66.306 108.448 65.9093 107.02 65.116C105.615 64.3 104.504 63.1667 103.688 61.716C102.895 60.2427 102.498 58.5427 102.498 56.616C102.498 54.6893 102.884 53.0007 103.654 51.55C104.448 50.0767 105.547 48.9433 106.952 48.15C108.38 47.3567 110.012 46.96 111.848 46.96C113.616 46.96 115.192 47.3453 116.574 48.116C117.957 48.8867 119.034 49.9747 119.804 51.38C120.575 52.7627 120.96 54.3607 120.96 56.174ZM116.914 54.95C116.892 53.522 116.382 52.3773 115.384 51.516C114.387 50.6547 113.152 50.224 111.678 50.224C110.341 50.224 109.196 50.6547 108.244 51.516C107.292 52.3547 106.726 53.4993 106.544 54.95H116.914ZM128.651 49.986C129.217 49.034 129.965 48.2973 130.895 47.776C131.847 47.232 132.969 46.96 134.261 46.96V50.972H133.275C131.756 50.972 130.6 51.3573 129.807 52.128C129.036 52.8987 128.651 54.236 128.651 56.14V66H124.775V47.266H128.651V49.986Z" fill="#414141"/>
</svg>
