<svg width="1434" height="102" viewBox="0 0 1434 102" fill="none" xmlns="http://www.w3.org/2000/svg">
<rect width="1434" height="102" rx="4" fill="#52C498"/>
<path d="M65.328 66.238C63.1293 66.238 61.1007 65.728 59.242 64.708C57.406 63.6653 55.944 62.226 54.856 60.39C53.7907 58.5313 53.258 56.446 53.258 54.134C53.258 51.822 53.7907 49.748 54.856 47.912C55.944 46.076 57.406 44.648 59.242 43.628C61.1007 42.5853 63.1293 42.064 65.328 42.064C67.5493 42.064 69.578 42.5853 71.414 43.628C73.2727 44.648 74.7347 46.076 75.8 47.912C76.8653 49.748 77.398 51.822 77.398 54.134C77.398 56.446 76.8653 58.5313 75.8 60.39C74.7347 62.226 73.2727 63.6653 71.414 64.708C69.578 65.728 67.5493 66.238 65.328 66.238ZM65.328 62.872C66.892 62.872 68.286 62.5207 69.51 61.818C70.734 61.0927 71.686 60.0727 72.366 58.758C73.0687 57.4207 73.42 55.8793 73.42 54.134C73.42 52.3887 73.0687 50.8587 72.366 49.544C71.686 48.2293 70.734 47.2207 69.51 46.518C68.286 45.8153 66.892 45.464 65.328 45.464C63.764 45.464 62.37 45.8153 61.146 46.518C59.922 47.2207 58.9587 48.2293 58.256 49.544C57.576 50.8587 57.236 52.3887 57.236 54.134C57.236 55.8793 57.576 57.4207 58.256 58.758C58.9587 60.0727 59.922 61.0927 61.146 61.818C62.37 62.5207 63.764 62.872 65.328 62.872ZM90.6641 46.96C92.1374 46.96 93.4521 47.266 94.6081 47.878C95.7868 48.49 96.7048 49.3967 97.3621 50.598C98.0194 51.7993 98.3481 53.25 98.3481 54.95V66H94.5061V55.528C94.5061 53.8507 94.0868 52.57 93.2481 51.686C92.4094 50.7793 91.2648 50.326 89.8141 50.326C88.3634 50.326 87.2074 50.7793 86.3461 51.686C85.5074 52.57 85.0881 53.8507 85.0881 55.528V66H81.2121V47.266H85.0881V49.408C85.7228 48.6373 86.5274 48.0367 87.5021 47.606C88.4994 47.1753 89.5534 46.96 90.6641 46.96ZM107.168 50.054C107.826 49.1473 108.721 48.4107 109.854 47.844C111.01 47.2547 112.291 46.96 113.696 46.96C115.351 46.96 116.847 47.3567 118.184 48.15C119.522 48.9433 120.576 50.0767 121.346 51.55C122.117 53.0007 122.502 54.6667 122.502 56.548C122.502 58.4293 122.117 60.118 121.346 61.614C120.576 63.0873 119.51 64.2433 118.15 65.082C116.813 65.898 115.328 66.306 113.696 66.306C112.246 66.306 110.954 66.0227 109.82 65.456C108.71 64.8893 107.826 64.164 107.168 63.28V66H103.292V40.84H107.168V50.054ZM118.558 56.548C118.558 55.256 118.286 54.1453 117.742 53.216C117.221 52.264 116.518 51.55 115.634 51.074C114.773 50.5753 113.844 50.326 112.846 50.326C111.872 50.326 110.942 50.5753 110.058 51.074C109.197 51.5727 108.494 52.298 107.95 53.25C107.429 54.202 107.168 55.324 107.168 56.616C107.168 57.908 107.429 59.0413 107.95 60.016C108.494 60.968 109.197 61.6933 110.058 62.192C110.942 62.6907 111.872 62.94 112.846 62.94C113.844 62.94 114.773 62.6907 115.634 62.192C116.518 61.6707 117.221 60.9227 117.742 59.948C118.286 58.9733 118.558 57.84 118.558 56.548ZM134.461 66.306C132.693 66.306 131.095 65.9093 129.667 65.116C128.239 64.3 127.117 63.1667 126.301 61.716C125.485 60.2427 125.077 58.5427 125.077 56.616C125.077 54.712 125.496 53.0233 126.335 51.55C127.174 50.0767 128.318 48.9433 129.769 48.15C131.22 47.3567 132.84 46.96 134.631 46.96C136.422 46.96 138.042 47.3567 139.493 48.15C140.944 48.9433 142.088 50.0767 142.927 51.55C143.766 53.0233 144.185 54.712 144.185 56.616C144.185 58.52 143.754 60.2087 142.893 61.682C142.032 63.1553 140.853 64.3 139.357 65.116C137.884 65.9093 136.252 66.306 134.461 66.306ZM134.461 62.94C135.458 62.94 136.388 62.702 137.249 62.226C138.133 61.75 138.847 61.036 139.391 60.084C139.935 59.132 140.207 57.976 140.207 56.616C140.207 55.256 139.946 54.1113 139.425 53.182C138.904 52.23 138.212 51.516 137.351 51.04C136.49 50.564 135.56 50.326 134.563 50.326C133.566 50.326 132.636 50.564 131.775 51.04C130.936 51.516 130.268 52.23 129.769 53.182C129.27 54.1113 129.021 55.256 129.021 56.616C129.021 58.6333 129.531 60.1973 130.551 61.308C131.594 62.396 132.897 62.94 134.461 62.94ZM146.725 56.548C146.725 54.6667 147.11 53.0007 147.881 51.55C148.674 50.0993 149.739 48.9773 151.077 48.184C152.437 47.368 153.933 46.96 155.565 46.96C157.038 46.96 158.319 47.2547 159.407 47.844C160.517 48.4107 161.401 49.1247 162.059 49.986V47.266H165.969V66H162.059V63.212C161.401 64.096 160.506 64.8327 159.373 65.422C158.239 66.0113 156.947 66.306 155.497 66.306C153.887 66.306 152.414 65.898 151.077 65.082C149.739 64.2433 148.674 63.0873 147.881 61.614C147.11 60.118 146.725 58.4293 146.725 56.548ZM162.059 56.616C162.059 55.324 161.787 54.202 161.243 53.25C160.721 52.298 160.03 51.5727 159.169 51.074C158.307 50.5753 157.378 50.326 156.381 50.326C155.383 50.326 154.454 50.5753 153.593 51.074C152.731 51.55 152.029 52.264 151.485 53.216C150.963 54.1453 150.703 55.256 150.703 56.548C150.703 57.84 150.963 58.9733 151.485 59.948C152.029 60.9227 152.731 61.6707 153.593 62.192C154.477 62.6907 155.406 62.94 156.381 62.94C157.378 62.94 158.307 62.6907 159.169 62.192C160.03 61.6933 160.721 60.968 161.243 60.016C161.787 59.0413 162.059 57.908 162.059 56.616ZM174.936 49.986C175.502 49.034 176.25 48.2973 177.18 47.776C178.132 47.232 179.254 46.96 180.546 46.96V50.972H179.56C178.041 50.972 176.885 51.3573 176.092 52.128C175.321 52.8987 174.936 54.236 174.936 56.14V66H171.06V47.266H174.936V49.986ZM182.817 56.548C182.817 54.6667 183.202 53.0007 183.973 51.55C184.766 50.0993 185.831 48.9773 187.169 48.184C188.529 47.368 190.036 46.96 191.691 46.96C192.915 46.96 194.116 47.232 195.295 47.776C196.496 48.2973 197.448 49 198.151 49.884V40.84H202.061V66H198.151V63.178C197.516 64.0847 196.632 64.8327 195.499 65.422C194.388 66.0113 193.107 66.306 191.657 66.306C190.025 66.306 188.529 65.898 187.169 65.082C185.831 64.2433 184.766 63.0873 183.973 61.614C183.202 60.118 182.817 58.4293 182.817 56.548ZM198.151 56.616C198.151 55.324 197.879 54.202 197.335 53.25C196.813 52.298 196.122 51.5727 195.261 51.074C194.399 50.5753 193.47 50.326 192.473 50.326C191.475 50.326 190.546 50.5753 189.685 51.074C188.823 51.55 188.121 52.264 187.577 53.216C187.055 54.1453 186.795 55.256 186.795 56.548C186.795 57.84 187.055 58.9733 187.577 59.948C188.121 60.9227 188.823 61.6707 189.685 62.192C190.569 62.6907 191.498 62.94 192.473 62.94C193.47 62.94 194.399 62.6907 195.261 62.192C196.122 61.6933 196.813 60.968 197.335 60.016C197.879 59.0413 198.151 57.908 198.151 56.616ZM209.124 44.784C208.421 44.784 207.832 44.546 207.356 44.07C206.88 43.594 206.642 43.0047 206.642 42.302C206.642 41.5993 206.88 41.01 207.356 40.534C207.832 40.058 208.421 39.82 209.124 39.82C209.804 39.82 210.382 40.058 210.858 40.534C211.334 41.01 211.572 41.5993 211.572 42.302C211.572 43.0047 211.334 43.594 210.858 44.07C210.382 44.546 209.804 44.784 209.124 44.784ZM211.028 47.266V66H207.152V47.266H211.028ZM225.568 46.96C227.042 46.96 228.356 47.266 229.512 47.878C230.691 48.49 231.609 49.3967 232.266 50.598C232.924 51.7993 233.252 53.25 233.252 54.95V66H229.41V55.528C229.41 53.8507 228.991 52.57 228.152 51.686C227.314 50.7793 226.169 50.326 224.718 50.326C223.268 50.326 222.112 50.7793 221.25 51.686C220.412 52.57 219.992 53.8507 219.992 55.528V66H216.116V47.266H219.992V49.408C220.627 48.6373 221.432 48.0367 222.406 47.606C223.404 47.1753 224.458 46.96 225.568 46.96ZM245.744 46.96C247.195 46.96 248.476 47.2547 249.586 47.844C250.72 48.4107 251.604 49.1247 252.238 49.986V47.266H256.148V66.306C256.148 68.0287 255.786 69.5587 255.06 70.896C254.335 72.256 253.281 73.3213 251.898 74.092C250.538 74.8627 248.906 75.248 247.002 75.248C244.464 75.248 242.356 74.6473 240.678 73.446C239.001 72.2673 238.049 70.658 237.822 68.618H241.664C241.959 69.5927 242.582 70.3747 243.534 70.964C244.509 71.576 245.665 71.882 247.002 71.882C248.566 71.882 249.824 71.406 250.776 70.454C251.751 69.502 252.238 68.1193 252.238 66.306V63.178C251.581 64.062 250.686 64.81 249.552 65.422C248.442 66.0113 247.172 66.306 245.744 66.306C244.112 66.306 242.616 65.898 241.256 65.082C239.919 64.2433 238.854 63.0873 238.06 61.614C237.29 60.118 236.904 58.4293 236.904 56.548C236.904 54.6667 237.29 53.0007 238.06 51.55C238.854 50.0993 239.919 48.9773 241.256 48.184C242.616 47.368 244.112 46.96 245.744 46.96ZM252.238 56.616C252.238 55.324 251.966 54.202 251.422 53.25C250.901 52.298 250.21 51.5727 249.348 51.074C248.487 50.5753 247.558 50.326 246.56 50.326C245.563 50.326 244.634 50.5753 243.772 51.074C242.911 51.55 242.208 52.264 241.664 53.216C241.143 54.1453 240.882 55.256 240.882 56.548C240.882 57.84 241.143 58.9733 241.664 59.948C242.208 60.9227 242.911 61.6707 243.772 62.192C244.656 62.6907 245.586 62.94 246.56 62.94C247.558 62.94 248.487 62.6907 249.348 62.192C250.21 61.6933 250.901 60.968 251.422 60.016C251.966 59.0413 252.238 57.908 252.238 56.616Z" fill="#414141"/>
</svg>
