<svg width="478" height="102" viewBox="0 0 478 102" fill="none" xmlns="http://www.w3.org/2000/svg">
<rect width="478" height="102" rx="4" fill="#52C498"/>
<path d="M71.074 49.408C71.074 50.6093 70.7907 51.7427 70.224 52.808C69.6573 53.8733 68.7507 54.746 67.504 55.426C66.2573 56.0833 64.6593 56.412 62.71 56.412H58.426V66H54.55V42.37H62.71C64.5233 42.37 66.0533 42.6873 67.3 43.322C68.5693 43.934 69.51 44.7727 70.122 45.838C70.7567 46.9033 71.074 48.0933 71.074 49.408ZM62.71 53.25C64.1833 53.25 65.2827 52.9213 66.008 52.264C66.7333 51.584 67.096 50.632 67.096 49.408C67.096 46.824 65.634 45.532 62.71 45.532H58.426V53.25H62.71ZM78.6467 49.986C79.2134 49.034 79.9614 48.2973 80.8907 47.776C81.8427 47.232 82.9647 46.96 84.2567 46.96V50.972H83.2707C81.752 50.972 80.596 51.3573 79.8027 52.128C79.032 52.8987 78.6467 54.236 78.6467 56.14V66H74.7707V47.266H78.6467V49.986ZM95.9455 66.306C94.1775 66.306 92.5795 65.9093 91.1515 65.116C89.7235 64.3 88.6015 63.1667 87.7855 61.716C86.9695 60.2427 86.5615 58.5427 86.5615 56.616C86.5615 54.712 86.9809 53.0233 87.8195 51.55C88.6582 50.0767 89.8029 48.9433 91.2535 48.15C92.7042 47.3567 94.3249 46.96 96.1155 46.96C97.9062 46.96 99.5269 47.3567 100.978 48.15C102.428 48.9433 103.573 50.0767 104.412 51.55C105.25 53.0233 105.67 54.712 105.67 56.616C105.67 58.52 105.239 60.2087 104.378 61.682C103.516 63.1553 102.338 64.3 100.842 65.116C99.3682 65.9093 97.7362 66.306 95.9455 66.306ZM95.9455 62.94C96.9429 62.94 97.8722 62.702 98.7335 62.226C99.6175 61.75 100.332 61.036 100.876 60.084C101.42 59.132 101.692 57.976 101.692 56.616C101.692 55.256 101.431 54.1113 100.91 53.182C100.388 52.23 99.6969 51.516 98.8355 51.04C97.9742 50.564 97.0449 50.326 96.0475 50.326C95.0502 50.326 94.1209 50.564 93.2595 51.04C92.4209 51.516 91.7522 52.23 91.2535 53.182C90.7549 54.1113 90.5055 55.256 90.5055 56.616C90.5055 58.6333 91.0155 60.1973 92.0355 61.308C93.0782 62.396 94.3815 62.94 95.9455 62.94ZM117.355 50.428H113.887V66H109.977V50.428H107.767V47.266H109.977V45.94C109.977 43.7867 110.544 42.2227 111.677 41.248C112.833 40.2507 114.635 39.752 117.083 39.752V42.982C115.905 42.982 115.077 43.2087 114.601 43.662C114.125 44.0927 113.887 44.852 113.887 45.94V47.266H117.355V50.428ZM122.762 44.784C122.06 44.784 121.47 44.546 120.994 44.07C120.518 43.594 120.28 43.0047 120.28 42.302C120.28 41.5993 120.518 41.01 120.994 40.534C121.47 40.058 122.06 39.82 122.762 39.82C123.442 39.82 124.02 40.058 124.496 40.534C124.972 41.01 125.21 41.5993 125.21 42.302C125.21 43.0047 124.972 43.594 124.496 44.07C124.02 44.546 123.442 44.784 122.762 44.784ZM124.666 47.266V66H120.79V47.266H124.666ZM133.631 40.84V66H129.755V40.84H133.631ZM155.89 56.174C155.89 56.8767 155.845 57.5113 155.754 58.078H141.44C141.553 59.574 142.109 60.7753 143.106 61.682C144.103 62.5887 145.327 63.042 146.778 63.042C148.863 63.042 150.337 62.1693 151.198 60.424H155.38C154.813 62.1467 153.782 63.5633 152.286 64.674C150.813 65.762 148.977 66.306 146.778 66.306C144.987 66.306 143.378 65.9093 141.95 65.116C140.545 64.3 139.434 63.1667 138.618 61.716C137.825 60.2427 137.428 58.5427 137.428 56.616C137.428 54.6893 137.813 53.0007 138.584 51.55C139.377 50.0767 140.477 48.9433 141.882 48.15C143.31 47.3567 144.942 46.96 146.778 46.96C148.546 46.96 150.121 47.3453 151.504 48.116C152.887 48.8867 153.963 49.9747 154.734 51.38C155.505 52.7627 155.89 54.3607 155.89 56.174ZM151.844 54.95C151.821 53.522 151.311 52.3773 150.314 51.516C149.317 50.6547 148.081 50.224 146.608 50.224C145.271 50.224 144.126 50.6547 143.174 51.516C142.222 52.3547 141.655 53.4993 141.474 54.95H151.844Z" fill="#414141"/>
</svg>
