<svg width="24" height="24" viewBox="0 0 24 24" fill="none" xmlns="http://www.w3.org/2000/svg">
<path d="M7.49003 11.7919C7.37763 12.3267 7.03199 12.7833 6.54772 13.0366C6.01669 13.3143 5.3833 13.3143 4.85227 13.0366C4.368 12.7833 4.02236 12.3267 3.90996 11.7919L3.87099 11.6065C3.75531 11.0561 3.87945 10.4824 4.21234 10.0291L4.27546 9.94309C4.60843 9.48963 5.13741 9.22178 5.69999 9.22178C6.26258 9.22178 6.79155 9.48963 7.12453 9.94309L7.18764 10.0291C7.52054 10.4824 7.64468 11.0561 7.529 11.6065L7.49003 11.7919Z" fill="#C2CCDE" fill-opacity="0.25"/>
<path d="M2.39999 16.8399C2.39999 17.1492 2.65072 17.4 2.96 17.4H6.39319C6.61394 16.4192 7.2145 15.5619 8.06252 15.0195C7.90989 14.9106 7.74194 14.8199 7.5612 14.7509L7.43465 14.7026C6.3175 14.2763 5.08249 14.2763 3.96534 14.7026L3.83879 14.7509C2.97239 15.0815 2.39999 15.9126 2.39999 16.8399Z" fill="#C2CCDE" fill-opacity="0.25"/>
<path d="M21.04 17.4H17.6068C17.3861 16.4193 16.7855 15.5619 15.9375 15.0195C16.0901 14.9107 16.2581 14.8199 16.4388 14.751L16.5653 14.7027C17.6825 14.2763 18.9175 14.2763 20.0346 14.7027L20.1612 14.751C21.0276 15.0816 21.6 15.9127 21.6 16.84C21.6 17.1493 21.3493 17.4 21.04 17.4Z" fill="#C2CCDE" fill-opacity="0.25"/>
<path d="M16.51 11.792C16.6224 12.3268 16.968 12.7834 17.4523 13.0366C17.9833 13.3144 18.6167 13.3144 19.1477 13.0366C19.632 12.7834 19.9776 12.3268 20.09 11.792L20.129 11.6066C20.2447 11.0561 20.1205 10.4825 19.7876 10.0291L19.7245 9.94316C19.3916 9.48969 18.8626 9.22185 18.3 9.22185C17.7374 9.22185 17.2084 9.48969 16.8755 9.94316L16.8123 10.0291C16.4794 10.4825 16.3553 11.0561 16.471 11.6066L16.51 11.792Z" fill="#C2CCDE" fill-opacity="0.25"/>
<path d="M16.74 19.2H7.26C6.7298 19.2 6.29999 18.7702 6.29999 18.24C6.29999 16.651 7.28289 15.2277 8.76885 14.6649L9.01831 14.5705C10.9395 13.8428 13.0605 13.8428 14.9817 14.5705L15.2311 14.6649C16.7171 15.2277 17.7 16.651 17.7 18.24C17.7 18.7702 17.2702 19.2 16.74 19.2Z" fill="#C2CCDE" fill-opacity="0.25"/>
<path d="M10.5424 11.7234C11.4562 12.1977 12.5438 12.1977 13.4576 11.7234C14.2981 11.2871 14.899 10.4972 15.0952 9.57077L15.1566 9.2808C15.3579 8.32986 15.1422 7.33822 14.5641 6.55681L14.465 6.42288C13.8868 5.64132 12.9722 5.18028 12 5.18028C11.0278 5.18028 10.1132 5.64133 9.53495 6.42288L9.43587 6.55681C8.85774 7.33822 8.64208 8.32986 8.84344 9.2808L8.90484 9.57077C9.10101 10.4972 9.70188 11.2871 10.5424 11.7234Z" fill="#C2CCDE" fill-opacity="0.25"/>
<path d="M7.49003 11.7919C7.37763 12.3267 7.03199 12.7833 6.54772 13.0366C6.01669 13.3143 5.3833 13.3143 4.85227 13.0366C4.368 12.7833 4.02236 12.3267 3.90996 11.7919L3.87099 11.6065C3.75531 11.0561 3.87945 10.4824 4.21234 10.0291L4.27546 9.94309C4.60843 9.48963 5.13741 9.22178 5.69999 9.22178C6.26258 9.22178 6.79155 9.48963 7.12453 9.94309L7.18764 10.0291C7.52054 10.4824 7.64468 11.0561 7.529 11.6065L7.49003 11.7919Z" stroke="#414141" stroke-linecap="round" stroke-linejoin="round"/>
<path d="M2.39999 16.8399C2.39999 17.1492 2.65072 17.4 2.96 17.4H6.39319C6.61394 16.4192 7.2145 15.5619 8.06252 15.0195C7.90989 14.9106 7.74194 14.8199 7.5612 14.7509L7.43465 14.7026C6.3175 14.2763 5.08249 14.2763 3.96534 14.7026L3.83879 14.7509C2.97239 15.0815 2.39999 15.9126 2.39999 16.8399Z" stroke="#414141" stroke-linecap="round" stroke-linejoin="round"/>
<path d="M21.04 17.4H17.6068C17.3861 16.4193 16.7855 15.5619 15.9375 15.0195C16.0901 14.9107 16.2581 14.8199 16.4388 14.751L16.5653 14.7027C17.6825 14.2763 18.9175 14.2763 20.0346 14.7027L20.1612 14.751C21.0276 15.0816 21.6 15.9127 21.6 16.84C21.6 17.1493 21.3493 17.4 21.04 17.4Z" stroke="#414141" stroke-linecap="round" stroke-linejoin="round"/>
<path d="M16.51 11.792C16.6224 12.3268 16.968 12.7834 17.4523 13.0366C17.9833 13.3144 18.6167 13.3144 19.1477 13.0366C19.632 12.7834 19.9776 12.3268 20.09 11.792L20.129 11.6066C20.2447 11.0561 20.1205 10.4825 19.7876 10.0291L19.7245 9.94316C19.3916 9.48969 18.8626 9.22185 18.3 9.22185C17.7374 9.22185 17.2084 9.48969 16.8755 9.94316L16.8123 10.0291C16.4794 10.4825 16.3553 11.0561 16.471 11.6066L16.51 11.792Z" stroke="#414141" stroke-linecap="round" stroke-linejoin="round"/>
<path d="M16.74 19.2H7.26C6.7298 19.2 6.29999 18.7702 6.29999 18.24C6.29999 16.651 7.28289 15.2277 8.76885 14.6649L9.01831 14.5705C10.9395 13.8428 13.0605 13.8428 14.9817 14.5705L15.2311 14.6649C16.7171 15.2277 17.7 16.651 17.7 18.24C17.7 18.7702 17.2702 19.2 16.74 19.2Z" stroke="#414141" stroke-linecap="round" stroke-linejoin="round"/>
<path d="M10.5424 11.7234C11.4562 12.1977 12.5438 12.1977 13.4576 11.7234C14.2981 11.2871 14.899 10.4972 15.0952 9.57077L15.1566 9.2808C15.3579 8.32986 15.1422 7.33822 14.5641 6.55681L14.465 6.42288C13.8868 5.64132 12.9722 5.18028 12 5.18028C11.0278 5.18028 10.1132 5.64133 9.53495 6.42288L9.43587 6.55681C8.85774 7.33822 8.64208 8.32986 8.84344 9.2808L8.90484 9.57077C9.10101 10.4972 9.70188 11.2871 10.5424 11.7234Z" stroke="#414141" stroke-linecap="round" stroke-linejoin="round"/>
</svg>
