<svg width="478" height="102" viewBox="0 0 478 102" fill="none" xmlns="http://www.w3.org/2000/svg">
<rect width="478" height="102" rx="4" fill="#52C498"/>
<path d="M66.824 66L61.384 56.548H58.426V66H54.55V42.37H62.71C64.5233 42.37 66.0533 42.6873 67.3 43.322C68.5693 43.9567 69.51 44.8067 70.122 45.872C70.7567 46.9373 71.074 48.1273 71.074 49.442C71.074 50.9833 70.6207 52.3887 69.714 53.658C68.83 54.9047 67.4587 55.7547 65.6 56.208L71.448 66H66.824ZM58.426 53.454H62.71C64.1607 53.454 65.2487 53.0913 65.974 52.366C66.722 51.6407 67.096 50.666 67.096 49.442C67.096 48.218 66.7333 47.266 66.008 46.586C65.2827 45.8833 64.1833 45.532 62.71 45.532H58.426V53.454ZM93.2024 56.174C93.2024 56.8767 93.1571 57.5113 93.0664 58.078H78.7524C78.8658 59.574 79.4211 60.7753 80.4184 61.682C81.4158 62.5887 82.6398 63.042 84.0904 63.042C86.1758 63.042 87.6491 62.1693 88.5104 60.424H92.6924C92.1258 62.1467 91.0944 63.5633 89.5984 64.674C88.1251 65.762 86.2891 66.306 84.0904 66.306C82.2998 66.306 80.6904 65.9093 79.2624 65.116C77.8571 64.3 76.7464 63.1667 75.9304 61.716C75.1371 60.2427 74.7404 58.5427 74.7404 56.616C74.7404 54.6893 75.1258 53.0007 75.8964 51.55C76.6898 50.0767 77.7891 48.9433 79.1944 48.15C80.6224 47.3567 82.2544 46.96 84.0904 46.96C85.8584 46.96 87.4338 47.3453 88.8164 48.116C90.1991 48.8867 91.2758 49.9747 92.0464 51.38C92.8171 52.7627 93.2024 54.3607 93.2024 56.174ZM89.1564 54.95C89.1338 53.522 88.6238 52.3773 87.6264 51.516C86.6291 50.6547 85.3938 50.224 83.9204 50.224C82.5831 50.224 81.4384 50.6547 80.4864 51.516C79.5344 52.3547 78.9678 53.4993 78.7864 54.95H89.1564ZM104.871 50.428H101.403V66H97.4928V50.428H95.2828V47.266H97.4928V45.94C97.4928 43.7867 98.0595 42.2227 99.1928 41.248C100.349 40.2507 102.151 39.752 104.599 39.752V42.982C103.42 42.982 102.593 43.2087 102.117 43.662C101.641 44.0927 101.403 44.852 101.403 45.94V47.266H104.871V50.428ZM125.476 56.174C125.476 56.8767 125.431 57.5113 125.34 58.078H111.026C111.139 59.574 111.695 60.7753 112.692 61.682C113.689 62.5887 114.913 63.042 116.364 63.042C118.449 63.042 119.923 62.1693 120.784 60.424H124.966C124.399 62.1467 123.368 63.5633 121.872 64.674C120.399 65.762 118.563 66.306 116.364 66.306C114.573 66.306 112.964 65.9093 111.536 65.116C110.131 64.3 109.02 63.1667 108.204 61.716C107.411 60.2427 107.014 58.5427 107.014 56.616C107.014 54.6893 107.399 53.0007 108.17 51.55C108.963 50.0767 110.063 48.9433 111.468 48.15C112.896 47.3567 114.528 46.96 116.364 46.96C118.132 46.96 119.707 47.3453 121.09 48.116C122.473 48.8867 123.549 49.9747 124.32 51.38C125.091 52.7627 125.476 54.3607 125.476 56.174ZM121.43 54.95C121.407 53.522 120.897 52.3773 119.9 51.516C118.903 50.6547 117.667 50.224 116.194 50.224C114.857 50.224 113.712 50.6547 112.76 51.516C111.808 52.3547 111.241 53.4993 111.06 54.95H121.43ZM133.166 49.986C133.733 49.034 134.481 48.2973 135.41 47.776C136.362 47.232 137.484 46.96 138.776 46.96V50.972H137.79C136.272 50.972 135.116 51.3573 134.322 52.128C133.552 52.8987 133.166 54.236 133.166 56.14V66H129.29V47.266H133.166V49.986ZM146.215 49.986C146.782 49.034 147.53 48.2973 148.459 47.776C149.411 47.232 150.533 46.96 151.825 46.96V50.972H150.839C149.32 50.972 148.164 51.3573 147.371 52.128C146.6 52.8987 146.215 54.236 146.215 56.14V66H142.339V47.266H146.215V49.986ZM154.096 56.548C154.096 54.6667 154.481 53.0007 155.252 51.55C156.045 50.0993 157.111 48.9773 158.448 48.184C159.808 47.368 161.304 46.96 162.936 46.96C164.409 46.96 165.69 47.2547 166.778 47.844C167.889 48.4107 168.773 49.1247 169.43 49.986V47.266H173.34V66H169.43V63.212C168.773 64.096 167.877 64.8327 166.744 65.422C165.611 66.0113 164.319 66.306 162.868 66.306C161.259 66.306 159.785 65.898 158.448 65.082C157.111 64.2433 156.045 63.0873 155.252 61.614C154.481 60.118 154.096 58.4293 154.096 56.548ZM169.43 56.616C169.43 55.324 169.158 54.202 168.614 53.25C168.093 52.298 167.401 51.5727 166.54 51.074C165.679 50.5753 164.749 50.326 163.752 50.326C162.755 50.326 161.825 50.5753 160.964 51.074C160.103 51.55 159.4 52.264 158.856 53.216C158.335 54.1453 158.074 55.256 158.074 56.548C158.074 57.84 158.335 58.9733 158.856 59.948C159.4 60.9227 160.103 61.6707 160.964 62.192C161.848 62.6907 162.777 62.94 163.752 62.94C164.749 62.94 165.679 62.6907 166.54 62.192C167.401 61.6933 168.093 60.968 168.614 60.016C169.158 59.0413 169.43 57.908 169.43 56.616ZM182.307 40.84V66H178.431V40.84H182.307Z" fill="#414141"/>
</svg>
