<svg width="24" height="24" viewBox="0 0 24 24" fill="none" xmlns="http://www.w3.org/2000/svg">
<path d="M19.036 20.3246L15.2175 16.5051C14.8663 16.1538 14.8663 15.5843 15.2175 15.233C15.5689 14.8817 16.1385 14.8818 16.4897 15.2331L20.3083 19.0527C20.6595 19.404 20.6595 19.9735 20.3082 20.3247C19.9569 20.676 19.3873 20.676 19.036 20.3246Z" fill="#C2CCDE" fill-opacity="0.25"/>
<path d="M4.67899 8.72065C5.20751 6.74818 6.74818 5.20751 8.72065 4.67899C10.6931 4.15047 12.7977 4.7144 14.2417 6.15834C15.6856 7.60229 16.2495 9.70688 15.721 11.6793C15.1925 13.6518 13.6518 15.1925 11.6793 15.721C9.70688 16.2495 7.60229 15.6856 6.15834 14.2417C4.71439 12.7977 4.15047 10.6931 4.67899 8.72065Z" fill="#C2CCDE" fill-opacity="0.25"/>
<path d="M14.2335 14.2495L15.2173 15.2333M15.2175 16.5051L19.036 20.3246C19.3873 20.676 19.9569 20.676 20.3082 20.3247C20.6595 19.9735 20.6595 19.404 20.3083 19.0527L16.4897 15.2331C16.1385 14.8818 15.5689 14.8817 15.2175 15.233C14.8663 15.5843 14.8663 16.1538 15.2175 16.5051ZM6.15834 14.2417C4.71439 12.7977 4.15047 10.6931 4.67899 8.72065C5.20751 6.74818 6.74818 5.20751 8.72065 4.67899C10.6931 4.15047 12.7977 4.7144 14.2417 6.15834C15.6856 7.60229 16.2495 9.70688 15.721 11.6793C15.1925 13.6518 13.6518 15.1925 11.6793 15.721C9.70688 16.2495 7.60229 15.6856 6.15834 14.2417Z" stroke="#414141" stroke-linecap="round" stroke-linejoin="round"/>
</svg>
