<svg width="3049" height="102" viewBox="0 0 3049 102" fill="none" xmlns="http://www.w3.org/2000/svg">
<rect width="3049" height="102" rx="4" fill="#52C498"/>
<path d="M62.336 66.238C60.7493 66.238 59.3213 65.966 58.052 65.422C56.7827 64.8553 55.7853 64.062 55.06 63.042C54.3347 62.022 53.972 60.832 53.972 59.472H58.12C58.2107 60.492 58.6073 61.3307 59.31 61.988C60.0353 62.6453 61.044 62.974 62.336 62.974C63.6733 62.974 64.716 62.6567 65.464 62.022C66.212 61.3647 66.586 60.526 66.586 59.506C66.586 58.7127 66.348 58.0667 65.872 57.568C65.4187 57.0693 64.8407 56.684 64.138 56.412C63.458 56.14 62.506 55.8453 61.282 55.528C59.7407 55.12 58.4827 54.712 57.508 54.304C56.556 53.8733 55.74 53.216 55.06 52.332C54.38 51.448 54.04 50.2693 54.04 48.796C54.04 47.436 54.38 46.246 55.06 45.226C55.74 44.206 56.692 43.424 57.916 42.88C59.14 42.336 60.5567 42.064 62.166 42.064C64.4553 42.064 66.3253 42.642 67.776 43.798C69.2493 44.9313 70.0653 46.4953 70.224 48.49H65.94C65.872 47.6287 65.464 46.892 64.716 46.28C63.968 45.668 62.982 45.362 61.758 45.362C60.6473 45.362 59.7407 45.6453 59.038 46.212C58.3353 46.7787 57.984 47.5947 57.984 48.66C57.984 49.3853 58.1993 49.986 58.63 50.462C59.0833 50.9153 59.65 51.278 60.33 51.55C61.01 51.822 61.9393 52.1167 63.118 52.434C64.682 52.8647 65.9513 53.2953 66.926 53.726C67.9233 54.1567 68.762 54.8253 69.442 55.732C70.1447 56.616 70.496 57.806 70.496 59.302C70.496 60.5033 70.1673 61.6367 69.51 62.702C68.8753 63.7673 67.9347 64.6287 66.688 65.286C65.464 65.9207 64.0133 66.238 62.336 66.238ZM92.2395 56.174C92.2395 56.8767 92.1942 57.5113 92.1035 58.078H77.7895C77.9029 59.574 78.4582 60.7753 79.4555 61.682C80.4529 62.5887 81.6769 63.042 83.1275 63.042C85.2129 63.042 86.6862 62.1693 87.5475 60.424H91.7295C91.1629 62.1467 90.1315 63.5633 88.6355 64.674C87.1622 65.762 85.3262 66.306 83.1275 66.306C81.3369 66.306 79.7275 65.9093 78.2995 65.116C76.8942 64.3 75.7835 63.1667 74.9675 61.716C74.1742 60.2427 73.7775 58.5427 73.7775 56.616C73.7775 54.6893 74.1629 53.0007 74.9335 51.55C75.7269 50.0767 76.8262 48.9433 78.2315 48.15C79.6595 47.3567 81.2915 46.96 83.1275 46.96C84.8955 46.96 86.4709 47.3453 87.8535 48.116C89.2362 48.8867 90.3129 49.9747 91.0835 51.38C91.8542 52.7627 92.2395 54.3607 92.2395 56.174ZM88.1935 54.95C88.1709 53.522 87.6609 52.3773 86.6635 51.516C85.6662 50.6547 84.4309 50.224 82.9575 50.224C81.6202 50.224 80.4755 50.6547 79.5235 51.516C78.5715 52.3547 78.0049 53.4993 77.8235 54.95H88.1935ZM100.576 50.428V60.798C100.576 61.5007 100.735 62.0107 101.052 62.328C101.392 62.6227 101.959 62.77 102.752 62.77H105.132V66H102.072C100.327 66 98.9892 65.592 98.0599 64.776C97.1306 63.96 96.6659 62.634 96.6659 60.798V50.428H94.4559V47.266H96.6659V42.608H100.576V47.266H105.132V50.428H100.576ZM113.226 50.428V60.798C113.226 61.5007 113.385 62.0107 113.702 62.328C114.042 62.6227 114.609 62.77 115.402 62.77H117.782V66H114.722C112.977 66 111.64 65.592 110.71 64.776C109.781 63.96 109.316 62.634 109.316 60.798V50.428H107.106V47.266H109.316V42.608H113.226V47.266H117.782V50.428H113.226ZM123.327 44.784C122.624 44.784 122.035 44.546 121.559 44.07C121.083 43.594 120.845 43.0047 120.845 42.302C120.845 41.5993 121.083 41.01 121.559 40.534C122.035 40.058 122.624 39.82 123.327 39.82C124.007 39.82 124.585 40.058 125.061 40.534C125.537 41.01 125.775 41.5993 125.775 42.302C125.775 43.0047 125.537 43.594 125.061 44.07C124.585 44.546 124.007 44.784 123.327 44.784ZM125.231 47.266V66H121.355V47.266H125.231ZM139.772 46.96C141.245 46.96 142.56 47.266 143.716 47.878C144.894 48.49 145.812 49.3967 146.47 50.598C147.127 51.7993 147.456 53.25 147.456 54.95V66H143.614V55.528C143.614 53.8507 143.194 52.57 142.356 51.686C141.517 50.7793 140.372 50.326 138.922 50.326C137.471 50.326 136.315 50.7793 135.454 51.686C134.615 52.57 134.196 53.8507 134.196 55.528V66H130.32V47.266H134.196V49.408C134.83 48.6373 135.635 48.0367 136.61 47.606C137.607 47.1753 138.661 46.96 139.772 46.96ZM159.948 46.96C161.398 46.96 162.679 47.2547 163.79 47.844C164.923 48.4107 165.807 49.1247 166.442 49.986V47.266H170.352V66.306C170.352 68.0287 169.989 69.5587 169.264 70.896C168.538 72.256 167.484 73.3213 166.102 74.092C164.742 74.8627 163.11 75.248 161.206 75.248C158.667 75.248 156.559 74.6473 154.882 73.446C153.204 72.2673 152.252 70.658 152.026 68.618H155.868C156.162 69.5927 156.786 70.3747 157.738 70.964C158.712 71.576 159.868 71.882 161.206 71.882C162.77 71.882 164.028 71.406 164.98 70.454C165.954 69.502 166.442 68.1193 166.442 66.306V63.178C165.784 64.062 164.889 64.81 163.756 65.422C162.645 66.0113 161.376 66.306 159.948 66.306C158.316 66.306 156.82 65.898 155.46 65.082C154.122 64.2433 153.057 63.0873 152.264 61.614C151.493 60.118 151.108 58.4293 151.108 56.548C151.108 54.6667 151.493 53.0007 152.264 51.55C153.057 50.0993 154.122 48.9773 155.46 48.184C156.82 47.368 158.316 46.96 159.948 46.96ZM166.442 56.616C166.442 55.324 166.17 54.202 165.626 53.25C165.104 52.298 164.413 51.5727 163.552 51.074C162.69 50.5753 161.761 50.326 160.764 50.326C159.766 50.326 158.837 50.5753 157.976 51.074C157.114 51.55 156.412 52.264 155.868 53.216C155.346 54.1453 155.086 55.256 155.086 56.548C155.086 57.84 155.346 58.9733 155.868 59.948C156.412 60.9227 157.114 61.6707 157.976 62.192C158.86 62.6907 159.789 62.94 160.764 62.94C161.761 62.94 162.69 62.6907 163.552 62.192C164.413 61.6933 165.104 60.968 165.626 60.016C166.17 59.0413 166.442 57.908 166.442 56.616ZM182.243 66.306C180.769 66.306 179.443 66.0453 178.265 65.524C177.109 64.98 176.191 64.2547 175.511 63.348C174.831 62.4187 174.468 61.3873 174.423 60.254H178.435C178.503 61.0473 178.877 61.716 179.557 62.26C180.259 62.7813 181.132 63.042 182.175 63.042C183.263 63.042 184.101 62.838 184.691 62.43C185.303 61.9993 185.609 61.4553 185.609 60.798C185.609 60.0953 185.269 59.574 184.589 59.234C183.931 58.894 182.877 58.52 181.427 58.112C180.021 57.7267 178.877 57.3527 177.993 56.99C177.109 56.6273 176.338 56.072 175.681 55.324C175.046 54.576 174.729 53.59 174.729 52.366C174.729 51.3687 175.023 50.462 175.613 49.646C176.202 48.8073 177.041 48.15 178.129 47.674C179.239 47.198 180.509 46.96 181.937 46.96C184.067 46.96 185.779 47.504 187.071 48.592C188.385 49.6573 189.088 51.1193 189.179 52.978H185.303C185.235 52.1393 184.895 51.4707 184.283 50.972C183.671 50.4733 182.843 50.224 181.801 50.224C180.781 50.224 179.999 50.4167 179.455 50.802C178.911 51.1873 178.639 51.6973 178.639 52.332C178.639 52.8307 178.82 53.25 179.183 53.59C179.545 53.93 179.987 54.202 180.509 54.406C181.03 54.5873 181.801 54.8253 182.821 55.12C184.181 55.4827 185.291 55.8567 186.153 56.242C187.037 56.6047 187.796 57.1487 188.431 57.874C189.065 58.5993 189.394 59.5627 189.417 60.764C189.417 61.8293 189.122 62.7813 188.533 63.62C187.943 64.4587 187.105 65.116 186.017 65.592C184.951 66.068 183.693 66.306 182.243 66.306Z" fill="#414141"/>
</svg>
