<svg width="24" height="24" viewBox="0 0 24 24" fill="none" xmlns="http://www.w3.org/2000/svg">
<path d="M9.31588 21C7.76256 20.5362 6.35579 19.6782 5.23249 18.5094C5.5939 18.0807 5.8192 17.554 5.87955 16.9966C5.9399 16.4391 5.83256 15.8764 5.57125 15.3803C5.30995 14.8842 4.90658 14.4774 4.41275 14.2118C3.91892 13.9463 3.3571 13.8342 2.79917 13.8898C2.67206 13.2671 2.60819 12.6333 2.60852 11.9978C2.60852 11.0164 2.75878 10.0698 3.03865 9.18042H3.07809C3.55694 9.18058 4.02793 9.05868 4.44658 8.82625C4.86523 8.59381 5.21774 8.25851 5.47081 7.852C5.72388 7.44549 5.86916 6.98118 5.89295 6.50293C5.91673 6.02467 5.81823 5.54824 5.60673 5.11863C6.70769 4.09347 8.03914 3.34826 9.48868 2.94592C9.72458 3.40911 10.084 3.79801 10.5272 4.06958C10.9704 4.34116 11.4801 4.48484 11.9999 4.48471C12.5197 4.48484 13.0294 4.34116 13.4727 4.06958C13.9159 3.79801 14.2753 3.40911 14.5112 2.94592C15.9608 3.34826 17.2922 4.09347 18.3932 5.11863C18.1801 5.55125 18.0817 6.03131 18.1073 6.51286C18.1329 6.99441 18.2817 7.46133 18.5394 7.86892C18.7971 8.27652 19.1551 8.61114 19.5791 8.84077C20.0032 9.0704 20.4791 9.18735 20.9612 9.18042C21.2472 10.0922 21.3922 11.0423 21.3914 11.9978C21.3914 12.6459 21.3256 13.2788 21.2007 13.8902C20.6428 13.8346 20.081 13.9468 19.5871 14.2123C19.0933 14.4778 18.6899 14.8847 18.4286 15.3807C18.1673 15.8768 18.06 16.4396 18.1203 16.997C18.1807 17.5545 18.406 18.0812 18.7674 18.5099C17.6441 19.6785 16.2373 20.5364 14.684 21C14.5016 20.4315 14.1434 19.9356 13.661 19.5837C13.1786 19.2319 12.597 19.0423 11.9999 19.0423C11.4029 19.0423 10.8213 19.2319 10.3389 19.5837C9.85649 19.9356 9.49828 20.4315 9.31588 21Z" stroke="#414141" stroke-linejoin="round"/>
<path d="M12 15.2847C12.4316 15.2847 12.859 15.1997 13.2578 15.0345C13.6566 14.8693 14.019 14.6272 14.3242 14.322C14.6294 14.0168 14.8716 13.6544 15.0367 13.2556C15.2019 12.8568 15.287 12.4294 15.287 11.9977C15.287 11.5661 15.2019 11.1386 15.0367 10.7398C14.8716 10.341 14.6294 9.97869 14.3242 9.67346C14.019 9.36824 13.6566 9.12612 13.2578 8.96093C12.859 8.79574 12.4316 8.71072 12 8.71072C11.1282 8.71072 10.2921 9.05703 9.67569 9.67346C9.05926 10.2899 8.71295 11.126 8.71295 11.9977C8.71295 12.8695 9.05926 13.7056 9.67569 14.322C10.2921 14.9384 11.1282 15.2847 12 15.2847Z" stroke="#414141" stroke-linejoin="round"/>
</svg>
