<svg width="478" height="102" viewBox="0 0 478 102" fill="none" xmlns="http://www.w3.org/2000/svg">
<rect width="478" height="102" rx="4" fill="#52C498"/>
<path d="M62.336 66.238C60.7493 66.238 59.3213 65.966 58.052 65.422C56.7827 64.8553 55.7853 64.062 55.06 63.042C54.3347 62.022 53.972 60.832 53.972 59.472H58.12C58.2107 60.492 58.6073 61.3307 59.31 61.988C60.0353 62.6453 61.044 62.974 62.336 62.974C63.6733 62.974 64.716 62.6567 65.464 62.022C66.212 61.3647 66.586 60.526 66.586 59.506C66.586 58.7127 66.348 58.0667 65.872 57.568C65.4187 57.0693 64.8407 56.684 64.138 56.412C63.458 56.14 62.506 55.8453 61.282 55.528C59.7407 55.12 58.4827 54.712 57.508 54.304C56.556 53.8733 55.74 53.216 55.06 52.332C54.38 51.448 54.04 50.2693 54.04 48.796C54.04 47.436 54.38 46.246 55.06 45.226C55.74 44.206 56.692 43.424 57.916 42.88C59.14 42.336 60.5567 42.064 62.166 42.064C64.4553 42.064 66.3253 42.642 67.776 43.798C69.2493 44.9313 70.0653 46.4953 70.224 48.49H65.94C65.872 47.6287 65.464 46.892 64.716 46.28C63.968 45.668 62.982 45.362 61.758 45.362C60.6473 45.362 59.7407 45.6453 59.038 46.212C58.3353 46.7787 57.984 47.5947 57.984 48.66C57.984 49.3853 58.1993 49.986 58.63 50.462C59.0833 50.9153 59.65 51.278 60.33 51.55C61.01 51.822 61.9393 52.1167 63.118 52.434C64.682 52.8647 65.9513 53.2953 66.926 53.726C67.9233 54.1567 68.762 54.8253 69.442 55.732C70.1447 56.616 70.496 57.806 70.496 59.302C70.496 60.5033 70.1673 61.6367 69.51 62.702C68.8753 63.7673 67.9347 64.6287 66.688 65.286C65.464 65.9207 64.0133 66.238 62.336 66.238ZM77.0415 44.784C76.3389 44.784 75.7495 44.546 75.2735 44.07C74.7975 43.594 74.5595 43.0047 74.5595 42.302C74.5595 41.5993 74.7975 41.01 75.2735 40.534C75.7495 40.058 76.3389 39.82 77.0415 39.82C77.7215 39.82 78.2995 40.058 78.7755 40.534C79.2515 41.01 79.4895 41.5993 79.4895 42.302C79.4895 43.0047 79.2515 43.594 78.7755 44.07C78.2995 44.546 77.7215 44.784 77.0415 44.784ZM78.9455 47.266V66H75.0695V47.266H78.9455ZM82.7424 56.548C82.7424 54.6667 83.1277 53.0007 83.8984 51.55C84.6917 50.0993 85.757 48.9773 87.0944 48.184C88.4544 47.368 89.9617 46.96 91.6164 46.96C92.8404 46.96 94.0417 47.232 95.2204 47.776C96.4217 48.2973 97.3737 49 98.0764 49.884V40.84H101.986V66H98.0764V63.178C97.4417 64.0847 96.5577 64.8327 95.4244 65.422C94.3137 66.0113 93.033 66.306 91.5824 66.306C89.9504 66.306 88.4544 65.898 87.0944 65.082C85.757 64.2433 84.6917 63.0873 83.8984 61.614C83.1277 60.118 82.7424 58.4293 82.7424 56.548ZM98.0764 56.616C98.0764 55.324 97.8044 54.202 97.2604 53.25C96.739 52.298 96.0477 51.5727 95.1864 51.074C94.325 50.5753 93.3957 50.326 92.3984 50.326C91.401 50.326 90.4717 50.5753 89.6104 51.074C88.749 51.55 88.0464 52.264 87.5024 53.216C86.981 54.1453 86.7204 55.256 86.7204 56.548C86.7204 57.84 86.981 58.9733 87.5024 59.948C88.0464 60.9227 88.749 61.6707 89.6104 62.192C90.4944 62.6907 91.4237 62.94 92.3984 62.94C93.3957 62.94 94.325 62.6907 95.1864 62.192C96.0477 61.6933 96.739 60.968 97.2604 60.016C97.8044 59.0413 98.0764 57.908 98.0764 56.616ZM124.247 56.174C124.247 56.8767 124.202 57.5113 124.111 58.078H109.797C109.911 59.574 110.466 60.7753 111.463 61.682C112.461 62.5887 113.685 63.042 115.135 63.042C117.221 63.042 118.694 62.1693 119.555 60.424H123.737C123.171 62.1467 122.139 63.5633 120.643 64.674C119.17 65.762 117.334 66.306 115.135 66.306C113.345 66.306 111.735 65.9093 110.307 65.116C108.902 64.3 107.791 63.1667 106.975 61.716C106.182 60.2427 105.785 58.5427 105.785 56.616C105.785 54.6893 106.171 53.0007 106.941 51.55C107.735 50.0767 108.834 48.9433 110.239 48.15C111.667 47.3567 113.299 46.96 115.135 46.96C116.903 46.96 118.479 47.3453 119.861 48.116C121.244 48.8867 122.321 49.9747 123.091 51.38C123.862 52.7627 124.247 54.3607 124.247 56.174ZM120.201 54.95C120.179 53.522 119.669 52.3773 118.671 51.516C117.674 50.6547 116.439 50.224 114.965 50.224C113.628 50.224 112.483 50.6547 111.531 51.516C110.579 52.3547 110.013 53.4993 109.831 54.95H120.201ZM161.782 42.37V66H157.906V49.816L150.698 66H148.012L140.77 49.816V66H136.894V42.37H141.076L149.372 60.9L157.634 42.37H161.782ZM184.046 56.174C184.046 56.8767 184.001 57.5113 183.91 58.078H169.596C169.71 59.574 170.265 60.7753 171.262 61.682C172.26 62.5887 173.484 63.042 174.934 63.042C177.02 63.042 178.493 62.1693 179.354 60.424H183.536C182.97 62.1467 181.938 63.5633 180.442 64.674C178.969 65.762 177.133 66.306 174.934 66.306C173.144 66.306 171.534 65.9093 170.106 65.116C168.701 64.3 167.59 63.1667 166.774 61.716C165.981 60.2427 165.584 58.5427 165.584 56.616C165.584 54.6893 165.97 53.0007 166.74 51.55C167.534 50.0767 168.633 48.9433 170.038 48.15C171.466 47.3567 173.098 46.96 174.934 46.96C176.702 46.96 178.278 47.3453 179.66 48.116C181.043 48.8867 182.12 49.9747 182.89 51.38C183.661 52.7627 184.046 54.3607 184.046 56.174ZM180 54.95C179.978 53.522 179.468 52.3773 178.47 51.516C177.473 50.6547 176.238 50.224 174.764 50.224C173.427 50.224 172.282 50.6547 171.33 51.516C170.378 52.3547 169.812 53.4993 169.63 54.95H180ZM197.313 46.96C198.786 46.96 200.101 47.266 201.257 47.878C202.435 48.49 203.353 49.3967 204.011 50.598C204.668 51.7993 204.997 53.25 204.997 54.95V66H201.155V55.528C201.155 53.8507 200.735 52.57 199.897 51.686C199.058 50.7793 197.913 50.326 196.463 50.326C195.012 50.326 193.856 50.7793 192.995 51.686C192.156 52.57 191.737 53.8507 191.737 55.528V66H187.861V47.266H191.737V49.408C192.371 48.6373 193.176 48.0367 194.151 47.606C195.148 47.1753 196.202 46.96 197.313 46.96ZM226.907 47.266V66H223.031V63.79C222.419 64.5607 221.614 65.1727 220.617 65.626C219.642 66.0567 218.599 66.272 217.489 66.272C216.015 66.272 214.689 65.966 213.511 65.354C212.355 64.742 211.437 63.8353 210.757 62.634C210.099 61.4327 209.771 59.982 209.771 58.282V47.266H213.613V57.704C213.613 59.3813 214.032 60.6733 214.871 61.58C215.709 62.464 216.854 62.906 218.305 62.906C219.755 62.906 220.9 62.464 221.739 61.58C222.6 60.6733 223.031 59.3813 223.031 57.704V47.266H226.907Z" fill="#414141"/>
</svg>
