<svg width="3559" height="102" viewBox="0 0 3559 102" fill="none" xmlns="http://www.w3.org/2000/svg">
<rect width="3559" height="102" rx="4" fill="#52C498"/>
<path d="M69.816 42.37V45.532H63.526V66H59.65V45.532H53.326V42.37H69.816ZM77.6174 49.986C78.1841 49.034 78.9321 48.2973 79.8614 47.776C80.8134 47.232 81.9354 46.96 83.2274 46.96V50.972H82.2414C80.7227 50.972 79.5667 51.3573 78.7734 52.128C78.0027 52.8987 77.6174 54.236 77.6174 56.14V66H73.7414V47.266H77.6174V49.986ZM85.4982 56.548C85.4982 54.6667 85.8836 53.0007 86.6542 51.55C87.4476 50.0993 88.5129 48.9773 89.8502 48.184C91.2102 47.368 92.7062 46.96 94.3382 46.96C95.8116 46.96 97.0922 47.2547 98.1802 47.844C99.2909 48.4107 100.175 49.1247 100.832 49.986V47.266H104.742V66H100.832V63.212C100.175 64.096 99.2796 64.8327 98.1462 65.422C97.0129 66.0113 95.7209 66.306 94.2702 66.306C92.6609 66.306 91.1876 65.898 89.8502 65.082C88.5129 64.2433 87.4476 63.0873 86.6542 61.614C85.8836 60.118 85.4982 58.4293 85.4982 56.548ZM100.832 56.616C100.832 55.324 100.56 54.202 100.016 53.25C99.4949 52.298 98.8036 51.5727 97.9422 51.074C97.0809 50.5753 96.1516 50.326 95.1542 50.326C94.1569 50.326 93.2276 50.5753 92.3662 51.074C91.5049 51.55 90.8022 52.264 90.2582 53.216C89.7369 54.1453 89.4762 55.256 89.4762 56.548C89.4762 57.84 89.7369 58.9733 90.2582 59.948C90.8022 60.9227 91.5049 61.6707 92.3662 62.192C93.2502 62.6907 94.1796 62.94 95.1542 62.94C96.1516 62.94 97.0809 62.6907 97.9422 62.192C98.8036 61.6933 99.4949 60.968 100.016 60.016C100.56 59.0413 100.832 57.908 100.832 56.616ZM119.285 46.96C120.759 46.96 122.073 47.266 123.229 47.878C124.408 48.49 125.326 49.3967 125.983 50.598C126.641 51.7993 126.969 53.25 126.969 54.95V66H123.127V55.528C123.127 53.8507 122.708 52.57 121.869 51.686C121.031 50.7793 119.886 50.326 118.435 50.326C116.985 50.326 115.829 50.7793 114.967 51.686C114.129 52.57 113.709 53.8507 113.709 55.528V66H109.833V47.266H113.709V49.408C114.344 48.6373 115.149 48.0367 116.123 47.606C117.121 47.1753 118.175 46.96 119.285 46.96ZM138.713 66.306C137.24 66.306 135.914 66.0453 134.735 65.524C133.579 64.98 132.661 64.2547 131.981 63.348C131.301 62.4187 130.939 61.3873 130.893 60.254H134.905C134.973 61.0473 135.347 61.716 136.027 62.26C136.73 62.7813 137.603 63.042 138.645 63.042C139.733 63.042 140.572 62.838 141.161 62.43C141.773 61.9993 142.079 61.4553 142.079 60.798C142.079 60.0953 141.739 59.574 141.059 59.234C140.402 58.894 139.348 58.52 137.897 58.112C136.492 57.7267 135.347 57.3527 134.463 56.99C133.579 56.6273 132.809 56.072 132.151 55.324C131.517 54.576 131.199 53.59 131.199 52.366C131.199 51.3687 131.494 50.462 132.083 49.646C132.673 48.8073 133.511 48.15 134.599 47.674C135.71 47.198 136.979 46.96 138.407 46.96C140.538 46.96 142.249 47.504 143.541 48.592C144.856 49.6573 145.559 51.1193 145.649 52.978H141.773C141.705 52.1393 141.365 51.4707 140.753 50.972C140.141 50.4733 139.314 50.224 138.271 50.224C137.251 50.224 136.469 50.4167 135.925 50.802C135.381 51.1873 135.109 51.6973 135.109 52.332C135.109 52.8307 135.291 53.25 135.653 53.59C136.016 53.93 136.458 54.202 136.979 54.406C137.501 54.5873 138.271 54.8253 139.291 55.12C140.651 55.4827 141.762 55.8567 142.623 56.242C143.507 56.6047 144.267 57.1487 144.901 57.874C145.536 58.5993 145.865 59.5627 145.887 60.764C145.887 61.8293 145.593 62.7813 145.003 63.62C144.414 64.4587 143.575 65.116 142.487 65.592C141.422 66.068 140.164 66.306 138.713 66.306ZM153.951 50.02C154.609 49.1587 155.504 48.4333 156.637 47.844C157.771 47.2547 159.051 46.96 160.479 46.96C162.111 46.96 163.596 47.368 164.933 48.184C166.293 48.9773 167.359 50.0993 168.129 51.55C168.9 53.0007 169.285 54.6667 169.285 56.548C169.285 58.4293 168.9 60.118 168.129 61.614C167.359 63.0873 166.293 64.2433 164.933 65.082C163.596 65.898 162.111 66.306 160.479 66.306C159.051 66.306 157.782 66.0227 156.671 65.456C155.561 64.8667 154.654 64.1413 153.951 63.28V74.908H150.075V47.266H153.951V50.02ZM165.341 56.548C165.341 55.256 165.069 54.1453 164.525 53.216C164.004 52.264 163.301 51.55 162.417 51.074C161.556 50.5753 160.627 50.326 159.629 50.326C158.655 50.326 157.725 50.5753 156.841 51.074C155.98 51.5727 155.277 52.298 154.733 53.25C154.212 54.202 153.951 55.324 153.951 56.616C153.951 57.908 154.212 59.0413 154.733 60.016C155.277 60.968 155.98 61.6933 156.841 62.192C157.725 62.6907 158.655 62.94 159.629 62.94C160.627 62.94 161.556 62.6907 162.417 62.192C163.301 61.6707 164.004 60.9227 164.525 59.948C165.069 58.9733 165.341 57.84 165.341 56.548ZM181.244 66.306C179.476 66.306 177.878 65.9093 176.45 65.116C175.022 64.3 173.9 63.1667 173.084 61.716C172.268 60.2427 171.86 58.5427 171.86 56.616C171.86 54.712 172.28 53.0233 173.118 51.55C173.957 50.0767 175.102 48.9433 176.552 48.15C178.003 47.3567 179.624 46.96 181.414 46.96C183.205 46.96 184.826 47.3567 186.276 48.15C187.727 48.9433 188.872 50.0767 189.71 51.55C190.549 53.0233 190.968 54.712 190.968 56.616C190.968 58.52 190.538 60.2087 189.676 61.682C188.815 63.1553 187.636 64.3 186.14 65.116C184.667 65.9093 183.035 66.306 181.244 66.306ZM181.244 62.94C182.242 62.94 183.171 62.702 184.032 62.226C184.916 61.75 185.63 61.036 186.174 60.084C186.718 59.132 186.99 57.976 186.99 56.616C186.99 55.256 186.73 54.1113 186.208 53.182C185.687 52.23 184.996 51.516 184.134 51.04C183.273 50.564 182.344 50.326 181.346 50.326C180.349 50.326 179.42 50.564 178.558 51.04C177.72 51.516 177.051 52.23 176.552 53.182C176.054 54.1113 175.804 55.256 175.804 56.616C175.804 58.6333 176.314 60.1973 177.334 61.308C178.377 62.396 179.68 62.94 181.244 62.94ZM198.676 49.986C199.243 49.034 199.991 48.2973 200.92 47.776C201.872 47.232 202.994 46.96 204.286 46.96V50.972H203.3C201.781 50.972 200.625 51.3573 199.832 52.128C199.061 52.8987 198.676 54.236 198.676 56.14V66H194.8V47.266H198.676V49.986ZM212.371 50.428V60.798C212.371 61.5007 212.529 62.0107 212.847 62.328C213.187 62.6227 213.753 62.77 214.547 62.77H216.927V66H213.867C212.121 66 210.784 65.592 209.855 64.776C208.925 63.96 208.461 62.634 208.461 60.798V50.428H206.251V47.266H208.461V42.608H212.371V47.266H216.927V50.428H212.371Z" fill="#414141"/>
</svg>
