<svg width="24" height="24" viewBox="0 0 24 24" fill="none" xmlns="http://www.w3.org/2000/svg">
<path d="M18 21L5.99999 21C5.33725 21 4.79999 20.4627 4.79999 19.8C4.79999 17.8151 6.03143 16.0385 7.89008 15.3418L8.2591 15.2035C10.6711 14.2995 13.3289 14.2995 15.7409 15.2035L16.1099 15.3418C17.9685 16.0385 19.2 17.8151 19.2 19.8C19.2 20.4627 18.6627 21 18 21Z" fill="#414141" stroke="#414141" stroke-linecap="square" stroke-linejoin="round"/>
<path d="M9.60499 10.0453C10.902 11.4288 13.098 11.4288 14.395 10.0453C15.5789 8.78252 15.5789 6.81748 14.395 5.55468C13.098 4.17122 10.902 4.17122 9.60499 5.55468C8.42111 6.81748 8.42111 8.78252 9.60499 10.0453Z" fill="#414141" stroke="#414141" stroke-width="4" stroke-linecap="round" stroke-linejoin="round"/>
</svg>
