<svg width="24" height="24" viewBox="0 0 24 24" fill="none" xmlns="http://www.w3.org/2000/svg">
<path d="M18 21H5.99999C5.33725 21 4.79999 20.4627 4.79999 19.8C4.79999 17.8151 6.03143 16.0385 7.89008 15.3418L8.2591 15.2035C10.6711 14.2995 13.3289 14.2995 15.7409 15.2035L16.1099 15.3418C17.9685 16.0385 19.2 17.8151 19.2 19.8C19.2 20.4627 18.6627 21 18 21Z" fill="#C2CCDE" fill-opacity="0.25"/>
<path d="M10.1704 11.6602C11.3188 12.2501 12.6812 12.2501 13.8296 11.6602C14.8983 11.1112 15.6641 10.1113 15.9155 8.93633L15.9826 8.62276C16.2397 7.42126 15.965 6.16728 15.2293 5.18321L15.1216 5.03911C14.3858 4.05489 13.2289 3.47535 12 3.47535C10.7711 3.47535 9.61422 4.0549 8.8784 5.03911L8.77066 5.18321C8.03494 6.16728 7.76032 7.42126 8.01741 8.62276L8.08451 8.93633C8.33592 10.1113 9.10166 11.1112 10.1704 11.6602Z" fill="#C2CCDE" fill-opacity="0.25"/>
<path d="M18 21H5.99999C5.33725 21 4.79999 20.4627 4.79999 19.8C4.79999 17.8151 6.03143 16.0385 7.89008 15.3418L8.2591 15.2035C10.6711 14.2995 13.3289 14.2995 15.7409 15.2035L16.1099 15.3418C17.9685 16.0385 19.2 17.8151 19.2 19.8C19.2 20.4627 18.6627 21 18 21Z" stroke="#414141" stroke-linecap="round" stroke-linejoin="round"/>
<path d="M10.1704 11.6602C11.3188 12.2501 12.6812 12.2501 13.8296 11.6602C14.8983 11.1112 15.6641 10.1113 15.9155 8.93633L15.9826 8.62276C16.2397 7.42126 15.965 6.16728 15.2293 5.18321L15.1216 5.03911C14.3858 4.05489 13.2289 3.47535 12 3.47535C10.7711 3.47535 9.61422 4.0549 8.8784 5.03911L8.77066 5.18321C8.03494 6.16728 7.76032 7.42126 8.01741 8.62276L8.08451 8.93633C8.33592 10.1113 9.10166 11.1112 10.1704 11.6602Z" stroke="#414141" stroke-linecap="round" stroke-linejoin="round"/>
</svg>
