<svg width="24" height="24" viewBox="0 0 24 24" fill="none" xmlns="http://www.w3.org/2000/svg">
<path fill-rule="evenodd" clip-rule="evenodd" d="M3.60001 6.6V17.4C3.60001 18.3941 4.40589 19.2 5.40001 19.2H18.6C19.5941 19.2 20.4 18.3941 20.4 17.4V9C20.4 8.00589 19.5941 7.2 18.6 7.2H6.75001C6.41864 7.2 6.15001 6.93137 6.15001 6.6C6.15001 6.26863 6.41864 6 6.75001 6H17.8976C17.6505 5.30088 16.9837 4.8 16.2 4.8H5.40001C4.40589 4.8 3.60001 5.60589 3.60001 6.6ZM15.6 12.9C15.6 12.2373 16.1373 11.7 16.8 11.7C17.4627 11.7 18 12.2373 18 12.9C18 13.5627 17.4627 14.1 16.8 14.1C16.1373 14.1 15.6 13.5627 15.6 12.9Z" fill="#414141"/>
</svg>
