<svg width="1979" height="102" viewBox="0 0 1979 102" fill="none" xmlns="http://www.w3.org/2000/svg">
<rect width="1979" height="102" rx="4" fill="#52C498"/>
<path d="M85.32 42.37L78.316 66H73.93L68.966 48.116L63.696 66L59.344 66.034L52.646 42.37H56.76L61.656 61.614L66.96 42.37H71.312L76.242 61.512L81.172 42.37H85.32ZM87.2248 56.548C87.2248 54.6667 87.6101 53.0007 88.3808 51.55C89.1741 50.0993 90.2395 48.9773 91.5768 48.184C92.9368 47.368 94.4328 46.96 96.0648 46.96C97.5381 46.96 98.8188 47.2547 99.9068 47.844C101.017 48.4107 101.901 49.1247 102.559 49.986V47.266H106.469V66H102.559V63.212C101.901 64.096 101.006 64.8327 99.8728 65.422C98.7395 66.0113 97.4475 66.306 95.9968 66.306C94.3875 66.306 92.9141 65.898 91.5768 65.082C90.2395 64.2433 89.1741 63.0873 88.3808 61.614C87.6101 60.118 87.2248 58.4293 87.2248 56.548ZM102.559 56.616C102.559 55.324 102.287 54.202 101.743 53.25C101.221 52.298 100.53 51.5727 99.6688 51.074C98.8075 50.5753 97.8781 50.326 96.8808 50.326C95.8835 50.326 94.9541 50.5753 94.0928 51.074C93.2315 51.55 92.5288 52.264 91.9848 53.216C91.4635 54.1453 91.2028 55.256 91.2028 56.548C91.2028 57.84 91.4635 58.9733 91.9848 59.948C92.5288 60.9227 93.2315 61.6707 94.0928 62.192C94.9768 62.6907 95.9061 62.94 96.8808 62.94C97.8781 62.94 98.8075 62.6907 99.6688 62.192C100.53 61.6933 101.221 60.968 101.743 60.016C102.287 59.0413 102.559 57.908 102.559 56.616ZM115.436 40.84V66H111.56V40.84H115.436ZM124.401 40.84V66H120.525V40.84H124.401ZM146.659 56.174C146.659 56.8767 146.614 57.5113 146.523 58.078H132.209C132.323 59.574 132.878 60.7753 133.875 61.682C134.873 62.5887 136.097 63.042 137.547 63.042C139.633 63.042 141.106 62.1693 141.967 60.424H146.149C145.583 62.1467 144.551 63.5633 143.055 64.674C141.582 65.762 139.746 66.306 137.547 66.306C135.757 66.306 134.147 65.9093 132.719 65.116C131.314 64.3 130.203 63.1667 129.387 61.716C128.594 60.2427 128.197 58.5427 128.197 56.616C128.197 54.6893 128.583 53.0007 129.353 51.55C130.147 50.0767 131.246 48.9433 132.651 48.15C134.079 47.3567 135.711 46.96 137.547 46.96C139.315 46.96 140.891 47.3453 142.273 48.116C143.656 48.8867 144.733 49.9747 145.503 51.38C146.274 52.7627 146.659 54.3607 146.659 56.174ZM142.613 54.95C142.591 53.522 142.081 52.3773 141.083 51.516C140.086 50.6547 138.851 50.224 137.377 50.224C136.04 50.224 134.895 50.6547 133.943 51.516C132.991 52.3547 132.425 53.4993 132.243 54.95H142.613ZM154.996 50.428V60.798C154.996 61.5007 155.154 62.0107 155.472 62.328C155.812 62.6227 156.378 62.77 157.172 62.77H159.552V66H156.492C154.746 66 153.409 65.592 152.48 64.776C151.55 63.96 151.086 62.634 151.086 60.798V50.428H148.876V47.266H151.086V42.608H154.996V47.266H159.552V50.428H154.996Z" fill="#414141"/>
</svg>
